P3
# Created by GIMP version 2.10.30 PNM plug-in
64 64
255
68
146
246
68
146
246
68
146
246
68
146
246
68
146
246
68
146
246
68
146
246
68
146
246
68
146
246
68
146
246
68
146
246
68
146
246
68
146
246
68
146
246
68
146
246
68
146
246
68
146
246
68
146
246
68
146
246
68
146
246
68
146
246
68
146
246
68
146
246
68
146
246
68
146
246
68
146
246
68
146
246
68
146
246
68
146
246
68
146
246
68
146
246
68
146
246
68
146
246
68
146
246
68
146
246
68
146
246
68
146
246
68
146
246
68
146
246
68
146
246
68
146
246
68
146
246
68
146
246
68
146
246
68
146
246
68
146
246
68
146
246
68
146
246
68
146
246
68
146
246
68
146
246
68
146
246
68
146
246
68
146
246
68
146
246
68
146
246
68
146
246
68
146
246
68
146
246
68
146
246
68
146
246
68
146
246
68
146
246
68
146
246
68
146
246
68
146
246
68
146
246
68
146
246
68
146
246
68
146
246
68
146
246
68
146
246
68
146
246
68
146
246
68
146
246
68
146
246
68
146
246
68
146
246
68
146
246
68
146
246
68
146
246
68
146
246
68
146
246
68
146
246
68
146
246
68
146
246
68
146
246
68
146
246
68
146
246
68
146
246
68
146
246
68
146
246
68
146
246
68
146
246
68
146
246
68
146
246
68
146
246
68
146
246
68
146
246
68
146
246
68
146
246
68
146
246
68
146
246
68
146
246
68
146
246
68
146
246
68
146
246
68
146
246
68
146
246
68
146
246
68
146
246
68
146
246
68
146
246
68
146
246
68
146
246
68
146
246
68
146
246
68
146
246
68
146
246
68
146
246
68
146
246
68
146
246
68
146
246
68
146
246
68
146
246
68
146
246
68
146
246
68
146
246
68
146
246
68
146
246
68
146
246
68
146
246
68
146
246
68
146
246
68
146
246
68
146
246
68
146
246
68
146
246
68
146
246
68
146
246
68
146
246
68
146
246
68
146
246
68
146
246
68
146
246
68
146
246
68
146
246
68
146
246
68
146
246
68
146
246
68
146
246
68
146
246
68
146
246
68
146
246
68
146
246
68
146
246
68
146
246
68
146
246
68
146
246
68
146
246
68
146
246
68
146
246
68
146
246
68
146
246
68
146
246
68
146
246
68
146
246
68
146
246
68
146
246
68
146
246
68
146
246
68
146
246
68
146
246
68
146
246
68
146
246
68
146
246
68
146
246
68
146
246
68
146
246
68
146
246
68
146
246
68
146
246
68
146
246
68
146
246
68
146
246
68
146
246
68
146
246
68
146
246
68
146
246
68
146
246
68
146
246
68
146
246
68
146
246
68
146
246
68
146
246
68
146
246
68
146
246
68
146
246
68
146
246
68
146
246
68
146
246
68
146
246
68
146
246
68
146
246
68
146
246
68
146
246
68
146
246
68
146
246
68
146
246
68
146
246
68
146
246
68
146
246
68
146
246
68
146
246
68
146
246
68
146
246
68
146
246
68
146
246
68
146
246
68
146
246
68
146
246
68
146
246
68
146
246
68
146
246
68
146
246
68
146
246
68
146
246
68
146
246
68
146
246
68
146
246
68
146
246
68
146
246
68
146
246
68
146
246
68
146
246
68
146
246
68
146
246
68
146
246
68
146
246
68
146
246
68
146
246
68
146
246
68
146
246
68
146
246
68
146
246
68
146
246
68
146
246
68
146
246
68
146
246
68
146
246
68
146
246
68
146
246
68
146
246
68
146
246
68
146
246
68
146
246
68
146
246
68
146
246
68
146
246
68
146
246
68
146
246
68
146
246
68
146
246
68
146
246
68
146
246
68
146
246
68
146
246
68
146
246
68
146
246
68
146
246
68
146
246
68
146
246
68
146
246
68
146
246
68
146
246
68
146
246
68
146
246
68
146
246
68
146
246
68
146
246
68
146
246
68
146
246
68
146
246
68
146
246
68
146
246
68
146
246
68
146
246
68
146
246
68
146
246
68
146
246
68
146
246
68
146
246
68
146
246
68
146
246
68
146
246
68
146
246
68
146
246
68
146
246
68
146
246
68
146
246
68
146
246
68
146
246
68
146
246
68
146
246
68
146
246
68
146
246
68
146
246
68
146
246
68
146
246
68
146
246
68
146
246
68
146
246
68
146
246
68
146
246
68
146
246
68
146
246
68
146
246
68
146
246
68
146
246
68
146
246
68
146
246
68
146
246
68
146
246
68
146
246
68
146
246
68
146
246
68
146
246
68
146
246
68
146
246
68
146
246
68
146
246
68
146
246
68
146
246
68
146
246
68
146
246
68
146
246
68
146
246
68
146
246
68
146
246
68
146
246
68
146
246
68
146
246
68
146
246
68
146
246
68
146
246
68
146
246
68
146
246
68
146
246
68
146
246
68
146
246
68
146
246
68
146
246
68
146
246
68
146
246
68
146
246
68
146
246
68
146
246
68
146
246
68
146
246
68
146
246
68
146
246
68
146
246
68
146
246
68
146
246
68
146
246
68
146
246
68
146
246
68
146
246
68
146
246
68
146
246
68
146
246
68
146
246
68
146
246
68
146
246
68
146
246
68
146
246
68
146
246
68
146
246
68
146
246
68
146
246
68
146
246
68
146
246
68
146
246
68
146
246
68
146
246
68
146
246
68
146
246
68
146
246
68
146
246
68
146
246
68
146
246
68
146
246
68
146
246
68
146
246
68
146
246
68
146
246
68
146
246
68
146
246
68
146
246
68
146
246
68
146
246
68
146
246
68
146
246
68
146
246
68
146
246
68
146
246
68
146
246
68
146
246
68
146
246
68
146
246
68
146
246
68
146
246
68
146
246
68
146
246
68
146
246
68
146
246
68
146
246
68
146
246
68
146
246
68
146
246
68
146
246
68
146
246
68
146
246
68
146
246
68
146
246
68
146
246
68
146
246
68
146
246
68
146
246
68
146
246
68
146
246
68
146
246
68
146
246
68
146
246
68
146
246
68
146
246
68
146
246
68
146
246
68
146
246
68
146
246
68
146
246
68
146
246
68
146
246
68
146
246
68
146
246
68
146
246
68
146
246
68
146
246
68
146
246
68
146
246
68
146
246
68
146
246
68
146
246
68
146
246
68
146
246
68
146
246
68
146
246
68
146
246
68
146
246
68
146
246
68
146
246
68
146
246
68
146
246
68
146
246
68
146
246
68
146
246
68
146
246
68
146
246
68
146
246
68
146
246
68
146
246
68
146
246
68
146
246
68
146
246
68
146
246
68
146
246
68
146
246
68
146
246
68
146
246
68
146
246
68
146
246
68
146
246
68
146
246
68
146
246
68
146
246
68
146
246
68
146
246
68
146
246
68
146
246
68
146
246
68
146
246
68
146
246
68
146
246
68
146
246
68
146
246
68
146
246
68
146
246
68
146
246
68
146
246
68
146
246
68
146
246
68
146
246
68
146
246
68
146
246
68
146
246
68
146
246
68
146
246
68
146
246
68
146
246
68
146
246
68
146
246
68
146
246
68
146
246
68
146
246
68
146
246
68
146
246
68
146
246
68
146
246
68
146
246
68
146
246
68
146
246
68
146
246
68
146
246
68
146
246
68
146
246
68
146
246
68
146
246
68
146
246
68
146
246
68
146
246
68
146
246
68
146
246
68
146
246
68
146
246
68
146
246
68
146
246
68
146
246
68
146
246
68
146
246
68
146
246
68
146
246
68
146
246
68
146
246
68
146
246
68
146
246
68
146
246
68
146
246
68
146
246
68
146
246
68
146
246
68
146
246
68
146
246
68
146
246
68
146
246
68
146
246
68
146
246
68
146
246
68
146
246
68
146
246
68
146
246
68
146
246
68
146
246
68
146
246
68
146
246
68
146
246
68
146
246
68
146
246
68
146
246
68
146
246
68
146
246
68
146
246
68
146
246
68
146
246
68
146
246
68
146
246
68
146
246
68
146
246
68
146
246
68
146
246
68
146
246
68
146
246
68
146
246
68
146
246
68
146
246
68
146
246
68
146
246
68
146
246
68
146
246
68
146
246
68
146
246
68
146
246
68
146
246
68
146
246
68
146
246
68
146
246
68
146
246
68
146
246
68
146
246
68
146
246
68
146
246
68
146
246
68
146
246
68
146
246
68
146
246
68
146
246
68
146
246
68
146
246
68
146
246
68
146
246
68
146
246
68
146
246
68
146
246
68
146
246
68
146
246
68
146
246
68
146
246
68
146
246
68
146
246
0
0
0
0
0
0
0
0
0
0
0
0
68
146
246
68
146
246
68
146
246
68
146
246
68
146
246
68
146
246
68
146
246
68
146
246
68
146
246
68
146
246
68
146
246
68
146
246
68
146
246
68
146
246
68
146
246
68
146
246
68
146
246
68
146
246
68
146
246
68
146
246
68
146
246
68
146
246
68
146
246
68
146
246
68
146
246
68
146
246
68
146
246
68
146
246
68
146
246
68
146
246
68
146
246
68
146
246
68
146
246
68
146
246
68
146
246
68
146
246
68
146
246
68
146
246
68
146
246
68
146
246
68
146
246
68
146
246
68
146
246
68
146
246
68
146
246
68
146
246
68
146
246
68
146
246
68
146
246
68
146
246
68
146
246
68
146
246
68
146
246
68
146
246
68
146
246
68
146
246
68
146
246
0
0
0
0
0
0
0
0
0
119
72
50
119
72
50
119
72
50
119
72
50
0
0
0
0
0
0
0
0
0
68
146
246
68
146
246
68
146
246
68
146
246
68
146
246
68
146
246
68
146
246
68
146
246
68
146
246
68
146
246
68
146
246
68
146
246
68
146
246
68
146
246
68
146
246
68
146
246
68
146
246
68
146
246
68
146
246
68
146
246
68
146
246
68
146
246
68
146
246
68
146
246
68
146
246
68
146
246
68
146
246
68
146
246
68
146
246
68
146
246
68
146
246
68
146
246
68
146
246
68
146
246
68
146
246
68
146
246
68
146
246
68
146
246
68
146
246
68
146
246
68
146
246
68
146
246
68
146
246
68
146
246
68
146
246
68
146
246
68
146
246
68
146
246
68
146
246
68
146
246
68
146
246
68
146
246
68
146
246
68
146
246
0
0
0
119
72
50
119
72
50
119
72
50
119
72
50
119
72
50
119
72
50
119
72
50
104
61
40
104
61
40
0
0
0
68
146
246
68
146
246
68
146
246
68
146
246
68
146
246
68
146
246
68
146
246
68
146
246
68
146
246
68
146
246
68
146
246
68
146
246
68
146
246
68
146
246
68
146
246
68
146
246
68
146
246
68
146
246
68
146
246
68
146
246
68
146
246
68
146
246
68
146
246
68
146
246
68
146
246
68
146
246
68
146
246
68
146
246
68
146
246
68
146
246
68
146
246
68
146
246
68
146
246
68
146
246
68
146
246
68
146
246
68
146
246
68
146
246
68
146
246
68
146
246
68
146
246
68
146
246
68
146
246
68
146
246
68
146
246
68
146
246
68
146
246
68
146
246
68
146
246
68
146
246
68
146
246
0
0
0
0
0
0
119
72
50
119
72
50
119
72
50
119
72
50
119
72
50
119
72
50
119
72
50
119
72
50
119
72
50
104
61
40
0
0
0
68
146
246
68
146
246
68
146
246
68
146
246
68
146
246
68
146
246
68
146
246
68
146
246
68
146
246
68
146
246
68
146
246
68
146
246
68
146
246
68
146
246
68
146
246
68
146
246
68
146
246
68
146
246
68
146
246
68
146
246
68
146
246
68
146
246
68
146
246
68
146
246
68
146
246
68
146
246
68
146
246
68
146
246
68
146
246
68
146
246
68
146
246
68
146
246
68
146
246
68
146
246
68
146
246
68
146
246
68
146
246
68
146
246
68
146
246
68
146
246
68
146
246
68
146
246
68
146
246
68
146
246
68
146
246
68
146
246
68
146
246
68
146
246
68
146
246
68
146
246
0
0
0
104
61
40
119
72
50
119
72
50
104
61
40
104
61
40
104
61
40
104
61
40
104
61
40
104
61
40
119
72
50
119
72
50
104
61
40
83
47
30
0
0
0
68
146
246
68
146
246
68
146
246
68
146
246
68
146
246
68
146
246
68
146
246
68
146
246
68
146
246
68
146
246
68
146
246
68
146
246
68
146
246
68
146
246
68
146
246
68
146
246
68
146
246
68
146
246
68
146
246
68
146
246
68
146
246
68
146
246
68
146
246
68
146
246
68
146
246
68
146
246
68
146
246
68
146
246
68
146
246
68
146
246
68
146
246
68
146
246
68
146
246
68
146
246
68
146
246
68
146
246
68
146
246
68
146
246
68
146
246
68
146
246
68
146
246
68
146
246
68
146
246
68
146
246
68
146
246
68
146
246
68
146
246
68
146
246
68
146
246
0
0
0
104
61
40
104
61
40
104
61
40
104
61
40
0
0
0
0
0
0
0
0
0
104
61
40
104
61
40
104
61
40
104
61
40
104
61
40
83
47
30
0
0
0
68
146
246
68
146
246
68
146
246
68
146
246
68
146
246
68
146
246
68
146
246
68
146
246
68
146
246
68
146
246
68
146
246
68
146
246
68
146
246
68
146
246
68
146
246
68
146
246
68
146
246
68
146
246
68
146
246
68
146
246
68
146
246
68
146
246
68
146
246
68
146
246
68
146
246
68
146
246
68
146
246
68
146
246
68
146
246
68
146
246
68
146
246
68
146
246
68
146
246
68
146
246
68
146
246
68
146
246
68
146
246
68
146
246
68
146
246
68
146
246
68
146
246
68
146
246
68
146
246
68
146
246
68
146
246
68
146
246
68
146
246
68
146
246
68
146
246
0
0
0
104
61
40
104
61
40
104
61
40
0
0
0
180
147
117
180
147
117
180
147
117
0
0
0
0
0
0
83
47
30
104
61
40
104
61
40
83
47
30
0
0
0
68
146
246
68
146
246
68
146
246
68
146
246
68
146
246
68
146
246
68
146
246
68
146
246
68
146
246
68
146
246
68
146
246
68
146
246
68
146
246
68
146
246
68
146
246
68
146
246
68
146
246
68
146
246
68
146
246
68
146
246
68
146
246
68
146
246
68
146
246
68
146
246
68
146
246
68
146
246
68
146
246
68
146
246
68
146
246
68
146
246
68
146
246
68
146
246
68
146
246
68
146
246
68
146
246
68
146
246
68
146
246
68
146
246
68
146
246
68
146
246
68
146
246
68
146
246
68
146
246
68
146
246
68
146
246
68
146
246
68
146
246
68
146
246
68
146
246
0
0
0
104
61
40
104
61
40
0
0
0
180
147
117
238
195
154
238
195
154
238
195
154
180
147
117
180
147
117
0
0
0
83
47
30
104
61
40
83
47
30
0
0
0
68
146
246
68
146
246
68
146
246
68
146
246
68
146
246
68
146
246
68
146
246
68
146
246
68
146
246
68
146
246
68
146
246
68
146
246
68
146
246
68
146
246
68
146
246
68
146
246
68
146
246
68
146
246
68
146
246
68
146
246
68
146
246
68
146
246
68
146
246
68
146
246
68
146
246
68
146
246
68
146
246
68
146
246
68
146
246
68
146
246
68
146
246
68
146
246
68
146
246
68
146
246
68
146
246
68
146
246
68
146
246
68
146
246
68
146
246
68
146
246
68
146
246
68
146
246
68
146
246
68
146
246
68
146
246
68
146
246
68
146
246
68
146
246
68
146
246
0
0
0
104
61
40
83
47
30
0
0
0
255
255
255
255
255
255
238
195
154
238
195
154
255
255
255
255
255
255
180
147
117
0
0
0
83
47
30
83
47
30
83
47
30
0
0
0
68
146
246
68
146
246
68
146
246
68
146
246
68
146
246
68
146
246
68
146
246
68
146
246
68
146
246
68
146
246
68
146
246
68
146
246
68
146
246
68
146
246
68
146
246
68
146
246
68
146
246
68
146
246
68
146
246
68
146
246
68
146
246
68
146
246
68
146
246
68
146
246
68
146
246
68
146
246
68
146
246
68
146
246
68
146
246
68
146
246
68
146
246
68
146
246
68
146
246
68
146
246
68
146
246
68
146
246
68
146
246
68
146
246
68
146
246
68
146
246
68
146
246
68
146
246
68
146
246
68
146
246
68
146
246
68
146
246
68
146
246
68
146
246
0
0
0
83
47
30
0
0
0
180
147
117
255
255
255
0
0
0
238
195
154
238
195
154
0
0
0
255
255
255
180
147
117
0
0
0
83
47
30
83
47
30
83
47
30
0
0
0
68
146
246
68
146
246
68
146
246
68
146
246
68
146
246
68
146
246
68
146
246
68
146
246
68
146
246
68
146
246
68
146
246
68
146
246
68
146
246
68
146
246
68
146
246
68
146
246
68
146
246
68
146
246
68
146
246
68
146
246
68
146
246
68
146
246
68
146
246
68
146
246
68
146
246
68
146
246
68
146
246
68
146
246
68
146
246
68
146
246
68
146
246
68
146
246
68
146
246
68
146
246
68
146
246
68
146
246
68
146
246
68
146
246
68
146
246
68
146
246
68
146
246
68
146
246
68
146
246
68
146
246
68
146
246
68
146
246
68
146
246
68
146
246
0
0
0
83
47
30
0
0
0
180
147
117
255
255
255
255
255
255
238
195
154
238
195
154
255
255
255
255
255
255
238
195
154
180
147
117
0
0
0
83
47
30
83
47
30
0
0
0
68
146
246
68
146
246
68
146
246
68
146
246
68
146
246
68
146
246
68
146
246
68
146
246
68
146
246
68
146
246
68
146
246
68
146
246
68
146
246
68
146
246
68
146
246
68
146
246
68
146
246
68
146
246
68
146
246
68
146
246
68
146
246
68
146
246
68
146
246
68
146
246
68
146
246
68
146
246
68
146
246
68
146
246
172
172
172
172
172
172
172
172
172
172
172
172
172
172
172
154
154
154
154
154
154
154
154
154
68
146
246
68
146
246
68
146
246
68
146
246
68
146
246
68
146
246
68
146
246
68
146
246
68
146
246
68
146
246
68
146
246
68
146
246
68
146
246
0
0
0
0
0
0
238
195
154
238
195
154
238
195
154
238
195
154
238
195
154
238
195
154
238
195
154
238
195
154
180
147
117
0
0
0
83
47
30
0
0
0
68
146
246
68
146
246
68
146
246
68
146
246
68
146
246
68
146
246
68
146
246
68
146
246
68
146
246
68
146
246
68
146
246
68
146
246
68
146
246
68
146
246
68
146
246
68
146
246
68
146
246
68
146
246
68
146
246
68
146
246
68
146
246
68
146
246
68
146
246
68
146
246
68
146
246
68
146
246
68
146
246
68
146
246
68
146
246
172
172
172
154
154
154
154
154
154
154
154
154
154
154
154
154
154
154
154
154
154
133
133
133
68
146
246
68
146
246
68
146
246
68
146
246
68
146
246
68
146
246
68
146
246
68
146
246
68
146
246
68
146
246
68
146
246
68
146
246
68
146
246
68
146
246
68
146
246
0
0
0
238
195
154
238
195
154
238
195
154
238
195
154
0
0
0
238
195
154
238
195
154
0
0
0
68
146
246
0
0
0
0
0
0
68
146
246
68
146
246
68
146
246
68
146
246
68
146
246
68
146
246
68
146
246
68
146
246
68
146
246
68
146
246
68
146
246
68
146
246
68
146
246
68
146
246
68
146
246
68
146
246
68
146
246
68
146
246
68
146
246
68
146
246
68
146
246
68
146
246
68
146
246
68
146
246
68
146
246
68
146
246
68
146
246
68
146
246
68
146
246
172
172
172
154
154
154
154
154
154
154
154
154
154
154
154
154
154
154
154
154
154
133
133
133
68
146
246
68
146
246
68
146
246
68
146
246
68
146
246
68
146
246
68
146
246
68
146
246
68
146
246
68
146
246
68
146
246
68
146
246
68
146
246
0
0
0
0
0
0
0
0
0
238
195
154
0
0
0
0
0
0
0
0
0
238
195
154
238
195
154
0
0
0
0
0
0
68
146
246
68
146
246
68
146
246
68
146
246
68
146
246
68
146
246
68
146
246
68
146
246
68
146
246
68
146
246
68
146
246
68
146
246
68
146
246
68
146
246
68
146
246
68
146
246
68
146
246
68
146
246
68
146
246
68
146
246
68
146
246
68
146
246
68
146
246
68
146
246
68
146
246
68
146
246
68
146
246
68
146
246
68
146
246
68
146
246
68
146
246
68
146
246
154
154
154
133
133
133
133
133
133
133
133
133
133
133
133
133
133
133
133
133
133
133
133
133
68
146
246
68
146
246
68
146
246
68
146
246
68
146
246
68
146
246
68
146
246
68
146
246
68
146
246
68
146
246
68
146
246
0
0
0
0
0
0
0
0
0
0
0
0
0
0
0
238
195
154
238
195
154
238
195
154
238
195
154
238
195
154
0
0
0
180
147
117
180
147
117
0
0
0
0
0
0
68
146
246
68
146
246
68
146
246
68
146
246
68
146
246
68
146
246
68
146
246
68
146
246
68
146
246
68
146
246
68
146
246
68
146
246
68
146
246
68
146
246
68
146
246
68
146
246
68
146
246
68
146
246
68
146
246
68
146
246
68
146
246
68
146
246
68
146
246
68
146
246
68
146
246
68
146
246
68
146
246
68
146
246
68
146
246
68
146
246
68
146
246
68
146
246
68
146
246
101
71
56
101
71
56
68
146
246
68
146
246
68
146
246
68
146
246
68
146
246
68
146
246
68
146
246
68
146
246
68
146
246
68
146
246
68
146
246
68
146
246
68
146
246
0
0
0
115
105
105
115
105
105
115
105
105
0
0
0
180
147
117
0
0
0
0
0
0
0
0
0
0
0
0
0
0
0
0
0
0
180
147
117
180
147
117
0
0
0
0
0
0
0
0
0
0
0
0
68
146
246
68
146
246
68
146
246
68
146
246
68
146
246
68
146
246
68
146
246
68
146
246
68
146
246
68
146
246
68
146
246
68
146
246
68
146
246
68
146
246
68
146
246
68
146
246
68
146
246
68
146
246
68
146
246
68
146
246
68
146
246
68
146
246
68
146
246
68
146
246
68
146
246
68
146
246
68
146
246
68
146
246
68
146
246
68
146
246
68
146
246
101
71
56
101
71
56
68
146
246
68
146
246
68
146
246
68
146
246
68
146
246
68
146
246
68
146
246
68
146
246
68
146
246
68
146
246
68
146
246
0
0
0
0
0
0
115
105
105
115
105
105
115
105
105
115
105
105
0
0
0
180
147
117
180
147
117
180
147
117
180
147
117
180
147
117
180
147
117
180
147
117
180
147
117
0
0
0
115
105
105
115
105
105
115
105
105
115
105
105
0
0
0
68
146
246
68
146
246
68
146
246
68
146
246
68
146
246
68
146
246
68
146
246
68
146
246
68
146
246
68
146
246
68
146
246
68
146
246
68
146
246
68
146
246
68
146
246
68
146
246
68
146
246
68
146
246
68
146
246
68
146
246
68
146
246
68
146
246
68
146
246
68
146
246
68
146
246
68
146
246
68
146
246
68
146
246
68
146
246
68
146
246
143
86
59
101
71
56
68
146
246
68
146
246
68
146
246
68
146
246
68
146
246
68
146
246
68
146
246
68
146
246
68
146
246
68
146
246
0
0
0
115
105
105
115
105
105
93
85
85
93
85
85
93
85
85
93
85
85
93
85
85
0
0
0
0
0
0
0
0
0
0
0
0
0
0
0
0
0
0
0
0
0
0
0
0
115
105
105
115
105
105
115
105
105
115
105
105
93
85
85
93
85
85
0
0
0
68
146
246
68
146
246
68
146
246
68
146
246
68
146
246
68
146
246
68
146
246
68
146
246
68
146
246
68
146
246
68
146
246
68
146
246
68
146
246
68
146
246
68
146
246
68
146
246
68
146
246
68
146
246
68
146
246
68
146
246
68
146
246
68
146
246
68
146
246
68
146
246
68
146
246
68
146
246
68
146
246
68
146
246
0
0
0
0
0
0
101
71
56
0
0
0
68
146
246
68
146
246
68
146
246
68
146
246
68
146
246
68
146
246
68
146
246
0
0
0
0
0
0
115
105
105
93
85
85
93
85
85
93
85
85
93
85
85
93
85
85
93
85
85
93
85
85
93
85
85
93
85
85
93
85
85
93
85
85
93
85
85
93
85
85
93
85
85
93
85
85
93
85
85
93
85
85
93
85
85
93
85
85
93
85
85
93
85
85
93
85
85
0
0
0
68
146
246
68
146
246
68
146
246
68
146
246
68
146
246
68
146
246
68
146
246
68
146
246
68
146
246
68
146
246
68
146
246
68
146
246
68
146
246
68
146
246
68
146
246
68
146
246
68
146
246
68
146
246
68
146
246
68
146
246
68
146
246
68
146
246
68
146
246
68
146
246
68
146
246
68
146
246
68
146
246
0
0
0
0
0
0
0
0
0
0
0
0
0
0
0
0
0
0
0
0
0
68
146
246
68
146
246
0
0
0
0
0
0
251
211
172
238
195
154
238
195
154
93
85
85
93
85
85
93
85
85
93
85
85
93
85
85
93
85
85
93
85
85
93
85
85
93
85
85
93
85
85
93
85
85
93
85
85
93
85
85
93
85
85
93
85
85
93
85
85
93
85
85
93
85
85
93
85
85
93
85
85
93
85
85
93
85
85
0
0
0
68
146
246
68
146
246
68
146
246
68
146
246
68
146
246
68
146
246
68
146
246
68
146
246
68
146
246
68
146
246
68
146
246
68
146
246
68
146
246
68
146
246
68
146
246
68
146
246
68
146
246
68
146
246
68
146
246
68
146
246
68
146
246
68
146
246
68
146
246
68
146
246
68
146
246
68
146
246
68
146
246
0
0
0
238
195
154
0
0
0
0
0
0
251
211
172
251
211
172
251
211
172
0
0
0
0
0
0
251
211
172
251
211
172
238
195
154
238
195
154
238
195
154
93
85
85
93
85
85
93
85
85
93
85
85
93
85
85
93
85
85
93
85
85
93
85
85
93
85
85
93
85
85
93
85
85
93
85
85
93
85
85
93
85
85
93
85
85
72
71
71
72
71
71
72
71
71
93
85
85
93
85
85
93
85
85
238
195
154
238
195
154
0
0
0
68
146
246
68
146
246
68
146
246
68
146
246
68
146
246
68
146
246
68
146
246
68
146
246
68
146
246
68
146
246
68
146
246
68
146
246
68
146
246
68
146
246
68
146
246
68
146
246
68
146
246
68
146
246
68
146
246
68
146
246
68
146
246
68
146
246
68
146
246
68
146
246
68
146
246
68
146
246
0
0
0
238
195
154
238
195
154
0
0
0
251
211
172
251
211
172
251
211
172
251
211
172
251
211
172
251
211
172
238
195
154
238
195
154
238
195
154
238
195
154
180
147
117
93
85
85
72
71
71
72
71
71
72
71
71
93
85
85
93
85
85
93
85
85
93
85
85
93
85
85
93
85
85
93
85
85
93
85
85
93
85
85
93
85
85
72
71
71
0
0
0
72
71
71
93
85
85
93
85
85
238
195
154
238
195
154
238
195
154
0
0
0
68
146
246
68
146
246
68
146
246
68
146
246
68
146
246
68
146
246
68
146
246
68
146
246
68
146
246
68
146
246
68
146
246
68
146
246
68
146
246
68
146
246
68
146
246
68
146
246
68
146
246
68
146
246
68
146
246
68
146
246
68
146
246
68
146
246
68
146
246
68
146
246
68
146
246
68
146
246
0
0
0
238
195
154
180
147
117
0
0
0
238
195
154
238
195
154
238
195
154
238
195
154
238
195
154
238
195
154
238
195
154
238
195
154
238
195
154
180
147
117
180
147
117
180
147
117
72
71
71
0
0
0
72
71
71
93
85
85
93
85
85
93
85
85
93
85
85
93
85
85
93
85
85
93
85
85
93
85
85
93
85
85
93
85
85
72
71
71
0
0
0
72
71
71
238
195
154
238
195
154
238
195
154
238
195
154
238
195
154
238
195
154
0
0
0
68
146
246
68
146
246
68
146
246
68
146
246
68
146
246
68
146
246
68
146
246
68
146
246
68
146
246
68
146
246
68
146
246
68
146
246
68
146
246
68
146
246
68
146
246
68
146
246
68
146
246
68
146
246
68
146
246
68
146
246
68
146
246
68
146
246
68
146
246
68
146
246
68
146
246
0
0
0
180
147
117
180
147
117
0
0
0
238
195
154
238
195
154
238
195
154
238
195
154
238
195
154
238
195
154
238
195
154
180
147
117
180
147
117
180
147
117
180
147
117
180
147
117
0
0
0
0
0
0
72
71
71
93
85
85
93
85
85
93
85
85
93
85
85
93
85
85
93
85
85
93
85
85
93
85
85
93
85
85
93
85
85
72
71
71
72
71
71
0
0
0
180
147
117
238
195
154
238
195
154
238
195
154
238
195
154
238
195
154
0
0
0
68
146
246
68
146
246
68
146
246
68
146
246
68
146
246
68
146
246
68
146
246
68
146
246
68
146
246
68
146
246
68
146
246
68
146
246
68
146
246
68
146
246
68
146
246
68
146
246
68
146
246
68
146
246
68
146
246
68
146
246
68
146
246
68
146
246
68
146
246
68
146
246
68
146
246
0
0
0
180
147
117
0
0
0
0
0
0
238
195
154
238
195
154
238
195
154
238
195
154
238
195
154
180
147
117
180
147
117
180
147
117
180
147
117
180
147
117
0
0
0
0
0
0
68
146
246
0
0
0
72
71
71
93
85
85
93
85
85
93
85
85
93
85
85
93
85
85
93
85
85
93
85
85
93
85
85
93
85
85
93
85
85
93
85
85
72
71
71
72
71
71
0
0
0
180
147
117
238
195
154
238
195
154
238
195
154
180
147
117
0
0
0
68
146
246
68
146
246
68
146
246
68
146
246
68
146
246
68
146
246
68
146
246
68
146
246
68
146
246
68
146
246
68
146
246
68
146
246
68
146
246
68
146
246
68
146
246
68
146
246
68
146
246
68
146
246
68
146
246
68
146
246
68
146
246
68
146
246
68
146
246
68
146
246
68
146
246
0
0
0
0
0
0
143
86
59
238
195
154
238
195
154
238
195
154
238
195
154
180
147
117
180
147
117
180
147
117
180
147
117
0
0
0
0
0
0
0
0
0
68
146
246
68
146
246
68
146
246
0
0
0
93
85
85
93
85
85
93
85
85
93
85
85
93
85
85
93
85
85
93
85
85
93
85
85
93
85
85
93
85
85
93
85
85
93
85
85
93
85
85
72
71
71
0
0
0
180
147
117
180
147
117
238
195
154
238
195
154
180
147
117
0
0
0
68
146
246
68
146
246
68
146
246
68
146
246
68
146
246
68
146
246
68
146
246
68
146
246
68
146
246
68
146
246
68
146
246
68
146
246
68
146
246
68
146
246
68
146
246
68
146
246
68
146
246
68
146
246
68
146
246
68
146
246
68
146
246
68
146
246
68
146
246
68
146
246
68
146
246
68
146
246
0
0
0
0
0
0
0
0
0
0
0
0
0
0
0
0
0
0
0
0
0
0
0
0
0
0
0
0
0
0
68
146
246
68
146
246
68
146
246
68
146
246
68
146
246
68
146
246
0
0
0
93
85
85
93
85
85
93
85
85
93
85
85
93
85
85
93
85
85
93
85
85
93
85
85
93
85
85
93
85
85
93
85
85
93
85
85
93
85
85
72
71
71
72
71
71
0
0
0
180
147
117
238
195
154
238
195
154
180
147
117
0
0
0
68
146
246
68
146
246
68
146
246
68
146
246
68
146
246
68
146
246
68
146
246
68
146
246
68
146
246
68
146
246
68
146
246
68
146
246
68
146
246
68
146
246
68
146
246
68
146
246
68
146
246
68
146
246
68
146
246
68
146
246
68
146
246
68
146
246
68
146
246
68
146
246
68
146
246
68
146
246
68
146
246
68
146
246
68
146
246
68
146
246
68
146
246
68
146
246
68
146
246
68
146
246
68
146
246
68
146
246
68
146
246
68
146
246
68
146
246
68
146
246
68
146
246
68
146
246
0
0
0
93
85
85
93
85
85
93
85
85
93
85
85
93
85
85
93
85
85
93
85
85
93
85
85
93
85
85
93
85
85
93
85
85
93
85
85
93
85
85
93
85
85
72
71
71
0
0
0
180
147
117
238
195
154
238
195
154
180
147
117
0
0
0
68
146
246
68
146
246
68
146
246
68
146
246
68
146
246
68
146
246
68
146
246
68
146
246
68
146
246
68
146
246
68
146
246
68
146
246
68
146
246
68
146
246
68
146
246
68
146
246
68
146
246
68
146
246
68
146
246
68
146
246
68
146
246
68
146
246
68
146
246
68
146
246
68
146
246
68
146
246
68
146
246
68
146
246
68
146
246
68
146
246
68
146
246
68
146
246
68
146
246
68
146
246
68
146
246
68
146
246
68
146
246
68
146
246
68
146
246
68
146
246
68
146
246
68
146
246
0
0
0
93
85
85
93
85
85
93
85
85
93
85
85
93
85
85
93
85
85
93
85
85
93
85
85
93
85
85
93
85
85
93
85
85
93
85
85
93
85
85
72
71
71
72
71
71
0
0
0
180
147
117
238
195
154
238
195
154
180
147
117
0
0
0
68
146
246
68
146
246
68
146
246
68
146
246
68
146
246
68
146
246
68
146
246
68
146
246
68
146
246
68
146
246
68
146
246
68
146
246
68
146
246
68
146
246
68
146
246
68
146
246
68
146
246
68
146
246
68
146
246
68
146
246
68
146
246
68
146
246
68
146
246
68
146
246
68
146
246
68
146
246
68
146
246
68
146
246
68
146
246
68
146
246
68
146
246
68
146
246
68
146
246
68
146
246
68
146
246
68
146
246
68
146
246
68
146
246
68
146
246
68
146
246
68
146
246
68
146
246
0
0
0
93
85
85
93
85
85
93
85
85
93
85
85
93
85
85
93
85
85
93
85
85
93
85
85
93
85
85
93
85
85
93
85
85
93
85
85
93
85
85
72
71
71
0
0
0
180
147
117
180
147
117
238
195
154
238
195
154
180
147
117
0
0
0
68
146
246
68
146
246
68
146
246
68
146
246
68
146
246
68
146
246
68
146
246
68
146
246
68
146
246
68
146
246
68
146
246
68
146
246
68
146
246
68
146
246
68
146
246
68
146
246
68
146
246
68
146
246
68
146
246
68
146
246
68
146
246
68
146
246
68
146
246
68
146
246
68
146
246
68
146
246
68
146
246
68
146
246
68
146
246
68
146
246
68
146
246
68
146
246
68
146
246
68
146
246
68
146
246
68
146
246
68
146
246
68
146
246
68
146
246
68
146
246
68
146
246
68
146
246
0
0
0
93
85
85
93
85
85
93
85
85
93
85
85
93
85
85
93
85
85
93
85
85
93
85
85
93
85
85
93
85
85
93
85
85
93
85
85
93
85
85
72
71
71
0
0
0
238
195
154
238
195
154
238
195
154
180
147
117
180
147
117
0
0
0
68
146
246
68
146
246
68
146
246
68
146
246
68
146
246
68
146
246
68
146
246
68
146
246
68
146
246
68
146
246
68
146
246
68
146
246
68
146
246
68
146
246
68
146
246
68
146
246
68
146
246
68
146
246
68
146
246
68
146
246
68
146
246
68
146
246
68
146
246
68
146
246
68
146
246
68
146
246
68
146
246
68
146
246
68
146
246
68
146
246
68
146
246
68
146
246
68
146
246
68
146
246
68
146
246
68
146
246
68
146
246
68
146
246
68
146
246
68
146
246
68
146
246
68
146
246
0
0
0
0
0
0
0
0
0
93
85
85
93
85
85
93
85
85
93
85
85
93
85
85
93
85
85
93
85
85
93
85
85
0
0
0
0
0
0
0
0
0
0
0
0
238
195
154
238
195
154
238
195
154
238
195
154
180
147
117
180
147
117
0
0
0
68
146
246
68
146
246
68
146
246
68
146
246
68
146
246
68
146
246
68
146
246
68
146
246
68
146
246
68
146
246
68
146
246
68
146
246
68
146
246
68
146
246
68
146
246
68
146
246
68
146
246
68
146
246
68
146
246
68
146
246
68
146
246
68
146
246
68
146
246
68
146
246
68
146
246
68
146
246
68
146
246
68
146
246
68
146
246
68
146
246
68
146
246
68
146
246
68
146
246
68
146
246
68
146
246
68
146
246
68
146
246
68
146
246
68
146
246
68
146
246
68
146
246
68
146
246
0
0
0
111
111
111
111
111
111
0
0
0
0
0
0
0
0
0
0
0
0
0
0
0
0
0
0
0
0
0
0
0
0
0
0
0
111
111
111
111
111
111
0
0
0
238
195
154
238
195
154
238
195
154
180
147
117
180
147
117
0
0
0
68
146
246
68
146
246
68
146
246
68
146
246
68
146
246
68
146
246
68
146
246
68
146
246
68
146
246
68
146
246
68
146
246
68
146
246
68
146
246
68
146
246
68
146
246
68
146
246
68
146
246
68
146
246
68
146
246
68
146
246
68
146
246
68
146
246
68
146
246
68
146
246
68
146
246
68
146
246
68
146
246
68
146
246
68
146
246
68
146
246
68
146
246
68
146
246
68
146
246
68
146
246
68
146
246
68
146
246
68
146
246
68
146
246
68
146
246
68
146
246
68
146
246
68
146
246
68
146
246
0
0
0
126
126
126
111
111
111
111
111
111
111
111
111
111
111
111
111
111
111
111
111
111
111
111
111
111
111
111
111
111
111
111
111
111
111
111
111
0
0
0
238
195
154
238
195
154
238
195
154
238
195
154
180
147
117
0
0
0
68
146
246
68
146
246
68
146
246
68
146
246
68
146
246
68
146
246
68
146
246
68
146
246
68
146
246
68
146
246
68
146
246
68
146
246
68
146
246
68
146
246
68
146
246
68
146
246
68
146
246
68
146
246
68
146
246
68
146
246
68
146
246
68
146
246
68
146
246
68
146
246
68
146
246
68
146
246
68
146
246
68
146
246
68
146
246
68
146
246
68
146
246
68
146
246
68
146
246
68
146
246
68
146
246
68
146
246
68
146
246
68
146
246
68
146
246
68
146
246
68
146
246
68
146
246
68
146
246
0
0
0
0
0
0
0
0
0
126
126
126
126
126
126
111
111
111
111
111
111
0
0
0
111
111
111
126
126
126
126
126
126
126
126
126
126
126
126
111
111
111
0
0
0
238
195
154
238
195
154
238
195
154
180
147
117
180
147
117
0
0
0
68
146
246
68
146
246
68
146
246
68
146
246
68
146
246
68
146
246
68
146
246
68
146
246
68
146
246
68
146
246
68
146
246
68
146
246
68
146
246
68
146
246
68
146
246
68
146
246
68
146
246
68
146
246
68
146
246
68
146
246
68
146
246
68
146
246
68
146
246
68
146
246
68
146
246
68
146
246
68
146
246
68
146
246
68
146
246
68
146
246
68
146
246
68
146
246
68
146
246
68
146
246
68
146
246
68
146
246
68
146
246
68
146
246
68
146
246
68
146
246
68
146
246
68
146
246
0
0
0
0
0
0
115
115
115
115
115
115
0
0
0
126
126
126
111
111
111
111
111
111
0
0
0
111
111
111
126
126
126
126
126
126
126
126
126
126
126
126
111
111
111
0
0
0
180
147
117
238
195
154
180
147
117
180
147
117
180
147
117
0
0
0
68
146
246
68
146
246
68
146
246
68
146
246
68
146
246
68
146
246
68
146
246
68
146
246
68
146
246
68
146
246
68
146
246
68
146
246
68
146
246
68
146
246
68
146
246
0
0
0
0
0
0
0
0
0
0
0
0
0
0
0
0
0
0
0
0
0
0
0
0
0
0
0
0
0
0
0
0
0
0
0
0
0
0
0
0
0
0
0
0
0
0
0
0
0
0
0
0
0
0
0
0
0
0
0
0
0
0
0
0
0
0
0
0
0
0
0
0
0
0
0
0
0
0
0
0
0
0
0
0
115
115
115
115
115
115
115
115
115
115
115
115
0
0
0
111
111
111
0
0
0
111
111
111
126
126
126
126
126
126
126
126
126
126
126
126
126
126
126
111
111
111
0
0
0
180
147
117
180
147
117
180
147
117
180
147
117
0
0
0
68
146
246
68
146
246
68
146
246
68
146
246
68
146
246
68
146
246
68
146
246
68
146
246
68
146
246
68
146
246
68
146
246
68
146
246
68
146
246
68
146
246
68
146
246
68
146
246
0
0
0
79
79
79
115
115
115
115
115
115
115
115
115
115
115
115
115
115
115
115
115
115
115
115
115
136
136
136
136
136
136
136
136
136
136
136
136
136
136
136
136
136
136
136
136
136
136
136
136
136
136
136
136
136
136
136
136
136
136
136
136
136
136
136
136
136
136
136
136
136
136
136
136
115
115
115
115
115
115
115
115
115
115
115
115
79
79
79
79
79
79
79
79
79
0
0
0
0
0
0
126
126
126
126
126
126
126
126
126
126
126
126
126
126
126
126
126
126
111
111
111
111
111
111
0
0
0
180
147
117
180
147
117
180
147
117
0
0
0
68
146
246
68
146
246
68
146
246
68
146
246
68
146
246
68
146
246
68
146
246
68
146
246
68
146
246
68
146
246
68
146
246
68
146
246
68
146
246
68
146
246
68
146
246
68
146
246
68
146
246
68
146
246
0
0
0
79
79
79
79
79
79
79
79
79
79
79
79
115
115
115
115
115
115
115
115
115
115
115
115
115
115
115
115
115
115
115
115
115
136
136
136
136
136
136
136
136
136
136
136
136
136
136
136
136
136
136
136
136
136
136
136
136
136
136
136
115
115
115
115
115
115
115
115
115
115
115
115
79
79
79
79
79
79
79
79
79
79
79
79
79
79
79
79
79
79
0
0
0
126
126
126
126
126
126
126
126
126
126
126
126
126
126
126
126
126
126
126
126
126
111
111
111
111
111
111
111
111
111
0
0
0
0
0
0
0
0
0
68
146
246
68
146
246
68
146
246
68
146
246
68
146
246
68
146
246
68
146
246
68
146
246
68
146
246
68
146
246
68
146
246
68
146
246
68
146
246
68
146
246
68
146
246
68
146
246
68
146
246
68
146
246
68
146
246
0
0
0
79
79
79
79
79
79
79
79
79
79
79
79
115
115
115
115
115
115
115
115
115
115
115
115
115
115
115
115
115
115
115
115
115
136
136
136
136
136
136
136
136
136
136
136
136
136
136
136
136
136
136
136
136
136
136
136
136
136
136
136
115
115
115
115
115
115
115
115
115
115
115
115
79
79
79
79
79
79
79
79
79
79
79
79
79
79
79
79
79
79
0
0
0
126
126
126
126
126
126
126
126
126
126
126
126
126
126
126
126
126
126
111
111
111
111
111
111
111
111
111
0
0
0
68
146
246
68
146
246
68
146
246
68
146
246
68
146
246
68
146
246
68
146
246
68
146
246
68
146
246
68
146
246
68
146
246
68
146
246
68
146
246
68
146
246
68
146
246
68
146
246
68
146
246
68
146
246
68
146
246
68
146
246
68
146
246
68
146
246
68
146
246
0
0
0
0
0
0
0
0
0
0
0
0
79
79
79
79
79
79
79
79
79
79
79
79
79
79
79
79
79
79
115
115
115
115
115
115
115
115
115
115
115
115
115
115
115
115
115
115
115
115
115
115
115
115
115
115
115
115
115
115
115
115
115
79
79
79
79
79
79
79
79
79
79
79
79
79
79
79
79
79
79
79
79
79
79
79
79
0
0
0
0
0
0
126
126
126
126
126
126
126
126
126
126
126
126
126
126
126
111
111
111
111
111
111
111
111
111
0
0
0
68
146
246
68
146
246
68
146
246
68
146
246
68
146
246
68
146
246
68
146
246
68
146
246
68
146
246
68
146
246
68
146
246
68
146
246
68
146
246
68
146
246
68
146
246
68
146
246
68
146
246
68
146
246
68
146
246
68
146
246
68
146
246
68
146
246
68
146
246
68
146
246
68
146
246
68
146
246
68
146
246
68
146
246
0
0
0
0
0
0
0
0
0
0
0
0
79
79
79
79
79
79
79
79
79
79
79
79
79
79
79
79
79
79
79
79
79
79
79
79
79
79
79
79
79
79
79
79
79
79
79
79
79
79
79
79
79
79
0
0
0
0
0
0
79
79
79
79
79
79
79
79
79
79
79
79
79
79
79
0
0
0
0
0
0
126
126
126
126
126
126
126
126
126
126
126
126
111
111
111
111
111
111
111
111
111
0
0
0
68
146
246
68
146
246
68
146
246
68
146
246
68
146
246
68
146
246
68
146
246
68
146
246
68
146
246
68
146
246
68
146
246
68
146
246
68
146
246
68
146
246
68
146
246
68
146
246
68
146
246
68
146
246
68
146
246
68
146
246
68
146
246
68
146
246
68
146
246
68
146
246
68
146
246
68
146
246
68
146
246
68
146
246
68
146
246
68
146
246
68
146
246
68
146
246
68
146
246
0
0
0
0
0
0
0
0
0
0
0
0
75
75
75
75
75
75
75
75
75
75
75
75
75
75
75
75
75
75
75
75
75
75
75
75
75
75
75
0
0
0
68
146
246
68
146
246
0
0
0
0
0
0
79
79
79
79
79
79
0
0
0
111
111
111
0
0
0
126
126
126
126
126
126
126
126
126
111
111
111
111
111
111
111
111
111
0
0
0
68
146
246
68
146
246
68
146
246
68
146
246
68
146
246
68
146
246
68
146
246
68
146
246
68
146
246
68
146
246
68
146
246
68
146
246
68
146
246
68
146
246
68
146
246
68
146
246
68
146
246
68
146
246
68
146
246
68
146
246
68
146
246
68
146
246
68
146
246
68
146
246
68
146
246
68
146
246
68
146
246
68
146
246
68
146
246
68
146
246
68
146
246
68
146
246
68
146
246
68
146
246
68
146
246
68
146
246
68
146
246
68
146
246
0
0
0
68
68
68
68
68
68
68
68
68
68
68
68
68
68
68
68
68
68
68
68
68
0
0
0
68
146
246
68
146
246
68
146
246
0
0
0
126
126
126
0
0
0
0
0
0
111
111
111
111
111
111
0
0
0
126
126
126
126
126
126
126
126
126
111
111
111
111
111
111
0
0
0
68
146
246
68
146
246
68
146
246
68
146
246
68
146
246
68
146
246
68
146
246
68
146
246
68
146
246
68
146
246
68
146
246
68
146
246
68
146
246
68
146
246
68
146
246
68
146
246
68
146
246
68
146
246
68
146
246
68
146
246
68
146
246
68
146
246
68
146
246
68
146
246
68
146
246
68
146
246
68
146
246
68
146
246
68
146
246
68
146
246
68
146
246
68
146
246
68
146
246
68
146
246
68
146
246
68
146
246
68
146
246
68
146
246
68
146
246
68
146
246
0
0
0
0
0
0
65
65
65
65
65
65
65
65
65
65
65
65
65
65
65
0
0
0
68
146
246
68
146
246
68
146
246
0
0
0
126
126
126
126
126
126
126
126
126
111
111
111
111
111
111
0
0
0
126
126
126
126
126
126
126
126
126
111
111
111
111
111
111
0
0
0
68
146
246
68
146
246
68
146
246
68
146
246
68
146
246
68
146
246
68
146
246
68
146
246
68
146
246
68
146
246
68
146
246
68
146
246
68
146
246
68
146
246
68
146
246
68
146
246
68
146
246
68
146
246
68
146
246
68
146
246
68
146
246
68
146
246
68
146
246
68
146
246
68
146
246
68
146
246
68
146
246
68
146
246
68
146
246
68
146
246
68
146
246
68
146
246
68
146
246
68
146
246
68
146
246
68
146
246
68
146
246
68
146
246
68
146
246
68
146
246
0
0
0
0
0
0
65
65
65
65
65
65
65
65
65
65
65
65
0
0
0
68
146
246
68
146
246
68
146
246
68
146
246
0
0
0
126
126
126
126
126
126
126
126
126
111
111
111
111
111
111
0
0
0
126
126
126
126
126
126
126
126
126
111
111
111
111
111
111
0
0
0
68
146
246
68
146
246
68
146
246
68
146
246
68
146
246
68
146
246
68
146
246
68
146
246
68
146
246
68
146
246
68
146
246
68
146
246
68
146
246
68
146
246
68
146
246
68
146
246
68
146
246
68
146
246
68
146
246
68
146
246
68
146
246
68
146
246
68
146
246
68
146
246
68
146
246
68
146
246
68
146
246
68
146
246
68
146
246
68
146
246
68
146
246
68
146
246
68
146
246
68
146
246
68
146
246
68
146
246
68
146
246
68
146
246
68
146
246
68
146
246
68
146
246
68
146
246
0
0
0
65
65
65
65
65
65
65
65
65
0
0
0
68
146
246
68
146
246
68
146
246
68
146
246
0
0
0
126
126
126
126
126
126
126
126
126
111
111
111
111
111
111
111
111
111
0
0
0
126
126
126
126
126
126
126
126
126
111
111
111
111
111
111
0
0
0
68
146
246
68
146
246
68
146
246
68
146
246
68
146
246
68
146
246
68
146
246
68
146
246
68
146
246
68
146
246
68
146
246
68
146
246
68
146
246
68
146
246
68
146
246
68
146
246
68
146
246
68
146
246
68
146
246
68
146
246
68
146
246
68
146
246
68
146
246
68
146
246
68
146
246
68
146
246
68
146
246
68
146
246
68
146
246
68
146
246
68
146
246
68
146
246
68
146
246
68
146
246
68
146
246
68
146
246
68
146
246
68
146
246
68
146
246
68
146
246
68
146
246
0
0
0
79
79
79
79
79
79
79
79
79
0
0
0
68
146
246
68
146
246
68
146
246
68
146
246
0
0
0
126
126
126
126
126
126
126
126
126
126
126
126
111
111
111
111
111
111
0
0
0
126
126
126
126
126
126
126
126
126
111
111
111
111
111
111
0
0
0
68
146
246
68
146
246
68
146
246
68
146
246
68
146
246
68
146
246
68
146
246
68
146
246
68
146
246
68
146
246
68
146
246
68
146
246
68
146
246
68
146
246
68
146
246
68
146
246
68
146
246
68
146
246
68
146
246
68
146
246
68
146
246
68
146
246
68
146
246
68
146
246
68
146
246
68
146
246
68
146
246
68
146
246
68
146
246
68
146
246
68
146
246
68
146
246
68
146
246
68
146
246
68
146
246
68
146
246
68
146
246
68
146
246
68
146
246
68
146
246
68
146
246
0
0
0
79
79
79
79
79
79
79
79
79
0
0
0
68
146
246
68
146
246
68
146
246
68
146
246
0
0
0
126
126
126
126
126
126
126
126
126
126
126
126
126
126
126
111
111
111
0
0
0
0
0
0
126
126
126
126
126
126
126
126
126
111
111
111
0
0
0
68
146
246
68
146
246
68
146
246
68
146
246
68
146
246
68
146
246
68
146
246
68
146
246
68
146
246
68
146
246
68
146
246
68
146
246
68
146
246
68
146
246
68
146
246
68
146
246
68
146
246
68
146
246
68
146
246
68
146
246
68
146
246
68
146
246
68
146
246
68
146
246
68
146
246
68
146
246
68
146
246
68
146
246
68
146
246
68
146
246
68
146
246
68
146
246
68
146
246
68
146
246
68
146
246
68
146
246
68
146
246
68
146
246
68
146
246
0
0
0
0
0
0
79
79
79
79
79
79
79
79
79
79
79
79
79
79
79
0
0
0
68
146
246
68
146
246
68
146
246
68
146
246
0
0
0
126
126
126
126
126
126
126
126
126
126
126
126
111
111
111
0
0
0
0
0
0
126
126
126
126
126
126
126
126
126
126
126
126
0
0
0
68
146
246
68
146
246
68
146
246
68
146
246
68
146
246
68
146
246
68
146
246
68
146
246
68
146
246
68
146
246
68
146
246
68
146
246
68
146
246
68
146
246
68
146
246
68
146
246
68
146
246
68
146
246
68
146
246
68
146
246
68
146
246
68
146
246
68
146
246
68
146
246
68
146
246
68
146
246
68
146
246
68
146
246
68
146
246
68
146
246
68
146
246
68
146
246
68
146
246
68
146
246
68
146
246
68
146
246
68
146
246
68
146
246
68
146
246
0
0
0
0
0
0
79
79
79
79
79
79
79
79
79
79
79
79
79
79
79
0
0
0
68
146
246
68
146
246
68
146
246
68
146
246
0
0
0
126
126
126
126
126
126
126
126
126
126
126
126
111
111
111
0
0
0
0
0
0
126
126
126
126
126
126
126
126
126
126
126
126
0
0
0
68
146
246
68
146
246
68
146
246
68
146
246
68
146
246
68
146
246
68
146
246
68
146
246
68
146
246
68
146
246
68
146
246
68
146
246
68
146
246
68
146
246
68
146
246
68
146
246
68
146
246
68
146
246
68
146
246
68
146
246
68
146
246
68
146
246
68
146
246
68
146
246
68
146
246
68
146
246
68
146
246
68
146
246
68
146
246
68
146
246
68
146
246
68
146
246
68
146
246
68
146
246
68
146
246
68
146
246
68
146
246
68
146
246
0
0
0
79
79
79
79
79
79
79
79
79
79
79
79
79
79
79
79
79
79
79
79
79
0
0
0
68
146
246
68
146
246
68
146
246
68
146
246
68
146
246
0
0
0
126
126
126
126
126
126
111
111
111
111
111
111
0
0
0
0
0
0
126
126
126
126
126
126
126
126
126
126
126
126
0
0
0
68
146
246
68
146
246
68
146
246
68
146
246
68
146
246
68
146
246
68
146
246
68
146
246
68
146
246
68
146
246
68
146
246
68
146
246
68
146
246
68
146
246
68
146
246
68
146
246
68
146
246
68
146
246
68
146
246
68
146
246
68
146
246
68
146
246
68
146
246
68
146
246
68
146
246
68
146
246
68
146
246
68
146
246
68
146
246
68
146
246
68
146
246
68
146
246
68
146
246
68
146
246
68
146
246
68
146
246
0
0
0
0
0
0
79
79
79
79
79
79
79
79
79
79
79
79
79
79
79
79
79
79
79
79
79
79
79
79
79
79
79
0
0
0
0
0
0
68
146
246
0
0
0
0
0
0
0
0
0
126
126
126
111
111
111
111
111
111
0
0
0
0
0
0
0
0
0
126
126
126
126
126
126
126
126
126
126
126
126
0
0
0
68
146
246
68
146
246
68
146
246
68
146
246
68
146
246
68
146
246
68
146
246
68
146
246
68
146
246
68
146
246
68
146
246
68
146
246
68
146
246
68
146
246
68
146
246
68
146
246
68
146
246
68
146
246
68
146
246
68
146
246
68
146
246
68
146
246
68
146
246
68
146
246
68
146
246
68
146
246
68
146
246
68
146
246
68
146
246
68
146
246
68
146
246
68
146
246
68
146
246
68
146
246
68
146
246
0
0
0
79
79
79
79
79
79
79
79
79
79
79
79
79
79
79
79
79
79
79
79
79
79
79
79
79
79
79
79
79
79
79
79
79
79
79
79
79
79
79
0
0
0
126
126
126
126
126
126
126
126
126
126
126
126
111
111
111
0
0
0
126
126
126
126
126
126
126
126
126
126
126
126
126
126
126
126
126
126
111
111
111
0
0
0
68
146
246
68
146
246
68
146
246
68
146
246
68
146
246
68
146
246
68
146
246
68
146
246
68
146
246
68
146
246
68
146
246
68
146
246
68
146
246
68
146
246
68
146
246
68
146
246
68
146
246
68
146
246
68
146
246
68
146
246
68
146
246
68
146
246
68
146
246
68
146
246
68
146
246
68
146
246
68
146
246
68
146
246
68
146
246
68
146
246
68
146
246
68
146
246
68
146
246
68
146
246
0
0
0
0
0
0
0
0
0
0
0
0
0
0
0
0
0
0
0
0
0
0
0
0
0
0
0
0
0
0
0
0
0
0
0
0
0
0
0
0
0
0
0
0
0
0
0
0
0
0
0
0
0
0
111
111
111
111
111
111
111
111
111
0
0
0
111
111
111
111
111
111
111
111
111
111
111
111
111
111
111
111
111
111
111
111
111
0
0
0
68
146
246
68
146
246
68
146
246
68
146
246
68
146
246
68
146
246
68
146
246
68
146
246
68
146
246
68
146
246
68
146
246
68
146
246
68
146
246
68
146
246
68
146
246
68
146
246
68
146
246
68
146
246
