P3
9 9
255
0 0 0 0 0 0 0 0 0 215 88 63 215 88 63 0 0 0 0 0 0 0 0 0 0 0 0 
0 0 0 0 0 0 215 88 63 190 37 37 190 37 37 215 88 63 0 0 0 0 0 0 0 0 0 
0 0 0 215 88 63 190 37 37 190 37 37 190 37 37 190 37 37 95 63 40 0 0 0 0 0 0 
0 0 0 215 88 63 190 37 37 190 37 37 190 37 37 190 37 37 190 37 37 190 37 37 0 0 0 
0 0 0 0 0 0 0 0 0 164 15 40 190 37 37 190 37 37 190 37 37 190 37 37 164 15 40 
0 0 0 0 0 0 109 74 48 109 74 48 164 15 40 190 37 37 190 37 37 190 37 37 164 15 40 
0 0 0 109 74 48 95 63 40 95 63 40 0 0 0 190 37 37 190 37 37 164 15 40 0 0 0 
109 74 48 95 63 40 95 63 40 0 0 0 0 0 0 164 15 40 164 15 40 0 0 0 0 0 0 
87 57 35 87 57 35 0 0 0 0 0 0 0 0 0 0 0 0 0 0 0 0 0 0 0 0 0 
