P3
9 9
255
0 0 0 0 0 0 0 0 0 0 0 0 0 0 0 0 0 0 227 255 151 139 237 202 127 236 197 
0 0 0 0 0 0 0 0 0 0 0 0 0 0 0 227 255 151 113 234 191 221 114 180 107 149 185 
0 0 0 0 0 0 0 0 0 0 0 0 253 230 148 132 174 210 206 129 176 130 164 192 204 182 99 
0 0 0 0 0 0 0 0 0 253 230 148 221 114 180 113 234 191 133 185 229 140 206 153 0 0 0 
0 0 0 184 184 184 227 255 151 113 234 191 130 172 207 245 113 194 204 182 99 0 0 0 0 0 0 
0 0 0 184 184 184 184 184 184 119 166 206 223 116 182 204 182 99 0 0 0 0 0 0 0 0 0 
0 0 0 109 74 48 184 184 184 184 184 184 204 182 99 0 0 0 0 0 0 0 0 0 0 0 0 
109 74 48 95 63 40 95 63 40 184 184 184 184 184 184 0 0 0 0 0 0 0 0 0 0 0 0 
87 57 35 87 57 35 0 0 0 0 0 0 0 0 0 0 0 0 0 0 0 0 0 0 0 0 0 
