P3
9 9
255
0 0 0 0 0 0 0 0 0 0 0 0 0 0 0 0 0 0 73 29 255 73 29 255 63 17 255 
0 0 0 0 0 0 0 0 0 0 0 0 0 0 0 73 29 255 0 88 255 0 82 255 33 0 169 
0 0 0 0 0 0 0 0 0 0 0 0 73 29 255 0 100 255 0 70 255 0 100 255 28 0 143 
0 0 0 0 0 0 0 0 0 73 29 255 0 88 255 0 76 255 0 88 255 28 0 143 0 0 0 
0 0 0 155 183 207 73 29 255 0 112 255 0 100 255 0 88 255 28 0 143 0 0 0 0 0 0 
0 0 0 155 183 207 155 183 207 63 22 236 0 112 255 28 0 143 0 0 0 0 0 0 0 0 0 
0 0 0 109 74 48 155 183 207 155 183 207 28 0 143 0 0 0 0 0 0 0 0 0 0 0 0 
109 74 48 95 63 40 95 63 40 155 183 207 155 183 207 0 0 0 0 0 0 0 0 0 0 0 0 
87 57 35 87 57 35 0 0 0 0 0 0 0 0 0 0 0 0 0 0 0 0 0 0 0 0 0 
