P3
9 9
255
0 0 0 0 0 0 0 0 0 0 0 0 193 255 62 133 236 33 166 125 86 133 236 33 193 255 62 
0 0 0 0 0 0 0 0 0 142 86 59 133 236 33 142 86 59 0 0 0 154 105 72 74 210 8 
0 0 0 0 0 0 129 67 47 0 0 0 0 0 0 0 0 0 0 0 0 142 86 59 0 0 0 
0 0 0 228 75 45 228 75 45 201 0 0 0 0 0 0 0 0 129 67 47 0 0 0 0 0 0 
228 75 45 213 27 10 201 0 0 201 0 0 255 85 50 255 85 50 237 22 22 0 0 0 0 0 0 
228 75 45 213 27 10 201 0 0 255 85 50 249 53 35 237 22 22 237 22 22 211 0 33 0 0 0 
228 75 45 201 0 0 201 0 0 255 85 50 237 22 22 237 22 22 237 22 22 211 0 33 0 0 0 
0 0 0 225 55 21 201 0 0 255 85 50 237 22 22 237 22 22 237 22 22 211 0 33 0 0 0 
0 0 0 0 0 0 0 0 0 0 0 0 249 53 35 237 22 22 211 0 33 0 0 0 0 0 0 
