P3
9 9
255
0 0 0 0 0 0 255 237 188 255 208 84 255 233 173 255 203 65 255 203 65 0 0 0 0 0 0 
0 0 0 255 237 188 255 208 84 255 203 65 255 203 65 255 203 65 255 233 173 255 203 65 0 0 0 
192 244 80 207 255 102 192 244 80 202 255 85 202 255 85 202 255 85 192 244 80 181 229 76 181 229 76 
131 178 27 105 75 49 146 198 30 181 229 76 255 245 0 123 86 54 146 198 30 123 86 54 229 220 0 
136 102 74 123 86 54 255 245 0 123 86 54 255 245 0 123 86 54 255 245 0 255 245 0 255 245 0 
136 102 74 123 86 54 255 209 0 123 86 54 105 75 49 123 86 54 105 75 49 255 209 0 105 75 49 
255 71 57 255 51 36 255 29 12 255 29 12 255 29 12 255 29 12 255 29 12 229 26 10 229 26 10 
255 203 65 255 233 173 255 203 65 255 203 65 255 233 173 255 208 84 255 233 173 255 208 84 229 182 58 
0 0 0 255 203 65 255 233 173 255 203 65 255 208 84 229 182 58 229 182 58 229 209 155 0 0 0 
