P3
9 9
255
0 0 0 0 0 0 0 0 0 0 0 0 0 0 0 0 0 0 0 0 0 0 0 0 0 0 0 
0 0 0 0 0 0 0 0 0 245 180 85 245 180 85 243 140 48 0 0 0 0 0 0 0 0 0 
0 0 0 0 0 0 245 180 85 245 180 85 234 145 65 243 140 48 243 140 48 0 0 0 0 0 0 
0 0 0 245 180 85 245 177 77 239 154 78 239 154 78 231 131 42 232 132 42 232 132 42 0 0 0 
0 0 0 245 180 85 234 145 65 239 154 78 234 145 65 231 131 42 232 132 42 206 74 16 0 0 0 
0 0 0 244 171 65 243 140 48 249 149 59 232 132 42 232 132 42 232 132 42 206 74 16 0 0 0 
0 0 0 0 0 0 243 140 48 243 140 48 232 132 42 206 74 16 206 74 16 0 0 0 0 0 0 
0 0 0 0 0 0 0 0 0 206 74 16 206 74 16 206 74 16 0 0 0 0 0 0 0 0 0 
0 0 0 0 0 0 0 0 0 0 0 0 0 0 0 0 0 0 0 0 0 0 0 0 0 0 0 
