P3
9 9
255
0 0 0 0 0 0 0 0 0 0 0 0 0 0 0 0 0 0 135 255 249 135 255 249 135 255 238 
0 0 0 0 0 0 0 0 0 0 0 0 0 0 0 135 255 249 221 255 244 188 246 227 65 214 190 
0 0 0 0 0 0 0 0 0 0 0 0 171 255 251 221 255 244 151 241 211 151 241 211 65 214 190 
0 0 0 0 0 0 0 0 0 171 255 251 221 255 244 151 241 211 151 241 211 65 214 190 0 0 0 
0 0 0 155 207 190 171 255 251 221 255 244 151 241 211 151 241 211 65 214 190 0 0 0 0 0 0 
0 0 0 155 207 190 155 207 190 193 255 230 151 241 211 65 214 190 0 0 0 0 0 0 0 0 0 
0 0 0 109 74 48 155 207 190 155 207 190 65 214 190 0 0 0 0 0 0 0 0 0 0 0 0 
109 74 48 95 63 40 95 63 40 155 207 190 155 207 190 0 0 0 0 0 0 0 0 0 0 0 0 
87 57 35 87 57 35 0 0 0 0 0 0 0 0 0 0 0 0 0 0 0 0 0 0 0 0 0 
