P3
9 9
255
0 0 0 0 0 0 0 0 0 148 255 91 148 255 91 0 0 0 0 0 0 0 0 0 0 0 0 
0 0 0 0 0 0 148 255 91 90 232 59 90 232 59 0 0 0 0 0 0 0 0 0 0 0 0 
0 0 0 148 255 91 90 232 59 67 219 44 67 219 44 21 194 25 0 0 0 0 0 0 0 0 0 
0 0 0 0 0 0 67 219 44 39 206 31 39 206 31 20 194 32 5 175 37 0 0 0 0 0 0 
0 0 0 0 0 0 0 0 0 5 175 37 28 200 26 20 194 32 5 175 37 0 0 0 0 0 0 
0 0 0 0 0 0 109 74 48 109 74 48 5 175 37 5 175 37 0 0 0 0 0 0 0 0 0 
0 0 0 109 74 48 95 63 40 95 63 40 0 0 0 0 0 0 0 0 0 0 0 0 0 0 0 
109 74 48 95 63 40 95 63 40 0 0 0 0 0 0 0 0 0 0 0 0 0 0 0 0 0 0 
87 57 35 87 57 35 0 0 0 0 0 0 0 0 0 0 0 0 0 0 0 0 0 0 0 0 0 
