P3
9 9
255
0 0 0 0 0 0 150 150 150 119 119 119 119 119 119 119 119 119 119 119 119 0 0 0 0 0 0 
0 0 0 150 150 150 179 93 52 143 86 59 143 86 59 143 86 59 143 86 59 119 119 119 0 0 0 
150 150 150 179 93 52 143 86 59 143 86 59 143 86 59 143 86 59 143 86 59 135 70 40 119 119 119 
150 150 150 179 93 52 143 86 59 143 86 59 143 86 59 143 86 59 143 86 59 135 70 40 104 104 104 
150 150 150 179 93 52 143 86 59 143 86 59 143 86 59 143 86 59 143 86 59 135 70 40 104 104 104 
0 0 0 119 119 119 143 86 59 143 86 59 143 86 59 143 86 59 135 70 40 104 104 104 0 0 0 
0 0 0 119 119 119 143 86 59 143 86 59 143 86 59 143 86 59 135 70 40 104 104 104 0 0 0 
0 0 0 0 0 0 119 119 119 143 86 59 143 86 59 135 70 40 104 104 104 0 0 0 0 0 0 
0 0 0 0 0 0 0 0 0 119 119 119 104 104 104 104 104 104 0 0 0 0 0 0 0 0 0 
