P3
9 9
255
0 0 0 0 0 0 0 0 0 0 0 0 0 0 0 0 0 0 0 0 0 0 0 0 0 0 0 
0 0 0 0 0 0 131 88 58 106 71 47 106 71 47 106 71 47 106 71 47 0 0 0 0 0 0 
0 0 0 131 88 58 106 71 47 106 71 47 87 55 32 106 71 47 106 71 47 106 71 47 0 0 0 
0 0 0 106 71 47 106 71 47 87 55 32 91 58 33 91 58 33 106 71 47 106 71 47 0 0 0 
0 0 0 106 71 47 87 55 32 91 58 33 91 58 33 91 58 33 94 60 35 98 66 43 0 0 0 
0 0 0 98 66 43 87 55 32 91 58 33 91 58 33 91 58 33 94 60 35 98 66 43 0 0 0 
0 0 0 0 0 0 0 0 0 0 0 0 0 0 0 0 0 0 0 0 0 0 0 0 0 0 0 
0 0 0 0 0 0 0 0 0 0 0 0 0 0 0 0 0 0 0 0 0 0 0 0 0 0 0 
0 0 0 0 0 0 0 0 0 0 0 0 0 0 0 0 0 0 0 0 0 0 0 0 0 0 0 
