P3
# Created by GIMP version 2.10.30 PNM plug-in
9 9
255
0
0
0
0
0
0
0
0
0
0
0
0
0
0
0
0
0
0
0
0
0
0
0
0
0
0
0
0
0
0
0
0
0
255
0
0
255
92
4
255
158
0
255
158
0
0
0
0
0
0
0
0
0
0
0
0
0
255
0
0
255
158
0
255
228
26
255
228
26
255
206
90
255
158
0
255
0
0
0
0
0
0
0
0
255
92
4
255
158
0
255
206
90
255
255
255
255
255
255
255
206
90
255
158
0
0
0
0
0
0
0
255
92
4
255
228
26
255
255
255
255
255
255
255
255
255
255
228
26
255
158
0
0
0
0
0
0
0
255
158
0
255
206
90
255
255
255
255
255
255
255
206
90
255
228
26
255
92
4
0
0
0
0
0
0
255
0
0
255
158
0
255
206
90
255
228
26
255
228
26
255
158
0
0
0
0
0
0
0
0
0
0
0
0
0
255
0
0
255
158
0
255
158
0
255
92
4
0
0
0
0
0
0
0
0
0
0
0
0
0
0
0
0
0
0
0
0
0
0
0
0
0
0
0
0
0
0
0
0
0
0
0
0
