P3
# Created by GIMP version 2.10.30 PNM plug-in
9 9
255
0
0
0
0
0
0
230
62
62
230
62
62
0
0
0
230
62
62
230
62
62
0
0
0
0
0
0
0
0
0
230
62
62
204
54
54
204
54
54
204
54
54
204
54
54
204
54
54
204
54
54
0
0
0
230
62
62
204
54
54
204
54
54
204
54
54
204
54
54
204
54
54
204
54
54
204
54
54
193
13
13
230
62
62
204
54
54
204
54
54
204
54
54
204
54
54
204
54
54
204
54
54
204
54
54
193
13
13
230
62
62
204
54
54
204
54
54
204
54
54
204
54
54
204
54
54
204
54
54
204
54
54
193
13
13
0
0
0
230
62
62
204
54
54
204
54
54
204
54
54
204
54
54
204
54
54
193
13
13
0
0
0
0
0
0
0
0
0
204
54
54
204
54
54
204
54
54
204
54
54
193
13
13
0
0
0
0
0
0
0
0
0
0
0
0
0
0
0
204
54
54
204
54
54
193
13
13
0
0
0
0
0
0
0
0
0
0
0
0
0
0
0
0
0
0
0
0
0
193
13
13
0
0
0
0
0
0
0
0
0
0
0
0
