P3
# Created by GIMP version 2.10.30 PNM plug-in
9 9
255
230
62
62
150
150
150
150
150
150
0
0
0
0
0
0
0
0
0
0
0
0
0
0
0
0
0
0
204
54
54
119
119
119
230
62
62
150
150
150
0
0
0
0
0
0
0
0
0
0
0
0
0
0
0
204
54
54
119
119
119
204
54
54
119
119
119
150
150
150
0
0
0
0
0
0
0
0
0
0
0
0
204
54
54
204
54
54
204
54
54
119
119
119
119
119
119
150
150
150
0
0
0
0
0
0
0
0
0
204
54
54
204
54
54
104
104
104
119
119
119
119
119
119
119
119
119
150
150
150
184
184
184
0
0
0
204
54
54
193
13
13
0
0
0
104
104
104
119
119
119
114
114
114
184
184
184
184
184
184
0
0
0
193
13
13
0
0
0
0
0
0
0
0
0
104
104
104
184
184
184
184
184
184
95
63
40
0
0
0
0
0
0
157
0
0
0
0
0
0
0
0
184
184
184
184
184
184
95
63
40
95
63
40
95
63
40
0
0
0
0
0
0
0
0
0
0
0
0
0
0
0
0
0
0
0
0
0
95
63
40
95
63
40
