P3
9 9
255
0 0 0 0 0 0 0 0 0 0 0 0 0 0 0 0 0 0 161 20 212 161 20 212 150 21 209 
0 0 0 0 0 0 0 0 0 0 0 0 0 0 0 161 20 212 179 91 219 234 199 249 118 20 192 
0 0 0 0 0 0 0 0 0 0 0 0 161 20 212 182 92 224 182 92 224 180 107 214 118 20 192 
0 0 0 0 0 0 0 0 0 161 20 212 180 107 214 234 199 249 174 78 219 118 20 192 0 0 0 
0 0 0 205 188 214 161 20 212 141 18 203 174 78 219 180 107 214 118 20 192 0 0 0 0 0 0 
0 0 0 205 188 214 205 188 214 130 20 192 141 18 203 118 20 192 0 0 0 0 0 0 0 0 0 
0 0 0 109 74 48 205 188 214 205 188 214 118 20 192 0 0 0 0 0 0 0 0 0 0 0 0 
109 74 48 95 63 40 95 63 40 205 188 214 205 188 214 0 0 0 0 0 0 0 0 0 0 0 0 
87 57 35 87 57 35 0 0 0 0 0 0 0 0 0 0 0 0 0 0 0 0 0 0 0 0 0 
