P3
9 9
255
0 0 0 0 0 0 0 0 0 0 0 0 0 0 0 170 248 47 0 0 0 0 0 0 0 0 0 
0 0 0 0 0 0 0 0 0 0 0 0 170 248 47 133 236 33 133 236 33 142 86 59 0 0 0 
0 0 0 0 0 0 245 104 85 245 104 85 243 48 48 133 236 33 142 86 59 133 236 33 0 0 0 
0 0 0 245 104 85 245 104 85 234 65 65 243 48 48 243 48 48 0 0 0 74 210 8 133 236 33 
245 104 85 245 97 77 239 78 78 239 78 78 231 42 42 232 42 42 232 42 42 0 0 0 0 0 0 
245 104 85 234 65 65 239 78 78 234 65 65 231 42 42 232 42 42 206 16 48 0 0 0 0 0 0 
244 86 65 243 48 48 249 59 59 232 42 42 232 42 42 232 42 42 206 16 48 0 0 0 0 0 0 
0 0 0 243 48 48 243 48 48 232 42 42 206 16 48 206 16 48 0 0 0 0 0 0 0 0 0 
0 0 0 0 0 0 206 16 48 206 16 48 206 16 48 0 0 0 0 0 0 0 0 0 0 0 0 
