P3
# Created by GIMP version 2.10.30 PNM plug-in
9 9
255
0
0
0
0
0
0
0
0
0
29
29
29
29
29
29
29
29
29
0
0
0
217
160
102
217
160
102
0
0
0
0
0
0
29
29
29
44
44
44
29
29
29
29
29
29
29
29
29
217
160
102
0
0
0
0
0
0
29
29
29
138
138
138
233
233
233
44
44
44
29
29
29
29
29
29
29
29
29
0
0
0
29
29
29
138
138
138
233
233
233
233
233
233
138
138
138
29
29
29
29
29
29
29
29
29
29
29
29
29
29
29
44
44
44
138
138
138
233
233
233
44
44
44
29
29
29
29
29
29
29
29
29
3
3
3
29
29
29
29
29
29
44
44
44
138
138
138
29
29
29
29
29
29
29
29
29
29
29
29
3
3
3
0
0
0
29
29
29
29
29
29
29
29
29
29
29
29
29
29
29
29
29
29
3
3
3
0
0
0
0
0
0
0
0
0
29
29
29
29
29
29
29
29
29
29
29
29
3
3
3
0
0
0
0
0
0
0
0
0
0
0
0
0
0
0
29
29
29
3
3
3
3
3
3
0
0
0
0
0
0
0
0
0
