P3
# Created by GIMP version 2.10.30 PNM plug-in
9 9
255
0
0
0
0
0
0
0
0
0
128
85
56
128
85
56
106
71
47
0
0
0
0
0
0
0
0
0
0
0
0
0
0
0
0
0
0
128
85
56
106
71
47
106
71
47
0
0
0
0
0
0
0
0
0
0
0
0
128
85
56
128
85
56
106
71
47
106
71
47
106
71
47
106
71
47
106
71
47
0
0
0
0
0
0
128
85
56
106
71
47
106
71
47
106
71
47
106
71
47
91
58
33
91
58
33
0
0
0
0
0
0
0
0
0
0
0
0
128
85
56
106
71
47
106
71
47
0
0
0
0
0
0
0
0
0
0
0
0
0
0
0
0
0
0
128
85
56
106
71
47
106
71
47
0
0
0
0
0
0
0
0
0
0
0
0
0
0
0
0
0
0
128
85
56
106
71
47
91
58
33
0
0
0
0
0
0
0
0
0
0
0
0
0
0
0
0
0
0
106
71
47
106
71
47
91
58
33
0
0
0
0
0
0
0
0
0
0
0
0
0
0
0
0
0
0
106
71
47
91
58
33
91
58
33
0
0
0
0
0
0
0
0
0
