P3
# Created by GIMP version 2.10.30 PNM plug-in
9 9
255
0
0
0
0
0
0
0
0
0
117
117
117
108
108
108
117
117
117
0
0
0
0
0
0
0
0
0
0
0
0
0
0
0
108
108
108
0
0
0
0
0
0
0
0
0
109
109
109
0
0
0
0
0
0
0
0
0
117
117
117
0
0
0
0
0
0
0
0
0
0
0
0
0
0
0
113
113
113
0
0
0
0
0
0
108
108
108
0
0
0
0
0
0
0
0
0
0
0
0
0
0
0
109
109
109
0
0
0
0
0
0
113
113
113
0
0
0
0
0
0
0
0
0
0
0
0
0
0
0
113
113
113
0
0
0
0
0
0
0
0
0
109
109
109
0
0
0
135
89
57
0
0
0
109
109
109
0
0
0
0
0
0
0
0
0
0
0
0
0
0
0
135
89
57
128
85
56
128
85
56
0
0
0
0
0
0
0
0
0
0
0
0
0
0
0
0
0
0
0
0
0
128
85
56
0
0
0
0
0
0
0
0
0
0
0
0
0
0
0
0
0
0
0
0
0
0
0
0
128
85
56
0
0
0
0
0
0
0
0
0
0
0
0
