P3
9 9
255
0 0 0 0 0 0 0 0 0 0 0 0 147 214 57 0 0 0 0 0 0 0 0 0 0 0 0 
0 0 0 0 0 0 147 214 57 122 206 11 135 210 35 122 206 11 135 210 35 0 0 0 0 0 0 
0 0 0 255 101 43 109 185 9 242 57 39 109 185 9 192 32 16 109 185 9 241 36 15 0 0 0 
255 101 43 253 68 28 242 57 39 192 32 16 241 36 15 241 36 15 241 36 15 192 32 16 228 4 2 
255 101 43 192 32 16 242 57 39 241 36 15 241 36 15 192 32 16 241 36 15 228 4 2 215 0 8 
0 0 0 255 101 43 242 57 39 192 32 16 241 36 15 241 36 15 241 36 15 215 0 8 0 0 0 
0 0 0 192 32 16 253 68 28 241 36 15 241 36 15 241 36 15 192 32 16 215 0 8 0 0 0 
0 0 0 0 0 0 255 101 43 241 36 15 192 32 16 228 4 2 215 0 8 0 0 0 0 0 0 
0 0 0 0 0 0 0 0 0 253 68 28 228 4 2 215 0 8 0 0 0 0 0 0 0 0 0 
