P3
9 9
255
0 0 0 0 0 0 0 0 0 0 0 0 0 0 0 142 86 59 0 0 0 0 0 0 0 0 0 
0 0 0 0 0 0 0 0 0 0 0 0 133 80 55 0 0 0 0 0 0 0 0 0 0 0 0 
0 0 0 0 0 0 0 0 0 151 189 76 86 151 39 66 139 29 0 0 0 0 0 0 0 0 0 
0 0 0 0 0 0 149 187 75 103 160 48 107 164 50 66 139 29 66 139 29 0 0 0 0 0 0 
0 0 0 0 0 0 151 189 76 105 162 49 86 151 39 65 137 28 66 139 29 0 0 0 0 0 0 
0 0 0 151 189 76 86 151 39 80 159 31 77 151 34 66 139 29 66 139 29 28 111 11 0 0 0 
0 0 0 151 189 76 77 151 34 86 151 39 65 137 28 66 139 29 64 135 27 29 113 12 0 0 0 
0 0 0 0 0 0 65 137 28 66 139 29 66 139 29 65 137 28 29 113 12 0 0 0 0 0 0 
0 0 0 0 0 0 0 0 0 66 139 29 29 113 12 29 113 12 0 0 0 0 0 0 0 0 0 
