P3
# Created by GIMP version 2.10.30 PNM plug-in
9 9
255
0
0
0
0
0
0
0
0
0
0
0
0
0
0
0
0
0
0
0
0
0
0
0
0
0
0
0
0
0
0
0
0
0
117
117
117
105
106
106
105
106
106
105
106
106
105
106
106
0
0
0
0
0
0
0
0
0
117
117
117
105
106
106
105
106
106
69
69
69
105
106
106
105
106
106
105
106
106
0
0
0
0
0
0
105
106
106
105
106
106
69
69
69
73
73
73
73
73
73
105
106
106
105
106
106
0
0
0
0
0
0
105
106
106
69
69
69
73
73
73
73
73
73
73
73
73
77
77
77
95
95
95
0
0
0
0
0
0
95
95
95
69
69
69
73
73
73
73
73
73
73
73
73
77
77
77
95
95
95
0
0
0
0
0
0
0
0
0
0
0
0
0
0
0
0
0
0
0
0
0
0
0
0
0
0
0
0
0
0
0
0
0
0
0
0
0
0
0
0
0
0
0
0
0
0
0
0
0
0
0
0
0
0
0
0
0
0
0
0
0
0
0
0
0
0
0
0
0
0
0
0
0
0
0
0
0
0
0
0
0
0
0
0
