P3
9 9
255
0 0 0 0 0 0 0 0 0 0 0 0 0 0 0 0 0 0 0 175 0 0 175 0 0 170 0 
0 0 0 0 0 0 0 0 0 0 0 0 0 0 0 0 175 0 90 211 47 194 226 183 0 154 0 
0 0 0 0 0 0 0 0 0 0 0 0 0 175 0 40 188 42 70 194 26 90 211 47 0 154 0 
0 0 0 0 0 0 0 0 0 0 175 0 90 211 47 194 226 183 40 188 42 0 154 0 0 0 0 
0 0 0 181 199 173 0 175 0 0 165 0 70 194 26 90 211 47 0 154 0 0 0 0 0 0 0 
0 0 0 181 199 173 181 199 173 0 159 0 0 165 0 0 154 0 0 0 0 0 0 0 0 0 0 
0 0 0 109 74 48 181 199 173 181 199 173 0 154 0 0 0 0 0 0 0 0 0 0 0 0 0 
109 74 48 95 63 40 95 63 40 181 199 173 181 199 173 0 0 0 0 0 0 0 0 0 0 0 0 
87 57 35 87 57 35 0 0 0 0 0 0 0 0 0 0 0 0 0 0 0 0 0 0 0 0 0 
