P3
# Created by GIMP version 2.10.30 PNM plug-in
9 9
255
0
0
0
0
0
0
0
0
0
0
0
0
0
0
0
0
0
0
150
150
150
150
150
150
136
136
136
0
0
0
0
0
0
0
0
0
0
0
0
0
0
0
150
150
150
119
119
119
119
119
119
104
104
104
0
0
0
0
0
0
0
0
0
0
0
0
150
150
150
119
119
119
119
119
119
119
119
119
104
104
104
0
0
0
0
0
0
0
0
0
150
150
150
119
119
119
119
119
119
119
119
119
104
104
104
0
0
0
0
0
0
184
184
184
150
150
150
119
119
119
119
119
119
119
119
119
104
104
104
0
0
0
0
0
0
0
0
0
184
184
184
184
184
184
114
114
114
119
119
119
104
104
104
0
0
0
0
0
0
0
0
0
0
0
0
109
74
48
184
184
184
184
184
184
104
104
104
0
0
0
0
0
0
0
0
0
0
0
0
109
74
48
95
63
40
95
63
40
184
184
184
184
184
184
0
0
0
0
0
0
0
0
0
0
0
0
87
57
35
87
57
35
0
0
0
0
0
0
0
0
0
0
0
0
0
0
0
0
0
0
0
0
0
