P3
9 9
255
0 0 0 0 0 0 0 0 0 0 0 0 0 0 0 0 0 0 0 0 0 0 0 0 0 0 0 
0 0 0 0 0 0 0 0 0 136 136 136 119 119 119 119 119 119 0 0 0 0 0 0 0 0 0 
0 0 0 0 0 0 136 136 136 0 0 0 0 0 0 0 0 0 119 119 119 0 0 0 0 0 0 
0 0 0 136 136 136 0 0 0 0 0 0 0 0 0 0 0 0 0 0 0 119 119 119 0 0 0 
0 0 0 136 136 136 0 0 0 0 0 0 0 0 0 0 0 0 0 0 0 119 119 119 0 0 0 
0 0 0 119 119 119 0 0 0 0 0 0 0 0 0 0 0 0 0 0 0 104 104 104 0 0 0 
0 0 0 0 0 0 119 119 119 0 0 0 0 0 0 0 0 0 104 104 104 0 0 0 0 0 0 
0 0 0 0 0 0 0 0 0 119 119 119 119 119 119 104 104 104 0 0 0 0 0 0 0 0 0 
0 0 0 0 0 0 0 0 0 0 0 0 0 0 0 0 0 0 0 0 0 0 0 0 0 0 0 
