P3
9 9
255
0 0 0 0 0 0 0 0 0 255 149 44 255 149 44 0 0 0 0 0 0 0 0 0 0 0 0 
0 0 0 0 0 0 255 149 44 248 118 30 248 118 30 255 149 44 0 0 0 0 0 0 0 0 0 
0 0 0 255 149 44 248 118 30 248 118 30 248 118 30 248 118 30 95 63 40 0 0 0 0 0 0 
0 0 0 255 149 44 248 118 30 248 118 30 248 118 30 248 118 30 248 118 30 248 118 30 0 0 0 
0 0 0 0 0 0 0 0 0 235 86 16 248 118 30 248 118 30 248 118 30 248 118 30 235 86 16 
0 0 0 0 0 0 109 74 48 109 74 48 235 86 16 248 118 30 248 118 30 248 118 30 235 86 16 
0 0 0 109 74 48 95 63 40 95 63 40 0 0 0 248 118 30 248 118 30 235 86 16 0 0 0 
109 74 48 95 63 40 95 63 40 0 0 0 0 0 0 235 86 16 235 86 16 0 0 0 0 0 0 
87 57 35 87 57 35 0 0 0 0 0 0 0 0 0 0 0 0 0 0 0 0 0 0 0 0 0 
