P3
9 9
255
0 0 0 0 0 0 0 0 0 47 47 47 47 47 47 47 47 47 0 0 0 0 0 0 0 0 0 
0 0 0 0 0 0 47 47 47 255 255 255 255 255 255 255 255 255 47 47 47 0 0 0 0 0 0 
0 0 0 0 0 0 0 0 0 47 47 47 198 207 208 47 47 47 0 0 0 0 0 0 0 0 0 
0 0 0 0 0 0 0 0 0 47 47 47 198 207 208 47 47 47 0 0 0 0 0 0 0 0 0 
0 0 0 0 0 0 47 47 47 0 115 157 0 148 184 127 202 220 47 47 47 0 0 0 0 0 0 
0 0 0 47 47 47 0 115 157 0 127 187 0 148 184 0 164 189 114 195 207 47 47 47 0 0 0 
47 47 47 0 102 140 0 114 168 0 129 190 0 141 191 0 148 184 0 167 195 106 186 187 47 47 47 
47 47 47 0 102 140 0 130 178 0 122 191 0 122 191 0 131 185 0 158 185 98 182 183 47 47 47 
0 0 0 47 47 47 47 47 47 47 47 47 47 47 47 47 47 47 47 47 47 47 47 47 0 0 0 
