P3
9 9
255
0 0 0 0 0 0 0 0 0 158 255 107 158 255 107 0 0 0 0 0 0 0 0 0 0 0 0 
0 0 0 0 0 0 158 255 107 112 243 73 112 243 73 158 255 107 0 0 0 0 0 0 0 0 0 
0 0 0 158 255 107 112 243 73 83 231 58 83 231 58 112 243 73 109 79 48 0 0 0 0 0 0 
0 0 0 158 255 107 112 243 73 83 231 58 75 222 65 55 219 44 37 213 32 31 206 34 0 0 0 
0 0 0 0 0 0 0 0 0 9 181 36 55 219 44 37 213 32 31 206 34 19 193 36 9 181 36 
0 0 0 0 0 0 109 74 48 109 79 48 9 181 36 31 206 34 31 206 34 19 193 36 9 181 36 
0 0 0 109 74 48 95 63 40 95 63 40 0 0 0 19 193 36 19 193 36 9 181 36 0 0 0 
109 74 48 95 63 40 95 63 40 0 0 0 0 0 0 9 181 36 9 181 36 0 0 0 0 0 0 
87 57 35 87 57 35 0 0 0 0 0 0 0 0 0 0 0 0 0 0 0 0 0 0 0 0 0 
