P3
9 9
255
0 0 0 0 0 0 0 0 0 192 72 66 195 34 25 192 72 66 0 0 0 0 0 0 0 0 0 
0 0 0 0 0 0 0 0 0 195 41 33 195 34 25 195 41 33 0 0 0 0 0 0 0 0 0 
0 0 0 0 0 0 0 0 0 209 164 21 195 154 25 195 154 25 0 0 0 0 0 0 0 0 0 
0 0 0 0 0 0 209 164 21 0 0 0 0 0 0 0 0 0 195 154 25 0 0 0 0 0 0 
0 0 0 209 164 21 0 0 0 0 0 0 0 0 0 0 0 0 0 0 0 195 154 25 0 0 0 
0 0 0 209 164 21 0 0 0 0 0 0 0 0 0 0 0 0 0 0 0 195 154 25 0 0 0 
0 0 0 195 154 25 0 0 0 0 0 0 0 0 0 0 0 0 0 0 0 184 147 31 0 0 0 
0 0 0 0 0 0 195 154 25 0 0 0 0 0 0 0 0 0 184 147 31 0 0 0 0 0 0 
0 0 0 0 0 0 0 0 0 195 154 25 195 154 25 184 147 31 0 0 0 0 0 0 0 0 0 
