P3
9 9
255
0 0 0 0 0 0 117 117 117 105 106 106 105 106 106 105 106 106 105 106 106 0 0 0 0 0 0 
0 0 0 117 117 117 105 106 106 105 106 106 105 106 106 105 106 106 105 106 106 105 106 106 0 0 0 
117 117 117 105 106 106 105 106 106 105 106 106 105 106 106 105 106 106 105 106 106 105 106 106 105 106 106 
117 117 117 105 106 106 105 106 106 105 106 106 105 106 106 105 106 106 105 106 106 105 106 106 95 95 95 
117 117 117 105 106 106 105 106 106 105 106 106 105 106 106 105 106 106 105 106 106 105 106 106 95 95 95 
0 0 0 105 106 106 105 106 106 105 106 106 105 106 106 105 106 106 105 106 106 95 95 95 0 0 0 
0 0 0 105 106 106 105 106 106 105 106 106 105 106 106 105 106 106 105 106 106 95 95 95 0 0 0 
0 0 0 0 0 0 105 106 106 105 106 106 105 106 106 105 106 106 95 95 95 0 0 0 0 0 0 
0 0 0 0 0 0 0 0 0 105 106 106 95 95 95 95 95 95 0 0 0 0 0 0 0 0 0 
