P3
# Created by GIMP version 2.10.30 PNM plug-in
9 9
255
0
0
0
0
0
0
117
117
117
105
106
106
105
106
106
105
106
106
105
106
106
0
0
0
0
0
0
0
0
0
117
117
117
179
93
52
143
86
59
143
86
59
143
86
59
143
86
59
105
106
106
0
0
0
117
117
117
179
93
52
143
86
59
143
86
59
143
86
59
143
86
59
143
86
59
135
70
40
105
106
106
117
117
117
179
93
52
143
86
59
143
86
59
143
86
59
143
86
59
143
86
59
135
70
40
95
95
95
117
117
117
179
93
52
143
86
59
143
86
59
143
86
59
143
86
59
143
86
59
135
70
40
95
95
95
0
0
0
105
106
106
143
86
59
143
86
59
143
86
59
143
86
59
135
70
40
95
95
95
0
0
0
0
0
0
105
106
106
143
86
59
143
86
59
143
86
59
143
86
59
135
70
40
95
95
95
0
0
0
0
0
0
0
0
0
105
106
106
143
86
59
143
86
59
135
70
40
95
95
95
0
0
0
0
0
0
0
0
0
0
0
0
0
0
0
105
106
106
95
95
95
95
95
95
0
0
0
0
0
0
0
0
0
