P3
# Created by GIMP version 2.10.30 PNM plug-in
9 9
255
118
66
138
118
66
138
118
66
138
118
66
138
0
0
0
0
0
0
0
0
0
0
0
0
0
0
0
118
66
138
118
66
138
118
66
138
118
66
138
118
66
138
118
66
138
255
255
255
0
0
0
0
0
0
118
66
138
251
242
54
118
66
138
251
242
54
251
242
54
118
66
138
255
255
255
255
255
255
118
66
138
118
66
138
251
242
54
251
242
54
118
66
138
118
66
138
118
66
138
255
255
255
255
255
255
118
66
138
118
66
138
118
66
138
118
66
138
118
66
138
118
66
138
118
66
138
255
255
255
255
255
255
118
66
138
118
66
138
251
242
54
251
242
54
251
242
54
251
242
54
118
66
138
255
255
255
255
255
255
118
66
138
118
66
138
118
66
138
118
66
138
251
242
54
118
66
138
118
66
138
255
255
255
255
255
255
118
66
138
118
66
138
118
66
138
118
66
138
118
66
138
118
66
138
118
66
138
255
255
255
255
255
255
118
66
138
0
0
0
0
0
0
0
0
0
118
66
138
118
66
138
118
66
138
255
255
255
255
255
255
118
66
138
