P3
# Created by GIMP version 2.10.30 PNM plug-in
9 9
255
0
0
0
0
0
0
0
0
0
0
0
0
0
0
0
0
0
0
0
0
0
109
74
48
102
68
44
0
0
0
0
0
0
0
0
0
0
0
0
0
0
0
0
0
0
109
74
48
95
63
40
87
57
35
0
0
0
0
0
0
0
0
0
0
0
0
0
0
0
109
74
48
95
63
40
87
57
35
0
0
0
0
0
0
0
0
0
0
0
0
0
0
0
109
74
48
95
63
40
87
57
35
0
0
0
0
0
0
0
0
0
0
0
0
0
0
0
109
74
48
95
63
40
87
57
35
0
0
0
0
0
0
0
0
0
0
0
0
0
0
0
109
74
48
95
63
40
87
57
35
0
0
0
0
0
0
0
0
0
0
0
0
0
0
0
109
74
48
95
63
40
87
57
35
0
0
0
0
0
0
0
0
0
0
0
0
0
0
0
109
74
48
95
63
40
87
57
35
0
0
0
0
0
0
0
0
0
0
0
0
0
0
0
0
0
0
91
61
39
87
57
35
0
0
0
0
0
0
0
0
0
0
0
0
0
0
0
0
0
0
0
0
0
