P3
9 9
255
0 0 0 0 0 0 0 0 0 0 0 0 0 0 0 0 0 0 120 117 114 120 117 114 105 102 99 
0 0 0 0 0 0 0 0 0 0 0 0 0 0 0 120 117 114 101 98 97 80 77 73 72 69 65 
0 0 0 0 0 0 0 0 0 0 0 0 120 117 114 94 91 89 106 104 103 80 77 73 72 69 65 
0 0 0 0 0 0 0 0 0 120 117 114 80 77 73 101 99 99 97 94 91 72 69 65 0 0 0 
0 0 0 133 133 133 120 117 114 105 102 99 94 91 89 105 102 99 72 69 65 0 0 0 0 0 0 
0 0 0 120 120 120 108 108 108 80 77 73 89 86 82 72 69 65 0 0 0 0 0 0 0 0 0 
0 0 0 111 82 61 110 110 110 108 108 108 72 69 65 0 0 0 0 0 0 0 0 0 0 0 0 
111 82 61 95 63 40 99 73 54 94 94 94 84 84 84 0 0 0 0 0 0 0 0 0 0 0 0 
85 56 36 76 50 32 0 0 0 0 0 0 0 0 0 0 0 0 0 0 0 0 0 0 0 0 0 
