P3
# Created by GIMP version 2.10.30 PNM plug-in
9 9
255
0
0
0
0
0
0
0
0
0
0
0
0
0
0
0
0
0
0
0
0
0
131
88
58
124
83
55
0
0
0
0
0
0
0
0
0
0
0
0
0
0
0
0
0
0
131
88
58
106
71
47
91
58
33
0
0
0
0
0
0
0
0
0
0
0
0
0
0
0
131
88
58
106
71
47
91
58
33
0
0
0
0
0
0
0
0
0
0
0
0
0
0
0
131
88
58
106
71
47
91
58
33
0
0
0
0
0
0
0
0
0
0
0
0
0
0
0
131
88
58
106
71
47
91
58
33
0
0
0
0
0
0
0
0
0
0
0
0
179
131
94
179
131
94
91
58
33
91
58
33
0
0
0
0
0
0
0
0
0
0
0
0
0
0
0
95
63
40
179
131
94
179
131
94
0
0
0
0
0
0
0
0
0
0
0
0
0
0
0
95
63
40
95
63
40
95
63
40
179
131
94
0
0
0
0
0
0
0
0
0
0
0
0
0
0
0
95
63
40
95
63
40
0
0
0
0
0
0
0
0
0
0
0
0
0
0
0
0
0
0
0
0
0
