P3
9 9
255
0 0 0 0 0 0 0 0 0 0 0 0 0 0 0 0 180 0 0 180 0 0 180 0 0 0 0 
0 0 0 0 0 0 0 0 0 0 0 0 0 180 0 0 194 0 0 188 0 0 180 0 0 180 0 
0 0 0 0 0 0 0 0 0 184 184 184 0 180 0 0 188 0 0 180 0 0 180 0 0 170 0 
0 0 0 0 0 0 0 0 0 184 184 184 184 184 184 0 180 0 0 180 0 0 180 0 0 170 0 
0 0 0 0 0 0 0 0 0 109 74 48 184 184 184 184 184 184 0 170 0 0 170 0 0 0 0 
0 0 0 0 0 0 109 74 48 95 63 40 95 63 40 184 184 184 184 184 184 0 0 0 0 0 0 
0 0 0 109 74 48 95 63 40 95 63 40 0 0 0 0 0 0 0 0 0 0 0 0 0 0 0 
109 74 48 95 63 40 95 63 40 0 0 0 0 0 0 0 0 0 0 0 0 0 0 0 0 0 0 
87 57 35 87 57 35 0 0 0 0 0 0 0 0 0 0 0 0 0 0 0 0 0 0 0 0 0 
