P3
# Created by GIMP version 2.10.30 PNM plug-in
9 9
255
0
0
0
0
0
0
0
0
0
131
88
58
131
88
58
0
0
0
0
0
0
0
0
0
0
0
0
0
0
0
0
0
0
131
88
58
106
71
47
106
71
47
0
0
0
0
0
0
0
0
0
0
0
0
0
0
0
131
88
58
106
71
47
106
71
47
106
71
47
106
71
47
0
0
0
0
0
0
0
0
0
0
0
0
0
0
0
106
71
47
106
71
47
106
71
47
106
71
47
91
58
33
0
0
0
0
0
0
0
0
0
0
0
0
0
0
0
91
58
33
106
71
47
106
71
47
91
58
33
0
0
0
0
0
0
0
0
0
0
0
0
109
74
48
109
74
48
91
58
33
91
58
33
0
0
0
0
0
0
0
0
0
0
0
0
109
74
48
95
63
40
95
63
40
0
0
0
0
0
0
0
0
0
0
0
0
0
0
0
109
74
48
95
63
40
95
63
40
0
0
0
0
0
0
0
0
0
0
0
0
0
0
0
0
0
0
87
57
35
87
57
35
0
0
0
0
0
0
0
0
0
0
0
0
0
0
0
0
0
0
0
0
0
