P3
#Created with GIMP
#
64 64
255
94 94 94 97 97 97 101 101 101 97 97 97 96 95 96 99 99 99 95 96 98 98 98 98 93 96 96 98 98 98 98 98 98 96 97 97 100 100 100 102 101 100 99 99 99 102 102 102 95 95 95 92 92 92 113 113 113 120 120 120 100 100 100 95 95 95 98 98 98 96 96 96 102 102 102 96 96 96 103 102 101 96 99 98 95 95 95 97 97 97 98 98 98 100 102 99 102 102 102 95 95 95 97 97 97 100 100 100 97 97 97 98 98 98 97 97 97 95 95 95 98 98 98 100 100 100 100 99 99 97 98 99 95 95 95 95 95 95 96 95 97 99 99 99 99 98 98 100 99 101 103 103 103 93 95 94 95 95 95 95 96 95 96 96 96 92 92 92 98 97 98 121 124 121 124 124 124 98 98 98 97 97 97 94 94 94 98 98 96 94 94 94 
90 90 90 93 93 93 89 89 89 91 92 91 84 84 84 86 87 87 87 87 87 88 88 88 94 94 94 88 88 90 92 93 90 88 90 87 95 95 95 85 85 85 87 87 88 92 93 92 93 92 92 73 73 73 113 113 113 121 120 121 91 91 91 90 90 90 88 88 88 93 92 94 92 92 91 85 85 85 87 88 88 88 88 88 88 88 88 90 91 91 88 88 88 93 93 93 92 92 93 89 88 90 92 92 92 87 87 87 91 91 91 88 88 88 89 89 90 91 92 92 90 92 90 89 92 92 89 89 89 87 87 87 91 91 91 90 90 90 95 95 95 91 91 90 88 88 88 86 87 86 86 86 86 90 90 90 94 94 95 85 85 85 93 94 92 91 91 91 71 71 71 115 115 115 122 122 121 98 98 98 87 87 85 87 87 87 87 89 87 94 93 93 
94 94 94 93 93 93 89 89 89 88 88 88 85 85 85 93 90 91 85 85 85 89 89 89 94 96 95 83 82 84 93 91 91 92 91 91 87 87 87 92 92 92 90 90 90 92 90 89 90 90 90 73 72 71 113 113 113 119 119 119 94 94 94 89 89 89 85 84 85 90 90 90 96 96 96 93 93 93 92 92 92 95 95 95 90 90 90 89 89 90 93 93 93 90 90 90 93 94 94 89 89 89 89 86 89 88 90 89 88 88 88 89 88 88 87 87 87 92 90 89 94 93 93 87 88 88 86 86 86 86 85 84 84 83 84 88 88 88 87 88 87 90 91 89 92 92 92 94 93 95 84 84 85 87 87 87 92 92 92 86 86 86 86 86 86 85 85 85 72 72 72 117 117 117 122 122 122 101 99 100 86 84 84 88 88 88 89 89 89 93 93 93 
92 92 92 92 92 92 95 95 95 92 92 92 92 92 92 90 90 90 90 90 90 89 89 89 94 94 94 89 91 91 90 90 90 92 92 92 88 88 88 87 87 87 93 90 91 84 85 85 90 90 90 70 70 70 112 112 112 123 123 123 94 94 94 92 92 92 88 88 88 85 86 86 90 90 90 87 87 87 90 89 90 89 89 89 87 87 89 88 89 89 89 89 89 91 91 90 85 85 85 95 95 95 89 89 89 90 90 90 90 90 91 87 87 87 91 91 91 89 89 89 92 92 92 86 86 86 92 91 91 94 94 94 93 94 94 85 85 85 88 88 90 86 86 86 86 86 86 90 89 89 94 94 94 90 90 90 89 89 89 88 89 90 85 85 85 95 94 93 72 72 72 115 115 115 122 122 122 101 101 101 96 96 96 91 91 91 84 85 85 90 90 90 
89 89 88 91 91 91 85 87 85 87 86 88 83 83 83 87 87 87 86 85 87 93 92 93 95 95 95 93 93 93 89 87 89 90 90 91 92 91 92 84 84 84 88 89 88 91 91 91 89 88 88 76 76 76 114 115 115 120 120 120 92 92 92 90 90 90 87 87 87 92 90 90 87 85 87 90 90 90 93 95 94 94 94 94 89 89 89 87 87 87 86 86 86 92 92 92 92 92 92 88 86 88 89 89 89 94 94 94 87 87 87 87 88 88 95 95 95 93 93 93 88 90 88 90 90 90 86 86 87 85 84 83 93 93 93 88 88 88 91 91 91 88 87 88 91 91 90 90 90 90 93 91 93 91 91 91 88 88 88 88 87 89 88 87 87 88 88 87 75 75 76 114 114 111 123 123 123 92 92 93 93 93 92 89 89 89 93 93 93 86 86 86 
91 90 91 91 90 90 91 91 91 86 86 87 90 92 89 96 96 96 93 93 93 88 88 89 94 94 94 87 90 89 88 88 88 89 90 90 87 88 87 85 85 85 90 91 91 92 92 92 92 92 92 67 69 68 113 113 113 123 123 122 99 99 99 91 91 91 90 90 90 90 93 92 90 90 90 89 89 89 91 91 91 91 89 88 95 95 95 86 87 88 87 88 87 88 88 88 92 92 92 94 94 94 91 91 91 84 85 83 87 89 89 89 88 88 86 86 86 90 90 90 94 94 94 87 88 88 89 89 90 88 88 88 91 91 91 91 91 91 94 94 94 92 92 92 90 90 90 93 93 93 91 90 91 91 91 91 87 88 89 89 90 90 93 93 93 94 94 94 72 72 72 115 115 115 123 123 123 96 96 96 87 87 87 90 90 90 95 95 95 95 93 94 
88 89 88 91 91 91 92 91 91 90 90 90 88 88 88 88 88 88 85 85 85 89 88 90 87 87 87 85 85 85 90 91 91 88 88 88 91 92 92 94 94 94 87 87 87 89 89 89 85 85 85 73 73 72 114 114 113 121 121 121 97 97 97 90 89 89 94 94 94 90 90 90 90 88 88 92 92 92 90 91 90 90 90 90 92 90 92 86 86 86 90 90 90 86 85 85 87 87 88 89 89 89 94 94 94 85 85 85 92 92 92 91 91 91 86 85 85 94 94 94 88 88 88 84 84 84 95 95 95 84 86 87 92 92 92 90 90 91 93 93 93 89 89 89 88 88 88 86 86 86 90 90 90 86 85 86 86 89 88 96 96 96 90 90 90 87 88 90 70 70 70 113 113 113 122 120 118 99 99 99 87 87 87 91 93 92 89 89 90 92 92 92 
89 89 89 88 88 88 86 86 84 89 89 89 91 91 91 95 93 93 90 90 90 87 89 90 86 87 85 87 87 85 87 87 88 88 89 87 93 92 91 87 87 88 85 88 86 86 87 87 92 91 92 70 69 70 117 117 117 120 120 120 97 95 98 94 94 93 89 89 89 86 87 86 91 91 91 90 89 90 89 89 89 93 93 92 94 92 92 94 94 94 92 92 92 89 86 88 84 84 84 86 87 87 84 84 84 92 92 92 90 89 90 89 89 89 91 91 91 88 86 86 87 87 88 89 89 89 88 88 88 91 91 91 88 88 88 93 94 92 90 90 90 95 95 95 88 88 88 87 87 87 86 86 89 93 93 93 91 90 91 89 89 89 88 88 88 95 95 95 72 73 73 112 113 113 125 125 125 93 93 93 90 90 90 92 92 91 85 86 87 91 91 91 
93 93 93 91 90 89 89 89 88 94 94 94 87 87 87 87 87 87 86 88 89 89 89 89 88 88 88 88 88 88 90 90 90 92 92 92 88 88 88 85 85 84 91 91 91 92 92 91 93 93 92 69 69 69 112 113 112 122 122 122 95 95 95 83 85 83 94 94 94 88 88 88 89 91 90 88 87 86 91 91 89 89 89 89 92 93 90 87 86 86 88 88 88 90 90 90 89 89 89 92 92 92 92 92 92 87 87 86 89 89 89 89 88 89 88 87 88 86 85 87 90 90 90 89 90 89 89 89 89 92 93 92 86 87 87 89 90 89 92 92 92 92 92 92 91 91 91 90 90 90 88 88 88 88 88 88 91 91 91 93 93 93 90 90 90 89 89 89 73 73 73 115 115 115 122 122 124 99 100 101 86 86 86 85 85 86 92 92 92 88 88 88 
72 72 72 74 74 74 74 74 74 77 78 76 76 75 75 67 67 67 71 71 71 68 67 68 75 75 75 69 69 70 69 70 70 69 69 69 75 75 75 75 75 75 74 74 74 72 72 71 72 72 72 70 70 70 116 117 117 121 120 122 94 94 94 72 70 72 76 76 76 67 67 66 73 72 72 69 69 69 70 70 70 70 70 70 78 78 78 68 67 68 69 69 69 72 72 69 70 70 70 74 72 72 72 72 72 75 75 75 72 72 71 75 75 75 69 69 69 72 73 72 72 71 72 75 75 75 73 73 73 71 72 71 74 74 74 70 71 71 70 70 70 67 67 68 70 71 70 69 71 71 68 68 68 72 72 73 72 72 72 74 74 74 76 76 75 74 74 74 71 71 71 114 114 112 121 121 121 95 95 95 73 73 74 75 75 75 73 73 73 72 72 72 
113 113 113 114 114 114 114 114 114 115 115 115 112 112 114 115 112 114 114 115 114 114 114 114 115 116 114 113 113 113 118 119 118 113 113 113 115 115 115 114 113 114 117 117 117 113 110 112 118 116 116 114 115 114 113 113 113 122 122 122 122 122 122 114 114 114 117 117 117 115 115 116 112 112 110 112 112 112 115 113 113 114 114 114 113 113 113 114 115 115 114 114 114 115 115 115 117 117 115 114 114 114 117 117 117 114 114 114 112 112 113 112 109 112 115 115 115 117 117 117 116 116 116 114 114 114 116 116 115 113 113 113 117 117 117 116 116 116 115 115 114 112 114 112 113 113 113 117 117 117 113 113 114 112 112 112 113 113 113 117 115 116 114 114 114 110 109 114 117 117 117 115 111 114 118 121 119 120 120 120 114 114 114 115 115 115 114 113 113 117 117 117 
122 122 122 121 118 119 122 122 122 122 122 122 125 125 125 124 124 124 120 120 119 121 120 120 119 119 119 124 121 123 119 119 119 123 123 121 123 123 125 121 122 123 124 124 124 123 123 123 123 123 123 120 120 120 120 122 121 120 121 120 120 120 121 122 122 121 123 123 123 123 123 123 123 123 123 120 120 120 121 121 121 121 120 122 122 122 120 121 118 118 125 124 124 123 119 123 122 122 119 120 120 120 121 121 121 122 122 122 122 122 122 121 121 121 122 122 122 124 124 124 121 125 123 124 124 124 122 122 122 121 120 119 125 125 125 121 121 121 120 120 120 124 123 123 123 123 123 121 121 121 121 121 121 121 121 121 119 121 121 121 120 121 124 124 124 125 124 124 122 122 122 124 123 124 124 124 124 123 122 122 124 124 124 121 121 121 119 119 119 122 122 122 
124 124 124 123 123 123 118 119 116 125 125 125 124 124 124 119 117 117 117 117 120 121 119 120 124 123 122 116 117 120 119 119 119 120 120 120 123 123 123 121 121 121 124 125 123 120 121 120 125 125 125 123 123 123 125 125 125 119 119 119 120 121 120 124 124 124 122 122 122 123 123 123 119 123 122 124 123 124 122 122 122 124 124 124 121 121 121 124 124 124 120 120 120 119 121 121 125 125 125 122 122 122 122 122 121 119 119 122 121 121 121 122 122 122 125 124 125 122 122 122 116 120 117 122 122 122 121 121 121 123 123 123 122 122 122 124 124 124 122 122 122 121 121 121 122 122 122 123 123 123 122 122 122 125 125 125 125 121 124 119 118 120 123 123 123 119 119 119 124 123 123 120 120 120 122 123 121 125 125 125 120 120 120 123 123 123 120 121 120 120 120 120 
122 122 120 123 123 123 121 119 121 123 122 123 120 118 117 120 120 121 125 125 124 124 124 124 124 124 124 121 121 121 122 123 122 122 121 123 123 122 122 122 122 122 122 123 120 121 121 122 119 119 120 121 121 121 124 124 124 119 118 121 124 124 124 122 122 122 125 125 125 121 121 121 120 121 120 123 123 123 118 122 120 122 122 122 123 123 123 122 122 122 122 122 122 121 122 120 125 125 125 123 123 123 119 120 120 119 121 119 124 122 122 125 123 124 123 123 123 119 120 119 124 124 124 122 122 122 123 124 122 119 118 121 124 124 124 123 123 123 123 124 123 123 124 124 125 124 124 121 121 121 122 123 123 121 121 121 124 124 124 123 123 123 119 119 120 122 123 123 120 119 119 123 123 123 122 120 122 119 119 119 121 120 121 123 120 122 119 117 120 124 123 122 
95 95 95 96 94 93 94 94 94 96 96 96 100 100 100 119 118 120 122 122 122 103 103 100 99 99 99 94 92 92 103 103 103 93 93 92 95 95 95 98 98 98 95 95 95 98 98 98 94 94 94 100 100 100 98 95 95 93 94 94 100 101 101 97 97 97 93 93 93 94 94 94 99 99 97 95 95 96 95 95 95 103 103 103 92 90 92 96 97 95 102 102 102 101 101 101 99 99 99 97 99 98 95 94 95 97 98 98 102 103 102 100 100 100 101 101 101 102 103 101 99 99 99 102 102 102 121 121 121 121 121 121 98 98 98 93 93 93 96 96 96 98 97 96 100 99 99 98 98 98 97 97 97 97 97 97 99 99 99 101 100 100 99 99 98 96 97 97 97 97 95 97 97 95 96 96 96 92 92 92 94 94 94 96 93 93 95 95 95 92 92 92 
88 88 87 90 90 90 91 91 92 93 92 90 69 69 70 117 117 117 125 125 125 96 95 95 86 87 87 93 94 95 87 87 87 88 88 88 87 87 87 87 87 87 93 93 93 90 89 89 91 91 90 89 89 89 94 94 94 87 89 88 88 88 88 91 91 91 90 90 89 91 91 91 92 92 92 85 85 86 94 94 94 91 91 90 95 95 95 89 89 89 89 89 88 87 87 87 90 90 90 91 91 91 86 87 87 92 92 92 89 89 89 94 94 94 90 90 90 89 89 89 92 92 93 72 72 72 117 117 117 124 124 124 92 95 94 92 91 91 91 91 92 91 91 91 86 86 86 90 90 90 91 91 89 89 89 90 92 93 93 91 91 91 90 90 90 90 90 90 92 91 91 92 92 90 88 89 89 89 89 89 94 94 94 96 96 96 91 91 91 91 91 89 
87 87 87 88 88 88 93 93 93 96 96 96 70 70 70 115 115 115 122 122 122 98 97 97 91 91 91 92 91 91 85 85 85 86 86 86 92 92 92 92 90 92 89 90 89 90 89 91 86 87 87 94 94 94 89 88 91 92 92 92 89 90 89 85 85 85 90 90 90 94 94 94 90 90 90 90 90 90 89 90 89 89 88 90 92 92 92 91 91 91 89 90 91 86 86 87 93 93 93 82 83 84 89 90 90 90 90 87 89 89 89 93 93 93 92 90 90 89 89 89 91 90 89 74 73 73 117 117 117 121 121 121 92 92 91 89 89 89 88 89 90 87 87 88 91 91 91 94 94 94 91 91 91 96 96 96 86 86 86 86 86 86 92 91 91 92 92 92 92 92 92 93 93 93 90 90 90 92 92 92 88 88 88 94 94 94 96 96 96 92 93 92 
89 89 88 87 87 87 88 88 88 88 88 88 70 70 70 115 115 115 121 122 120 97 97 97 85 85 85 90 90 90 91 91 91 94 93 93 84 86 84 90 90 90 92 92 92 93 93 92 90 89 90 95 95 95 89 88 89 88 88 88 88 89 89 90 90 90 92 95 93 90 89 89 93 93 93 95 94 95 86 87 86 93 92 93 92 90 91 87 87 87 90 92 90 84 84 84 88 88 88 84 85 86 90 90 90 86 86 86 90 90 91 91 90 90 90 90 89 91 91 91 94 94 94 73 74 72 113 115 114 125 125 125 102 102 102 86 86 86 89 89 87 90 88 88 84 86 83 90 90 90 91 91 90 83 84 82 88 88 88 91 91 91 93 93 93 91 91 91 90 90 88 90 89 91 92 92 92 88 89 88 84 83 85 89 89 90 89 89 89 91 91 91 
86 83 85 88 88 88 85 85 85 87 87 87 69 70 69 112 113 112 123 123 123 98 101 99 92 92 92 94 94 94 93 93 93 87 87 87 91 91 91 90 88 88 90 90 90 84 85 86 84 84 84 91 91 91 144 99 52 144 99 52 144 99 52 144 99 52 144 99 52 144 99 52 144 99 52 144 99 52 144 99 52 144 99 52 144 99 52 144 99 52 144 99 52 144 99 52 144 99 52 144 99 52 144 99 52 144 99 52 144 99 52 144 99 52 144 99 52 144 99 52 144 99 52 144 99 52 144 99 52 144 99 52 144 99 52 144 99 52 90 90 90 89 89 89 88 89 90 92 92 92 89 90 92 91 91 91 90 90 90 88 87 85 86 86 86 90 90 90 87 87 87 88 88 87 92 93 91 89 89 89 94 93 91 89 89 89 87 86 88 86 86 86 
90 90 90 85 85 85 95 94 95 84 84 84 70 72 72 114 114 114 123 123 123 95 95 95 89 89 89 89 88 88 86 86 86 89 89 89 89 87 88 92 92 92 93 93 93 91 91 91 90 90 90 88 88 88 144 99 52 130 91 49 130 91 49 130 91 49 130 91 49 130 91 49 130 91 49 130 91 49 130 91 49 130 91 49 130 91 49 130 91 49 130 91 49 130 91 49 130 91 49 130 91 49 130 91 49 130 91 49 130 91 49 130 91 49 130 91 49 130 91 49 130 91 49 130 91 49 130 91 49 130 91 49 130 91 49 144 99 52 92 92 92 88 88 88 88 88 88 91 91 91 90 90 90 93 94 93 89 89 89 88 88 88 92 92 92 90 88 89 93 93 93 92 91 91 90 90 90 94 93 93 85 87 87 91 91 91 90 90 90 85 87 85 
90 90 90 88 87 89 86 86 86 94 94 94 73 73 73 114 113 115 122 121 120 96 96 96 94 94 94 92 92 92 92 94 93 93 93 93 92 92 92 93 93 93 90 90 90 90 90 90 92 92 92 87 87 87 144 99 52 130 91 49 130 91 49 130 91 49 130 91 49 130 91 49 130 91 49 130 91 49 130 91 49 130 91 49 130 91 49 130 91 49 130 91 49 130 91 49 130 91 49 130 91 49 130 91 49 130 91 49 130 91 49 130 91 49 130 91 49 130 91 49 130 91 49 130 91 49 130 91 49 130 91 49 130 91 49 144 99 52 89 89 89 89 88 86 93 93 93 85 85 85 84 84 84 86 85 87 92 92 92 90 90 89 86 86 86 88 88 89 92 92 92 88 89 89 87 87 87 93 93 93 94 94 94 90 90 90 89 89 89 91 91 91 
92 92 92 89 90 89 86 87 86 86 86 86 68 68 68 117 117 117 123 123 123 101 102 100 87 87 87 91 90 87 91 91 91 92 92 92 88 88 87 94 94 94 92 92 92 90 90 90 95 95 96 88 90 89 144 99 52 130 91 49 130 91 49 130 91 49 130 91 49 130 91 49 130 91 49 130 91 49 130 91 49 130 91 49 130 91 49 130 91 49 130 91 49 130 91 49 130 91 49 130 91 49 130 91 49 130 91 49 130 91 49 130 91 49 130 91 49 130 91 49 130 91 49 130 91 49 130 91 49 130 91 49 130 91 49 144 99 52 84 84 84 87 87 87 88 88 88 90 90 90 94 94 93 92 92 92 88 89 89 90 90 90 87 86 85 88 88 88 89 87 88 90 91 90 84 84 84 85 87 86 88 88 88 90 90 90 89 88 89 91 91 91 
87 87 87 92 91 92 87 87 87 90 88 88 75 75 75 116 116 116 119 122 120 96 96 96 86 86 86 91 90 91 88 88 88 93 95 91 87 87 87 92 91 92 94 93 94 90 90 90 90 91 90 90 90 90 144 99 52 130 91 49 130 91 49 130 91 49 130 91 49 130 91 49 130 91 49 130 91 49 130 91 49 130 91 49 130 91 49 130 91 49 130 91 49 130 91 49 130 91 49 130 91 49 130 91 49 130 91 49 130 91 49 130 91 49 130 91 49 130 91 49 130 91 49 130 91 49 130 91 49 130 91 49 130 91 49 144 99 52 88 88 88 89 88 89 88 88 88 88 88 88 89 89 89 94 94 93 90 90 90 86 86 86 91 90 91 91 90 91 92 93 90 88 88 88 92 92 92 88 88 88 91 91 91 89 88 88 92 92 92 86 86 86 
76 76 76 73 73 73 69 68 68 69 69 69 72 72 72 116 116 116 122 122 122 97 97 97 74 74 74 77 77 77 71 71 71 70 70 70 72 72 72 71 71 71 71 70 73 68 67 68 74 73 74 68 69 69 144 99 52 130 91 49 130 91 49 130 91 49 130 91 49 130 91 49 130 91 49 130 91 49 130 91 49 130 91 49 130 91 49 130 91 49 130 91 49 130 91 49 130 91 49 130 91 49 130 91 49 130 91 49 130 91 49 130 91 49 130 91 49 130 91 49 130 91 49 130 91 49 130 91 49 130 91 49 130 91 49 144 99 52 72 72 72 73 73 73 65 64 67 72 72 71 72 71 72 74 74 74 71 71 71 76 76 76 69 69 69 71 71 71 72 72 72 72 71 71 74 74 74 76 76 76 73 72 72 74 74 74 69 71 70 75 75 75 
112 112 112 118 118 118 117 117 117 114 114 114 117 117 117 115 115 115 122 125 122 124 124 124 111 113 111 114 116 114 114 114 114 115 115 115 116 116 116 116 116 116 112 112 112 114 113 114 112 112 112 114 111 111 144 99 52 130 91 49 130 91 49 130 91 49 130 91 49 130 91 49 130 91 49 130 91 49 130 91 49 130 91 49 130 91 49 130 91 49 130 91 49 130 91 49 130 91 49 130 91 49 130 91 49 130 91 49 130 91 49 130 91 49 130 91 49 130 91 49 130 91 49 130 91 49 130 91 49 130 91 49 130 91 49 144 99 52 115 115 115 116 118 115 112 112 112 118 118 118 117 118 118 113 114 114 115 115 115 115 114 114 113 113 113 114 116 115 113 115 115 116 116 116 114 114 114 114 112 115 114 114 114 114 114 115 115 115 115 115 115 115 
122 122 122 119 119 119 122 122 121 122 122 122 120 119 120 122 122 122 119 122 120 121 120 119 121 121 122 120 120 120 123 123 123 119 120 122 120 121 122 121 121 123 120 121 121 121 121 121 120 117 116 124 123 123 144 99 52 130 91 49 130 91 49 130 91 49 130 91 49 130 91 49 130 91 49 130 91 49 130 91 49 130 91 49 130 91 49 130 91 49 130 91 49 130 91 49 130 91 49 130 91 49 130 91 49 130 91 49 130 91 49 130 91 49 130 91 49 130 91 49 130 91 49 130 91 49 130 91 49 130 91 49 130 91 49 144 99 52 123 123 123 122 122 121 122 122 122 122 122 118 121 121 123 122 122 121 120 120 120 122 121 122 119 119 119 122 122 122 122 123 123 120 120 120 122 121 119 122 122 124 121 121 121 122 122 122 124 124 124 121 121 123 
122 122 122 122 122 122 120 117 119 121 121 121 123 124 123 123 123 123 120 123 122 121 121 121 121 121 121 123 123 123 123 122 122 123 123 123 123 122 124 122 121 121 122 122 122 124 124 124 120 119 121 119 119 119 144 99 52 130 91 49 130 91 49 130 91 49 130 91 49 130 91 49 130 91 49 130 91 49 130 91 49 130 91 49 130 91 49 130 91 49 130 91 49 130 91 49 130 91 49 130 91 49 130 91 49 130 91 49 130 91 49 130 91 49 130 91 49 130 91 49 130 91 49 130 91 49 130 91 49 130 91 49 130 91 49 144 99 52 121 119 121 124 124 124 119 119 119 119 119 122 123 123 123 121 121 121 124 124 124 122 120 121 125 125 125 119 120 119 123 123 123 123 123 123 122 122 122 120 120 120 123 123 123 121 121 121 123 123 122 116 116 120 
97 97 97 99 97 99 98 98 98 97 96 95 97 97 97 94 94 94 93 93 93 95 95 95 92 94 95 97 95 96 98 98 98 97 99 97 100 98 98 101 100 100 91 92 92 94 94 94 96 96 96 100 100 100 144 99 52 130 91 49 130 91 49 130 91 49 130 91 49 130 91 49 130 91 49 130 91 49 130 91 49 130 91 49 130 91 49 130 91 49 130 91 49 130 91 49 130 91 49 130 91 49 130 91 49 130 91 49 130 91 49 130 91 49 130 91 49 130 91 49 130 91 49 130 91 49 130 91 49 130 91 49 130 91 49 144 99 52 97 97 97 101 101 101 98 98 98 93 93 94 95 94 95 99 99 99 95 94 97 92 92 91 100 100 100 98 99 99 118 117 121 120 122 122 98 98 98 100 100 100 92 92 93 100 100 100 100 100 101 91 88 91 
86 87 85 91 91 91 91 90 91 84 84 84 87 87 87 87 87 87 87 90 88 87 87 87 92 92 92 90 90 90 91 91 90 87 88 87 89 86 86 90 90 90 93 94 94 85 85 85 90 90 90 87 89 88 144 99 52 130 91 49 130 91 49 130 91 49 130 91 49 130 91 49 130 91 49 130 91 49 130 91 49 130 91 49 130 91 49 130 91 49 130 91 49 130 91 49 130 91 49 130 91 49 130 91 49 130 91 49 130 91 49 130 91 49 130 91 49 130 91 49 130 91 49 130 91 49 130 91 49 130 91 49 130 91 49 144 99 52 90 91 91 89 89 89 95 95 95 96 96 96 85 84 84 91 91 91 91 91 91 84 84 84 91 91 92 72 71 72 112 114 113 119 121 121 94 94 94 91 91 91 89 89 89 89 89 89 90 89 89 89 89 89 
90 87 89 86 86 86 94 94 94 89 89 89 83 84 84 86 86 86 91 90 90 86 89 86 89 87 88 87 87 87 95 95 94 88 88 89 95 95 95 91 92 92 94 94 94 94 94 94 88 88 88 90 90 91 144 99 52 130 91 49 130 91 49 130 91 49 130 91 49 130 91 49 130 91 49 130 91 49 130 91 49 130 91 49 130 91 49 130 91 49 130 91 49 130 91 49 130 91 49 130 91 49 130 91 49 130 91 49 130 91 49 130 91 49 130 91 49 130 91 49 130 91 49 130 91 49 130 91 49 130 91 49 130 91 49 144 99 52 92 92 92 91 91 91 89 88 90 93 91 91 84 84 84 87 87 87 96 96 96 87 87 87 90 89 89 68 68 66 112 112 112 120 120 120 94 94 96 90 90 89 93 93 93 87 87 87 91 91 91 84 84 84 
88 87 87 95 95 95 91 91 93 90 90 90 87 87 87 91 91 91 87 87 87 90 89 89 85 85 85 93 93 93 95 95 95 93 92 91 90 90 90 96 96 96 87 87 87 88 89 91 90 90 90 89 89 89 144 99 52 130 91 49 130 91 49 130 91 49 130 91 49 130 91 49 130 91 49 130 91 49 130 91 49 130 91 49 130 91 49 130 91 49 130 91 49 130 91 49 130 91 49 130 91 49 130 91 49 130 91 49 130 91 49 130 91 49 130 91 49 130 91 49 130 91 49 130 91 49 130 91 49 130 91 49 130 91 49 144 99 52 84 85 85 89 89 89 88 90 90 89 89 89 91 91 91 88 88 88 94 94 94 90 90 90 91 91 91 70 70 69 116 116 116 122 122 122 97 97 97 91 91 91 95 94 93 84 84 87 93 93 93 90 90 91 
92 91 92 86 84 83 87 88 87 85 85 84 92 92 92 88 88 89 94 95 94 92 92 92 85 85 85 94 94 94 85 85 85 87 88 87 84 84 85 89 89 89 86 88 88 90 90 90 85 86 85 90 90 90 144 99 52 130 91 49 130 91 49 130 91 49 130 91 49 130 91 49 130 91 49 130 91 49 130 91 49 130 91 49 130 91 49 130 91 49 130 91 49 130 91 49 130 91 49 130 91 49 130 91 49 130 91 49 130 91 49 130 91 49 130 91 49 130 91 49 130 91 49 130 91 49 130 91 49 130 91 49 130 91 49 144 99 52 95 95 95 93 93 93 92 92 92 92 94 91 90 90 90 92 92 92 90 90 90 91 91 88 89 89 89 77 77 76 115 118 116 122 122 122 95 95 95 91 91 92 90 90 90 86 86 86 91 88 90 89 91 89 
89 87 87 90 90 90 93 93 93 89 89 89 85 85 85 90 90 92 87 89 87 89 89 90 88 87 89 89 89 89 95 94 95 93 93 93 91 89 91 88 88 88 88 88 88 85 85 85 88 88 88 87 86 87 144 99 52 130 91 49 130 91 49 130 91 49 130 91 49 130 91 49 130 91 49 130 91 49 130 91 49 130 91 49 130 91 49 130 91 49 130 91 49 130 91 49 130 91 49 130 91 49 130 91 49 130 91 49 130 91 49 130 91 49 130 91 49 130 91 49 130 91 49 130 91 49 130 91 49 130 91 49 130 91 49 144 99 52 93 93 93 93 93 93 94 94 95 91 91 91 89 89 89 94 93 94 94 94 94 94 93 93 87 87 87 72 72 72 112 112 112 123 123 123 94 94 93 87 87 87 96 96 96 87 87 87 92 93 93 91 91 91 
93 93 93 90 90 90 92 92 92 89 89 89 92 92 92 87 87 87 87 87 87 87 87 89 91 91 91 85 86 86 95 95 95 89 89 89 89 88 87 92 92 92 89 89 88 91 91 91 88 86 85 88 88 88 144 99 52 130 91 49 130 91 49 130 91 49 130 91 49 130 91 49 130 91 49 130 91 49 130 91 49 130 91 49 130 91 49 130 91 49 130 91 49 130 91 49 130 91 49 130 91 49 130 91 49 130 91 49 130 91 49 130 91 49 130 91 49 130 91 49 130 91 49 130 91 49 130 91 49 130 91 49 130 91 49 144 99 52 88 88 85 88 88 88 91 91 91 91 91 91 91 91 91 86 86 86 89 88 87 94 94 94 89 89 89 73 73 73 114 117 115 125 125 125 96 96 96 95 95 95 94 94 95 95 95 94 90 90 90 89 89 89 
88 86 88 88 88 88 86 85 85 88 88 88 87 87 87 94 94 94 96 93 95 91 91 91 94 94 94 89 89 89 84 85 84 92 92 91 92 92 92 83 84 85 95 95 95 86 86 86 92 92 92 90 90 90 144 99 52 130 91 49 130 91 49 130 91 49 130 91 49 130 91 49 130 91 49 130 91 49 130 91 49 130 91 49 130 91 49 130 91 49 130 91 49 130 91 49 130 91 49 130 91 49 130 91 49 130 91 49 130 91 49 130 91 49 130 91 49 130 91 49 130 91 49 130 91 49 130 91 49 130 91 49 130 91 49 144 99 52 88 87 90 86 85 85 85 87 86 93 91 91 90 89 89 92 92 91 91 88 90 88 88 88 89 89 89 69 69 69 113 113 113 119 118 118 94 96 94 90 90 90 87 88 87 84 81 82 92 92 92 90 91 90 
95 95 95 95 95 95 88 89 90 91 91 91 89 89 90 86 85 83 91 91 91 87 87 87 93 93 93 91 91 91 96 96 96 87 90 89 95 94 95 89 89 89 85 85 85 95 95 95 88 88 88 85 85 87 144 99 52 130 91 49 130 91 49 130 91 49 130 91 49 130 91 49 130 91 49 130 91 49 130 91 49 130 91 49 130 91 49 130 91 49 130 91 49 130 91 49 130 91 49 130 91 49 130 91 49 130 91 49 130 91 49 130 91 49 130 91 49 130 91 49 130 91 49 130 91 49 130 91 49 130 91 49 130 91 49 144 99 52 93 92 92 90 90 90 91 89 90 89 89 90 92 92 92 87 90 88 87 90 88 89 89 89 90 90 90 72 71 72 114 114 113 122 122 122 97 97 97 90 90 90 93 90 90 91 91 91 88 85 86 89 89 89 
70 71 70 76 75 75 73 73 73 71 71 71 73 73 73 74 73 73 66 66 66 73 72 74 69 69 69 71 71 71 70 70 70 71 72 72 75 75 75 68 68 68 74 74 74 72 72 72 74 74 73 69 69 69 144 99 52 130 91 49 130 91 49 130 91 49 130 91 49 130 91 49 130 91 49 130 91 49 130 91 49 130 91 49 130 91 49 130 91 49 130 91 49 130 91 49 130 91 49 130 91 49 130 91 49 130 91 49 130 91 49 130 91 49 101 92 82 101 92 82 101 92 82 101 92 82 101 92 82 130 91 49 130 91 49 144 99 52 67 68 68 70 70 70 74 74 74 69 69 69 71 71 71 72 72 74 74 74 74 66 68 67 74 73 72 70 69 70 115 115 115 123 123 123 95 98 96 72 72 72 74 74 74 71 70 69 72 72 72 67 68 69 
117 118 118 117 117 117 116 116 116 115 113 114 114 113 115 114 114 114 114 114 114 113 114 115 114 114 114 116 115 114 114 114 114 117 117 117 114 111 111 114 116 115 118 118 118 112 110 112 115 116 114 117 117 117 144 99 52 130 91 49 130 91 49 130 91 49 130 91 49 130 91 49 130 91 49 130 91 49 130 91 49 130 91 49 130 91 49 130 91 49 130 91 49 130 91 49 130 91 49 130 91 49 130 91 49 130 91 49 130 91 49 130 91 49 101 92 82 101 92 82 101 92 82 101 92 82 101 92 82 108 75 39 130 91 49 144 99 52 116 116 116 113 113 113 116 116 116 114 114 114 115 115 115 116 118 117 114 114 114 114 113 115 112 110 111 117 116 115 113 113 113 119 119 121 123 123 121 115 115 115 118 118 118 117 117 117 114 114 114 115 115 115 
121 122 119 120 120 120 122 122 122 121 117 121 121 119 118 122 122 122 123 124 120 119 120 119 121 121 120 123 123 123 122 122 122 122 122 122 123 123 123 121 121 121 121 123 122 120 118 120 125 123 125 124 124 124 144 99 52 130 91 49 130 91 49 130 91 49 130 91 49 130 91 49 130 91 49 130 91 49 130 91 49 130 91 49 130 91 49 130 91 49 130 91 49 130 91 49 130 91 49 130 91 49 130 91 49 130 91 49 130 91 49 130 91 49 101 92 82 101 92 82 101 92 82 101 92 82 101 92 82 108 75 39 130 91 49 144 99 52 121 122 121 119 119 119 122 118 118 125 125 125 118 118 118 122 122 120 120 118 121 123 124 123 122 122 122 122 122 122 121 120 119 122 122 123 125 125 125 120 122 120 122 123 121 121 121 121 123 124 124 124 124 124 
125 123 125 122 121 122 122 120 121 119 119 119 120 117 116 122 121 119 120 120 120 121 117 121 120 120 120 121 121 121 121 121 120 120 120 120 121 122 123 124 124 124 123 123 123 125 121 124 121 121 121 122 123 122 144 99 52 130 91 49 130 91 49 130 91 49 130 91 49 130 91 49 130 91 49 130 91 49 130 91 49 130 91 49 130 91 49 130 91 49 130 91 49 130 91 49 130 91 49 130 91 49 130 91 49 130 91 49 130 91 49 130 91 49 101 92 82 101 92 82 101 92 82 101 92 82 101 92 82 108 75 39 130 91 49 144 99 52 124 124 124 122 122 122 123 123 123 123 122 124 119 122 118 120 120 120 120 120 120 122 123 123 124 124 124 125 125 125 120 121 121 121 121 121 124 124 124 122 122 122 122 123 123 123 123 121 122 122 122 124 124 124 
99 99 99 95 95 95 94 94 94 95 95 95 97 97 97 94 95 94 97 95 96 99 99 99 96 96 96 97 97 99 124 124 124 119 119 119 97 97 97 99 99 99 99 99 99 98 98 98 99 99 99 99 99 99 144 99 52 130 91 49 130 91 49 130 91 49 130 91 49 130 91 49 130 91 49 130 91 49 130 91 49 130 91 49 130 91 49 130 91 49 130 91 49 130 91 49 130 91 49 130 91 49 130 91 49 130 91 49 130 91 49 130 91 49 101 92 82 101 92 82 101 92 82 101 92 82 101 92 82 108 75 39 130 91 49 144 99 52 97 97 97 99 99 99 93 94 93 101 101 101 98 98 98 95 97 97 96 96 96 92 92 92 97 97 97 100 100 100 96 96 96 95 95 94 97 97 97 96 96 96 101 101 101 100 100 100 91 91 90 93 93 93 
93 93 93 87 87 87 90 90 90 90 90 90 91 91 91 85 86 85 90 93 93 90 90 90 85 85 85 70 70 69 116 116 116 121 121 120 97 97 97 86 86 86 85 85 85 90 90 90 92 92 92 85 85 85 144 99 52 130 91 49 130 91 49 130 91 49 130 91 49 130 91 49 130 91 49 130 91 49 130 91 49 130 91 49 130 91 49 130 91 49 130 91 49 130 91 49 130 91 49 130 91 49 130 91 49 130 91 49 130 91 49 130 91 49 130 91 49 108 75 39 108 75 39 108 75 39 108 75 39 108 75 39 130 91 49 144 99 52 89 89 88 91 91 91 93 96 93 92 92 92 89 91 91 91 92 91 85 85 86 88 88 88 89 89 89 93 93 93 92 92 91 93 93 93 86 85 89 91 91 91 90 90 90 90 91 93 88 87 86 88 88 88 
93 93 93 91 91 91 90 89 89 91 91 91 92 92 92 90 90 90 90 90 90 91 91 92 93 93 93 69 69 70 111 113 113 123 124 123 90 91 91 91 90 90 91 91 91 91 91 91 90 90 90 92 90 91 144 99 52 130 91 49 130 91 49 130 91 49 130 91 49 130 91 49 130 91 49 130 91 49 130 91 49 130 91 49 130 91 49 130 91 49 130 91 49 130 91 49 130 91 49 130 91 49 130 91 49 130 91 49 130 91 49 130 91 49 130 91 49 130 91 49 130 91 49 130 91 49 130 91 49 130 91 49 130 91 49 144 99 52 90 90 90 94 93 91 86 86 86 87 88 87 89 89 90 89 88 89 87 87 87 88 88 88 88 88 89 86 86 85 90 90 90 90 90 90 93 93 93 91 91 91 94 94 94 87 87 86 90 92 92 91 91 91 
87 89 88 95 95 95 92 95 95 95 95 95 89 89 89 91 91 92 87 87 87 90 90 88 82 83 85 74 73 73 114 114 114 124 124 124 96 98 97 87 89 87 95 96 95 88 88 88 89 90 90 89 89 89 144 99 52 130 91 49 130 91 49 130 91 49 130 91 49 130 91 49 130 91 49 130 91 49 130 91 49 130 91 49 130 91 49 130 91 49 130 91 49 130 91 49 130 91 49 130 91 49 130 91 49 130 91 49 130 91 49 130 91 49 130 91 49 130 91 49 130 91 49 130 91 49 130 91 49 130 91 49 130 91 49 144 99 52 87 87 87 95 95 95 89 91 89 91 91 90 89 89 89 90 90 90 91 90 90 88 88 88 95 95 95 86 86 86 92 92 92 88 90 88 85 85 85 89 89 89 89 91 89 89 89 89 92 94 90 89 90 90 
93 93 92 88 88 90 84 84 84 84 84 84 85 87 87 88 88 88 86 86 86 94 94 94 90 90 90 73 72 71 113 112 112 121 121 121 99 99 98 86 86 86 89 89 89 90 90 90 88 88 88 85 85 85 144 99 52 130 91 49 130 91 49 130 91 49 130 91 49 130 91 49 130 91 49 130 91 49 130 91 49 130 91 49 130 91 49 130 91 49 130 91 49 130 91 49 130 91 49 130 91 49 130 91 49 130 91 49 130 91 49 130 91 49 130 91 49 130 91 49 130 91 49 130 91 49 130 91 49 130 91 49 130 91 49 144 99 52 88 87 90 89 89 88 89 89 89 87 87 87 88 88 88 88 88 88 88 88 88 89 89 89 86 88 88 90 89 89 91 91 91 95 95 95 86 86 86 88 86 89 87 87 87 89 89 88 93 93 92 84 86 86 
93 93 93 91 91 91 83 86 85 92 93 92 92 92 93 88 87 88 87 87 87 86 86 86 85 86 86 67 67 67 114 114 115 120 119 120 98 98 98 91 92 91 91 91 92 91 91 91 86 86 86 94 94 94 144 99 52 130 91 49 130 91 49 130 91 49 130 91 49 130 91 49 130 91 49 130 91 49 130 91 49 130 91 49 130 91 49 130 91 49 130 91 49 130 91 49 130 91 49 130 91 49 130 91 49 130 91 49 130 91 49 130 91 49 130 91 49 130 91 49 130 91 49 130 91 49 130 91 49 130 91 49 130 91 49 144 99 52 92 91 92 90 91 91 94 94 94 90 91 90 92 92 92 89 90 90 89 90 90 88 90 89 83 85 84 89 90 92 90 90 90 92 92 92 89 89 89 86 85 86 89 89 89 94 94 94 93 91 89 87 87 87 
90 90 90 91 90 91 92 92 92 88 88 90 93 92 93 90 91 90 93 93 93 87 87 87 88 88 89 73 73 73 112 112 112 124 124 124 96 98 98 87 87 87 83 84 84 91 91 91 93 93 93 90 90 89 144 99 52 130 91 49 130 91 49 130 91 49 130 91 49 130 91 49 130 91 49 130 91 49 130 91 49 130 91 49 130 91 49 130 91 49 130 91 49 130 91 49 130 91 49 130 91 49 130 91 49 130 91 49 130 91 49 130 91 49 130 91 49 130 91 49 130 91 49 130 91 49 130 91 49 130 91 49 130 91 49 144 99 52 89 89 89 86 86 86 87 87 87 89 86 89 88 90 88 94 94 94 85 87 87 90 90 90 88 87 88 87 87 87 91 91 91 89 90 90 88 88 88 88 90 90 91 91 91 84 86 86 93 93 93 90 90 90 
85 86 86 91 91 91 90 91 90 89 91 91 87 87 87 84 84 84 86 85 85 86 86 86 92 91 91 72 72 72 115 114 114 122 122 122 96 96 96 86 85 85 87 87 87 86 88 88 85 85 85 92 92 92 144 99 52 130 91 49 130 91 49 130 91 49 130 91 49 130 91 49 130 91 49 130 91 49 130 91 49 130 91 49 130 91 49 130 91 49 130 91 49 130 91 49 130 91 49 130 91 49 130 91 49 130 91 49 130 91 49 130 91 49 130 91 49 130 91 49 130 91 49 130 91 49 130 91 49 130 91 49 130 91 49 144 99 52 89 89 89 94 96 95 88 88 88 92 92 92 88 85 88 91 91 90 90 90 89 90 90 90 89 89 89 93 93 93 90 90 90 86 85 85 92 92 92 90 88 90 96 96 96 86 86 86 89 90 92 88 88 88 
89 89 89 89 89 89 91 91 92 90 90 90 88 88 88 89 89 89 93 93 93 89 89 89 89 87 89 75 75 75 118 118 118 121 121 122 98 97 99 93 93 93 90 91 89 89 92 92 88 88 88 91 91 91 144 99 52 130 91 49 130 91 49 130 91 49 130 91 49 130 91 49 130 91 49 130 91 49 130 91 49 130 91 49 130 91 49 130 91 49 130 91 49 130 91 49 130 91 49 130 91 49 130 91 49 130 91 49 130 91 49 130 91 49 130 91 49 130 91 49 130 91 49 130 91 49 130 91 49 130 91 49 130 91 49 144 99 52 95 95 93 90 90 91 87 87 87 90 90 90 87 87 87 88 88 88 88 88 88 90 90 90 90 90 90 91 93 92 88 88 88 90 91 90 91 92 91 87 87 87 96 96 96 89 89 89 94 94 94 86 86 86 
71 71 71 70 70 70 69 68 68 70 70 70 71 71 71 72 72 72 75 75 75 67 67 67 77 77 77 74 75 76 113 113 114 122 122 122 95 93 94 69 70 69 74 74 74 73 73 73 76 76 76 72 72 72 144 99 52 130 91 49 130 91 49 130 91 49 130 91 49 130 91 49 130 91 49 130 91 49 130 91 49 130 91 49 130 91 49 130 91 49 130 91 49 130 91 49 130 91 49 130 91 49 130 91 49 130 91 49 130 91 49 130 91 49 130 91 49 130 91 49 130 91 49 130 91 49 130 91 49 130 91 49 130 91 49 144 99 52 73 73 74 76 76 76 72 72 72 70 72 72 71 70 70 73 73 74 73 73 73 74 74 74 76 75 75 69 68 69 71 71 71 76 76 76 72 73 72 69 69 69 72 72 72 72 72 72 73 75 73 73 73 73 
112 112 111 118 118 118 114 114 114 114 115 116 113 113 113 116 116 116 115 115 115 113 114 111 111 110 113 113 115 113 111 111 110 122 122 123 121 121 121 118 118 118 112 112 112 115 113 112 115 116 114 113 114 113 144 99 52 130 91 49 130 91 49 130 91 49 130 91 49 130 91 49 130 91 49 130 91 49 130 91 49 130 91 49 130 91 49 130 91 49 130 91 49 130 91 49 130 91 49 130 91 49 130 91 49 130 91 49 130 91 49 130 91 49 130 91 49 130 91 49 130 91 49 130 91 49 130 91 49 130 91 49 130 91 49 144 99 52 115 115 115 118 118 118 111 112 112 116 116 116 112 109 109 118 118 118 118 118 118 114 114 114 114 114 114 118 118 118 115 115 115 111 113 114 114 114 114 115 111 111 117 117 117 117 116 116 117 117 117 119 119 119 
121 119 119 123 123 123 119 119 119 121 121 121 123 122 123 120 118 120 122 122 122 124 124 124 121 121 121 121 121 121 118 118 120 124 124 124 122 122 121 122 122 122 124 122 122 117 121 122 121 121 121 124 124 124 144 99 52 130 91 49 130 91 49 130 91 49 130 91 49 130 91 49 130 91 49 130 91 49 130 91 49 130 91 49 130 91 49 130 91 49 130 91 49 130 91 49 130 91 49 130 91 49 130 91 49 130 91 49 130 91 49 130 91 49 130 91 49 130 91 49 130 91 49 130 91 49 130 91 49 130 91 49 130 91 49 144 99 52 119 119 119 121 124 122 123 123 123 124 124 124 123 122 124 123 123 123 122 122 122 119 119 119 122 120 121 121 121 121 121 121 121 125 125 125 120 120 119 118 119 118 121 121 120 124 123 123 121 122 121 121 121 121 
123 123 123 119 121 119 120 121 120 124 124 124 124 124 124 123 124 124 121 121 121 121 121 121 121 121 121 117 120 118 118 121 117 125 125 125 122 122 122 123 123 123 123 123 123 122 121 123 121 121 121 125 125 125 144 99 52 130 91 49 130 91 49 130 91 49 130 91 49 130 91 49 130 91 49 130 91 49 130 91 49 130 91 49 130 91 49 130 91 49 130 91 49 130 91 49 130 91 49 130 91 49 130 91 49 130 91 49 130 91 49 130 91 49 130 91 49 130 91 49 130 91 49 130 91 49 130 91 49 130 91 49 130 91 49 144 99 52 121 120 121 121 121 122 124 119 121 125 125 125 117 117 119 123 123 123 121 121 121 123 123 123 122 122 122 122 122 122 122 122 122 122 122 122 119 119 119 121 121 121 121 121 120 123 123 123 121 120 121 121 121 121 
121 121 121 119 119 119 121 121 121 123 123 123 121 120 121 122 122 122 123 123 123 121 117 120 122 122 122 122 124 122 125 125 125 122 122 122 122 122 122 121 121 121 124 124 124 123 123 123 122 118 122 123 123 123 144 99 52 130 91 49 130 91 49 130 91 49 130 91 49 130 91 49 130 91 49 130 91 49 130 91 49 130 91 49 130 91 49 130 91 49 130 91 49 130 91 49 130 91 49 130 91 49 130 91 49 130 91 49 130 91 49 130 91 49 130 91 49 130 91 49 130 91 49 130 91 49 130 91 49 130 91 49 130 91 49 144 99 52 119 119 119 121 121 121 122 121 122 120 120 121 121 121 120 122 122 122 121 122 123 120 120 123 120 121 121 122 122 122 123 123 123 121 121 121 124 122 122 120 120 120 122 122 122 122 120 121 123 123 123 122 122 122 
93 96 93 93 93 93 98 98 98 97 98 98 94 98 98 102 101 101 94 96 96 96 96 96 96 96 94 98 98 98 97 97 97 94 94 94 98 98 98 95 95 95 100 100 100 96 96 96 91 90 93 95 95 95 144 99 52 130 91 49 130 91 49 130 91 49 130 91 49 130 91 49 130 91 49 130 91 49 130 91 49 130 91 49 130 91 49 130 91 49 130 91 49 130 91 49 130 91 49 130 91 49 130 91 49 130 91 49 130 91 49 130 91 49 130 91 49 130 91 49 130 91 49 130 91 49 130 91 49 130 91 49 130 91 49 144 99 52 95 95 95 97 97 97 98 98 98 98 98 98 98 98 98 97 97 97 96 95 94 93 93 93 91 92 92 100 101 101 99 99 99 96 96 96 95 95 95 122 122 122 118 121 120 102 100 99 91 91 91 95 95 95 
89 89 89 88 87 87 92 92 92 91 91 91 85 88 86 88 88 88 90 90 90 93 94 93 93 93 94 89 89 89 89 89 89 85 84 85 93 93 93 93 93 93 92 91 93 87 87 87 89 88 89 96 96 96 144 99 52 130 91 49 130 91 49 130 91 49 130 91 49 130 91 49 130 91 49 130 91 49 130 91 49 130 91 49 130 91 49 130 91 49 130 91 49 130 91 49 130 91 49 130 91 49 130 91 49 130 91 49 130 91 49 130 91 49 130 91 49 130 91 49 130 91 49 130 91 49 130 91 49 130 91 49 130 91 49 144 99 52 88 88 88 88 88 88 90 89 91 88 87 87 94 93 94 95 95 95 92 92 92 88 88 90 87 87 87 88 89 89 86 87 89 88 88 88 73 73 73 114 114 114 123 124 124 101 101 101 89 89 89 88 89 90 
90 90 90 89 91 88 88 88 86 92 91 92 89 90 89 91 88 88 89 89 89 94 94 94 86 84 87 92 92 91 91 91 91 89 89 89 85 86 86 85 85 84 88 88 88 90 90 90 89 89 89 90 90 90 144 99 52 130 91 49 130 91 49 130 91 49 130 91 49 130 91 49 130 91 49 130 91 49 130 91 49 130 91 49 130 91 49 130 91 49 130 91 49 130 91 49 130 91 49 130 91 49 130 91 49 130 91 49 130 91 49 130 91 49 130 91 49 130 91 49 130 91 49 130 91 49 130 91 49 130 91 49 130 91 49 144 99 52 93 93 93 86 88 88 91 91 91 89 89 89 86 86 86 91 91 91 92 92 92 88 88 88 91 91 91 85 85 85 87 87 87 89 89 89 72 72 72 114 114 114 121 121 121 96 96 96 88 88 90 91 91 91 
89 89 89 95 95 95 87 88 87 93 93 93 92 92 92 93 93 93 88 88 88 93 93 93 92 93 93 91 90 91 88 88 88 90 90 90 93 94 93 91 91 91 90 90 90 91 91 91 89 90 90 91 91 91 144 99 52 130 91 49 130 91 49 130 91 49 130 91 49 130 91 49 130 91 49 130 91 49 130 91 49 130 91 49 130 91 49 130 91 49 130 91 49 130 91 49 130 91 49 130 91 49 130 91 49 130 91 49 130 91 49 130 91 49 130 91 49 130 91 49 130 91 49 130 91 49 130 91 49 130 91 49 130 91 49 144 99 52 91 91 91 88 89 90 89 86 88 93 93 93 90 90 91 87 87 87 89 88 87 88 87 88 88 88 88 88 89 90 88 88 88 88 88 88 67 68 68 115 114 112 122 122 122 98 98 98 90 90 90 89 89 89 
88 88 88 88 88 88 89 88 88 87 90 87 85 87 86 91 91 91 95 94 95 87 87 88 90 91 88 89 89 89 86 86 86 87 86 87 91 91 91 88 88 88 90 90 90 89 91 90 94 94 94 90 88 90 144 99 52 130 91 49 130 91 49 130 91 49 130 91 49 130 91 49 130 91 49 130 91 49 130 91 49 130 91 49 130 91 49 130 91 49 130 91 49 130 91 49 130 91 49 130 91 49 130 91 49 130 91 49 130 91 49 130 91 49 130 91 49 130 91 49 130 91 49 130 91 49 130 91 49 130 91 49 130 91 49 144 99 52 96 96 96 88 91 92 86 89 86 89 89 89 87 87 88 95 95 95 87 87 87 85 85 85 86 86 86 93 93 93 90 89 90 90 90 90 67 67 68 115 115 115 121 121 122 100 100 100 90 91 90 89 89 89 
88 88 88 94 94 94 94 93 94 91 91 91 87 87 87 88 88 88 91 91 91 91 91 91 88 88 88 87 87 87 91 91 91 88 86 88 91 93 93 91 92 90 89 89 88 90 90 90 91 91 91 94 94 94 144 99 52 130 91 49 130 91 49 130 91 49 130 91 49 130 91 49 130 91 49 130 91 49 130 91 49 130 91 49 130 91 49 130 91 49 130 91 49 130 91 49 130 91 49 130 91 49 130 91 49 130 91 49 130 91 49 130 91 49 130 91 49 130 91 49 130 91 49 130 91 49 130 91 49 130 91 49 130 91 49 144 99 52 88 88 87 88 90 90 91 90 90 93 93 92 91 91 91 94 94 94 88 88 88 89 90 90 93 93 93 86 86 86 88 88 88 88 88 88 74 75 75 116 116 116 121 120 120 98 98 98 89 89 89 85 85 85 
92 95 93 90 90 90 95 95 95 92 92 92 90 90 90 87 86 88 88 88 88 94 94 94 91 91 91 87 86 84 91 92 91 92 91 92 90 90 90 91 92 90 91 89 92 88 88 89 91 91 91 85 85 85 144 99 52 130 91 49 130 91 49 130 91 49 130 91 49 130 91 49 130 91 49 130 91 49 130 91 49 130 91 49 130 91 49 130 91 49 130 91 49 130 91 49 130 91 49 130 91 49 130 91 49 130 91 49 130 91 49 130 91 49 130 91 49 130 91 49 130 91 49 130 91 49 130 91 49 130 91 49 130 91 49 144 99 52 91 92 92 92 92 92 91 91 91 94 94 93 93 93 93 91 91 91 92 92 92 89 89 89 86 86 86 90 90 90 94 94 94 91 91 91 69 69 69 111 111 112 124 124 124 98 98 98 88 88 88 93 91 92 
93 92 92 93 94 94 90 90 90 93 93 95 87 87 87 94 95 94 87 88 89 94 94 94 95 95 95 86 86 86 90 90 90 88 88 89 91 91 91 88 88 88 89 87 88 91 91 91 88 88 89 87 87 87 144 99 52 130 91 49 130 91 49 130 91 49 130 91 49 130 91 49 130 91 49 130 91 49 130 91 49 130 91 49 130 91 49 130 91 49 130 91 49 130 91 49 130 91 49 130 91 49 130 91 49 130 91 49 130 91 49 130 91 49 130 91 49 130 91 49 130 91 49 130 91 49 130 91 49 130 91 49 130 91 49 144 99 52 93 94 93 89 89 89 95 95 95 92 92 92 89 89 89 96 96 96 85 85 85 90 88 89 89 89 89 90 90 90 94 94 94 87 87 87 75 75 75 113 115 117 122 121 123 95 95 95 91 91 91 90 90 87 
92 91 91 93 93 93 90 92 92 88 88 88 86 86 86 87 88 89 91 90 94 93 93 93 86 86 86 95 94 94 85 85 86 88 88 87 90 90 90 89 90 88 89 88 89 93 93 94 92 92 92 91 91 91 144 99 52 130 91 49 130 91 49 130 91 49 130 91 49 130 91 49 130 91 49 130 91 49 130 91 49 130 91 49 130 91 49 130 91 49 130 91 49 130 91 49 130 91 49 130 91 49 130 91 49 130 91 49 130 91 49 130 91 49 130 91 49 130 91 49 130 91 49 130 91 49 130 91 49 130 91 49 130 91 49 144 99 52 87 87 87 91 90 91 92 92 92 85 85 85 94 93 93 85 85 85 87 87 87 89 88 88 85 85 85 89 89 89 91 92 91 90 90 90 72 72 72 113 116 115 121 119 118 96 97 96 85 87 87 92 92 92 
76 76 76 74 74 74 69 72 70 67 67 67 75 75 75 74 74 74 72 72 72 74 74 74 72 72 72 70 70 70 73 75 75 73 73 74 72 72 73 73 74 74 71 71 71 72 72 72 73 74 73 68 68 68 144 99 52 130 91 49 130 91 49 130 91 49 130 91 49 130 91 49 130 91 49 130 91 49 130 91 49 130 91 49 130 91 49 130 91 49 130 91 49 130 91 49 130 91 49 130 91 49 130 91 49 130 91 49 130 91 49 130 91 49 130 91 49 130 91 49 130 91 49 130 91 49 130 91 49 130 91 49 130 91 49 144 99 52 74 74 75 72 72 72 68 68 70 72 72 72 71 71 71 69 69 67 71 71 71 72 75 74 74 74 74 70 71 71 75 75 75 75 75 75 73 73 73 115 115 115 118 118 121 93 93 93 74 72 73 76 76 76 
