P3
5 5
255
3 0 0 3 0 0 0 0 0 0 0 0 0 0 0 
0 0 0 0 0 0 3 0 0 3 0 0 0 0 0 
0 0 0 0 0 0 0 0 0 0 0 0 3 0 0 
0 0 0 0 0 0 3 0 0 3 0 0 0 0 0 
3 0 0 3 0 0 0 0 0 0 0 0 0 0 0 
