P3
# Created by GIMP version 2.10.30 PNM plug-in
64 64
255
0
0
0
0
0
0
0
0
0
0
0
0
0
0
0
0
0
0
0
0
0
0
0
0
0
0
0
0
0
0
0
0
0
0
0
0
0
0
0
0
0
0
0
0
0
0
0
0
0
0
0
0
0
0
0
0
0
0
0
0
0
38
255
0
38
255
0
38
255
0
38
255
0
38
255
0
38
255
0
38
255
0
38
255
0
38
255
0
38
255
0
38
255
0
38
255
0
38
255
0
38
255
0
38
255
0
38
255
0
38
255
0
38
255
0
38
255
0
38
255
0
38
255
0
38
255
0
38
255
0
38
255
0
0
0
0
0
0
0
0
0
0
0
0
0
0
0
0
0
0
0
0
0
0
0
0
0
0
0
0
0
0
0
0
0
0
0
0
0
0
0
0
0
0
0
0
0
0
0
0
0
0
0
0
0
0
0
0
0
0
0
0
0
0
0
0
0
0
0
0
0
0
0
0
0
0
0
0
0
0
0
0
0
0
0
0
0
0
0
0
0
0
0
0
0
0
0
0
0
0
0
0
0
0
0
0
0
0
0
0
0
0
0
0
0
0
0
38
255
0
38
255
0
38
255
0
98
255
0
98
255
0
98
255
0
98
255
0
98
255
0
98
255
0
98
255
0
98
255
0
98
255
0
98
255
0
98
255
0
98
255
0
98
255
0
98
255
0
98
255
0
98
255
0
98
255
0
98
255
0
98
255
0
98
255
0
98
255
0
98
255
0
38
255
0
38
255
0
38
255
0
0
0
0
0
0
0
0
0
0
0
0
0
0
0
0
0
0
0
0
0
0
0
0
0
0
0
0
0
0
0
0
0
0
0
0
0
0
0
0
0
0
0
0
0
0
0
0
0
0
0
0
0
0
0
0
0
0
0
0
0
0
0
0
0
0
0
0
0
0
0
0
0
0
0
0
0
0
0
0
0
0
0
0
0
0
0
0
0
0
0
0
0
0
0
0
0
0
0
0
0
0
0
38
255
0
38
255
0
38
255
0
98
255
0
98
255
0
98
255
0
98
255
0
98
255
0
98
255
0
98
255
0
98
255
0
98
255
0
98
255
0
98
255
0
98
255
0
98
255
0
98
255
0
98
255
0
98
255
0
98
255
0
98
255
0
98
255
0
98
255
0
98
255
0
98
255
0
98
255
0
98
255
0
98
255
0
98
255
0
38
255
0
38
255
0
38
255
0
0
0
0
0
0
0
0
0
0
0
0
0
0
0
0
0
0
0
0
0
0
0
0
0
0
0
0
0
0
0
0
0
0
0
0
0
0
0
0
0
0
0
0
0
0
0
0
0
0
0
0
0
0
0
0
0
0
0
0
0
0
0
0
0
0
0
0
0
0
0
0
0
0
0
0
0
0
0
0
0
0
0
0
0
0
0
0
0
0
0
0
0
0
38
255
0
38
255
0
98
255
0
98
255
0
98
255
0
98
255
0
98
255
0
98
255
0
98
255
0
98
255
0
98
255
0
98
255
0
98
255
0
98
255
0
98
255
0
98
255
0
98
255
0
98
255
0
98
255
0
98
255
0
98
255
0
98
255
0
98
255
0
98
255
0
98
255
0
98
255
0
98
255
0
98
255
0
98
255
0
98
255
0
98
255
0
98
255
0
38
255
0
38
255
0
0
0
0
0
0
0
0
0
0
0
0
0
0
0
0
0
0
0
0
0
0
0
0
0
0
0
0
0
0
0
0
0
0
0
0
0
0
0
0
0
0
0
0
0
0
0
0
0
0
0
0
0
0
0
0
0
0
0
0
0
0
0
0
0
0
0
0
0
0
0
0
0
0
0
0
0
0
0
0
0
0
0
0
0
0
0
0
38
255
0
38
255
0
98
255
0
98
255
0
98
255
0
98
255
0
98
255
0
98
255
0
98
255
0
98
255
0
98
255
0
98
255
0
98
255
0
98
255
0
98
255
0
98
255
0
98
255
0
98
255
0
98
255
0
98
255
0
98
255
0
98
255
0
98
255
0
98
255
0
98
255
0
98
255
0
98
255
0
98
255
0
98
255
0
98
255
0
98
255
0
98
255
0
98
255
0
98
255
0
38
255
0
38
255
0
0
0
0
0
0
0
0
0
0
0
0
0
0
0
0
0
0
0
0
0
0
0
0
0
0
0
0
0
0
0
0
0
0
0
0
0
0
0
0
0
0
0
0
0
0
0
0
0
0
0
0
0
0
0
0
0
0
0
0
0
0
0
0
0
0
0
0
0
0
0
0
0
0
0
0
0
0
0
0
0
0
38
255
0
38
255
0
98
255
0
98
255
0
98
255
0
98
255
0
98
255
0
98
255
0
98
255
0
98
255
255
0
255
255
0
255
255
0
255
255
0
255
255
0
255
255
0
255
255
0
255
255
0
255
255
0
255
255
0
255
255
0
255
255
0
255
255
0
255
255
0
255
255
0
255
255
0
255
255
0
255
255
0
255
0
98
255
0
98
255
0
98
255
0
98
255
0
98
255
0
98
255
0
98
255
0
98
255
0
38
255
0
38
255
0
0
0
0
0
0
0
0
0
0
0
0
0
0
0
0
0
0
0
0
0
0
0
0
0
0
0
0
0
0
0
0
0
0
0
0
0
0
0
0
0
0
0
0
0
0
0
0
0
0
0
0
0
0
0
0
0
0
0
0
0
0
0
0
0
0
0
0
0
0
0
0
0
0
0
0
38
255
0
38
255
0
98
255
0
98
255
0
98
255
0
98
255
0
98
255
0
98
255
0
98
255
255
0
255
255
0
255
255
0
255
255
0
255
255
0
255
255
0
255
255
0
255
255
0
255
255
0
255
255
0
255
255
0
255
255
0
255
255
0
255
255
0
255
255
0
255
255
0
255
255
0
255
255
0
255
255
0
255
255
0
255
255
0
255
255
0
255
0
98
255
0
98
255
0
98
255
0
98
255
0
98
255
0
98
255
0
98
255
0
38
255
0
38
255
0
0
0
0
0
0
0
0
0
0
0
0
0
0
0
0
0
0
0
0
0
0
0
0
0
0
0
0
0
0
0
0
0
0
0
0
0
0
0
0
0
0
0
0
0
0
0
0
0
0
0
0
0
0
0
0
0
0
0
0
0
0
0
0
0
0
0
0
0
0
0
0
0
38
255
0
98
255
0
98
255
0
98
255
0
98
255
0
98
255
0
98
255
0
98
255
255
0
255
255
0
255
255
0
255
255
0
255
255
0
255
255
0
255
255
0
255
255
0
255
255
0
255
255
0
255
255
0
255
255
0
255
255
0
255
255
0
255
255
0
255
255
0
255
255
0
255
255
0
255
255
0
255
255
0
255
255
0
255
255
0
255
255
0
255
255
0
255
0
98
255
0
98
255
0
98
255
0
98
255
0
98
255
0
98
255
0
98
255
0
38
255
0
0
0
0
0
0
0
0
0
0
0
0
0
0
0
0
0
0
0
0
0
0
0
0
0
0
0
0
0
0
0
0
0
0
0
0
0
0
0
0
0
0
0
0
0
0
0
0
0
0
0
0
0
0
0
0
0
0
0
0
0
0
0
0
0
0
0
0
0
0
38
255
0
38
255
0
98
255
0
98
255
0
98
255
0
98
255
0
98
255
0
98
255
255
0
255
255
0
255
255
0
255
255
0
255
255
0
255
255
0
255
255
0
255
255
0
255
255
0
255
255
0
255
255
0
255
255
0
255
255
0
255
255
0
255
255
0
255
255
0
255
255
0
255
255
0
255
255
0
255
255
0
255
255
0
255
255
0
255
255
0
255
255
0
255
255
0
255
255
0
255
0
98
255
0
98
255
0
98
255
0
98
255
0
98
255
0
98
255
0
38
255
0
38
255
0
0
0
0
0
0
0
0
0
0
0
0
0
0
0
0
0
0
0
0
0
0
0
0
0
0
0
0
0
0
0
0
0
0
0
0
0
0
0
0
0
0
0
0
0
0
0
0
0
0
0
0
0
0
0
0
0
0
0
0
0
0
0
0
0
0
0
38
255
0
98
255
0
98
255
0
98
255
0
98
255
0
98
255
0
98
255
255
0
255
255
0
255
255
0
255
255
0
255
255
0
255
255
0
255
255
0
255
255
0
255
255
0
255
255
0
255
255
0
255
255
0
255
255
0
255
255
0
255
255
0
255
255
0
255
255
0
255
255
0
255
255
0
255
255
0
255
255
0
255
255
0
255
255
0
255
255
0
255
255
0
255
255
0
255
255
0
255
255
0
255
0
98
255
0
98
255
0
98
255
0
98
255
0
98
255
0
98
255
0
38
255
0
0
0
0
0
0
0
0
0
0
0
0
0
0
0
0
0
0
0
0
0
0
0
0
0
0
0
0
0
0
0
0
0
0
0
0
0
0
0
0
0
0
0
0
0
0
0
0
0
0
0
0
0
0
0
0
0
0
0
0
0
0
0
0
38
255
0
38
255
0
98
255
0
98
255
0
98
255
0
98
255
0
98
255
255
0
255
255
0
255
255
0
255
255
0
255
255
0
255
255
0
255
255
0
255
255
0
255
255
0
255
255
0
255
255
0
255
255
0
255
255
0
255
255
0
255
255
0
255
255
0
255
255
0
255
255
0
255
255
0
255
255
0
255
255
0
255
255
0
255
255
0
255
255
0
255
255
0
255
255
0
255
255
0
255
255
0
255
255
0
255
255
0
255
0
98
255
0
98
255
0
98
255
0
98
255
0
98
255
0
38
255
0
38
255
0
0
0
0
0
0
0
0
0
0
0
0
0
0
0
0
0
0
0
0
0
0
0
0
0
0
0
0
0
0
0
0
0
0
0
0
0
0
0
0
0
0
0
0
0
0
0
0
0
0
0
0
0
0
0
0
0
0
0
0
0
38
255
0
98
255
0
98
255
0
98
255
0
98
255
0
98
255
255
0
255
255
0
255
255
0
255
255
0
255
255
0
255
255
0
255
255
0
255
255
0
255
255
0
255
255
0
255
255
0
255
255
0
255
255
0
255
255
0
255
255
0
255
255
0
255
255
0
255
255
0
255
255
0
255
255
0
255
255
0
255
255
0
255
255
0
255
255
0
255
255
0
255
255
0
255
255
0
255
255
0
255
255
0
255
255
0
255
255
0
255
255
0
255
0
98
255
0
98
255
0
98
255
0
98
255
0
98
255
0
38
255
0
0
0
0
0
0
0
0
0
0
0
0
0
0
0
0
0
0
0
0
0
0
0
0
0
0
0
0
0
0
0
0
0
0
0
0
0
0
0
0
0
0
0
0
0
0
0
0
0
0
0
0
0
0
0
0
0
0
0
0
0
38
255
0
98
255
0
98
255
0
98
255
0
98
255
0
98
255
255
0
255
255
0
255
255
0
255
255
0
255
255
0
255
255
0
255
255
0
255
255
0
255
255
0
255
255
0
255
255
0
255
255
0
255
255
0
255
255
0
255
255
0
255
255
0
255
255
0
255
255
0
255
255
0
255
255
0
255
255
0
255
255
0
255
255
0
255
255
0
255
255
0
255
255
0
255
255
0
255
255
0
255
255
0
255
255
0
255
255
0
255
255
0
255
0
98
255
0
98
255
0
98
255
0
98
255
0
98
255
0
38
255
0
0
0
0
0
0
0
0
0
0
0
0
0
0
0
0
0
0
0
0
0
0
0
0
0
0
0
0
0
0
0
0
0
0
0
0
0
0
0
0
0
0
0
0
0
0
0
0
0
0
0
0
0
0
0
0
0
0
0
0
0
38
255
0
98
255
0
98
255
0
98
255
0
98
255
255
0
255
255
0
255
255
0
255
255
0
255
255
0
255
255
0
255
255
0
255
255
0
255
255
0
255
255
0
255
255
0
255
255
0
255
255
0
255
255
0
255
255
0
255
255
0
255
255
0
255
255
0
255
255
0
255
255
0
255
255
0
255
255
0
255
255
0
255
255
0
255
255
0
255
255
0
255
255
0
255
255
0
255
255
0
255
255
0
255
255
0
255
255
0
255
255
0
255
255
0
255
0
98
255
0
98
255
0
98
255
0
98
255
0
38
255
0
0
0
0
0
0
0
0
0
0
0
0
0
0
0
0
0
0
0
0
0
0
0
0
0
0
0
0
0
0
0
0
0
0
0
0
0
0
0
0
0
0
0
0
0
0
0
0
0
0
0
0
0
0
0
0
0
0
0
0
0
38
255
0
98
255
0
98
255
0
98
255
0
98
255
255
0
255
255
0
255
255
0
255
255
0
255
255
0
255
255
0
255
255
0
255
255
0
255
255
0
255
255
0
255
255
0
255
255
0
255
255
0
255
255
0
255
255
0
255
255
0
255
255
0
255
255
0
255
255
0
255
255
0
255
255
0
255
255
0
255
255
0
255
255
0
255
255
0
255
255
0
255
255
0
255
255
0
255
255
0
255
255
0
255
255
0
255
255
0
255
255
0
255
255
0
255
0
98
255
0
98
255
0
98
255
0
98
255
0
38
255
0
0
0
0
0
0
0
0
0
0
0
0
0
0
0
0
0
0
0
0
0
0
0
0
0
0
0
0
0
0
0
0
0
0
0
0
0
0
0
0
0
0
0
0
0
0
0
0
0
0
0
0
0
0
0
0
0
0
0
0
0
38
255
0
98
255
0
98
255
0
98
255
0
98
255
255
0
255
255
0
255
255
0
255
255
0
255
255
0
255
255
0
255
255
0
255
255
0
255
255
0
255
255
0
255
255
0
255
255
0
255
255
0
255
255
0
255
255
0
255
255
0
255
255
0
255
255
0
255
255
0
255
255
0
255
255
0
255
255
0
255
255
0
255
255
0
255
255
0
255
255
0
255
255
0
255
255
0
255
255
0
255
255
0
255
255
0
255
255
0
255
255
0
255
255
0
255
0
98
255
0
98
255
0
98
255
0
98
255
0
38
255
0
0
0
0
0
0
0
0
0
0
0
0
0
0
0
0
0
0
0
0
0
0
0
0
0
0
0
0
0
0
0
0
0
0
0
0
0
0
0
0
0
0
0
0
0
0
0
0
0
0
0
0
0
0
0
0
0
0
0
0
0
38
255
0
98
255
0
98
255
0
98
255
0
98
255
255
0
255
255
0
255
255
0
255
255
0
255
255
0
255
255
0
255
255
0
255
255
0
255
255
0
255
255
0
255
255
0
255
255
0
255
255
0
255
255
0
255
255
0
255
255
0
255
255
0
255
255
0
255
255
0
255
255
0
255
255
0
255
255
0
255
255
0
255
255
0
255
255
0
255
255
0
255
255
0
255
255
0
255
255
0
255
255
0
255
255
0
255
255
0
255
255
0
255
255
0
255
0
98
255
0
98
255
0
98
255
0
98
255
0
38
255
0
0
0
0
0
0
0
0
0
0
0
0
0
0
0
0
0
0
0
0
0
0
0
0
0
0
0
0
0
0
0
0
0
0
0
0
0
0
0
0
0
0
0
0
0
0
0
0
0
0
0
0
0
0
0
0
0
0
0
0
0
38
255
0
98
255
0
98
255
0
98
255
0
98
255
255
0
255
255
0
255
255
0
255
255
0
255
255
0
255
255
0
255
255
0
255
255
0
255
255
0
255
255
0
255
255
0
255
255
0
255
255
0
255
255
0
255
255
0
255
255
0
255
255
0
255
255
0
255
255
0
255
255
0
255
255
0
255
255
0
255
255
0
255
255
0
255
255
0
255
255
0
255
255
0
255
255
0
255
255
0
255
255
0
255
255
0
255
255
0
255
255
0
255
255
0
255
0
98
255
0
98
255
0
98
255
0
98
255
0
38
255
0
0
0
0
0
0
0
0
0
0
0
0
0
0
0
0
0
0
0
0
0
0
0
0
0
0
0
0
0
0
0
0
0
0
0
0
0
0
0
0
0
0
0
0
0
0
0
0
0
0
0
0
0
0
0
0
0
0
0
0
0
38
255
0
98
255
0
98
255
0
98
255
0
98
255
255
0
255
255
0
255
255
0
255
255
0
255
255
0
255
255
0
255
255
0
255
255
0
255
255
0
255
255
0
255
255
0
255
255
0
255
255
0
255
255
0
255
255
0
255
255
0
255
255
0
255
255
0
255
255
0
255
255
0
255
255
0
255
255
0
255
255
0
255
255
0
255
255
0
255
255
0
255
255
0
255
255
0
255
255
0
255
255
0
255
255
0
255
255
0
255
255
0
255
255
0
255
0
98
255
0
98
255
0
98
255
0
98
255
0
38
255
0
0
0
0
0
0
0
0
0
0
0
0
0
0
0
0
0
0
0
0
0
0
0
0
0
0
0
0
0
0
0
0
0
0
0
0
0
0
0
0
0
0
0
0
0
0
0
0
0
0
0
0
0
0
0
0
0
0
0
0
0
38
255
0
98
255
0
98
255
0
98
255
0
98
255
255
0
255
255
0
255
255
0
255
255
0
255
255
0
255
255
0
255
255
0
255
255
0
255
255
0
255
255
0
255
255
0
255
255
0
255
255
0
255
255
0
255
255
0
255
255
0
255
255
0
255
255
0
255
255
0
255
255
0
255
255
0
255
255
0
255
255
0
255
255
0
255
255
0
255
255
0
255
255
0
255
255
0
255
255
0
255
255
0
255
255
0
255
255
0
255
255
0
255
255
0
255
0
98
255
0
98
255
0
98
255
0
98
255
0
38
255
0
0
0
0
0
0
0
0
0
0
0
0
0
0
0
0
0
0
0
0
0
0
0
0
0
0
0
0
0
0
0
0
0
0
0
0
0
0
0
0
0
0
0
0
0
0
0
0
0
0
0
0
0
0
0
0
0
0
0
0
0
38
255
0
98
255
0
98
255
0
98
255
0
98
255
255
0
255
255
0
255
255
0
255
255
0
255
255
0
255
255
0
255
255
0
255
255
0
255
255
0
255
255
0
255
255
0
255
255
0
255
255
0
255
255
0
255
255
0
255
255
0
255
255
0
255
255
0
255
255
0
255
255
0
255
255
0
255
255
0
255
255
0
255
255
0
255
255
0
255
255
0
255
255
0
255
255
0
255
255
0
255
255
0
255
255
0
255
255
0
255
255
0
255
255
0
255
0
98
255
0
98
255
0
98
255
0
98
255
0
38
255
0
0
0
0
0
0
0
0
0
0
0
0
0
0
0
0
0
0
0
0
0
0
0
0
0
0
0
0
0
0
0
0
0
0
0
0
0
0
0
0
0
0
0
0
0
0
0
0
0
0
0
0
0
0
0
0
0
0
0
0
0
38
255
0
98
255
0
98
255
0
98
255
0
98
255
255
0
255
255
0
255
255
0
255
255
0
255
255
0
255
255
0
255
255
0
255
255
0
255
255
0
255
255
0
255
255
0
255
255
0
255
255
0
255
255
0
255
255
0
255
255
0
255
255
0
255
255
0
255
255
0
255
255
0
255
255
0
255
255
0
255
255
0
255
255
0
255
255
0
255
255
0
255
255
0
255
255
0
255
255
0
255
255
0
255
255
0
255
255
0
255
255
0
255
255
0
255
0
98
255
0
98
255
0
98
255
0
98
255
0
38
255
0
0
0
0
0
0
0
0
0
0
0
0
0
0
0
0
0
0
0
0
0
0
0
0
0
0
0
0
0
0
0
0
0
0
0
0
0
0
0
0
0
0
0
0
0
0
0
0
0
0
0
0
0
0
0
0
0
0
0
0
0
38
255
0
98
255
0
98
255
0
98
255
0
98
255
255
0
255
255
0
255
255
0
255
255
0
255
255
0
255
255
0
255
255
0
255
255
0
255
255
0
255
255
0
255
255
0
255
255
0
255
255
0
255
255
0
255
255
0
255
255
0
255
255
0
255
255
0
255
255
0
255
255
0
255
255
0
255
255
0
255
255
0
255
255
0
255
255
0
255
255
0
255
255
0
255
255
0
255
255
0
255
255
0
255
255
0
255
255
0
255
255
0
255
255
0
255
0
98
255
0
98
255
0
98
255
0
98
255
0
38
255
0
0
0
0
0
0
0
0
0
0
0
0
0
0
0
0
0
0
0
0
0
0
0
0
0
0
0
0
0
0
0
0
0
0
0
0
0
0
0
0
0
0
0
0
0
0
0
0
0
0
0
0
0
0
0
0
0
0
0
0
0
38
255
0
98
255
0
98
255
0
98
255
0
98
255
255
0
255
255
0
255
255
0
255
255
0
255
255
0
255
255
0
255
255
0
255
255
0
255
255
0
255
255
0
255
255
0
255
255
0
255
255
0
255
255
0
255
255
0
255
255
0
255
255
0
255
255
0
255
255
0
255
255
0
255
255
0
255
255
0
255
255
0
255
255
0
255
255
0
255
255
0
255
255
0
255
255
0
255
255
0
255
255
0
255
255
0
255
255
0
255
255
0
255
255
0
255
0
98
255
0
98
255
0
98
255
0
98
255
0
38
255
0
0
0
0
0
0
0
0
0
0
0
0
0
0
0
0
0
0
0
0
0
0
0
0
0
0
0
0
0
0
0
0
0
0
0
0
0
0
0
0
0
0
0
0
0
0
0
0
0
0
0
0
0
0
0
0
0
0
0
0
0
38
255
0
98
255
0
98
255
0
98
255
0
98
255
255
0
255
255
0
255
255
0
255
255
0
255
255
0
255
255
0
255
255
0
255
255
0
255
255
0
255
255
0
255
255
0
255
255
0
255
255
0
255
255
0
255
255
0
255
255
0
255
255
0
255
255
0
255
255
0
255
255
0
255
255
0
255
255
0
255
255
0
255
255
0
255
255
0
255
255
0
255
255
0
255
255
0
255
255
0
255
255
0
255
255
0
255
255
0
255
255
0
255
255
0
255
0
98
255
0
98
255
0
98
255
0
98
255
0
38
255
0
0
0
0
0
0
0
0
0
0
0
0
0
0
0
0
0
0
0
0
0
0
0
0
0
0
0
0
0
0
0
0
0
0
0
0
0
0
0
0
0
0
0
0
0
0
0
0
0
0
0
0
0
0
0
0
0
0
0
0
0
38
255
0
98
255
0
98
255
0
98
255
0
98
255
255
0
255
255
0
255
255
0
255
255
0
255
255
0
255
255
0
255
255
0
255
255
0
255
255
0
255
255
0
255
255
0
255
255
0
255
255
0
255
255
0
255
255
0
255
255
0
255
255
0
255
255
0
255
255
0
255
255
0
255
255
0
255
255
0
255
255
0
255
255
0
255
255
0
255
255
0
255
255
0
255
255
0
255
255
0
255
255
0
255
255
0
255
255
0
255
255
0
255
255
0
255
0
98
255
0
98
255
0
98
255
0
98
255
0
38
255
0
0
0
0
0
0
0
0
0
0
0
0
0
0
0
0
0
0
0
0
0
0
0
0
0
0
0
0
0
0
0
0
0
0
0
0
0
0
0
0
0
0
0
0
0
0
0
0
0
0
0
0
0
0
0
0
0
0
0
0
0
38
255
0
98
255
0
98
255
0
98
255
0
98
255
255
0
255
255
0
255
255
0
255
255
0
255
255
0
255
255
0
255
255
0
255
255
0
255
255
0
255
255
0
255
255
0
255
255
0
255
255
0
255
255
0
255
255
0
255
255
0
255
255
0
255
255
0
255
255
0
255
255
0
255
255
0
255
255
0
255
255
0
255
255
0
255
255
0
255
255
0
255
255
0
255
255
0
255
255
0
255
255
0
255
255
0
255
255
0
255
255
0
255
255
0
255
0
98
255
0
98
255
0
98
255
0
98
255
0
38
255
0
0
0
0
0
0
0
0
0
0
0
0
0
0
0
0
0
0
0
0
0
0
0
0
0
0
0
0
0
0
0
0
0
0
0
0
0
0
0
0
0
0
0
0
0
0
0
0
0
0
0
0
0
0
0
0
0
0
0
0
0
38
255
0
98
255
0
98
255
0
98
255
0
98
255
255
0
255
255
0
255
255
0
255
255
0
255
255
0
255
255
0
255
255
0
255
255
0
255
255
0
255
255
0
255
255
0
255
255
0
255
255
0
255
255
0
255
255
0
255
255
0
255
255
0
255
255
0
255
255
0
255
255
0
255
255
0
255
255
0
255
255
0
255
255
0
255
255
0
255
255
0
255
255
0
255
255
0
255
255
0
255
255
0
255
255
0
255
255
0
255
255
0
255
255
0
255
0
98
255
0
98
255
0
98
255
0
98
255
0
38
255
0
0
0
0
0
0
0
0
0
0
0
0
0
0
0
0
0
0
0
0
0
0
0
0
0
0
0
0
0
0
0
0
0
0
0
0
0
0
0
0
0
0
0
0
0
0
0
0
0
0
0
0
0
0
0
0
0
0
0
0
0
38
255
0
98
255
0
98
255
0
98
255
0
98
255
255
0
255
255
0
255
255
0
255
255
0
255
255
0
255
255
0
255
255
0
255
255
0
255
255
0
255
255
0
255
255
0
255
255
0
255
255
0
255
255
0
255
255
0
255
255
0
255
255
0
255
255
0
255
255
0
255
255
0
255
255
0
255
255
0
255
255
0
255
255
0
255
255
0
255
255
0
255
255
0
255
255
0
255
255
0
255
255
0
255
255
0
255
255
0
255
255
0
255
255
0
255
0
98
255
0
98
255
0
98
255
0
98
255
0
38
255
0
0
0
0
0
0
0
0
0
0
0
0
0
0
0
0
0
0
0
0
0
0
0
0
0
0
0
0
0
0
0
0
0
0
0
0
0
0
0
0
0
0
0
0
0
0
0
0
0
0
0
0
0
0
0
0
0
0
0
0
0
38
255
0
98
255
0
98
255
0
98
255
0
98
255
255
0
255
255
0
255
255
0
255
255
0
255
255
0
255
255
0
255
255
0
255
255
0
255
255
0
255
255
0
255
255
0
255
255
0
255
255
0
255
255
0
255
255
0
255
255
0
255
255
0
255
255
0
255
255
0
255
255
0
255
255
0
255
255
0
255
255
0
255
255
0
255
255
0
255
255
0
255
255
0
255
255
0
255
255
0
255
255
0
255
255
0
255
255
0
255
255
0
255
255
0
255
0
98
255
0
98
255
0
98
255
0
98
255
0
38
255
0
0
0
0
0
0
0
0
0
0
0
0
0
0
0
0
0
0
0
0
0
0
0
0
0
0
0
0
0
0
0
0
0
0
0
0
0
0
0
0
0
0
0
0
0
0
0
0
0
0
0
0
0
0
0
0
0
0
0
0
0
38
255
0
98
255
0
98
255
0
98
255
0
98
255
255
0
255
255
0
255
255
0
255
255
0
255
255
0
255
255
0
255
255
0
255
255
0
255
255
0
255
255
0
255
255
0
255
255
0
255
255
0
255
255
0
255
255
0
255
255
0
255
255
0
255
255
0
255
255
0
255
255
0
255
255
0
255
255
0
255
255
0
255
255
0
255
255
0
255
255
0
255
255
0
255
255
0
255
255
0
255
255
0
255
255
0
255
255
0
255
255
0
255
255
0
255
0
98
255
0
98
255
0
98
255
0
98
255
0
38
255
0
0
0
0
0
0
0
0
0
0
0
0
0
0
0
0
0
0
0
0
0
0
0
0
0
0
0
0
0
0
0
0
0
0
0
0
0
0
0
0
0
0
0
0
0
0
0
0
0
0
0
0
0
0
0
0
0
0
0
0
0
38
255
0
98
255
0
98
255
0
98
255
0
98
255
255
0
255
255
0
255
255
0
255
255
0
255
255
0
255
255
0
255
255
0
255
255
0
255
255
0
255
255
0
255
255
0
255
255
0
255
255
0
255
255
0
255
255
0
255
255
0
255
255
0
255
255
0
255
255
0
255
255
0
255
255
0
255
255
0
255
255
0
255
255
0
255
255
0
255
255
0
255
255
0
255
255
0
255
255
0
255
255
0
255
255
0
255
255
0
255
255
0
255
255
0
255
0
98
255
0
98
255
0
98
255
0
98
255
0
38
255
0
0
0
0
0
0
0
0
0
0
0
0
0
0
0
0
0
0
0
0
0
0
0
0
0
0
0
0
0
0
0
0
0
0
0
0
0
0
0
0
0
0
0
0
0
0
0
0
0
0
0
0
0
0
0
0
0
0
0
0
0
38
255
0
98
255
0
98
255
0
98
255
0
98
255
255
0
255
255
0
255
255
0
255
255
0
255
255
0
255
255
0
255
255
0
255
255
0
255
255
0
255
255
0
255
255
0
255
255
0
255
255
0
255
255
0
255
255
0
255
255
0
255
255
0
255
255
0
255
255
0
255
255
0
255
255
0
255
255
0
255
255
0
255
255
0
255
255
0
255
255
0
255
255
0
255
255
0
255
255
0
255
255
0
255
255
0
255
255
0
255
255
0
255
255
0
255
0
98
255
0
98
255
0
98
255
0
98
255
0
38
255
0
0
0
0
0
0
0
0
0
0
0
0
0
0
0
0
0
0
0
0
0
0
0
0
0
0
0
0
0
0
0
0
0
0
0
0
0
0
0
0
0
0
0
0
0
0
0
0
0
0
0
0
0
0
0
0
0
0
0
0
0
38
255
0
98
255
0
98
255
0
98
255
0
98
255
255
0
255
255
0
255
255
0
255
255
0
255
255
0
255
255
0
255
255
0
255
255
0
255
255
0
255
255
0
255
255
0
255
255
0
255
255
0
255
255
0
255
255
0
255
255
0
255
255
0
255
255
0
255
255
0
255
255
0
255
255
0
255
255
0
255
255
0
255
255
0
255
255
0
255
255
0
255
255
0
255
255
0
255
255
0
255
255
0
255
255
0
255
255
0
255
255
0
255
255
0
255
0
98
255
0
98
255
0
98
255
0
98
255
0
38
255
0
0
0
0
0
0
0
0
0
0
0
0
0
0
0
0
0
0
0
0
0
0
0
0
0
0
0
0
0
0
0
0
0
0
0
0
0
0
0
0
0
0
0
0
0
0
0
0
0
0
0
0
0
0
0
0
0
0
0
0
0
38
255
0
98
255
0
98
255
0
98
255
0
98
255
255
0
255
255
0
255
255
0
255
255
0
255
255
0
255
255
0
255
255
0
255
255
0
255
255
0
255
255
0
255
255
0
255
255
0
255
255
0
255
255
0
255
255
0
255
255
0
255
255
0
255
255
0
255
255
0
255
255
0
255
255
0
255
255
0
255
255
0
255
255
0
255
255
0
255
255
0
255
255
0
255
255
0
255
255
0
255
255
0
255
255
0
255
255
0
255
255
0
255
255
0
255
0
98
255
0
98
255
0
98
255
0
98
255
0
38
255
0
0
0
0
0
0
0
0
0
0
0
0
0
0
0
0
0
0
0
0
0
0
0
0
0
0
0
0
0
0
0
0
0
0
0
0
0
0
0
0
0
0
0
0
0
0
0
0
0
0
0
0
0
0
0
0
0
0
0
0
0
38
255
0
98
255
0
98
255
0
98
255
0
98
255
255
0
255
255
0
255
255
0
255
255
0
255
255
0
255
255
0
255
255
0
255
255
0
255
255
0
255
255
0
255
255
0
255
255
0
255
255
0
255
255
0
255
255
0
255
255
0
255
255
0
255
255
0
255
255
0
255
255
0
255
255
0
255
255
0
255
255
0
255
255
0
255
255
0
255
255
0
255
255
0
255
255
0
255
255
0
255
255
0
255
255
0
255
255
0
255
255
0
255
255
0
255
0
98
255
0
98
255
0
98
255
0
98
255
0
38
255
0
0
0
0
0
0
0
0
0
0
0
0
0
0
0
0
0
0
0
0
0
0
0
0
0
0
0
0
0
0
0
0
0
0
0
0
0
0
0
0
0
0
0
0
0
0
0
0
0
0
0
0
0
0
0
0
0
0
0
0
0
38
255
0
98
255
0
98
255
0
98
255
0
98
255
255
0
255
255
0
255
255
0
255
255
0
255
255
0
255
255
0
255
255
0
255
255
0
255
255
0
255
255
0
255
255
0
255
255
0
255
255
0
255
255
0
255
255
0
255
255
0
255
255
0
255
255
0
255
255
0
255
255
0
255
255
0
255
255
0
255
255
0
255
255
0
255
255
0
255
255
0
255
255
0
255
255
0
255
255
0
255
255
0
255
255
0
255
255
0
255
255
0
255
255
0
255
0
98
255
0
98
255
0
98
255
0
98
255
0
38
255
0
0
0
0
0
0
0
0
0
0
0
0
0
0
0
0
0
0
0
0
0
0
0
0
0
0
0
0
0
0
0
0
0
0
0
0
0
0
0
0
0
0
0
0
0
0
0
0
0
0
0
0
0
0
0
0
0
0
0
0
0
38
255
0
98
255
0
98
255
0
98
255
0
98
255
255
0
255
255
0
255
255
0
255
255
0
255
255
0
255
255
0
255
255
0
255
255
0
255
255
0
255
255
0
255
255
0
255
255
0
255
255
0
255
255
0
255
255
0
255
255
0
255
255
0
255
255
0
255
255
0
255
255
0
255
255
0
255
255
0
255
255
0
255
255
0
255
255
0
255
255
0
255
255
0
255
255
0
255
255
0
255
255
0
255
255
0
255
255
0
255
255
0
255
255
0
255
0
98
255
0
98
255
0
98
255
0
98
255
0
38
255
0
0
0
0
0
0
0
0
0
0
0
0
0
0
0
0
0
0
0
0
0
0
0
0
0
0
0
0
0
0
0
0
0
0
0
0
0
0
0
0
0
0
0
0
0
0
0
0
0
0
0
0
0
0
0
0
0
0
0
0
0
38
255
0
98
255
0
98
255
0
98
255
0
98
255
255
0
255
255
0
255
255
0
255
255
0
255
255
0
255
255
0
255
255
0
255
255
0
255
255
0
255
255
0
255
255
0
255
255
0
255
255
0
255
255
0
255
255
0
255
255
0
255
255
0
255
255
0
255
255
0
255
255
0
255
255
0
255
255
0
255
255
0
255
255
0
255
255
0
255
255
0
255
255
0
255
255
0
255
255
0
255
255
0
255
255
0
255
255
0
255
255
0
255
255
0
255
0
98
255
0
98
255
0
98
255
0
98
255
0
38
255
0
0
0
0
0
0
0
0
0
0
0
0
0
0
0
0
0
0
0
0
0
0
0
0
0
0
0
0
0
0
0
0
0
0
0
0
0
0
0
0
0
0
0
0
0
0
0
0
0
0
0
0
0
0
0
0
0
0
0
0
0
38
255
0
98
255
0
98
255
0
98
255
0
98
255
255
0
255
255
0
255
255
0
255
255
0
255
255
0
255
255
0
255
255
0
255
255
0
255
255
0
255
255
0
255
255
0
255
255
0
255
255
0
255
255
0
255
255
0
255
255
0
255
255
0
255
255
0
255
255
0
255
255
0
255
255
0
255
255
0
255
255
0
255
255
0
255
255
0
255
255
0
255
255
0
255
255
0
255
255
0
255
255
0
255
255
0
255
255
0
255
255
0
255
255
0
255
0
98
255
0
98
255
0
98
255
0
98
255
0
38
255
0
0
0
0
0
0
0
0
0
0
0
0
0
0
0
0
0
0
0
0
0
0
0
0
0
0
0
0
0
0
0
0
0
0
0
0
0
0
0
0
0
0
0
0
0
0
0
0
0
0
0
0
0
0
0
0
0
0
0
0
0
38
255
0
98
255
0
98
255
0
98
255
0
98
255
255
0
255
255
0
255
255
0
255
255
0
255
255
0
255
255
0
255
255
0
255
255
0
255
255
0
255
255
0
255
255
0
255
255
0
255
255
0
255
255
0
255
255
0
255
255
0
255
255
0
255
255
0
255
255
0
255
255
0
255
255
0
255
255
0
255
255
0
255
255
0
255
255
0
255
255
0
255
255
0
255
255
0
255
255
0
255
255
0
255
255
0
255
255
0
255
255
0
255
255
0
255
0
98
255
0
98
255
0
98
255
0
98
255
0
38
255
0
0
0
0
0
0
0
0
0
0
0
0
0
0
0
0
0
0
0
0
0
0
0
0
0
0
0
0
0
0
0
0
0
0
0
0
0
0
0
0
0
0
0
0
0
0
0
0
0
0
0
0
0
0
0
0
0
0
0
0
0
38
255
0
98
255
0
98
255
0
98
255
0
98
255
255
0
255
255
0
255
255
0
255
255
0
255
255
0
255
255
0
255
255
0
255
255
0
255
255
0
255
255
0
255
255
0
255
255
0
255
255
0
255
255
0
255
255
0
255
255
0
255
255
0
255
255
0
255
255
0
255
255
0
255
255
0
255
255
0
255
255
0
255
255
0
255
255
0
255
255
0
255
255
0
255
255
0
255
255
0
255
255
0
255
255
0
255
255
0
255
255
0
255
255
0
255
0
98
255
0
98
255
0
98
255
0
98
255
0
38
255
0
0
0
0
0
0
0
0
0
0
0
0
0
0
0
0
0
0
0
0
0
0
0
0
0
0
0
0
0
0
0
0
0
0
0
0
0
0
0
0
0
0
0
0
0
0
0
0
0
0
0
0
0
0
0
0
0
0
0
0
0
38
255
0
98
255
0
98
255
0
98
255
0
98
255
255
0
255
255
0
255
255
0
255
255
0
255
255
0
255
255
0
255
255
0
255
255
0
255
255
0
255
255
0
255
255
0
255
255
0
255
255
0
255
255
0
255
255
0
255
255
0
255
255
0
255
255
0
255
255
0
255
255
0
255
255
0
255
255
0
255
255
0
255
255
0
255
255
0
255
255
0
255
255
0
255
255
0
255
255
0
255
255
0
255
255
0
255
255
0
255
255
0
255
255
0
255
0
98
255
0
98
255
0
98
255
0
98
255
0
38
255
0
0
0
0
0
0
0
0
0
0
0
0
0
0
0
0
0
0
0
0
0
0
0
0
0
0
0
0
0
0
0
0
0
0
0
0
0
0
0
0
0
0
0
0
0
0
0
0
0
0
0
0
0
0
0
0
0
0
0
0
0
38
255
0
98
255
0
98
255
0
98
255
0
98
255
255
0
255
255
0
255
255
0
255
255
0
255
255
0
255
255
0
255
255
0
255
255
0
255
255
0
255
255
0
255
255
0
255
255
0
255
255
0
255
255
0
255
255
0
255
255
0
255
255
0
255
255
0
255
255
0
255
255
0
255
255
0
255
255
0
255
255
0
255
255
0
255
255
0
255
255
0
255
255
0
255
255
0
255
255
0
255
255
0
255
255
0
255
255
0
255
255
0
255
255
0
255
0
98
255
0
98
255
0
98
255
0
98
255
0
38
255
0
0
0
0
0
0
0
0
0
0
0
0
0
0
0
0
0
0
0
0
0
0
0
0
0
0
0
0
0
0
0
0
0
0
0
0
0
0
0
0
0
0
0
0
0
0
0
0
0
0
0
0
0
0
0
0
0
0
0
0
0
38
255
0
98
255
0
98
255
0
98
255
0
98
255
255
0
255
255
0
255
255
0
255
255
0
255
255
0
255
255
0
255
255
0
255
255
0
255
255
0
255
255
0
255
255
0
255
255
0
255
255
0
255
255
0
255
255
0
255
255
0
255
255
0
255
255
0
255
255
0
255
255
0
255
255
0
255
255
0
255
255
0
255
255
0
255
255
0
255
255
0
255
255
0
255
255
0
255
255
0
255
255
0
255
255
0
255
255
0
255
255
0
255
255
0
255
0
98
255
0
98
255
0
98
255
0
98
255
0
38
255
0
0
0
0
0
0
0
0
0
0
0
0
0
0
0
0
0
0
0
0
0
0
0
0
0
0
0
0
0
0
0
0
0
0
0
0
0
0
0
0
0
0
0
0
0
0
0
0
0
0
0
0
0
0
0
0
0
0
0
0
0
38
255
0
98
255
0
98
255
0
98
255
0
98
255
255
0
255
255
0
255
255
0
255
255
0
255
255
0
255
255
0
255
255
0
255
255
0
255
255
0
255
255
0
255
255
0
255
255
0
255
255
0
255
255
0
255
255
0
255
255
0
255
255
0
255
255
0
255
255
0
255
255
0
255
255
0
255
255
0
255
255
0
255
255
0
255
255
0
255
255
0
255
255
0
255
255
0
255
255
0
255
255
0
255
255
0
255
255
0
255
255
0
255
255
0
255
0
98
255
0
98
255
0
98
255
0
98
255
0
38
255
0
0
0
0
0
0
0
0
0
0
0
0
0
0
0
0
0
0
0
0
0
0
0
0
0
0
0
0
0
0
0
0
0
0
0
0
0
0
0
0
0
0
0
0
0
0
0
0
0
0
0
0
0
0
0
0
0
0
0
0
0
38
255
0
98
255
0
98
255
0
98
255
0
98
255
255
0
255
255
0
255
255
0
255
255
0
255
255
0
255
255
0
255
255
0
255
255
0
255
255
0
255
255
0
255
255
0
255
255
0
255
255
0
255
255
0
255
255
0
255
255
0
255
255
0
255
255
0
255
255
0
255
255
0
255
255
0
255
255
0
255
255
0
255
255
0
255
255
0
255
255
0
255
255
0
255
255
0
255
255
0
255
255
0
255
255
0
255
255
0
255
255
0
255
255
0
255
0
98
255
0
98
255
0
98
255
0
98
255
0
38
255
0
0
0
0
0
0
0
0
0
0
0
0
0
0
0
0
0
0
0
0
0
0
0
0
0
0
0
0
0
0
0
0
0
0
0
0
0
0
0
0
0
0
0
0
0
0
0
0
0
0
0
0
0
0
0
0
0
0
0
0
0
38
255
0
98
255
0
98
255
0
98
255
0
98
255
255
0
255
255
0
255
255
0
255
255
0
255
255
0
255
255
0
255
255
0
255
255
0
255
255
0
255
255
0
255
255
0
255
255
0
255
255
0
255
255
0
255
255
0
255
255
0
255
255
0
255
255
0
255
255
0
255
255
0
255
255
0
255
255
0
255
255
0
255
255
0
255
255
0
255
255
0
255
255
0
255
255
0
255
255
0
255
255
0
255
255
0
255
255
0
255
255
0
255
255
0
255
0
98
255
0
98
255
0
98
255
0
98
255
0
38
255
0
0
0
0
0
0
0
0
0
0
0
0
0
0
0
0
0
0
0
0
0
0
0
0
0
0
0
0
0
0
0
0
0
0
0
0
0
0
0
0
0
0
0
0
0
0
0
0
0
0
0
0
0
0
0
0
0
0
0
0
0
38
255
0
98
255
0
98
255
0
98
255
0
98
255
255
0
255
255
0
255
255
0
255
255
0
255
255
0
255
255
0
255
255
0
255
255
0
255
255
0
255
255
0
255
255
0
255
255
0
255
255
0
255
255
0
255
255
0
255
255
0
255
255
0
255
255
0
255
255
0
255
255
0
255
255
0
255
255
0
255
255
0
255
255
0
255
255
0
255
255
0
255
255
0
255
255
0
255
255
0
255
255
0
255
255
0
255
255
0
255
255
0
255
255
0
255
0
98
255
0
98
255
0
98
255
0
98
255
0
38
255
0
0
0
0
0
0
0
0
0
0
0
0
0
0
0
0
0
0
0
0
0
0
0
0
0
0
0
0
0
0
0
0
0
0
0
0
0
0
0
0
0
0
0
0
0
0
0
0
0
0
0
0
0
0
0
0
0
0
0
0
0
38
255
0
98
255
0
98
255
0
98
255
0
98
255
255
0
255
255
0
255
255
0
255
255
0
255
255
0
255
255
0
255
255
0
255
255
0
255
255
0
255
255
0
255
255
0
255
255
0
255
255
0
255
255
0
255
255
0
255
255
0
255
255
0
255
255
0
255
255
0
255
255
0
255
255
0
255
255
0
255
255
0
255
255
0
255
255
0
255
255
0
255
255
0
255
255
0
255
255
0
255
255
0
255
255
0
255
255
0
255
255
0
255
255
0
255
0
98
255
0
98
255
0
98
255
0
98
255
0
38
255
0
0
0
0
0
0
0
0
0
0
0
0
0
0
0
0
0
0
0
0
0
0
0
0
0
0
0
0
0
0
0
0
0
0
0
0
0
0
0
0
0
0
0
0
0
0
0
0
0
0
0
0
0
0
0
0
0
0
0
0
0
38
255
0
98
255
0
98
255
0
98
255
0
98
255
255
0
255
255
0
255
255
0
255
255
0
255
255
0
255
255
0
255
255
0
255
255
0
255
255
0
255
255
0
255
255
0
255
255
0
255
255
0
255
255
0
255
255
0
255
255
0
255
255
0
255
255
0
255
255
0
255
255
0
255
255
0
255
255
0
255
255
0
255
255
0
255
255
0
255
255
0
255
255
0
255
255
0
255
255
0
255
255
0
255
255
0
255
255
0
255
255
0
255
255
0
255
0
98
255
0
98
255
0
98
255
0
98
255
0
38
255
0
0
0
0
0
0
0
0
0
0
0
0
0
0
0
0
0
0
0
0
0
0
0
0
0
0
0
0
0
0
0
0
0
0
0
0
0
0
0
0
0
0
0
0
0
0
0
0
0
0
0
0
0
0
0
0
0
0
0
0
0
38
255
0
98
255
0
98
255
0
98
255
0
98
255
0
98
255
255
0
255
255
0
255
255
0
255
255
0
255
255
0
255
255
0
255
255
0
255
255
0
255
255
0
255
255
0
255
255
0
255
255
0
255
255
0
255
255
0
255
255
0
255
255
0
255
255
0
255
255
0
255
255
0
255
255
0
255
255
0
255
255
0
255
255
0
255
255
0
255
255
0
255
255
0
255
255
0
255
255
0
255
255
0
255
255
0
255
255
0
255
255
0
255
0
98
255
0
98
255
0
98
255
0
98
255
0
98
255
0
38
255
0
0
0
0
0
0
0
0
0
0
0
0
0
0
0
0
0
0
0
0
0
0
0
0
0
0
0
0
0
0
0
0
0
0
0
0
0
0
0
0
0
0
0
0
0
0
0
0
0
0
0
0
0
0
0
0
0
0
0
0
0
38
255
0
98
255
0
98
255
0
98
255
0
98
255
0
98
255
255
0
255
255
0
255
255
0
255
255
0
255
255
0
255
255
0
255
255
0
255
255
0
255
255
0
255
255
0
255
255
0
255
255
0
255
255
0
255
255
0
255
255
0
255
255
0
255
255
0
255
255
0
255
255
0
255
255
0
255
255
0
255
255
0
255
255
0
255
255
0
255
255
0
255
255
0
255
255
0
255
255
0
255
255
0
255
255
0
255
255
0
255
255
0
255
0
98
255
0
98
255
0
98
255
0
98
255
0
98
255
0
38
255
0
0
0
0
0
0
0
0
0
0
0
0
0
0
0
0
0
0
0
0
0
0
0
0
0
0
0
0
0
0
0
0
0
0
0
0
0
0
0
0
0
0
0
0
0
0
0
0
0
0
0
0
0
0
0
0
0
0
0
0
0
38
255
0
38
255
0
98
255
0
98
255
0
98
255
0
98
255
0
98
255
255
0
255
255
0
255
255
0
255
255
0
255
255
0
255
255
0
255
255
0
255
255
0
255
255
0
255
255
0
255
255
0
255
255
0
255
255
0
255
255
0
255
255
0
255
255
0
255
255
0
255
255
0
255
255
0
255
255
0
255
255
0
255
255
0
255
255
0
255
255
0
255
255
0
255
255
0
255
255
0
255
255
0
255
255
0
255
255
0
255
0
98
255
0
98
255
0
98
255
0
98
255
0
98
255
0
38
255
0
38
255
0
0
0
0
0
0
0
0
0
0
0
0
0
0
0
0
0
0
0
0
0
0
0
0
0
0
0
0
0
0
0
0
0
0
0
0
0
0
0
0
0
0
0
0
0
0
0
0
0
0
0
0
0
0
0
0
0
0
0
0
0
0
0
0
38
255
0
98
255
0
98
255
0
98
255
0
98
255
0
98
255
0
98
255
255
0
255
255
0
255
255
0
255
255
0
255
255
0
255
255
0
255
255
0
255
255
0
255
255
0
255
255
0
255
255
0
255
255
0
255
255
0
255
255
0
255
255
0
255
255
0
255
255
0
255
255
0
255
255
0
255
255
0
255
255
0
255
255
0
255
255
0
255
255
0
255
255
0
255
255
0
255
255
0
255
255
0
255
0
98
255
0
98
255
0
98
255
0
98
255
0
98
255
0
98
255
0
38
255
0
0
0
0
0
0
0
0
0
0
0
0
0
0
0
0
0
0
0
0
0
0
0
0
0
0
0
0
0
0
0
0
0
0
0
0
0
0
0
0
0
0
0
0
0
0
0
0
0
0
0
0
0
0
0
0
0
0
0
0
0
0
0
0
0
0
0
38
255
0
38
255
0
98
255
0
98
255
0
98
255
0
98
255
0
98
255
0
98
255
255
0
255
255
0
255
255
0
255
255
0
255
255
0
255
255
0
255
255
0
255
255
0
255
255
0
255
255
0
255
255
0
255
255
0
255
255
0
255
255
0
255
255
0
255
255
0
255
255
0
255
255
0
255
255
0
255
255
0
255
255
0
255
255
0
255
255
0
255
255
0
255
255
0
255
255
0
255
0
98
255
0
98
255
0
98
255
0
98
255
0
98
255
0
98
255
0
38
255
0
38
255
0
0
0
0
0
0
0
0
0
0
0
0
0
0
0
0
0
0
0
0
0
0
0
0
0
0
0
0
0
0
0
0
0
0
0
0
0
0
0
0
0
0
0
0
0
0
0
0
0
0
0
0
0
0
0
0
0
0
0
0
0
0
0
0
0
0
0
0
0
0
38
255
0
98
255
0
98
255
0
98
255
0
98
255
0
98
255
0
98
255
0
98
255
255
0
255
255
0
255
255
0
255
255
0
255
255
0
255
255
0
255
255
0
255
255
0
255
255
0
255
255
0
255
255
0
255
255
0
255
255
0
255
255
0
255
255
0
255
255
0
255
255
0
255
255
0
255
255
0
255
255
0
255
255
0
255
255
0
255
255
0
255
255
0
255
0
98
255
0
98
255
0
98
255
0
98
255
0
98
255
0
98
255
0
98
255
0
38
255
0
0
0
0
0
0
0
0
0
0
0
0
0
0
0
0
0
0
0
0
0
0
0
0
0
0
0
0
0
0
0
0
0
0
0
0
0
0
0
0
0
0
0
0
0
0
0
0
0
0
0
0
0
0
0
0
0
0
0
0
0
0
0
0
0
0
0
0
0
0
0
0
0
38
255
0
38
255
0
98
255
0
98
255
0
98
255
0
98
255
0
98
255
0
98
255
0
98
255
255
0
255
255
0
255
255
0
255
255
0
255
255
0
255
255
0
255
255
0
255
255
0
255
255
0
255
255
0
255
255
0
255
255
0
255
255
0
255
255
0
255
255
0
255
255
0
255
255
0
255
255
0
255
255
0
255
255
0
255
255
0
255
255
0
255
0
98
255
0
98
255
0
98
255
0
98
255
0
98
255
0
98
255
0
98
255
0
38
255
0
38
255
0
0
0
0
0
0
0
0
0
0
0
0
0
0
0
0
0
0
0
0
0
0
0
0
0
0
0
0
0
0
0
0
0
0
0
0
0
0
0
0
0
0
0
0
0
0
0
0
0
0
0
0
0
0
0
0
0
0
0
0
0
0
0
0
0
0
0
0
0
0
0
0
0
0
0
0
38
255
0
38
255
0
98
255
0
98
255
0
98
255
0
98
255
0
98
255
0
98
255
0
98
255
0
98
255
255
0
255
255
0
255
255
0
255
255
0
255
255
0
255
255
0
255
255
0
255
255
0
255
255
0
255
255
0
255
255
0
255
255
0
255
255
0
255
255
0
255
255
0
255
255
0
255
255
0
255
255
0
255
0
98
255
0
98
255
0
98
255
0
98
255
0
98
255
0
98
255
0
98
255
0
98
255
0
38
255
0
38
255
0
0
0
0
0
0
0
0
0
0
0
0
0
0
0
0
0
0
0
0
0
0
0
0
0
0
0
0
0
0
0
0
0
0
0
0
0
0
0
0
0
0
0
0
0
0
0
0
0
0
0
0
0
0
0
0
0
0
0
0
0
0
0
0
0
0
0
0
0
0
0
0
0
0
0
0
0
0
0
0
0
0
38
255
0
38
255
0
98
255
0
98
255
0
98
255
0
98
255
0
98
255
0
98
255
0
98
255
0
98
255
0
98
255
0
98
255
0
98
255
0
98
255
0
98
255
0
98
255
0
98
255
0
98
255
0
98
255
0
98
255
0
98
255
0
98
255
0
98
255
0
98
255
0
98
255
0
98
255
0
98
255
0
98
255
0
98
255
0
98
255
0
98
255
0
98
255
0
98
255
0
98
255
0
38
255
0
38
255
0
0
0
0
0
0
0
0
0
0
0
0
0
0
0
0
0
0
0
0
0
0
0
0
0
0
0
0
0
0
0
0
0
0
0
0
0
0
0
0
0
0
0
0
0
0
0
0
0
0
0
0
0
0
0
0
0
0
0
0
0
0
0
0
0
0
0
0
0
0
0
0
0
0
0
0
0
0
0
0
0
0
0
0
0
0
0
0
38
255
0
38
255
0
98
255
0
98
255
0
98
255
0
98
255
0
98
255
0
98
255
0
98
255
0
98
255
0
98
255
0
98
255
0
98
255
0
98
255
0
98
255
0
98
255
0
98
255
0
98
255
0
98
255
0
98
255
0
98
255
0
98
255
0
98
255
0
98
255
0
98
255
0
98
255
0
98
255
0
98
255
0
98
255
0
98
255
0
98
255
0
98
255
0
38
255
0
38
255
0
0
0
0
0
0
0
0
0
0
0
0
0
0
0
0
0
0
0
0
0
0
0
0
0
0
0
0
0
0
0
0
0
0
0
0
0
0
0
0
0
0
0
0
0
0
0
0
0
0
0
0
0
0
0
0
0
0
0
0
0
0
0
0
0
0
0
0
0
0
0
0
0
0
0
0
0
0
0
0
0
0
0
0
0
0
0
0
0
0
0
0
0
0
38
255
0
38
255
0
38
255
0
98
255
0
98
255
0
98
255
0
98
255
0
98
255
0
98
255
0
98
255
0
98
255
0
98
255
0
98
255
0
98
255
0
98
255
0
98
255
0
98
255
0
98
255
0
98
255
0
98
255
0
98
255
0
98
255
0
98
255
0
98
255
0
98
255
0
98
255
0
98
255
0
98
255
0
98
255
0
38
255
0
38
255
0
38
255
0
0
0
0
0
0
0
0
0
0
0
0
0
0
0
0
0
0
0
0
0
0
0
0
0
0
0
0
0
0
0
0
0
0
0
0
0
0
0
0
0
0
0
0
0
0
0
0
0
0
0
0
0
0
0
0
0
0
0
0
0
0
0
0
0
0
0
0
0
0
0
0
0
0
0
0
0
0
0
0
0
0
0
0
0
0
0
0
0
0
0
0
0
0
0
0
0
0
0
0
0
0
0
38
255
0
38
255
0
38
255
0
98
255
0
98
255
0
98
255
0
98
255
0
98
255
0
98
255
0
98
255
0
98
255
0
98
255
0
98
255
0
98
255
0
98
255
0
98
255
0
98
255
0
98
255
0
98
255
0
98
255
0
98
255
0
98
255
0
98
255
0
98
255
0
98
255
0
38
255
0
38
255
0
38
255
0
0
0
0
0
0
0
0
0
0
0
0
0
0
0
0
0
0
0
0
0
0
0
0
0
0
0
0
0
0
0
0
0
0
0
0
0
0
0
0
0
0
0
0
0
0
0
0
0
0
0
0
0
0
0
0
0
0
0
0
0
0
0
0
0
0
0
0
0
0
0
0
0
0
0
0
0
0
0
0
0
0
0
0
0
0
0
0
0
0
0
0
0
0
0
0
0
0
0
0
0
0
0
0
0
0
0
0
0
0
0
0
0
0
0
38
255
0
38
255
0
38
255
0
38
255
0
38
255
0
38
255
0
38
255
0
38
255
0
38
255
0
38
255
0
38
255
0
38
255
0
38
255
0
38
255
0
38
255
0
38
255
0
38
255
0
38
255
0
38
255
0
38
255
0
38
255
0
38
255
0
38
255
0
38
255
0
0
0
0
0
0
0
0
0
0
0
0
0
0
0
0
0
0
0
0
0
0
0
0
0
0
0
0
0
0
0
0
0
0
0
0
0
0
0
0
0
0
0
0
0
0
0
0
0
0
0
0
0
0
0
0
0
0
0
0
