P3
# Created by GIMP version 2.10.30 PNM plug-in
#
64 64
255
60 113 32 105 143 83 132 181 109 70 129 48 77 146 51 96 165 58 92 162 58 114 185 82 123 182 90 151 198 113 80 124 42 69 117 35 83 139 54 83 133 60 103 152 77 86 136 59 69 113 49 55 99 36 99 146 76 111 159 84 116 165 90 114 171 85 108 171 74 100 163 63 88 151 48 85 144 48 112 165 78 119 169 96 114 160 97 128 176 97 112 162 78 103 155 72 58 98 35 62 102 47 52 89 41 50 97 30 53 106 26 105 166 69 122 182 88 138 196 104 84 137 53 100 149 72 124 174 96 87 138 58 88 143 58 125 192 91 80 141 50 93 145 61 87 132 57 80 125 53 48 95 23 69 126 44 93 156 68 56 103 37 73 123 50 116 171 87 93 153 61 88 149 56 100 164 66 80 142 51 134 200 100 149 224 114 119 187 87 145 198 117 
78 130 53 50 86 30 144 190 119 74 130 49 98 164 68 90 157 49 69 139 34 100 168 69 83 144 51 90 137 54 75 119 35 63 114 27 89 148 58 66 124 42 64 121 42 90 144 69 123 179 99 108 163 83 102 153 78 84 133 64 130 180 111 96 145 72 126 183 93 138 199 99 136 199 97 76 137 39 47 103 18 79 129 60 125 173 107 139 183 105 103 147 71 74 116 48 112 143 92 83 118 66 37 77 28 58 106 42 89 145 62 85 141 58 72 127 45 90 147 58 120 174 88 70 119 44 67 115 41 83 129 58 46 91 25 129 190 96 119 175 88 79 119 54 64 103 40 48 85 25 79 121 58 128 182 100 78 138 50 55 104 31 73 119 50 147 203 116 69 131 36 92 156 56 100 163 63 48 100 23 64 120 38 133 209 94 136 205 101 104 156 77 
85 134 61 57 95 33 114 158 86 105 156 76 175 228 141 123 186 83 100 167 63 96 165 66 78 137 49 66 116 32 73 120 39 86 143 53 122 189 89 98 164 69 86 148 63 57 116 39 99 156 77 80 134 54 41 94 18 32 81 14 54 100 41 48 89 27 99 147 69 106 161 71 107 169 72 94 156 65 74 132 53 60 115 39 87 136 65 89 132 59 84 124 55 71 109 48 156 195 132 71 118 48 37 88 20 50 107 27 78 141 43 64 120 39 49 103 27 98 156 69 94 147 66 43 90 23 28 69 10 73 113 52 65 100 50 129 183 98 94 151 61 54 108 27 63 113 38 75 121 55 120 166 95 106 154 79 78 125 53 51 93 30 137 187 107 90 145 59 71 134 34 91 152 56 62 120 28 73 120 44 89 134 60 125 192 86 114 176 80 132 186 99 
61 114 29 78 126 47 74 118 40 83 123 50 177 218 138 73 128 37 90 155 54 90 156 62 105 168 77 58 110 32 77 133 42 77 144 41 98 171 65 114 176 80 56 113 30 86 139 64 64 114 38 91 140 56 57 98 30 31 72 12 28 66 13 41 72 20 79 120 48 87 140 52 66 129 36 100 165 81 93 154 76 77 132 53 114 165 82 91 137 64 69 113 45 94 140 71 139 194 113 109 173 76 94 155 63 122 183 91 91 155 56 62 119 36 90 146 66 75 130 50 87 140 62 50 96 29 51 92 31 87 123 68 48 76 35 116 167 84 99 158 66 72 134 40 77 141 47 106 167 80 76 126 52 102 143 75 73 108 48 68 107 45 128 179 96 93 148 61 56 116 23 98 154 65 44 92 18 52 90 27 65 100 40 135 190 97 111 168 75 170 222 136 
76 127 48 80 132 48 85 132 49 75 115 36 96 133 59 82 134 43 77 136 48 96 160 69 98 161 71 130 189 98 124 185 88 92 161 56 104 180 68 118 173 78 68 114 40 66 111 41 92 137 58 144 188 103 157 196 115 107 142 78 89 121 73 55 88 34 55 98 28 61 115 30 54 118 32 95 160 77 87 147 72 128 183 102 95 145 62 83 131 59 77 126 56 128 185 104 86 151 59 79 153 46 135 204 102 136 199 106 130 190 99 84 145 55 65 122 39 55 108 33 83 134 60 87 135 64 54 97 35 66 101 50 64 99 48 124 175 92 68 126 39 85 151 54 75 142 49 120 185 93 87 138 64 60 99 37 73 103 46 121 162 91 94 141 65 81 135 49 90 145 60 70 123 40 85 126 62 63 97 41 88 118 65 152 199 116 61 113 30 112 167 80 
64 122 35 104 160 79 100 154 72 95 147 67 43 92 14 48 92 24 81 128 55 116 169 88 83 143 54 116 177 85 126 188 93 100 158 69 83 136 54 88 127 55 50 93 21 64 112 34 105 151 72 104 142 73 82 118 51 81 124 52 88 139 58 119 182 80 100 163 71 99 161 84 110 171 92 114 175 86 122 181 89 126 182 95 73 127 45 81 126 54 128 176 103 138 196 113 101 172 74 110 186 76 94 167 62 113 180 82 76 137 50 65 127 35 64 120 38 55 102 35 98 142 78 72 119 53 88 144 63 70 127 43 107 164 76 102 157 68 89 139 71 55 103 39 75 123 53 63 110 42 41 86 28 90 138 68 136 186 96 68 109 41 72 113 46 109 150 84 81 124 57 37 79 19 65 110 43 69 113 49 82 126 59 122 177 89 79 137 47 80 140 47 
61 116 31 43 90 23 67 113 42 88 131 61 81 124 51 133 180 103 91 142 62 136 192 104 80 142 50 56 118 28 133 196 102 146 205 114 122 175 93 65 106 43 41 89 17 59 111 33 98 147 72 45 84 24 47 87 24 58 103 32 62 113 38 101 164 66 84 148 55 93 153 74 93 150 74 95 148 68 99 152 67 92 146 61 68 122 41 81 128 52 110 162 82 73 129 53 35 98 21 90 162 63 107 174 79 79 144 49 75 133 47 61 119 34 73 124 49 58 102 36 75 118 58 86 135 65 70 126 49 102 162 73 117 176 86 63 118 38 121 173 98 52 93 35 76 119 52 80 128 47 46 92 21 73 122 51 109 162 78 48 94 20 47 92 22 117 162 91 58 103 34 34 77 17 90 139 68 66 115 45 72 123 46 98 157 63 90 147 55 46 101 17 
123 175 88 84 123 61 63 102 38 80 118 48 100 142 64 95 148 61 86 142 52 133 194 98 92 156 62 123 184 95 133 198 104 90 151 63 92 147 68 110 161 90 47 102 27 58 119 34 55 109 34 46 90 27 72 113 50 58 98 37 38 85 20 74 128 54 96 153 69 91 145 66 88 139 65 112 159 90 85 130 63 71 122 46 73 127 46 109 154 80 98 153 69 95 158 75 89 156 73 100 170 77 94 154 70 115 169 85 88 140 60 60 110 37 85 130 62 90 131 68 66 107 46 61 108 41 47 104 25 100 155 74 91 145 66 99 155 79 119 169 97 102 153 73 88 139 55 97 151 55 72 129 33 112 168 86 68 121 51 58 112 29 92 146 62 117 171 87 77 133 48 92 147 62 70 124 43 30 84 10 70 126 42 53 107 26 87 141 53 58 108 31 
137 191 103 135 185 106 114 161 83 105 150 69 126 172 87 103 162 66 125 188 88 125 188 90 118 182 86 110 174 81 94 156 68 69 133 45 89 151 64 65 123 44 71 136 45 77 145 51 84 144 62 62 109 42 69 111 46 43 82 25 70 113 54 68 112 54 62 112 38 87 137 60 66 113 42 76 117 58 61 106 44 84 134 59 80 132 53 97 157 61 105 167 73 80 141 64 90 156 76 95 159 76 92 150 67 120 171 90 89 135 59 53 96 30 78 120 55 81 120 59 66 108 47 50 100 27 61 118 41 100 158 75 74 131 51 128 188 104 103 164 71 97 154 62 66 119 39 110 164 76 75 135 33 79 141 45 70 131 49 72 133 44 101 162 69 97 160 63 85 148 52 60 123 28 81 142 51 71 129 44 89 152 59 74 137 44 65 126 35 102 161 72 
105 161 77 76 140 45 62 121 32 77 134 41 104 160 65 125 189 90 138 205 100 128 193 93 84 145 55 68 130 39 83 142 57 109 170 82 91 154 65 84 143 57 85 152 52 94 166 61 121 187 93 106 158 82 101 145 72 128 170 100 116 160 95 102 147 87 62 109 40 63 111 37 61 105 39 58 101 37 57 104 38 97 148 72 122 176 95 113 177 76 89 153 59 64 126 47 65 124 52 69 124 53 108 162 81 91 139 62 105 150 75 54 97 32 56 96 37 66 107 44 35 75 21 35 87 17 111 169 84 106 167 77 76 135 49 127 189 101 98 160 65 68 124 34 57 107 41 64 114 47 66 124 33 81 144 42 122 187 87 106 170 72 120 186 82 130 197 92 123 190 87 74 143 39 81 149 47 75 141 42 60 126 28 95 167 62 95 167 63 128 196 98 
55 115 30 88 158 58 62 132 30 61 128 28 85 150 52 115 182 79 95 159 61 119 180 87 116 176 85 102 157 74 77 134 50 88 146 62 72 130 47 131 188 100 92 158 56 88 160 53 73 137 47 102 157 74 111 158 82 108 153 76 81 126 62 77 123 60 71 117 51 54 101 34 61 108 39 82 131 55 110 162 80 107 162 79 99 158 73 118 184 83 73 137 43 37 97 17 36 91 19 71 124 45 77 130 46 83 132 55 67 116 43 54 99 33 75 119 54 79 123 58 77 128 53 87 148 59 84 150 53 58 122 32 78 138 52 109 168 81 74 133 42 38 90 11 27 70 17 56 102 45 51 103 29 108 169 74 101 166 61 89 157 51 102 171 63 82 152 45 82 154 46 90 162 55 59 126 31 98 166 67 105 174 71 94 169 59 83 157 50 104 176 74 
54 114 26 79 146 53 76 143 50 104 173 76 105 174 73 101 168 68 88 149 61 42 100 18 96 152 67 109 158 83 108 158 80 100 153 70 110 166 81 98 147 71 69 128 36 110 177 75 72 134 45 97 152 70 74 123 47 80 128 53 80 131 59 70 119 49 63 111 44 68 117 51 90 141 65 81 134 50 104 162 68 103 162 75 61 119 42 82 146 54 58 119 34 35 94 13 54 107 32 58 112 28 52 107 25 110 164 83 67 120 45 38 87 22 61 109 41 48 94 28 83 139 57 93 158 63 82 152 51 71 140 40 91 156 62 70 131 45 45 100 24 34 82 13 50 94 27 71 116 48 60 109 40 88 141 65 98 159 69 65 134 31 97 168 63 109 182 73 123 199 90 112 184 80 107 175 76 123 190 91 88 153 58 92 156 58 107 169 76 92 154 65 
104 161 77 125 183 103 122 183 97 105 170 79 97 160 69 115 179 84 120 183 88 82 140 53 76 128 49 50 97 25 59 104 36 97 147 70 118 172 89 56 102 34 61 116 36 114 177 82 103 164 75 83 139 59 84 135 58 37 87 16 62 117 42 67 117 46 63 111 46 111 162 91 62 115 36 75 133 40 77 135 40 43 100 18 66 126 43 42 103 23 103 165 78 88 145 65 84 138 57 78 134 44 73 128 38 84 137 60 63 118 42 57 109 34 53 105 32 41 96 22 74 133 51 113 181 82 107 176 77 67 134 39 96 160 66 91 152 61 40 95 21 55 103 34 62 109 30 67 114 32 50 97 27 62 113 46 62 117 42 79 150 48 71 144 40 83 157 50 109 182 77 84 154 52 111 178 80 128 193 99 63 123 36 75 127 49 92 143 66 83 135 60 
126 183 103 111 172 87 99 160 71 80 139 49 74 133 39 76 141 43 115 181 79 139 201 104 99 157 66 79 132 53 63 113 42 47 92 29 91 136 68 55 102 37 83 136 58 93 154 62 97 162 70 79 141 61 95 152 77 46 100 27 90 139 68 48 85 35 65 111 49 91 149 61 70 129 40 81 133 56 41 88 22 37 84 19 91 149 63 60 129 33 102 173 73 71 130 51 41 95 23 49 100 30 53 102 29 40 87 15 49 98 18 96 148 61 75 134 43 107 170 82 100 166 75 107 177 79 84 151 56 110 170 81 64 119 38 94 158 62 93 157 64 87 149 58 82 142 48 81 136 50 92 144 66 86 133 66 60 103 43 90 153 60 79 145 52 66 134 36 103 170 71 86 151 52 81 142 49 136 193 104 133 185 105 101 152 77 47 101 27 66 123 45 
96 158 60 71 135 41 72 136 37 95 156 57 123 185 83 115 181 79 96 162 61 80 141 46 76 133 46 74 125 50 53 102 32 50 94 29 74 117 51 65 110 48 82 133 58 103 162 72 109 172 81 96 157 75 112 170 91 82 135 57 99 148 72 59 101 41 68 121 43 75 136 47 108 173 74 67 124 44 42 90 27 50 100 33 116 177 90 112 182 82 90 163 61 66 134 40 73 134 50 65 121 40 50 101 27 86 135 58 66 116 36 122 175 91 74 132 49 66 130 42 66 134 39 122 193 90 105 170 70 96 153 65 66 120 41 83 146 53 88 152 59 65 129 41 65 125 38 58 113 35 62 114 41 69 117 48 96 144 72 93 152 64 70 135 42 88 153 58 87 150 56 62 124 30 58 112 29 75 125 48 143 193 114 121 171 92 53 97 35 128 184 101 
96 160 57 67 131 35 90 153 55 120 184 82 112 175 74 108 171 75 87 148 54 81 138 52 58 109 34 126 175 98 76 124 52 68 112 45 81 124 57 56 103 39 74 125 50 80 136 53 95 156 67 119 179 93 91 148 66 116 169 90 89 139 60 96 142 67 93 150 60 94 163 63 102 170 73 53 112 34 21 70 9 22 73 14 115 177 93 113 178 90 54 117 35 45 114 18 108 175 76 113 178 79 107 170 77 106 166 77 55 111 30 73 127 52 60 117 38 57 121 36 78 142 49 106 173 66 105 170 65 77 134 43 89 145 60 94 158 58 78 142 42 78 142 43 64 123 32 84 141 50 58 112 29 88 141 53 96 150 58 55 116 25 96 159 66 58 115 34 54 113 28 60 118 31 62 113 35 71 118 45 110 155 82 121 169 84 147 198 110 115 166 86 
72 137 37 61 121 34 71 132 42 86 145 58 73 133 44 75 136 45 88 144 59 104 154 78 106 155 81 74 121 51 78 126 53 115 159 91 99 142 76 50 100 29 90 144 65 65 123 40 105 168 77 106 170 77 85 144 59 69 126 43 64 119 36 100 144 69 50 98 25 94 154 72 86 149 65 57 110 41 30 74 18 69 118 48 120 179 92 99 155 81 125 188 102 70 138 38 123 194 84 64 131 33 77 137 53 104 170 75 96 159 72 77 135 53 86 146 61 86 147 58 62 123 30 91 155 51 97 158 60 56 112 33 62 116 41 78 141 45 63 126 30 69 129 43 76 133 54 56 110 33 62 115 42 100 154 72 70 124 40 79 142 47 57 118 30 47 107 21 54 112 31 54 109 28 76 124 51 71 113 46 67 107 43 80 123 49 110 155 80 79 131 48 
69 134 39 79 134 58 125 180 104 114 169 94 72 126 52 59 114 33 53 106 27 64 112 43 107 156 82 81 131 54 93 145 64 107 154 84 96 143 71 65 119 43 63 121 40 85 148 60 107 175 79 111 180 81 85 154 53 87 153 56 66 125 40 67 103 48 53 96 36 47 101 33 75 128 60 103 150 83 71 115 47 143 193 109 100 152 71 19 68 9 64 115 46 101 168 67 144 218 102 110 183 73 80 152 48 111 177 85 68 133 43 57 120 27 130 189 98 85 141 55 98 151 65 97 154 59 105 160 73 68 121 46 45 98 29 91 154 54 96 157 60 85 142 58 102 157 79 42 94 26 71 125 54 83 137 64 52 110 31 74 139 44 77 141 48 65 124 42 86 140 63 87 137 64 77 123 55 46 86 24 31 69 14 21 62 7 74 116 54 74 121 51 
144 99 52 144 99 52 144 99 52 144 99 52 144 99 52 144 99 52 144 99 52 144 99 52 144 99 52 144 99 52 144 99 52 144 99 52 144 99 52 144 99 52 144 99 52 144 99 52 144 99 52 144 99 52 144 99 52 144 99 52 144 99 52 144 99 52 144 99 52 144 99 52 144 99 52 144 99 52 144 99 52 153 204 115 62 114 35 51 100 29 62 115 37 84 148 53 138 208 102 116 191 78 127 202 90 131 201 98 89 155 59 72 137 32 129 190 93 95 147 64 74 124 43 92 141 61 85 135 57 46 98 27 77 131 59 95 158 60 89 150 55 72 127 42 71 121 48 72 126 48 81 138 59 63 122 43 65 126 42 64 130 38 53 117 27 72 131 48 59 113 37 52 100 32 90 135 70 30 68 12 29 62 12 65 107 46 67 111 48 82 130 62 
130 91 49 130 91 49 130 91 49 130 91 49 130 91 49 130 91 49 130 91 49 130 91 49 130 91 49 130 91 49 130 91 49 130 91 49 130 91 49 130 91 49 130 91 49 130 91 49 130 91 49 130 91 49 130 91 49 130 91 49 130 91 49 130 91 49 130 91 49 130 91 49 130 91 49 130 91 49 144 99 52 150 210 119 70 131 47 111 155 85 91 138 66 73 135 44 118 186 88 52 118 28 88 155 58 149 216 112 121 184 84 82 147 43 108 164 77 51 97 31 42 82 22 63 100 43 118 160 92 47 99 26 98 157 70 77 136 54 99 155 77 48 97 30 30 77 13 42 94 22 75 132 51 52 109 33 60 125 35 55 120 32 37 100 15 74 134 48 57 112 36 25 70 12 40 83 25 52 92 30 83 123 60 89 137 67 59 108 38 71 123 47 
130 91 49 130 91 49 130 91 49 130 91 49 130 91 49 130 91 49 130 91 49 130 91 49 130 91 49 130 91 49 130 91 49 130 91 49 130 91 49 130 91 49 130 91 49 130 91 49 130 91 49 130 91 49 130 91 49 130 91 49 130 91 49 130 91 49 130 91 49 130 91 49 130 91 49 130 91 49 144 99 52 131 195 107 90 155 77 99 148 75 63 115 34 104 165 75 118 182 90 63 126 37 55 116 28 122 182 86 121 180 85 116 178 87 40 94 19 38 82 22 41 78 25 88 127 64 122 165 93 125 177 87 90 146 53 48 105 25 36 85 20 70 119 48 60 108 34 80 133 46 108 168 71 100 166 63 98 167 62 93 159 70 89 150 66 89 148 64 78 132 58 64 111 47 74 118 56 61 102 44 46 86 27 90 139 67 54 104 31 68 120 40 
130 91 49 130 91 49 130 91 49 130 91 49 130 91 49 130 91 49 130 91 49 130 91 49 130 91 49 130 91 49 130 91 49 130 91 49 130 91 49 130 91 49 130 91 49 130 91 49 130 91 49 130 91 49 130 91 49 130 91 49 130 91 49 130 91 49 130 91 49 130 91 49 130 91 49 130 91 49 144 99 52 126 191 98 74 139 51 65 121 38 81 141 49 118 179 83 158 214 119 85 132 50 73 116 43 63 113 37 99 157 76 99 163 76 51 113 29 53 104 32 51 94 33 77 113 56 104 144 77 130 171 100 79 123 46 69 120 31 72 120 45 89 135 58 65 109 38 71 122 42 103 161 71 91 158 57 92 161 57 63 119 42 103 159 78 75 129 48 58 109 34 68 118 48 42 89 25 45 92 31 60 106 43 105 154 79 72 120 45 79 125 54 
130 91 49 130 91 49 130 91 49 130 91 49 130 91 49 130 91 49 130 91 49 130 91 49 130 91 49 130 91 49 130 91 49 130 91 49 130 91 49 130 91 49 130 91 49 130 91 49 130 91 49 130 91 49 130 91 49 130 91 49 130 91 49 130 91 49 130 91 49 130 91 49 130 91 49 130 91 49 144 99 52 90 153 64 93 156 66 73 141 42 96 167 63 133 204 98 131 193 95 68 118 37 76 122 52 94 151 68 94 163 68 109 177 82 91 154 63 97 154 70 84 135 60 68 113 42 65 108 38 53 92 29 42 88 16 78 131 40 97 147 65 60 104 38 62 108 37 60 110 34 72 129 48 90 155 60 78 145 52 56 108 38 112 167 84 86 136 61 48 97 27 67 120 45 53 107 30 66 120 47 67 117 48 86 137 58 48 94 26 50 97 29 
130 91 49 130 91 49 130 91 49 130 91 49 130 91 49 130 91 49 130 91 49 130 91 49 130 91 49 130 91 49 130 91 49 130 91 49 130 91 49 130 91 49 130 91 49 130 91 49 130 91 49 130 91 49 130 91 49 130 91 49 130 91 49 130 91 49 130 91 49 130 91 49 130 91 49 130 91 49 144 99 52 126 188 99 108 173 79 86 157 53 85 160 55 133 213 102 109 177 83 117 175 95 129 184 106 73 136 50 92 167 62 122 191 91 75 135 50 105 165 74 79 135 51 56 109 27 54 108 23 42 91 18 73 125 45 86 139 53 103 155 75 59 106 37 104 151 81 80 129 56 76 129 53 97 153 73 74 136 50 73 129 47 120 175 90 62 112 38 53 104 32 58 114 35 63 121 40 81 139 55 53 111 32 70 123 43 120 170 96 97 148 75 
130 91 49 130 91 49 130 91 49 130 91 49 130 91 49 130 91 49 130 91 49 130 91 49 130 91 49 130 91 49 130 91 49 130 91 49 130 91 49 130 91 49 130 91 49 130 91 49 130 91 49 130 91 49 130 91 49 130 91 49 130 91 49 130 91 49 130 91 49 130 91 49 130 91 49 130 91 49 144 99 52 59 113 40 141 201 115 97 157 67 103 173 73 113 188 87 99 164 83 124 183 108 89 142 71 108 170 83 80 155 47 88 158 53 98 163 66 114 178 83 57 120 27 88 152 56 94 155 63 103 167 68 108 172 74 89 146 57 80 128 57 42 93 22 50 96 33 102 152 77 49 96 28 99 155 73 69 125 45 73 128 46 106 162 76 67 122 44 78 134 55 63 124 41 92 154 64 83 149 51 71 136 36 88 146 58 155 216 123 77 132 50 
130 91 49 130 91 49 130 91 49 130 91 49 130 91 49 130 91 49 130 91 49 130 91 49 130 91 49 130 91 49 130 91 49 130 91 49 130 91 49 130 91 49 130 91 49 130 91 49 130 91 49 130 91 49 130 91 49 130 91 49 130 91 49 130 91 49 130 91 49 130 91 49 130 91 49 130 91 49 144 99 52 56 110 36 128 185 105 135 186 103 64 113 43 93 157 71 114 173 98 101 150 89 80 126 63 116 170 91 81 146 49 89 157 56 74 142 40 75 141 46 73 142 41 85 155 49 96 164 59 83 150 46 99 166 61 107 167 75 33 89 14 40 95 22 91 148 66 101 158 70 76 130 44 74 124 48 62 113 37 87 140 59 67 122 40 44 101 18 64 124 38 58 119 33 106 172 77 94 162 60 95 163 59 125 194 89 118 183 82 89 145 56 
130 91 49 130 91 49 130 91 49 130 91 49 130 91 49 130 91 49 130 91 49 130 91 49 130 91 49 130 91 49 130 91 49 130 91 49 130 91 49 130 91 49 130 91 49 130 91 49 130 91 49 130 91 49 130 91 49 130 91 49 130 91 49 130 91 49 130 91 49 130 91 49 130 91 49 130 91 49 144 99 52 67 123 47 56 104 37 81 119 59 83 120 66 106 160 82 91 143 72 40 84 25 38 82 19 56 102 36 64 120 40 114 181 83 42 109 18 75 144 45 109 184 75 96 172 58 88 160 49 66 134 30 113 176 78 118 179 85 68 130 42 73 135 49 85 149 59 68 128 36 82 140 45 64 117 35 74 124 52 80 131 56 100 152 75 63 118 38 43 103 18 42 105 15 93 159 65 86 153 57 78 148 45 117 188 80 69 133 39 81 135 53 
130 91 49 130 91 49 130 91 49 130 91 49 130 91 49 130 91 49 130 91 49 130 91 49 130 91 49 130 91 49 130 91 49 130 91 49 130 91 49 130 91 49 130 91 49 130 91 49 130 91 49 130 91 49 130 91 49 130 91 49 130 91 49 130 91 49 130 91 49 130 91 49 130 91 49 130 91 49 144 99 52 54 110 34 41 93 22 50 85 29 90 135 65 93 152 63 102 160 74 55 104 33 96 142 74 96 148 76 106 163 86 124 190 95 70 138 41 124 196 94 131 208 98 103 177 68 80 150 45 113 176 78 135 195 99 112 172 79 71 132 45 68 133 42 90 160 59 96 165 58 82 144 45 48 104 23 50 99 29 34 81 17 92 141 72 69 124 45 68 129 40 50 113 24 70 137 44 105 171 77 61 129 34 82 149 50 109 170 80 85 137 59 
130 91 49 130 91 49 130 91 49 130 91 49 130 91 49 130 91 49 130 91 49 130 91 49 130 91 49 130 91 49 130 91 49 130 91 49 130 91 49 130 91 49 130 91 49 130 91 49 130 91 49 130 91 49 130 91 49 130 91 49 130 91 49 130 91 49 130 91 49 130 91 49 130 91 49 130 91 49 144 99 52 44 95 29 72 122 54 71 110 52 46 95 24 101 162 69 117 183 82 114 175 79 140 194 111 62 113 44 63 119 45 135 202 107 106 176 77 91 159 64 91 164 60 103 173 71 73 138 41 86 146 54 69 125 39 80 139 52 57 121 29 55 122 28 79 151 46 95 167 57 81 149 47 111 171 82 89 144 65 60 110 39 91 142 70 50 105 29 85 145 59 95 159 67 79 144 49 107 174 80 68 131 43 70 132 39 63 119 37 74 122 50 
130 91 49 130 91 49 130 91 49 130 91 49 130 91 49 130 91 49 130 91 49 130 91 49 130 91 49 130 91 49 130 91 49 130 91 49 130 91 49 130 91 49 130 91 49 130 91 49 130 91 49 130 91 49 130 91 49 130 91 49 130 91 49 130 91 49 130 91 49 130 91 49 130 91 49 130 91 49 144 99 52 45 88 33 48 97 34 59 101 42 43 90 23 64 119 36 109 171 76 105 166 71 118 173 86 52 98 29 77 124 55 112 176 84 134 204 108 99 170 73 104 173 74 120 180 86 73 126 46 82 143 57 53 119 32 83 145 62 76 139 49 117 183 83 130 194 100 133 198 109 123 188 101 86 149 61 74 139 35 77 140 39 94 154 66 59 115 42 33 87 18 82 140 50 76 134 39 80 133 48 93 146 64 72 135 50 55 112 32 68 115 41 
130 91 49 130 91 49 130 91 49 130 91 49 130 91 49 130 91 49 130 91 49 130 91 49 130 91 49 130 91 49 130 91 49 130 91 49 130 91 49 130 91 49 130 91 49 130 91 49 130 91 49 130 91 49 130 91 49 130 91 49 130 91 49 130 91 49 130 91 49 130 91 49 130 91 49 130 91 49 144 99 52 118 173 97 53 102 37 39 88 22 28 80 5 33 86 9 105 160 75 62 112 35 124 179 93 69 123 42 92 147 66 117 182 86 88 154 61 86 156 60 110 174 79 115 169 82 38 87 12 70 126 42 69 132 47 55 106 40 78 128 50 124 183 86 114 171 85 122 175 99 35 83 22 77 136 45 97 158 52 73 139 30 86 150 55 88 149 64 92 149 68 76 135 42 87 143 50 72 123 39 70 121 46 92 153 70 63 121 36 66 117 39 
130 91 49 130 91 49 130 91 49 130 91 49 130 91 49 130 91 49 130 91 49 130 91 49 130 91 49 130 91 49 130 91 49 130 91 49 130 91 49 130 91 49 130 91 49 130 91 49 130 91 49 130 91 49 130 91 49 130 91 49 130 91 49 130 91 49 130 91 49 130 91 49 130 91 49 130 91 49 144 99 52 96 157 68 127 189 100 109 172 83 55 112 31 103 152 78 107 153 79 94 133 73 135 187 108 69 126 45 98 160 74 89 156 54 60 131 28 76 145 49 149 210 117 96 141 66 90 134 54 97 149 66 55 113 29 48 99 21 122 170 91 92 142 58 85 132 56 108 153 84 89 135 66 89 138 58 67 121 28 85 151 45 75 140 44 113 178 82 110 172 74 111 170 74 99 153 64 102 152 75 106 153 86 84 138 60 77 132 47 112 166 79 
130 91 49 130 91 49 130 91 49 130 91 49 130 91 49 130 91 49 130 91 49 130 91 49 130 91 49 130 91 49 130 91 49 130 91 49 130 91 49 130 91 49 130 91 49 130 91 49 130 91 49 130 91 49 130 91 49 130 91 49 130 91 49 130 91 49 130 91 49 130 91 49 130 91 49 130 91 49 144 99 52 81 143 51 134 201 101 150 226 115 119 187 87 146 199 118 79 119 55 107 145 85 132 181 109 69 128 47 79 148 53 97 166 58 92 162 58 113 183 81 123 182 90 152 200 114 83 126 44 69 118 34 81 137 52 76 126 52 105 154 78 87 138 60 71 115 50 55 99 36 99 146 76 108 155 81 113 161 87 115 172 86 107 170 73 99 164 63 89 153 48 87 146 49 109 162 76 117 166 94 114 159 97 128 174 97 110 159 76 102 153 69 
130 91 49 130 91 49 130 91 49 130 91 49 130 91 49 130 91 49 130 91 49 130 91 49 130 91 49 130 91 49 130 91 49 130 91 49 130 91 49 130 91 49 130 91 49 130 91 49 130 91 49 130 91 49 130 91 49 130 91 49 130 91 49 130 91 49 130 91 49 130 91 49 130 91 49 130 91 49 144 99 52 48 100 23 64 120 38 133 209 94 136 205 101 104 156 77 63 101 42 50 86 30 144 190 119 74 130 49 98 164 68 90 157 49 69 139 34 100 168 69 83 144 51 90 137 54 75 119 35 63 114 27 89 148 58 66 124 42 64 121 42 90 144 69 123 179 99 108 163 83 102 153 78 84 133 64 130 180 111 96 145 72 126 183 93 138 199 99 136 199 97 76 137 39 47 103 18 79 129 60 125 173 107 139 183 105 103 147 71 74 116 48 
130 91 49 130 91 49 130 91 49 130 91 49 130 91 49 130 91 49 130 91 49 130 91 49 130 91 49 130 91 49 130 91 49 130 91 49 130 91 49 130 91 49 130 91 49 130 91 49 130 91 49 130 91 49 130 91 49 130 91 49 130 91 49 130 91 49 130 91 49 130 91 49 130 91 49 130 91 49 144 99 52 73 120 44 89 134 60 125 192 86 114 176 80 132 186 99 48 91 24 57 95 33 114 158 86 105 156 76 175 228 141 123 186 83 100 167 63 96 165 66 78 137 49 66 116 32 73 120 39 86 143 53 122 189 89 98 164 69 86 148 63 57 116 39 99 156 77 80 134 54 41 94 18 32 81 14 54 100 41 48 89 27 99 147 69 106 161 71 107 169 72 94 156 65 74 132 53 60 115 39 87 136 65 89 132 59 84 124 55 71 109 48 
130 91 49 130 91 49 130 91 49 130 91 49 130 91 49 130 91 49 130 91 49 130 91 49 130 91 49 130 91 49 130 91 49 130 91 49 130 91 49 130 91 49 130 91 49 130 91 49 130 91 49 130 91 49 130 91 49 130 91 49 130 91 49 130 91 49 130 91 49 130 91 49 130 91 49 130 91 49 144 99 52 52 90 27 65 100 40 135 190 97 111 168 75 170 222 136 85 134 56 78 126 47 74 118 40 83 123 50 177 218 138 73 128 37 90 155 54 90 156 62 105 168 77 58 110 32 77 133 42 77 144 41 98 171 65 114 176 80 56 113 30 86 139 64 64 114 38 91 140 56 57 98 30 31 72 12 28 66 13 41 72 20 79 120 48 87 140 52 66 129 36 100 165 81 93 154 76 77 132 53 114 165 82 91 137 64 69 113 45 94 140 71 
130 91 49 130 91 49 101 92 82 101 92 82 101 92 82 101 92 82 101 92 82 130 91 49 130 91 49 130 91 49 130 91 49 130 91 49 130 91 49 130 91 49 130 91 49 130 91 49 130 91 49 130 91 49 130 91 49 130 91 49 130 91 49 130 91 49 130 91 49 130 91 49 130 91 49 130 91 49 144 99 52 63 97 41 88 118 65 152 199 116 61 113 30 112 167 80 88 139 59 80 132 48 85 132 49 75 115 36 96 133 59 82 134 43 77 136 48 96 160 69 98 161 71 130 189 98 124 185 88 92 161 56 104 180 68 118 173 78 68 114 40 66 111 41 92 137 58 144 188 103 157 196 115 107 142 78 89 121 73 55 88 34 55 98 28 61 115 30 54 118 32 95 160 77 87 147 72 128 183 102 95 145 62 83 131 59 77 126 56 128 185 104 
130 91 49 130 91 49 101 92 82 101 92 82 101 92 82 101 92 82 101 92 82 108 75 39 130 91 49 130 91 49 130 91 49 130 91 49 130 91 49 130 91 49 130 91 49 130 91 49 130 91 49 130 91 49 130 91 49 130 91 49 130 91 49 130 91 49 130 91 49 130 91 49 130 91 49 130 91 49 144 99 52 69 113 49 82 126 59 122 177 89 79 137 47 80 140 47 59 116 31 104 160 79 100 154 72 95 147 67 43 92 14 48 92 24 81 128 55 116 169 88 83 143 54 116 177 85 126 188 93 100 158 69 83 136 54 88 127 55 50 93 21 64 112 34 105 151 72 104 142 73 82 118 51 81 124 52 88 139 58 119 182 80 100 163 71 99 161 84 110 171 92 114 175 86 122 181 89 126 182 95 73 127 45 81 126 54 128 176 103 138 196 113 
130 91 49 130 91 49 101 92 82 101 92 82 101 92 82 101 92 82 101 92 82 108 75 39 130 91 49 130 91 49 130 91 49 130 91 49 130 91 49 130 91 49 130 91 49 130 91 49 130 91 49 130 91 49 130 91 49 130 91 49 130 91 49 130 91 49 130 91 49 130 91 49 130 91 49 130 91 49 144 99 52 66 115 45 72 123 46 98 157 63 90 147 55 46 101 17 63 116 35 43 90 23 67 113 42 88 131 61 81 124 51 133 180 103 91 142 62 136 192 104 80 142 50 56 118 28 133 196 102 146 205 114 122 175 93 65 106 43 41 89 17 59 111 33 98 147 72 45 84 24 47 87 24 58 103 32 62 113 38 101 164 66 84 148 55 93 153 74 93 150 74 95 148 68 99 152 67 92 146 61 68 122 41 81 128 52 110 162 82 73 129 53 
130 91 49 130 91 49 101 92 82 101 92 82 101 92 82 101 92 82 101 92 82 108 75 39 130 91 49 130 91 49 130 91 49 130 91 49 130 91 49 130 91 49 130 91 49 130 91 49 130 91 49 130 91 49 130 91 49 130 91 49 130 91 49 130 91 49 130 91 49 130 91 49 130 91 49 130 91 49 144 99 52 30 84 10 70 126 42 53 107 26 87 141 53 58 108 31 100 146 74 84 123 61 63 102 38 80 118 48 100 142 64 95 148 61 86 142 52 133 194 98 92 156 62 123 184 95 133 198 104 90 151 63 92 147 68 110 161 90 47 102 27 58 119 34 55 109 34 46 90 27 72 113 50 58 98 37 38 85 20 74 128 54 96 153 69 91 145 66 88 139 65 112 159 90 85 130 63 71 122 46 73 127 46 109 154 80 98 153 69 95 158 75 
130 91 49 130 91 49 101 92 82 101 92 82 101 92 82 101 92 82 101 92 82 108 75 39 130 91 49 130 91 49 130 91 49 130 91 49 130 91 49 130 91 49 130 91 49 130 91 49 130 91 49 130 91 49 130 91 49 130 91 49 130 91 49 130 91 49 130 91 49 130 91 49 130 91 49 130 91 49 144 99 52 71 129 44 89 152 59 74 137 44 65 126 35 102 161 72 115 170 86 135 185 106 114 161 83 105 150 69 126 172 87 103 162 66 125 188 88 125 188 90 118 182 86 110 174 81 94 156 68 69 133 45 89 151 64 65 123 44 71 136 45 77 145 51 84 144 62 62 109 42 69 111 46 43 82 25 70 113 54 68 112 54 62 112 38 87 137 60 66 113 42 76 117 58 61 106 44 84 134 59 80 132 53 97 157 61 105 167 73 80 141 64 
130 91 49 130 91 49 130 91 49 108 75 39 108 75 39 108 75 39 108 75 39 108 75 39 130 91 49 130 91 49 130 91 49 130 91 49 130 91 49 130 91 49 130 91 49 130 91 49 130 91 49 130 91 49 130 91 49 130 91 49 130 91 49 130 91 49 130 91 49 130 91 49 130 91 49 130 91 49 144 99 52 75 141 42 60 126 28 95 167 62 95 167 63 128 196 98 69 136 40 76 140 45 62 121 32 77 134 41 104 160 65 125 189 90 138 205 100 128 193 93 84 145 55 68 130 39 83 142 57 109 170 82 91 154 65 84 143 57 85 152 52 94 166 61 121 187 93 106 158 82 101 145 72 128 170 100 116 160 95 102 147 87 62 109 40 63 111 37 61 105 39 58 101 37 57 104 38 97 148 72 122 176 95 113 177 76 89 153 59 64 126 47 
130 91 49 130 91 49 130 91 49 130 91 49 130 91 49 130 91 49 130 91 49 130 91 49 130 91 49 130 91 49 130 91 49 130 91 49 130 91 49 130 91 49 130 91 49 130 91 49 130 91 49 130 91 49 130 91 49 130 91 49 130 91 49 130 91 49 130 91 49 130 91 49 130 91 49 130 91 49 144 99 52 98 166 67 105 174 71 94 169 59 83 157 50 104 176 74 66 136 38 88 158 58 62 132 30 61 128 28 85 150 52 115 182 79 95 159 61 119 180 87 116 176 85 102 157 74 77 134 50 88 146 62 72 130 47 131 188 100 92 158 56 88 160 53 73 137 47 102 157 74 111 158 82 108 153 76 81 126 62 77 123 60 71 117 51 54 101 34 61 108 39 82 131 55 110 162 80 107 162 79 99 158 73 118 184 83 73 137 43 37 97 17 
130 91 49 130 91 49 130 91 49 130 91 49 130 91 49 130 91 49 130 91 49 130 91 49 130 91 49 130 91 49 130 91 49 130 91 49 130 91 49 130 91 49 130 91 49 130 91 49 130 91 49 130 91 49 130 91 49 130 91 49 130 91 49 130 91 49 130 91 49 130 91 49 130 91 49 130 91 49 144 99 52 123 190 91 88 153 58 92 156 58 107 169 76 92 154 65 54 119 31 79 146 53 76 143 50 104 173 76 105 174 73 101 168 68 88 149 61 42 100 18 96 152 67 109 158 83 108 158 80 100 153 70 110 166 81 98 147 71 69 128 36 110 177 75 72 134 45 97 152 70 74 123 47 80 128 53 80 131 59 70 119 49 63 111 44 68 117 51 90 141 65 81 134 50 104 162 68 103 162 75 61 119 42 82 146 54 58 119 34 35 94 13 
130 91 49 130 91 49 130 91 49 130 91 49 130 91 49 130 91 49 130 91 49 130 91 49 130 91 49 130 91 49 130 91 49 130 91 49 130 91 49 130 91 49 130 91 49 130 91 49 130 91 49 130 91 49 130 91 49 130 91 49 130 91 49 130 91 49 130 91 49 130 91 49 130 91 49 130 91 49 144 99 52 128 193 99 63 123 36 75 127 49 92 143 66 83 135 60 95 147 75 125 183 103 122 183 97 105 170 79 97 160 69 115 179 84 120 183 88 82 140 53 76 128 49 50 97 25 59 104 36 97 147 70 118 172 89 56 102 34 61 116 36 114 177 82 103 164 75 83 139 59 84 135 58 37 87 16 62 117 42 67 117 46 63 111 46 111 162 91 62 115 36 75 133 40 77 135 40 43 100 18 66 126 43 42 103 23 103 165 78 88 145 65 
130 91 49 130 91 49 130 91 49 130 91 49 130 91 49 130 91 49 130 91 49 130 91 49 130 91 49 130 91 49 130 91 49 130 91 49 130 91 49 130 91 49 130 91 49 130 91 49 130 91 49 130 91 49 130 91 49 130 91 49 130 91 49 130 91 49 130 91 49 130 91 49 130 91 49 130 91 49 144 99 52 136 193 104 133 185 105 101 152 77 47 101 27 66 123 45 142 203 119 111 172 87 99 160 71 80 139 49 74 133 39 76 141 43 115 181 79 139 201 104 99 157 66 79 132 53 63 113 42 47 92 29 91 136 68 55 102 37 83 136 58 93 154 62 97 162 70 79 141 61 95 152 77 46 100 27 90 139 68 48 85 35 65 111 49 91 149 61 70 129 40 81 133 56 41 88 22 37 84 19 91 149 63 60 129 33 102 173 73 71 130 51 
130 91 49 130 91 49 130 91 49 130 91 49 130 91 49 130 91 49 130 91 49 130 91 49 130 91 49 130 91 49 130 91 49 130 91 49 130 91 49 130 91 49 130 91 49 130 91 49 130 91 49 130 91 49 130 91 49 130 91 49 130 91 49 130 91 49 130 91 49 130 91 49 130 91 49 130 91 49 144 99 52 75 125 48 143 193 114 121 171 92 53 97 35 128 184 101 95 155 71 71 135 41 72 136 37 95 156 57 123 185 83 115 181 79 96 162 61 80 141 46 76 133 46 74 125 50 53 102 32 50 94 29 74 117 51 65 110 48 82 133 58 103 162 72 109 172 81 96 157 75 112 170 91 82 135 57 99 148 72 59 101 41 68 121 43 75 136 47 108 173 74 67 124 44 42 90 27 50 100 33 116 177 90 112 182 82 90 163 61 66 134 40 
130 91 49 130 91 49 130 91 49 130 91 49 130 91 49 130 91 49 130 91 49 130 91 49 130 91 49 130 91 49 130 91 49 130 91 49 130 91 49 130 91 49 130 91 49 130 91 49 130 91 49 130 91 49 130 91 49 130 91 49 130 91 49 130 91 49 130 91 49 130 91 49 130 91 49 130 91 49 144 99 52 71 118 45 110 155 82 121 169 84 147 198 110 115 166 86 68 126 39 67 131 35 90 153 55 120 184 82 112 175 74 108 171 75 87 148 54 81 138 52 58 109 34 126 175 98 76 124 52 68 112 45 81 124 57 56 103 39 74 125 50 80 136 53 95 156 67 119 179 93 91 148 66 116 169 90 89 139 60 96 142 67 93 150 60 94 163 63 102 170 73 53 112 34 21 70 9 22 73 14 115 177 93 113 178 90 54 117 35 45 114 18 
130 91 49 130 91 49 130 91 49 130 91 49 130 91 49 130 91 49 130 91 49 130 91 49 130 91 49 130 91 49 130 91 49 130 91 49 130 91 49 130 91 49 130 91 49 130 91 49 130 91 49 130 91 49 130 91 49 130 91 49 130 91 49 130 91 49 130 91 49 130 91 49 130 91 49 130 91 49 144 99 52 71 113 46 67 107 43 80 123 49 110 155 80 79 131 48 45 100 20 61 121 34 71 132 42 86 145 58 73 133 44 75 136 45 88 144 59 104 154 78 106 155 81 74 121 51 78 126 53 115 159 91 99 142 76 50 100 29 90 144 65 65 123 40 105 168 77 106 170 77 85 144 59 69 126 43 64 119 36 100 144 69 50 98 25 94 154 72 86 149 65 57 110 41 30 74 18 69 118 48 120 179 92 99 155 81 125 188 102 70 138 38 
130 91 49 130 91 49 130 91 49 130 91 49 130 91 49 130 91 49 130 91 49 130 91 49 130 91 49 130 91 49 130 91 49 130 91 49 130 91 49 130 91 49 130 91 49 130 91 49 130 91 49 130 91 49 130 91 49 130 91 49 130 91 49 130 91 49 130 91 49 130 91 49 130 91 49 130 91 49 144 99 52 46 86 24 31 69 14 21 62 7 74 116 54 74 121 51 53 102 34 79 134 58 125 180 104 114 169 94 72 126 52 59 114 33 53 106 27 64 112 43 107 156 82 81 131 54 93 145 64 107 154 84 96 143 71 65 119 43 63 121 40 85 148 60 107 175 79 111 180 81 85 154 53 87 153 56 66 125 40 67 103 48 53 96 36 47 101 33 75 128 60 103 150 83 71 115 47 143 193 109 100 152 71 19 68 9 64 115 46 101 168 67 
130 91 49 130 91 49 130 91 49 130 91 49 130 91 49 130 91 49 130 91 49 130 91 49 130 91 49 130 91 49 130 91 49 130 91 49 130 91 49 130 91 49 130 91 49 130 91 49 130 91 49 130 91 49 130 91 49 130 91 49 130 91 49 130 91 49 130 91 49 130 91 49 130 91 49 130 91 49 144 99 52 30 68 12 29 62 12 65 107 46 67 111 48 82 130 62 109 159 88 104 155 82 110 160 91 60 106 45 45 89 33 65 115 42 70 119 46 94 141 72 80 130 54 91 145 62 108 164 78 69 123 42 115 167 91 105 162 80 69 130 48 69 132 49 90 158 64 84 153 53 100 169 69 82 150 52 49 111 24 51 88 32 41 82 28 34 84 23 61 112 45 111 158 87 54 97 29 153 204 115 62 114 35 51 100 29 62 115 37 84 148 53 
130 91 49 130 91 49 130 91 49 130 91 49 130 91 49 130 91 49 130 91 49 130 91 49 130 91 49 130 91 49 130 91 49 130 91 49 130 91 49 130 91 49 130 91 49 130 91 49 130 91 49 130 91 49 130 91 49 130 91 49 130 91 49 130 91 49 130 91 49 130 91 49 130 91 49 130 91 49 144 99 52 52 92 30 83 123 60 89 137 67 59 108 38 71 123 47 77 125 55 90 140 65 80 125 56 64 104 45 49 89 33 72 118 49 109 156 85 107 155 85 99 151 74 81 139 51 118 179 86 87 146 59 98 151 76 99 155 76 99 156 78 76 135 57 105 166 84 77 143 49 76 140 46 108 171 78 38 94 19 46 86 26 57 104 40 68 124 52 52 111 30 97 153 62 71 124 41 150 210 119 70 131 47 111 155 85 91 138 66 73 135 44 
130 91 49 130 91 49 130 91 49 130 91 49 130 91 49 130 91 49 130 91 49 130 91 49 130 91 49 130 91 49 130 91 49 130 91 49 130 91 49 130 91 49 130 91 49 130 91 49 130 91 49 130 91 49 130 91 49 130 91 49 130 91 49 130 91 49 130 91 49 130 91 49 130 91 49 130 91 49 144 99 52 61 102 44 46 86 27 90 139 67 54 104 31 68 120 40 94 145 65 79 128 49 87 131 59 115 152 92 72 107 53 56 100 34 92 139 69 86 135 64 78 133 53 87 149 57 118 183 86 85 148 56 72 127 52 107 159 84 78 132 58 81 134 62 69 125 50 47 105 26 87 146 58 101 160 72 50 105 28 63 109 38 77 130 55 87 151 63 87 153 58 111 175 74 135 199 100 131 195 107 90 155 77 99 148 75 63 115 34 104 165 75 
130 91 49 130 91 49 130 91 49 130 91 49 130 91 49 130 91 49 130 91 49 130 91 49 130 91 49 130 91 49 130 91 49 130 91 49 130 91 49 130 91 49 130 91 49 130 91 49 130 91 49 130 91 49 130 91 49 130 91 49 130 91 49 130 91 49 130 91 49 130 91 49 130 91 49 130 91 49 144 99 52 45 92 31 60 106 43 105 154 79 72 120 45 79 125 54 108 150 84 66 106 44 62 101 38 108 145 83 110 150 88 84 132 64 90 144 67 87 148 60 78 147 49 117 188 85 127 197 91 84 150 50 99 161 65 87 150 61 114 175 87 105 161 83 67 119 52 68 117 48 122 179 89 109 172 77 90 151 66 65 112 44 66 113 45 73 127 49 81 136 58 100 158 73 161 223 132 126 191 98 74 139 51 65 121 38 81 141 49 118 179 83 
130 91 49 130 91 49 130 91 49 130 91 49 130 91 49 130 91 49 130 91 49 130 91 49 130 91 49 130 91 49 130 91 49 130 91 49 130 91 49 130 91 49 130 91 49 130 91 49 130 91 49 130 91 49 130 91 49 130 91 49 130 91 49 130 91 49 130 91 49 130 91 49 130 91 49 130 91 49 144 99 52 66 120 47 67 117 48 86 137 58 48 94 26 50 97 29 62 105 45 110 150 92 99 134 81 75 110 56 110 147 91 88 132 68 107 159 84 92 153 65 72 139 43 117 188 84 107 177 72 93 160 58 106 170 70 103 164 70 72 128 44 67 119 45 84 137 55 109 163 78 90 144 62 66 120 41 87 144 60 36 86 15 38 84 22 91 141 71 45 97 24 64 121 42 142 204 115 90 153 64 93 156 66 73 141 42 96 167 63 133 204 98 
130 91 49 130 91 49 130 91 49 130 91 49 130 91 49 130 91 49 130 91 49 130 91 49 130 91 49 130 91 49 130 91 49 130 91 49 130 91 49 130 91 49 130 91 49 130 91 49 130 91 49 130 91 49 130 91 49 130 91 49 130 91 49 130 91 49 130 91 49 130 91 49 130 91 49 130 91 49 144 99 52 81 139 55 53 111 32 70 123 43 120 170 96 97 148 75 92 135 75 94 132 77 140 178 123 116 152 98 116 153 96 103 146 81 105 156 81 104 161 77 92 156 64 97 163 68 104 171 73 110 176 78 79 140 48 75 129 40 83 134 59 71 124 49 87 146 52 81 139 47 78 132 55 40 91 21 90 141 59 66 114 44 54 101 34 92 145 67 40 94 19 83 140 59 127 187 101 126 188 99 108 173 79 86 157 53 85 160 55 133 213 102 
130 91 49 130 91 49 130 91 49 130 91 49 130 91 49 130 91 49 130 91 49 130 91 49 130 91 49 130 91 49 130 91 49 130 91 49 130 91 49 130 91 49 130 91 49 130 91 49 130 91 49 130 91 49 130 91 49 130 91 49 130 91 49 130 91 49 130 91 49 130 91 49 130 91 49 130 91 49 144 99 52 83 149 51 71 136 36 88 146 58 155 216 123 77 132 50 65 107 48 125 169 104 139 179 120 43 80 28 90 134 64 92 138 68 90 141 67 95 151 71 87 146 64 95 156 71 92 155 67 113 177 87 59 120 34 52 101 24 37 88 17 67 126 46 85 153 55 68 136 38 105 164 81 58 114 35 92 143 63 59 110 34 92 147 66 73 128 46 79 136 54 89 146 65 83 141 61 59 113 40 141 201 115 97 157 67 103 173 73 113 188 87 
130 91 49 130 91 49 130 91 49 130 91 49 130 91 49 130 91 49 130 91 49 130 91 49 130 91 49 130 91 49 130 91 49 130 91 49 130 91 49 130 91 49 130 91 49 130 91 49 130 91 49 130 91 49 130 91 49 130 91 49 130 91 49 130 91 49 130 91 49 130 91 49 130 91 49 130 91 49 144 99 52 94 162 60 95 163 59 125 194 89 118 183 82 89 145 56 89 138 58 113 158 87 129 174 104 74 124 45 101 158 66 66 120 40 80 133 55 82 134 59 57 109 39 74 125 54 110 164 89 120 177 96 75 133 48 60 116 35 72 135 40 72 141 42 86 161 59 61 137 36 110 186 75 86 154 51 63 124 38 65 120 38 80 136 54 41 97 21 36 87 22 121 178 98 54 108 35 56 110 36 128 185 105 135 186 103 64 113 43 93 157 71 
130 91 49 130 91 49 130 91 49 130 91 49 130 91 49 130 91 49 130 91 49 130 91 49 130 91 49 130 91 49 130 91 49 130 91 49 130 91 49 130 91 49 130 91 49 130 91 49 130 91 49 130 91 49 130 91 49 130 91 49 130 91 49 130 91 49 130 91 49 130 91 49 130 91 49 130 91 49 144 99 52 86 153 57 78 148 45 117 188 80 69 133 39 81 135 53 106 153 75 108 153 80 87 134 58 85 140 55 67 127 39 53 106 30 100 151 76 74 122 52 48 96 29 94 140 76 106 156 88 113 168 89 94 152 65 94 159 65 79 151 41 97 171 58 76 151 50 82 158 55 113 190 70 96 171 56 54 120 29 75 133 46 37 94 12 39 96 17 70 126 46 88 146 64 89 147 66 67 123 47 56 104 37 81 119 59 83 120 66 106 160 82 
130 91 49 130 91 49 130 91 49 130 91 49 130 91 49 130 91 49 130 91 49 130 91 49 130 91 49 130 91 49 130 91 49 130 91 49 130 91 49 130 91 49 130 91 49 130 91 49 130 91 49 130 91 49 130 91 49 130 91 49 130 91 49 130 91 49 130 91 49 130 91 49 130 91 49 130 91 49 144 99 52 105 171 77 61 129 34 82 149 50 109 170 80 85 137 59 95 135 73 95 135 73 79 123 53 100 150 73 110 164 83 133 183 108 124 173 100 71 117 51 71 116 53 108 155 90 38 85 21 85 141 57 111 171 77 87 156 57 98 169 66 109 178 76 95 159 64 71 133 43 131 196 95 87 155 51 53 120 21 69 129 38 68 127 39 93 152 64 80 137 55 112 168 88 95 150 73 54 110 34 41 93 22 50 85 29 90 135 65 93 152 63 
130 91 49 130 91 49 130 91 49 130 91 49 130 91 49 130 91 49 130 91 49 130 91 49 130 91 49 130 91 49 130 91 49 130 91 49 130 91 49 130 91 49 130 91 49 130 91 49 130 91 49 130 91 49 130 91 49 130 91 49 130 91 49 130 91 49 130 91 49 130 91 49 130 91 49 130 91 49 144 99 52 107 174 80 68 131 43 70 132 39 63 119 37 74 122 50 55 91 40 79 115 63 78 118 56 71 114 50 94 140 73 115 169 90 73 122 54 60 110 41 53 102 37 57 105 41 67 121 44 110 170 77 90 151 57 61 135 28 112 182 87 77 139 52 87 145 54 59 111 30 137 191 110 97 156 71 77 143 41 55 115 24 77 136 47 67 124 40 75 130 50 98 153 75 50 100 34 44 95 29 72 122 54 71 110 52 46 95 24 101 162 69 
130 91 49 130 91 49 130 91 49 130 91 49 130 91 49 130 91 49 130 91 49 130 91 49 130 91 49 130 91 49 130 91 49 130 91 49 130 91 49 130 91 49 130 91 49 130 91 49 130 91 49 130 91 49 130 91 49 130 91 49 130 91 49 130 91 49 130 91 49 130 91 49 130 91 49 130 91 49 144 99 52 80 133 48 93 146 64 72 135 50 55 112 32 68 115 41 65 107 43 47 87 35 104 150 83 74 125 51 88 144 75 99 161 74 79 140 50 77 132 54 56 109 35 34 85 15 75 129 51 104 162 77 82 144 53 100 173 68 90 164 59 105 180 70 90 165 53 85 151 53 100 159 70 94 148 70 69 121 43 46 100 23 67 121 42 50 99 30 58 108 36 82 132 60 101 148 83 45 88 33 48 97 34 59 101 42 43 90 23 64 119 36 
130 91 49 130 91 49 130 91 49 130 91 49 130 91 49 130 91 49 130 91 49 130 91 49 130 91 49 130 91 49 130 91 49 130 91 49 130 91 49 130 91 49 130 91 49 130 91 49 130 91 49 130 91 49 130 91 49 130 91 49 130 91 49 130 91 49 130 91 49 130 91 49 130 91 49 130 91 49 144 99 52 72 123 39 70 121 46 92 153 70 63 121 36 66 117 39 63 109 35 117 165 93 129 181 98 80 139 42 72 136 45 56 120 31 121 183 88 98 153 69 44 97 22 42 94 22 98 150 72 55 110 30 59 117 32 98 170 67 82 157 49 92 162 57 127 195 91 99 161 67 62 122 33 102 157 78 71 125 48 63 112 45 24 73 7 25 75 6 69 118 46 61 111 38 81 132 61 118 173 97 53 102 37 39 88 22 28 80 5 33 86 9 
130 91 49 130 91 49 130 91 49 130 91 49 130 91 49 130 91 49 130 91 49 130 91 49 130 91 49 130 91 49 130 91 49 130 91 49 130 91 49 130 91 49 130 91 49 130 91 49 130 91 49 130 91 49 130 91 49 130 91 49 130 91 49 130 91 49 130 91 49 130 91 49 130 91 49 130 91 49 144 99 52 99 149 72 104 151 84 80 135 56 77 132 48 113 167 80 93 147 61 100 153 71 103 157 67 99 158 57 72 135 34 98 163 61 89 151 54 132 190 99 61 115 34 55 104 32 106 156 81 54 109 24 60 117 31 92 161 61 92 160 59 83 144 49 114 169 81 122 175 90 60 112 34 53 113 27 72 134 50 55 105 36 49 102 27 33 87 15 49 105 23 61 121 34 44 97 26 94 155 67 126 187 99 107 169 81 54 111 30 100 150 74 
