P3
9 9
255
0 0 0 0 0 0 0 0 0 0 0 0 0 0 0 0 0 0 84 119 52 84 119 52 0 0 0 
0 0 0 0 0 0 0 0 0 0 0 0 0 0 0 84 119 52 75 105 47 75 105 47 60 86 36 
0 0 0 0 0 0 0 0 0 0 0 0 0 0 0 75 105 47 75 105 47 60 86 36 60 86 36 
0 0 0 0 0 0 84 119 52 84 119 52 84 119 52 0 0 0 60 86 36 60 86 36 0 0 0 
0 0 0 84 119 52 75 105 47 75 105 47 75 105 47 75 105 47 0 0 0 0 0 0 0 0 0 
0 0 0 84 119 52 75 105 47 75 105 47 75 105 47 60 86 36 0 0 0 0 0 0 0 0 0 
0 0 0 75 105 47 75 105 47 75 105 47 60 86 36 60 86 36 0 0 0 0 0 0 0 0 0 
0 0 0 0 0 0 60 86 36 60 86 36 60 86 36 0 0 0 0 0 0 0 0 0 0 0 0 
0 0 0 0 0 0 0 0 0 0 0 0 0 0 0 0 0 0 0 0 0 0 0 0 0 0 0 
