P3
# Created by GIMP version 2.10.30 PNM plug-in
#
9 9
255
0 0 0 0 0 0 0 0 0 105 0 255 158 0 255 210 0 255 150 150 150 150 150 150 136 136 136 
0 0 0 0 0 0 0 0 255 52 0 255 106 0 255 150 150 150 119 119 119 119 119 119 104 104 104 
0 158 255 0 106 255 0 54 255 0 1 255 150 150 150 119 119 119 119 119 119 119 119 119 104 104 104 
0 194 255 0 141 255 0 106 255 150 150 150 119 119 119 119 119 119 119 119 119 104 104 104 210 0 255 
0 247 255 184 184 184 150 150 150 119 119 119 119 119 119 119 119 119 104 104 104 105 0 255 158 0 255 
0 255 210 184 184 184 184 184 184 114 114 114 119 119 119 104 104 104 0 1 255 52 0 255 105 0 255 
0 255 158 95 63 40 184 184 184 184 184 184 104 104 104 0 89 255 0 36 255 17 0 255 0 0 0 
95 63 40 95 63 40 95 63 40 184 184 184 184 184 184 0 141 255 0 88 255 0 0 0 0 0 0 
95 63 40 95 63 40 0 255 157 0 255 211 0 247 255 0 194 255 0 141 255 0 0 0 0 0 0 
