P3
64 64
255
0 0 0 0 0 0 0 0 0 0 0 0 0 0 0 0 0 0 0 0 0 0 0 0 0 0 0 0 0 0 0 0 0 0 0 0 0 0 0 0 0 0 0 0 0 0 0 0 0 0 0 0 0 0 0 0 0 0 0 0 0 0 0 0 0 0 0 0 0 0 0 0 0 0 0 0 0 0 0 0 0 0 0 0 0 0 0 0 0 0 0 0 0 0 0 0 0 0 0 0 0 0 0 0 0 0 0 0 0 0 0 0 0 0 0 0 0 0 0 0 0 0 0 0 0 0 0 0 0 0 0 0 0 0 0 0 0 0 0 0 0 0 0 0 0 0 0 0 0 0 0 0 0 0 0 0 0 0 0 0 0 0 0 0 0 0 0 0 0 0 0 0 0 0 0 0 0 0 0 0 0 0 0 0 0 0 0 0 0 0 0 0 
0 0 0 159 159 159 159 159 159 159 159 159 159 159 159 159 159 159 159 159 159 159 159 159 159 159 159 134 134 134 134 134 134 104 104 104 87 87 87 0 0 0 135 135 135 135 135 135 135 135 135 135 135 135 135 135 135 135 135 135 135 135 135 0 0 0 250 250 250 250 250 250 250 250 250 250 250 250 250 250 250 254 254 254 254 254 254 254 254 254 254 254 254 254 254 254 254 254 254 254 254 254 0 0 0 93 93 93 93 93 93 93 93 93 93 93 93 0 0 0 118 118 118 118 118 118 118 118 118 118 118 118 118 118 118 118 118 118 118 118 118 118 118 118 118 118 118 0 0 0 132 132 132 132 132 132 132 132 132 132 132 132 132 132 132 132 132 132 132 132 132 132 132 132 0 0 0 237 237 237 237 237 237 237 237 237 237 237 237 0 0 0 
0 0 0 159 159 159 159 159 159 159 159 159 134 134 134 134 134 134 134 134 134 134 134 134 134 134 134 109 109 109 104 104 104 104 104 104 83 83 83 0 0 0 135 135 135 135 135 135 135 135 135 135 135 135 135 135 135 135 135 135 135 135 135 135 135 135 0 0 0 250 250 250 250 250 250 254 254 254 254 254 254 254 254 254 254 254 254 254 254 254 254 254 254 254 254 254 0 0 0 0 0 0 93 93 93 93 93 93 93 93 93 93 93 93 0 0 0 118 118 118 118 118 118 118 118 118 118 118 118 118 118 118 118 118 118 118 118 118 118 118 118 118 118 118 118 118 118 0 0 0 132 132 132 132 132 132 132 132 132 132 132 132 132 132 132 132 132 132 132 132 132 132 132 132 132 132 132 0 0 0 0 0 0 237 237 237 237 237 237 0 0 0 
0 0 0 134 134 134 134 134 134 134 134 134 109 109 109 104 104 104 104 104 104 104 104 104 104 104 104 104 104 104 104 104 104 83 83 83 0 0 0 135 135 135 135 135 135 135 135 135 135 135 135 135 135 135 135 135 135 135 135 135 135 135 135 135 135 135 135 135 135 0 0 0 254 254 254 254 254 254 254 254 254 254 254 254 254 254 254 254 254 254 0 0 0 0 0 0 93 93 93 93 93 93 93 93 93 93 93 93 93 93 93 93 93 93 0 0 0 118 118 118 118 118 118 118 118 118 118 118 118 118 118 118 118 118 118 118 118 118 118 118 118 118 118 118 118 118 118 0 0 0 132 132 132 132 132 132 132 132 132 132 132 132 132 132 132 132 132 132 132 132 132 132 132 132 132 132 132 132 132 132 132 132 132 0 0 0 237 237 237 0 0 0 
0 0 0 109 109 109 104 104 104 104 104 104 104 104 104 104 104 104 104 104 104 104 104 104 104 104 104 104 104 104 104 104 104 83 83 83 0 0 0 135 135 135 135 135 135 135 135 135 135 135 135 135 135 135 135 135 135 135 135 135 135 135 135 135 135 135 135 135 135 0 0 0 254 254 254 254 254 254 254 254 254 254 254 254 254 254 254 0 0 0 93 93 93 93 93 93 93 93 93 93 93 93 93 93 93 93 93 93 93 93 93 93 93 93 0 0 0 118 118 118 118 118 118 118 118 118 118 118 118 118 118 118 118 118 118 118 118 118 118 118 118 118 118 118 118 118 118 0 0 0 132 132 132 132 132 132 132 132 132 132 132 132 132 132 132 132 132 132 132 132 132 132 132 132 132 132 132 132 132 132 132 132 132 132 132 132 0 0 0 0 0 0 
0 0 0 109 109 109 104 104 104 104 104 104 104 104 104 104 104 104 104 104 104 104 104 104 104 104 104 104 104 104 87 87 87 83 83 83 0 0 0 135 135 135 135 135 135 135 135 135 135 135 135 135 135 135 135 135 135 135 135 135 135 135 135 135 135 135 135 135 135 135 135 135 0 0 0 254 254 254 0 0 0 0 0 0 0 0 0 93 93 93 93 93 93 93 93 93 93 93 93 93 93 93 93 93 93 93 93 93 93 93 93 0 0 0 118 118 118 118 118 118 118 118 118 118 118 118 118 118 118 118 118 118 118 118 118 118 118 118 118 118 118 118 118 118 0 0 0 132 132 132 132 132 132 132 132 132 132 132 132 132 132 132 132 132 132 132 132 132 132 132 132 132 132 132 132 132 132 132 132 132 132 132 132 132 132 132 132 132 132 0 0 0 
0 0 0 104 104 104 104 104 104 104 104 104 104 104 104 104 104 104 104 104 104 104 104 104 104 104 104 104 104 104 83 83 83 0 0 0 135 135 135 135 135 135 135 135 135 135 135 135 135 135 135 135 135 135 135 135 135 135 135 135 135 135 135 135 135 135 135 135 135 135 135 135 135 135 135 0 0 0 93 93 93 93 93 93 93 93 93 93 93 93 93 93 93 93 93 93 93 93 93 93 93 93 93 93 93 93 93 93 93 93 93 0 0 0 118 118 118 118 118 118 118 118 118 118 118 118 118 118 118 118 118 118 118 118 118 118 118 118 118 118 118 118 118 118 0 0 0 132 132 132 132 132 132 132 132 132 132 132 132 132 132 132 132 132 132 132 132 132 132 132 132 132 132 132 132 132 132 132 132 132 132 132 132 132 132 132 132 132 132 0 0 0 
0 0 0 104 104 104 104 104 104 104 104 104 104 104 104 104 104 104 104 104 104 104 104 104 104 104 104 104 104 104 83 83 83 0 0 0 135 135 135 135 135 135 135 135 135 135 135 135 135 135 135 135 135 135 135 135 135 135 135 135 135 135 135 135 135 135 135 135 135 135 135 135 135 135 135 135 135 135 0 0 0 93 93 93 93 93 93 93 93 93 93 93 93 93 93 93 93 93 93 93 93 93 93 93 93 93 93 93 93 93 93 0 0 0 118 118 118 118 118 118 118 118 118 118 118 118 118 118 118 118 118 118 118 118 118 118 118 118 118 118 118 118 118 118 0 0 0 132 132 132 132 132 132 132 132 132 132 132 132 132 132 132 132 132 132 132 132 132 132 132 132 132 132 132 132 132 132 132 132 132 132 132 132 132 132 132 132 132 132 0 0 0 
0 0 0 104 104 104 104 104 104 104 104 104 104 104 104 104 104 104 104 104 104 104 104 104 104 104 104 87 87 87 83 83 83 0 0 0 135 135 135 135 135 135 135 135 135 135 135 135 135 135 135 135 135 135 135 135 135 135 135 135 135 135 135 135 135 135 135 135 135 135 135 135 135 135 135 0 0 0 93 93 93 93 93 93 93 93 93 93 93 93 93 93 93 93 93 93 93 93 93 93 93 93 93 93 93 93 93 93 0 0 0 118 118 118 118 118 118 118 118 118 118 118 118 118 118 118 118 118 118 118 118 118 118 118 118 118 118 118 118 118 118 0 0 0 181 181 181 0 0 0 132 132 132 132 132 132 132 132 132 132 132 132 132 132 132 132 132 132 132 132 132 132 132 132 132 132 132 132 132 132 132 132 132 132 132 132 132 132 132 0 0 0 
0 0 0 104 104 104 104 104 104 104 104 104 104 104 104 104 104 104 104 104 104 104 104 104 104 104 104 87 87 87 83 83 83 0 0 0 135 135 135 135 135 135 135 135 135 135 135 135 135 135 135 135 135 135 135 135 135 135 135 135 135 135 135 135 135 135 135 135 135 0 0 0 0 0 0 180 180 180 0 0 0 93 93 93 93 93 93 93 93 93 93 93 93 93 93 93 93 93 93 93 93 93 93 93 93 93 93 93 0 0 0 118 118 118 118 118 118 118 118 118 118 118 118 118 118 118 118 118 118 118 118 118 0 0 0 0 0 0 0 0 0 181 181 181 181 181 181 181 181 181 0 0 0 132 132 132 132 132 132 132 132 132 132 132 132 132 132 132 132 132 132 132 132 132 132 132 132 132 132 132 132 132 132 132 132 132 132 132 132 0 0 0 
0 0 0 104 104 104 104 104 104 104 104 104 104 104 104 104 104 104 104 104 104 104 104 104 104 104 104 83 83 83 0 0 0 135 135 135 135 135 135 135 135 135 135 135 135 135 135 135 135 135 135 135 135 135 135 135 135 135 135 135 135 135 135 0 0 0 0 0 0 180 180 180 180 180 180 180 180 180 180 180 180 0 0 0 93 93 93 93 93 93 93 93 93 93 93 93 93 93 93 93 93 93 93 93 93 93 93 93 0 0 0 118 118 118 118 118 118 118 118 118 118 118 118 118 118 118 0 0 0 0 0 0 181 181 181 181 181 181 181 181 181 181 181 181 181 181 181 181 181 181 0 0 0 132 132 132 132 132 132 132 132 132 132 132 132 132 132 132 132 132 132 132 132 132 132 132 132 132 132 132 132 132 132 132 132 132 132 132 132 0 0 0 
0 0 0 0 0 0 104 104 104 104 104 104 104 104 104 104 104 104 104 104 104 104 104 104 87 87 87 83 83 83 0 0 0 135 135 135 135 135 135 135 135 135 135 135 135 135 135 135 135 135 135 135 135 135 135 135 135 135 135 135 0 0 0 180 180 180 180 180 180 180 180 180 180 180 180 180 180 180 180 180 180 180 180 180 0 0 0 93 93 93 93 93 93 93 93 93 93 93 93 93 93 93 93 93 93 0 0 0 118 118 118 118 118 118 118 118 118 0 0 0 0 0 0 0 0 0 181 181 181 181 181 181 181 181 181 181 181 181 181 181 181 181 181 181 181 181 181 181 181 181 181 181 181 0 0 0 132 132 132 132 132 132 132 132 132 132 132 132 132 132 132 132 132 132 132 132 132 132 132 132 132 132 132 132 132 132 132 132 132 0 0 0 
0 0 0 197 197 197 0 0 0 0 0 0 104 104 104 104 104 104 104 104 104 87 87 87 83 83 83 83 83 83 0 0 0 135 135 135 135 135 135 135 135 135 135 135 135 135 135 135 135 135 135 135 135 135 0 0 0 0 0 0 180 180 180 180 180 180 180 180 180 180 180 180 180 180 180 180 180 180 180 180 180 180 180 180 180 180 180 0 0 0 93 93 93 93 93 93 93 93 93 93 93 93 93 93 93 0 0 0 118 118 118 0 0 0 0 0 0 181 181 181 181 181 181 181 181 181 181 181 181 181 181 181 181 181 181 181 181 181 181 181 181 181 181 181 181 181 181 181 181 181 181 181 181 0 0 0 132 132 132 132 132 132 132 132 132 132 132 132 132 132 132 132 132 132 132 132 132 132 132 132 132 132 132 132 132 132 132 132 132 0 0 0 
0 0 0 197 197 197 197 197 197 197 197 197 0 0 0 0 0 0 83 83 83 83 83 83 66 66 66 0 0 0 135 135 135 135 135 135 135 135 135 135 135 135 135 135 135 135 135 135 0 0 0 0 0 0 180 180 180 180 180 180 180 180 180 180 180 180 180 180 180 180 180 180 180 180 180 180 180 180 180 180 180 180 180 180 180 180 180 0 0 0 93 93 93 93 93 93 93 93 93 93 93 93 93 93 93 0 0 0 0 0 0 181 181 181 181 181 181 181 181 181 181 181 181 181 181 181 181 181 181 181 181 181 181 181 181 181 181 181 181 181 181 181 181 181 181 181 181 181 181 181 181 181 181 181 181 181 0 0 0 132 132 132 132 132 132 132 132 132 132 132 132 132 132 132 132 132 132 132 132 132 0 0 0 0 0 0 0 0 0 0 0 0 
0 0 0 197 197 197 197 197 197 197 197 197 197 197 197 197 197 197 0 0 0 0 0 0 66 66 66 0 0 0 135 135 135 135 135 135 135 135 135 135 135 135 0 0 0 0 0 0 180 180 180 180 180 180 180 180 180 180 180 180 180 180 180 180 180 180 180 180 180 180 180 180 180 180 180 180 180 180 180 180 180 180 180 180 180 180 180 180 180 180 0 0 0 93 93 93 93 93 93 93 93 93 0 0 0 181 181 181 181 181 181 181 181 181 181 181 181 181 181 181 181 181 181 181 181 181 181 181 181 181 181 181 181 181 181 181 181 181 181 181 181 181 181 181 181 181 181 181 181 181 181 181 181 181 181 181 181 181 181 0 0 0 132 132 132 132 132 132 132 132 132 0 0 0 0 0 0 0 0 0 209 209 209 209 209 209 209 209 209 0 0 0 
0 0 0 197 197 197 197 197 197 197 197 197 197 197 197 197 197 197 197 197 197 197 197 197 0 0 0 135 135 135 135 135 135 135 135 135 135 135 135 0 0 0 180 180 180 180 180 180 180 180 180 180 180 180 180 180 180 180 180 180 180 180 180 180 180 180 180 180 180 180 180 180 180 180 180 180 180 180 180 180 180 180 180 180 180 180 180 180 180 180 180 180 180 0 0 0 93 93 93 0 0 0 181 181 181 181 181 181 181 181 181 181 181 181 181 181 181 181 181 181 181 181 181 181 181 181 181 181 181 181 181 181 181 181 181 181 181 181 181 181 181 181 181 181 181 181 181 181 181 181 181 181 181 181 181 181 181 181 181 0 0 0 132 132 132 0 0 0 0 0 0 209 209 209 209 209 209 209 209 209 209 209 209 209 209 209 209 209 209 0 0 0 
0 0 0 197 197 197 197 197 197 197 197 197 197 197 197 197 197 197 197 197 197 197 197 197 197 197 197 0 0 0 135 135 135 0 0 0 0 0 0 180 180 180 180 180 180 180 180 180 180 180 180 180 180 180 180 180 180 180 180 180 180 180 180 180 180 180 180 180 180 180 180 180 180 180 180 180 180 180 180 180 180 180 180 180 180 180 180 180 180 180 180 180 180 180 180 180 0 0 0 181 181 181 181 181 181 181 181 181 181 181 181 181 181 181 181 181 181 181 181 181 181 181 181 181 181 181 181 181 181 181 181 181 181 181 181 181 181 181 181 181 181 181 181 181 181 181 181 181 181 181 181 181 181 181 181 181 181 181 181 181 181 181 0 0 0 209 209 209 209 209 209 209 209 209 209 209 209 209 209 209 209 209 209 209 209 209 209 209 209 0 0 0 
0 0 0 197 197 197 197 197 197 197 197 197 197 197 197 197 197 197 197 197 197 197 197 197 197 197 197 0 0 0 0 0 0 180 180 180 180 180 180 180 180 180 180 180 180 180 180 180 180 180 180 180 180 180 180 180 180 180 180 180 180 180 180 180 180 180 180 180 180 180 180 180 180 180 180 180 180 180 180 180 180 180 180 180 180 180 180 180 180 180 180 180 180 180 180 180 0 0 0 181 181 181 181 181 181 181 181 181 181 181 181 181 181 181 181 181 181 181 181 181 181 181 181 181 181 181 181 181 181 181 181 181 181 181 181 181 181 181 181 181 181 181 181 181 181 181 181 181 181 181 181 181 181 181 181 181 181 181 181 0 0 0 209 209 209 209 209 209 209 209 209 209 209 209 209 209 209 209 209 209 209 209 209 209 209 209 209 209 209 0 0 0 
0 0 0 197 197 197 197 197 197 197 197 197 197 197 197 197 197 197 197 197 197 197 197 197 197 197 197 0 0 0 180 180 180 180 180 180 180 180 180 180 180 180 180 180 180 180 180 180 180 180 180 180 180 180 180 180 180 180 180 180 180 180 180 180 180 180 180 180 180 180 180 180 180 180 180 180 180 180 180 180 180 180 180 180 180 180 180 180 180 180 180 180 180 180 180 180 0 0 0 181 181 181 181 181 181 181 181 181 181 181 181 181 181 181 181 181 181 181 181 181 181 181 181 181 181 181 181 181 181 181 181 181 181 181 181 181 181 181 181 181 181 181 181 181 181 181 181 181 181 181 181 181 181 181 181 181 0 0 0 209 209 209 209 209 209 209 209 209 209 209 209 209 209 209 209 209 209 209 209 209 209 209 209 209 209 209 209 209 209 0 0 0 
0 0 0 197 197 197 197 197 197 197 197 197 197 197 197 197 197 197 197 197 197 197 197 197 197 197 197 197 197 197 0 0 0 180 180 180 180 180 180 180 180 180 180 180 180 180 180 180 180 180 180 180 180 180 180 180 180 180 180 180 180 180 180 180 180 180 180 180 180 180 180 180 180 180 180 180 180 180 180 180 180 180 180 180 180 180 180 180 180 180 180 180 180 180 180 180 0 0 0 181 181 181 181 181 181 181 181 181 181 181 181 181 181 181 181 181 181 181 181 181 181 181 181 181 181 181 181 181 181 181 181 181 181 181 181 181 181 181 181 181 181 181 181 181 181 181 181 181 181 181 181 181 181 181 181 181 0 0 0 209 209 209 209 209 209 209 209 209 209 209 209 209 209 209 209 209 209 209 209 209 209 209 209 209 209 209 209 209 209 0 0 0 
0 0 0 197 197 197 197 197 197 197 197 197 197 197 197 197 197 197 197 197 197 197 197 197 197 197 197 197 197 197 0 0 0 180 180 180 180 180 180 180 180 180 180 180 180 180 180 180 180 180 180 180 180 180 180 180 180 180 180 180 180 180 180 180 180 180 180 180 180 180 180 180 180 180 180 180 180 180 180 180 180 180 180 180 180 180 180 180 180 180 180 180 180 180 180 180 0 0 0 181 181 181 181 181 181 181 181 181 181 181 181 181 181 181 181 181 181 181 181 181 181 181 181 181 181 181 181 181 181 181 181 181 181 181 181 181 181 181 181 181 181 181 181 181 181 181 181 181 181 181 181 181 181 181 181 181 0 0 0 209 209 209 209 209 209 209 209 209 209 209 209 209 209 209 209 209 209 209 209 209 209 209 209 209 209 209 209 209 209 0 0 0 
0 0 0 197 197 197 197 197 197 197 197 197 197 197 197 197 197 197 197 197 197 197 197 197 197 197 197 197 197 197 0 0 0 180 180 180 180 180 180 180 180 180 180 180 180 180 180 180 180 180 180 180 180 180 180 180 180 180 180 180 180 180 180 180 180 180 180 180 180 180 180 180 180 180 180 180 180 180 180 180 180 180 180 180 180 180 180 180 180 180 180 180 180 180 180 180 0 0 0 181 181 181 181 181 181 181 181 181 181 181 181 181 181 181 181 181 181 181 181 181 181 181 181 181 181 181 181 181 181 181 181 181 181 181 181 181 181 181 181 181 181 181 181 181 181 181 181 181 181 181 181 181 181 0 0 0 209 209 209 209 209 209 209 209 209 209 209 209 209 209 209 209 209 209 209 209 209 209 209 209 209 209 209 209 209 209 209 209 209 0 0 0 
0 0 0 197 197 197 197 197 197 197 197 197 197 197 197 197 197 197 197 197 197 197 197 197 197 197 197 197 197 197 0 0 0 180 180 180 180 180 180 180 180 180 180 180 180 180 180 180 180 180 180 180 180 180 180 180 180 180 180 180 180 180 180 180 180 180 180 180 180 180 180 180 180 180 180 180 180 180 180 180 180 180 180 180 180 180 180 180 180 180 180 180 180 180 180 180 0 0 0 181 181 181 181 181 181 181 181 181 181 181 181 181 181 181 181 181 181 181 181 181 181 181 181 181 181 181 181 181 181 181 181 181 181 181 181 181 181 181 181 181 181 181 181 181 181 181 181 181 181 181 181 181 181 0 0 0 209 209 209 209 209 209 209 209 209 209 209 209 209 209 209 209 209 209 209 209 209 209 209 209 209 209 209 209 209 209 209 209 209 0 0 0 
0 0 0 197 197 197 197 197 197 197 197 197 197 197 197 197 197 197 197 197 197 197 197 197 197 197 197 197 197 197 0 0 0 180 180 180 180 180 180 180 180 180 180 180 180 180 180 180 180 180 180 180 180 180 180 180 180 180 180 180 180 180 180 180 180 180 180 180 180 180 180 180 180 180 180 180 180 180 180 180 180 180 180 180 180 180 180 180 180 180 180 180 180 180 180 180 0 0 0 181 181 181 181 181 181 181 181 181 181 181 181 181 181 181 181 181 181 181 181 181 181 181 181 181 181 181 181 181 181 181 181 181 181 181 181 181 181 181 181 181 181 181 181 181 181 181 181 181 181 181 181 181 181 0 0 0 209 209 209 209 209 209 209 209 209 209 209 209 209 209 209 209 209 209 209 209 209 209 209 209 209 209 209 209 209 209 209 209 209 0 0 0 
0 0 0 0 0 0 0 0 0 197 197 197 197 197 197 197 197 197 197 197 197 197 197 197 197 197 197 197 197 197 0 0 0 180 180 180 180 180 180 180 180 180 180 180 180 180 180 180 180 180 180 180 180 180 180 180 180 180 180 180 180 180 180 180 180 180 180 180 180 180 180 180 180 180 180 180 180 180 180 180 180 180 180 180 180 180 180 180 180 180 180 180 180 180 180 180 0 0 0 181 181 181 181 181 181 181 181 181 181 181 181 181 181 181 181 181 181 181 181 181 181 181 181 181 181 181 181 181 181 181 181 181 181 181 181 181 181 181 181 181 181 181 181 181 181 181 181 181 181 181 0 0 0 209 209 209 209 209 209 209 209 209 209 209 209 209 209 209 209 209 209 209 209 209 209 209 209 209 209 209 209 209 209 209 209 209 209 209 209 0 0 0 
0 0 0 241 241 241 241 241 241 0 0 0 0 0 0 0 0 0 197 197 197 197 197 197 197 197 197 197 197 197 0 0 0 180 180 180 180 180 180 180 180 180 180 180 180 180 180 180 180 180 180 180 180 180 180 180 180 180 180 180 180 180 180 180 180 180 180 180 180 180 180 180 180 180 180 180 180 180 180 180 180 180 180 180 180 180 180 180 180 180 180 180 180 180 180 180 0 0 0 181 181 181 181 181 181 181 181 181 181 181 181 181 181 181 181 181 181 181 181 181 181 181 181 181 181 181 181 181 181 181 181 181 181 181 181 181 181 181 181 181 181 181 181 181 181 181 181 181 181 181 0 0 0 209 209 209 209 209 209 209 209 209 209 209 209 209 209 209 209 209 209 209 209 209 209 209 209 209 209 209 209 209 209 209 209 209 209 209 209 0 0 0 
0 0 0 241 241 241 241 241 241 241 241 241 241 241 241 241 241 241 0 0 0 0 0 0 0 0 0 0 0 0 197 197 197 0 0 0 180 180 180 180 180 180 180 180 180 180 180 180 180 180 180 180 180 180 180 180 180 180 180 180 180 180 180 180 180 180 180 180 180 180 180 180 180 180 180 180 180 180 180 180 180 180 180 180 180 180 180 180 180 180 180 180 180 180 180 180 0 0 0 181 181 181 181 181 181 181 181 181 181 181 181 181 181 181 181 181 181 181 181 181 181 181 181 181 181 181 181 181 181 181 181 181 181 181 181 181 181 181 181 181 181 181 181 181 181 181 181 0 0 0 0 0 0 209 209 209 209 209 209 209 209 209 209 209 209 209 209 209 209 209 209 209 209 209 209 209 209 209 209 209 209 209 209 209 209 209 209 209 209 0 0 0 
0 0 0 241 241 241 241 241 241 241 241 241 241 241 241 241 241 241 241 241 241 241 241 241 241 241 241 241 241 241 0 0 0 0 0 0 180 180 180 180 180 180 180 180 180 180 180 180 180 180 180 180 180 180 180 180 180 180 180 180 180 180 180 180 180 180 180 180 180 180 180 180 180 180 180 180 180 180 180 180 180 180 180 180 180 180 180 180 180 180 180 180 180 180 180 180 0 0 0 0 0 0 0 0 0 0 0 0 0 0 0 0 0 0 0 0 0 0 0 0 0 0 0 0 0 0 0 0 0 0 0 0 0 0 0 0 0 0 0 0 0 0 0 0 0 0 0 120 120 120 120 120 120 0 0 0 0 0 0 0 0 0 209 209 209 209 209 209 209 209 209 209 209 209 209 209 209 209 209 209 209 209 209 209 209 209 209 209 209 0 0 0 
0 0 0 241 241 241 241 241 241 241 241 241 241 241 241 241 241 241 241 241 241 241 241 241 241 241 241 241 241 241 241 241 241 241 241 241 0 0 0 0 0 0 0 0 0 180 180 180 180 180 180 180 180 180 180 180 180 180 180 180 180 180 180 180 180 180 180 180 180 180 180 180 180 180 180 180 180 180 180 180 180 180 180 180 180 180 180 180 180 180 180 180 180 0 0 0 129 129 129 129 129 129 129 129 129 129 129 129 129 129 129 129 129 129 129 129 129 129 129 129 129 129 129 129 129 129 129 129 129 129 129 129 129 129 129 129 129 129 0 0 0 120 120 120 120 120 120 120 120 120 120 120 120 120 120 120 120 120 120 120 120 120 0 0 0 0 0 0 209 209 209 209 209 209 209 209 209 209 209 209 209 209 209 209 209 209 209 209 209 0 0 0 
0 0 0 241 241 241 241 241 241 241 241 241 241 241 241 241 241 241 241 241 241 241 241 241 241 241 241 241 241 241 241 241 241 0 0 0 156 156 156 156 156 156 156 156 156 0 0 0 0 0 0 0 0 0 180 180 180 180 180 180 180 180 180 180 180 180 180 180 180 180 180 180 180 180 180 180 180 180 180 180 180 0 0 0 0 0 0 0 0 0 0 0 0 129 129 129 129 129 129 129 129 129 129 129 129 129 129 129 129 129 129 129 129 129 129 129 129 129 129 129 129 129 129 129 129 129 129 129 129 129 129 129 129 129 129 129 129 129 0 0 0 120 120 120 120 120 120 120 120 120 120 120 120 120 120 120 120 120 120 120 120 120 120 120 120 120 120 120 0 0 0 0 0 0 209 209 209 209 209 209 209 209 209 209 209 209 209 209 209 0 0 0 
0 0 0 241 241 241 241 241 241 241 241 241 241 241 241 241 241 241 241 241 241 241 241 241 241 241 241 241 241 241 0 0 0 156 156 156 156 156 156 156 156 156 156 156 156 156 156 156 156 156 156 156 156 156 0 0 0 0 0 0 0 0 0 0 0 0 0 0 0 0 0 0 0 0 0 0 0 0 0 0 0 170 170 170 170 170 170 170 170 170 0 0 0 129 129 129 129 129 129 129 129 129 129 129 129 129 129 129 129 129 129 129 129 129 129 129 129 129 129 129 129 129 129 129 129 129 129 129 129 129 129 129 129 129 129 129 129 129 0 0 0 120 120 120 120 120 120 120 120 120 120 120 120 120 120 120 120 120 120 120 120 120 120 120 120 120 120 120 0 0 0 126 126 126 0 0 0 0 0 0 0 0 0 0 0 0 0 0 0 0 0 0 
0 0 0 241 241 241 241 241 241 241 241 241 241 241 241 241 241 241 241 241 241 241 241 241 241 241 241 0 0 0 156 156 156 156 156 156 156 156 156 156 156 156 156 156 156 156 156 156 156 156 156 156 156 156 156 156 156 156 156 156 0 0 0 170 170 170 170 170 170 170 170 170 170 170 170 170 170 170 170 170 170 170 170 170 170 170 170 170 170 170 170 170 170 0 0 0 129 129 129 129 129 129 129 129 129 129 129 129 129 129 129 129 129 129 129 129 129 129 129 129 129 129 129 129 129 129 129 129 129 129 129 129 129 129 129 129 129 129 0 0 0 120 120 120 120 120 120 120 120 120 120 120 120 120 120 120 120 120 120 120 120 120 120 120 120 120 120 120 0 0 0 126 126 126 126 126 126 126 126 126 126 126 126 126 126 126 126 126 126 0 0 0 
0 0 0 241 241 241 241 241 241 241 241 241 241 241 241 241 241 241 241 241 241 241 241 241 0 0 0 156 156 156 156 156 156 156 156 156 156 156 156 156 156 156 156 156 156 156 156 156 156 156 156 156 156 156 156 156 156 156 156 156 0 0 0 170 170 170 170 170 170 170 170 170 170 170 170 170 170 170 170 170 170 170 170 170 170 170 170 170 170 170 170 170 170 0 0 0 129 129 129 129 129 129 129 129 129 129 129 129 129 129 129 129 129 129 129 129 129 129 129 129 129 129 129 129 129 129 129 129 129 129 129 129 129 129 129 129 129 129 0 0 0 120 120 120 120 120 120 120 120 120 120 120 120 120 120 120 120 120 120 120 120 120 120 120 120 120 120 120 0 0 0 126 126 126 126 126 126 126 126 126 126 126 126 126 126 126 126 126 126 0 0 0 
0 0 0 241 241 241 241 241 241 241 241 241 241 241 241 241 241 241 0 0 0 0 0 0 0 0 0 156 156 156 156 156 156 156 156 156 156 156 156 156 156 156 156 156 156 156 156 156 156 156 156 156 156 156 156 156 156 156 156 156 0 0 0 170 170 170 170 170 170 170 170 170 170 170 170 170 170 170 170 170 170 170 170 170 170 170 170 170 170 170 170 170 170 0 0 0 129 129 129 129 129 129 129 129 129 129 129 129 129 129 129 129 129 129 129 129 129 129 129 129 129 129 129 129 129 129 129 129 129 129 129 129 129 129 129 129 129 129 129 129 129 0 0 0 120 120 120 120 120 120 120 120 120 120 120 120 120 120 120 120 120 120 120 120 120 120 120 120 0 0 0 126 126 126 126 126 126 126 126 126 126 126 126 126 126 126 126 126 126 0 0 0 
0 0 0 0 0 0 0 0 0 0 0 0 0 0 0 0 0 0 153 153 153 153 153 153 0 0 0 156 156 156 156 156 156 156 156 156 156 156 156 156 156 156 156 156 156 156 156 156 156 156 156 156 156 156 156 156 156 0 0 0 170 170 170 170 170 170 170 170 170 170 170 170 170 170 170 170 170 170 170 170 170 170 170 170 170 170 170 170 170 170 170 170 170 170 170 170 0 0 0 129 129 129 129 129 129 129 129 129 129 129 129 129 129 129 129 129 129 129 129 129 129 129 129 129 129 129 129 129 129 129 129 129 129 129 129 129 129 129 129 129 129 0 0 0 120 120 120 120 120 120 120 120 120 120 120 120 120 120 120 120 120 120 120 120 120 120 120 120 0 0 0 126 126 126 126 126 126 126 126 126 126 126 126 126 126 126 126 126 126 0 0 0 
0 0 0 128 128 128 128 128 128 128 128 128 128 128 128 0 0 0 153 153 153 153 153 153 0 0 0 156 156 156 156 156 156 156 156 156 156 156 156 156 156 156 156 156 156 156 156 156 156 156 156 156 156 156 156 156 156 0 0 0 170 170 170 170 170 170 170 170 170 170 170 170 170 170 170 170 170 170 170 170 170 170 170 170 170 170 170 170 170 170 170 170 170 170 170 170 0 0 0 129 129 129 129 129 129 129 129 129 129 129 129 129 129 129 129 129 129 129 129 129 129 129 129 129 129 129 129 129 129 129 129 129 129 129 129 129 129 129 129 129 129 0 0 0 120 120 120 120 120 120 120 120 120 120 120 120 120 120 120 120 120 120 120 120 120 120 120 120 0 0 0 126 126 126 126 126 126 126 126 126 126 126 126 126 126 126 126 126 126 0 0 0 
0 0 0 128 128 128 128 128 128 128 128 128 0 0 0 153 153 153 153 153 153 153 153 153 0 0 0 156 156 156 156 156 156 156 156 156 156 156 156 156 156 156 156 156 156 156 156 156 156 156 156 156 156 156 156 156 156 0 0 0 170 170 170 170 170 170 170 170 170 170 170 170 170 170 170 170 170 170 170 170 170 170 170 170 170 170 170 170 170 170 170 170 170 170 170 170 0 0 0 129 129 129 129 129 129 129 129 129 129 129 129 129 129 129 129 129 129 129 129 129 129 129 129 129 129 129 129 129 129 129 129 129 129 129 129 129 129 129 129 129 129 0 0 0 120 120 120 120 120 120 120 120 120 120 120 120 120 120 120 120 120 120 120 120 120 120 120 120 0 0 0 126 126 126 126 126 126 126 126 126 126 126 126 126 126 126 126 126 126 0 0 0 
0 0 0 128 128 128 128 128 128 128 128 128 0 0 0 153 153 153 153 153 153 153 153 153 0 0 0 156 156 156 156 156 156 156 156 156 156 156 156 156 156 156 156 156 156 156 156 156 156 156 156 156 156 156 156 156 156 0 0 0 170 170 170 170 170 170 170 170 170 170 170 170 170 170 170 170 170 170 170 170 170 170 170 170 170 170 170 170 170 170 170 170 170 170 170 170 170 170 170 0 0 0 129 129 129 129 129 129 129 129 129 129 129 129 129 129 129 129 129 129 129 129 129 129 129 129 129 129 129 129 129 129 129 129 129 129 129 129 129 129 129 0 0 0 120 120 120 120 120 120 120 120 120 120 120 120 120 120 120 120 120 120 120 120 120 0 0 0 126 126 126 126 126 126 126 126 126 126 126 126 126 126 126 126 126 126 126 126 126 0 0 0 
0 0 0 128 128 128 128 128 128 0 0 0 153 153 153 153 153 153 153 153 153 153 153 153 0 0 0 156 156 156 156 156 156 156 156 156 156 156 156 156 156 156 156 156 156 156 156 156 156 156 156 156 156 156 156 156 156 0 0 0 170 170 170 170 170 170 170 170 170 170 170 170 170 170 170 170 170 170 170 170 170 170 170 170 170 170 170 170 170 170 170 170 170 170 170 170 170 170 170 0 0 0 129 129 129 129 129 129 129 129 129 129 129 129 129 129 129 129 129 129 129 129 129 129 129 129 129 129 129 129 129 129 129 129 129 129 129 129 129 129 129 0 0 0 120 120 120 120 120 120 120 120 120 120 120 120 120 120 120 120 120 120 120 120 120 0 0 0 126 126 126 126 126 126 126 126 126 126 126 126 126 126 126 126 126 126 126 126 126 0 0 0 
0 0 0 128 128 128 128 128 128 0 0 0 153 153 153 153 153 153 153 153 153 153 153 153 0 0 0 156 156 156 156 156 156 156 156 156 156 156 156 156 156 156 156 156 156 156 156 156 156 156 156 156 156 156 156 156 156 0 0 0 170 170 170 170 170 170 170 170 170 170 170 170 170 170 170 170 170 170 170 170 170 170 170 170 170 170 170 170 170 170 170 170 170 170 170 170 170 170 170 170 170 170 0 0 0 129 129 129 129 129 129 129 129 129 129 129 129 129 129 129 129 129 129 129 129 129 129 129 129 129 129 129 129 129 129 129 129 129 129 129 129 0 0 0 120 120 120 120 120 120 120 120 120 120 120 120 120 120 120 120 120 120 120 120 120 0 0 0 126 126 126 126 126 126 126 126 126 126 126 126 126 126 126 126 126 126 126 126 126 0 0 0 
0 0 0 128 128 128 0 0 0 153 153 153 153 153 153 153 153 153 153 153 153 153 153 153 0 0 0 156 156 156 156 156 156 156 156 156 156 156 156 156 156 156 156 156 156 156 156 156 156 156 156 156 156 156 0 0 0 0 0 0 170 170 170 170 170 170 170 170 170 170 170 170 170 170 170 170 170 170 170 170 170 170 170 170 170 170 170 170 170 170 170 170 170 170 170 170 170 170 170 170 170 170 170 170 170 0 0 0 0 0 0 129 129 129 129 129 129 129 129 129 129 129 129 129 129 129 129 129 129 129 129 129 129 129 129 129 129 129 129 129 129 0 0 0 120 120 120 120 120 120 120 120 120 120 120 120 120 120 120 120 120 120 120 120 120 0 0 0 126 126 126 126 126 126 126 126 126 126 126 126 126 126 126 126 126 126 126 126 126 0 0 0 
0 0 0 128 128 128 0 0 0 153 153 153 153 153 153 153 153 153 153 153 153 153 153 153 0 0 0 156 156 156 156 156 156 156 156 156 156 156 156 156 156 156 156 156 156 156 156 156 156 156 156 156 156 156 0 0 0 182 182 182 0 0 0 170 170 170 170 170 170 170 170 170 170 170 170 170 170 170 170 170 170 170 170 170 170 170 170 170 170 170 170 170 170 170 170 170 170 170 170 170 170 170 0 0 0 180 180 180 180 180 180 0 0 0 129 129 129 129 129 129 129 129 129 129 129 129 129 129 129 129 129 129 129 129 129 129 129 129 129 129 129 0 0 0 120 120 120 120 120 120 120 120 120 120 120 120 120 120 120 120 120 120 120 120 120 0 0 0 126 126 126 126 126 126 126 126 126 126 126 126 126 126 126 126 126 126 126 126 126 0 0 0 
0 0 0 0 0 0 153 153 153 153 153 153 153 153 153 153 153 153 153 153 153 153 153 153 0 0 0 156 156 156 156 156 156 156 156 156 156 156 156 156 156 156 156 156 156 156 156 156 156 156 156 0 0 0 182 182 182 182 182 182 0 0 0 170 170 170 170 170 170 170 170 170 170 170 170 170 170 170 170 170 170 170 170 170 170 170 170 170 170 170 170 170 170 170 170 170 170 170 170 170 170 170 0 0 0 180 180 180 180 180 180 180 180 180 0 0 0 129 129 129 129 129 129 129 129 129 129 129 129 129 129 129 129 129 129 129 129 129 129 129 129 129 129 129 0 0 0 120 120 120 120 120 120 120 120 120 120 120 120 120 120 120 120 120 120 0 0 0 126 126 126 126 126 126 126 126 126 126 126 126 126 126 126 126 126 126 126 126 126 0 0 0 
0 0 0 153 153 153 153 153 153 153 153 153 153 153 153 153 153 153 153 153 153 153 153 153 0 0 0 156 156 156 156 156 156 156 156 156 156 156 156 156 156 156 156 156 156 156 156 156 156 156 156 0 0 0 182 182 182 182 182 182 182 182 182 0 0 0 170 170 170 170 170 170 170 170 170 170 170 170 170 170 170 170 170 170 170 170 170 170 170 170 170 170 170 170 170 170 170 170 170 170 170 170 0 0 0 180 180 180 180 180 180 180 180 180 180 180 180 0 0 0 0 0 0 129 129 129 129 129 129 129 129 129 129 129 129 129 129 129 129 129 129 129 129 129 0 0 0 120 120 120 120 120 120 120 120 120 120 120 120 120 120 120 120 120 120 0 0 0 126 126 126 126 126 126 126 126 126 126 126 126 126 126 126 126 126 126 126 126 126 0 0 0 
0 0 0 153 153 153 153 153 153 153 153 153 153 153 153 153 153 153 153 153 153 153 153 153 0 0 0 156 156 156 156 156 156 156 156 156 156 156 156 156 156 156 156 156 156 156 156 156 156 156 156 0 0 0 182 182 182 182 182 182 182 182 182 0 0 0 170 170 170 170 170 170 170 170 170 170 170 170 170 170 170 170 170 170 170 170 170 170 170 170 170 170 170 170 170 170 170 170 170 0 0 0 180 180 180 180 180 180 180 180 180 180 180 180 180 180 180 180 180 180 180 180 180 0 0 0 129 129 129 129 129 129 129 129 129 129 129 129 129 129 129 0 0 0 191 191 191 0 0 0 0 0 0 0 0 0 0 0 0 0 0 0 120 120 120 0 0 0 126 126 126 126 126 126 126 126 126 126 126 126 126 126 126 126 126 126 126 126 126 0 0 0 
0 0 0 0 0 0 153 153 153 153 153 153 153 153 153 153 153 153 153 153 153 153 153 153 0 0 0 156 156 156 156 156 156 156 156 156 156 156 156 156 156 156 156 156 156 156 156 156 0 0 0 182 182 182 182 182 182 182 182 182 182 182 182 182 182 182 0 0 0 170 170 170 170 170 170 170 170 170 170 170 170 170 170 170 170 170 170 170 170 170 170 170 170 170 170 170 170 170 170 0 0 0 180 180 180 180 180 180 180 180 180 180 180 180 180 180 180 180 180 180 180 180 180 180 180 180 0 0 0 129 129 129 129 129 129 129 129 129 0 0 0 191 191 191 191 191 191 191 191 191 191 191 191 191 191 191 191 191 191 191 191 191 0 0 0 0 0 0 126 126 126 126 126 126 126 126 126 126 126 126 126 126 126 126 126 126 126 126 126 0 0 0 
0 0 0 178 178 178 0 0 0 0 0 0 153 153 153 153 153 153 153 153 153 153 153 153 0 0 0 156 156 156 156 156 156 156 156 156 156 156 156 156 156 156 156 156 156 156 156 156 0 0 0 182 182 182 182 182 182 182 182 182 182 182 182 182 182 182 0 0 0 170 170 170 170 170 170 170 170 170 170 170 170 170 170 170 170 170 170 170 170 170 170 170 170 170 170 170 170 170 170 0 0 0 180 180 180 180 180 180 180 180 180 180 180 180 180 180 180 180 180 180 180 180 180 180 180 180 180 180 180 0 0 0 0 0 0 129 129 129 0 0 0 191 191 191 191 191 191 191 191 191 191 191 191 191 191 191 191 191 191 191 191 191 191 191 191 191 191 191 0 0 0 126 126 126 126 126 126 126 126 126 126 126 126 126 126 126 126 126 126 0 0 0 
0 0 0 178 178 178 178 178 178 178 178 178 0 0 0 0 0 0 153 153 153 153 153 153 0 0 0 156 156 156 156 156 156 156 156 156 156 156 156 156 156 156 156 156 156 0 0 0 182 182 182 182 182 182 182 182 182 182 182 182 182 182 182 182 182 182 182 182 182 0 0 0 170 170 170 170 170 170 170 170 170 170 170 170 170 170 170 170 170 170 170 170 170 170 170 170 170 170 170 0 0 0 180 180 180 180 180 180 180 180 180 180 180 180 180 180 180 180 180 180 180 180 180 180 180 180 180 180 180 180 180 180 180 180 180 0 0 0 191 191 191 191 191 191 191 191 191 191 191 191 191 191 191 191 191 191 191 191 191 191 191 191 191 191 191 191 191 191 191 191 191 0 0 0 0 0 0 126 126 126 126 126 126 126 126 126 126 126 126 0 0 0 
0 0 0 178 178 178 178 178 178 178 178 178 178 178 178 178 178 178 0 0 0 0 0 0 156 156 156 156 156 156 156 156 156 156 156 156 156 156 156 0 0 0 0 0 0 0 0 0 182 182 182 182 182 182 182 182 182 182 182 182 182 182 182 182 182 182 182 182 182 0 0 0 170 170 170 170 170 170 170 170 170 170 170 170 170 170 170 170 170 170 170 170 170 170 170 170 170 170 170 0 0 0 180 180 180 180 180 180 180 180 180 180 180 180 180 180 180 180 180 180 180 180 180 180 180 180 180 180 180 180 180 180 0 0 0 191 191 191 191 191 191 191 191 191 191 191 191 191 191 191 191 191 191 191 191 191 191 191 191 191 191 191 191 191 191 191 191 191 191 191 191 191 191 191 191 191 191 0 0 0 126 126 126 126 126 126 126 126 126 0 0 0 
0 0 0 178 178 178 178 178 178 178 178 178 178 178 178 178 178 178 178 178 178 178 178 178 0 0 0 0 0 0 0 0 0 0 0 0 0 0 0 203 203 203 203 203 203 203 203 203 0 0 0 182 182 182 182 182 182 182 182 182 182 182 182 182 182 182 182 182 182 182 182 182 0 0 0 170 170 170 170 170 170 170 170 170 170 170 170 170 170 170 170 170 170 170 170 170 170 170 170 0 0 0 180 180 180 180 180 180 180 180 180 180 180 180 180 180 180 180 180 180 180 180 180 180 180 180 180 180 180 180 180 180 0 0 0 191 191 191 191 191 191 191 191 191 191 191 191 191 191 191 191 191 191 191 191 191 191 191 191 191 191 191 191 191 191 191 191 191 191 191 191 191 191 191 191 191 191 191 191 191 0 0 0 126 126 126 126 126 126 0 0 0 
0 0 0 178 178 178 178 178 178 178 178 178 178 178 178 178 178 178 178 178 178 0 0 0 203 203 203 203 203 203 203 203 203 203 203 203 203 203 203 203 203 203 203 203 203 203 203 203 0 0 0 182 182 182 182 182 182 182 182 182 182 182 182 182 182 182 182 182 182 182 182 182 182 182 182 0 0 0 170 170 170 170 170 170 170 170 170 170 170 170 170 170 170 170 170 170 170 170 170 0 0 0 180 180 180 180 180 180 180 180 180 180 180 180 180 180 180 180 180 180 180 180 180 180 180 180 180 180 180 180 180 180 0 0 0 191 191 191 191 191 191 191 191 191 191 191 191 191 191 191 191 191 191 191 191 191 191 191 191 191 191 191 191 191 191 191 191 191 191 191 191 191 191 191 191 191 191 191 191 191 191 191 191 0 0 0 0 0 0 0 0 0 
0 0 0 178 178 178 178 178 178 178 178 178 178 178 178 178 178 178 0 0 0 203 203 203 203 203 203 203 203 203 203 203 203 203 203 203 203 203 203 203 203 203 203 203 203 203 203 203 203 203 203 0 0 0 182 182 182 182 182 182 182 182 182 182 182 182 182 182 182 182 182 182 182 182 182 182 182 182 0 0 0 170 170 170 170 170 170 170 170 170 170 170 170 170 170 170 0 0 0 180 180 180 180 180 180 180 180 180 180 180 180 180 180 180 180 180 180 180 180 180 180 180 180 180 180 180 180 180 180 180 180 180 0 0 0 191 191 191 191 191 191 191 191 191 191 191 191 191 191 191 191 191 191 191 191 191 191 191 191 191 191 191 191 191 191 191 191 191 191 191 191 191 191 191 191 191 191 191 191 191 0 0 0 236 236 236 236 236 236 0 0 0 
0 0 0 178 178 178 178 178 178 178 178 178 178 178 178 178 178 178 0 0 0 203 203 203 203 203 203 203 203 203 203 203 203 203 203 203 203 203 203 203 203 203 203 203 203 203 203 203 203 203 203 0 0 0 182 182 182 182 182 182 182 182 182 182 182 182 182 182 182 182 182 182 182 182 182 182 182 182 182 182 182 0 0 0 170 170 170 170 170 170 170 170 170 170 170 170 0 0 0 180 180 180 180 180 180 180 180 180 180 180 180 180 180 180 180 180 180 180 180 180 180 180 180 180 180 180 180 180 180 180 180 180 0 0 0 191 191 191 191 191 191 191 191 191 191 191 191 191 191 191 191 191 191 191 191 191 191 191 191 191 191 191 191 191 191 191 191 191 191 191 191 191 191 191 191 191 191 0 0 0 236 236 236 236 236 236 236 236 236 0 0 0 
0 0 0 178 178 178 178 178 178 178 178 178 178 178 178 0 0 0 203 203 203 203 203 203 203 203 203 203 203 203 203 203 203 203 203 203 203 203 203 203 203 203 203 203 203 203 203 203 203 203 203 203 203 203 0 0 0 182 182 182 182 182 182 182 182 182 182 182 182 182 182 182 182 182 182 182 182 182 182 182 182 182 182 182 0 0 0 0 0 0 0 0 0 0 0 0 180 180 180 180 180 180 180 180 180 180 180 180 180 180 180 180 180 180 180 180 180 180 180 180 180 180 180 180 180 180 0 0 0 0 0 0 191 191 191 191 191 191 191 191 191 191 191 191 191 191 191 191 191 191 191 191 191 191 191 191 191 191 191 191 191 191 191 191 191 191 191 191 191 191 191 191 191 191 0 0 0 236 236 236 236 236 236 236 236 236 236 236 236 0 0 0 
0 0 0 178 178 178 178 178 178 178 178 178 178 178 178 0 0 0 0 0 0 0 0 0 0 0 0 203 203 203 203 203 203 203 203 203 203 203 203 203 203 203 203 203 203 203 203 203 203 203 203 203 203 203 0 0 0 182 182 182 182 182 182 182 182 182 182 182 182 182 182 182 182 182 182 182 182 182 0 0 0 0 0 0 234 234 234 234 234 234 234 234 234 234 234 234 0 0 0 0 0 0 180 180 180 0 0 0 0 0 0 0 0 0 0 0 0 0 0 0 0 0 0 0 0 0 231 231 231 231 231 231 0 0 0 191 191 191 191 191 191 191 191 191 191 191 191 191 191 191 191 191 191 191 191 191 191 191 191 191 191 191 191 191 191 191 191 191 191 191 191 0 0 0 236 236 236 236 236 236 236 236 236 236 236 236 236 236 236 0 0 0 
0 0 0 178 178 178 178 178 178 178 178 178 0 0 0 226 226 226 226 226 226 226 226 226 226 226 226 0 0 0 0 0 0 0 0 0 203 203 203 203 203 203 203 203 203 203 203 203 203 203 203 203 203 203 203 203 203 0 0 0 182 182 182 182 182 182 182 182 182 182 182 182 182 182 182 0 0 0 234 234 234 234 234 234 234 234 234 234 234 234 234 234 234 234 234 234 234 234 234 234 234 234 0 0 0 231 231 231 231 231 231 231 231 231 231 231 231 231 231 231 231 231 231 231 231 231 231 231 231 231 231 231 231 231 231 0 0 0 191 191 191 191 191 191 191 191 191 191 191 191 191 191 191 191 191 191 191 191 191 191 191 191 191 191 191 0 0 0 0 0 0 236 236 236 236 236 236 236 236 236 236 236 236 236 236 236 236 236 236 0 0 0 
0 0 0 0 0 0 0 0 0 0 0 0 243 243 243 0 0 0 226 226 226 226 226 226 226 226 226 226 226 226 226 226 226 226 226 226 0 0 0 0 0 0 0 0 0 203 203 203 203 203 203 203 203 203 203 203 203 203 203 203 0 0 0 0 0 0 182 182 182 0 0 0 0 0 0 234 234 234 234 234 234 234 234 234 234 234 234 234 234 234 234 234 234 234 234 234 234 234 234 234 234 234 234 234 234 0 0 0 231 231 231 231 231 231 231 231 231 231 231 231 231 231 231 231 231 231 231 231 231 231 231 231 0 0 0 239 239 239 0 0 0 0 0 0 191 191 191 191 191 191 191 191 191 191 191 191 191 191 191 0 0 0 0 0 0 239 239 239 239 239 239 0 0 0 236 236 236 236 236 236 236 236 236 236 236 236 236 236 236 0 0 0 
0 0 0 243 243 243 243 243 243 243 243 243 243 243 243 0 0 0 226 226 226 226 226 226 226 226 226 226 226 226 226 226 226 226 226 226 226 226 226 226 226 226 226 226 226 0 0 0 0 0 0 0 0 0 0 0 0 203 203 203 203 203 203 203 203 203 0 0 0 234 234 234 234 234 234 234 234 234 234 234 234 234 234 234 234 234 234 234 234 234 234 234 234 234 234 234 234 234 234 234 234 234 234 234 234 0 0 0 231 231 231 231 231 231 231 231 231 231 231 231 231 231 231 231 231 231 231 231 231 231 231 231 0 0 0 239 239 239 239 239 239 239 239 239 0 0 0 0 0 0 191 191 191 0 0 0 0 0 0 239 239 239 239 239 239 239 239 239 239 239 239 0 0 0 236 236 236 236 236 236 236 236 236 236 236 236 236 236 236 0 0 0 
0 0 0 243 243 243 243 243 243 243 243 243 243 243 243 243 243 243 0 0 0 226 226 226 226 226 226 226 226 226 226 226 226 226 226 226 226 226 226 226 226 226 226 226 226 226 226 226 226 226 226 226 226 226 226 226 226 0 0 0 0 0 0 0 0 0 234 234 234 234 234 234 234 234 234 234 234 234 234 234 234 234 234 234 234 234 234 234 234 234 234 234 234 234 234 234 234 234 234 234 234 234 234 234 234 0 0 0 231 231 231 231 231 231 231 231 231 231 231 231 231 231 231 231 231 231 231 231 231 0 0 0 239 239 239 239 239 239 239 239 239 239 239 239 239 239 239 239 239 239 0 0 0 239 239 239 239 239 239 239 239 239 239 239 239 239 239 239 239 239 239 239 239 239 0 0 0 236 236 236 236 236 236 236 236 236 236 236 236 0 0 0 
0 0 0 243 243 243 243 243 243 243 243 243 243 243 243 243 243 243 0 0 0 226 226 226 226 226 226 226 226 226 226 226 226 226 226 226 226 226 226 226 226 226 226 226 226 226 226 226 226 226 226 226 226 226 226 226 226 226 226 226 226 226 226 0 0 0 234 234 234 234 234 234 234 234 234 234 234 234 234 234 234 234 234 234 234 234 234 234 234 234 234 234 234 234 234 234 234 234 234 234 234 234 234 234 234 0 0 0 231 231 231 231 231 231 231 231 231 231 231 231 231 231 231 231 231 231 231 231 231 0 0 0 239 239 239 239 239 239 239 239 239 239 239 239 239 239 239 239 239 239 239 239 239 239 239 239 239 239 239 239 239 239 239 239 239 239 239 239 239 239 239 239 239 239 0 0 0 236 236 236 236 236 236 236 236 236 236 236 236 0 0 0 
0 0 0 243 243 243 243 243 243 243 243 243 243 243 243 243 243 243 243 243 243 0 0 0 226 226 226 226 226 226 226 226 226 226 226 226 226 226 226 226 226 226 226 226 226 226 226 226 226 226 226 226 226 226 226 226 226 226 226 226 226 226 226 0 0 0 234 234 234 234 234 234 234 234 234 234 234 234 234 234 234 234 234 234 234 234 234 234 234 234 234 234 234 234 234 234 234 234 234 234 234 234 234 234 234 0 0 0 231 231 231 231 231 231 231 231 231 231 231 231 231 231 231 231 231 231 0 0 0 239 239 239 239 239 239 239 239 239 239 239 239 239 239 239 239 239 239 239 239 239 239 239 239 239 239 239 239 239 239 239 239 239 239 239 239 239 239 239 239 239 239 239 239 239 0 0 0 236 236 236 236 236 236 236 236 236 236 236 236 0 0 0 
0 0 0 243 243 243 243 243 243 243 243 243 243 243 243 243 243 243 243 243 243 0 0 0 226 226 226 226 226 226 226 226 226 226 226 226 226 226 226 226 226 226 226 226 226 226 226 226 226 226 226 226 226 226 226 226 226 226 226 226 0 0 0 234 234 234 234 234 234 234 234 234 234 234 234 234 234 234 234 234 234 234 234 234 234 234 234 234 234 234 234 234 234 234 234 234 234 234 234 234 234 234 234 234 234 0 0 0 231 231 231 231 231 231 231 231 231 231 231 231 231 231 231 231 231 231 0 0 0 239 239 239 239 239 239 239 239 239 239 239 239 239 239 239 239 239 239 239 239 239 239 239 239 239 239 239 239 239 239 239 239 239 239 239 239 239 239 239 239 239 239 239 239 239 0 0 0 236 236 236 236 236 236 236 236 236 236 236 236 0 0 0 
0 0 0 243 243 243 243 243 243 243 243 243 243 243 243 243 243 243 243 243 243 243 243 243 0 0 0 226 226 226 226 226 226 226 226 226 226 226 226 226 226 226 226 226 226 226 226 226 226 226 226 226 226 226 226 226 226 226 226 226 0 0 0 234 234 234 234 234 234 234 234 234 234 234 234 234 234 234 234 234 234 234 234 234 234 234 234 234 234 234 234 234 234 234 234 234 234 234 234 234 234 234 234 234 234 0 0 0 231 231 231 231 231 231 231 231 231 231 231 231 231 231 231 0 0 0 239 239 239 239 239 239 239 239 239 239 239 239 239 239 239 239 239 239 239 239 239 239 239 239 239 239 239 239 239 239 239 239 239 239 239 239 239 239 239 239 239 239 239 239 239 239 239 239 0 0 0 236 236 236 236 236 236 236 236 236 236 236 236 0 0 0 
0 0 0 0 0 0 0 0 0 0 0 0 0 0 0 0 0 0 0 0 0 0 0 0 0 0 0 0 0 0 0 0 0 0 0 0 0 0 0 0 0 0 0 0 0 0 0 0 0 0 0 0 0 0 0 0 0 0 0 0 0 0 0 0 0 0 0 0 0 0 0 0 0 0 0 0 0 0 0 0 0 0 0 0 0 0 0 0 0 0 0 0 0 0 0 0 0 0 0 0 0 0 0 0 0 0 0 0 0 0 0 0 0 0 0 0 0 0 0 0 0 0 0 0 0 0 0 0 0 0 0 0 0 0 0 0 0 0 0 0 0 0 0 0 0 0 0 0 0 0 0 0 0 0 0 0 0 0 0 0 0 0 0 0 0 0 0 0 0 0 0 0 0 0 0 0 0 0 0 0 0 0 0 0 0 0 0 0 0 0 0 0 
