P3
9 9
255
0 0 0 0 0 0 0 0 0 0 0 0 0 0 0 0 0 0 0 0 0 215 88 63 196 80 57 
0 0 0 0 0 0 0 0 0 0 0 0 0 0 0 0 0 0 215 88 63 190 37 37 164 15 40 
0 0 0 0 0 0 0 0 0 0 0 0 0 0 0 215 88 63 190 37 37 164 15 40 0 0 0 
0 0 0 0 0 0 0 0 0 0 0 0 215 88 63 190 37 37 164 15 40 0 0 0 0 0 0 
0 0 0 0 0 0 0 0 0 215 88 63 190 37 37 164 15 40 0 0 0 0 0 0 0 0 0 
0 0 0 215 190 190 215 190 190 170 33 56 164 15 40 0 0 0 0 0 0 0 0 0 0 0 0 
0 0 0 109 74 48 215 190 190 215 190 190 0 0 0 0 0 0 0 0 0 0 0 0 0 0 0 
109 74 48 95 63 40 95 63 40 215 190 190 0 0 0 0 0 0 0 0 0 0 0 0 0 0 0 
87 57 35 87 57 35 0 0 0 0 0 0 0 0 0 0 0 0 0 0 0 0 0 0 0 0 0 
