P3
9 9
255
95 63 40 95 63 40 95 63 40 95 63 40 0 0 0 0 0 0 0 0 0 0 0 0 0 0 0 
95 63 40 95 63 40 95 63 40 95 63 40 95 63 40 95 63 40 255 255 255 0 0 0 0 0 0 
95 63 40 1 0 0 95 63 40 1 0 0 1 0 0 95 63 40 255 255 255 237 237 237 87 57 35 
95 63 40 95 63 40 1 0 0 0 0 0 95 63 40 95 63 40 255 255 255 237 237 237 87 57 35 
95 63 40 95 63 40 95 63 40 95 63 40 95 63 40 95 63 40 255 255 255 237 237 237 87 57 35 
95 63 40 1 0 0 1 0 0 1 0 0 1 0 0 95 63 40 255 255 255 237 237 237 87 57 35 
95 63 40 95 63 40 0 0 0 95 63 40 95 63 40 95 63 40 255 255 255 237 237 237 87 57 35 
95 63 40 95 63 40 95 63 40 95 63 40 95 63 40 95 63 40 255 255 255 237 237 237 87 57 35 
0 0 0 0 0 0 0 0 0 95 63 40 95 63 40 95 63 40 255 255 255 237 237 237 87 57 35 
