P3
9 9
255
0 0 0 0 0 0 0 0 0 29 70 255 73 29 255 0 0 0 0 0 0 0 0 0 0 0 0 
0 0 0 0 0 0 73 29 255 0 88 255 0 100 255 25 72 255 0 0 0 0 0 0 0 0 0 
0 0 0 29 70 255 0 100 255 25 72 255 25 77 255 25 115 255 95 63 40 0 0 0 0 0 0 
0 0 0 73 29 255 0 88 255 48 90 254 0 112 255 0 88 255 25 72 255 0 88 255 0 0 0 
0 0 0 0 0 0 0 0 0 37 17 155 0 88 255 25 77 255 48 90 254 0 112 255 37 17 155 
0 0 0 0 0 0 109 74 48 109 74 48 1 0 189 48 90 254 25 72 255 0 88 255 1 0 189 
0 0 0 109 74 48 95 63 40 95 63 40 0 0 0 0 112 255 0 88 255 1 0 189 0 0 0 
109 74 48 95 63 40 95 63 40 0 0 0 0 0 0 1 0 189 37 17 155 0 0 0 0 0 0 
87 57 35 87 57 35 0 0 0 0 0 0 0 0 0 0 0 0 0 0 0 0 0 0 0 0 0 
