P3
9 9
255
0 0 0 0 0 0 0 0 0 0 0 0 0 0 0 0 0 0 58 58 58 58 58 58 51 51 51 
0 0 0 0 0 0 0 0 0 0 0 0 0 0 0 58 58 58 36 36 36 36 36 36 26 26 26 
0 0 0 0 0 0 0 0 0 0 0 0 0 0 0 109 74 48 36 36 36 36 36 36 26 26 26 
0 0 0 0 0 0 0 0 0 0 0 0 109 74 48 95 63 40 95 63 40 26 26 26 0 0 0 
0 0 0 0 0 0 0 0 0 109 74 48 95 63 40 95 63 40 0 0 0 0 0 0 0 0 0 
0 0 0 0 0 0 109 74 48 95 63 40 95 63 40 0 0 0 0 0 0 0 0 0 0 0 0 
0 0 0 109 74 48 95 63 40 95 63 40 0 0 0 0 0 0 0 0 0 0 0 0 0 0 0 
109 74 48 95 63 40 95 63 40 0 0 0 0 0 0 0 0 0 0 0 0 0 0 0 0 0 0 
87 57 35 87 57 35 0 0 0 0 0 0 0 0 0 0 0 0 0 0 0 0 0 0 0 0 0 
