P3
9 9
255
0 0 0 0 0 0 0 0 0 0 0 0 0 0 0 0 0 0 0 0 0 98 73 21 0 0 0 
0 0 0 0 0 0 0 0 0 0 0 0 0 0 0 0 0 0 255 255 62 239 226 33 0 0 0 
0 0 0 0 0 0 0 0 0 0 0 0 0 0 0 0 0 0 255 255 62 239 226 33 0 0 0 
0 0 0 0 0 0 0 0 0 0 0 0 0 0 0 255 255 62 239 226 33 239 226 33 0 0 0 
0 0 0 0 0 0 0 0 0 0 0 0 255 255 62 239 226 33 239 226 33 213 166 8 0 0 0 
0 0 0 0 0 0 0 0 0 255 255 62 239 226 33 239 226 33 213 166 8 0 0 0 0 0 0 
0 0 0 255 255 62 255 255 62 239 226 33 239 226 33 213 166 8 0 0 0 0 0 0 0 0 0 
255 255 62 239 226 33 239 226 33 213 166 8 213 166 8 0 0 0 0 0 0 0 0 0 0 0 0 
213 166 8 213 166 8 213 166 8 0 0 0 0 0 0 0 0 0 0 0 0 0 0 0 0 0 0 
