P3
9 9
255
0 0 0 0 0 0 99 66 15 99 66 15 99 66 15 93 57 12 93 57 12 0 0 0 0 0 0 
0 0 0 99 66 15 127 249 86 115 243 79 127 250 86 98 238 70 109 243 76 93 57 12 0 0 0 
99 66 15 127 249 86 98 238 70 30 96 4 72 184 29 30 96 4 98 238 70 109 243 76 93 57 12 
99 66 15 98 238 70 30 96 4 16 84 0 190 250 176 16 84 0 30 96 4 98 238 70 93 57 12 
93 57 12 127 250 86 72 184 29 190 250 176 215 255 198 190 250 176 72 184 29 127 250 86 85 47 8 
93 57 12 98 238 70 36 101 6 21 89 1 190 250 176 16 84 0 30 96 4 98 238 70 85 47 8 
93 57 12 109 243 76 98 238 70 36 101 6 72 184 29 30 96 4 98 238 70 68 225 55 85 47 8 
0 0 0 93 57 12 109 243 76 98 238 70 127 250 86 98 238 70 68 225 55 85 47 8 0 0 0 
0 0 0 0 0 0 93 57 12 93 57 12 93 57 12 85 47 8 85 47 8 0 0 0 0 0 0 
