P3
9 9
255
0 0 0 0 0 0 0 0 0 0 0 0 0 0 0 0 0 0 0 0 0 0 0 0 0 0 0 
0 0 0 0 0 0 150 150 150 119 119 119 119 119 119 119 119 119 119 119 119 0 0 0 0 0 0 
0 0 0 150 150 150 119 119 119 119 119 119 69 69 69 119 119 119 119 119 119 119 119 119 0 0 0 
0 0 0 119 119 119 119 119 119 69 69 69 73 73 73 73 73 73 119 119 119 119 119 119 0 0 0 
0 0 0 119 119 119 69 69 69 73 73 73 73 73 73 73 73 73 77 77 77 104 104 104 0 0 0 
0 0 0 104 104 104 69 69 69 73 73 73 73 73 73 73 73 73 77 77 77 104 104 104 0 0 0 
0 0 0 0 0 0 0 0 0 0 0 0 0 0 0 0 0 0 0 0 0 0 0 0 0 0 0 
0 0 0 0 0 0 0 0 0 0 0 0 0 0 0 0 0 0 0 0 0 0 0 0 0 0 0 
0 0 0 0 0 0 0 0 0 0 0 0 0 0 0 0 0 0 0 0 0 0 0 0 0 0 0 
