P3
9 9
255
0 0 0 0 0 0 0 0 0 150 150 150 150 150 150 0 0 0 0 0 0 0 0 0 0 0 0 
0 0 0 0 0 0 150 150 150 119 119 119 119 119 119 0 0 0 0 0 0 0 0 0 0 0 0 
0 0 0 150 150 150 119 119 119 119 119 119 119 119 119 119 119 119 0 0 0 0 0 0 0 0 0 
0 0 0 0 0 0 119 119 119 119 119 119 119 119 119 119 119 119 104 104 104 0 0 0 0 0 0 
0 0 0 0 0 0 0 0 0 104 104 104 119 119 119 119 119 119 104 104 104 0 0 0 0 0 0 
0 0 0 0 0 0 109 74 48 109 74 48 104 104 104 104 104 104 0 0 0 0 0 0 0 0 0 
0 0 0 109 74 48 95 63 40 95 63 40 0 0 0 0 0 0 0 0 0 0 0 0 0 0 0 
109 74 48 95 63 40 95 63 40 0 0 0 0 0 0 0 0 0 0 0 0 0 0 0 0 0 0 
87 57 35 87 57 35 0 0 0 0 0 0 0 0 0 0 0 0 0 0 0 0 0 0 0 0 0 
