P3
9 9
255
0 0 0 0 0 0 0 0 0 137 137 137 121 121 121 102 102 102 0 0 0 0 0 0 0 0 0 
0 0 0 0 0 0 0 0 0 137 137 137 121 121 121 102 102 102 0 0 0 0 0 0 0 0 0 
137 137 137 137 137 137 121 121 121 121 121 121 121 121 121 121 121 121 121 121 121 121 121 121 102 102 102 
137 137 137 121 121 121 121 121 121 121 121 121 121 121 121 121 121 121 121 121 121 102 102 102 102 102 102 
0 0 0 0 0 0 121 121 121 121 121 121 121 121 121 121 121 121 102 102 102 0 0 0 0 0 0 
0 0 0 0 0 0 137 137 137 121 121 121 121 121 121 121 121 121 102 102 102 0 0 0 0 0 0 
0 0 0 0 0 0 137 137 137 121 121 121 121 121 121 121 121 121 102 102 102 0 0 0 0 0 0 
0 0 0 0 0 0 137 137 137 121 121 121 121 121 121 121 121 121 102 102 102 0 0 0 0 0 0 
0 0 0 0 0 0 137 137 137 121 121 121 121 121 121 121 121 121 102 102 102 0 0 0 0 0 0 
