P3
9 9
255
0 0 0 0 0 0 0 0 0 151 255 202 151 255 202 0 0 0 0 0 0 0 0 0 0 0 0 
0 0 0 0 0 0 151 255 202 113 234 191 113 234 191 0 0 0 0 0 0 0 0 0 0 0 0 
0 0 0 151 255 202 113 234 191 113 234 191 113 234 191 113 234 191 0 0 0 0 0 0 0 0 0 
0 0 0 0 0 0 113 234 191 113 234 191 113 234 191 113 234 191 79 208 184 0 0 0 0 0 0 
0 0 0 0 0 0 0 0 0 79 208 184 113 234 191 113 234 191 79 208 184 0 0 0 0 0 0 
0 0 0 0 0 0 109 74 48 109 74 48 79 208 184 79 208 184 0 0 0 0 0 0 0 0 0 
0 0 0 109 74 48 95 63 40 95 63 40 0 0 0 0 0 0 0 0 0 0 0 0 0 0 0 
109 74 48 95 63 40 95 63 40 0 0 0 0 0 0 0 0 0 0 0 0 0 0 0 0 0 0 
87 57 35 87 57 35 0 0 0 0 0 0 0 0 0 0 0 0 0 0 0 0 0 0 0 0 0 
