P3
9 9
255
0 0 0 0 0 0 0 0 0 0 0 0 0 0 0 0 0 0 151 255 202 151 255 202 136 235 183 
0 0 0 0 0 0 0 0 0 0 0 0 0 0 0 151 255 202 113 234 191 113 234 191 79 208 184 
0 0 0 0 0 0 0 0 0 0 0 0 151 255 202 113 234 191 113 234 191 113 234 191 79 208 184 
0 0 0 0 0 0 0 0 0 151 255 202 113 234 191 113 234 191 113 234 191 79 208 184 0 0 0 
0 0 0 161 187 178 151 255 202 113 234 191 113 234 191 113 234 191 79 208 184 0 0 0 0 0 0 
0 0 0 161 187 178 161 187 178 111 228 188 113 234 191 79 208 184 0 0 0 0 0 0 0 0 0 
0 0 0 109 74 48 161 187 178 161 187 178 79 208 184 0 0 0 0 0 0 0 0 0 0 0 0 
109 74 48 95 63 40 95 63 40 161 187 178 161 187 178 0 0 0 0 0 0 0 0 0 0 0 0 
87 57 35 87 57 35 0 0 0 0 0 0 0 0 0 0 0 0 0 0 0 0 0 0 0 0 0 
