P3
9 9
255
0 0 0 0 0 0 0 0 0 0 0 0 0 0 0 0 0 0 0 0 0 255 149 44 247 128 41 
0 0 0 0 0 0 0 0 0 0 0 0 0 0 0 0 0 0 255 149 44 248 118 30 235 86 16 
0 0 0 0 0 0 0 0 0 0 0 0 0 0 0 255 149 44 248 118 30 235 86 16 0 0 0 
0 0 0 0 0 0 0 0 0 0 0 0 255 149 44 248 118 30 235 86 16 0 0 0 0 0 0 
0 0 0 0 0 0 0 0 0 255 149 44 248 118 30 235 86 16 0 0 0 0 0 0 0 0 0 
0 0 0 215 190 190 215 190 190 244 106 14 235 86 16 0 0 0 0 0 0 0 0 0 0 0 0 
0 0 0 109 74 48 215 190 190 215 190 190 0 0 0 0 0 0 0 0 0 0 0 0 0 0 0 
109 74 48 95 63 40 95 63 40 215 190 190 0 0 0 0 0 0 0 0 0 0 0 0 0 0 0 
87 57 35 87 57 35 0 0 0 0 0 0 0 0 0 0 0 0 0 0 0 0 0 0 0 0 0 
