P3
9 9
255
0 0 0 0 0 0 0 0 0 47 47 47 47 47 47 47 47 47 0 0 0 0 0 0 0 0 0 
0 0 0 0 0 0 47 47 47 255 255 255 255 255 255 255 255 255 47 47 47 0 0 0 0 0 0 
0 0 0 0 0 0 0 0 0 47 47 47 203 206 200 47 47 47 0 0 0 0 0 0 0 0 0 
0 0 0 0 0 0 0 0 0 47 47 47 203 206 200 47 47 47 0 0 0 0 0 0 0 0 0 
0 0 0 0 0 0 47 47 47 14 173 10 107 204 67 213 227 208 47 47 47 0 0 0 0 0 0 
0 0 0 47 47 47 14 173 10 0 197 31 107 204 67 170 209 123 212 223 203 47 47 47 0 0 0 
47 47 47 12 153 9 0 173 0 0 195 0 37 202 53 107 204 67 168 211 140 213 217 197 47 47 47 
47 47 47 12 153 9 4 197 10 0 186 0 0 186 0 0 198 0 151 207 106 211 215 189 47 47 47 
0 0 0 47 47 47 47 47 47 47 47 47 47 47 47 47 47 47 47 47 47 47 47 47 0 0 0 
