P3
9 9
255
0 0 0 0 0 0 0 0 0 47 47 47 47 47 47 47 47 47 0 0 0 0 0 0 0 0 0 
0 0 0 0 0 0 47 47 47 255 255 255 255 255 255 255 255 255 47 47 47 0 0 0 0 0 0 
0 0 0 0 0 0 0 0 0 47 47 47 212 212 203 47 47 47 0 0 0 0 0 0 0 0 0 
0 0 0 0 0 0 0 0 0 47 47 47 212 212 203 47 47 47 0 0 0 0 0 0 0 0 0 
0 0 0 0 0 0 47 47 47 167 172 0 204 209 60 227 237 149 47 47 47 0 0 0 0 0 0 
0 0 0 47 47 47 167 172 0 170 190 0 204 209 0 213 217 84 229 231 147 47 47 47 0 0 0 
47 47 47 149 153 0 171 176 0 192 198 0 189 204 0 204 209 0 206 217 84 220 211 138 47 47 47 
47 47 47 149 153 0 189 194 0 185 191 0 185 191 0 193 198 0 209 213 77 217 208 133 47 47 47 
0 0 0 47 47 47 47 47 47 47 47 47 47 47 47 47 47 47 47 47 47 47 47 47 0 0 0 
