P3
9 9
255
0 0 0 0 0 0 0 0 0 47 47 47 47 47 47 47 47 47 0 0 0 0 0 0 0 0 0 
0 0 0 0 0 0 47 47 47 255 255 255 255 255 255 255 255 255 47 47 47 0 0 0 0 0 0 
0 0 0 0 0 0 0 0 0 47 47 47 212 203 203 47 47 47 0 0 0 0 0 0 0 0 0 
0 0 0 0 0 0 0 0 0 47 47 47 212 203 203 47 47 47 0 0 0 0 0 0 0 0 0 
0 0 0 0 0 0 47 47 47 172 48 48 209 83 83 237 174 167 47 47 47 0 0 0 0 0 0 
0 0 0 47 47 47 172 48 48 190 56 41 209 83 83 217 114 114 231 164 164 47 47 47 0 0 0 
47 47 47 153 42 42 176 34 34 198 39 39 204 72 62 209 83 83 217 121 114 220 154 165 47 47 47 
47 47 47 153 42 42 194 54 54 191 24 24 191 24 24 198 49 49 213 104 104 217 149 160 47 47 47 
0 0 0 47 47 47 47 47 47 47 47 47 47 47 47 47 47 47 47 47 47 47 47 47 0 0 0 
