P3
9 9
255
0 0 0 0 0 0 0 0 0 0 0 0 0 0 0 0 0 0 148 255 91 148 255 91 81 211 52 
0 0 0 0 0 0 0 0 0 0 0 0 0 0 0 148 255 91 90 232 59 55 219 44 9 181 36 
0 0 0 0 0 0 0 0 0 0 0 0 148 255 91 90 232 59 67 219 44 34 207 32 9 181 36 
0 0 0 0 0 0 0 0 0 148 255 91 90 232 59 67 219 44 34 207 32 9 181 36 0 0 0 
0 0 0 179 219 175 148 255 91 90 232 59 67 219 44 34 207 32 9 181 36 0 0 0 0 0 0 
0 0 0 155 207 155 179 219 175 28 185 53 34 207 32 9 181 36 0 0 0 0 0 0 0 0 0 
0 0 0 109 74 48 155 207 155 179 219 175 9 181 36 0 0 0 0 0 0 0 0 0 0 0 0 
109 74 48 95 63 40 95 63 40 155 207 155 170 219 168 0 0 0 0 0 0 0 0 0 0 0 0 
87 57 35 87 57 35 0 0 0 0 0 0 0 0 0 0 0 0 0 0 0 0 0 0 0 0 0 
