P3
9 9
255
0 0 0 0 0 0 150 150 150 119 119 119 119 119 119 119 119 119 119 119 119 0 0 0 0 0 0 
0 0 0 150 150 150 119 119 119 119 119 119 119 119 119 119 119 119 119 119 119 119 119 119 0 0 0 
150 150 150 119 119 119 119 119 119 119 119 119 119 119 119 119 119 119 119 119 119 119 119 119 119 119 119 
150 150 150 119 119 119 119 119 119 119 119 119 119 119 119 119 119 119 119 119 119 119 119 119 104 104 104 
150 150 150 119 119 119 119 119 119 119 119 119 119 119 119 119 119 119 119 119 119 119 119 119 104 104 104 
0 0 0 119 119 119 119 119 119 119 119 119 119 119 119 119 119 119 119 119 119 104 104 104 0 0 0 
0 0 0 119 119 119 119 119 119 119 119 119 119 119 119 119 119 119 119 119 119 104 104 104 0 0 0 
0 0 0 0 0 0 119 119 119 119 119 119 119 119 119 119 119 119 104 104 104 0 0 0 0 0 0 
0 0 0 0 0 0 0 0 0 119 119 119 104 104 104 104 104 104 0 0 0 0 0 0 0 0 0 
