P3
9 9
255
0 0 0 0 0 0 0 0 0 0 0 0 246 117 13 0 0 0 246 84 13 246 117 13 0 0 0 
0 0 0 0 0 0 0 0 0 0 0 0 246 155 13 247 196 42 246 155 13 0 0 0 0 0 0 
0 0 0 0 0 0 0 0 0 246 155 13 245 214 90 255 242 109 245 214 90 247 196 42 0 0 0 
0 0 0 0 0 0 0 0 0 246 155 13 245 214 90 255 255 255 255 255 255 247 196 42 0 0 0 
0 0 0 0 0 0 0 0 0 109 67 48 246 117 13 245 214 90 245 214 90 246 155 13 0 0 0 
0 0 0 0 0 0 109 74 48 95 57 40 95 57 40 247 196 42 247 196 42 0 0 0 0 0 0 
0 0 0 109 74 48 95 63 40 95 63 40 0 0 0 0 0 0 0 0 0 0 0 0 0 0 0 
109 74 48 95 63 40 95 63 40 0 0 0 0 0 0 0 0 0 0 0 0 0 0 0 0 0 0 
87 57 35 87 57 35 0 0 0 0 0 0 0 0 0 0 0 0 0 0 0 0 0 0 0 0 0 
