P3
9 9
255
0 0 0 0 0 0 0 0 0 0 0 0 0 0 0 233 207 0 233 207 0 233 207 0 0 0 0 
0 0 0 0 0 0 0 0 0 0 0 0 233 207 0 249 222 0 246 215 0 233 207 0 233 207 0 
0 0 0 0 0 0 0 0 0 184 184 184 233 207 0 246 215 0 233 207 0 233 207 0 227 196 5 
0 0 0 0 0 0 0 0 0 184 184 184 184 184 184 233 207 0 233 207 0 233 207 0 227 196 5 
0 0 0 0 0 0 0 0 0 109 74 48 184 184 184 184 184 184 227 196 5 227 196 5 0 0 0 
0 0 0 0 0 0 109 74 48 95 63 40 95 63 40 184 184 184 184 184 184 0 0 0 0 0 0 
0 0 0 109 74 48 95 63 40 95 63 40 0 0 0 0 0 0 0 0 0 0 0 0 0 0 0 
109 74 48 95 63 40 95 63 40 0 0 0 0 0 0 0 0 0 0 0 0 0 0 0 0 0 0 
87 57 35 87 57 35 0 0 0 0 0 0 0 0 0 0 0 0 0 0 0 0 0 0 0 0 0 
