P3
9 9
255
0 0 0 0 0 0 0 0 0 0 0 0 0 0 0 219 23 23 219 23 23 219 23 23 0 0 0 
0 0 0 0 0 0 0 0 0 0 0 0 219 23 23 244 25 25 233 31 31 219 23 23 219 23 23 
0 0 0 0 0 0 0 0 0 184 184 184 219 23 23 233 31 31 219 23 23 219 23 23 200 32 32 
0 0 0 0 0 0 0 0 0 184 184 184 184 184 184 219 23 23 219 23 23 219 23 23 200 32 32 
0 0 0 0 0 0 0 0 0 109 74 48 184 184 184 184 184 184 200 32 32 200 32 32 0 0 0 
0 0 0 0 0 0 109 74 48 95 63 40 95 63 40 184 184 184 184 184 184 0 0 0 0 0 0 
0 0 0 109 74 48 95 63 40 95 63 40 0 0 0 0 0 0 0 0 0 0 0 0 0 0 0 
109 74 48 95 63 40 95 63 40 0 0 0 0 0 0 0 0 0 0 0 0 0 0 0 0 0 0 
87 57 35 87 57 35 0 0 0 0 0 0 0 0 0 0 0 0 0 0 0 0 0 0 0 0 0 
