P3
9 9
255
0 0 0 0 0 0 0 0 0 0 0 0 0 0 0 0 141 205 0 141 205 0 141 205 0 0 0 
0 0 0 0 0 0 0 0 0 0 0 0 0 141 205 0 157 230 0 151 215 0 141 205 0 141 205 
0 0 0 0 0 0 0 0 0 184 184 184 0 141 205 0 151 215 0 141 205 0 141 205 0 130 181 
0 0 0 0 0 0 0 0 0 184 184 184 184 184 184 0 141 205 0 141 205 0 141 205 0 130 181 
0 0 0 0 0 0 0 0 0 109 74 48 184 184 184 184 184 184 0 130 181 0 130 181 0 0 0 
0 0 0 0 0 0 109 74 48 95 63 40 95 63 40 184 184 184 184 184 184 0 0 0 0 0 0 
0 0 0 109 74 48 95 63 40 95 63 40 0 0 0 0 0 0 0 0 0 0 0 0 0 0 0 
109 74 48 95 63 40 95 63 40 0 0 0 0 0 0 0 0 0 0 0 0 0 0 0 0 0 0 
87 57 35 87 57 35 0 0 0 0 0 0 0 0 0 0 0 0 0 0 0 0 0 0 0 0 0 
