P3
9 9
255
0 0 0 0 0 0 131 88 58 106 71 47 106 71 47 106 71 47 106 71 47 0 0 0 0 0 0 
0 0 0 131 88 58 106 71 47 106 71 47 106 71 47 106 71 47 106 71 47 106 71 47 0 0 0 
131 88 58 106 71 47 106 71 47 106 71 47 106 71 47 106 71 47 106 71 47 106 71 47 106 71 47 
131 88 58 106 71 47 106 71 47 106 71 47 106 71 47 106 71 47 106 71 47 106 71 47 91 58 33 
131 88 58 106 71 47 106 71 47 106 71 47 106 71 47 106 71 47 106 71 47 106 71 47 91 58 33 
0 0 0 106 71 47 106 71 47 106 71 47 106 71 47 106 71 47 106 71 47 91 58 33 0 0 0 
0 0 0 106 71 47 106 71 47 106 71 47 106 71 47 106 71 47 106 71 47 91 58 33 0 0 0 
0 0 0 0 0 0 106 71 47 106 71 47 106 71 47 106 71 47 91 58 33 0 0 0 0 0 0 
0 0 0 0 0 0 0 0 0 106 71 47 91 58 33 91 58 33 0 0 0 0 0 0 0 0 0 
