P3
# Created by GIMP version 2.10.30 PNM plug-in
#
99 21
255
0 0 0 1 0 0 1 0 0 1 0 0 1 0 0 1 0 0 1 0 0 1 0 0 1 0 0 1 0 0 1 0 0 1 0 0 1 0 0 1 0 0 1 0 0 1 0 0 1 0 0 1 0 0 1 0 0 1 0 0 1 0 0 1 0 0 1 0 0 1 0 0 1 0 0 1 0 0 1 0 0 1 0 0 1 0 0 1 0 0 1 0 0 1 0 0 1 0 0 1 0 0 1 0 0 1 0 0 1 0 0 1 0 0 1 0 0 1 0 0 1 0 0 1 0 0 1 0 0 1 0 0 1 0 0 1 0 0 1 0 0 1 0 0 1 0 0 1 0 0 1 0 0 1 0 0 1 0 0 1 0 0 1 0 0 1 0 0 1 0 0 1 0 0 1 0 0 1 0 0 1 0 0 1 0 0 1 0 0 1 0 0 1 0 0 1 0 0 1 0 0 1 0 0 1 0 0 1 0 0 1 0 0 1 0 0 1 0 0 1 0 0 1 0 0 1 0 0 1 0 0 1 0 0 1 0 0 1 0 0 1 0 0 1 0 0 1 0 0 1 0 0 1 0 0 1 0 0 1 0 0 1 0 0 1 0 0 1 0 0 1 0 0 1 0 0 1 0 0 1 0 0 1 0 0 1 0 0 1 0 0 1 0 0 0 0 0 
1 0 0 198 132 68 198 132 68 198 132 68 198 132 68 198 132 68 198 132 68 198 132 68 198 132 68 198 132 68 198 132 68 198 132 68 198 132 68 198 132 68 198 132 68 198 132 68 198 132 68 198 132 68 198 132 68 198 132 68 198 132 68 198 132 68 198 132 68 198 132 68 198 132 68 198 132 68 198 132 68 198 132 68 198 132 68 198 132 68 198 132 68 198 132 68 198 132 68 198 132 68 198 132 68 198 132 68 198 132 68 198 132 68 198 132 68 198 132 68 198 132 68 198 132 68 198 132 68 198 132 68 198 132 68 198 132 68 198 132 68 198 132 68 198 132 68 198 132 68 198 132 68 198 132 68 198 132 68 198 132 68 198 132 68 198 132 68 198 132 68 198 132 68 198 132 68 198 132 68 198 132 68 198 132 68 198 132 68 198 132 68 198 132 68 198 132 68 198 132 68 198 132 68 198 132 68 198 132 68 198 132 68 198 132 68 198 132 68 198 132 68 198 132 68 198 132 68 198 132 68 198 132 68 198 132 68 198 132 68 198 132 68 198 132 68 198 132 68 198 132 68 198 132 68 198 132 68 198 132 68 198 132 68 198 132 68 198 132 68 198 132 68 198 132 68 198 132 68 198 132 68 198 132 68 198 132 68 198 132 68 198 132 68 1 0 0 
1 0 0 198 132 68 198 132 68 198 132 68 198 132 68 198 132 68 198 132 68 198 132 68 198 132 68 198 132 68 198 132 68 198 132 68 198 132 68 198 132 68 198 132 68 198 132 68 198 132 68 198 132 68 198 132 68 198 132 68 198 132 68 198 132 68 198 132 68 198 132 68 198 132 68 198 132 68 198 132 68 198 132 68 198 132 68 198 132 68 198 132 68 198 132 68 198 132 68 198 132 68 198 132 68 198 132 68 198 132 68 198 132 68 198 132 68 198 132 68 198 132 68 198 132 68 198 132 68 198 132 68 198 132 68 198 132 68 198 132 68 198 132 68 198 132 68 198 132 68 198 132 68 198 132 68 198 132 68 198 132 68 198 132 68 198 132 68 198 132 68 198 132 68 198 132 68 198 132 68 198 132 68 198 132 68 198 132 68 198 132 68 198 132 68 198 132 68 198 132 68 198 132 68 198 132 68 198 132 68 198 132 68 198 132 68 198 132 68 198 132 68 198 132 68 198 132 68 198 132 68 198 132 68 198 132 68 198 132 68 198 132 68 198 132 68 198 132 68 198 132 68 198 132 68 198 132 68 198 132 68 198 132 68 198 132 68 198 132 68 198 132 68 198 132 68 198 132 68 198 132 68 198 132 68 198 132 68 198 132 68 198 132 68 1 0 0 
1 0 0 198 132 68 198 132 68 198 132 68 198 132 68 198 132 68 198 132 68 198 132 68 198 132 68 198 132 68 198 132 68 198 132 68 198 132 68 198 132 68 198 132 68 198 132 68 198 132 68 198 132 68 198 132 68 198 132 68 198 132 68 198 132 68 198 132 68 198 132 68 198 132 68 198 132 68 198 132 68 198 132 68 198 132 68 198 132 68 198 132 68 198 132 68 198 132 68 198 132 68 198 132 68 198 132 68 198 132 68 198 132 68 198 132 68 198 132 68 198 132 68 198 132 68 198 132 68 198 132 68 198 132 68 198 132 68 198 132 68 198 132 68 198 132 68 198 132 68 198 132 68 198 132 68 198 132 68 198 132 68 198 132 68 198 132 68 198 132 68 198 132 68 198 132 68 198 132 68 198 132 68 198 132 68 198 132 68 198 132 68 198 132 68 198 132 68 198 132 68 198 132 68 198 132 68 198 132 68 198 132 68 198 132 68 198 132 68 198 132 68 198 132 68 198 132 68 198 132 68 198 132 68 198 132 68 198 132 68 198 132 68 198 132 68 198 132 68 198 132 68 198 132 68 198 132 68 198 132 68 198 132 68 198 132 68 198 132 68 198 132 68 198 132 68 198 132 68 198 132 68 198 132 68 198 132 68 198 132 68 198 132 68 1 0 0 
1 0 0 198 132 68 198 132 68 198 132 68 198 132 68 198 132 68 198 132 68 198 132 68 198 132 68 198 132 68 198 132 68 198 132 68 198 132 68 198 132 68 198 132 68 198 132 68 198 132 68 198 132 68 198 132 68 198 132 68 198 132 68 198 132 68 198 132 68 198 132 68 198 132 68 198 132 68 198 132 68 198 132 68 198 132 68 198 132 68 198 132 68 198 132 68 198 132 68 198 132 68 198 132 68 198 132 68 198 132 68 198 132 68 198 132 68 198 132 68 198 132 68 198 132 68 198 132 68 198 132 68 198 132 68 198 132 68 198 132 68 198 132 68 198 132 68 198 132 68 198 132 68 198 132 68 198 132 68 198 132 68 198 132 68 198 132 68 198 132 68 198 132 68 198 132 68 198 132 68 198 132 68 198 132 68 198 132 68 198 132 68 198 132 68 198 132 68 198 132 68 198 132 68 198 132 68 198 132 68 198 132 68 198 132 68 198 132 68 198 132 68 198 132 68 198 132 68 198 132 68 198 132 68 198 132 68 198 132 68 198 132 68 198 132 68 198 132 68 198 132 68 198 132 68 198 132 68 198 132 68 198 132 68 198 132 68 198 132 68 198 132 68 198 132 68 198 132 68 198 132 68 198 132 68 198 132 68 198 132 68 198 132 68 1 0 0 
0 0 0 198 132 68 198 132 68 198 132 68 198 132 68 198 132 68 198 132 68 198 132 68 198 132 68 198 132 68 198 132 68 198 132 68 198 132 68 198 132 68 198 132 68 198 132 68 198 132 68 198 132 68 198 132 68 198 132 68 198 132 68 198 132 68 198 132 68 198 132 68 198 132 68 198 132 68 198 132 68 198 132 68 198 132 68 198 132 68 198 132 68 198 132 68 198 132 68 198 132 68 198 132 68 198 132 68 198 132 68 198 132 68 198 132 68 198 132 68 198 132 68 198 132 68 198 132 68 198 132 68 198 132 68 198 132 68 198 132 68 198 132 68 198 132 68 198 132 68 198 132 68 198 132 68 198 132 68 198 132 68 198 132 68 198 132 68 198 132 68 198 132 68 198 132 68 198 132 68 198 132 68 198 132 68 198 132 68 198 132 68 198 132 68 198 132 68 198 132 68 198 132 68 198 132 68 198 132 68 198 132 68 198 132 68 198 132 68 198 132 68 198 132 68 198 132 68 198 132 68 198 132 68 198 132 68 198 132 68 198 132 68 198 132 68 198 132 68 198 132 68 198 132 68 198 132 68 198 132 68 198 132 68 198 132 68 198 132 68 198 132 68 198 132 68 198 132 68 198 132 68 198 132 68 198 132 68 198 132 68 198 132 68 0 0 0 
1 0 0 198 132 68 198 132 68 198 132 68 198 132 68 198 132 68 198 132 68 198 132 68 198 132 68 198 132 68 198 132 68 198 132 68 198 132 68 198 132 68 198 132 68 198 132 68 198 132 68 198 132 68 198 132 68 198 132 68 198 132 68 198 132 68 198 132 68 198 132 68 198 132 68 198 132 68 198 132 68 198 132 68 198 132 68 198 132 68 198 132 68 198 132 68 198 132 68 198 132 68 198 132 68 198 132 68 198 132 68 198 132 68 198 132 68 198 132 68 198 132 68 198 132 68 198 132 68 198 132 68 198 132 68 198 132 68 198 132 68 198 132 68 198 132 68 198 132 68 198 132 68 198 132 68 198 132 68 198 132 68 198 132 68 198 132 68 198 132 68 198 132 68 198 132 68 198 132 68 198 132 68 198 132 68 198 132 68 198 132 68 198 132 68 198 132 68 198 132 68 198 132 68 198 132 68 198 132 68 198 132 68 198 132 68 198 132 68 198 132 68 198 132 68 198 132 68 198 132 68 198 132 68 198 132 68 198 132 68 198 132 68 198 132 68 198 132 68 198 132 68 198 132 68 198 132 68 198 132 68 198 132 68 198 132 68 198 132 68 198 132 68 198 132 68 198 132 68 198 132 68 198 132 68 198 132 68 198 132 68 198 132 68 1 0 0 
1 0 0 198 132 68 198 132 68 198 132 68 198 132 68 198 132 68 198 132 68 198 132 68 198 132 68 198 132 68 198 132 68 198 132 68 198 132 68 198 132 68 198 132 68 198 132 68 198 132 68 198 132 68 198 132 68 198 132 68 198 132 68 198 132 68 198 132 68 198 132 68 198 132 68 198 132 68 198 132 68 198 132 68 198 132 68 198 132 68 198 132 68 198 132 68 198 132 68 198 132 68 198 132 68 198 132 68 198 132 68 198 132 68 198 132 68 198 132 68 198 132 68 198 132 68 198 132 68 198 132 68 198 132 68 198 132 68 198 132 68 198 132 68 198 132 68 198 132 68 198 132 68 198 132 68 198 132 68 198 132 68 198 132 68 198 132 68 198 132 68 198 132 68 198 132 68 198 132 68 198 132 68 198 132 68 198 132 68 198 132 68 198 132 68 198 132 68 198 132 68 198 132 68 198 132 68 198 132 68 198 132 68 198 132 68 198 132 68 198 132 68 198 132 68 198 132 68 198 132 68 198 132 68 198 132 68 198 132 68 198 132 68 198 132 68 198 132 68 198 132 68 198 132 68 198 132 68 198 132 68 198 132 68 198 132 68 198 132 68 198 132 68 198 132 68 198 132 68 198 132 68 198 132 68 198 132 68 198 132 68 198 132 68 1 0 0 
1 0 0 198 132 68 198 132 68 198 132 68 198 132 68 198 132 68 198 132 68 198 132 68 198 132 68 198 132 68 198 132 68 198 132 68 198 132 68 198 132 68 198 132 68 198 132 68 198 132 68 198 132 68 198 132 68 198 132 68 198 132 68 198 132 68 198 132 68 198 132 68 198 132 68 198 132 68 198 132 68 198 132 68 198 132 68 198 132 68 198 132 68 198 132 68 198 132 68 198 132 68 198 132 68 198 132 68 198 132 68 198 132 68 198 132 68 198 132 68 198 132 68 198 132 68 198 132 68 198 132 68 198 132 68 198 132 68 198 132 68 198 132 68 198 132 68 198 132 68 198 132 68 198 132 68 198 132 68 198 132 68 198 132 68 198 132 68 198 132 68 198 132 68 198 132 68 198 132 68 198 132 68 198 132 68 198 132 68 198 132 68 198 132 68 198 132 68 198 132 68 198 132 68 198 132 68 198 132 68 198 132 68 198 132 68 198 132 68 198 132 68 198 132 68 198 132 68 198 132 68 198 132 68 198 132 68 198 132 68 198 132 68 198 132 68 198 132 68 198 132 68 198 132 68 198 132 68 198 132 68 198 132 68 198 132 68 198 132 68 198 132 68 198 132 68 198 132 68 198 132 68 198 132 68 198 132 68 198 132 68 198 132 68 1 0 0 
1 0 0 198 132 68 198 132 68 198 132 68 198 132 68 198 132 68 198 132 68 198 132 68 198 132 68 198 132 68 198 132 68 198 132 68 198 132 68 198 132 68 198 132 68 198 132 68 198 132 68 198 132 68 198 132 68 198 132 68 198 132 68 198 132 68 198 132 68 198 132 68 198 132 68 198 132 68 198 132 68 198 132 68 198 132 68 198 132 68 198 132 68 198 132 68 198 132 68 198 132 68 198 132 68 198 132 68 198 132 68 198 132 68 198 132 68 198 132 68 198 132 68 198 132 68 198 132 68 198 132 68 198 132 68 198 132 68 198 132 68 198 132 68 198 132 68 198 132 68 198 132 68 198 132 68 198 132 68 198 132 68 198 132 68 198 132 68 198 132 68 198 132 68 198 132 68 198 132 68 198 132 68 198 132 68 198 132 68 198 132 68 198 132 68 198 132 68 198 132 68 198 132 68 198 132 68 198 132 68 198 132 68 198 132 68 198 132 68 198 132 68 198 132 68 198 132 68 198 132 68 198 132 68 198 132 68 198 132 68 198 132 68 198 132 68 198 132 68 198 132 68 198 132 68 198 132 68 198 132 68 198 132 68 198 132 68 198 132 68 198 132 68 198 132 68 198 132 68 198 132 68 198 132 68 198 132 68 198 132 68 198 132 68 1 0 0 
1 0 0 198 132 68 198 132 68 198 132 68 198 132 68 198 132 68 198 132 68 198 132 68 198 132 68 198 132 68 198 132 68 198 132 68 198 132 68 198 132 68 198 132 68 198 132 68 198 132 68 198 132 68 198 132 68 198 132 68 198 132 68 198 132 68 198 132 68 198 132 68 198 132 68 198 132 68 198 132 68 198 132 68 198 132 68 198 132 68 198 132 68 198 132 68 198 132 68 198 132 68 198 132 68 198 132 68 198 132 68 198 132 68 198 132 68 198 132 68 198 132 68 198 132 68 198 132 68 198 132 68 198 132 68 198 132 68 198 132 68 198 132 68 198 132 68 198 132 68 198 132 68 198 132 68 198 132 68 198 132 68 198 132 68 198 132 68 198 132 68 198 132 68 198 132 68 198 132 68 198 132 68 198 132 68 198 132 68 198 132 68 198 132 68 198 132 68 198 132 68 198 132 68 198 132 68 198 132 68 198 132 68 198 132 68 198 132 68 198 132 68 198 132 68 198 132 68 198 132 68 198 132 68 198 132 68 198 132 68 198 132 68 198 132 68 198 132 68 198 132 68 198 132 68 198 132 68 198 132 68 198 132 68 198 132 68 198 132 68 198 132 68 198 132 68 198 132 68 198 132 68 198 132 68 198 132 68 198 132 68 198 132 68 1 0 0 
1 0 0 198 132 68 198 132 68 198 132 68 198 132 68 198 132 68 198 132 68 198 132 68 198 132 68 198 132 68 198 132 68 198 132 68 198 132 68 198 132 68 198 132 68 198 132 68 198 132 68 198 132 68 198 132 68 198 132 68 198 132 68 198 132 68 198 132 68 198 132 68 198 132 68 198 132 68 198 132 68 198 132 68 198 132 68 198 132 68 198 132 68 198 132 68 198 132 68 198 132 68 198 132 68 198 132 68 198 132 68 198 132 68 198 132 68 198 132 68 198 132 68 198 132 68 198 132 68 198 132 68 198 132 68 198 132 68 198 132 68 198 132 68 198 132 68 198 132 68 198 132 68 198 132 68 198 132 68 198 132 68 198 132 68 198 132 68 198 132 68 198 132 68 198 132 68 198 132 68 198 132 68 198 132 68 198 132 68 198 132 68 198 132 68 198 132 68 198 132 68 198 132 68 198 132 68 198 132 68 198 132 68 198 132 68 198 132 68 198 132 68 198 132 68 198 132 68 198 132 68 198 132 68 198 132 68 198 132 68 198 132 68 198 132 68 198 132 68 198 132 68 198 132 68 198 132 68 198 132 68 198 132 68 198 132 68 198 132 68 198 132 68 198 132 68 198 132 68 198 132 68 198 132 68 198 132 68 198 132 68 198 132 68 1 0 0 
1 0 0 198 132 68 198 132 68 198 132 68 198 132 68 198 132 68 198 132 68 198 132 68 198 132 68 198 132 68 198 132 68 198 132 68 198 132 68 198 132 68 198 132 68 198 132 68 198 132 68 198 132 68 198 132 68 198 132 68 198 132 68 198 132 68 198 132 68 198 132 68 198 132 68 198 132 68 198 132 68 198 132 68 198 132 68 198 132 68 198 132 68 198 132 68 198 132 68 198 132 68 198 132 68 198 132 68 198 132 68 198 132 68 198 132 68 198 132 68 198 132 68 198 132 68 198 132 68 198 132 68 198 132 68 198 132 68 198 132 68 198 132 68 198 132 68 198 132 68 198 132 68 198 132 68 198 132 68 198 132 68 198 132 68 198 132 68 198 132 68 198 132 68 198 132 68 198 132 68 198 132 68 198 132 68 198 132 68 198 132 68 198 132 68 198 132 68 198 132 68 198 132 68 198 132 68 198 132 68 198 132 68 198 132 68 198 132 68 198 132 68 198 132 68 198 132 68 198 132 68 198 132 68 198 132 68 198 132 68 198 132 68 198 132 68 198 132 68 198 132 68 198 132 68 198 132 68 198 132 68 198 132 68 198 132 68 198 132 68 198 132 68 198 132 68 198 132 68 198 132 68 198 132 68 198 132 68 198 132 68 198 132 68 1 0 0 
1 0 0 198 132 68 198 132 68 198 132 68 198 132 68 198 132 68 198 132 68 198 132 68 198 132 68 198 132 68 198 132 68 198 132 68 198 132 68 198 132 68 198 132 68 198 132 68 198 132 68 198 132 68 198 132 68 198 132 68 198 132 68 198 132 68 198 132 68 198 132 68 198 132 68 198 132 68 198 132 68 198 132 68 198 132 68 198 132 68 198 132 68 198 132 68 198 132 68 198 132 68 198 132 68 198 132 68 198 132 68 198 132 68 198 132 68 198 132 68 198 132 68 198 132 68 198 132 68 198 132 68 198 132 68 198 132 68 198 132 68 198 132 68 198 132 68 198 132 68 198 132 68 198 132 68 198 132 68 198 132 68 198 132 68 198 132 68 198 132 68 198 132 68 198 132 68 198 132 68 198 132 68 198 132 68 198 132 68 198 132 68 198 132 68 198 132 68 198 132 68 198 132 68 198 132 68 198 132 68 198 132 68 198 132 68 198 132 68 198 132 68 198 132 68 198 132 68 198 132 68 198 132 68 198 132 68 198 132 68 198 132 68 198 132 68 198 132 68 198 132 68 198 132 68 198 132 68 198 132 68 198 132 68 198 132 68 198 132 68 198 132 68 198 132 68 198 132 68 198 132 68 198 132 68 198 132 68 198 132 68 198 132 68 1 0 0 
1 0 0 198 132 68 198 132 68 198 132 68 198 132 68 198 132 68 198 132 68 198 132 68 198 132 68 198 132 68 198 132 68 198 132 68 198 132 68 198 132 68 198 132 68 198 132 68 198 132 68 198 132 68 198 132 68 198 132 68 198 132 68 198 132 68 198 132 68 198 132 68 198 132 68 198 132 68 198 132 68 198 132 68 198 132 68 198 132 68 198 132 68 198 132 68 198 132 68 198 132 68 198 132 68 198 132 68 198 132 68 198 132 68 198 132 68 198 132 68 198 132 68 198 132 68 198 132 68 198 132 68 198 132 68 198 132 68 198 132 68 198 132 68 198 132 68 198 132 68 198 132 68 198 132 68 198 132 68 198 132 68 198 132 68 198 132 68 198 132 68 198 132 68 198 132 68 198 132 68 198 132 68 198 132 68 198 132 68 198 132 68 198 132 68 198 132 68 198 132 68 198 132 68 198 132 68 198 132 68 198 132 68 198 132 68 198 132 68 198 132 68 198 132 68 198 132 68 198 132 68 198 132 68 198 132 68 198 132 68 198 132 68 198 132 68 198 132 68 198 132 68 198 132 68 198 132 68 198 132 68 198 132 68 198 132 68 198 132 68 198 132 68 198 132 68 198 132 68 198 132 68 198 132 68 198 132 68 198 132 68 198 132 68 1 0 0 
1 0 0 198 132 68 198 132 68 198 132 68 198 132 68 198 132 68 198 132 68 198 132 68 198 132 68 198 132 68 198 132 68 198 132 68 198 132 68 198 132 68 198 132 68 198 132 68 198 132 68 198 132 68 198 132 68 198 132 68 198 132 68 198 132 68 198 132 68 198 132 68 198 132 68 198 132 68 198 132 68 198 132 68 198 132 68 198 132 68 198 132 68 198 132 68 198 132 68 198 132 68 198 132 68 198 132 68 198 132 68 198 132 68 198 132 68 198 132 68 198 132 68 198 132 68 198 132 68 198 132 68 198 132 68 198 132 68 198 132 68 198 132 68 198 132 68 198 132 68 198 132 68 198 132 68 198 132 68 198 132 68 198 132 68 198 132 68 198 132 68 198 132 68 198 132 68 198 132 68 198 132 68 198 132 68 198 132 68 198 132 68 198 132 68 198 132 68 198 132 68 198 132 68 198 132 68 198 132 68 198 132 68 198 132 68 198 132 68 198 132 68 198 132 68 198 132 68 198 132 68 198 132 68 198 132 68 198 132 68 198 132 68 198 132 68 198 132 68 198 132 68 198 132 68 198 132 68 198 132 68 198 132 68 198 132 68 198 132 68 198 132 68 198 132 68 198 132 68 198 132 68 198 132 68 198 132 68 198 132 68 198 132 68 1 0 0 
1 0 0 198 132 68 198 132 68 198 132 68 198 132 68 198 132 68 198 132 68 198 132 68 198 132 68 198 132 68 198 132 68 198 132 68 198 132 68 198 132 68 198 132 68 198 132 68 198 132 68 198 132 68 198 132 68 198 132 68 198 132 68 198 132 68 198 132 68 198 132 68 198 132 68 198 132 68 198 132 68 198 132 68 198 132 68 198 132 68 198 132 68 198 132 68 198 132 68 198 132 68 198 132 68 198 132 68 198 132 68 198 132 68 198 132 68 198 132 68 198 132 68 198 132 68 198 132 68 198 132 68 198 132 68 198 132 68 198 132 68 198 132 68 198 132 68 198 132 68 198 132 68 198 132 68 198 132 68 198 132 68 198 132 68 198 132 68 198 132 68 198 132 68 198 132 68 198 132 68 198 132 68 198 132 68 198 132 68 198 132 68 198 132 68 198 132 68 198 132 68 198 132 68 198 132 68 198 132 68 198 132 68 198 132 68 198 132 68 198 132 68 198 132 68 198 132 68 198 132 68 198 132 68 198 132 68 198 132 68 198 132 68 198 132 68 198 132 68 198 132 68 198 132 68 198 132 68 198 132 68 198 132 68 198 132 68 198 132 68 198 132 68 198 132 68 198 132 68 198 132 68 198 132 68 198 132 68 198 132 68 198 132 68 1 0 0 
1 0 0 198 132 68 198 132 68 198 132 68 198 132 68 198 132 68 198 132 68 198 132 68 198 132 68 198 132 68 198 132 68 198 132 68 198 132 68 198 132 68 198 132 68 198 132 68 198 132 68 198 132 68 198 132 68 198 132 68 198 132 68 198 132 68 198 132 68 198 132 68 198 132 68 198 132 68 198 132 68 198 132 68 198 132 68 198 132 68 198 132 68 198 132 68 198 132 68 198 132 68 198 132 68 198 132 68 198 132 68 198 132 68 198 132 68 198 132 68 198 132 68 198 132 68 198 132 68 198 132 68 198 132 68 198 132 68 198 132 68 198 132 68 198 132 68 198 132 68 198 132 68 198 132 68 198 132 68 198 132 68 198 132 68 198 132 68 198 132 68 198 132 68 198 132 68 198 132 68 198 132 68 198 132 68 198 132 68 198 132 68 198 132 68 198 132 68 198 132 68 198 132 68 198 132 68 198 132 68 198 132 68 198 132 68 198 132 68 198 132 68 198 132 68 198 132 68 198 132 68 198 132 68 198 132 68 198 132 68 198 132 68 198 132 68 198 132 68 198 132 68 198 132 68 198 132 68 198 132 68 198 132 68 198 132 68 198 132 68 198 132 68 198 132 68 198 132 68 198 132 68 198 132 68 198 132 68 198 132 68 198 132 68 1 0 0 
1 0 0 198 132 68 198 132 68 198 132 68 198 132 68 198 132 68 198 132 68 198 132 68 198 132 68 198 132 68 198 132 68 198 132 68 198 132 68 198 132 68 198 132 68 198 132 68 198 132 68 198 132 68 198 132 68 198 132 68 198 132 68 198 132 68 198 132 68 198 132 68 198 132 68 198 132 68 198 132 68 198 132 68 198 132 68 198 132 68 198 132 68 198 132 68 198 132 68 198 132 68 198 132 68 198 132 68 198 132 68 198 132 68 198 132 68 198 132 68 198 132 68 198 132 68 198 132 68 198 132 68 198 132 68 198 132 68 198 132 68 198 132 68 198 132 68 198 132 68 198 132 68 198 132 68 198 132 68 198 132 68 198 132 68 198 132 68 198 132 68 198 132 68 198 132 68 198 132 68 198 132 68 198 132 68 198 132 68 198 132 68 198 132 68 198 132 68 198 132 68 198 132 68 198 132 68 198 132 68 198 132 68 198 132 68 198 132 68 198 132 68 198 132 68 198 132 68 198 132 68 198 132 68 198 132 68 198 132 68 198 132 68 198 132 68 198 132 68 198 132 68 198 132 68 198 132 68 198 132 68 198 132 68 198 132 68 198 132 68 198 132 68 198 132 68 198 132 68 198 132 68 198 132 68 198 132 68 198 132 68 198 132 68 1 0 0 
1 0 0 198 132 68 198 132 68 198 132 68 198 132 68 198 132 68 198 132 68 198 132 68 198 132 68 198 132 68 198 132 68 198 132 68 198 132 68 198 132 68 198 132 68 198 132 68 198 132 68 198 132 68 198 132 68 198 132 68 198 132 68 198 132 68 198 132 68 198 132 68 198 132 68 198 132 68 198 132 68 198 132 68 198 132 68 198 132 68 198 132 68 198 132 68 198 132 68 198 132 68 198 132 68 198 132 68 198 132 68 198 132 68 198 132 68 198 132 68 198 132 68 198 132 68 198 132 68 198 132 68 198 132 68 198 132 68 198 132 68 198 132 68 198 132 68 198 132 68 198 132 68 198 132 68 198 132 68 198 132 68 198 132 68 198 132 68 198 132 68 198 132 68 198 132 68 198 132 68 198 132 68 198 132 68 198 132 68 198 132 68 198 132 68 198 132 68 198 132 68 198 132 68 198 132 68 198 132 68 198 132 68 198 132 68 198 132 68 198 132 68 198 132 68 198 132 68 198 132 68 198 132 68 198 132 68 198 132 68 198 132 68 198 132 68 198 132 68 198 132 68 198 132 68 198 132 68 198 132 68 198 132 68 198 132 68 198 132 68 198 132 68 198 132 68 198 132 68 198 132 68 198 132 68 198 132 68 198 132 68 198 132 68 1 0 0 
0 0 0 1 0 0 1 0 0 1 0 0 1 0 0 1 0 0 1 0 0 1 0 0 1 0 0 1 0 0 1 0 0 1 0 0 1 0 0 1 0 0 1 0 0 1 0 0 1 0 0 1 0 0 1 0 0 1 0 0 1 0 0 1 0 0 1 0 0 1 0 0 1 0 0 1 0 0 1 0 0 1 0 0 1 0 0 1 0 0 1 0 0 1 0 0 1 0 0 1 0 0 1 0 0 1 0 0 1 0 0 1 0 0 1 0 0 1 0 0 1 0 0 1 0 0 1 0 0 1 0 0 1 0 0 1 0 0 1 0 0 1 0 0 1 0 0 1 0 0 1 0 0 1 0 0 1 0 0 1 0 0 1 0 0 1 0 0 1 0 0 1 0 0 1 0 0 1 0 0 1 0 0 1 0 0 1 0 0 1 0 0 1 0 0 1 0 0 1 0 0 1 0 0 1 0 0 1 0 0 1 0 0 1 0 0 1 0 0 1 0 0 1 0 0 1 0 0 1 0 0 1 0 0 1 0 0 1 0 0 1 0 0 1 0 0 1 0 0 1 0 0 1 0 0 1 0 0 1 0 0 1 0 0 1 0 0 1 0 0 1 0 0 1 0 0 1 0 0 1 0 0 1 0 0 1 0 0 1 0 0 1 0 0 0 0 0 
