P3
# Created by GIMP version 2.10.30 PNM plug-in
64 64
255
56
56
56
0
0
112
0
0
124
0
0
124
0
0
124
0
0
124
0
0
124
0
0
124
0
0
124
0
0
124
0
0
124
0
0
124
0
0
124
0
0
124
0
0
124
0
0
124
0
0
124
0
0
124
0
0
124
0
0
124
0
0
124
0
0
112
56
56
56
56
56
56
0
0
136
0
0
136
0
0
136
0
0
136
0
0
136
0
0
136
0
0
136
0
0
136
0
0
136
0
0
136
0
0
136
0
0
136
0
0
136
0
0
136
0
0
136
0
0
136
0
0
136
0
0
136
0
0
136
0
0
136
0
0
136
0
0
136
0
0
136
0
0
136
0
0
136
0
0
136
0
0
136
0
0
136
56
56
56
56
56
56
0
0
112
0
0
124
0
0
124
0
0
124
0
0
124
0
0
124
0
0
124
0
0
124
0
0
112
44
44
44
32
32
32
0
0
164
0
0
164
0
0
164
0
0
164
0
0
164
0
0
164
0
0
164
0
0
164
0
0
164
0
0
164
0
0
164
0
0
164
0
0
164
0
0
164
0
0
164
0
0
164
0
0
164
0
0
164
0
0
164
0
0
164
0
0
164
32
32
32
32
32
32
0
0
188
0
0
188
0
0
188
0
0
188
0
0
188
0
0
188
0
0
188
0
0
188
0
0
188
0
0
188
0
0
188
0
0
188
0
0
188
0
0
188
0
0
188
0
0
188
0
0
188
0
0
188
0
0
188
0
0
188
0
0
188
0
0
188
0
0
188
0
0
188
0
0
188
0
0
188
0
0
188
0
0
188
32
32
32
32
32
32
0
0
176
0
0
176
0
0
176
0
0
176
0
0
176
0
0
176
0
0
176
0
0
176
0
0
176
32
32
32
0
0
0
0
0
164
0
0
164
0
0
164
0
0
136
0
0
164
0
0
124
0
0
164
0
0
164
0
0
152
0
0
124
0
0
152
0
0
152
0
0
124
0
0
152
0
0
152
0
0
124
0
0
164
0
0
124
0
0
112
0
0
112
0
0
88
0
0
0
32
32
32
0
0
188
0
0
164
0
0
188
0
0
176
0
0
124
0
0
164
0
0
188
0
0
152
0
0
112
0
0
112
0
0
152
0
0
136
0
0
164
0
0
164
0
0
136
0
0
112
0
0
136
0
0
164
0
0
188
0
0
164
0
0
136
0
0
152
0
0
164
0
0
188
0
0
188
0
0
164
0
0
152
0
0
112
0
0
0
32
32
32
0
0
176
0
0
188
0
0
164
0
0
152
0
0
164
0
0
176
0
0
176
0
0
152
0
0
124
0
0
0
0
0
0
0
0
164
0
0
152
0
0
124
0
0
136
0
0
152
0
0
152
0
0
152
0
0
124
0
0
124
0
0
164
0
0
152
0
0
164
0
0
100
0
0
152
0
0
152
0
0
124
0
0
112
0
0
124
0
0
124
0
0
112
0
0
100
0
0
0
32
32
32
0
0
188
0
0
188
0
0
164
0
0
152
0
0
152
0
0
152
0
0
112
0
0
152
0
0
88
0
0
112
0
0
88
0
0
88
0
0
124
0
0
164
0
0
164
0
0
100
0
0
112
0
0
112
0
0
100
0
0
112
0
0
112
0
0
88
0
0
112
0
0
136
0
0
136
0
0
112
0
0
100
0
0
112
0
0
0
32
32
32
0
0
176
0
0
176
0
0
164
0
0
164
0
0
124
0
0
152
0
0
164
0
0
164
0
0
88
0
0
0
0
0
0
0
0
164
0
0
136
0
0
164
0
0
112
0
0
200
0
0
200
0
0
152
0
0
124
0
0
124
0
0
124
0
0
152
0
0
136
0
0
136
0
0
124
0
0
100
0
0
88
0
0
124
0
0
112
0
0
88
0
0
88
0
0
100
0
0
0
32
32
32
0
0
0
0
0
0
0
0
0
0
0
0
0
0
0
0
0
0
0
0
0
0
0
0
0
0
0
0
0
0
0
0
0
0
0
0
0
0
0
0
0
0
0
0
0
0
0
0
0
0
0
0
0
0
0
0
0
0
0
0
0
0
0
0
0
0
0
0
0
0
0
0
0
0
0
0
0
0
0
0
0
0
0
0
0
0
0
32
32
32
0
0
176
0
0
164
0
0
176
0
0
188
0
0
188
0
0
176
0
0
164
0
0
124
0
0
124
0
0
0
0
0
0
0
0
164
0
0
136
0
0
124
0
0
164
0
0
200
0
0
200
0
0
100
0
0
124
0
0
124
0
0
124
0
0
164
0
0
152
0
0
152
0
0
152
0
0
136
0
0
112
0
0
112
0
0
124
0
0
88
0
0
88
0
0
64
0
0
0
32
32
32
0
0
164
0
0
164
0
0
164
0
0
164
0
0
164
0
0
164
0
0
164
0
0
164
0
0
164
0
0
164
0
0
164
0
0
164
0
0
164
0
0
164
0
0
164
0
0
164
0
0
164
0
0
164
0
0
164
32
32
32
32
32
32
32
32
32
32
32
32
32
32
32
32
32
32
32
32
32
32
32
32
32
32
32
32
32
32
32
32
32
0
0
176
0
0
188
0
0
164
0
0
176
0
0
164
0
0
124
0
0
124
0
0
100
0
0
88
0
0
0
0
0
0
0
0
164
0
0
152
0
0
152
0
0
176
0
0
176
0
0
164
0
0
164
0
0
164
0
0
152
0
0
164
0
0
164
0
0
164
0
0
152
0
0
152
0
0
112
0
0
112
0
0
100
0
0
88
0
0
100
0
0
112
0
0
100
0
0
0
32
32
32
0
0
164
0
0
188
0
0
188
0
0
188
0
0
176
0
0
164
0
0
152
0
0
152
0
0
188
0
0
152
0
0
152
0
0
176
0
0
152
0
0
152
0
0
176
0
0
188
0
0
188
0
0
164
0
0
164
0
0
0
32
32
32
0
0
164
0
0
164
0
0
164
0
0
164
0
0
152
0
0
152
0
0
100
32
32
32
32
32
32
0
0
176
0
0
152
0
0
152
0
0
164
0
0
124
0
0
136
0
0
136
0
0
100
0
0
100
0
0
0
0
0
0
0
0
164
0
0
164
0
0
152
0
0
164
0
0
176
0
0
176
0
0
164
0
0
152
0
0
124
0
0
100
0
0
164
0
0
164
0
0
152
0
0
136
0
0
136
0
0
124
0
0
100
0
0
100
0
0
88
0
0
64
0
0
64
0
0
0
32
32
32
0
0
164
0
0
176
0
0
188
0
0
224
0
0
200
0
0
176
0
0
164
0
0
188
0
0
164
0
0
152
0
0
152
0
0
152
0
0
176
0
0
176
0
0
164
0
0
164
0
0
164
0
0
152
0
0
164
0
0
0
32
32
32
0
0
164
0
0
152
0
0
152
0
0
136
0
0
152
0
0
124
0
0
100
0
0
0
32
32
32
0
0
176
0
0
152
0
0
152
0
0
164
0
0
112
0
0
136
0
0
136
0
0
136
0
0
100
0
0
0
0
0
0
0
0
164
0
0
152
0
0
124
0
0
152
0
0
164
0
0
164
0
0
136
0
0
152
0
0
124
0
0
152
0
0
112
0
0
112
0
0
136
0
0
136
0
0
136
0
0
112
0
0
124
0
0
124
0
0
100
0
0
88
0
0
64
0
0
0
32
32
32
0
0
164
0
0
176
0
0
200
0
0
188
0
0
200
0
0
152
0
0
176
0
0
164
0
0
164
0
0
188
0
0
152
0
0
152
0
0
164
0
0
124
0
0
164
0
0
124
0
0
152
0
0
164
0
0
124
0
0
0
32
32
32
0
0
164
0
0
152
0
0
152
0
0
152
0
0
124
0
0
124
0
0
100
0
0
0
32
32
32
0
0
176
0
0
188
0
0
164
0
0
152
0
0
164
0
0
164
0
0
136
0
0
136
0
0
64
0
0
0
0
0
0
0
0
164
0
0
136
0
0
136
0
0
136
0
0
164
0
0
124
0
0
124
0
0
124
0
0
164
0
0
164
0
0
112
0
0
88
0
0
100
0
0
100
0
0
112
0
0
100
0
0
124
0
0
124
0
0
124
0
0
88
0
0
64
0
0
0
32
32
32
0
0
164
0
0
176
0
0
176
0
0
176
0
0
152
0
0
152
0
0
152
0
0
176
0
0
164
0
0
164
0
0
164
0
0
164
0
0
152
0
0
136
0
0
100
0
0
124
0
0
124
0
0
124
0
0
100
0
0
0
32
32
32
0
0
164
0
0
164
0
0
152
0
0
124
0
0
124
0
0
88
0
0
88
0
0
0
32
32
32
0
0
188
0
0
124
0
0
124
0
0
152
0
0
164
0
0
164
0
0
152
0
0
88
0
0
64
0
0
0
0
0
0
0
0
152
0
0
124
0
0
136
0
0
164
0
0
136
0
0
136
0
0
112
0
0
152
0
0
164
0
0
164
0
0
112
0
0
112
0
0
100
0
0
88
0
0
100
0
0
100
0
0
100
0
0
124
0
0
124
0
0
88
0
0
64
0
0
0
32
32
32
0
0
164
0
0
188
0
0
176
0
0
176
0
0
176
0
0
152
0
0
152
0
0
176
0
0
188
0
0
188
0
0
164
0
0
164
0
0
100
0
0
100
0
0
136
0
0
124
0
0
124
0
0
100
0
0
88
0
0
0
32
32
32
0
0
164
0
0
164
0
0
152
0
0
124
0
0
164
0
0
124
0
0
88
0
0
0
32
32
32
0
0
188
0
0
124
0
0
188
0
0
164
0
0
124
0
0
152
0
0
152
0
0
88
0
0
64
0
0
0
0
0
0
0
0
152
0
0
136
0
0
152
0
0
124
0
0
124
0
0
164
0
0
136
0
0
100
0
0
124
0
0
88
0
0
124
0
0
100
0
0
88
0
0
100
0
0
124
0
0
64
0
0
88
0
0
64
0
0
64
0
0
100
0
0
64
0
0
0
32
32
32
0
0
164
0
0
188
0
0
164
0
0
164
0
0
176
0
0
176
0
0
176
0
0
176
0
0
188
0
0
176
0
0
176
0
0
164
0
0
100
0
0
100
0
0
112
0
0
164
0
0
100
0
0
100
0
0
64
0
0
0
32
32
32
0
0
164
0
0
124
0
0
136
0
0
152
0
0
124
0
0
88
0
0
88
0
0
0
32
32
32
0
0
188
0
0
188
0
0
124
0
0
124
0
0
100
0
0
100
0
0
124
0
0
124
0
0
64
0
0
0
0
0
0
0
0
152
0
0
124
0
0
152
0
0
124
0
0
100
0
0
136
0
0
136
0
0
124
0
0
100
0
0
124
0
0
100
0
0
124
0
0
100
0
0
64
0
0
112
0
0
112
0
0
64
0
0
64
0
0
64
0
0
100
0
0
64
0
0
0
32
32
32
0
0
164
0
0
176
0
0
164
0
0
164
0
0
152
0
0
188
0
0
152
0
0
152
0
0
164
0
0
176
0
0
176
0
0
164
0
0
152
0
0
152
0
0
124
0
0
124
0
0
88
0
0
88
0
0
100
0
0
0
32
32
32
0
0
164
0
0
136
0
0
136
0
0
136
0
0
112
0
0
112
0
0
100
0
0
0
32
32
32
0
0
188
0
0
124
0
0
112
0
0
100
0
0
124
0
0
100
0
0
124
0
0
124
0
0
64
0
0
0
0
0
0
0
0
152
0
0
152
0
0
124
0
0
124
0
0
124
0
0
112
0
0
100
0
0
88
0
0
88
0
0
100
0
0
124
0
0
100
0
0
112
0
0
100
0
0
64
0
0
64
0
0
112
0
0
64
0
0
100
0
0
88
0
0
64
0
0
0
32
32
32
0
0
164
0
0
176
0
0
224
0
0
200
0
0
136
0
0
136
0
0
152
0
0
152
0
0
136
0
0
124
0
0
124
0
0
124
0
0
136
0
0
152
0
0
136
0
0
124
0
0
100
0
0
100
0
0
64
0
0
0
32
32
32
0
0
164
0
0
164
0
0
136
0
0
136
0
0
112
0
0
112
0
0
100
0
0
0
32
32
32
0
0
188
0
0
124
0
0
124
0
0
112
0
0
88
0
0
88
0
0
88
0
0
88
0
0
64
0
0
0
0
0
0
0
0
152
0
0
124
0
0
152
0
0
100
0
0
100
0
0
112
0
0
100
0
0
124
0
0
100
0
0
64
0
0
64
0
0
64
0
0
64
0
0
64
0
0
64
0
0
64
0
0
64
0
0
64
0
0
64
0
0
64
0
0
64
0
0
0
32
32
32
0
0
164
0
0
188
0
0
200
0
0
200
0
0
136
0
0
136
0
0
136
0
0
164
0
0
164
0
0
124
0
0
136
0
0
136
0
0
124
0
0
136
0
0
112
0
0
124
0
0
100
0
0
88
0
0
64
0
0
0
32
32
32
0
0
164
0
0
124
0
0
152
0
0
164
0
0
88
0
0
88
0
0
88
0
0
0
32
32
32
0
0
0
0
0
0
0
0
0
0
0
0
0
0
0
0
0
0
0
0
0
0
0
0
0
0
0
0
0
0
0
0
0
0
0
0
0
0
0
0
0
0
0
0
0
0
0
0
0
0
0
0
0
0
0
0
0
0
0
0
0
0
0
0
0
0
0
0
0
0
0
0
0
0
0
0
0
0
0
0
0
0
0
0
0
0
0
0
0
0
0
0
0
0
0
0
0
0
0
32
32
32
0
0
164
0
0
188
0
0
164
0
0
164
0
0
152
0
0
136
0
0
136
0
0
164
0
0
164
0
0
164
0
0
136
0
0
136
0
0
152
0
0
100
0
0
100
0
0
124
0
0
100
0
0
88
0
0
64
0
0
0
32
32
32
0
0
164
0
0
164
0
0
164
0
0
152
0
0
164
0
0
88
0
0
100
0
0
0
32
32
32
32
32
32
32
32
32
32
32
32
32
32
32
32
32
32
32
32
32
32
32
32
32
32
32
32
32
32
32
32
32
0
0
164
0
0
188
0
0
176
0
0
164
0
0
176
0
0
164
0
0
164
0
0
164
0
0
164
0
0
164
0
0
176
0
0
164
0
0
164
0
0
164
0
0
164
0
0
0
0
0
176
0
0
176
0
0
176
0
0
164
0
0
164
0
0
152
0
0
152
0
0
0
0
0
164
0
0
176
0
0
152
0
0
164
0
0
136
0
0
152
0
0
164
0
0
164
0
0
164
0
0
164
0
0
124
0
0
152
0
0
152
0
0
124
0
0
124
0
0
88
0
0
88
0
0
64
0
0
64
0
0
0
32
32
32
0
0
152
0
0
164
0
0
152
0
0
164
0
0
152
0
0
112
0
0
100
0
0
0
32
32
32
0
0
164
0
0
164
0
0
164
0
0
164
0
0
0
0
0
188
0
0
188
0
0
188
0
0
188
0
0
188
0
0
188
0
0
176
0
0
164
0
0
152
0
0
164
0
0
188
0
0
176
0
0
164
0
0
136
0
0
164
0
0
164
0
0
124
0
0
164
0
0
152
0
0
124
0
0
0
0
0
176
0
0
176
0
0
152
0
0
188
0
0
188
0
0
124
0
0
188
0
0
0
0
0
164
0
0
164
0
0
164
0
0
164
0
0
188
0
0
164
0
0
152
0
0
164
0
0
164
0
0
164
0
0
136
0
0
100
0
0
112
0
0
124
0
0
64
0
0
64
0
0
100
0
0
88
0
0
64
0
0
0
32
32
32
0
0
152
0
0
152
0
0
124
0
0
112
0
0
124
0
0
112
0
0
88
0
0
0
32
32
32
0
0
164
0
0
176
0
0
136
0
0
124
0
0
0
0
0
188
0
0
188
0
0
164
0
0
176
0
0
188
0
0
188
0
0
176
0
0
152
0
0
152
0
0
136
0
0
164
0
0
164
0
0
136
0
0
124
0
0
152
0
0
152
0
0
124
0
0
124
0
0
152
0
0
152
0
0
0
0
0
176
0
0
188
0
0
188
0
0
176
0
0
152
0
0
124
0
0
124
0
0
0
0
0
164
0
0
176
0
0
152
0
0
164
0
0
188
0
0
164
0
0
136
0
0
124
0
0
136
0
0
136
0
0
100
0
0
124
0
0
124
0
0
112
0
0
64
0
0
64
0
0
100
0
0
64
0
0
64
0
0
0
32
32
32
0
0
152
0
0
152
0
0
88
0
0
88
0
0
88
0
0
100
0
0
64
0
0
0
32
32
32
0
0
164
0
0
176
0
0
176
0
0
124
0
0
0
0
0
188
0
0
164
0
0
176
0
0
176
0
0
176
0
0
176
0
0
164
0
0
152
0
0
176
0
0
176
0
0
152
0
0
152
0
0
124
0
0
124
0
0
124
0
0
152
0
0
124
0
0
124
0
0
124
0
0
124
0
0
0
0
0
176
0
0
188
0
0
176
0
0
176
0
0
152
0
0
152
0
0
100
0
0
0
0
0
164
0
0
176
0
0
164
0
0
164
0
0
164
0
0
136
0
0
164
0
0
124
0
0
124
0
0
100
0
0
112
0
0
112
0
0
88
0
0
88
0
0
88
0
0
100
0
0
100
0
0
88
0
0
64
0
0
0
32
32
32
0
0
152
0
0
124
0
0
88
0
0
100
0
0
88
0
0
88
0
0
64
0
0
0
32
32
32
0
0
164
0
0
136
0
0
124
0
0
88
0
0
0
0
0
188
0
0
188
0
0
188
0
0
176
0
0
176
0
0
164
0
0
136
0
0
152
0
0
176
0
0
188
0
0
176
0
0
124
0
0
124
0
0
152
0
0
152
0
0
124
0
0
152
0
0
88
0
0
124
0
0
124
0
0
0
0
0
176
0
0
188
0
0
152
0
0
124
0
0
152
0
0
152
0
0
100
0
0
0
0
0
164
0
0
164
0
0
164
0
0
152
0
0
152
0
0
152
0
0
152
0
0
124
0
0
100
0
0
88
0
0
100
0
0
100
0
0
88
0
0
100
0
0
100
0
0
88
0
0
64
0
0
64
0
0
64
0
0
0
32
32
32
0
0
152
0
0
124
0
0
100
0
0
88
0
0
88
0
0
64
0
0
64
0
0
0
32
32
32
0
0
164
0
0
88
0
0
100
0
0
88
0
0
0
0
0
188
0
0
188
0
0
176
0
0
176
0
0
176
0
0
164
0
0
164
0
0
136
0
0
152
0
0
176
0
0
212
0
0
124
0
0
152
0
0
124
0
0
124
0
0
100
0
0
100
0
0
112
0
0
124
0
0
124
0
0
0
0
0
176
0
0
152
0
0
188
0
0
124
0
0
124
0
0
124
0
0
100
0
0
0
0
0
0
0
0
0
0
0
0
0
0
0
0
0
0
0
0
0
0
0
0
0
0
0
0
0
0
0
0
0
0
0
0
0
0
0
0
0
0
0
0
0
0
0
0
0
0
0
0
0
0
0
0
0
0
0
0
0
0
0
32
32
32
0
0
0
0
0
0
0
0
0
0
0
0
0
0
0
0
0
0
0
0
0
0
0
0
0
0
0
0
0
0
0
0
0
0
0
0
0
0
0
32
32
32
0
0
188
0
0
188
0
0
164
0
0
164
0
0
152
0
0
176
0
0
136
0
0
124
0
0
136
0
0
152
0
0
164
0
0
152
0
0
124
0
0
124
0
0
152
0
0
100
0
0
112
0
0
124
0
0
88
0
0
88
0
0
0
0
0
176
0
0
152
0
0
152
0
0
100
0
0
124
0
0
124
0
0
88
0
0
0
32
32
32
32
32
32
32
32
32
32
32
32
32
32
32
32
32
32
32
32
32
32
32
32
32
32
32
32
32
32
32
32
32
32
32
32
32
32
32
32
32
32
32
32
32
32
32
32
32
32
32
32
32
32
32
32
32
32
32
32
32
32
32
32
32
32
32
32
32
32
32
32
32
32
32
0
0
176
0
0
176
0
0
176
0
0
176
0
0
176
0
0
176
0
0
176
0
0
176
32
32
32
32
32
32
0
0
188
0
0
164
0
0
164
0
0
152
0
0
152
0
0
176
0
0
164
0
0
136
0
0
152
0
0
124
0
0
152
0
0
124
0
0
152
0
0
152
0
0
124
0
0
112
0
0
124
0
0
100
0
0
124
0
0
88
0
0
0
0
0
176
0
0
188
0
0
152
0
0
136
0
0
100
0
0
88
0
0
100
0
0
0
32
32
32
0
0
176
0
0
176
0
0
176
0
0
176
0
0
176
0
0
176
0
0
176
0
0
176
0
0
176
0
0
176
0
0
176
0
0
176
0
0
176
0
0
176
0
0
176
0
0
176
0
0
176
0
0
176
0
0
176
0
0
176
0
0
152
0
0
164
32
32
32
32
32
32
0
0
176
0
0
200
0
0
176
0
0
200
0
0
164
0
0
164
0
0
164
0
0
152
0
0
0
32
32
32
0
0
188
0
0
176
0
0
152
0
0
152
0
0
152
0
0
176
0
0
176
0
0
152
0
0
136
0
0
176
0
0
152
0
0
152
0
0
152
0
0
152
0
0
124
0
0
124
0
0
112
0
0
88
0
0
88
0
0
88
0
0
0
0
0
164
0
0
188
0
0
124
0
0
136
0
0
136
0
0
100
0
0
88
0
0
0
32
32
32
0
0
176
0
0
188
0
0
176
0
0
164
0
0
188
0
0
188
0
0
188
0
0
176
0
0
188
0
0
164
0
0
176
0
0
164
0
0
188
0
0
176
0
0
124
0
0
164
0
0
188
0
0
188
0
0
188
0
0
124
0
0
164
0
0
88
0
0
0
32
32
32
0
0
176
0
0
200
0
0
176
0
0
200
0
0
200
0
0
164
0
0
152
0
0
136
0
0
0
32
32
32
0
0
188
0
0
188
0
0
152
0
0
152
0
0
152
0
0
176
0
0
164
0
0
136
0
0
124
0
0
136
0
0
176
0
0
176
0
0
100
0
0
124
0
0
152
0
0
136
0
0
136
0
0
112
0
0
88
0
0
100
0
0
0
0
0
164
0
0
124
0
0
100
0
0
112
0
0
112
0
0
88
0
0
100
0
0
0
32
32
32
0
0
176
0
0
188
0
0
164
0
0
176
0
0
200
0
0
224
0
0
224
0
0
188
0
0
212
0
0
224
0
0
164
0
0
188
0
0
164
0
0
164
0
0
188
0
0
188
0
0
164
0
0
164
0
0
164
0
0
164
0
0
124
0
0
88
0
0
0
32
32
32
0
0
176
0
0
200
0
0
200
0
0
200
0
0
200
0
0
164
0
0
136
0
0
124
0
0
0
32
32
32
0
0
188
0
0
176
0
0
188
0
0
164
0
0
164
0
0
164
0
0
152
0
0
124
0
0
136
0
0
164
0
0
176
0
0
176
0
0
164
0
0
152
0
0
124
0
0
136
0
0
136
0
0
112
0
0
88
0
0
100
0
0
0
0
0
152
0
0
124
0
0
88
0
0
88
0
0
88
0
0
88
0
0
100
0
0
0
32
32
32
0
0
176
0
0
176
0
0
164
0
0
188
0
0
212
0
0
212
0
0
224
0
0
188
0
0
224
0
0
212
0
0
212
0
0
176
0
0
124
0
0
164
0
0
124
0
0
124
0
0
164
0
0
124
0
0
124
0
0
164
0
0
88
0
0
88
0
0
0
32
32
32
0
0
176
0
0
176
0
0
164
0
0
200
0
0
164
0
0
136
0
0
164
0
0
100
0
0
0
32
32
32
0
0
188
0
0
188
0
0
188
0
0
164
0
0
164
0
0
176
0
0
152
0
0
176
0
0
152
0
0
152
0
0
164
0
0
176
0
0
164
0
0
100
0
0
124
0
0
112
0
0
112
0
0
112
0
0
88
0
0
88
0
0
0
0
0
0
0
0
0
0
0
0
0
0
0
0
0
0
0
0
0
0
0
0
0
0
0
32
32
32
0
0
176
0
0
188
0
0
188
0
0
176
0
0
176
0
0
200
0
0
200
0
0
164
0
0
164
0
0
212
0
0
212
0
0
164
0
0
164
0
0
124
0
0
124
0
0
124
0
0
112
0
0
164
0
0
124
0
0
124
0
0
88
0
0
88
0
0
0
32
32
32
0
0
176
0
0
200
0
0
164
0
0
164
0
0
164
0
0
164
0
0
136
0
0
100
0
0
0
32
32
32
0
0
188
0
0
188
0
0
188
0
0
176
0
0
176
0
0
164
0
0
136
0
0
136
0
0
164
0
0
164
0
0
152
0
0
164
0
0
164
0
0
100
0
0
112
0
0
88
0
0
100
0
0
88
0
0
64
0
0
64
0
0
0
32
32
32
32
32
32
32
32
32
32
32
32
32
32
32
32
32
32
32
32
32
32
32
32
32
32
32
0
0
176
0
0
176
0
0
188
0
0
176
0
0
176
0
0
176
0
0
164
0
0
164
0
0
164
0
0
188
0
0
164
0
0
164
0
0
164
0
0
124
0
0
136
0
0
136
0
0
124
0
0
124
0
0
88
0
0
88
0
0
88
0
0
100
0
0
0
32
32
32
0
0
176
0
0
200
0
0
200
0
0
164
0
0
164
0
0
136
0
0
124
0
0
112
0
0
0
32
32
32
0
0
188
0
0
164
0
0
164
0
0
188
0
0
176
0
0
164
0
0
152
0
0
136
0
0
164
0
0
164
0
0
164
0
0
152
0
0
124
0
0
112
0
0
100
0
0
88
0
0
100
0
0
100
0
0
88
0
0
88
0
0
0
32
32
32
0
0
176
0
0
176
0
0
176
0
0
176
0
0
164
0
0
164
32
32
32
32
32
32
0
0
176
0
0
164
0
0
164
0
0
188
0
0
176
0
0
136
0
0
136
0
0
164
0
0
188
0
0
176
0
0
124
0
0
164
0
0
164
0
0
124
0
0
136
0
0
136
0
0
136
0
0
112
0
0
112
0
0
112
0
0
88
0
0
88
0
0
0
32
32
32
0
0
176
0
0
200
0
0
200
0
0
152
0
0
152
0
0
164
0
0
164
0
0
88
0
0
0
32
32
32
0
0
188
0
0
164
0
0
164
0
0
176
0
0
176
0
0
152
0
0
136
0
0
152
0
0
136
0
0
164
0
0
164
0
0
124
0
0
100
0
0
100
0
0
88
0
0
88
0
0
88
0
0
100
0
0
64
0
0
100
0
0
0
32
32
32
0
0
176
0
0
176
0
0
136
0
0
164
0
0
152
0
0
136
0
0
0
32
32
32
0
0
176
0
0
188
0
0
176
0
0
188
0
0
176
0
0
136
0
0
136
0
0
164
0
0
164
0
0
164
0
0
124
0
0
164
0
0
164
0
0
164
0
0
112
0
0
136
0
0
136
0
0
88
0
0
112
0
0
112
0
0
112
0
0
64
0
0
0
32
32
32
0
0
176
0
0
176
0
0
200
0
0
152
0
0
152
0
0
152
0
0
164
0
0
88
0
0
0
32
32
32
0
0
188
0
0
188
0
0
152
0
0
152
0
0
124
0
0
152
0
0
136
0
0
136
0
0
124
0
0
136
0
0
136
0
0
124
0
0
100
0
0
100
0
0
112
0
0
124
0
0
124
0
0
100
0
0
64
0
0
64
0
0
0
32
32
32
0
0
176
0
0
164
0
0
164
0
0
152
0
0
136
0
0
152
0
0
0
32
32
32
0
0
176
0
0
188
0
0
188
0
0
164
0
0
176
0
0
176
0
0
176
0
0
152
0
0
164
0
0
124
0
0
124
0
0
124
0
0
164
0
0
164
0
0
112
0
0
88
0
0
100
0
0
88
0
0
100
0
0
112
0
0
112
0
0
64
0
0
0
32
32
32
0
0
176
0
0
176
0
0
164
0
0
136
0
0
176
0
0
164
0
0
164
0
0
100
0
0
0
32
32
32
0
0
188
0
0
136
0
0
136
0
0
152
0
0
152
0
0
152
0
0
136
0
0
164
0
0
152
0
0
112
0
0
124
0
0
124
0
0
112
0
0
100
0
0
112
0
0
124
0
0
124
0
0
100
0
0
88
0
0
64
0
0
0
32
32
32
0
0
176
0
0
164
0
0
152
0
0
136
0
0
112
0
0
100
0
0
0
32
32
32
0
0
176
0
0
188
0
0
164
0
0
124
0
0
164
0
0
176
0
0
176
0
0
164
0
0
164
0
0
124
0
0
112
0
0
124
0
0
100
0
0
112
0
0
112
0
0
112
0
0
88
0
0
64
0
0
64
0
0
88
0
0
64
0
0
64
0
0
0
32
32
32
0
0
176
0
0
176
0
0
200
0
0
136
0
0
176
0
0
176
0
0
152
0
0
100
0
0
0
32
32
32
0
0
188
0
0
136
0
0
136
0
0
124
0
0
124
0
0
152
0
0
164
0
0
152
0
0
136
0
0
136
0
0
124
0
0
100
0
0
100
0
0
88
0
0
76
0
0
76
0
0
112
0
0
100
0
0
88
0
0
64
0
0
0
32
32
32
0
0
176
0
0
176
0
0
136
0
0
176
0
0
136
0
0
88
0
0
0
32
32
32
0
0
176
0
0
164
0
0
164
0
0
188
0
0
124
0
0
164
0
0
164
0
0
152
0
0
124
0
0
112
0
0
124
0
0
124
0
0
100
0
0
100
0
0
112
0
0
112
0
0
100
0
0
64
0
0
64
0
0
100
0
0
100
0
0
64
0
0
0
32
32
32
0
0
176
0
0
164
0
0
200
0
0
164
0
0
136
0
0
152
0
0
152
0
0
88
0
0
0
32
32
32
0
0
188
0
0
188
0
0
124
0
0
124
0
0
124
0
0
124
0
0
152
0
0
152
0
0
136
0
0
124
0
0
124
0
0
124
0
0
124
0
0
88
0
0
76
0
0
76
0
0
88
0
0
88
0
0
100
0
0
64
0
0
0
32
32
32
0
0
176
0
0
176
0
0
176
0
0
112
0
0
112
0
0
100
0
0
0
32
32
32
0
0
176
0
0
124
0
0
188
0
0
124
0
0
164
0
0
164
0
0
124
0
0
124
0
0
112
0
0
100
0
0
124
0
0
124
0
0
124
0
0
100
0
0
100
0
0
88
0
0
88
0
0
100
0
0
100
0
0
100
0
0
76
0
0
64
0
0
0
32
32
32
0
0
176
0
0
200
0
0
164
0
0
164
0
0
152
0
0
88
0
0
112
0
0
100
0
0
0
32
32
32
0
0
188
0
0
164
0
0
164
0
0
152
0
0
152
0
0
124
0
0
136
0
0
136
0
0
124
0
0
112
0
0
124
0
0
124
0
0
124
0
0
88
0
0
88
0
0
100
0
0
88
0
0
88
0
0
88
0
0
88
0
0
0
32
32
32
0
0
176
0
0
176
0
0
176
0
0
164
0
0
88
0
0
88
0
0
0
32
32
32
0
0
176
0
0
164
0
0
188
0
0
124
0
0
164
0
0
164
0
0
112
0
0
100
0
0
100
0
0
88
0
0
124
0
0
124
0
0
124
0
0
100
0
0
88
0
0
88
0
0
88
0
0
88
0
0
76
0
0
76
0
0
76
0
0
64
0
0
0
32
32
32
0
0
176
0
0
200
0
0
164
0
0
152
0
0
124
0
0
152
0
0
112
0
0
88
0
0
0
32
32
32
0
0
188
0
0
164
0
0
164
0
0
152
0
0
136
0
0
124
0
0
136
0
0
100
0
0
112
0
0
124
0
0
100
0
0
124
0
0
124
0
0
88
0
0
100
0
0
88
0
0
64
0
0
88
0
0
100
0
0
88
0
0
0
32
32
32
0
0
176
0
0
152
0
0
152
0
0
88
0
0
136
0
0
100
0
0
0
32
32
32
0
0
176
0
0
164
0
0
124
0
0
164
0
0
164
0
0
124
0
0
88
0
0
88
0
0
88
0
0
88
0
0
100
0
0
100
0
0
100
0
0
100
0
0
88
0
0
64
0
0
64
0
0
64
0
0
64
0
0
64
0
0
64
0
0
64
0
0
0
32
32
32
0
0
176
0
0
200
0
0
164
0
0
124
0
0
152
0
0
152
0
0
124
0
0
100
0
0
0
32
32
32
0
0
188
0
0
152
0
0
164
0
0
164
0
0
124
0
0
124
0
0
152
0
0
124
0
0
100
0
0
124
0
0
100
0
0
112
0
0
88
0
0
100
0
0
64
0
0
64
0
0
88
0
0
64
0
0
64
0
0
64
0
0
0
32
32
32
0
0
176
0
0
152
0
0
152
0
0
176
0
0
88
0
0
100
0
0
0
32
32
32
0
0
0
0
0
0
0
0
0
0
0
0
0
0
0
0
0
0
0
0
0
0
0
0
0
0
0
0
0
0
0
0
0
0
0
0
0
0
0
0
0
0
0
0
0
0
0
0
0
0
0
0
0
0
0
0
0
0
0
0
0
0
0
0
0
0
0
0
0
32
32
32
0
0
164
0
0
176
0
0
164
0
0
124
0
0
100
0
0
124
0
0
124
0
0
100
0
0
0
32
32
32
0
0
188
0
0
152
0
0
136
0
0
136
0
0
124
0
0
124
0
0
136
0
0
152
0
0
136
0
0
112
0
0
124
0
0
112
0
0
88
0
0
88
0
0
88
0
0
64
0
0
100
0
0
64
0
0
88
0
0
64
0
0
0
32
32
32
0
0
176
0
0
176
0
0
136
0
0
176
0
0
136
0
0
88
0
0
0
32
32
32
32
32
32
32
32
32
32
32
32
32
32
32
32
32
32
32
32
32
32
32
32
32
32
32
32
32
32
32
32
32
32
32
32
32
32
32
32
32
32
32
32
32
32
32
32
32
32
32
32
32
32
32
32
32
32
32
32
32
32
32
32
32
32
32
32
32
32
32
32
32
32
32
0
0
164
0
0
176
0
0
176
0
0
164
0
0
124
0
0
88
0
0
100
0
0
64
0
0
0
32
32
32
0
0
188
0
0
188
0
0
136
0
0
136
0
0
124
0
0
124
0
0
152
0
0
136
0
0
124
0
0
100
0
0
112
0
0
124
0
0
112
0
0
64
0
0
64
0
0
64
0
0
64
0
0
64
0
0
64
0
0
64
0
0
0
32
32
32
0
0
176
0
0
176
0
0
136
0
0
136
0
0
88
0
0
100
0
0
0
32
32
32
0
0
164
0
0
164
0
0
164
0
0
164
0
0
164
0
0
164
0
0
164
0
0
164
0
0
164
0
0
164
0
0
164
0
0
164
0
0
164
0
0
164
0
0
164
0
0
164
0
0
164
0
0
164
0
0
164
0
0
164
0
0
164
0
0
164
32
32
32
32
32
32
0
0
164
0
0
176
0
0
164
0
0
188
0
0
164
0
0
124
0
0
100
0
0
64
0
0
0
32
32
32
0
0
188
0
0
152
0
0
152
0
0
124
0
0
136
0
0
0
0
0
0
0
0
0
0
0
0
0
0
0
0
0
0
0
0
0
0
0
0
0
0
0
0
0
0
0
0
0
0
0
0
0
0
0
0
0
0
0
0
0
0
0
0
32
32
32
0
0
176
0
0
176
0
0
124
0
0
124
0
0
88
0
0
88
0
0
0
32
32
32
0
0
164
0
0
188
0
0
188
0
0
188
0
0
188
0
0
188
0
0
188
0
0
176
0
0
164
0
0
164
0
0
164
0
0
164
0
0
164
0
0
164
0
0
164
0
0
152
0
0
136
0
0
124
0
0
188
0
0
152
0
0
164
0
0
124
0
0
0
32
32
32
0
0
164
0
0
200
0
0
164
0
0
164
0
0
188
0
0
136
0
0
88
0
0
64
0
0
0
32
32
32
0
0
0
0
0
0
0
0
0
0
0
0
0
0
0
32
32
32
32
32
32
32
32
32
32
32
32
32
32
32
0
0
88
0
0
88
0
0
112
0
0
112
0
0
136
0
0
136
0
0
136
0
0
124
0
0
112
0
0
100
32
32
32
32
32
32
0
0
164
0
0
176
0
0
124
0
0
124
0
0
124
0
0
88
0
0
0
32
32
32
0
0
176
0
0
188
0
0
200
0
0
200
0
0
188
0
0
164
0
0
164
0
0
176
0
0
176
0
0
200
0
0
188
0
0
152
0
0
152
0
0
164
0
0
164
0
0
152
0
0
124
0
0
136
0
0
124
0
0
136
0
0
152
0
0
124
0
0
0
32
32
32
0
0
164
0
0
164
0
0
164
0
0
164
0
0
136
0
0
136
0
0
88
0
0
64
0
0
0
32
32
32
0
0
136
0
0
152
0
0
136
0
0
136
0
0
0
32
32
32
0
0
152
0
0
164
0
0
176
0
0
188
0
0
188
0
0
188
0
0
188
0
0
188
0
0
188
0
0
188
0
0
188
0
0
188
0
0
188
0
0
188
32
32
32
32
32
32
0
0
164
0
0
164
0
0
136
0
0
124
0
0
124
0
0
100
0
0
0
32
32
32
0
0
176
0
0
188
0
0
200
0
0
200
0
0
200
0
0
176
0
0
176
0
0
176
0
0
176
0
0
188
0
0
188
0
0
124
0
0
124
0
0
124
0
0
124
0
0
164
0
0
164
0
0
164
0
0
152
0
0
152
0
0
124
0
0
100
0
0
0
32
32
32
0
0
164
0
0
200
0
0
164
0
0
124
0
0
112
0
0
88
0
0
88
0
0
64
0
0
0
32
32
32
0
0
152
0
0
152
0
0
124
0
0
124
0
0
0
32
32
32
0
0
164
0
0
188
0
0
188
0
0
188
0
0
188
0
0
188
0
0
176
0
0
164
0
0
176
0
0
188
0
0
164
0
0
164
0
0
164
0
0
188
0
0
0
32
32
32
0
0
164
0
0
164
0
0
152
0
0
88
0
0
100
0
0
100
0
0
0
32
32
32
0
0
176
0
0
188
0
0
188
0
0
188
0
0
188
0
0
212
0
0
212
0
0
176
0
0
176
0
0
176
0
0
124
0
0
124
0
0
124
0
0
124
0
0
124
0
0
124
0
0
152
0
0
124
0
0
124
0
0
112
0
0
152
0
0
100
0
0
0
32
32
32
0
0
164
0
0
176
0
0
136
0
0
112
0
0
100
0
0
88
0
0
112
0
0
64
0
0
0
32
32
32
0
0
152
0
0
124
0
0
112
0
0
112
0
0
0
32
32
32
0
0
164
0
0
188
0
0
176
0
0
176
0
0
212
0
0
212
0
0
176
0
0
188
0
0
188
0
0
188
0
0
152
0
0
164
0
0
188
0
0
188
0
0
0
32
32
32
0
0
164
0
0
152
0
0
136
0
0
88
0
0
88
0
0
88
0
0
0
32
32
32
0
0
176
0
0
188
0
0
188
0
0
176
0
0
188
0
0
212
0
0
212
0
0
212
0
0
124
0
0
164
0
0
152
0
0
124
0
0
124
0
0
112
0
0
112
0
0
112
0
0
136
0
0
124
0
0
124
0
0
124
0
0
124
0
0
100
0
0
0
32
32
32
0
0
164
0
0
164
0
0
112
0
0
100
0
0
112
0
0
88
0
0
88
0
0
64
0
0
0
32
32
32
0
0
152
0
0
112
0
0
124
0
0
88
0
0
0
32
32
32
0
0
188
0
0
188
0
0
188
0
0
176
0
0
212
0
0
212
0
0
188
0
0
152
0
0
152
0
0
164
0
0
188
0
0
188
0
0
152
0
0
176
0
0
0
32
32
32
0
0
0
0
0
0
0
0
0
0
0
0
0
0
0
0
0
0
0
0
0
32
32
32
0
0
164
0
0
176
0
0
188
0
0
176
0
0
188
0
0
188
0
0
212
0
0
212
0
0
188
0
0
164
0
0
164
0
0
152
0
0
124
0
0
112
0
0
112
0
0
100
0
0
100
0
0
88
0
0
124
0
0
124
0
0
124
0
0
100
0
0
0
32
32
32
0
0
136
0
0
124
0
0
124
0
0
88
0
0
88
0
0
88
0
0
100
0
0
64
0
0
0
32
32
32
0
0
136
0
0
124
0
0
112
0
0
88
0
0
0
32
32
32
0
0
188
0
0
164
0
0
176
0
0
164
0
0
176
0
0
176
0
0
176
0
0
152
0
0
152
0
0
152
0
0
188
0
0
164
0
0
136
0
0
136
0
0
0
32
32
32
32
32
32
32
32
32
32
32
32
32
32
32
32
32
32
32
32
32
32
32
32
32
32
32
0
0
164
0
0
164
0
0
176
0
0
200
0
0
152
0
0
152
0
0
188
0
0
164
0
0
188
0
0
164
0
0
164
0
0
164
0
0
164
0
0
124
0
0
124
0
0
100
0
0
100
0
0
124
0
0
100
0
0
88
0
0
76
0
0
76
0
0
0
32
32
32
0
0
0
0
0
0
0
0
0
0
0
0
0
0
0
0
0
0
0
0
0
0
0
0
0
0
0
32
32
32
0
0
136
0
0
112
0
0
88
0
0
100
0
0
0
32
32
32
0
0
188
0
0
188
0
0
176
0
0
152
0
0
136
0
0
176
0
0
176
0
0
164
0
0
152
0
0
152
0
0
164
0
0
188
0
0
188
0
0
164
0
0
0
32
32
32
0
0
188
0
0
188
0
0
176
0
0
164
0
0
164
0
0
152
32
32
32
32
32
32
0
0
164
0
0
164
0
0
200
0
0
200
0
0
152
0
0
152
0
0
152
0
0
176
0
0
164
0
0
164
0
0
164
0
0
124
0
0
124
0
0
152
0
0
136
0
0
112
0
0
100
0
0
100
0
0
88
0
0
88
0
0
64
0
0
64
0
0
0
32
32
32
32
32
32
32
32
32
32
32
32
32
32
32
32
32
32
32
32
32
32
32
32
32
32
32
32
32
32
32
32
32
32
32
32
32
32
32
32
32
32
32
32
32
0
0
0
32
32
32
0
0
188
0
0
188
0
0
152
0
0
164
0
0
188
0
0
176
0
0
136
0
0
164
0
0
176
0
0
176
0
0
176
0
0
124
0
0
164
0
0
164
0
0
0
32
32
32
0
0
188
0
0
124
0
0
188
0
0
136
0
0
152
0
0
136
0
0
0
32
32
32
0
0
164
0
0
188
0
0
188
0
0
188
0
0
176
0
0
152
0
0
152
0
0
188
0
0
188
0
0
188
0
0
164
0
0
124
0
0
124
0
0
124
0
0
124
0
0
100
0
0
100
0
0
100
0
0
88
0
0
88
0
0
64
0
0
64
0
0
0
32
32
32
0
0
176
0
0
176
0
0
176
0
0
176
0
0
188
0
0
188
0
0
188
0
0
188
0
0
188
0
0
188
0
0
188
0
0
188
0
0
188
0
0
188
0
0
0
32
32
32
0
0
188
0
0
188
0
0
188
0
0
188
0
0
164
0
0
136
0
0
188
0
0
136
0
0
176
0
0
124
0
0
124
0
0
164
0
0
136
0
0
164
0
0
0
32
32
32
0
0
188
0
0
164
0
0
176
0
0
176
0
0
152
0
0
124
0
0
0
32
32
32
0
0
164
0
0
176
0
0
164
0
0
164
0
0
176
0
0
176
0
0
176
0
0
188
0
0
188
0
0
188
0
0
188
0
0
164
0
0
124
0
0
136
0
0
112
0
0
88
0
0
100
0
0
100
0
0
100
0
0
112
0
0
88
0
0
76
0
0
0
32
32
32
0
0
176
0
0
176
0
0
164
0
0
164
0
0
176
0
0
176
0
0
176
0
0
176
0
0
164
0
0
136
0
0
188
0
0
164
0
0
164
0
0
124
0
0
0
32
32
32
0
0
188
0
0
164
0
0
188
0
0
152
0
0
164
0
0
164
0
0
188
0
0
176
0
0
152
0
0
124
0
0
76
0
0
124
0
0
164
0
0
164
0
0
0
32
32
32
0
0
188
0
0
188
0
0
124
0
0
164
0
0
124
0
0
112
0
0
0
32
32
32
0
0
164
0
0
188
0
0
164
0
0
164
0
0
164
0
0
152
0
0
164
0
0
188
0
0
188
0
0
188
0
0
188
0
0
164
0
0
164
0
0
164
0
0
88
0
0
88
0
0
88
0
0
88
0
0
100
0
0
112
0
0
112
0
0
100
0
0
0
32
32
32
0
0
176
0
0
164
0
0
176
0
0
212
0
0
212
0
0
176
0
0
176
0
0
176
0
0
152
0
0
164
0
0
164
0
0
164
0
0
152
0
0
124
0
0
0
32
32
32
0
0
188
0
0
176
0
0
152
0
0
152
0
0
188
0
0
224
0
0
188
0
0
164
0
0
136
0
0
164
0
0
124
0
0
124
0
0
164
0
0
164
0
0
0
32
32
32
0
0
188
0
0
176
0
0
164
0
0
164
0
0
124
0
0
164
0
0
0
32
32
32
0
0
164
0
0
188
0
0
188
0
0
164
0
0
164
0
0
188
0
0
136
0
0
136
0
0
188
0
0
188
0
0
188
0
0
164
0
0
164
0
0
164
0
0
112
0
0
88
0
0
88
0
0
100
0
0
88
0
0
76
0
0
76
0
0
76
0
0
0
32
32
32
0
0
176
0
0
188
0
0
188
0
0
212
0
0
200
0
0
200
0
0
176
0
0
176
0
0
136
0
0
136
0
0
164
0
0
152
0
0
124
0
0
100
0
0
0
32
32
32
0
0
188
0
0
164
0
0
188
0
0
164
0
0
224
64
64
252
0
0
224
0
0
152
0
0
152
0
0
164
0
0
152
0
0
136
0
0
124
0
0
136
0
0
0
32
32
32
0
0
188
0
0
176
0
0
164
0
0
124
0
0
164
0
0
112
0
0
0
32
32
32
0
0
164
0
0
164
0
0
188
0
0
152
0
0
152
0
0
124
0
0
124
0
0
124
0
0
136
0
0
164
0
0
164
0
0
164
0
0
124
0
0
124
0
0
124
0
0
100
0
0
100
0
0
88
0
0
88
0
0
88
0
0
64
0
0
64
0
0
0
32
32
32
0
0
176
0
0
152
0
0
188
0
0
152
0
0
200
0
0
200
0
0
176
0
0
176
0
0
164
0
0
164
0
0
124
0
0
124
0
0
124
0
0
88
0
0
0
32
32
32
0
0
188
0
0
176
0
0
188
0
0
176
0
0
188
0
0
224
0
0
188
0
0
164
0
0
124
0
0
164
0
0
164
0
0
76
0
0
76
0
0
100
0
0
0
32
32
32
0
0
188
0
0
164
0
0
176
0
0
176
0
0
124
0
0
100
0
0
0
32
32
32
0
0
164
0
0
164
0
0
188
0
0
164
0
0
136
0
0
136
0
0
124
0
0
124
0
0
124
0
0
136
0
0
124
0
0
136
0
0
88
0
0
88
0
0
152
0
0
152
0
0
112
0
0
112
0
0
88
0
0
76
0
0
64
0
0
64
0
0
0
32
32
32
0
0
176
0
0
188
0
0
176
0
0
152
0
0
152
0
0
152
0
0
164
0
0
164
0
0
124
0
0
124
0
0
124
0
0
124
0
0
88
0
0
100
0
0
0
32
32
32
0
0
188
0
0
164
0
0
188
0
0
176
0
0
176
0
0
176
0
0
136
0
0
136
0
0
136
0
0
124
0
0
112
0
0
76
0
0
76
0
0
100
0
0
0
32
32
32
0
0
188
0
0
188
0
0
176
0
0
152
0
0
136
0
0
100
0
0
0
32
32
32
0
0
164
0
0
152
0
0
188
0
0
188
0
0
152
0
0
188
0
0
124
0
0
124
0
0
136
0
0
124
0
0
124
0
0
136
0
0
124
0
0
88
0
0
152
0
0
152
0
0
136
0
0
112
0
0
112
0
0
100
0
0
88
0
0
100
0
0
0
32
32
32
0
0
176
0
0
176
0
0
164
0
0
152
0
0
152
0
0
152
0
0
164
0
0
124
0
0
112
0
0
100
0
0
124
0
0
88
0
0
88
0
0
100
0
0
0
32
32
32
0
0
164
0
0
188
0
0
176
0
0
176
0
0
164
0
0
124
0
0
124
0
0
152
0
0
164
0
0
152
0
0
152
0
0
124
0
0
100
0
0
100
0
0
0
32
32
32
0
0
188
0
0
176
0
0
164
0
0
136
0
0
136
0
0
124
0
0
0
32
32
32
0
0
164
0
0
188
0
0
152
0
0
164
0
0
188
0
0
164
0
0
136
0
0
124
0
0
112
0
0
112
0
0
136
0
0
136
0
0
88
0
0
88
0
0
124
0
0
152
0
0
152
0
0
124
0
0
112
0
0
88
0
0
88
0
0
64
0
0
0
32
32
32
0
0
176
0
0
176
0
0
152
0
0
164
0
0
152
0
0
152
0
0
164
0
0
124
0
0
112
0
0
100
0
0
112
0
0
124
0
0
88
0
0
88
0
0
0
32
32
32
0
0
188
0
0
164
0
0
188
0
0
176
0
0
136
0
0
136
0
0
176
0
0
124
0
0
164
0
0
164
0
0
152
0
0
112
0
0
124
0
0
88
0
0
0
32
32
32
0
0
188
0
0
164
0
0
188
0
0
124
0
0
124
0
0
124
0
0
0
32
32
32
0
0
164
0
0
188
0
0
164
0
0
164
0
0
164
0
0
152
0
0
136
0
0
164
0
0
164
0
0
112
0
0
112
0
0
88
0
0
112
0
0
88
0
0
88
0
0
124
0
0
124
0
0
124
0
0
100
0
0
88
0
0
88
0
0
64
0
0
0
32
32
32
0
0
176
0
0
176
0
0
188
0
0
176
0
0
136
0
0
176
0
0
176
0
0
152
0
0
124
0
0
100
0
0
152
0
0
152
0
0
88
0
0
64
0
0
0
32
32
32
0
0
188
0
0
164
0
0
188
0
0
164
0
0
152
0
0
136
0
0
124
0
0
100
0
0
136
0
0
164
0
0
164
0
0
152
0
0
112
0
0
100
0
0
0
32
32
32
0
0
188
0
0
188
0
0
164
0
0
100
0
0
100
0
0
100
0
0
0
32
32
32
0
0
164
0
0
164
0
0
164
0
0
152
0
0
152
0
0
124
0
0
136
0
0
164
0
0
164
0
0
164
0
0
112
0
0
100
0
0
112
0
0
112
0
0
88
0
0
76
0
0
76
0
0
76
0
0
100
0
0
64
0
0
64
0
0
64
0
0
0
32
32
32
0
0
188
0
0
188
0
0
176
0
0
136
0
0
164
0
0
176
0
0
176
0
0
176
0
0
152
0
0
124
0
0
152
0
0
152
0
0
124
0
0
64
0
0
0
32
32
32
0
0
176
0
0
164
0
0
136
0
0
136
0
0
136
0
0
164
0
0
100
0
0
76
0
0
100
0
0
136
0
0
152
0
0
152
0
0
112
0
0
112
0
0
0
32
32
32
0
0
188
0
0
176
0
0
164
0
0
124
0
0
112
0
0
88
0
0
0
32
32
32
0
0
164
0
0
176
0
0
164
0
0
152
0
0
152
0
0
188
0
0
164
0
0
124
0
0
164
0
0
164
0
0
88
0
0
88
0
0
112
0
0
112
0
0
100
0
0
88
0
0
64
0
0
64
0
0
88
0
0
64
0
0
64
0
0
64
0
0
0
32
32
32
0
0
188
0
0
176
0
0
164
0
0
136
0
0
164
0
0
164
0
0
176
0
0
176
0
0
152
0
0
124
0
0
124
0
0
124
0
0
124
0
0
64
0
0
0
32
32
32
0
0
176
0
0
164
0
0
112
0
0
100
0
0
136
0
0
100
0
0
164
0
0
124
0
0
124
0
0
152
0
0
88
0
0
100
0
0
88
0
0
88
0
0
0
32
32
32
0
0
176
0
0
164
0
0
100
0
0
100
0
0
100
0
0
88
0
0
0
32
32
32
0
0
164
0
0
176
0
0
188
0
0
124
0
0
188
0
0
188
0
0
164
0
0
88
0
0
100
0
0
100
0
0
100
0
0
88
0
0
88
0
0
76
0
0
76
0
0
76
0
0
64
0
0
64
0
0
76
0
0
88
0
0
64
0
0
64
0
0
0
32
32
32
0
0
188
0
0
176
0
0
164
0
0
188
0
0
164
0
0
164
0
0
124
0
0
136
0
0
112
0
0
112
0
0
124
0
0
124
0
0
88
0
0
64
0
0
0
32
32
32
0
0
164
0
0
164
0
0
136
0
0
136
0
0
100
0
0
136
0
0
88
0
0
100
0
0
88
0
0
100
0
0
112
0
0
100
0
0
112
0
0
100
0
0
0
32
32
32
0
0
176
0
0
164
0
0
136
0
0
112
0
0
100
0
0
100
0
0
0
32
32
32
0
0
164
0
0
164
0
0
176
0
0
188
0
0
164
0
0
124
0
0
152
0
0
88
0
0
100
0
0
100
0
0
100
0
0
88
0
0
88
0
0
64
0
0
64
0
0
112
0
0
112
0
0
100
0
0
64
0
0
76
0
0
64
0
0
88
0
0
0
32
32
32
0
0
188
0
0
188
0
0
188
0
0
152
0
0
164
0
0
124
0
0
124
0
0
112
0
0
124
0
0
124
0
0
112
0
0
100
0
0
64
0
0
100
0
0
0
32
32
32
0
0
164
0
0
152
0
0
124
0
0
124
0
0
124
0
0
124
0
0
124
0
0
112
0
0
112
0
0
112
0
0
112
0
0
124
0
0
124
0
0
124
32
32
32
32
32
32
0
0
164
0
0
136
0
0
124
0
0
124
0
0
124
0
0
124
32
32
32
32
32
32
0
0
164
0
0
164
0
0
152
0
0
164
0
0
152
0
0
124
0
0
124
0
0
124
0
0
124
0
0
124
0
0
124
0
0
112
0
0
100
0
0
88
0
0
88
0
0
124
0
0
124
0
0
124
0
0
124
0
0
88
0
0
88
0
0
112
32
32
32
32
32
32
0
0
188
0
0
164
0
0
164
0
0
124
0
0
152
0
0
164
0
0
124
0
0
124
0
0
124
0
0
124
0
0
124
0
0
112
0
0
112
0
0
124
0
0
0
56
56
56
0
0
136
0
0
136
0
0
136
0
0
124
0
0
124
0
0
124
0
0
124
0
0
124
0
0
124
0
0
124
0
0
124
0
0
124
0
0
124
0
0
124
56
56
56
56
56
56
0
0
136
0
0
136
0
0
124
0
0
124
0
0
124
0
0
124
56
56
56
56
56
56
0
0
164
0
0
200
0
0
136
0
0
136
0
0
136
0
0
136
0
0
136
0
0
124
0
0
124
0
0
124
0
0
124
0
0
124
0
0
124
0
0
124
0
0
124
0
0
124
0
0
124
0
0
124
0
0
124
0
0
124
0
0
124
0
0
124
56
56
56
56
56
56
0
0
188
0
0
136
0
0
136
0
0
124
0
0
124
0
0
124
0
0
124
0
0
124
0
0
124
0
0
124
0
0
124
0
0
124
0
0
124
0
0
124
32
32
32
84
84
84
84
84
84
84
84
84
84
84
84
84
84
84
84
84
84
84
84
84
84
84
84
84
84
84
84
84
84
84
84
84
84
84
84
84
84
84
84
84
84
84
84
84
84
84
84
84
84
84
84
84
84
84
84
84
84
84
84
84
84
84
84
84
84
84
84
84
84
84
84
84
84
84
84
84
84
84
84
84
84
84
84
84
84
84
84
84
84
84
84
84
84
84
84
84
84
84
84
84
84
84
84
84
84
84
84
84
84
84
84
84
84
84
84
84
84
84
84
84
84
84
84
84
84
84
84
84
84
84
84
84
84
84
84
84
84
84
84
84
84
84
84
84
84
84
84
84
84
84
84
84
84
84
84
84
84
84
84
84
84
84
84
84
84
84
84
84
84
84
84
84
84
84
84
84
84
84
84
84
84
84
84
84
84
84
84
84
56
56
56
