P3
# Created by GIMP version 2.10.30 PNM plug-in
64 64
255
31
31
31
59
59
59
31
31
31
59
59
59
31
31
31
59
59
59
31
31
31
59
59
59
31
31
31
59
59
59
31
31
31
59
59
59
31
31
31
59
59
59
31
31
31
59
59
59
31
31
31
59
59
59
31
31
31
59
59
59
31
31
31
59
59
59
31
31
31
59
59
59
31
31
31
59
59
59
31
31
31
59
59
59
31
31
31
59
59
59
31
31
31
59
59
59
31
31
31
59
59
59
31
31
31
59
59
59
31
31
31
59
59
59
31
31
31
59
59
59
31
31
31
59
59
59
31
31
31
59
59
59
31
31
31
59
59
59
31
31
31
59
59
59
31
31
31
59
59
59
31
31
31
59
59
59
31
31
31
59
59
59
31
31
31
59
59
59
31
31
31
59
59
59
31
31
31
59
59
59
31
31
31
59
59
59
31
31
31
59
59
59
87
87
87
83
83
83
87
87
87
79
79
79
87
87
87
79
79
79
87
87
87
79
79
79
87
87
87
79
79
79
75
75
75
211
211
211
223
223
223
223
223
223
223
223
223
211
211
211
223
223
223
211
211
211
223
223
223
223
223
223
223
223
223
211
211
211
223
223
223
211
211
211
223
223
223
223
223
223
223
223
223
31
31
31
59
59
59
131
131
131
171
171
171
183
183
183
211
211
211
199
199
199
211
211
211
211
211
211
199
199
199
211
211
211
183
183
183
199
199
199
171
171
171
131
131
131
87
87
87
31
31
31
71
71
71
71
71
71
71
71
71
71
71
71
71
71
71
71
71
71
71
71
71
71
71
71
71
71
71
71
71
71
83
83
83
79
79
79
87
87
87
79
79
79
87
87
87
79
79
79
87
87
87
79
79
79
87
87
87
79
79
79
83
83
83
87
87
87
83
83
83
83
83
83
87
87
87
83
83
83
83
83
83
83
83
83
87
87
87
83
83
83
71
71
71
223
223
223
211
211
211
199
199
199
211
211
211
183
183
183
211
211
211
211
211
211
211
211
211
199
199
199
211
211
211
211
211
211
183
183
183
211
211
211
211
211
211
199
199
199
143
143
143
31
31
31
59
59
59
131
131
131
199
199
199
183
183
183
143
143
143
171
171
171
131
131
131
143
143
143
143
143
143
143
143
143
143
143
143
131
131
131
171
171
171
79
79
79
59
59
59
31
31
31
59
59
59
107
107
107
143
143
143
143
143
143
131
131
131
143
143
143
143
143
143
143
143
143
123
123
123
107
107
107
103
103
103
71
71
71
71
71
71
71
71
71
75
75
75
71
71
71
71
71
71
71
71
71
75
75
75
71
71
71
143
143
143
143
143
143
131
131
131
143
143
143
143
143
143
143
143
143
131
131
131
143
143
143
31
31
31
83
83
83
75
75
75
223
223
223
199
199
199
199
199
199
183
183
183
211
211
211
183
183
183
199
199
199
199
199
199
183
183
183
199
199
199
199
199
199
183
183
183
183
183
183
211
211
211
143
143
143
95
95
95
31
31
31
59
59
59
171
171
171
211
211
211
171
171
171
143
143
143
171
171
171
143
143
143
171
171
171
131
131
131
171
171
171
143
143
143
171
171
171
131
131
131
87
87
87
59
59
59
31
31
31
59
59
59
143
143
143
211
211
211
223
223
223
223
223
223
223
223
223
211
211
211
223
223
223
183
183
183
183
183
183
171
171
171
143
143
143
131
131
131
143
143
143
143
143
143
143
143
143
131
131
131
143
143
143
143
143
143
143
143
143
211
211
211
211
211
211
211
211
211
211
211
211
183
183
183
171
171
171
143
143
143
131
131
131
31
31
31
87
87
87
71
71
71
223
223
223
211
211
211
171
171
171
171
171
171
155
155
155
171
171
171
143
143
143
171
171
171
171
171
171
171
171
171
171
171
171
155
155
155
171
171
171
171
171
171
123
123
123
83
83
83
31
31
31
59
59
59
143
143
143
183
183
183
143
143
143
143
143
143
131
131
131
171
171
171
171
171
171
171
171
171
171
171
171
131
131
131
143
143
143
115
115
115
79
79
79
59
59
59
31
31
31
59
59
59
131
131
131
223
223
223
223
223
223
183
183
183
199
199
199
183
183
183
211
211
211
223
223
223
223
223
223
223
223
223
211
211
211
223
223
223
211
211
211
199
199
199
211
211
211
211
211
211
211
211
211
199
199
199
211
211
211
171
171
171
171
171
171
171
171
171
171
171
171
155
155
155
171
171
171
123
123
123
115
115
115
31
31
31
83
83
83
71
71
71
239
239
239
183
183
183
155
155
155
171
171
171
171
171
171
171
171
171
171
171
171
155
155
155
171
171
171
143
143
143
171
171
171
131
131
131
171
171
171
171
171
171
107
107
107
83
83
83
31
31
31
59
59
59
71
71
71
171
171
171
143
143
143
171
171
171
171
171
171
131
131
131
143
143
143
155
155
155
143
143
143
171
171
171
107
107
107
87
87
87
83
83
83
59
59
59
31
31
31
59
59
59
143
143
143
211
211
211
183
183
183
171
171
171
143
143
143
171
171
171
143
143
143
171
171
171
171
171
171
155
155
155
143
143
143
143
143
143
171
171
171
143
143
143
171
171
171
131
131
131
171
171
171
143
143
143
155
155
155
183
183
183
155
155
155
155
155
155
155
155
155
171
171
171
143
143
143
123
123
123
107
107
107
31
31
31
75
75
75
71
71
71
239
239
239
211
211
211
171
171
171
131
131
131
171
171
171
143
143
143
171
171
171
143
143
143
155
155
155
155
155
155
155
155
155
143
143
143
143
143
143
171
171
171
143
143
143
79
79
79
31
31
31
59
59
59
71
71
71
123
123
123
143
143
143
131
131
131
171
171
171
143
143
143
171
171
171
171
171
171
131
131
131
171
171
171
115
115
115
59
59
59
59
59
59
59
59
59
31
31
31
59
59
59
131
131
131
223
223
223
183
183
183
143
143
143
171
171
171
131
131
131
155
155
155
131
131
131
143
143
143
143
143
143
171
171
171
131
131
131
143
143
143
155
155
155
143
143
143
171
171
171
155
155
155
143
143
143
155
155
155
183
183
183
171
171
171
131
131
131
183
183
183
131
131
131
155
155
155
95
95
95
87
87
87
31
31
31
59
59
59
71
71
71
239
239
239
199
199
199
143
143
143
155
155
155
143
143
143
171
171
171
171
171
171
155
155
155
143
143
143
123
123
123
143
143
143
143
143
143
171
171
171
143
143
143
95
95
95
87
87
87
31
31
31
59
59
59
71
71
71
71
71
71
143
143
143
171
171
171
171
171
171
155
155
155
143
143
143
143
143
143
143
143
143
171
171
171
107
107
107
59
59
59
59
59
59
59
59
59
31
31
31
59
59
59
143
143
143
223
223
223
171
171
171
171
171
171
131
131
131
155
155
155
123
123
123
171
171
171
155
155
155
123
123
123
143
143
143
171
171
171
131
131
131
171
171
171
171
171
171
143
143
143
123
123
123
171
171
171
155
155
155
155
155
155
171
171
171
171
171
171
143
143
143
155
155
155
115
115
115
71
71
71
75
75
75
31
31
31
31
31
31
75
75
75
199
199
199
183
183
183
171
171
171
155
155
155
171
171
171
131
131
131
171
171
171
143
143
143
155
155
155
131
131
131
155
155
155
143
143
143
143
143
143
171
171
171
107
107
107
83
83
83
31
31
31
31
31
31
75
75
75
83
83
83
71
71
71
123
123
123
59
59
59
59
59
59
59
59
59
59
59
59
59
59
59
59
59
59
59
59
59
59
59
59
31
31
31
31
31
31
59
59
59
59
59
59
115
115
115
223
223
223
223
223
223
143
143
143
171
171
171
131
131
131
131
131
131
155
155
155
115
115
115
155
155
155
143
143
143
171
171
171
143
143
143
143
143
143
123
123
123
171
171
171
171
171
171
115
115
115
143
143
143
143
143
143
143
143
143
131
131
131
143
143
143
115
115
115
83
83
83
71
71
71
71
71
71
31
31
31
59
59
59
71
71
71
171
171
171
239
239
239
171
171
171
155
155
155
171
171
171
143
143
143
143
143
143
143
143
143
143
143
143
143
143
143
143
143
143
131
131
131
171
171
171
131
131
131
87
87
87
123
123
123
31
31
31
31
31
31
59
59
59
71
71
71
59
59
59
59
59
59
59
59
59
59
59
59
59
59
59
59
59
59
59
59
59
31
31
31
59
59
59
31
31
31
31
31
31
31
31
31
71
71
71
71
71
71
71
71
71
199
199
199
199
199
199
143
143
143
143
143
143
143
143
143
143
143
143
155
155
155
155
155
155
155
155
155
131
131
131
143
143
143
171
171
171
143
143
143
171
171
171
171
171
171
131
131
131
171
171
171
143
143
143
115
115
115
107
107
107
115
115
115
115
115
115
79
79
79
75
75
75
59
59
59
59
59
59
31
31
31
31
31
31
75
75
75
143
143
143
211
211
211
143
143
143
171
171
171
143
143
143
143
143
143
123
123
123
143
143
143
143
143
143
171
171
171
131
131
131
171
171
171
143
143
143
171
171
171
107
107
107
87
87
87
59
59
59
31
31
31
59
59
59
71
71
71
59
59
59
31
31
31
31
31
31
31
31
31
31
31
31
31
31
31
31
31
31
31
31
31
59
59
59
31
31
31
59
59
59
31
31
31
75
75
75
83
83
83
71
71
71
199
199
199
171
171
171
143
143
143
171
171
171
131
131
131
171
171
171
143
143
143
131
131
131
143
143
143
115
115
115
107
107
107
103
103
103
95
95
95
95
95
95
103
103
103
95
95
95
103
103
103
95
95
95
83
83
83
87
87
87
71
71
71
71
71
71
71
71
71
31
31
31
31
31
31
31
31
31
31
31
31
59
59
59
63
63
63
115
115
115
223
223
223
171
171
171
131
131
131
155
155
155
123
123
123
123
123
123
123
123
123
171
171
171
155
155
155
143
143
143
131
131
131
123
123
123
143
143
143
107
107
107
103
103
103
59
59
59
31
31
31
59
59
59
71
71
71
71
71
71
75
75
75
75
75
75
115
115
115
123
123
123
143
143
143
171
171
171
155
155
155
171
171
171
171
171
171
155
155
155
115
115
115
59
59
59
79
79
79
75
75
75
183
183
183
143
143
143
107
107
107
115
115
115
103
103
103
95
95
95
103
103
103
87
87
87
83
83
83
83
83
83
83
83
83
71
71
71
75
75
75
71
71
71
75
75
75
71
71
71
71
71
71
75
75
75
31
31
31
31
31
31
31
31
31
31
31
31
31
31
31
59
59
59
31
31
31
59
59
59
31
31
31
59
59
59
83
83
83
71
71
71
223
223
223
199
199
199
143
143
143
143
143
143
143
143
143
155
155
155
155
155
155
131
131
131
143
143
143
171
171
171
123
123
123
143
143
143
171
171
171
143
143
143
79
79
79
59
59
59
31
31
31
59
59
59
63
63
63
115
115
115
171
171
171
171
171
171
211
211
211
223
223
223
239
239
239
211
211
211
211
211
211
211
211
211
155
155
155
107
107
107
83
83
83
31
31
31
83
83
83
71
71
71
143
143
143
107
107
107
103
103
103
95
95
95
83
83
83
75
75
75
71
71
71
71
71
71
59
59
59
59
59
59
59
59
59
59
59
59
59
59
59
31
31
31
59
59
59
31
31
31
59
59
59
31
31
31
31
31
31
59
59
59
31
31
31
59
59
59
31
31
31
31
31
31
59
59
59
31
31
31
59
59
59
59
59
59
79
79
79
71
71
71
171
171
171
211
211
211
143
143
143
171
171
171
131
131
131
123
123
123
143
143
143
171
171
171
143
143
143
131
131
131
155
155
155
143
143
143
131
131
131
115
115
115
79
79
79
59
59
59
31
31
31
31
31
31
59
59
59
171
171
171
183
183
183
223
223
223
211
211
211
183
183
183
131
131
131
171
171
171
143
143
143
171
171
171
131
131
131
115
115
115
59
59
59
31
31
31
59
59
59
59
59
59
59
59
59
59
59
59
59
59
59
59
59
59
59
59
59
59
59
59
59
59
59
59
59
59
59
59
59
31
31
31
31
31
31
31
31
31
31
31
31
31
31
31
31
31
31
31
31
31
31
31
31
31
31
31
59
59
59
59
59
59
59
59
59
59
59
59
59
59
59
59
59
59
59
59
59
59
59
59
59
59
59
59
59
59
75
75
75
75
75
75
143
143
143
199
199
199
171
171
171
131
131
131
171
171
171
155
155
155
131
131
131
123
123
123
143
143
143
123
123
123
143
143
143
171
171
171
143
143
143
79
79
79
87
87
87
59
59
59
31
31
31
59
59
59
63
63
63
171
171
171
223
223
223
183
183
183
171
171
171
143
143
143
143
143
143
143
143
143
131
131
131
143
143
143
143
143
143
79
79
79
59
59
59
31
31
31
59
59
59
31
31
31
31
31
31
59
59
59
31
31
31
31
31
31
59
59
59
31
31
31
31
31
31
59
59
59
31
31
31
63
63
63
63
63
63
59
59
59
59
59
59
59
59
59
59
59
59
59
59
59
59
59
59
59
59
59
83
83
83
75
75
75
59
59
59
59
59
59
59
59
59
59
59
59
59
59
59
59
59
59
31
31
31
59
59
59
83
83
83
71
71
71
115
115
115
199
199
199
131
131
131
171
171
171
155
155
155
143
143
143
171
171
171
155
155
155
171
171
171
131
131
131
171
171
171
131
131
131
171
171
171
79
79
79
115
115
115
71
71
71
31
31
31
31
31
31
75
75
75
171
171
171
239
239
239
171
171
171
143
143
143
131
131
131
171
171
171
143
143
143
171
171
171
131
131
131
171
171
171
83
83
83
59
59
59
31
31
31
59
59
59
71
71
71
87
87
87
83
83
83
87
87
87
87
87
87
31
31
31
71
71
71
75
75
75
71
71
71
71
71
71
75
75
75
71
71
71
71
71
71
71
71
71
71
71
71
71
71
71
71
71
71
71
71
71
63
63
63
155
155
155
155
155
155
143
143
143
155
155
155
143
143
143
155
155
155
143
143
143
155
155
155
155
155
155
31
31
31
31
31
31
87
87
87
71
71
71
199
199
199
183
183
183
155
155
155
143
143
143
131
131
131
155
155
155
155
155
155
115
115
115
143
143
143
143
143
143
143
143
143
143
143
143
107
107
107
87
87
87
83
83
83
31
31
31
31
31
31
75
75
75
171
171
171
239
239
239
131
131
131
143
143
143
171
171
171
171
171
171
131
131
131
171
171
171
143
143
143
143
143
143
79
79
79
59
59
59
31
31
31
59
59
59
107
107
107
171
171
171
223
223
223
211
211
211
87
87
87
71
71
71
83
83
83
123
123
123
155
155
155
155
155
155
143
143
143
155
155
155
155
155
155
155
155
155
143
143
143
155
155
155
155
155
155
155
155
155
155
155
155
211
211
211
199
199
199
211
211
211
211
211
211
199
199
199
211
211
211
183
183
183
171
171
171
115
115
115
63
63
63
31
31
31
87
87
87
71
71
71
143
143
143
183
183
183
143
143
143
171
171
171
143
143
143
123
123
123
143
143
143
143
143
143
131
131
131
171
171
171
143
143
143
107
107
107
143
143
143
107
107
107
75
75
75
31
31
31
31
31
31
75
75
75
171
171
171
199
199
199
171
171
171
171
171
171
143
143
143
131
131
131
171
171
171
143
143
143
171
171
171
131
131
131
87
87
87
59
59
59
31
31
31
59
59
59
171
171
171
211
211
211
199
199
199
171
171
171
31
31
31
71
71
71
123
123
123
199
199
199
211
211
211
223
223
223
223
223
223
223
223
223
211
211
211
223
223
223
223
223
223
223
223
223
211
211
211
223
223
223
211
211
211
171
171
171
155
155
155
143
143
143
171
171
171
143
143
143
171
171
171
171
171
171
107
107
107
115
115
115
59
59
59
31
31
31
83
83
83
71
71
71
115
115
115
155
155
155
171
171
171
131
131
131
171
171
171
171
171
171
131
131
131
171
171
171
115
115
115
143
143
143
107
107
107
83
83
83
115
115
115
83
83
83
75
75
75
31
31
31
31
31
31
75
75
75
171
171
171
199
199
199
171
171
171
143
143
143
107
107
107
115
115
115
115
115
115
107
107
107
83
83
83
87
87
87
83
83
83
59
59
59
31
31
31
59
59
59
211
211
211
199
199
199
171
171
171
131
131
131
31
31
31
75
75
75
155
155
155
211
211
211
211
211
211
183
183
183
183
183
183
171
171
171
183
183
183
183
183
183
183
183
183
171
171
171
183
183
183
183
183
183
183
183
183
171
171
171
143
143
143
155
155
155
143
143
143
171
171
171
131
131
131
143
143
143
107
107
107
115
115
115
59
59
59
31
31
31
71
71
71
83
83
83
71
71
71
155
155
155
143
143
143
115
115
115
115
115
115
107
107
107
115
115
115
83
83
83
83
83
83
115
115
115
79
79
79
115
115
115
83
83
83
71
71
71
31
31
31
31
31
31
31
31
31
59
59
59
155
155
155
143
143
143
115
115
115
143
143
143
107
107
107
59
59
59
59
59
59
59
59
59
59
59
59
59
59
59
59
59
59
59
59
59
31
31
31
95
95
95
223
223
223
171
171
171
143
143
143
143
143
143
31
31
31
71
71
71
155
155
155
223
223
223
171
171
171
171
171
171
155
155
155
171
171
171
143
143
143
171
171
171
143
143
143
155
155
155
131
131
131
155
155
155
155
155
155
171
171
171
143
143
143
143
143
143
171
171
171
131
131
131
171
171
171
171
171
171
107
107
107
87
87
87
59
59
59
31
31
31
71
71
71
83
83
83
71
71
71
103
103
103
83
83
83
87
87
87
83
83
83
87
87
87
71
71
71
71
71
71
71
71
71
59
59
59
31
31
31
31
31
31
31
31
31
31
31
31
31
31
31
31
31
31
31
31
31
31
31
31
143
143
143
115
115
115
59
59
59
59
59
59
59
59
59
31
31
31
31
31
31
31
31
31
31
31
31
31
31
31
31
31
31
31
31
31
31
31
31
95
95
95
223
223
223
171
171
171
171
171
171
131
131
131
31
31
31
75
75
75
155
155
155
211
211
211
171
171
171
143
143
143
155
155
155
131
131
131
155
155
155
143
143
143
155
155
155
115
115
115
131
131
131
143
143
143
131
131
131
171
171
171
143
143
143
171
171
171
143
143
143
171
171
171
131
131
131
143
143
143
115
115
115
79
79
79
59
59
59
31
31
31
71
71
71
83
83
83
71
71
71
31
31
31
59
59
59
31
31
31
59
59
59
31
31
31
31
31
31
31
31
31
31
31
31
31
31
31
31
31
31
31
31
31
31
31
31
31
31
31
31
31
31
31
31
31
31
31
31
59
59
59
59
59
59
79
79
79
59
59
59
31
31
31
31
31
31
31
31
31
31
31
31
31
31
31
59
59
59
31
31
31
31
31
31
59
59
59
31
31
31
143
143
143
223
223
223
171
171
171
171
171
171
143
143
143
31
31
31
71
71
71
143
143
143
199
199
199
131
131
131
171
171
171
155
155
155
171
171
171
143
143
143
171
171
171
143
143
143
155
155
155
131
131
131
155
155
155
155
155
155
143
143
143
171
171
171
115
115
115
123
123
123
143
143
143
143
143
143
171
171
171
107
107
107
87
87
87
59
59
59
31
31
31
59
59
59
79
79
79
87
87
87
75
75
75
59
59
59
31
31
31
31
31
31
31
31
31
31
31
31
31
31
31
31
31
31
31
31
31
31
31
31
79
79
79
75
75
75
75
75
75
79
79
79
75
75
75
75
75
75
71
71
71
143
143
143
143
143
143
143
143
143
171
171
171
171
171
171
143
143
143
143
143
143
143
143
143
123
123
123
87
87
87
31
31
31
63
63
63
103
103
103
183
183
183
223
223
223
171
171
171
131
131
131
123
123
123
31
31
31
75
75
75
131
131
131
199
199
199
171
171
171
131
131
131
155
155
155
143
143
143
155
155
155
131
131
131
155
155
155
123
123
123
123
123
123
143
143
143
143
143
143
143
143
143
131
131
131
131
131
131
123
123
123
143
143
143
171
171
171
131
131
131
103
103
103
71
71
71
59
59
59
31
31
31
59
59
59
131
131
131
223
223
223
223
223
223
223
223
223
211
211
211
199
199
199
171
171
171
171
171
171
143
143
143
95
95
95
59
59
59
75
75
75
103
103
103
123
123
123
171
171
171
171
171
171
183
183
183
199
199
199
199
199
199
223
223
223
223
223
223
223
223
223
211
211
211
223
223
223
223
223
223
223
223
223
199
199
199
155
155
155
103
103
103
31
31
31
59
59
59
123
123
123
223
223
223
199
199
199
155
155
155
171
171
171
115
115
115
31
31
31
71
71
71
131
131
131
183
183
183
171
171
171
155
155
155
143
143
143
171
171
171
131
131
131
171
171
171
143
143
143
123
123
123
123
123
123
143
143
143
143
143
143
143
143
143
143
143
143
171
171
171
171
171
171
131
131
131
143
143
143
143
143
143
95
95
95
75
75
75
59
59
59
31
31
31
59
59
59
211
211
211
199
199
199
171
171
171
143
143
143
155
155
155
155
155
155
171
171
171
143
143
143
155
155
155
59
59
59
79
79
79
75
75
75
123
123
123
211
211
211
239
239
239
223
223
223
223
223
223
199
199
199
183
183
183
183
183
183
199
199
199
183
183
183
199
199
199
183
183
183
199
199
199
183
183
183
199
199
199
107
107
107
87
87
87
31
31
31
59
59
59
143
143
143
223
223
223
171
171
171
155
155
155
143
143
143
107
107
107
31
31
31
75
75
75
107
107
107
199
199
199
131
131
131
171
171
171
143
143
143
143
143
143
155
155
155
143
143
143
131
131
131
171
171
171
143
143
143
171
171
171
143
143
143
155
155
155
171
171
171
131
131
131
143
143
143
171
171
171
131
131
131
115
115
115
83
83
83
59
59
59
59
59
59
31
31
31
59
59
59
223
223
223
155
155
155
143
143
143
155
155
155
171
171
171
171
171
171
143
143
143
155
155
155
171
171
171
31
31
31
83
83
83
75
75
75
155
155
155
223
223
223
199
199
199
143
143
143
171
171
171
131
131
131
171
171
171
155
155
155
131
131
131
171
171
171
155
155
155
171
171
171
155
155
155
143
143
143
131
131
131
103
103
103
71
71
71
31
31
31
59
59
59
143
143
143
239
239
239
171
171
171
131
131
131
171
171
171
87
87
87
31
31
31
75
75
75
71
71
71
143
143
143
115
115
115
95
95
95
87
87
87
83
83
83
83
83
83
103
103
103
103
103
103
107
107
107
123
123
123
143
143
143
131
131
131
103
103
103
95
95
95
103
103
103
95
95
95
103
103
103
83
83
83
71
71
71
59
59
59
59
59
59
59
59
59
31
31
31
59
59
59
211
211
211
171
171
171
171
171
171
171
171
171
131
131
131
171
171
171
143
143
143
171
171
171
95
95
95
31
31
31
75
75
75
71
71
71
155
155
155
239
239
239
171
171
171
155
155
155
171
171
171
143
143
143
123
123
123
171
171
171
171
171
171
143
143
143
131
131
131
143
143
143
171
171
171
131
131
131
171
171
171
87
87
87
71
71
71
31
31
31
59
59
59
131
131
131
239
239
239
171
171
171
171
171
171
143
143
143
87
87
87
31
31
31
83
83
83
31
31
31
59
59
59
59
59
59
71
71
71
71
71
71
71
71
71
71
71
71
75
75
75
71
71
71
71
71
71
83
83
83
87
87
87
83
83
83
83
83
83
75
75
75
71
71
71
59
59
59
59
59
59
59
59
59
31
31
31
31
31
31
31
31
31
31
31
31
31
31
31
59
59
59
223
223
223
131
131
131
171
171
171
143
143
143
171
171
171
171
171
171
143
143
143
123
123
123
95
95
95
31
31
31
75
75
75
71
71
71
155
155
155
239
239
239
131
131
131
171
171
171
143
143
143
155
155
155
171
171
171
131
131
131
143
143
143
123
123
123
143
143
143
171
171
171
143
143
143
143
143
143
143
143
143
79
79
79
75
75
75
31
31
31
59
59
59
143
143
143
239
239
239
131
131
131
171
171
171
143
143
143
79
79
79
31
31
31
87
87
87
59
59
59
31
31
31
31
31
31
31
31
31
31
31
31
31
31
31
31
31
31
31
31
31
31
31
31
31
31
31
59
59
59
59
59
59
71
71
71
31
31
31
31
31
31
31
31
31
31
31
31
31
31
31
31
31
31
31
31
31
59
59
59
31
31
31
75
75
75
75
75
75
71
71
71
223
223
223
171
171
171
155
155
155
131
131
131
171
171
171
143
143
143
171
171
171
123
123
123
95
95
95
31
31
31
59
59
59
71
71
71
155
155
155
239
239
239
143
143
143
143
143
143
171
171
171
131
131
131
143
143
143
123
123
123
143
143
143
123
123
123
143
143
143
131
131
131
143
143
143
171
171
171
143
143
143
79
79
79
75
75
75
31
31
31
59
59
59
131
131
131
239
239
239
171
171
171
171
171
171
131
131
131
87
87
87
31
31
31
87
87
87
59
59
59
59
59
59
59
59
59
59
59
59
59
59
59
59
59
59
59
59
59
31
31
31
59
59
59
31
31
31
31
31
31
31
31
31
31
31
31
71
71
71
103
103
103
103
103
103
107
107
107
143
143
143
155
155
155
143
143
143
131
131
131
143
143
143
143
143
143
71
71
71
31
31
31
223
223
223
171
171
171
115
115
115
155
155
155
143
143
143
171
171
171
131
131
131
131
131
131
103
103
103
59
59
59
31
31
31
71
71
71
143
143
143
239
239
239
171
171
171
143
143
143
131
131
131
143
143
143
123
123
123
143
143
143
123
123
123
143
143
143
171
171
171
123
123
123
143
143
143
131
131
131
171
171
171
83
83
83
71
71
71
31
31
31
59
59
59
143
143
143
239
239
239
143
143
143
171
171
171
171
171
171
79
79
79
31
31
31
87
87
87
71
71
71
63
63
63
71
71
71
79
79
79
83
83
83
79
79
79
87
87
87
83
83
83
83
83
83
87
87
87
59
59
59
59
59
59
59
59
59
103
103
103
143
143
143
183
183
183
223
223
223
211
211
211
223
223
223
211
211
211
211
211
211
199
199
199
171
171
171
115
115
115
31
31
31
223
223
223
171
171
171
171
171
171
131
131
131
123
123
123
143
143
143
171
171
171
131
131
131
103
103
103
59
59
59
31
31
31
71
71
71
143
143
143
223
223
223
183
183
183
155
155
155
143
143
143
171
171
171
143
143
143
171
171
171
115
115
115
123
123
123
143
143
143
123
123
123
143
143
143
171
171
171
131
131
131
87
87
87
59
59
59
31
31
31
59
59
59
143
143
143
211
211
211
143
143
143
143
143
143
171
171
171
79
79
79
31
31
31
75
75
75
171
171
171
223
223
223
211
211
211
183
183
183
143
143
143
95
95
95
87
87
87
71
71
71
71
71
71
75
75
75
71
71
71
71
71
71
83
83
83
103
103
103
171
171
171
211
211
211
199
199
199
199
199
199
183
183
183
171
171
171
171
171
171
155
155
155
171
171
171
63
63
63
31
31
31
239
239
239
143
143
143
155
155
155
171
171
171
123
123
123
143
143
143
171
171
171
155
155
155
107
107
107
71
71
71
31
31
31
75
75
75
123
123
123
211
211
211
199
199
199
171
171
171
131
131
131
143
143
143
115
115
115
143
143
143
123
123
123
123
123
123
171
171
171
143
143
143
171
171
171
131
131
131
131
131
131
79
79
79
59
59
59
31
31
31
59
59
59
143
143
143
223
223
223
171
171
171
143
143
143
143
143
143
83
83
83
31
31
31
75
75
75
223
223
223
131
131
131
143
143
143
183
183
183
223
223
223
223
223
223
211
211
211
223
223
223
223
223
223
223
223
223
143
143
143
59
59
59
83
83
83
103
103
103
223
223
223
183
183
183
171
171
171
171
171
171
131
131
131
171
171
171
143
143
143
171
171
171
131
131
131
115
115
115
31
31
31
239
239
239
155
155
155
171
171
171
143
143
143
171
171
171
171
171
171
131
131
131
171
171
171
107
107
107
75
75
75
31
31
31
59
59
59
79
79
79
199
199
199
223
223
223
171
171
171
171
171
171
155
155
155
143
143
143
171
171
171
131
131
131
171
171
171
123
123
123
123
123
123
143
143
143
171
171
171
107
107
107
87
87
87
59
59
59
31
31
31
63
63
63
143
143
143
211
211
211
143
143
143
171
171
171
143
143
143
79
79
79
31
31
31
75
75
75
223
223
223
143
143
143
131
131
131
171
171
171
171
171
171
131
131
131
143
143
143
171
171
171
143
143
143
131
131
131
131
131
131
59
59
59
79
79
79
103
103
103
211
211
211
183
183
183
155
155
155
131
131
131
171
171
171
143
143
143
171
171
171
131
131
131
171
171
171
115
115
115
31
31
31
239
239
239
155
155
155
131
131
131
155
155
155
171
171
171
143
143
143
171
171
171
131
131
131
103
103
103
83
83
83
31
31
31
31
31
31
87
87
87
171
171
171
239
239
239
171
171
171
171
171
171
155
155
155
143
143
143
143
143
143
123
123
123
143
143
143
123
123
123
123
123
123
171
171
171
131
131
131
115
115
115
71
71
71
59
59
59
31
31
31
75
75
75
143
143
143
211
211
211
171
171
171
171
171
171
131
131
131
87
87
87
31
31
31
71
71
71
223
223
223
171
171
171
171
171
171
131
131
131
143
143
143
171
171
171
171
171
171
131
131
131
171
171
171
143
143
143
95
95
95
59
59
59
71
71
71
103
103
103
223
223
223
171
171
171
143
143
143
171
171
171
143
143
143
171
171
171
171
171
171
123
123
123
171
171
171
79
79
79
31
31
31
223
223
223
171
171
171
171
171
171
171
171
171
143
143
143
143
143
143
143
143
143
171
171
171
103
103
103
79
79
79
31
31
31
59
59
59
79
79
79
143
143
143
239
239
239
183
183
183
171
171
171
143
143
143
171
171
171
131
131
131
143
143
143
155
155
155
131
131
131
171
171
171
143
143
143
171
171
171
95
95
95
71
71
71
31
31
31
59
59
59
63
63
63
143
143
143
211
211
211
155
155
155
143
143
143
171
171
171
79
79
79
31
31
31
75
75
75
199
199
199
171
171
171
143
143
143
171
171
171
171
171
171
131
131
131
143
143
143
171
171
171
143
143
143
171
171
171
95
95
95
59
59
59
71
71
71
103
103
103
223
223
223
171
171
171
171
171
171
143
143
143
143
143
143
155
155
155
155
155
155
171
171
171
131
131
131
87
87
87
31
31
31
223
223
223
183
183
183
123
123
123
155
155
155
123
123
123
171
171
171
171
171
171
155
155
155
95
95
95
87
87
87
31
31
31
31
31
31
75
75
75
107
107
107
211
211
211
183
183
183
171
171
171
143
143
143
123
123
123
155
155
155
131
131
131
143
143
143
155
155
155
143
143
143
143
143
143
143
143
143
95
95
95
59
59
59
31
31
31
31
31
31
75
75
75
143
143
143
211
211
211
143
143
143
171
171
171
79
79
79
87
87
87
31
31
31
75
75
75
199
199
199
171
171
171
155
155
155
171
171
171
143
143
143
171
171
171
131
131
131
143
143
143
171
171
171
155
155
155
87
87
87
59
59
59
71
71
71
103
103
103
211
211
211
183
183
183
143
143
143
171
171
171
171
171
171
143
143
143
171
171
171
131
131
131
171
171
171
83
83
83
31
31
31
199
199
199
223
223
223
131
131
131
155
155
155
171
171
171
143
143
143
143
143
143
143
143
143
95
95
95
87
87
87
31
31
31
31
31
31
75
75
75
83
83
83
183
183
183
223
223
223
171
171
171
131
131
131
171
171
171
143
143
143
171
171
171
143
143
143
171
171
171
131
131
131
143
143
143
103
103
103
83
83
83
59
59
59
31
31
31
59
59
59
71
71
71
123
123
123
171
171
171
123
123
123
79
79
79
59
59
59
59
59
59
59
59
59
63
63
63
171
171
171
171
171
171
143
143
143
171
171
171
155
155
155
143
143
143
171
171
171
143
143
143
131
131
131
171
171
171
87
87
87
59
59
59
59
59
59
103
103
103
223
223
223
183
183
183
171
171
171
155
155
155
143
143
143
171
171
171
143
143
143
171
171
171
143
143
143
79
79
79
31
31
31
183
183
183
223
223
223
123
123
123
171
171
171
131
131
131
143
143
143
143
143
143
171
171
171
107
107
107
87
87
87
31
31
31
31
31
31
59
59
59
79
79
79
143
143
143
183
183
183
171
171
171
143
143
143
123
123
123
103
103
103
95
95
95
83
83
83
71
71
71
75
75
75
59
59
59
59
59
59
59
59
59
59
59
59
31
31
31
59
59
59
63
63
63
87
87
87
59
59
59
59
59
59
59
59
59
59
59
59
63
63
63
71
71
71
31
31
31
115
115
115
79
79
79
71
71
71
83
83
83
87
87
87
83
83
83
87
87
87
83
83
83
83
83
83
87
87
87
83
83
83
59
59
59
59
59
59
103
103
103
223
223
223
171
171
171
143
143
143
171
171
171
171
171
171
131
131
131
171
171
171
123
123
123
171
171
171
83
83
83
31
31
31
155
155
155
211
211
211
155
155
155
123
123
123
171
171
171
171
171
171
131
131
131
143
143
143
107
107
107
87
87
87
31
31
31
31
31
31
59
59
59
83
83
83
71
71
71
143
143
143
143
143
143
95
95
95
87
87
87
71
71
71
59
59
59
31
31
31
31
31
31
31
31
31
31
31
31
31
31
31
31
31
31
31
31
31
31
31
31
59
59
59
71
71
71
79
79
79
71
71
71
71
71
71
79
79
79
83
83
83
87
87
87
83
83
83
87
87
87
31
31
31
31
31
31
31
31
31
31
31
31
31
31
31
31
31
31
31
31
31
31
31
31
31
31
31
31
31
31
31
31
31
31
31
31
59
59
59
103
103
103
211
211
211
183
183
183
143
143
143
131
131
131
155
155
155
171
171
171
143
143
143
171
171
171
131
131
131
87
87
87
31
31
31
123
123
123
223
223
223
171
171
171
155
155
155
171
171
171
131
131
131
143
143
143
171
171
171
103
103
103
79
79
79
31
31
31
31
31
31
31
31
31
79
79
79
71
71
71
59
59
59
31
31
31
59
59
59
31
31
31
31
31
31
31
31
31
31
31
31
59
59
59
31
31
31
59
59
59
31
31
31
31
31
31
59
59
59
31
31
31
59
59
59
71
71
71
83
83
83
87
87
87
71
71
71
71
71
71
75
75
75
71
71
71
71
71
71
71
71
71
75
75
75
71
71
71
71
71
71
59
59
59
59
59
59
59
59
59
59
59
59
59
59
59
59
59
59
59
59
59
59
59
59
59
59
59
59
59
59
103
103
103
223
223
223
183
183
183
171
171
171
171
171
171
131
131
131
155
155
155
171
171
171
143
143
143
171
171
171
83
83
83
31
31
31
87
87
87
239
239
239
143
143
143
155
155
155
143
143
143
143
143
143
171
171
171
131
131
131
103
103
103
83
83
83
31
31
31
31
31
31
59
59
59
71
71
71
71
71
71
71
71
71
59
59
59
59
59
59
59
59
59
59
59
59
59
59
59
75
75
75
71
71
71
75
75
75
63
63
63
79
79
79
75
75
75
71
71
71
75
75
75
71
71
71
71
71
71
87
87
87
83
83
83
123
123
123
123
123
123
123
123
123
123
123
123
123
123
123
123
123
123
123
123
123
123
123
123
123
123
123
123
123
123
123
123
123
123
123
123
123
123
123
123
123
123
123
123
123
123
123
123
115
115
115
59
59
59
79
79
79
103
103
103
223
223
223
171
171
171
143
143
143
143
143
143
171
171
171
131
131
131
171
171
171
143
143
143
107
107
107
87
87
87
31
31
31
71
71
71
239
239
239
171
171
171
143
143
143
131
131
131
123
123
123
143
143
143
171
171
171
107
107
107
87
87
87
31
31
31
31
31
31
31
31
31
63
63
63
103
103
103
123
123
123
123
123
123
123
123
123
123
123
123
123
123
123
123
123
123
123
123
123
123
123
123
123
123
123
123
123
123
123
123
123
123
123
123
123
123
123
143
143
143
143
143
143
143
143
143
155
155
155
171
171
171
183
183
183
171
171
171
199
199
199
183
183
183
199
199
199
183
183
183
199
199
199
183
183
183
183
183
183
199
199
199
183
183
183
199
199
199
183
183
183
199
199
199
183
183
183
199
199
199
123
123
123
59
59
59
79
79
79
103
103
103
199
199
199
183
183
183
171
171
171
171
171
171
143
143
143
171
171
171
143
143
143
171
171
171
79
79
79
31
31
31
31
31
31
79
79
79
239
239
239
155
155
155
143
143
143
171
171
171
143
143
143
143
143
143
131
131
131
103
103
103
87
87
87
59
59
59
31
31
31
31
31
31
59
59
59
123
123
123
199
199
199
183
183
183
199
199
199
183
183
183
199
199
199
183
183
183
199
199
199
199
199
199
183
183
183
199
199
199
183
183
183
199
199
199
183
183
183
199
199
199
183
183
183
211
211
211
223
223
223
223
223
223
239
239
239
239
239
239
239
239
239
239
239
239
239
239
239
239
239
239
239
239
239
239
239
239
239
239
239
239
239
239
239
239
239
211
211
211
223
223
223
211
211
211
211
211
211
143
143
143
103
103
103
31
31
31
75
75
75
103
103
103
211
211
211
183
183
183
143
143
143
171
171
171
143
143
143
171
171
171
171
171
171
131
131
131
87
87
87
31
31
31
59
59
59
63
63
63
239
239
239
143
143
143
171
171
171
123
123
123
155
155
155
131
131
131
171
171
171
103
103
103
79
79
79
59
59
59
31
31
31
31
31
31
31
31
31
123
123
123
199
199
199
199
199
199
239
239
239
239
239
239
239
239
239
239
239
239
239
239
239
223
223
223
223
223
223
239
239
239
239
239
239
223
223
223
239
239
239
239
239
239
239
239
239
239
239
239
239
239
239
223
223
223
223
223
223
211
211
211
211
211
211
183
183
183
183
183
183
183
183
183
199
199
199
183
183
183
171
171
171
183
183
183
199
199
199
183
183
183
183
183
183
199
199
199
183
183
183
123
123
123
87
87
87
31
31
31
79
79
79
103
103
103
183
183
183
183
183
183
171
171
171
143
143
143
171
171
171
131
131
131
143
143
143
143
143
143
79
79
79
31
31
31
59
59
59
71
71
71
223
223
223
171
171
171
171
171
171
131
131
131
171
171
171
143
143
143
143
143
143
95
95
95
87
87
87
59
59
59
31
31
31
31
31
31
31
31
31
123
123
123
199
199
199
199
199
199
183
183
183
199
199
199
183
183
183
199
199
199
183
183
183
199
199
199
171
171
171
183
183
183
199
199
199
171
171
171
183
183
183
199
199
199
183
183
183
183
183
183
171
171
171
171
171
171
155
155
155
155
155
155
143
143
143
143
143
143
171
171
171
143
143
143
171
171
171
131
131
131
143
143
143
143
143
143
171
171
171
131
131
131
171
171
171
143
143
143
171
171
171
107
107
107
87
87
87
59
59
59
59
59
59
75
75
75
199
199
199
131
131
131
143
143
143
171
171
171
131
131
131
115
115
115
107
107
107
115
115
115
83
83
83
31
31
31
59
59
59
71
71
71
211
211
211
131
131
131
143
143
143
171
171
171
131
131
131
171
171
171
143
143
143
107
107
107
87
87
87
59
59
59
31
31
31
31
31
31
31
31
31
103
103
103
183
183
183
223
223
223
183
183
183
143
143
143
143
143
143
131
131
131
143
143
143
143
143
143
143
143
143
171
171
171
131
131
131
171
171
171
171
171
171
143
143
143
143
143
143
155
155
155
171
171
171
171
171
171
171
171
171
143
143
143
123
123
123
155
155
155
131
131
131
171
171
171
171
171
171
155
155
155
131
131
131
171
171
171
143
143
143
171
171
171
171
171
171
155
155
155
143
143
143
107
107
107
83
83
83
31
31
31
59
59
59
71
71
71
183
183
183
171
171
171
171
171
171
155
155
155
143
143
143
87
87
87
83
83
83
83
83
83
31
31
31
31
31
31
63
63
63
71
71
71
183
183
183
171
171
171
131
131
131
143
143
143
171
171
171
143
143
143
131
131
131
115
115
115
83
83
83
59
59
59
31
31
31
31
31
31
31
31
31
71
71
71
199
199
199
223
223
223
183
183
183
143
143
143
143
143
143
143
143
143
171
171
171
143
143
143
155
155
155
143
143
143
155
155
155
171
171
171
131
131
131
143
143
143
155
155
155
171
171
171
171
171
171
131
131
131
155
155
155
143
143
143
155
155
155
143
143
143
143
143
143
123
123
123
131
131
131
155
155
155
155
155
155
143
143
143
171
171
171
131
131
131
171
171
171
143
143
143
171
171
171
107
107
107
87
87
87
59
59
59
59
59
59
71
71
71
123
123
123
123
123
123
123
123
123
87
87
87
83
83
83
87
87
87
83
83
83
83
83
83
31
31
31
59
59
59
59
59
59
63
63
63
155
155
155
155
155
155
171
171
171
131
131
131
143
143
143
143
143
143
107
107
107
103
103
103
83
83
83
59
59
59
31
31
31
31
31
31
31
31
31
31
31
31
183
183
183
223
223
223
211
211
211
171
171
171
171
171
171
131
131
131
143
143
143
143
143
143
143
143
143
123
123
123
143
143
143
131
131
131
171
171
171
143
143
143
155
155
155
131
131
131
171
171
171
155
155
155
123
123
123
131
131
131
143
143
143
171
171
171
131
131
131
143
143
143
171
171
171
143
143
143
123
123
123
115
115
115
143
143
143
123
123
123
155
155
155
143
143
143
143
143
143
115
115
115
83
83
83
31
31
31
59
59
59
71
71
71
59
59
59
31
31
31
31
31
31
31
31
31
87
87
87
83
83
83
83
83
83
87
87
87
31
31
31
59
59
59
63
63
63
75
75
75
123
123
123
103
103
103
95
95
95
103
103
103
103
103
103
95
95
95
103
103
103
83
83
83
83
83
83
59
59
59
31
31
31
31
31
31
31
31
31
59
59
59
171
171
171
211
211
211
211
211
211
143
143
143
131
131
131
171
171
171
143
143
143
171
171
171
131
131
131
143
143
143
171
171
171
143
143
143
123
123
123
123
123
123
155
155
155
155
155
155
131
131
131
171
171
171
143
143
143
171
171
171
143
143
143
143
143
143
171
171
171
131
131
131
143
143
143
123
123
123
143
143
143
143
143
143
131
131
131
171
171
171
143
143
143
115
115
115
131
131
131
107
107
107
87
87
87
31
31
31
59
59
59
83
83
83
87
87
87
83
83
83
71
71
71
59
59
59
31
31
31
31
31
31
31
31
31
31
31
31
59
59
59
59
59
59
63
63
63
59
59
59
59
59
59
59
59
59
59
59
59
59
59
59
59
59
59
59
59
59
59
59
59
59
59
59
59
59
59
59
59
59
31
31
31
31
31
31
31
31
31
31
31
31
143
143
143
211
211
211
183
183
183
171
171
171
143
143
143
143
143
143
171
171
171
131
131
131
171
171
171
123
123
123
143
143
143
131
131
131
155
155
155
123
123
123
155
155
155
143
143
143
155
155
155
123
123
123
171
171
171
131
131
131
143
143
143
123
123
123
143
143
143
143
143
143
143
143
143
131
131
131
171
171
171
143
143
143
123
123
123
143
143
143
143
143
143
131
131
131
123
123
123
107
107
107
87
87
87
31
31
31
59
59
59
71
71
71
75
75
75
71
71
71
71
71
71
71
71
71
75
75
75
71
71
71
59
59
59
31
31
31
31
31
31
59
59
59
75
75
75
59
59
59
59
59
59
31
31
31
31
31
31
31
31
31
31
31
31
31
31
31
31
31
31
31
31
31
31
31
31
31
31
31
31
31
31
31
31
31
31
31
31
59
59
59
131
131
131
155
155
155
107
107
107
115
115
115
115
115
115
107
107
107
115
115
115
115
115
115
107
107
107
171
171
171
143
143
143
171
171
171
171
171
171
131
131
131
143
143
143
123
123
123
131
131
131
143
143
143
143
143
143
123
123
123
143
143
143
143
143
143
171
171
171
131
131
131
171
171
171
143
143
143
143
143
143
171
171
171
131
131
131
143
143
143
143
143
143
143
143
143
155
155
155
107
107
107
87
87
87
31
31
31
59
59
59
71
71
71
123
123
123
171
171
171
171
171
171
171
171
171
171
171
171
143
143
143
143
143
143
103
103
103
75
75
75
75
75
75
83
83
83
59
59
59
59
59
59
31
31
31
31
31
31
59
59
59
31
31
31
31
31
31
59
59
59
31
31
31
31
31
31
59
59
59
31
31
31
59
59
59
31
31
31
59
59
59
83
83
83
71
71
71
59
59
59
59
59
59
31
31
31
59
59
59
31
31
31
59
59
59
31
31
31
87
87
87
115
115
115
107
107
107
123
123
123
143
143
143
123
123
123
123
123
123
123
123
123
123
123
123
123
123
123
123
123
123
123
123
123
123
123
123
123
123
123
123
123
123
123
123
123
123
123
123
123
123
123
123
123
123
123
123
123
123
123
123
123
123
123
123
123
123
123
123
123
103
103
103
79
79
79
31
31
31
59
59
59
71
71
71
171
171
171
199
199
199
211
211
211
223
223
223
211
211
211
223
223
223
223
223
223
183
183
183
171
171
171
171
171
171
143
143
143
107
107
107
95
95
95
87
87
87
75
75
75
59
59
59
59
59
59
59
59
59
59
59
59
59
59
59
59
59
59
59
59
59
59
59
59
59
59
59
59
59
59
63
63
63
87
87
87
71
71
71
71
71
71
59
59
59
59
59
59
59
59
59
59
59
59
59
59
59
59
59
59
31
31
31
75
75
75
83
83
83
83
83
83
87
87
87
83
83
83
87
87
87
83
83
83
87
87
87
83
83
83
87
87
87
83
83
83
83
83
83
83
83
83
87
87
87
83
83
83
87
87
87
83
83
83
83
83
83
87
87
87
83
83
83
87
87
87
83
83
83
83
83
83
83
83
83
31
31
31
59
59
59
59
59
59
71
71
71
171
171
171
211
211
211
171
171
171
171
171
171
143
143
143
183
183
183
211
211
211
223
223
223
223
223
223
223
223
223
183
183
183
171
171
171
171
171
171
171
171
171
171
171
171
171
171
171
171
171
171
171
171
171
155
155
155
143
143
143
143
143
143
131
131
131
123
123
123
123
123
123
107
107
107
103
103
103
103
103
103
79
79
79
87
87
87
71
71
71
71
71
71
71
71
71
63
63
63
71
71
71
59
59
59
59
59
59
31
31
31
59
59
59
31
31
31
59
59
59
31
31
31
59
59
59
31
31
31
59
59
59
31
31
31
59
59
59
31
31
31
59
59
59
31
31
31
31
31
31
31
31
31
31
31
31
31
31
31
31
31
31
31
31
31
31
31
31
31
31
31
31
31
31
31
31
31
31
31
31
31
31
31
59
59
59
63
63
63
71
71
71
171
171
171
223
223
223
171
171
171
171
171
171
171
171
171
183
183
183
171
171
171
143
143
143
171
171
171
183
183
183
223
223
223
223
223
223
223
223
223
211
211
211
223
223
223
211
211
211
223
223
223
211
211
211
223
223
223
223
223
223
223
223
223
223
223
223
199
199
199
211
211
211
199
199
199
183
183
183
171
171
171
171
171
171
171
171
171
171
171
171
171
171
171
131
131
131
75
75
75
83
83
83
71
71
71
59
59
59
59
59
59
59
59
59
59
59
59
59
59
59
59
59
59
59
59
59
59
59
59
59
59
59
31
31
31
31
31
31
59
59
59
31
31
31
59
59
59
31
31
31
59
59
59
31
31
31
59
59
59
31
31
31
59
59
59
31
31
31
59
59
59
31
31
31
59
59
59
59
59
59
59
59
59
71
71
71
75
75
75
71
71
71
171
171
171
223
223
223
171
171
171
131
131
131
171
171
171
123
123
123
123
123
123
171
171
171
155
155
155
143
143
143
123
123
123
171
171
171
131
131
131
171
171
171
143
143
143
171
171
171
143
143
143
171
171
171
171
171
171
131
131
131
171
171
171
143
143
143
171
171
171
171
171
171
171
171
171
199
199
199
211
211
211
223
223
223
211
211
211
211
211
211
183
183
183
131
131
131
59
59
59
71
71
71
79
79
79
75
75
75
71
71
71
71
71
71
59
59
59
59
59
59
59
59
59
31
31
31
59
59
59
59
59
59
59
59
59
59
59
59
59
59
59
59
59
59
59
59
59
59
59
59
59
59
59
59
59
59
59
59
59
59
59
59
59
59
59
59
59
59
59
59
59
59
59
59
59
59
59
63
63
63
71
71
71
75
75
75
83
83
83
71
71
71
171
171
171
199
199
199
171
171
171
171
171
171
171
171
171
143
143
143
171
171
171
143
143
143
143
143
143
143
143
143
155
155
155
171
171
171
131
131
131
143
143
143
171
171
171
123
123
123
115
115
115
143
143
143
171
171
171
123
123
123
143
143
143
131
131
131
143
143
143
171
171
171
131
131
131
171
171
171
143
143
143
171
171
171
171
171
171
171
171
171
123
123
123
103
103
103
31
31
31
59
59
59
79
79
79
75
75
75
171
171
171
211
211
211
223
223
223
155
155
155
123
123
123
75
75
75
75
75
75
71
71
71
83
83
83
83
83
83
83
83
83
71
71
71
71
71
71
63
63
63
71
71
71
71
71
71
71
71
71
63
63
63
71
71
71
71
71
71
63
63
63
71
71
71
71
71
71
79
79
79
87
87
87
83
83
83
83
83
83
71
71
71
171
171
171
199
199
199
171
171
171
131
131
131
171
171
171
123
123
123
123
123
123
155
155
155
171
171
171
131
131
131
171
171
171
171
171
171
155
155
155
131
131
131
123
123
123
171
171
171
123
123
123
143
143
143
123
123
123
155
155
155
131
131
131
171
171
171
143
143
143
171
171
171
143
143
143
171
171
171
131
131
131
171
171
171
171
171
171
155
155
155
103
103
103
83
83
83
31
31
31
59
59
59
71
71
71
71
71
71
223
223
223
171
171
171
171
171
171
223
223
223
223
223
223
223
223
223
211
211
211
183
183
183
83
83
83
83
83
83
75
75
75
183
183
183
223
223
223
223
223
223
211
211
211
223
223
223
223
223
223
223
223
223
211
211
211
211
211
211
199
199
199
171
171
171
155
155
155
123
123
123
75
75
75
71
71
71
83
83
83
71
71
71
171
171
171
131
131
131
103
103
103
95
95
95
103
103
103
95
95
95
103
103
103
95
95
95
103
103
103
103
103
103
95
95
95
103
103
103
95
95
95
103
103
103
103
103
103
95
95
95
103
103
103
95
95
95
103
103
103
95
95
95
103
103
103
103
103
103
95
95
95
103
103
103
95
95
95
103
103
103
95
95
95
103
103
103
95
95
95
103
103
103
87
87
87
83
83
83
59
59
59
31
31
31
59
59
59
71
71
71
211
211
211
183
183
183
171
171
171
183
183
183
171
171
171
183
183
183
183
183
183
183
183
183
95
95
95
87
87
87
123
123
123
223
223
223
155
155
155
171
171
171
171
171
171
143
143
143
171
171
171
131
131
131
171
171
171
155
155
155
171
171
171
143
143
143
171
171
171
211
211
211
155
155
155
31
31
31
83
83
83
71
71
71
143
143
143
103
103
103
59
59
59
59
59
59
59
59
59
59
59
59
59
59
59
59
59
59
59
59
59
59
59
59
59
59
59
59
59
59
59
59
59
59
59
59
59
59
59
59
59
59
59
59
59
59
59
59
59
59
59
59
59
59
59
59
59
59
59
59
59
59
59
59
59
59
59
59
59
59
59
59
59
59
59
59
59
59
59
59
59
59
59
59
59
59
59
59
59
59
59
59
59
31
31
31
31
31
31
75
75
75
183
183
183
171
171
171
183
183
183
183
183
183
155
155
155
95
95
95
155
155
155
131
131
131
103
103
103
71
71
71
183
183
183
171
171
171
143
143
143
171
171
171
131
131
131
171
171
171
171
171
171
171
171
171
131
131
131
171
171
171
143
143
143
171
171
171
131
131
131
171
171
171
83
83
83
31
31
31
87
87
87
71
71
71
59
59
59
31
31
31
31
31
31
31
31
31
31
31
31
31
31
31
31
31
31
31
31
31
31
31
31
31
31
31
31
31
31
31
31
31
31
31
31
31
31
31
31
31
31
31
31
31
31
31
31
31
31
31
31
31
31
31
31
31
31
31
31
31
31
31
31
31
31
31
31
31
31
31
31
31
31
31
31
31
31
31
31
31
31
31
31
31
31
31
31
31
31
31
31
31
31
31
31
31
31
31
31
31
31
79
79
79
59
59
59
71
71
71
59
59
59
79
79
79
103
103
103
95
95
95
103
103
103
103
103
103
95
95
95
75
75
75
223
223
223
155
155
155
155
155
155
155
155
155
171
171
171
171
171
171
143
143
143
155
155
155
171
171
171
155
155
155
155
155
155
171
171
171
143
143
143
143
143
143
79
79
79
31
31
31
87
87
87
83
83
83
75
75
75
59
59
59
59
59
59
59
59
59
31
31
31
59
59
59
31
31
31
31
31
31
59
59
59
31
31
31
31
31
31
59
59
59
31
31
31
31
31
31
59
59
59
31
31
31
59
59
59
31
31
31
31
31
31
59
59
59
31
31
31
31
31
31
59
59
59
31
31
31
31
31
31
59
59
59
31
31
31
31
31
31
59
59
59
31
31
31
31
31
31
59
59
59
31
31
31
59
59
59
31
31
31
63
63
63
79
79
79
87
87
87
59
59
59
59
59
59
31
31
31
31
31
31
31
31
31
31
31
31
31
31
31
59
59
59
83
83
83
87
87
87
83
83
83
83
83
83
83
83
83
83
83
83
83
83
83
87
87
87
79
79
79
83
83
83
87
87
87
83
83
83
87
87
87
79
79
79
87
87
87
31
31
31
83
83
83
83
83
83
87
87
87
79
79
79
83
83
83
71
71
71
71
71
71
71
71
71
75
75
75
75
75
75
71
71
71
75
75
75
75
75
75
59
59
59
59
59
59
59
59
59
59
59
59
59
59
59
59
59
59
59
59
59
59
59
59
59
59
59
59
59
59
59
59
59
59
59
59
59
59
59
59
59
59
59
59
59
59
59
59
59
59
59
59
59
59
59
59
59
59
59
59
59
59
59
59
59
59
59
59
59
59
59
59
59
59
59
79
79
79
87
87
87
79
79
79
83
83
83
59
59
59
59
59
59
59
59
59
59
59
59
59
59
59
59
59
59
79
79
79
83
83
83
31
31
31
31
31
31
31
31
31
31
31
31
31
31
31
31
31
31
31
31
31
31
31
31
31
31
31
31
31
31
31
31
31
31
31
31
31
31
31
31
31
31
87
87
87
59
59
59
59
59
59
59
59
59
59
59
59
59
59
59
59
59
59
59
59
59
59
59
59
59
59
59
59
59
59
59
59
59
59
59
59
59
59
59
59
59
59
59
59
59
59
59
59
59
59
59
59
59
59
59
59
59
59
59
59
59
59
59
59
59
59
59
59
59
59
59
59
59
59
59
59
59
59
59
59
59
59
59
59
59
59
59
59
59
59
59
59
59
59
59
59
59
59
59
59
59
59
59
59
59
59
59
59
59
59
59
59
59
59
59
59
59
59
59
59
59
59
59
59
59
59
59
59
59
59
59
59
59
59
59
59
59
59
59
59
59
59
59
59
59
59
59
59
59
59
59
59
59
59
59
59
59
59
59
59
59
59
59
59
59
59
59
59
59
59
59
59
59
59
59
59
59
59
59
59
59
59
59
59
59
59
59
59
59
59
59
59
