P3
# Created by GIMP version 2.10.30 PNM plug-in
64 64
255
0
0
0
0
0
0
0
0
0
0
0
0
0
0
0
0
0
0
0
0
0
0
0
0
0
0
0
0
0
0
0
0
0
0
0
0
0
0
0
0
0
0
0
0
0
0
0
0
0
0
0
0
0
0
0
0
0
0
0
0
0
0
0
0
0
0
0
0
0
0
0
0
0
0
0
168
168
168
168
168
168
168
168
168
168
168
168
140
140
140
140
140
140
140
140
140
140
140
140
140
140
140
140
140
140
140
140
140
112
112
112
112
112
112
112
112
112
112
112
112
100
100
100
0
0
0
0
0
0
0
0
0
0
0
0
0
0
0
0
0
0
0
0
0
0
0
0
0
0
0
0
0
0
0
0
0
0
0
0
0
0
0
0
0
0
0
0
0
0
0
0
0
0
0
0
0
0
0
0
0
0
0
0
0
0
0
0
0
0
0
0
0
0
0
0
0
0
0
0
0
0
0
0
0
0
0
0
0
0
0
0
0
0
0
0
0
0
0
0
0
0
0
0
0
0
0
0
0
0
0
0
0
0
0
0
0
0
0
0
0
0
0
0
0
0
0
0
0
0
0
0
0
168
168
168
168
168
168
220
220
220
220
220
220
208
208
208
208
208
208
208
208
208
192
192
192
192
192
192
192
192
192
180
180
180
180
180
180
168
168
168
168
168
168
152
152
152
152
152
152
140
140
140
140
140
140
124
124
124
112
112
112
112
112
112
100
100
100
84
84
84
72
72
72
84
84
84
84
84
84
0
0
0
0
0
0
0
0
0
0
0
0
0
0
0
0
0
0
0
0
0
0
0
0
0
0
0
0
0
0
0
0
0
0
0
0
0
0
0
0
0
0
0
0
0
0
0
0
0
0
0
0
0
0
0
0
0
0
0
0
0
0
0
0
0
0
0
0
0
0
0
0
0
0
0
0
0
0
0
0
0
0
0
0
0
0
0
0
0
0
0
0
0
0
0
0
0
0
0
0
0
0
0
0
0
0
0
0
192
192
192
252
252
252
252
252
252
236
236
236
236
236
236
236
236
236
220
220
220
220
220
220
220
220
220
208
208
208
208
208
208
208
208
208
192
192
192
192
192
192
180
180
180
180
180
180
168
168
168
152
152
152
112
112
112
192
192
192
140
140
140
124
124
124
112
112
112
100
100
100
84
84
84
72
72
72
64
64
64
56
56
56
56
56
56
44
44
44
0
0
0
0
0
0
0
0
0
0
0
0
0
0
0
0
0
0
0
0
0
0
0
0
0
0
0
0
0
0
0
0
0
0
0
0
0
0
0
0
0
0
0
0
0
0
0
0
0
0
0
0
0
0
0
0
0
0
0
0
0
0
0
0
0
0
0
0
0
0
0
0
0
0
0
0
0
0
0
0
0
0
0
0
0
0
0
0
0
0
0
0
0
0
0
0
0
0
0
236
236
236
252
252
252
252
252
252
252
252
252
252
252
252
236
236
236
236
236
236
236
236
236
252
252
252
252
252
252
252
252
252
220
220
220
220
220
220
208
208
208
192
192
192
192
192
192
180
180
180
180
180
180
168
168
168
152
152
152
152
152
152
140
140
140
124
124
124
124
124
124
72
72
72
84
84
84
72
72
72
64
64
64
56
56
56
56
56
56
32
32
32
44
44
44
0
0
0
0
0
0
0
0
0
0
0
0
0
0
0
0
0
0
0
0
0
0
0
0
0
0
0
0
0
0
0
0
0
0
0
0
0
0
0
0
0
0
0
0
0
0
0
0
0
0
0
0
0
0
0
0
0
0
0
0
0
0
0
0
0
0
0
0
0
0
0
0
0
0
0
0
0
0
0
0
0
0
0
0
0
0
0
0
0
0
0
0
0
220
220
220
236
236
236
236
236
236
252
252
252
252
252
252
252
252
252
252
252
252
252
252
252
252
252
252
236
236
236
220
220
220
208
208
208
192
192
192
192
192
192
180
180
180
180
180
180
168
168
168
168
168
168
152
152
152
140
140
140
124
124
124
124
124
124
112
112
112
100
100
100
100
100
100
100
100
100
100
100
100
56
56
56
64
64
64
56
56
56
44
44
44
32
32
32
44
44
44
44
44
44
0
0
0
0
0
0
0
0
0
0
0
0
0
0
0
0
0
0
0
0
0
0
0
0
0
0
0
0
0
0
0
0
0
0
0
0
0
0
0
0
0
0
0
0
0
0
0
0
0
0
0
0
0
0
0
0
0
0
0
0
0
0
0
0
0
0
0
0
0
0
0
0
0
0
0
0
0
0
0
0
0
0
0
0
0
0
0
0
0
0
220
220
220
220
220
220
236
236
236
236
236
236
252
252
252
252
252
252
252
252
252
236
236
236
236
236
236
208
208
208
208
208
208
208
208
208
192
192
192
192
192
192
168
168
168
208
208
208
168
168
168
168
168
168
152
152
152
140
140
140
124
124
124
124
124
124
112
112
112
100
100
100
100
100
100
84
84
84
64
64
64
72
72
72
44
44
44
44
44
44
32
32
32
32
32
32
44
44
44
44
44
44
0
0
0
0
0
0
0
0
0
0
0
0
0
0
0
0
0
0
0
0
0
0
0
0
0
0
0
0
0
0
0
0
0
0
0
0
0
0
0
0
0
0
0
0
0
0
0
0
0
0
0
0
0
0
0
0
0
0
0
0
0
0
0
0
0
0
0
0
0
0
0
0
0
0
0
0
0
0
0
0
0
0
0
0
0
0
0
0
0
0
192
192
192
220
220
220
220
220
220
252
252
252
236
236
236
252
252
252
252
252
252
236
236
236
236
236
236
236
236
236
220
220
220
220
220
220
208
208
208
208
208
208
192
192
192
192
192
192
180
180
180
180
180
180
168
168
168
152
152
152
140
140
140
124
124
124
112
112
112
100
100
100
84
84
84
72
72
72
64
64
64
44
44
44
56
56
56
32
32
32
32
32
32
44
44
44
44
44
44
44
44
44
0
0
0
0
0
0
0
0
0
0
0
0
0
0
0
0
0
0
0
0
0
0
0
0
0
0
0
0
0
0
0
0
0
0
0
0
0
0
0
0
0
0
0
0
0
0
0
0
0
0
0
0
0
0
0
0
0
0
0
0
0
0
0
0
0
0
0
0
0
0
0
0
0
0
0
0
0
0
0
0
0
0
0
0
0
0
0
0
0
0
0
0
0
192
192
192
192
192
192
252
252
252
236
236
236
236
236
236
252
252
252
252
252
252
236
236
236
236
236
236
252
252
252
252
252
252
220
220
220
220
220
220
208
208
208
192
192
192
192
192
192
168
168
168
168
168
168
152
152
152
140
140
140
124
124
124
112
112
112
100
100
100
84
84
84
64
64
64
56
56
56
44
44
44
32
32
32
32
32
32
32
32
32
44
44
44
44
44
44
0
0
0
0
0
0
0
0
0
0
0
0
0
0
0
0
0
0
0
0
0
0
0
0
0
0
0
0
0
0
0
0
0
0
0
0
0
0
0
0
0
0
0
0
0
0
0
0
0
0
0
0
0
0
0
0
0
0
0
0
0
0
0
0
0
0
0
0
0
0
0
0
0
0
0
0
0
0
0
0
0
0
0
0
0
0
0
0
0
0
0
0
0
0
0
0
0
0
0
0
0
0
180
180
180
236
236
236
236
236
236
252
252
252
252
252
252
252
252
252
252
252
252
236
236
236
220
220
220
208
208
208
192
192
192
168
168
168
180
180
180
152
152
152
140
140
140
124
124
124
112
112
112
100
100
100
84
84
84
72
72
72
64
64
64
44
44
44
56
56
56
44
44
44
32
32
32
32
32
32
32
32
32
32
32
32
0
0
0
0
0
0
0
0
0
0
0
0
0
0
0
0
0
0
0
0
0
0
0
0
0
0
0
0
0
0
0
0
0
0
0
0
0
0
0
0
0
0
0
0
0
0
0
0
0
0
0
0
0
0
0
0
0
0
0
0
0
0
0
0
0
0
0
0
0
0
0
0
0
0
0
0
0
0
0
0
0
0
0
0
0
0
0
0
0
0
0
0
0
0
0
0
0
0
0
0
0
0
0
0
0
0
0
0
0
0
0
180
180
180
192
192
192
192
192
192
252
252
252
252
252
252
252
252
252
236
236
236
220
220
220
208
208
208
192
192
192
180
180
180
168
168
168
152
152
152
140
140
140
124
124
124
112
112
112
100
100
100
84
84
84
72
72
72
64
64
64
56
56
56
44
44
44
44
44
44
32
32
32
32
32
32
44
44
44
0
0
0
0
0
0
0
0
0
0
0
0
0
0
0
0
0
0
0
0
0
0
0
0
0
0
0
0
0
0
0
0
0
0
0
0
0
0
0
0
0
0
0
0
0
0
0
0
0
0
0
0
0
0
0
0
0
0
0
0
0
0
0
0
0
0
0
0
0
0
0
0
0
0
0
0
0
0
0
0
0
0
0
0
0
0
0
0
0
0
0
0
0
0
0
0
0
0
0
0
0
0
0
0
0
0
0
0
0
0
0
0
0
0
0
0
0
152
152
152
192
192
192
236
236
236
252
252
252
252
252
252
236
236
236
220
220
220
208
208
208
192
192
192
180
180
180
168
168
168
152
152
152
140
140
140
124
124
124
112
112
112
84
84
84
100
100
100
72
72
72
64
64
64
56
56
56
44
44
44
32
32
32
32
32
32
44
44
44
0
0
0
0
0
0
0
0
0
0
0
0
0
0
0
0
0
0
0
0
0
0
0
0
0
0
0
0
0
0
0
0
0
0
0
0
0
0
0
0
0
0
0
0
0
0
0
0
0
0
0
0
0
0
0
0
0
0
0
0
0
0
0
0
0
0
0
0
0
0
0
0
0
0
0
0
0
0
0
0
0
0
0
0
0
0
0
0
0
0
0
0
0
0
0
0
0
0
0
0
0
0
0
0
0
0
0
0
0
0
0
0
0
0
0
0
0
0
0
0
152
152
152
192
192
192
236
236
236
252
252
252
252
252
252
236
236
236
220
220
220
208
208
208
192
192
192
180
180
180
168
168
168
152
152
152
140
140
140
124
124
124
112
112
112
100
100
100
84
84
84
72
72
72
64
64
64
56
56
56
44
44
44
32
32
32
32
32
32
44
44
44
0
0
0
0
0
0
0
0
0
0
0
0
0
0
0
0
0
0
0
0
0
0
0
0
0
0
0
0
0
0
0
0
0
0
0
0
0
0
0
0
0
0
0
0
0
0
0
0
0
0
0
0
0
0
0
0
0
0
0
0
0
0
0
0
0
0
0
0
0
0
0
0
0
0
0
0
0
0
0
0
0
0
0
0
0
0
0
0
0
0
0
0
0
0
0
0
0
0
0
0
0
0
0
0
0
0
0
0
0
0
0
0
0
0
0
0
0
0
0
0
152
152
152
192
192
192
252
252
252
252
252
252
252
252
252
236
236
236
220
220
220
208
208
208
192
192
192
180
180
180
168
168
168
140
140
140
168
168
168
124
124
124
112
112
112
100
100
100
84
84
84
72
72
72
64
64
64
44
44
44
56
56
56
32
32
32
32
32
32
44
44
44
0
0
0
0
0
0
0
0
0
0
0
0
0
0
0
0
0
0
0
0
0
0
0
0
0
0
0
0
0
0
0
0
0
0
0
0
0
0
0
0
0
0
0
0
0
0
0
0
0
0
0
0
0
0
0
0
0
0
0
0
0
0
0
0
0
0
0
0
0
0
0
0
0
0
0
0
0
0
0
0
0
0
0
0
0
0
0
0
0
0
0
0
0
0
0
0
0
0
0
0
0
0
0
0
0
0
0
0
0
0
0
0
0
0
0
0
0
0
0
0
152
152
152
192
192
192
252
252
252
252
252
252
252
252
252
236
236
236
220
220
220
208
208
208
192
192
192
180
180
180
140
140
140
152
152
152
168
168
168
124
124
124
112
112
112
100
100
100
84
84
84
72
72
72
64
64
64
56
56
56
44
44
44
32
32
32
32
32
32
44
44
44
0
0
0
0
0
0
0
0
0
0
0
0
0
0
0
0
0
0
0
0
0
0
0
0
0
0
0
0
0
0
0
0
0
0
0
0
0
0
0
0
0
0
0
0
0
0
0
0
0
0
0
0
0
0
0
0
0
0
0
0
0
0
0
0
0
0
0
0
0
0
0
0
0
0
0
0
0
0
0
0
0
0
0
0
0
0
0
0
0
0
0
0
0
0
0
0
0
0
0
0
0
0
0
0
0
0
0
0
0
0
0
0
0
0
0
0
0
0
0
0
152
152
152
192
192
192
252
252
252
252
252
252
252
252
252
236
236
236
220
220
220
208
208
208
192
192
192
180
180
180
168
168
168
152
152
152
140
140
140
124
124
124
112
112
112
100
100
100
64
64
64
100
100
100
64
64
64
56
56
56
44
44
44
32
32
32
32
32
32
44
44
44
0
0
0
0
0
0
0
0
0
0
0
0
0
0
0
0
0
0
0
0
0
0
0
0
0
0
0
0
0
0
0
0
0
0
0
0
0
0
0
0
0
0
0
0
0
0
0
0
0
0
0
0
0
0
0
0
0
0
0
0
0
0
0
0
0
0
0
0
0
0
0
0
0
0
0
0
0
0
0
0
0
0
0
0
0
0
0
0
0
0
0
0
0
0
0
0
0
0
0
0
0
0
0
0
0
0
0
0
0
0
0
0
0
0
0
0
0
0
0
0
152
152
152
192
192
192
252
252
252
252
252
252
252
252
252
236
236
236
220
220
220
208
208
208
192
192
192
180
180
180
168
168
168
152
152
152
140
140
140
124
124
124
112
112
112
100
100
100
84
84
84
100
100
100
64
64
64
56
56
56
44
44
44
32
32
32
32
32
32
44
44
44
0
0
0
0
0
0
0
0
0
0
0
0
0
0
0
0
0
0
0
0
0
0
0
0
0
0
0
0
0
0
0
0
0
0
0
0
0
0
0
0
0
0
0
0
0
0
0
0
0
0
0
0
0
0
0
0
0
0
0
0
0
0
0
0
0
0
0
0
0
0
0
0
0
0
0
0
0
0
0
0
0
0
0
0
0
0
0
0
0
0
0
0
0
0
0
0
0
0
0
0
0
0
0
0
0
0
0
0
0
0
0
0
0
0
0
0
0
0
0
0
152
152
152
192
192
192
236
236
236
236
236
236
220
220
220
208
208
208
192
192
192
180
180
180
168
168
168
152
152
152
140
140
140
124
124
124
112
112
112
100
100
100
84
84
84
72
72
72
64
64
64
72
72
72
44
44
44
32
32
32
32
32
32
32
32
32
32
32
32
44
44
44
0
0
0
0
0
0
0
0
0
0
0
0
0
0
0
0
0
0
0
0
0
0
0
0
0
0
0
0
0
0
0
0
0
0
0
0
0
0
0
0
0
0
0
0
0
0
0
0
0
0
0
0
0
0
0
0
0
0
0
0
0
0
0
0
0
0
0
0
0
0
0
0
0
0
0
0
0
0
0
0
0
0
0
0
0
0
0
0
0
0
0
0
0
0
0
0
0
0
0
0
0
0
0
0
0
0
0
0
0
0
0
0
0
0
0
0
0
0
0
0
152
152
152
140
140
140
168
168
168
180
180
180
168
168
168
168
168
168
140
140
140
140
140
140
124
124
124
112
112
112
112
112
112
100
100
100
100
100
100
84
84
84
72
72
72
64
64
64
56
56
56
44
44
44
32
32
32
32
32
32
32
32
32
32
32
32
32
32
32
32
32
32
0
0
0
0
0
0
0
0
0
0
0
0
0
0
0
0
0
0
0
0
0
0
0
0
0
0
0
0
0
0
0
0
0
0
0
0
0
0
0
0
0
0
0
0
0
0
0
0
0
0
0
0
0
0
0
0
0
0
0
0
0
0
0
0
0
0
0
0
0
0
0
0
0
0
0
0
0
0
0
0
0
0
0
0
0
0
0
0
0
0
0
0
0
0
0
0
0
0
0
0
0
0
0
0
0
0
0
0
0
0
0
0
0
0
0
0
0
0
0
0
0
0
0
220
220
220
252
252
252
220
220
220
236
236
236
252
252
252
252
252
252
236
236
236
220
220
220
208
208
208
192
192
192
180
180
180
168
168
168
152
152
152
140
140
140
124
124
124
112
112
112
84
84
84
100
100
100
72
72
72
56
56
56
32
32
32
44
44
44
0
0
0
0
0
0
0
0
0
0
0
0
0
0
0
0
0
0
0
0
0
0
0
0
0
0
0
0
0
0
0
0
0
0
0
0
0
0
0
0
0
0
0
0
0
0
0
0
0
0
0
0
0
0
0
0
0
0
0
0
0
0
0
0
0
0
0
0
0
0
0
0
0
0
0
0
0
0
0
0
0
0
0
0
0
0
0
0
0
0
0
0
0
0
0
0
0
0
0
0
0
0
0
0
0
0
0
0
0
0
0
0
0
0
0
0
0
0
0
0
0
0
0
192
192
192
220
220
220
252
252
252
252
252
252
252
252
252
252
252
252
220
220
220
208
208
208
192
192
192
180
180
180
168
168
168
152
152
152
140
140
140
124
124
124
112
112
112
100
100
100
84
84
84
72
72
72
84
84
84
56
56
56
44
44
44
44
44
44
32
32
32
56
56
56
0
0
0
0
0
0
0
0
0
0
0
0
0
0
0
0
0
0
0
0
0
0
0
0
0
0
0
0
0
0
0
0
0
0
0
0
0
0
0
0
0
0
0
0
0
0
0
0
0
0
0
0
0
0
0
0
0
0
0
0
0
0
0
0
0
0
0
0
0
0
0
0
0
0
0
0
0
0
0
0
0
0
0
0
0
0
0
0
0
0
0
0
0
0
0
0
0
0
0
0
0
0
0
0
0
0
0
0
0
0
0
0
0
0
0
0
0
0
0
0
192
192
192
220
220
220
252
252
252
252
252
252
252
252
252
236
236
236
220
220
220
208
208
208
208
208
208
180
180
180
168
168
168
152
152
152
124
124
124
140
140
140
112
112
112
100
100
100
84
84
84
72
72
72
64
64
64
56
56
56
44
44
44
32
32
32
32
32
32
44
44
44
0
0
0
0
0
0
0
0
0
0
0
0
0
0
0
0
0
0
0
0
0
0
0
0
0
0
0
0
0
0
0
0
0
0
0
0
0
0
0
0
0
0
0
0
0
0
0
0
0
0
0
0
0
0
0
0
0
0
0
0
0
0
0
0
0
0
0
0
0
0
0
0
0
0
0
0
0
0
0
0
0
0
0
0
0
0
0
0
0
0
0
0
0
0
0
0
0
0
0
0
0
0
0
0
0
0
0
0
0
0
0
0
0
0
0
0
0
0
0
0
152
152
152
192
192
192
252
252
252
252
252
252
252
252
252
236
236
236
220
220
220
180
180
180
236
236
236
180
180
180
168
168
168
152
152
152
140
140
140
112
112
112
124
124
124
100
100
100
84
84
84
72
72
72
64
64
64
56
56
56
44
44
44
32
32
32
32
32
32
44
44
44
0
0
0
0
0
0
0
0
0
0
0
0
0
0
0
0
0
0
0
0
0
0
0
0
0
0
0
0
0
0
0
0
0
0
0
0
0
0
0
0
0
0
0
0
0
0
0
0
0
0
0
0
0
0
0
0
0
0
0
0
0
0
0
0
0
0
0
0
0
0
0
0
0
0
0
0
0
0
0
0
0
0
0
0
0
0
0
0
0
0
0
0
0
0
0
0
0
0
0
0
0
0
0
0
0
0
0
0
0
0
0
0
0
0
0
0
0
0
0
0
152
152
152
192
192
192
252
252
252
252
252
252
252
252
252
236
236
236
220
220
220
192
192
192
236
236
236
180
180
180
168
168
168
152
152
152
140
140
140
124
124
124
112
112
112
100
100
100
84
84
84
72
72
72
64
64
64
44
44
44
56
56
56
32
32
32
32
32
32
44
44
44
0
0
0
0
0
0
0
0
0
0
0
0
0
0
0
0
0
0
0
0
0
0
0
0
0
0
0
0
0
0
0
0
0
0
0
0
0
0
0
0
0
0
0
0
0
0
0
0
0
0
0
0
0
0
0
0
0
0
0
0
0
0
0
0
0
0
0
0
0
0
0
0
0
0
0
0
0
0
0
0
0
0
0
0
0
0
0
0
0
0
0
0
0
0
0
0
0
0
0
0
0
0
0
0
0
0
0
0
0
0
0
0
0
0
0
0
0
0
0
0
152
152
152
192
192
192
252
252
252
252
252
252
252
252
252
236
236
236
220
220
220
208
208
208
208
208
208
180
180
180
168
168
168
152
152
152
140
140
140
124
124
124
112
112
112
84
84
84
100
100
100
72
72
72
64
64
64
56
56
56
44
44
44
0
0
0
32
32
32
44
44
44
0
0
0
0
0
0
0
0
0
0
0
0
0
0
0
0
0
0
0
0
0
0
0
0
0
0
0
0
0
0
0
0
0
0
0
0
0
0
0
0
0
0
0
0
0
0
0
0
0
0
0
0
0
0
0
0
0
0
0
0
0
0
0
0
0
0
0
0
0
0
0
0
0
0
0
0
0
0
0
0
0
0
0
0
0
0
0
0
0
0
0
0
0
0
0
0
0
0
0
0
0
0
0
0
0
0
0
0
0
0
0
0
0
0
0
0
0
0
0
0
152
152
152
192
192
192
252
252
252
252
252
252
252
252
252
236
236
236
220
220
220
208
208
208
192
192
192
180
180
180
168
168
168
152
152
152
140
140
140
124
124
124
112
112
112
100
100
100
84
84
84
72
72
72
44
44
44
72
72
72
44
44
44
32
32
32
32
32
32
44
44
44
0
0
0
0
0
0
0
0
0
0
0
0
0
0
0
0
0
0
0
0
0
0
0
0
0
0
0
0
0
0
0
0
0
0
0
0
0
0
0
0
0
0
0
0
0
0
0
0
0
0
0
0
0
0
0
0
0
0
0
0
0
0
0
0
0
0
0
0
0
0
0
0
0
0
0
0
0
0
0
0
0
0
0
0
0
0
0
0
0
0
0
0
0
0
0
0
0
0
0
0
0
0
0
0
0
0
0
0
0
0
0
0
0
0
0
0
0
0
0
0
152
152
152
168
168
168
252
252
252
252
252
252
252
252
252
236
236
236
180
180
180
252
252
252
192
192
192
180
180
180
168
168
168
152
152
152
140
140
140
124
124
124
112
112
112
100
100
100
84
84
84
72
72
72
64
64
64
56
56
56
44
44
44
32
32
32
32
32
32
44
44
44
0
0
0
0
0
0
0
0
0
0
0
0
0
0
0
0
0
0
0
0
0
0
0
0
0
0
0
0
0
0
0
0
0
0
0
0
0
0
0
0
0
0
0
0
0
0
0
0
0
0
0
0
0
0
0
0
0
0
0
0
0
0
0
0
0
0
0
0
0
0
0
0
0
0
0
0
0
0
0
0
0
0
0
0
0
0
0
0
0
0
0
0
0
0
0
0
0
0
0
0
0
0
0
0
0
0
0
0
0
0
0
0
0
0
0
0
0
0
0
0
152
152
152
220
220
220
252
252
252
252
252
252
252
252
252
236
236
236
220
220
220
208
208
208
192
192
192
180
180
180
168
168
168
152
152
152
124
124
124
152
152
152
112
112
112
100
100
100
84
84
84
72
72
72
56
56
56
64
64
64
44
44
44
32
32
32
32
32
32
44
44
44
0
0
0
0
0
0
0
0
0
0
0
0
0
0
0
0
0
0
0
0
0
0
0
0
0
0
0
0
0
0
0
0
0
0
0
0
0
0
0
0
0
0
0
0
0
0
0
0
0
0
0
0
0
0
0
0
0
0
0
0
0
0
0
0
0
0
0
0
0
0
0
0
0
0
0
0
0
0
0
0
0
0
0
0
0
0
0
0
0
0
0
0
0
0
0
0
0
0
0
0
0
0
0
0
0
0
0
0
0
0
0
0
0
0
0
0
0
0
0
0
152
152
152
192
192
192
252
252
252
252
252
252
252
252
252
236
236
236
220
220
220
180
180
180
220
220
220
180
180
180
168
168
168
152
152
152
140
140
140
124
124
124
112
112
112
100
100
100
72
72
72
84
84
84
64
64
64
56
56
56
44
44
44
32
32
32
32
32
32
44
44
44
0
0
0
0
0
0
0
0
0
0
0
0
0
0
0
0
0
0
0
0
0
0
0
0
0
0
0
0
0
0
0
0
0
0
0
0
0
0
0
0
0
0
0
0
0
0
0
0
0
0
0
0
0
0
0
0
0
0
0
0
0
0
0
0
0
0
0
0
0
0
0
0
0
0
0
0
0
0
0
0
0
0
0
0
0
0
0
0
0
0
0
0
0
0
0
0
0
0
0
0
0
0
0
0
0
0
0
0
0
0
0
0
0
0
0
0
0
0
0
0
152
152
152
192
192
192
252
252
252
252
252
252
252
252
252
236
236
236
220
220
220
208
208
208
192
192
192
180
180
180
168
168
168
140
140
140
152
152
152
124
124
124
112
112
112
100
100
100
84
84
84
72
72
72
64
64
64
44
44
44
56
56
56
32
32
32
32
32
32
44
44
44
0
0
0
0
0
0
0
0
0
0
0
0
0
0
0
0
0
0
0
0
0
0
0
0
0
0
0
0
0
0
0
0
0
0
0
0
0
0
0
0
0
0
0
0
0
0
0
0
0
0
0
0
0
0
0
0
0
0
0
0
0
0
0
0
0
0
0
0
0
0
0
0
0
0
0
0
0
0
0
0
0
0
0
0
0
0
0
0
0
0
0
0
0
0
0
0
0
0
0
0
0
0
0
0
0
0
0
0
0
0
0
0
0
0
0
0
0
0
0
0
124
124
124
152
152
152
220
220
220
236
236
236
220
220
220
208
208
208
192
192
192
180
180
180
168
168
168
152
152
152
140
140
140
124
124
124
112
112
112
100
100
100
84
84
84
72
72
72
64
64
64
56
56
56
44
44
44
32
32
32
32
32
32
32
32
32
32
32
32
32
32
32
0
0
0
0
0
0
0
0
0
0
0
0
0
0
0
0
0
0
0
0
0
0
0
0
0
0
0
0
0
0
0
0
0
0
0
0
0
0
0
0
0
0
0
0
0
0
0
0
0
0
0
0
0
0
0
0
0
0
0
0
0
0
0
0
0
0
0
0
0
0
0
0
0
0
0
0
0
0
0
0
0
0
0
0
0
0
0
0
0
0
0
0
0
0
0
0
0
0
0
0
0
0
0
0
0
0
0
0
0
0
0
0
0
0
0
0
0
0
0
0
0
0
0
124
124
124
152
152
152
168
168
168
152
152
152
140
140
140
140
140
140
124
124
124
124
124
124
112
112
112
112
112
112
100
100
100
100
100
100
84
84
84
72
72
72
64
64
64
56
56
56
44
44
44
32
32
32
32
32
32
0
0
0
0
0
0
0
0
0
0
0
0
0
0
0
0
0
0
0
0
0
0
0
0
0
0
0
0
0
0
0
0
0
0
0
0
0
0
0
0
0
0
0
0
0
0
0
0
0
0
0
0
0
0
0
0
0
0
0
0
0
0
0
0
0
0
0
0
0
0
0
0
0
0
0
0
0
0
0
0
0
0
0
0
0
0
0
0
0
0
0
0
0
0
0
0
0
0
0
0
0
0
0
0
0
0
0
0
0
0
0
0
0
0
0
0
0
0
0
0
0
0
0
0
0
0
0
0
0
0
0
0
168
168
168
208
208
208
252
252
252
252
252
252
252
252
252
252
252
252
252
252
252
192
192
192
220
220
220
208
208
208
192
192
192
180
180
180
168
168
168
152
152
152
140
140
140
124
124
124
112
112
112
100
100
100
84
84
84
72
72
72
56
56
56
44
44
44
44
44
44
56
56
56
0
0
0
0
0
0
0
0
0
0
0
0
0
0
0
0
0
0
0
0
0
0
0
0
0
0
0
0
0
0
0
0
0
0
0
0
0
0
0
0
0
0
0
0
0
0
0
0
0
0
0
0
0
0
0
0
0
0
0
0
0
0
0
0
0
0
0
0
0
0
0
0
0
0
0
0
0
0
0
0
0
0
0
0
0
0
0
0
0
0
0
0
0
0
0
0
0
0
0
0
0
0
0
0
0
0
0
0
0
0
0
0
0
0
0
0
0
0
0
0
152
152
152
192
192
192
252
252
252
252
252
252
252
252
252
236
236
236
220
220
220
236
236
236
192
192
192
180
180
180
168
168
168
152
152
152
140
140
140
124
124
124
112
112
112
100
100
100
84
84
84
72
72
72
64
64
64
56
56
56
44
44
44
32
32
32
32
32
32
44
44
44
0
0
0
0
0
0
0
0
0
0
0
0
0
0
0
0
0
0
0
0
0
0
0
0
0
0
0
0
0
0
0
0
0
0
0
0
0
0
0
0
0
0
0
0
0
0
0
0
0
0
0
0
0
0
0
0
0
0
0
0
0
0
0
0
0
0
0
0
0
0
0
0
0
0
0
0
0
0
0
0
0
0
0
0
0
0
0
0
0
0
0
0
0
0
0
0
0
0
0
0
0
0
0
0
0
0
0
0
0
0
0
0
0
0
0
0
0
0
0
0
152
152
152
192
192
192
252
252
252
252
252
252
252
252
252
236
236
236
220
220
220
208
208
208
192
192
192
180
180
180
168
168
168
140
140
140
152
152
152
124
124
124
100
100
100
124
124
124
84
84
84
72
72
72
64
64
64
44
44
44
64
64
64
0
0
0
32
32
32
44
44
44
0
0
0
0
0
0
0
0
0
0
0
0
0
0
0
0
0
0
0
0
0
0
0
0
0
0
0
0
0
0
0
0
0
0
0
0
0
0
0
0
0
0
0
0
0
0
0
0
0
0
0
0
0
0
0
0
0
0
0
0
0
0
0
0
0
0
0
0
0
0
0
0
0
0
0
0
0
0
0
0
0
0
0
0
0
0
0
0
0
0
0
0
0
0
0
0
0
0
0
0
0
0
0
0
0
0
0
0
0
0
0
0
0
0
0
0
0
0
0
0
152
152
152
192
192
192
252
252
252
252
252
252
252
252
252
236
236
236
220
220
220
180
180
180
236
236
236
180
180
180
168
168
168
152
152
152
140
140
140
124
124
124
112
112
112
100
100
100
84
84
84
64
64
64
72
72
72
56
56
56
44
44
44
32
32
32
32
32
32
44
44
44
0
0
0
0
0
0
0
0
0
0
0
0
0
0
0
0
0
0
0
0
0
0
0
0
0
0
0
0
0
0
0
0
0
0
0
0
0
0
0
0
0
0
0
0
0
0
0
0
0
0
0
0
0
0
0
0
0
0
0
0
0
0
0
0
0
0
0
0
0
0
0
0
0
0
0
0
0
0
0
0
0
0
0
0
0
0
0
0
0
0
0
0
0
0
0
0
0
0
0
0
0
0
0
0
0
0
0
0
0
0
0
0
0
0
0
0
0
0
0
0
152
152
152
192
192
192
252
252
252
252
252
252
220
220
220
252
252
252
220
220
220
208
208
208
192
192
192
180
180
180
168
168
168
152
152
152
140
140
140
124
124
124
112
112
112
100
100
100
72
72
72
84
84
84
64
64
64
56
56
56
32
32
32
44
44
44
32
32
32
44
44
44
0
0
0
0
0
0
0
0
0
0
0
0
0
0
0
0
0
0
0
0
0
0
0
0
0
0
0
0
0
0
0
0
0
0
0
0
0
0
0
0
0
0
0
0
0
0
0
0
0
0
0
0
0
0
0
0
0
0
0
0
0
0
0
0
0
0
0
0
0
0
0
0
0
0
0
0
0
0
0
0
0
0
0
0
0
0
0
0
0
0
0
0
0
0
0
0
0
0
0
0
0
0
0
0
0
0
0
0
0
0
0
0
0
0
0
0
0
0
0
0
152
152
152
192
192
192
252
252
252
236
236
236
252
252
252
236
236
236
220
220
220
180
180
180
192
192
192
168
168
168
180
180
180
152
152
152
124
124
124
140
140
140
112
112
112
100
100
100
84
84
84
84
84
84
64
64
64
56
56
56
44
44
44
32
32
32
32
32
32
32
32
32
0
0
0
0
0
0
0
0
0
0
0
0
0
0
0
0
0
0
0
0
0
0
0
0
0
0
0
0
0
0
0
0
0
0
0
0
0
0
0
0
0
0
0
0
0
0
0
0
0
0
0
0
0
0
0
0
0
0
0
0
0
0
0
0
0
0
0
0
0
0
0
0
0
0
0
0
0
0
0
0
0
0
0
0
0
0
0
0
0
0
0
0
0
0
0
0
0
0
0
0
0
0
0
0
0
0
0
0
0
0
0
0
0
0
0
0
0
0
0
0
152
152
152
192
192
192
252
252
252
252
252
252
252
252
252
236
236
236
180
180
180
252
252
252
192
192
192
180
180
180
168
168
168
152
152
152
140
140
140
124
124
124
112
112
112
100
100
100
84
84
84
72
72
72
56
56
56
64
64
64
44
44
44
32
32
32
32
32
32
44
44
44
0
0
0
0
0
0
0
0
0
0
0
0
0
0
0
0
0
0
0
0
0
0
0
0
0
0
0
0
0
0
0
0
0
0
0
0
0
0
0
0
0
0
0
0
0
0
0
0
0
0
0
0
0
0
0
0
0
0
0
0
0
0
0
0
0
0
0
0
0
0
0
0
0
0
0
0
0
0
0
0
0
0
0
0
0
0
0
0
0
0
0
0
0
0
0
0
0
0
0
0
0
0
0
0
0
0
0
0
0
0
0
0
0
0
0
0
0
0
0
0
152
152
152
192
192
192
252
252
252
252
252
252
252
252
252
236
236
236
252
252
252
208
208
208
192
192
192
180
180
180
168
168
168
152
152
152
140
140
140
112
112
112
124
124
124
100
100
100
84
84
84
72
72
72
64
64
64
56
56
56
44
44
44
32
32
32
32
32
32
44
44
44
0
0
0
0
0
0
0
0
0
0
0
0
0
0
0
0
0
0
0
0
0
0
0
0
0
0
0
0
0
0
0
0
0
0
0
0
0
0
0
0
0
0
0
0
0
0
0
0
0
0
0
0
0
0
0
0
0
0
0
0
0
0
0
0
0
0
0
0
0
0
0
0
0
0
0
0
0
0
0
0
0
0
0
0
0
0
0
0
0
0
0
0
0
0
0
0
0
0
0
0
0
0
0
0
0
0
0
0
0
0
0
0
0
0
0
0
0
0
0
0
152
152
152
192
192
192
252
252
252
252
252
252
220
220
220
252
252
252
220
220
220
208
208
208
192
192
192
180
180
180
168
168
168
140
140
140
152
152
152
124
124
124
112
112
112
100
100
100
84
84
84
64
64
64
72
72
72
44
44
44
56
56
56
32
32
32
32
32
32
44
44
44
0
0
0
0
0
0
0
0
0
0
0
0
0
0
0
0
0
0
0
0
0
0
0
0
0
0
0
0
0
0
0
0
0
0
0
0
0
0
0
0
0
0
0
0
0
0
0
0
0
0
0
0
0
0
0
0
0
0
0
0
0
0
0
0
0
0
0
0
0
0
0
0
0
0
0
0
0
0
0
0
0
0
0
0
0
0
0
0
0
0
0
0
0
0
0
0
0
0
0
0
0
0
0
0
0
0
0
0
0
0
0
0
0
0
0
0
0
0
0
0
152
152
152
192
192
192
252
252
252
252
252
252
252
252
252
236
236
236
220
220
220
208
208
208
180
180
180
220
220
220
168
168
168
152
152
152
140
140
140
124
124
124
112
112
112
84
84
84
100
100
100
72
72
72
64
64
64
56
56
56
44
44
44
32
32
32
32
32
32
44
44
44
0
0
0
0
0
0
0
0
0
0
0
0
0
0
0
0
0
0
0
0
0
0
0
0
0
0
0
0
0
0
0
0
0
0
0
0
0
0
0
0
0
0
0
0
0
0
0
0
0
0
0
0
0
0
0
0
0
0
0
0
0
0
0
0
0
0
0
0
0
0
0
0
0
0
0
0
0
0
0
0
0
0
0
0
0
0
0
0
0
0
0
0
0
0
0
0
0
0
0
0
0
0
0
0
0
0
0
0
0
0
0
0
0
0
0
0
0
0
0
0
152
152
152
192
192
192
252
252
252
252
252
252
252
252
252
236
236
236
208
208
208
236
236
236
192
192
192
180
180
180
168
168
168
152
152
152
140
140
140
112
112
112
124
124
124
100
100
100
84
84
84
72
72
72
64
64
64
44
44
44
56
56
56
32
32
32
32
32
32
44
44
44
0
0
0
0
0
0
0
0
0
0
0
0
0
0
0
0
0
0
0
0
0
0
0
0
0
0
0
0
0
0
0
0
0
0
0
0
0
0
0
0
0
0
0
0
0
0
0
0
0
0
0
0
0
0
0
0
0
0
0
0
0
0
0
0
0
0
0
0
0
0
0
0
0
0
0
0
0
0
0
0
0
0
0
0
0
0
0
0
0
0
0
0
0
0
0
0
0
0
0
0
0
0
0
0
0
0
0
0
0
0
0
0
0
0
0
0
0
0
0
0
124
124
124
192
192
192
236
236
236
252
252
252
236
236
236
236
236
236
220
220
220
208
208
208
192
192
192
180
180
180
152
152
152
152
152
152
140
140
140
124
124
124
112
112
112
100
100
100
72
72
72
84
84
84
64
64
64
56
56
56
44
44
44
32
32
32
32
32
32
56
56
56
0
0
0
0
0
0
0
0
0
0
0
0
0
0
0
0
0
0
0
0
0
0
0
0
0
0
0
0
0
0
0
0
0
0
0
0
0
0
0
0
0
0
0
0
0
0
0
0
0
0
0
0
0
0
0
0
0
0
0
0
0
0
0
0
0
0
0
0
0
0
0
0
0
0
0
0
0
0
0
0
0
0
0
0
0
0
0
0
0
0
0
0
0
0
0
0
0
0
0
0
0
0
0
0
0
0
0
0
0
0
0
0
0
0
0
0
0
0
0
0
0
0
0
168
168
168
208
208
208
220
220
220
192
192
192
192
192
192
192
192
192
180
180
180
168
168
168
152
152
152
112
112
112
152
152
152
112
112
112
100
100
100
84
84
84
72
72
72
64
64
64
56
56
56
44
44
44
32
32
32
32
32
32
32
32
32
32
32
32
0
0
0
0
0
0
0
0
0
0
0
0
0
0
0
0
0
0
0
0
0
0
0
0
0
0
0
0
0
0
0
0
0
0
0
0
0
0
0
0
0
0
0
0
0
0
0
0
0
0
0
0
0
0
0
0
0
0
0
0
0
0
0
0
0
0
0
0
0
0
0
0
0
0
0
0
0
0
0
0
0
0
0
0
0
0
0
0
0
0
0
0
0
0
0
0
0
0
0
0
0
0
0
0
0
0
0
0
0
0
0
0
0
0
0
0
0
0
0
0
0
0
0
168
168
168
236
236
236
180
180
180
192
192
192
208
208
208
192
192
192
152
152
152
140
140
140
124
124
124
112
112
112
84
84
84
100
100
100
100
100
100
84
84
84
72
72
72
64
64
64
56
56
56
44
44
44
32
32
32
32
32
32
32
32
32
32
32
32
32
32
32
32
32
32
0
0
0
0
0
0
0
0
0
0
0
0
0
0
0
0
0
0
0
0
0
0
0
0
0
0
0
0
0
0
0
0
0
0
0
0
0
0
0
0
0
0
0
0
0
0
0
0
0
0
0
0
0
0
0
0
0
0
0
0
0
0
0
0
0
0
0
0
0
0
0
0
0
0
0
0
0
0
0
0
0
0
0
0
0
0
0
0
0
0
0
0
0
0
0
0
0
0
0
0
0
0
0
0
0
0
0
0
0
0
0
0
0
0
0
0
0
0
0
0
152
152
152
208
208
208
252
252
252
236
236
236
252
252
252
252
252
252
252
252
252
236
236
236
220
220
220
208
208
208
192
192
192
180
180
180
140
140
140
152
152
152
140
140
140
124
124
124
112
112
112
100
100
100
84
84
84
72
72
72
56
56
56
32
32
32
44
44
44
44
44
44
0
0
0
0
0
0
0
0
0
0
0
0
0
0
0
0
0
0
0
0
0
0
0
0
0
0
0
0
0
0
0
0
0
0
0
0
0
0
0
0
0
0
0
0
0
0
0
0
0
0
0
0
0
0
0
0
0
0
0
0
0
0
0
0
0
0
0
0
0
0
0
0
0
0
0
0
0
0
0
0
0
0
0
0
0
0
0
0
0
0
0
0
0
0
0
0
0
0
0
0
0
0
0
0
0
0
0
0
0
0
0
0
0
0
0
0
0
0
0
0
152
152
152
192
192
192
252
252
252
252
252
252
252
252
252
236
236
236
220
220
220
208
208
208
192
192
192
180
180
180
168
168
168
152
152
152
124
124
124
152
152
152
112
112
112
100
100
100
84
84
84
72
72
72
64
64
64
44
44
44
64
64
64
32
32
32
32
32
32
44
44
44
0
0
0
0
0
0
0
0
0
0
0
0
0
0
0
0
0
0
0
0
0
0
0
0
0
0
0
0
0
0
0
0
0
0
0
0
0
0
0
0
0
0
0
0
0
0
0
0
0
0
0
0
0
0
0
0
0
0
0
0
0
0
0
0
0
0
0
0
0
0
0
0
0
0
0
0
0
0
0
0
0
0
0
0
0
0
0
0
0
0
0
0
0
0
0
0
0
0
0
0
0
0
0
0
0
0
0
0
0
0
0
0
0
0
0
0
0
0
0
0
152
152
152
192
192
192
252
252
252
252
252
252
252
252
252
208
208
208
252
252
252
208
208
208
192
192
192
152
152
152
220
220
220
152
152
152
140
140
140
124
124
124
112
112
112
100
100
100
84
84
84
72
72
72
64
64
64
56
56
56
44
44
44
32
32
32
32
32
32
44
44
44
0
0
0
0
0
0
0
0
0
0
0
0
0
0
0
0
0
0
0
0
0
0
0
0
0
0
0
0
0
0
0
0
0
0
0
0
0
0
0
0
0
0
0
0
0
0
0
0
0
0
0
0
0
0
0
0
0
0
0
0
0
0
0
0
0
0
0
0
0
0
0
0
0
0
0
0
0
0
0
0
0
0
0
0
0
0
0
0
0
0
0
0
0
0
0
0
0
0
0
0
0
0
0
0
0
0
0
0
0
0
0
0
0
0
0
0
0
0
0
0
152
152
152
192
192
192
252
252
252
252
252
252
252
252
252
236
236
236
220
220
220
208
208
208
192
192
192
180
180
180
168
168
168
152
152
152
124
124
124
152
152
152
112
112
112
100
100
100
72
72
72
84
84
84
64
64
64
56
56
56
44
44
44
32
32
32
32
32
32
44
44
44
0
0
0
0
0
0
0
0
0
0
0
0
0
0
0
0
0
0
0
0
0
0
0
0
0
0
0
0
0
0
0
0
0
0
0
0
0
0
0
0
0
0
0
0
0
0
0
0
0
0
0
0
0
0
0
0
0
0
0
0
0
0
0
0
0
0
0
0
0
0
0
0
0
0
0
0
0
0
0
0
0
0
0
0
0
0
0
0
0
0
0
0
0
0
0
0
0
0
0
0
0
0
0
0
0
0
0
0
0
0
0
0
0
0
0
0
0
0
0
0
152
152
152
192
192
192
252
252
252
252
252
252
252
252
252
236
236
236
220
220
220
208
208
208
192
192
192
180
180
180
168
168
168
152
152
152
140
140
140
124
124
124
112
112
112
84
84
84
100
100
100
72
72
72
64
64
64
56
56
56
44
44
44
32
32
32
32
32
32
44
44
44
0
0
0
0
0
0
0
0
0
0
0
0
0
0
0
0
0
0
0
0
0
0
0
0
0
0
0
0
0
0
0
0
0
0
0
0
0
0
0
0
0
0
0
0
0
0
0
0
0
0
0
0
0
0
0
0
0
0
0
0
0
0
0
0
0
0
0
0
0
0
0
0
0
0
0
0
0
0
0
0
0
0
0
0
0
0
0
0
0
0
0
0
0
0
0
0
0
0
0
0
0
0
0
0
0
0
0
0
0
0
0
0
0
0
0
0
0
0
0
0
152
152
152
192
192
192
252
252
252
252
252
252
252
252
252
236
236
236
220
220
220
208
208
208
192
192
192
152
152
152
192
192
192
152
152
152
140
140
140
124
124
124
100
100
100
112
112
112
84
84
84
72
72
72
64
64
64
56
56
56
44
44
44
32
32
32
32
32
32
44
44
44
0
0
0
0
0
0
0
0
0
0
0
0
0
0
0
0
0
0
0
0
0
0
0
0
0
0
0
0
0
0
0
0
0
0
0
0
0
0
0
0
0
0
0
0
0
0
0
0
0
0
0
0
0
0
0
0
0
0
0
0
0
0
0
0
0
0
0
0
0
0
0
0
0
0
0
0
0
0
0
0
0
0
0
0
0
0
0
0
0
0
0
0
0
0
0
0
0
0
0
0
0
0
0
0
0
0
0
0
0
0
0
0
0
0
0
0
0
0
0
0
152
152
152
192
192
192
252
252
252
252
252
252
252
252
252
236
236
236
220
220
220
208
208
208
168
168
168
220
220
220
168
168
168
152
152
152
140
140
140
124
124
124
112
112
112
100
100
100
84
84
84
64
64
64
84
84
84
56
56
56
44
44
44
32
32
32
32
32
32
44
44
44
0
0
0
0
0
0
0
0
0
0
0
0
0
0
0
0
0
0
0
0
0
0
0
0
0
0
0
0
0
0
0
0
0
0
0
0
0
0
0
0
0
0
0
0
0
0
0
0
0
0
0
0
0
0
0
0
0
0
0
0
0
0
0
0
0
0
0
0
0
0
0
0
0
0
0
0
0
0
0
0
0
0
0
0
0
0
0
0
0
0
0
0
0
0
0
0
0
0
0
0
0
0
0
0
0
0
0
0
0
0
0
0
0
0
0
0
0
0
0
0
152
152
152
192
192
192
236
236
236
252
252
252
252
252
252
208
208
208
252
252
252
208
208
208
192
192
192
180
180
180
168
168
168
152
152
152
140
140
140
124
124
124
112
112
112
100
100
100
84
84
84
72
72
72
64
64
64
56
56
56
44
44
44
32
32
32
32
32
32
44
44
44
0
0
0
0
0
0
0
0
0
0
0
0
0
0
0
0
0
0
0
0
0
0
0
0
0
0
0
0
0
0
0
0
0
0
0
0
0
0
0
0
0
0
0
0
0
0
0
0
0
0
0
0
0
0
0
0
0
0
0
0
0
0
0
0
0
0
0
0
0
0
0
0
0
0
0
0
0
0
0
0
0
0
0
0
0
0
0
0
0
0
0
0
0
0
0
0
0
0
0
0
0
0
0
0
0
0
0
0
0
0
0
0
0
0
0
0
0
0
0
0
152
152
152
192
192
192
236
236
236
252
252
252
252
252
252
208
208
208
252
252
252
208
208
208
192
192
192
180
180
180
168
168
168
152
152
152
140
140
140
124
124
124
112
112
112
100
100
100
72
72
72
84
84
84
64
64
64
56
56
56
44
44
44
32
32
32
32
32
32
44
44
44
0
0
0
0
0
0
0
0
0
0
0
0
0
0
0
0
0
0
0
0
0
0
0
0
0
0
0
0
0
0
0
0
0
0
0
0
0
0
0
0
0
0
0
0
0
0
0
0
0
0
0
0
0
0
0
0
0
0
0
0
0
0
0
0
0
0
0
0
0
0
0
0
0
0
0
0
0
0
0
0
0
0
0
0
0
0
0
0
0
0
0
0
0
0
0
0
0
0
0
0
0
0
0
0
0
0
0
0
0
0
0
0
0
0
0
0
0
180
180
180
220
220
220
192
192
192
252
252
252
252
252
252
252
252
252
236
236
236
220
220
220
208
208
208
192
192
192
180
180
180
152
152
152
180
180
180
140
140
140
124
124
124
112
112
112
100
100
100
84
84
84
72
72
72
64
64
64
56
56
56
44
44
44
56
56
56
32
32
32
32
32
32
44
44
44
0
0
0
0
0
0
0
0
0
0
0
0
0
0
0
0
0
0
0
0
0
0
0
0
0
0
0
0
0
0
0
0
0
0
0
0
0
0
0
0
0
0
0
0
0
0
0
0
0
0
0
0
0
0
0
0
0
0
0
0
0
0
0
0
0
0
0
0
0
0
0
0
0
0
0
0
0
0
0
0
0
0
0
0
0
0
0
0
0
0
0
0
0
0
0
0
0
0
0
0
0
0
0
0
0
0
0
0
0
0
0
180
180
180
236
236
236
236
236
236
252
252
252
252
252
252
252
252
252
252
252
252
236
236
236
220
220
220
208
208
208
192
192
192
180
180
180
168
168
168
152
152
152
140
140
140
124
124
124
112
112
112
100
100
100
84
84
84
72
72
72
64
64
64
44
44
44
56
56
56
44
44
44
32
32
32
32
32
32
32
32
32
44
44
44
44
44
44
0
0
0
0
0
0
0
0
0
0
0
0
0
0
0
0
0
0
0
0
0
0
0
0
0
0
0
0
0
0
0
0
0
0
0
0
0
0
0
0
0
0
0
0
0
0
0
0
0
0
0
0
0
0
0
0
0
0
0
0
0
0
0
0
0
0
0
0
0
0
0
0
0
0
0
0
0
0
0
0
0
0
0
0
0
0
0
0
0
0
0
0
0
0
0
0
0
0
0
192
192
192
192
192
192
252
252
252
236
236
236
252
252
252
252
252
252
252
252
252
236
236
236
236
236
236
252
252
252
252
252
252
220
220
220
220
220
220
208
208
208
192
192
192
192
192
192
168
168
168
168
168
168
152
152
152
140
140
140
124
124
124
112
112
112
100
100
100
84
84
84
64
64
64
56
56
56
44
44
44
32
32
32
32
32
32
32
32
32
44
44
44
44
44
44
44
44
44
64
64
64
72
72
72
76
76
76
84
84
84
84
84
84
92
92
92
92
92
92
100
100
100
100
100
100
0
0
0
0
0
0
0
0
0
0
0
0
0
0
0
0
0
0
0
0
0
0
0
0
0
0
0
0
0
0
0
0
0
0
0
0
0
0
0
0
0
0
0
0
0
0
0
0
0
0
0
0
0
0
0
0
0
0
0
0
0
0
0
192
192
192
220
220
220
220
220
220
252
252
252
236
236
236
252
252
252
252
252
252
236
236
236
236
236
236
236
236
236
220
220
220
220
220
220
208
208
208
208
208
208
192
192
192
192
192
192
180
180
180
180
180
180
168
168
168
152
152
152
140
140
140
124
124
124
112
112
112
100
100
100
84
84
84
72
72
72
64
64
64
44
44
44
56
56
56
32
32
32
32
32
32
44
44
44
44
44
44
44
44
44
56
56
56
56
56
56
64
64
64
72
72
72
72
72
72
76
76
76
84
84
84
84
84
84
92
92
92
100
100
100
100
100
100
0
0
0
0
0
0
0
0
0
0
0
0
0
0
0
0
0
0
0
0
0
0
0
0
0
0
0
0
0
0
0
0
0
0
0
0
0
0
0
0
0
0
0
0
0
0
0
0
0
0
0
0
0
0
0
0
0
220
220
220
220
220
220
236
236
236
236
236
236
252
252
252
252
252
252
252
252
252
236
236
236
236
236
236
208
208
208
208
208
208
208
208
208
192
192
192
192
192
192
180
180
180
180
180
180
168
168
168
168
168
168
140
140
140
168
168
168
124
124
124
124
124
124
112
112
112
100
100
100
100
100
100
84
84
84
64
64
64
72
72
72
44
44
44
44
44
44
32
32
32
32
32
32
44
44
44
44
44
44
56
56
56
56
56
56
56
56
56
56
56
56
64
64
64
72
72
72
72
72
72
76
76
76
84
84
84
92
92
92
92
92
92
100
100
100
0
0
0
0
0
0
0
0
0
0
0
0
0
0
0
0
0
0
0
0
0
0
0
0
0
0
0
0
0
0
0
0
0
0
0
0
0
0
0
0
0
0
0
0
0
0
0
0
0
0
0
0
0
0
220
220
220
236
236
236
236
236
236
252
252
252
252
252
252
252
252
252
252
252
252
252
252
252
252
252
252
236
236
236
220
220
220
208
208
208
192
192
192
192
192
192
180
180
180
180
180
180
168
168
168
168
168
168
152
152
152
140
140
140
124
124
124
124
124
124
112
112
112
100
100
100
100
100
100
112
112
112
100
100
100
76
76
76
76
76
76
56
56
56
44
44
44
32
32
32
44
44
44
44
44
44
56
56
56
56
56
56
56
56
56
56
56
56
64
64
64
72
72
72
72
72
72
76
76
76
84
84
84
92
92
92
92
92
92
100
100
100
0
0
0
0
0
0
0
0
0
0
0
0
0
0
0
0
0
0
0
0
0
0
0
0
0
0
0
0
0
0
0
0
0
0
0
0
0
0
0
0
0
0
0
0
0
0
0
0
0
0
0
0
0
0
0
0
0
236
236
236
252
252
252
252
252
252
252
252
252
252
252
252
236
236
236
236
236
236
236
236
236
252
252
252
252
252
252
252
252
252
220
220
220
220
220
220
208
208
208
192
192
192
192
192
192
180
180
180
180
180
180
168
168
168
152
152
152
152
152
152
140
140
140
124
124
124
124
124
124
112
112
112
92
92
92
64
64
64
92
92
92
56
56
56
56
56
56
32
32
32
44
44
44
56
56
56
56
56
56
56
56
56
64
64
64
64
64
64
72
72
72
76
76
76
76
76
76
84
84
84
92
92
92
92
92
92
100
100
100
0
0
0
0
0
0
0
0
0
0
0
0
0
0
0
0
0
0
0
0
0
0
0
0
0
0
0
0
0
0
0
0
0
0
0
0
0
0
0
0
0
0
0
0
0
0
0
0
0
0
0
0
0
0
0
0
0
0
0
0
0
0
0
192
192
192
252
252
252
252
252
252
236
236
236
236
236
236
236
236
236
220
220
220
220
220
220
220
220
220
208
208
208
208
208
208
208
208
208
192
192
192
180
180
180
208
208
208
180
180
180
168
168
168
152
152
152
152
152
152
140
140
140
124
124
124
140
140
140
112
112
112
100
100
100
92
92
92
72
72
72
64
64
64
56
56
56
56
56
56
44
44
44
64
64
64
64
64
64
64
64
64
72
72
72
72
72
72
72
72
72
76
76
76
84
84
84
92
92
92
92
92
92
100
100
100
0
0
0
0
0
0
0
0
0
0
0
0
0
0
0
0
0
0
0
0
0
0
0
0
0
0
0
0
0
0
0
0
0
0
0
0
0
0
0
0
0
0
0
0
0
0
0
0
0
0
0
0
0
0
0
0
0
0
0
0
0
0
0
0
0
0
0
0
0
0
0
0
0
0
0
168
168
168
168
168
168
220
220
220
220
220
220
208
208
208
208
208
208
208
208
208
192
192
192
192
192
192
192
192
192
180
180
180
180
180
180
168
168
168
168
168
168
152
152
152
152
152
152
140
140
140
140
140
140
124
124
124
112
112
112
112
112
112
100
100
100
84
84
84
72
72
72
64
64
64
64
64
64
72
72
72
84
84
84
92
92
92
92
92
92
92
92
92
100
100
100
100
100
100
100
100
100
100
100
100
100
100
100
100
100
100
0
0
0
0
0
0
0
0
0
0
0
0
0
0
0
0
0
0
0
0
0
0
0
0
0
0
0
0
0
0
0
0
0
0
0
0
0
0
0
0
0
0
0
0
0
0
0
0
0
0
0
0
0
0
0
0
0
0
0
0
0
0
0
0
0
0
0
0
0
0
0
0
0
0
0
0
0
0
0
0
0
0
0
0
0
0
0
0
0
0
0
0
0
0
0
0
168
168
168
168
168
168
168
168
168
168
168
168
140
140
140
140
140
140
140
140
140
140
140
140
140
140
140
140
140
140
140
140
140
112
112
112
112
112
112
112
112
112
112
112
112
100
100
100
84
84
84
64
64
64
64
64
64
72
72
72
84
84
84
92
92
92
100
100
100
100
100
100
0
0
0
0
0
0
0
0
0
0
0
0
0
0
0
0
0
0
0
0
0
0
0
0
0
0
0
0
0
0
0
0
0
0
0
0
0
0
0
0
0
0
0
0
0
