P3
# Created by GIMP version 2.10.30 PNM plug-in
64 64
255
64
48
24
64
48
24
64
48
24
64
48
24
64
48
24
64
48
24
64
48
24
64
48
24
64
48
24
64
48
24
64
48
24
64
48
24
64
48
24
64
48
24
64
48
24
64
48
24
64
48
24
64
48
24
64
48
24
64
48
24
64
48
24
64
48
24
64
48
24
64
48
24
64
48
24
64
48
24
64
48
24
64
48
24
64
48
24
64
48
24
64
48
24
64
48
24
64
48
24
64
48
24
64
48
24
64
48
24
64
48
24
64
48
24
64
48
24
64
48
24
64
48
24
64
48
24
64
48
24
64
48
24
64
48
24
64
48
24
64
48
24
64
48
24
64
48
24
64
48
24
64
48
24
64
48
24
64
48
24
64
48
24
64
48
24
64
48
24
64
48
24
64
48
24
64
48
24
64
48
24
64
48
24
64
48
24
64
48
24
64
48
24
108
72
36
108
72
36
108
72
36
108
72
36
108
72
36
108
72
36
108
72
36
108
72
36
108
72
36
108
72
36
108
72
36
108
72
36
108
72
36
108
72
36
108
72
36
108
72
36
108
72
36
108
72
36
108
72
36
108
72
36
108
72
36
108
72
36
108
72
36
108
72
36
108
72
36
108
72
36
108
72
36
108
72
36
108
72
36
108
72
36
108
72
36
108
72
36
108
72
36
108
72
36
108
72
36
108
72
36
108
72
36
108
72
36
108
72
36
108
72
36
108
72
36
108
72
36
108
72
36
108
72
36
108
72
36
108
72
36
108
72
36
108
72
36
108
72
36
108
72
36
108
72
36
108
72
36
108
72
36
108
72
36
108
72
36
108
72
36
108
72
36
108
72
36
108
72
36
108
72
36
108
72
36
108
72
36
108
72
36
108
72
36
144
92
52
144
92
52
144
92
52
144
92
52
144
92
52
144
92
52
144
92
52
144
92
52
144
92
52
144
92
52
144
92
52
144
92
52
144
92
52
144
92
52
144
92
52
144
92
52
144
92
52
144
92
52
144
92
52
144
92
52
144
92
52
144
92
52
144
92
52
144
92
52
144
92
52
144
92
52
144
92
52
144
92
52
144
92
52
144
92
52
144
92
52
144
92
52
144
92
52
144
92
52
144
92
52
144
92
52
144
92
52
144
92
52
144
92
52
144
92
52
144
92
52
144
92
52
144
92
52
144
92
52
144
92
52
144
92
52
144
92
52
144
92
52
144
92
52
144
92
52
144
92
52
144
92
52
144
92
52
144
92
52
144
92
52
144
92
52
144
92
52
144
92
52
144
92
52
144
92
52
144
92
52
144
92
52
144
92
52
144
92
52
84
60
28
84
60
28
84
60
28
84
60
28
84
60
28
84
60
28
84
60
28
56
44
20
84
60
28
40
32
12
56
44
20
84
60
28
84
60
28
84
60
28
84
60
28
84
60
28
84
60
28
84
60
28
84
60
28
84
60
28
84
60
28
84
60
28
84
60
28
84
60
28
84
60
28
56
44
20
84
60
28
40
32
12
56
44
20
84
60
28
84
60
28
84
60
28
84
60
28
56
44
20
84
60
28
40
32
12
56
44
20
84
60
28
84
60
28
84
60
28
84
60
28
84
60
28
84
60
28
56
44
20
84
60
28
40
32
12
56
44
20
84
60
28
84
60
28
84
60
28
84
60
28
84
60
28
84
60
28
84
60
28
84
60
28
84
60
28
84
60
28
84
60
28
56
44
20
84
60
28
40
32
12
56
44
20
84
60
28
84
60
28
72
56
24
72
56
24
108
72
36
116
76
40
116
76
40
116
76
40
116
76
40
84
60
28
144
92
52
40
32
12
84
60
28
144
92
52
92
64
32
72
56
24
72
56
24
72
56
24
72
56
24
116
76
40
116
76
40
72
56
24
108
72
36
72
56
24
108
72
36
72
56
24
72
56
24
84
60
28
144
92
52
40
32
12
84
60
28
144
92
52
116
76
40
72
56
24
116
76
40
84
60
28
144
92
52
40
32
12
84
60
28
144
92
52
92
64
32
72
56
24
72
56
24
72
56
24
92
64
32
84
60
28
144
92
52
40
32
12
84
60
28
144
92
52
72
56
24
116
76
40
72
56
24
72
56
24
116
76
40
72
56
24
116
76
40
72
56
24
116
76
40
116
76
40
84
60
28
144
92
52
40
32
12
84
60
28
144
92
52
108
72
36
72
56
24
72
56
24
108
72
36
116
76
40
116
76
40
116
76
40
92
64
32
84
60
28
144
92
52
40
32
12
84
60
28
144
92
52
108
72
36
72
56
24
72
56
24
72
56
24
84
60
28
116
76
40
116
76
40
72
56
24
108
72
36
72
56
24
108
72
36
72
56
24
72
56
24
84
60
28
144
92
52
40
32
12
84
60
28
144
92
52
116
76
40
72
56
24
116
76
40
84
60
28
144
92
52
40
32
12
84
60
28
144
92
52
116
76
40
92
64
32
72
56
24
92
64
32
116
76
40
84
60
28
144
92
52
40
32
12
84
60
28
144
92
52
72
56
24
116
76
40
72
56
24
72
56
24
116
76
40
72
56
24
116
76
40
72
56
24
116
76
40
116
76
40
84
60
28
144
92
52
40
32
12
84
60
28
144
92
52
108
72
36
72
56
24
72
56
24
92
64
32
116
76
40
116
76
40
116
76
40
84
60
28
84
60
28
144
92
52
40
32
12
84
60
28
144
92
52
116
76
40
84
60
28
72
56
24
72
56
24
84
60
28
116
76
40
116
76
40
72
56
24
108
72
36
72
56
24
108
72
36
72
56
24
72
56
24
84
60
28
144
92
52
40
32
12
84
60
28
144
92
52
108
72
36
72
56
24
116
76
40
84
60
28
144
92
52
40
32
12
84
60
28
144
92
52
116
76
40
116
76
40
92
64
32
116
76
40
116
76
40
84
60
28
144
92
52
40
32
12
84
60
28
144
92
52
72
56
24
116
76
40
72
56
24
72
56
24
116
76
40
72
56
24
116
76
40
72
56
24
116
76
40
116
76
40
84
60
28
144
92
52
40
32
12
84
60
28
144
92
52
108
72
36
84
60
28
72
56
24
84
60
28
108
72
36
116
76
40
116
76
40
84
60
28
84
60
28
144
92
52
40
32
12
84
60
28
144
92
52
116
76
40
84
60
28
72
56
24
72
56
24
92
64
32
116
76
40
108
72
36
72
56
24
108
72
36
72
56
24
108
72
36
72
56
24
72
56
24
84
60
28
144
92
52
40
32
12
84
60
28
144
92
52
108
72
36
72
56
24
116
76
40
84
60
28
144
92
52
40
32
12
84
60
28
144
92
52
116
76
40
116
76
40
116
76
40
116
76
40
116
76
40
84
60
28
144
92
52
40
32
12
84
60
28
144
92
52
72
56
24
116
76
40
72
56
24
72
56
24
116
76
40
72
56
24
116
76
40
72
56
24
116
76
40
116
76
40
84
60
28
144
92
52
40
32
12
84
60
28
144
92
52
108
72
36
108
72
36
72
56
24
72
56
24
92
64
32
116
76
40
92
64
32
72
56
24
84
60
28
144
92
52
40
32
12
84
60
28
144
92
52
116
76
40
92
64
32
72
56
24
84
60
28
108
72
36
116
76
40
108
72
36
72
56
24
108
72
36
72
56
24
108
72
36
72
56
24
72
56
24
84
60
28
144
92
52
40
32
12
84
60
28
144
92
52
108
72
36
72
56
24
116
76
40
84
60
28
144
92
52
40
32
12
84
60
28
144
92
52
116
76
40
116
76
40
116
76
40
116
76
40
116
76
40
84
60
28
144
92
52
40
32
12
84
60
28
144
92
52
72
56
24
116
76
40
72
56
24
72
56
24
116
76
40
72
56
24
116
76
40
72
56
24
108
72
36
116
76
40
84
60
28
144
92
52
40
32
12
84
60
28
144
92
52
84
60
28
108
72
36
72
56
24
84
60
28
72
56
24
92
64
32
84
60
28
72
56
24
84
60
28
144
92
52
40
32
12
84
60
28
144
92
52
116
76
40
108
72
36
72
56
24
92
64
32
116
76
40
116
76
40
92
64
32
72
56
24
108
72
36
72
56
24
108
72
36
72
56
24
72
56
24
84
60
28
144
92
52
40
32
12
84
60
28
144
92
52
92
64
32
72
56
24
116
76
40
84
60
28
144
92
52
40
32
12
84
60
28
144
92
52
116
76
40
116
76
40
116
76
40
116
76
40
116
76
40
84
60
28
144
92
52
40
32
12
84
60
28
144
92
52
72
56
24
116
76
40
72
56
24
72
56
24
116
76
40
72
56
24
116
76
40
72
56
24
108
72
36
116
76
40
84
60
28
144
92
52
40
32
12
84
60
28
144
92
52
84
60
28
116
76
40
84
60
28
72
56
24
72
56
24
84
60
28
72
56
24
72
56
24
84
60
28
144
92
52
40
32
12
84
60
28
144
92
52
116
76
40
116
76
40
92
64
32
108
72
36
116
76
40
116
76
40
92
64
32
72
56
24
108
72
36
72
56
24
108
72
36
72
56
24
72
56
24
84
60
28
144
92
52
40
32
12
84
60
28
144
92
52
92
64
32
72
56
24
116
76
40
84
60
28
144
92
52
40
32
12
84
60
28
144
92
52
116
76
40
116
76
40
116
76
40
116
76
40
116
76
40
84
60
28
144
92
52
40
32
12
84
60
28
144
92
52
72
56
24
116
76
40
72
56
24
72
56
24
116
76
40
72
56
24
116
76
40
72
56
24
92
64
32
116
76
40
84
60
28
144
92
52
40
32
12
84
60
28
144
92
52
84
60
28
116
76
40
84
60
28
72
56
24
72
56
24
72
56
24
72
56
24
84
60
28
84
60
28
144
92
52
40
32
12
84
60
28
144
92
52
116
76
40
116
76
40
108
72
36
116
76
40
116
76
40
116
76
40
84
60
28
72
56
24
108
72
36
72
56
24
108
72
36
72
56
24
72
56
24
84
60
28
144
92
52
40
32
12
84
60
28
144
92
52
72
56
24
72
56
24
116
76
40
84
60
28
144
92
52
40
32
12
84
60
28
144
92
52
116
76
40
116
76
40
116
76
40
116
76
40
116
76
40
84
60
28
144
92
52
40
32
12
84
60
28
144
92
52
72
56
24
116
76
40
72
56
24
72
56
24
116
76
40
72
56
24
116
76
40
72
56
24
92
64
32
116
76
40
84
60
28
144
92
52
40
32
12
84
60
28
144
92
52
72
56
24
108
72
36
116
76
40
72
56
24
72
56
24
72
56
24
84
60
28
116
76
40
84
60
28
144
92
52
40
32
12
84
60
28
144
92
52
116
76
40
116
76
40
108
72
36
116
76
40
116
76
40
116
76
40
84
60
28
72
56
24
108
72
36
72
56
24
108
72
36
72
56
24
72
56
24
84
60
28
144
92
52
40
32
12
84
60
28
144
92
52
72
56
24
92
64
32
116
76
40
84
60
28
144
92
52
40
32
12
84
60
28
144
92
52
108
72
36
116
76
40
116
76
40
116
76
40
116
76
40
84
60
28
144
92
52
40
32
12
84
60
28
144
92
52
72
56
24
116
76
40
72
56
24
72
56
24
116
76
40
72
56
24
116
76
40
84
60
28
72
56
24
116
76
40
84
60
28
144
92
52
40
32
12
84
60
28
144
92
52
72
56
24
108
72
36
116
76
40
84
60
28
72
56
24
72
56
24
84
60
28
116
76
40
84
60
28
144
92
52
40
32
12
84
60
28
144
92
52
116
76
40
116
76
40
116
76
40
116
76
40
116
76
40
108
72
36
72
56
24
72
56
24
108
72
36
72
56
24
108
72
36
72
56
24
72
56
24
84
60
28
144
92
52
40
32
12
84
60
28
144
92
52
72
56
24
92
64
32
116
76
40
84
60
28
144
92
52
40
32
12
84
60
28
144
92
52
108
72
36
116
76
40
116
76
40
116
76
40
108
72
36
84
60
28
144
92
52
40
32
12
84
60
28
144
92
52
72
56
24
116
76
40
72
56
24
72
56
24
116
76
40
72
56
24
116
76
40
84
60
28
72
56
24
116
76
40
84
60
28
144
92
52
40
32
12
84
60
28
144
92
52
72
56
24
92
64
32
116
76
40
116
76
40
72
56
24
84
60
28
116
76
40
116
76
40
84
60
28
144
92
52
40
32
12
84
60
28
144
92
52
116
76
40
116
76
40
116
76
40
116
76
40
116
76
40
108
72
36
72
56
24
72
56
24
108
72
36
72
56
24
108
72
36
72
56
24
72
56
24
84
60
28
144
92
52
40
32
12
84
60
28
144
92
52
72
56
24
116
76
40
116
76
40
84
60
28
144
92
52
40
32
12
84
60
28
144
92
52
92
64
32
116
76
40
116
76
40
116
76
40
108
72
36
84
60
28
144
92
52
40
32
12
84
60
28
144
92
52
72
56
24
116
76
40
72
56
24
72
56
24
116
76
40
72
56
24
116
76
40
84
60
28
72
56
24
116
76
40
84
60
28
144
92
52
40
32
12
84
60
28
144
92
52
72
56
24
84
60
28
116
76
40
116
76
40
116
76
40
84
60
28
116
76
40
92
64
32
84
60
28
144
92
52
40
32
12
84
60
28
144
92
52
108
72
36
116
76
40
116
76
40
116
76
40
116
76
40
108
72
36
72
56
24
72
56
24
108
72
36
72
56
24
108
72
36
72
56
24
72
56
24
84
60
28
144
92
52
40
32
12
84
60
28
144
92
52
92
64
32
116
76
40
116
76
40
84
60
28
144
92
52
40
32
12
84
60
28
144
92
52
72
56
24
108
72
36
116
76
40
108
72
36
92
64
32
84
60
28
144
92
52
40
32
12
84
60
28
144
92
52
72
56
24
116
76
40
72
56
24
72
56
24
116
76
40
72
56
24
116
76
40
84
60
28
72
56
24
116
76
40
84
60
28
144
92
52
40
32
12
84
60
28
144
92
52
84
60
28
72
56
24
108
72
36
116
76
40
116
76
40
92
64
32
116
76
40
84
60
28
84
60
28
144
92
52
40
32
12
84
60
28
144
92
52
108
72
36
116
76
40
116
76
40
116
76
40
116
76
40
92
64
32
72
56
24
72
56
24
108
72
36
72
56
24
108
72
36
72
56
24
72
56
24
84
60
28
144
92
52
40
32
12
84
60
28
144
92
52
92
64
32
116
76
40
108
72
36
84
60
28
144
92
52
40
32
12
84
60
28
144
92
52
72
56
24
92
64
32
108
72
36
92
64
32
72
56
24
84
60
28
144
92
52
40
32
12
84
60
28
144
92
52
72
56
24
116
76
40
72
56
24
72
56
24
116
76
40
72
56
24
116
76
40
92
64
32
72
56
24
116
76
40
84
60
28
144
92
52
40
32
12
84
60
28
144
92
52
84
60
28
72
56
24
108
72
36
116
76
40
116
76
40
116
76
40
116
76
40
84
60
28
84
60
28
144
92
52
40
32
12
84
60
28
144
92
52
92
64
32
116
76
40
116
76
40
116
76
40
116
76
40
92
64
32
72
56
24
72
56
24
108
72
36
72
56
24
108
72
36
72
56
24
72
56
24
84
60
28
144
92
52
40
32
12
84
60
28
144
92
52
116
76
40
116
76
40
108
72
36
84
60
28
144
92
52
40
32
12
84
60
28
144
92
52
72
56
24
72
56
24
92
64
32
72
56
24
72
56
24
84
60
28
144
92
52
40
32
12
84
60
28
144
92
52
72
56
24
116
76
40
72
56
24
72
56
24
116
76
40
72
56
24
116
76
40
92
64
32
72
56
24
108
72
36
84
60
28
144
92
52
40
32
12
84
60
28
144
92
52
84
60
28
72
56
24
92
64
32
108
72
36
116
76
40
116
76
40
116
76
40
72
56
24
84
60
28
144
92
52
40
32
12
84
60
28
144
92
52
92
64
32
116
76
40
116
76
40
116
76
40
116
76
40
84
60
28
72
56
24
72
56
24
108
72
36
72
56
24
108
72
36
72
56
24
72
56
24
84
60
28
144
92
52
40
32
12
84
60
28
144
92
52
116
76
40
116
76
40
92
64
32
84
60
28
144
92
52
40
32
12
84
60
28
144
92
52
72
56
24
72
56
24
72
56
24
72
56
24
72
56
24
84
60
28
144
92
52
40
32
12
84
60
28
144
92
52
72
56
24
116
76
40
72
56
24
72
56
24
116
76
40
72
56
24
116
76
40
108
72
36
72
56
24
108
72
36
84
60
28
144
92
52
40
32
12
84
60
28
144
92
52
108
72
36
72
56
24
84
60
28
108
72
36
116
76
40
116
76
40
92
64
32
72
56
24
84
60
28
144
92
52
40
32
12
84
60
28
144
92
52
84
60
28
108
72
36
116
76
40
116
76
40
116
76
40
84
60
28
72
56
24
84
60
28
108
72
36
72
56
24
108
72
36
72
56
24
72
56
24
84
60
28
144
92
52
40
32
12
84
60
28
144
92
52
116
76
40
108
72
36
92
64
32
84
60
28
144
92
52
40
32
12
84
60
28
144
92
52
72
56
24
72
56
24
72
56
24
72
56
24
72
56
24
84
60
28
144
92
52
40
32
12
84
60
28
144
92
52
72
56
24
116
76
40
72
56
24
72
56
24
116
76
40
72
56
24
116
76
40
108
72
36
72
56
24
108
72
36
84
60
28
144
92
52
40
32
12
84
60
28
144
92
52
108
72
36
72
56
24
72
56
24
92
64
32
116
76
40
116
76
40
84
60
28
72
56
24
84
60
28
144
92
52
40
32
12
84
60
28
144
92
52
84
60
28
108
72
36
116
76
40
116
76
40
108
72
36
72
56
24
72
56
24
84
60
28
108
72
36
72
56
24
108
72
36
72
56
24
72
56
24
84
60
28
144
92
52
40
32
12
84
60
28
144
92
52
116
76
40
108
72
36
72
56
24
84
60
28
144
92
52
40
32
12
84
60
28
144
92
52
72
56
24
72
56
24
72
56
24
72
56
24
72
56
24
84
60
28
144
92
52
40
32
12
84
60
28
144
92
52
72
56
24
116
76
40
72
56
24
72
56
24
116
76
40
72
56
24
116
76
40
108
72
36
72
56
24
92
64
32
84
60
28
144
92
52
40
32
12
84
60
28
144
92
52
108
72
36
72
56
24
72
56
24
84
60
28
116
76
40
116
76
40
84
60
28
72
56
24
84
60
28
144
92
52
40
32
12
84
60
28
144
92
52
72
56
24
92
64
32
116
76
40
116
76
40
108
72
36
72
56
24
72
56
24
84
60
28
108
72
36
72
56
24
108
72
36
72
56
24
72
56
24
84
60
28
144
92
52
40
32
12
84
60
28
144
92
52
116
76
40
92
64
32
72
56
24
84
60
28
144
92
52
40
32
12
84
60
28
144
92
52
92
64
32
72
56
24
72
56
24
72
56
24
92
64
32
84
60
28
144
92
52
40
32
12
84
60
28
144
92
52
72
56
24
116
76
40
72
56
24
72
56
24
116
76
40
72
56
24
116
76
40
116
76
40
72
56
24
92
64
32
84
60
28
144
92
52
40
32
12
84
60
28
144
92
52
108
72
36
84
60
28
72
56
24
84
60
28
92
64
32
84
60
28
72
56
24
72
56
24
84
60
28
144
92
52
40
32
12
84
60
28
144
92
52
72
56
24
92
64
32
116
76
40
116
76
40
92
64
32
72
56
24
72
56
24
92
64
32
108
72
36
72
56
24
108
72
36
72
56
24
72
56
24
84
60
28
144
92
52
40
32
12
84
60
28
144
92
52
108
72
36
72
56
24
72
56
24
84
60
28
144
92
52
40
32
12
84
60
28
144
92
52
108
72
36
92
64
32
72
56
24
92
64
32
108
72
36
84
60
28
144
92
52
40
32
12
84
60
28
144
92
52
72
56
24
116
76
40
72
56
24
72
56
24
116
76
40
72
56
24
108
72
36
116
76
40
72
56
24
72
56
24
84
60
28
144
92
52
40
32
12
84
60
28
144
92
52
108
72
36
84
60
28
72
56
24
72
56
24
84
60
28
72
56
24
72
56
24
84
60
28
84
60
28
144
92
52
40
32
12
84
60
28
144
92
52
72
56
24
84
60
28
108
72
36
108
72
36
92
64
32
72
56
24
72
56
24
92
64
32
108
72
36
72
56
24
108
72
36
72
56
24
72
56
24
84
60
28
144
92
52
40
32
12
84
60
28
144
92
52
92
64
32
72
56
24
72
56
24
84
60
28
144
92
52
40
32
12
84
60
28
144
92
52
116
76
40
108
72
36
92
64
32
108
72
36
116
76
40
84
60
28
144
92
52
40
32
12
84
60
28
144
92
52
72
56
24
116
76
40
72
56
24
72
56
24
116
76
40
72
56
24
108
72
36
116
76
40
84
60
28
72
56
24
84
60
28
144
92
52
40
32
12
84
60
28
144
92
52
108
72
36
84
60
28
72
56
24
72
56
24
72
56
24
72
56
24
72
56
24
84
60
28
84
60
28
144
92
52
40
32
12
84
60
28
144
92
52
72
56
24
84
60
28
92
64
32
92
64
32
84
60
28
72
56
24
72
56
24
92
64
32
92
64
32
72
56
24
108
72
36
72
56
24
72
56
24
84
60
28
144
92
52
40
32
12
84
60
28
144
92
52
72
56
24
72
56
24
72
56
24
84
60
28
144
92
52
40
32
12
84
60
28
144
92
52
116
76
40
116
76
40
108
72
36
116
76
40
116
76
40
84
60
28
144
92
52
40
32
12
84
60
28
144
92
52
72
56
24
116
76
40
72
56
24
72
56
24
116
76
40
72
56
24
92
64
32
116
76
40
84
60
28
72
56
24
84
60
28
144
92
52
40
32
12
84
60
28
144
92
52
92
64
32
108
72
36
72
56
24
72
56
24
72
56
24
72
56
24
72
56
24
108
72
36
84
60
28
144
92
52
40
32
12
84
60
28
144
92
52
72
56
24
72
56
24
84
60
28
84
60
28
72
56
24
72
56
24
72
56
24
108
72
36
84
60
28
72
56
24
108
72
36
72
56
24
72
56
24
84
60
28
144
92
52
40
32
12
84
60
28
144
92
52
72
56
24
72
56
24
72
56
24
84
60
28
144
92
52
40
32
12
84
60
28
144
92
52
116
76
40
116
76
40
116
76
40
116
76
40
116
76
40
84
60
28
144
92
52
40
32
12
84
60
28
144
92
52
72
56
24
116
76
40
72
56
24
72
56
24
116
76
40
72
56
24
92
64
32
116
76
40
92
64
32
72
56
24
84
60
28
144
92
52
40
32
12
84
60
28
144
92
52
84
60
28
108
72
36
72
56
24
72
56
24
72
56
24
72
56
24
72
56
24
108
72
36
84
60
28
144
92
52
40
32
12
84
60
28
144
92
52
72
56
24
72
56
24
72
56
24
72
56
24
72
56
24
72
56
24
72
56
24
108
72
36
84
60
28
72
56
24
108
72
36
72
56
24
72
56
24
84
60
28
144
92
52
40
32
12
84
60
28
144
92
52
72
56
24
72
56
24
84
60
28
84
60
28
144
92
52
40
32
12
84
60
28
144
92
52
116
76
40
116
76
40
116
76
40
116
76
40
116
76
40
84
60
28
144
92
52
40
32
12
84
60
28
144
92
52
72
56
24
116
76
40
72
56
24
72
56
24
116
76
40
72
56
24
84
60
28
116
76
40
92
64
32
72
56
24
84
60
28
144
92
52
40
32
12
84
60
28
144
92
52
84
60
28
108
72
36
84
60
28
72
56
24
72
56
24
72
56
24
84
60
28
92
64
32
84
60
28
144
92
52
40
32
12
84
60
28
144
92
52
72
56
24
72
56
24
72
56
24
72
56
24
72
56
24
72
56
24
84
60
28
116
76
40
72
56
24
72
56
24
108
72
36
72
56
24
72
56
24
84
60
28
144
92
52
40
32
12
84
60
28
144
92
52
72
56
24
72
56
24
84
60
28
84
60
28
144
92
52
40
32
12
84
60
28
144
92
52
116
76
40
116
76
40
116
76
40
116
76
40
116
76
40
84
60
28
144
92
52
40
32
12
84
60
28
144
92
52
72
56
24
116
76
40
72
56
24
72
56
24
116
76
40
72
56
24
84
60
28
116
76
40
108
72
36
84
60
28
84
60
28
144
92
52
40
32
12
84
60
28
144
92
52
72
56
24
92
64
32
84
60
28
72
56
24
72
56
24
72
56
24
84
60
28
84
60
28
84
60
28
144
92
52
40
32
12
84
60
28
144
92
52
72
56
24
72
56
24
72
56
24
72
56
24
72
56
24
72
56
24
92
64
32
116
76
40
72
56
24
72
56
24
108
72
36
72
56
24
72
56
24
84
60
28
144
92
52
40
32
12
84
60
28
144
92
52
72
56
24
72
56
24
92
64
32
84
60
28
144
92
52
40
32
12
84
60
28
144
92
52
108
72
36
116
76
40
116
76
40
116
76
40
116
76
40
84
60
28
144
92
52
40
32
12
84
60
28
144
92
52
72
56
24
116
76
40
72
56
24
72
56
24
116
76
40
72
56
24
84
60
28
116
76
40
108
72
36
84
60
28
84
60
28
144
92
52
40
32
12
84
60
28
144
92
52
72
56
24
84
60
28
108
72
36
72
56
24
72
56
24
72
56
24
108
72
36
84
60
28
84
60
28
144
92
52
40
32
12
84
60
28
144
92
52
72
56
24
72
56
24
72
56
24
72
56
24
72
56
24
72
56
24
92
64
32
116
76
40
72
56
24
72
56
24
108
72
36
72
56
24
72
56
24
84
60
28
144
92
52
40
32
12
84
60
28
144
92
52
72
56
24
72
56
24
108
72
36
84
60
28
144
92
52
40
32
12
84
60
28
144
92
52
108
72
36
116
76
40
116
76
40
116
76
40
116
76
40
84
60
28
144
92
52
40
32
12
84
60
28
144
92
52
72
56
24
116
76
40
72
56
24
72
56
24
116
76
40
72
56
24
72
56
24
116
76
40
116
76
40
92
64
32
72
56
24
144
92
52
40
32
12
84
60
28
144
92
52
72
56
24
84
60
28
108
72
36
84
60
28
72
56
24
72
56
24
108
72
36
72
56
24
84
60
28
144
92
52
40
32
12
84
60
28
144
92
52
72
56
24
72
56
24
72
56
24
72
56
24
72
56
24
72
56
24
108
72
36
116
76
40
72
56
24
72
56
24
108
72
36
72
56
24
72
56
24
84
60
28
144
92
52
40
32
12
84
60
28
144
92
52
72
56
24
84
60
28
108
72
36
84
60
28
144
92
52
40
32
12
84
60
28
144
92
52
92
64
32
116
76
40
116
76
40
116
76
40
108
72
36
84
60
28
144
92
52
40
32
12
84
60
28
144
92
52
72
56
24
116
76
40
72
56
24
72
56
24
116
76
40
72
56
24
72
56
24
116
76
40
116
76
40
92
64
32
84
60
28
144
92
52
40
32
12
84
60
28
144
92
52
72
56
24
72
56
24
92
64
32
84
60
28
72
56
24
108
72
36
92
64
32
72
56
24
84
60
28
144
92
52
40
32
12
84
60
28
144
92
52
84
60
28
72
56
24
72
56
24
72
56
24
72
56
24
72
56
24
108
72
36
116
76
40
72
56
24
72
56
24
108
72
36
72
56
24
72
56
24
84
60
28
144
92
52
40
32
12
84
60
28
144
92
52
72
56
24
92
64
32
116
76
40
84
60
28
144
92
52
40
32
12
84
60
28
144
92
52
92
64
32
108
72
36
116
76
40
116
76
40
108
72
36
84
60
28
144
92
52
40
32
12
84
60
28
144
92
52
72
56
24
116
76
40
72
56
24
72
56
24
116
76
40
72
56
24
72
56
24
108
72
36
116
76
40
108
72
36
84
60
28
144
92
52
40
32
12
84
60
28
144
92
52
72
56
24
72
56
24
84
60
28
108
72
36
84
60
28
108
72
36
84
60
28
72
56
24
84
60
28
144
92
52
40
32
12
84
60
28
144
92
52
92
64
32
72
56
24
72
56
24
72
56
24
72
56
24
84
60
28
116
76
40
108
72
36
72
56
24
84
60
28
108
72
36
72
56
24
72
56
24
84
60
28
144
92
52
40
32
12
84
60
28
144
92
52
84
60
28
108
72
36
116
76
40
84
60
28
144
92
52
40
32
12
84
60
28
144
92
52
72
56
24
108
72
36
116
76
40
116
76
40
92
64
32
84
60
28
144
92
52
40
32
12
84
60
28
144
92
52
72
56
24
116
76
40
72
56
24
72
56
24
116
76
40
72
56
24
72
56
24
108
72
36
116
76
40
108
72
36
84
60
28
144
92
52
40
32
12
84
60
28
144
92
52
72
56
24
72
56
24
84
60
28
108
72
36
84
60
28
108
72
36
84
60
28
72
56
24
84
60
28
144
92
52
40
32
12
84
60
28
144
92
52
108
72
36
84
60
28
72
56
24
72
56
24
72
56
24
92
64
32
116
76
40
108
72
36
72
56
24
84
60
28
108
72
36
72
56
24
72
56
24
84
60
28
144
92
52
40
32
12
84
60
28
144
92
52
92
64
32
116
76
40
116
76
40
84
60
28
144
92
52
40
32
12
84
60
28
144
92
52
72
56
24
92
64
32
116
76
40
108
72
36
72
56
24
84
60
28
144
92
52
40
32
12
84
60
28
144
92
52
72
56
24
116
76
40
72
56
24
72
56
24
116
76
40
84
60
28
72
56
24
92
64
32
116
76
40
116
76
40
84
60
28
144
92
52
40
32
12
84
60
28
144
92
52
72
56
24
72
56
24
72
56
24
92
64
32
108
72
36
92
64
32
72
56
24
72
56
24
84
60
28
144
92
52
40
32
12
84
60
28
144
92
52
116
76
40
92
64
32
72
56
24
72
56
24
84
60
28
92
64
32
116
76
40
92
64
32
72
56
24
92
64
32
108
72
36
72
56
24
72
56
24
84
60
28
144
92
52
40
32
12
84
60
28
144
92
52
108
72
36
116
76
40
116
76
40
84
60
28
144
92
52
40
32
12
84
60
28
144
92
52
72
56
24
72
56
24
108
72
36
92
64
32
72
56
24
84
60
28
144
92
52
40
32
12
84
60
28
144
92
52
72
56
24
116
76
40
72
56
24
72
56
24
116
76
40
84
60
28
72
56
24
92
64
32
116
76
40
116
76
40
84
60
28
144
92
52
40
32
12
84
60
28
144
92
52
84
60
28
72
56
24
72
56
24
84
60
28
92
64
32
84
60
28
72
56
24
72
56
24
84
60
28
144
92
52
40
32
12
84
60
28
144
92
52
116
76
40
108
72
36
84
60
28
72
56
24
84
60
28
116
76
40
116
76
40
84
60
28
72
56
24
92
64
32
108
72
36
72
56
24
72
56
24
84
60
28
144
92
52
40
32
12
84
60
28
144
92
52
116
76
40
116
76
40
116
76
40
84
60
28
144
92
52
40
32
12
84
60
28
144
92
52
72
56
24
72
56
24
92
64
32
72
56
24
72
56
24
84
60
28
144
92
52
40
32
12
84
60
28
144
92
52
72
56
24
116
76
40
72
56
24
72
56
24
116
76
40
84
60
28
72
56
24
84
60
28
116
76
40
116
76
40
84
60
28
144
92
52
40
32
12
84
60
28
144
92
52
84
60
28
72
56
24
72
56
24
72
56
24
84
60
28
72
56
24
72
56
24
72
56
24
84
60
28
144
92
52
40
32
12
84
60
28
144
92
52
116
76
40
116
76
40
92
64
32
72
56
24
92
64
32
116
76
40
116
76
40
84
60
28
72
56
24
92
64
32
108
72
36
72
56
24
72
56
24
84
60
28
144
92
52
40
32
12
84
60
28
144
92
52
116
76
40
116
76
40
108
72
36
84
60
28
144
92
52
40
32
12
84
60
28
144
92
52
72
56
24
72
56
24
72
56
24
72
56
24
72
56
24
84
60
28
144
92
52
40
32
12
84
60
28
144
92
52
72
56
24
116
76
40
72
56
24
72
56
24
116
76
40
84
60
28
72
56
24
84
60
28
116
76
40
116
76
40
84
60
28
144
92
52
40
32
12
84
60
28
144
92
52
92
64
32
72
56
24
72
56
24
72
56
24
72
56
24
72
56
24
72
56
24
72
56
24
84
60
28
144
92
52
40
32
12
84
60
28
144
92
52
116
76
40
116
76
40
116
76
40
92
64
32
116
76
40
116
76
40
116
76
40
72
56
24
72
56
24
108
72
36
108
72
36
72
56
24
72
56
24
84
60
28
144
92
52
40
32
12
84
60
28
144
92
52
116
76
40
116
76
40
108
72
36
84
60
28
144
92
52
40
32
12
84
60
28
144
92
52
72
56
24
72
56
24
72
56
24
72
56
24
72
56
24
84
60
28
144
92
52
40
32
12
84
60
28
144
92
52
72
56
24
116
76
40
72
56
24
72
56
24
116
76
40
92
64
32
72
56
24
84
60
28
116
76
40
116
76
40
84
60
28
144
92
52
40
32
12
84
60
28
144
92
52
108
72
36
72
56
24
72
56
24
72
56
24
72
56
24
72
56
24
72
56
24
84
60
28
84
60
28
144
92
52
40
32
12
84
60
28
144
92
52
116
76
40
116
76
40
116
76
40
116
76
40
116
76
40
116
76
40
108
72
36
72
56
24
72
56
24
108
72
36
108
72
36
72
56
24
72
56
24
84
60
28
144
92
52
40
32
12
84
60
28
144
92
52
116
76
40
116
76
40
92
64
32
84
60
28
144
92
52
40
32
12
84
60
28
144
92
52
72
56
24
72
56
24
72
56
24
72
56
24
72
56
24
84
60
28
144
92
52
40
32
12
84
60
28
144
92
52
72
56
24
116
76
40
72
56
24
72
56
24
116
76
40
92
64
32
72
56
24
72
56
24
108
72
36
116
76
40
84
60
28
144
92
52
40
32
12
84
60
28
144
92
52
108
72
36
84
60
28
72
56
24
72
56
24
72
56
24
72
56
24
72
56
24
84
60
28
84
60
28
144
92
52
40
32
12
84
60
28
144
92
52
108
72
36
116
76
40
116
76
40
116
76
40
116
76
40
116
76
40
108
72
36
72
56
24
72
56
24
116
76
40
108
72
36
72
56
24
72
56
24
84
60
28
144
92
52
40
32
12
84
60
28
144
92
52
116
76
40
108
72
36
92
64
32
84
60
28
144
92
52
40
32
12
84
60
28
144
92
52
92
64
32
72
56
24
72
56
24
72
56
24
72
56
24
84
60
28
144
92
52
40
32
12
84
60
28
144
92
52
72
56
24
116
76
40
72
56
24
72
56
24
116
76
40
108
72
36
72
56
24
72
56
24
108
72
36
116
76
40
84
60
28
144
92
52
40
32
12
84
60
28
144
92
52
108
72
36
84
60
28
72
56
24
72
56
24
72
56
24
72
56
24
72
56
24
92
64
32
84
60
28
144
92
52
40
32
12
84
60
28
144
92
52
108
72
36
116
76
40
116
76
40
116
76
40
116
76
40
116
76
40
92
64
32
72
56
24
72
56
24
116
76
40
108
72
36
72
56
24
72
56
24
84
60
28
144
92
52
40
32
12
84
60
28
144
92
52
116
76
40
108
72
36
72
56
24
84
60
28
144
92
52
40
32
12
84
60
28
144
92
52
92
64
32
72
56
24
72
56
24
72
56
24
72
56
24
84
60
28
144
92
52
40
32
12
84
60
28
144
92
52
72
56
24
116
76
40
72
56
24
72
56
24
108
72
36
108
72
36
72
56
24
72
56
24
92
64
32
116
76
40
84
60
28
144
92
52
40
32
12
84
60
28
144
92
52
84
60
28
108
72
36
84
60
28
72
56
24
72
56
24
72
56
24
84
60
28
92
64
32
84
60
28
144
92
52
40
32
12
84
60
28
144
92
52
92
64
32
116
76
40
116
76
40
116
76
40
116
76
40
116
76
40
84
60
28
72
56
24
72
56
24
116
76
40
92
64
32
72
56
24
72
56
24
84
60
28
144
92
52
40
32
12
84
60
28
144
92
52
116
76
40
92
64
32
72
56
24
84
60
28
144
92
52
40
32
12
84
60
28
144
92
52
108
72
36
92
64
32
72
56
24
72
56
24
92
64
32
84
60
28
144
92
52
40
32
12
84
60
28
144
92
52
72
56
24
116
76
40
72
56
24
72
56
24
108
72
36
116
76
40
72
56
24
72
56
24
92
64
32
116
76
40
84
60
28
144
92
52
40
32
12
84
60
28
144
92
52
84
60
28
108
72
36
84
60
28
72
56
24
72
56
24
72
56
24
84
60
28
108
72
36
84
60
28
144
92
52
40
32
12
84
60
28
144
92
52
84
60
28
116
76
40
116
76
40
116
76
40
116
76
40
116
76
40
72
56
24
72
56
24
72
56
24
116
76
40
92
64
32
72
56
24
72
56
24
84
60
28
144
92
52
40
32
12
84
60
28
144
92
52
108
72
36
92
64
32
72
56
24
84
60
28
144
92
52
40
32
12
84
60
28
144
92
52
116
76
40
92
64
32
72
56
24
92
64
32
92
64
32
84
60
28
144
92
52
40
32
12
84
60
28
144
92
52
72
56
24
116
76
40
72
56
24
72
56
24
92
64
32
116
76
40
84
60
28
72
56
24
84
60
28
108
72
36
84
60
28
144
92
52
40
32
12
84
60
28
144
92
52
72
56
24
108
72
36
92
64
32
84
60
28
72
56
24
84
60
28
92
64
32
108
72
36
84
60
28
144
92
52
40
32
12
84
60
28
144
92
52
72
56
24
108
72
36
116
76
40
116
76
40
116
76
40
108
72
36
72
56
24
72
56
24
84
60
28
116
76
40
72
56
24
72
56
24
72
56
24
84
60
28
144
92
52
40
32
12
84
60
28
144
92
52
108
72
36
72
56
24
72
56
24
84
60
28
144
92
52
40
32
12
84
60
28
144
92
52
116
76
40
108
72
36
92
64
32
92
64
32
108
72
36
84
60
28
144
92
52
40
32
12
84
60
28
144
92
52
72
56
24
116
76
40
72
56
24
72
56
24
92
64
32
116
76
40
84
60
28
72
56
24
84
60
28
108
72
36
84
60
28
144
92
52
40
32
12
84
60
28
144
92
52
72
56
24
108
72
36
108
72
36
84
60
28
84
60
28
84
60
28
108
72
36
92
64
32
84
60
28
144
92
52
40
32
12
84
60
28
144
92
52
72
56
24
92
64
32
116
76
40
116
76
40
116
76
40
92
64
32
72
56
24
72
56
24
92
64
32
116
76
40
72
56
24
72
56
24
72
56
24
84
60
28
144
92
52
40
32
12
84
60
28
144
92
52
92
64
32
72
56
24
72
56
24
84
60
28
144
92
52
40
32
12
84
60
28
144
92
52
116
76
40
116
76
40
92
64
32
108
72
36
116
76
40
84
60
28
144
92
52
40
32
12
84
60
28
144
92
52
72
56
24
116
76
40
72
56
24
72
56
24
84
60
28
116
76
40
84
60
28
72
56
24
84
60
28
92
64
32
84
60
28
144
92
52
40
32
12
84
60
28
144
92
52
72
56
24
92
64
32
108
72
36
92
64
32
84
60
28
92
64
32
108
72
36
84
60
28
84
60
28
144
92
52
40
32
12
84
60
28
144
92
52
72
56
24
84
60
28
108
72
36
116
76
40
108
72
36
84
60
28
72
56
24
72
56
24
108
72
36
116
76
40
72
56
24
72
56
24
72
56
24
84
60
28
144
92
52
40
32
12
84
60
28
144
92
52
72
56
24
72
56
24
72
56
24
84
60
28
144
92
52
40
32
12
84
60
28
144
92
52
116
76
40
116
76
40
108
72
36
116
76
40
116
76
40
84
60
28
144
92
52
40
32
12
84
60
28
144
92
52
72
56
24
116
76
40
72
56
24
72
56
24
84
60
28
116
76
40
92
64
32
72
56
24
72
56
24
92
64
32
84
60
28
144
92
52
40
32
12
84
60
28
144
92
52
72
56
24
84
60
28
108
72
36
108
72
36
92
64
32
108
72
36
108
72
36
84
60
28
84
60
28
144
92
52
40
32
12
84
60
28
144
92
52
72
56
24
72
56
24
84
60
28
108
72
36
92
64
32
72
56
24
72
56
24
72
56
24
108
72
36
116
76
40
72
56
24
72
56
24
72
56
24
84
60
28
144
92
52
40
32
12
84
60
28
144
92
52
72
56
24
72
56
24
84
60
28
84
60
28
144
92
52
40
32
12
84
60
28
144
92
52
116
76
40
116
76
40
116
76
40
116
76
40
116
76
40
84
60
28
144
92
52
40
32
12
84
60
28
144
92
52
72
56
24
116
76
40
72
56
24
72
56
24
84
60
28
116
76
40
92
64
32
84
60
28
72
56
24
84
60
28
84
60
28
144
92
52
40
32
12
84
60
28
144
92
52
72
56
24
84
60
28
108
72
36
108
72
36
92
64
32
108
72
36
108
72
36
72
56
24
84
60
28
144
92
52
40
32
12
84
60
28
144
92
52
72
56
24
72
56
24
72
56
24
84
60
28
84
60
28
72
56
24
72
56
24
72
56
24
116
76
40
108
72
36
72
56
24
72
56
24
72
56
24
84
60
28
144
92
52
40
32
12
84
60
28
144
92
52
72
56
24
72
56
24
84
60
28
84
60
28
144
92
52
40
32
12
84
60
28
144
92
52
116
76
40
116
76
40
116
76
40
116
76
40
116
76
40
84
60
28
144
92
52
40
32
12
84
60
28
144
92
52
72
56
24
116
76
40
72
56
24
72
56
24
84
60
28
116
76
40
108
72
36
84
60
28
72
56
24
84
60
28
84
60
28
144
92
52
40
32
12
84
60
28
144
92
52
72
56
24
72
56
24
108
72
36
116
76
40
116
76
40
116
76
40
108
72
36
72
56
24
84
60
28
144
92
52
40
32
12
84
60
28
144
92
52
84
60
28
72
56
24
72
56
24
72
56
24
72
56
24
72
56
24
72
56
24
84
60
28
116
76
40
108
72
36
72
56
24
72
56
24
72
56
24
84
60
28
144
92
52
40
32
12
84
60
28
144
92
52
72
56
24
72
56
24
92
64
32
84
60
28
144
92
52
40
32
12
84
60
28
144
92
52
116
76
40
116
76
40
116
76
40
116
76
40
108
72
36
84
60
28
144
92
52
40
32
12
84
60
28
144
92
52
72
56
24
116
76
40
72
56
24
72
56
24
72
56
24
116
76
40
108
72
36
84
60
28
72
56
24
84
60
28
84
60
28
144
92
52
40
32
12
84
60
28
144
92
52
72
56
24
72
56
24
92
64
32
116
76
40
116
76
40
116
76
40
108
72
36
72
56
24
84
60
28
144
92
52
40
32
12
84
60
28
144
92
52
84
60
28
72
56
24
72
56
24
72
56
24
72
56
24
72
56
24
72
56
24
92
64
32
116
76
40
92
64
32
72
56
24
72
56
24
72
56
24
84
60
28
144
92
52
40
32
12
84
60
28
144
92
52
72
56
24
84
60
28
108
72
36
84
60
28
144
92
52
40
32
12
84
60
28
144
92
52
108
72
36
116
76
40
116
76
40
116
76
40
108
72
36
84
60
28
144
92
52
40
32
12
84
60
28
144
92
52
72
56
24
116
76
40
72
56
24
72
56
24
72
56
24
108
72
36
116
76
40
92
64
32
72
56
24
72
56
24
84
60
28
144
92
52
40
32
12
84
60
28
144
92
52
72
56
24
72
56
24
84
60
28
108
72
36
116
76
40
116
76
40
108
72
36
72
56
24
84
60
28
144
92
52
40
32
12
84
60
28
144
92
52
92
64
32
72
56
24
72
56
24
72
56
24
72
56
24
72
56
24
72
56
24
108
72
36
116
76
40
92
64
32
72
56
24
72
56
24
72
56
24
84
60
28
144
92
52
40
32
12
84
60
28
144
92
52
72
56
24
92
64
32
116
76
40
84
60
28
144
92
52
40
32
12
84
60
28
144
92
52
108
72
36
116
76
40
116
76
40
116
76
40
92
64
32
84
60
28
144
92
52
40
32
12
84
60
28
144
92
52
72
56
24
116
76
40
72
56
24
72
56
24
72
56
24
108
72
36
116
76
40
92
64
32
84
60
28
72
56
24
84
60
28
144
92
52
40
32
12
84
60
28
144
92
52
72
56
24
72
56
24
84
60
28
108
72
36
116
76
40
116
76
40
92
64
32
72
56
24
84
60
28
144
92
52
40
32
12
84
60
28
144
92
52
108
72
36
84
60
28
72
56
24
72
56
24
72
56
24
72
56
24
72
56
24
108
72
36
116
76
40
72
56
24
72
56
24
72
56
24
72
56
24
84
60
28
144
92
52
40
32
12
84
60
28
144
92
52
84
60
28
108
72
36
116
76
40
84
60
28
144
92
52
40
32
12
84
60
28
144
92
52
92
64
32
116
76
40
116
76
40
116
76
40
92
64
32
84
60
28
144
92
52
40
32
12
84
60
28
144
92
52
72
56
24
116
76
40
72
56
24
72
56
24
72
56
24
92
64
32
116
76
40
108
72
36
84
60
28
72
56
24
84
60
28
144
92
52
40
32
12
84
60
28
144
92
52
84
60
28
72
56
24
72
56
24
92
64
32
116
76
40
108
72
36
92
64
32
72
56
24
84
60
28
144
92
52
40
32
12
84
60
28
144
92
52
116
76
40
84
60
28
72
56
24
72
56
24
72
56
24
72
56
24
84
60
28
116
76
40
108
72
36
72
56
24
72
56
24
72
56
24
72
56
24
84
60
28
144
92
52
40
32
12
84
60
28
144
92
52
108
72
36
116
76
40
116
76
40
84
60
28
144
92
52
40
32
12
84
60
28
144
92
52
92
64
32
116
76
40
116
76
40
108
72
36
84
60
28
84
60
28
144
92
52
40
32
12
84
60
28
144
92
52
72
56
24
116
76
40
72
56
24
72
56
24
72
56
24
92
64
32
116
76
40
108
72
36
92
64
32
72
56
24
84
60
28
144
92
52
40
32
12
84
60
28
144
92
52
84
60
28
72
56
24
72
56
24
84
60
28
108
72
36
108
72
36
84
60
28
72
56
24
84
60
28
144
92
52
40
32
12
84
60
28
144
92
52
116
76
40
92
64
32
72
56
24
72
56
24
72
56
24
72
56
24
92
64
32
116
76
40
108
72
36
72
56
24
72
56
24
92
64
32
72
56
24
84
60
28
144
92
52
40
32
12
84
60
28
144
92
52
116
76
40
116
76
40
116
76
40
84
60
28
144
92
52
40
32
12
84
60
28
144
92
52
84
60
28
108
72
36
116
76
40
108
72
36
84
60
28
84
60
28
144
92
52
40
32
12
84
60
28
144
92
52
72
56
24
116
76
40
84
60
28
72
56
24
72
56
24
84
60
28
108
72
36
116
76
40
92
64
32
84
60
28
84
60
28
144
92
52
40
32
12
84
60
28
144
92
52
92
64
32
72
56
24
72
56
24
84
60
28
108
72
36
92
64
32
84
60
28
72
56
24
84
60
28
144
92
52
40
32
12
84
60
28
144
92
52
108
72
36
108
72
36
84
60
28
72
56
24
72
56
24
72
56
24
108
72
36
116
76
40
92
64
32
72
56
24
72
56
24
92
64
32
72
56
24
84
60
28
144
92
52
40
32
12
84
60
28
144
92
52
116
76
40
116
76
40
116
76
40
84
60
28
144
92
52
40
32
12
84
60
28
144
92
52
84
60
28
108
72
36
116
76
40
92
64
32
72
56
24
84
60
28
144
92
52
40
32
12
84
60
28
144
92
52
72
56
24
116
76
40
84
60
28
72
56
24
72
56
24
84
60
28
92
64
32
116
76
40
108
72
36
84
60
28
84
60
28
144
92
52
40
32
12
84
60
28
144
92
52
92
64
32
72
56
24
72
56
24
72
56
24
92
64
32
92
64
32
72
56
24
72
56
24
84
60
28
144
92
52
40
32
12
84
60
28
144
92
52
108
72
36
116
76
40
84
60
28
72
56
24
72
56
24
84
60
28
108
72
36
116
76
40
72
56
24
72
56
24
72
56
24
108
72
36
72
56
24
84
60
28
144
92
52
40
32
12
84
60
28
144
92
52
116
76
40
116
76
40
116
76
40
84
60
28
144
92
52
40
32
12
84
60
28
144
92
52
72
56
24
92
64
32
108
72
36
84
60
28
72
56
24
84
60
28
144
92
52
40
32
12
84
60
28
144
92
52
72
56
24
116
76
40
84
60
28
72
56
24
72
56
24
72
56
24
92
64
32
116
76
40
108
72
36
84
60
28
84
60
28
144
92
52
40
32
12
84
60
28
144
92
52
108
72
36
72
56
24
72
56
24
72
56
24
84
60
28
84
60
28
72
56
24
72
56
24
84
60
28
144
92
52
40
32
12
84
60
28
144
92
52
92
64
32
116
76
40
108
72
36
84
60
28
72
56
24
84
60
28
116
76
40
116
76
40
72
56
24
72
56
24
72
56
24
108
72
36
72
56
24
84
60
28
144
92
52
40
32
12
84
60
28
144
92
52
116
76
40
116
76
40
116
76
40
84
60
28
144
92
52
40
32
12
84
60
28
144
92
52
72
56
24
84
60
28
92
64
32
72
56
24
72
56
24
84
60
28
144
92
52
40
32
12
84
60
28
144
92
52
72
56
24
116
76
40
84
60
28
72
56
24
72
56
24
72
56
24
84
60
28
108
72
36
116
76
40
84
60
28
84
60
28
144
92
52
40
32
12
84
60
28
144
92
52
108
72
36
84
60
28
72
56
24
72
56
24
72
56
24
72
56
24
72
56
24
84
60
28
84
60
28
144
92
52
40
32
12
84
60
28
144
92
52
72
56
24
108
72
36
116
76
40
108
72
36
84
60
28
116
76
40
116
76
40
108
72
36
72
56
24
72
56
24
72
56
24
108
72
36
72
56
24
84
60
28
144
92
52
40
32
12
84
60
28
144
92
52
116
76
40
116
76
40
116
76
40
84
60
28
144
92
52
40
32
12
84
60
28
144
92
52
72
56
24
72
56
24
84
60
28
72
56
24
72
56
24
84
60
28
144
92
52
40
32
12
84
60
28
144
92
52
72
56
24
108
72
36
92
64
32
72
56
24
72
56
24
72
56
24
84
60
28
92
64
32
116
76
40
108
72
36
84
60
28
144
92
52
40
32
12
84
60
28
144
92
52
116
76
40
84
60
28
72
56
24
72
56
24
72
56
24
72
56
24
72
56
24
84
60
28
84
60
28
144
92
52
40
32
12
84
60
28
144
92
52
72
56
24
92
64
32
116
76
40
116
76
40
116
76
40
116
76
40
116
76
40
92
64
32
72
56
24
72
56
24
72
56
24
116
76
40
72
56
24
84
60
28
144
92
52
40
32
12
84
60
28
144
92
52
116
76
40
116
76
40
108
72
36
84
60
28
144
92
52
40
32
12
84
60
28
144
92
52
72
56
24
72
56
24
72
56
24
72
56
24
72
56
24
84
60
28
144
92
52
40
32
12
84
60
28
144
92
52
72
56
24
108
72
36
108
72
36
72
56
24
72
56
24
72
56
24
72
56
24
92
64
32
116
76
40
108
72
36
84
60
28
144
92
52
40
32
12
84
60
28
144
92
52
116
76
40
92
64
32
72
56
24
72
56
24
72
56
24
72
56
24
72
56
24
108
72
36
84
60
28
144
92
52
40
32
12
84
60
28
144
92
52
72
56
24
72
56
24
116
76
40
116
76
40
116
76
40
116
76
40
108
72
36
72
56
24
72
56
24
72
56
24
92
64
32
116
76
40
72
56
24
84
60
28
144
92
52
40
32
12
84
60
28
144
92
52
116
76
40
116
76
40
108
72
36
84
60
28
144
92
52
40
32
12
84
60
28
144
92
52
72
56
24
72
56
24
72
56
24
72
56
24
72
56
24
84
60
28
144
92
52
40
32
12
84
60
28
144
92
52
72
56
24
92
64
32
108
72
36
84
60
28
72
56
24
72
56
24
72
56
24
84
60
28
108
72
36
108
72
36
84
60
28
144
92
52
40
32
12
84
60
28
144
92
52
116
76
40
92
64
32
84
60
28
72
56
24
72
56
24
72
56
24
84
60
28
108
72
36
84
60
28
144
92
52
40
32
12
84
60
28
144
92
52
72
56
24
72
56
24
92
64
32
108
72
36
116
76
40
108
72
36
92
64
32
72
56
24
72
56
24
72
56
24
108
72
36
116
76
40
72
56
24
84
60
28
144
92
52
40
32
12
84
60
28
144
92
52
116
76
40
108
72
36
92
64
32
84
60
28
144
92
52
40
32
12
84
60
28
144
92
52
72
56
24
72
56
24
72
56
24
72
56
24
72
56
24
84
60
28
144
92
52
40
32
12
84
60
28
144
92
52
72
56
24
92
64
32
116
76
40
84
60
28
72
56
24
72
56
24
72
56
24
72
56
24
92
64
32
92
64
32
84
60
28
144
92
52
40
32
12
84
60
28
144
92
52
116
76
40
108
72
36
84
60
28
72
56
24
72
56
24
72
56
24
84
60
28
108
72
36
84
60
28
144
92
52
40
32
12
84
60
28
144
92
52
72
56
24
72
56
24
72
56
24
92
64
32
108
72
36
92
64
32
72
56
24
72
56
24
72
56
24
72
56
24
108
72
36
116
76
40
72
56
24
84
60
28
144
92
52
40
32
12
84
60
28
144
92
52
116
76
40
108
72
36
92
64
32
84
60
28
144
92
52
40
32
12
84
60
28
144
92
52
72
56
24
72
56
24
72
56
24
72
56
24
72
56
24
84
60
28
144
92
52
40
32
12
84
60
28
144
92
52
72
56
24
72
56
24
116
76
40
84
60
28
72
56
24
72
56
24
72
56
24
72
56
24
72
56
24
84
60
28
84
60
28
144
92
52
40
32
12
84
60
28
144
92
52
116
76
40
108
72
36
92
64
32
72
56
24
72
56
24
72
56
24
84
60
28
108
72
36
84
60
28
144
92
52
40
32
12
84
60
28
144
92
52
72
56
24
72
56
24
72
56
24
72
56
24
92
64
32
72
56
24
72
56
24
72
56
24
72
56
24
108
72
36
116
76
40
116
76
40
92
64
32
84
60
28
144
92
52
40
32
12
84
60
28
144
92
52
108
72
36
92
64
32
72
56
24
84
60
28
144
92
52
40
32
12
84
60
28
144
92
52
72
56
24
72
56
24
72
56
24
72
56
24
72
56
24
84
60
28
144
92
52
40
32
12
84
60
28
144
92
52
92
64
32
72
56
24
116
76
40
92
64
32
72
56
24
72
56
24
72
56
24
72
56
24
72
56
24
72
56
24
84
60
28
144
92
52
40
32
12
84
60
28
144
92
52
116
76
40
92
64
32
92
64
32
92
64
32
92
64
32
92
64
32
92
64
32
92
64
32
84
60
28
144
92
52
40
32
12
84
60
28
144
92
52
92
64
32
72
56
24
72
56
24
72
56
24
72
56
24
72
56
24
72
56
24
72
56
24
92
64
32
92
64
32
92
64
32
92
64
32
92
64
32
84
60
28
144
92
52
40
32
12
84
60
28
144
92
52
92
64
32
72
56
24
72
56
24
84
60
28
144
92
52
40
32
12
84
60
28
144
92
52
92
64
32
72
56
24
72
56
24
72
56
24
92
64
32
84
60
28
144
92
52
40
32
12
84
60
28
144
92
52
92
64
32
72
56
24
92
64
32
92
64
32
72
56
24
72
56
24
72
56
24
72
56
24
72
56
24
72
56
24
84
60
28
144
92
52
40
32
12
84
60
28
144
92
52
92
64
32
