P3
#Created with GIMP
#
64 64
255
172 60 45 177 62 47 184 65 49 177 62 47 175 61 46 181 64 48 173 62 47 179 63 47 170 62 46 179 63 47 179 63 47 175 62 47 183 64 48 186 65 48 181 64 48 186 66 50 173 61 46 168 59 44 171 171 171 182 182 182 183 64 48 173 61 46 179 63 47 175 62 46 186 66 50 175 62 46 188 66 49 175 64 47 173 61 46 177 62 47 179 63 47 183 66 48 186 66 50 173 61 46 177 62 47 183 64 48 177 62 47 179 63 47 177 62 47 173 61 46 179 63 47 183 64 48 183 64 48 177 63 48 173 61 46 173 61 46 175 61 47 181 64 48 181 63 47 183 64 49 188 66 50 170 61 45 173 61 46 173 62 46 175 62 46 168 59 44 179 62 47 183 188 183 188 188 188 179 63 47 177 62 47 172 60 45 179 63 46 172 60 45 
164 58 43 170 60 45 162 57 42 166 59 44 153 54 40 157 56 41 159 56 41 161 57 42 172 60 45 161 57 43 168 60 43 161 58 41 173 61 46 155 55 40 159 56 42 168 60 44 170 59 44 133 47 34 171 171 171 183 182 183 166 58 44 164 58 43 161 57 42 170 59 45 168 59 44 155 55 40 159 57 42 161 57 42 161 57 42 164 58 44 161 57 42 170 60 45 168 59 45 162 57 43 168 59 44 159 56 41 166 58 44 161 57 42 162 57 43 166 59 44 164 59 43 162 59 44 162 57 42 159 56 41 166 58 44 164 58 43 173 61 46 166 58 43 161 57 42 157 56 41 157 55 41 164 58 43 172 60 46 155 55 40 170 60 44 166 58 44 130 45 33 174 174 174 185 185 183 179 63 47 159 56 40 159 56 41 159 57 41 172 60 45 
172 60 45 170 60 45 162 57 42 161 57 42 155 55 40 170 58 44 155 55 40 162 57 42 172 62 46 152 53 40 170 58 44 168 58 44 159 56 41 168 59 44 164 58 43 168 58 42 164 58 43 133 46 33 171 171 171 180 180 180 172 60 45 162 57 42 155 54 40 164 58 43 175 62 46 170 60 45 168 59 44 173 61 46 164 58 43 162 57 43 170 60 45 164 58 43 170 60 45 162 57 42 162 55 42 161 58 42 161 57 42 162 57 42 159 56 41 168 58 42 172 60 45 159 57 42 157 55 41 157 55 40 153 53 40 161 57 42 159 57 41 164 58 42 168 59 44 172 60 46 153 54 40 159 56 41 168 59 44 157 55 41 157 55 41 155 55 40 131 46 33 177 177 177 185 185 185 184 64 48 157 54 40 161 57 42 162 57 42 170 60 45 
168 59 44 168 59 44 173 61 46 168 59 44 168 59 44 164 58 43 164 58 43 162 57 42 172 60 45 162 58 44 164 58 43 168 59 44 161 57 42 159 56 41 170 58 44 153 55 40 164 58 43 128 45 32 170 170 170 186 186 186 172 60 45 168 59 44 161 57 42 155 55 41 164 58 43 159 56 41 164 57 43 162 57 42 159 56 42 161 57 42 162 57 42 166 58 43 155 55 40 173 61 46 162 57 42 164 58 43 164 58 44 159 56 41 166 58 44 162 57 42 168 59 44 157 55 41 168 58 44 172 60 45 170 60 45 155 55 40 161 57 43 157 55 41 157 55 41 164 57 42 172 60 45 164 58 43 162 57 42 161 57 43 155 55 40 173 60 45 131 46 33 174 174 174 185 185 185 184 65 49 175 62 46 166 58 44 153 55 40 164 58 43 
162 57 42 166 58 44 155 56 40 159 55 42 152 53 39 159 56 41 157 55 41 170 59 45 173 61 46 170 60 45 162 56 42 164 58 44 168 58 44 153 54 40 161 57 42 166 58 44 162 57 42 139 49 35 173 174 174 182 182 182 168 59 44 164 58 43 159 56 41 168 58 43 159 55 41 164 58 43 170 61 45 172 60 45 162 57 42 159 56 41 157 55 41 168 59 44 168 59 44 161 55 42 162 57 42 172 60 45 159 56 41 159 57 42 173 61 46 170 60 45 161 58 42 164 58 43 157 55 41 155 54 39 170 60 45 161 57 42 166 58 44 161 56 42 166 58 43 164 58 43 170 58 45 166 58 44 161 57 42 161 56 42 161 56 41 161 57 41 137 48 35 173 173 168 186 186 186 168 59 45 170 60 44 162 57 42 170 60 45 157 55 41 
166 58 44 166 58 43 166 58 44 157 55 41 164 59 42 175 62 46 170 60 45 161 57 42 172 60 45 159 58 42 161 57 42 162 58 43 159 57 41 155 55 40 164 58 44 168 59 44 168 59 44 122 44 31 171 171 171 186 186 185 181 64 48 166 58 44 164 58 43 164 60 44 164 58 43 162 57 42 166 58 44 166 57 42 173 61 46 157 56 42 159 57 41 161 57 42 168 59 44 172 60 45 166 58 44 153 55 39 159 57 42 162 57 42 157 55 41 164 58 43 172 60 45 159 57 42 162 57 43 161 57 42 166 58 44 166 58 44 172 60 45 168 59 44 164 58 43 170 60 45 166 58 44 166 58 44 159 57 42 162 58 43 170 60 45 172 60 45 131 46 33 174 174 174 186 186 186 175 62 46 159 56 41 164 58 43 173 61 46 173 60 45 
161 57 42 166 58 44 168 58 44 164 58 43 161 57 42 161 57 42 155 55 40 162 57 43 159 56 41 155 55 40 164 58 44 161 57 42 166 59 44 172 60 45 159 56 41 162 57 42 155 55 40 133 47 33 173 173 171 183 183 183 177 62 47 164 57 42 172 60 45 164 58 43 164 57 42 168 59 44 164 58 43 164 58 43 168 58 44 157 55 41 164 58 43 157 55 40 159 56 42 162 57 42 172 60 45 155 55 40 168 59 44 166 58 44 157 55 40 172 60 45 161 57 42 153 54 40 173 61 46 153 55 41 168 59 44 164 58 44 170 60 45 162 57 42 161 57 42 157 55 41 164 58 43 157 55 41 157 57 42 175 62 46 164 58 43 159 57 43 128 45 32 171 171 171 185 182 179 181 64 48 159 56 41 166 60 44 162 57 43 168 59 44 
162 57 42 161 57 42 157 55 40 162 57 42 166 58 44 173 60 45 164 58 43 159 57 43 157 56 40 159 56 40 159 56 42 161 57 41 170 59 44 159 56 42 155 57 41 157 56 41 168 58 44 128 44 32 177 177 177 182 182 182 177 61 47 172 60 45 162 57 42 157 56 41 166 58 44 164 57 43 162 57 42 170 60 44 172 59 44 172 60 45 168 59 44 162 55 42 153 54 40 157 56 41 153 54 40 168 59 44 164 57 43 162 57 42 166 58 44 161 55 41 159 56 42 162 57 42 161 57 42 166 58 44 161 57 42 170 60 44 164 58 43 173 61 46 161 57 42 159 56 41 157 55 42 170 60 45 166 58 44 162 57 42 161 57 42 173 61 46 131 47 34 170 171 171 189 189 189 170 60 45 164 58 43 168 59 44 155 55 41 166 58 44 
170 60 45 166 58 42 162 57 42 172 60 45 159 56 41 159 56 41 157 57 42 162 57 42 161 57 42 161 57 42 164 58 43 168 59 44 161 57 42 155 55 40 166 58 44 168 59 44 170 60 44 126 44 31 170 171 170 185 185 185 173 61 46 152 55 39 172 60 45 161 57 42 162 58 43 161 56 41 166 58 42 162 57 42 168 60 43 159 55 41 161 57 42 164 58 43 162 57 42 168 59 44 168 59 44 159 56 41 162 57 42 162 57 42 161 56 42 157 55 41 164 58 43 162 58 42 162 57 42 168 60 44 157 56 41 162 58 42 168 59 44 168 59 44 166 58 44 164 58 43 161 57 42 161 57 42 166 58 44 170 60 45 164 58 43 162 57 42 133 47 34 174 174 174 185 185 188 181 64 49 157 55 41 155 55 41 168 59 44 161 57 42 
131 46 33 135 47 34 135 47 34 141 50 35 139 48 35 122 43 30 130 45 33 124 43 31 137 48 35 126 44 32 126 45 32 126 44 31 137 48 35 137 48 35 135 47 34 131 46 33 131 46 33 128 45 32 176 177 177 183 182 185 172 60 45 131 45 33 139 49 35 122 43 30 133 46 33 126 44 31 128 45 32 128 45 32 142 50 36 124 43 31 126 44 31 131 46 31 128 45 32 135 46 33 131 46 33 137 48 35 131 46 33 137 48 35 126 44 31 131 47 33 131 45 33 137 48 35 133 47 34 130 46 33 135 47 34 128 45 33 128 45 32 122 43 31 128 45 32 126 45 33 124 44 31 131 46 34 131 46 33 135 47 34 139 49 35 135 47 34 130 45 33 173 173 170 183 183 183 173 61 46 133 47 34 137 48 35 133 47 34 131 46 33 
171 171 171 173 173 173 173 173 173 174 174 174 170 170 173 174 170 173 173 174 173 173 173 173 174 176 173 171 171 171 179 180 179 171 171 171 174 174 174 173 171 173 177 177 177 171 167 170 179 176 176 173 174 173 171 171 171 185 185 185 185 185 185 173 173 173 177 177 177 174 174 176 170 170 167 170 170 170 174 171 171 173 173 173 171 171 171 173 174 174 173 173 173 174 174 174 177 177 174 173 173 173 177 177 177 173 173 173 170 170 171 170 165 170 174 174 174 177 177 177 176 176 176 173 173 173 176 176 174 171 171 171 177 177 177 176 176 176 174 174 173 170 173 170 171 171 171 177 177 177 171 171 173 170 170 170 171 171 171 177 174 176 173 173 173 167 165 173 177 177 177 174 168 173 179 183 180 182 182 182 173 173 173 174 174 174 173 171 171 177 177 177 
185 185 185 183 179 180 185 185 185 185 185 185 189 189 189 188 188 188 182 182 180 183 182 182 180 180 180 188 183 186 180 180 180 186 186 183 186 186 189 183 185 186 188 188 188 186 186 186 186 186 186 182 182 182 182 185 183 182 183 182 182 182 183 185 185 183 186 186 186 186 186 186 186 186 186 182 182 182 183 183 183 183 182 185 185 185 182 183 179 179 189 188 188 186 180 186 185 185 180 182 182 182 183 183 183 185 185 185 185 185 185 183 183 183 185 185 185 188 188 188 183 189 186 188 188 188 185 185 185 183 182 180 189 189 189 183 183 183 182 182 182 188 186 186 186 186 186 183 183 183 183 183 183 183 183 183 180 183 183 183 182 183 188 188 188 189 188 188 185 185 185 188 186 188 188 188 188 186 185 185 188 188 188 183 183 183 180 180 180 185 185 185 
188 188 188 186 186 186 179 180 176 189 189 189 188 188 188 180 177 177 177 177 182 183 180 182 188 186 185 176 177 182 180 180 180 182 182 182 186 186 186 183 183 183 188 189 186 182 183 182 189 189 189 186 186 186 189 189 189 180 180 180 182 183 182 188 188 188 185 185 185 186 186 186 180 186 185 188 186 188 185 185 185 188 188 188 183 183 183 188 188 188 182 182 182 180 183 183 189 189 189 185 185 185 185 185 183 180 180 185 183 183 183 185 185 185 189 188 189 185 185 185 176 182 177 185 185 185 183 183 183 186 186 186 185 185 185 188 188 188 185 185 185 183 183 183 185 185 185 186 186 186 185 185 185 189 189 189 189 183 188 180 179 182 186 186 186 180 180 180 188 186 186 182 182 182 185 186 183 189 189 189 182 182 182 186 186 186 182 183 182 182 182 182 
185 185 182 186 186 186 183 180 183 186 185 186 182 179 177 182 182 183 189 189 188 188 188 188 188 188 188 183 183 183 185 186 185 185 183 186 186 185 185 185 185 185 185 186 182 183 183 185 180 180 182 183 183 183 188 188 188 180 179 183 188 188 188 185 185 185 189 189 189 183 183 183 182 183 182 186 186 186 179 185 182 185 185 185 186 186 186 185 185 185 185 185 185 183 185 182 189 189 189 186 186 186 180 182 182 180 183 180 188 185 185 189 186 188 186 186 186 180 182 180 188 188 188 185 185 185 186 188 185 180 179 183 188 188 188 186 186 186 186 188 186 186 188 188 189 188 188 183 183 183 185 186 186 183 183 183 188 188 188 186 186 186 180 180 182 185 186 186 182 180 180 186 186 186 185 182 185 180 180 180 183 182 183 186 182 185 180 177 182 188 186 185 
173 61 46 175 60 45 172 60 45 175 62 46 183 64 48 180 179 182 185 185 185 188 66 48 181 64 48 172 59 44 188 66 50 170 60 44 173 61 46 179 63 47 173 61 46 179 63 47 172 60 45 183 64 48 179 61 46 170 60 45 183 65 49 177 62 47 170 60 45 172 60 45 181 64 47 173 61 46 173 61 46 188 66 50 168 58 44 175 62 46 186 66 50 184 65 49 181 64 48 177 64 47 173 60 46 177 63 47 186 66 50 183 64 48 184 65 49 186 66 49 181 64 48 186 66 50 183 183 183 183 183 183 179 63 47 170 60 45 175 62 46 179 62 46 183 64 48 179 63 47 177 62 47 177 62 47 181 64 48 184 64 48 181 64 47 175 62 47 177 62 46 177 62 46 175 62 46 168 59 44 172 60 45 175 60 45 173 61 46 168 59 44 
161 57 41 164 58 43 166 58 44 170 59 43 126 44 32 177 177 177 189 189 189 175 61 46 157 56 41 170 60 46 159 56 41 161 57 42 159 56 41 159 56 41 170 60 45 164 57 42 166 58 43 162 57 42 172 60 45 159 57 42 161 57 42 166 58 44 164 58 42 166 58 44 168 59 44 155 55 41 172 60 45 166 58 43 173 61 46 162 57 42 162 57 42 159 56 41 164 58 43 166 58 44 157 56 41 168 59 44 162 57 42 172 60 45 164 58 43 162 57 42 168 59 45 131 46 33 177 177 177 188 188 188 168 61 45 168 58 44 166 58 44 166 58 44 157 55 41 164 58 43 166 58 42 162 57 43 168 60 45 166 58 44 164 58 43 164 58 43 168 58 44 168 59 43 161 57 42 162 57 42 172 60 45 175 62 46 166 58 44 166 58 42 
159 56 41 161 57 42 170 60 45 175 62 46 128 45 32 174 174 174 185 185 185 179 62 47 166 58 44 168 58 44 155 55 40 157 55 41 168 59 44 168 58 44 162 58 42 164 57 44 157 56 41 172 60 45 162 57 44 168 59 44 162 58 42 155 55 40 164 58 43 172 60 45 164 58 43 164 58 43 162 58 42 162 57 43 168 59 44 166 58 44 162 58 44 157 55 41 170 60 45 150 53 40 162 58 43 164 58 41 162 57 42 170 60 45 168 58 43 162 57 42 166 58 42 135 47 34 177 177 177 183 183 183 168 59 44 162 57 42 161 57 43 159 56 42 166 58 44 172 60 45 166 58 44 175 62 46 157 55 41 157 55 41 168 58 44 168 59 44 168 59 44 170 60 45 164 58 43 168 59 44 161 57 42 172 60 45 175 62 46 168 60 44 
162 57 42 159 56 41 161 57 42 161 57 42 128 45 32 174 174 174 183 185 182 177 62 47 155 55 40 164 58 43 166 58 44 172 60 45 153 55 40 164 58 43 168 59 44 170 60 44 164 57 43 173 61 46 162 57 42 161 57 42 161 57 42 164 58 43 168 61 45 164 57 42 170 60 45 173 60 46 157 56 41 170 59 45 168 58 44 159 56 41 164 59 43 153 54 40 161 57 42 153 55 41 164 58 43 157 55 41 164 58 44 166 58 43 164 58 42 166 58 44 172 60 45 133 47 33 171 174 173 189 189 189 186 66 50 157 55 41 162 57 41 164 57 42 153 55 39 164 58 43 166 58 43 152 54 39 161 57 42 166 58 44 170 60 45 166 58 44 164 58 42 164 57 44 168 59 44 161 57 42 153 53 40 162 57 43 162 57 42 166 58 44 
157 53 40 161 57 42 155 55 40 159 56 41 126 45 31 170 171 170 186 186 186 179 65 48 168 59 44 172 60 45 170 60 45 159 56 41 166 58 44 164 57 42 164 58 43 153 55 41 153 54 40 166 58 44 170 60 45 159 56 41 159 56 41 162 58 42 164 58 42 162 57 42 168 59 42 157 56 42 172 60 45 161 57 42 155 55 40 164 58 43 157 57 41 173 61 46 157 55 41 162 57 42 161 57 42 162 57 41 162 57 43 144 99 52 144 99 52 144 99 52 144 99 52 144 99 52 144 99 52 144 99 52 144 99 52 144 99 52 144 99 52 144 99 52 144 99 52 144 99 52 144 99 52 144 99 52 144 99 52 144 99 52 144 99 52 144 99 52 144 99 52 144 99 52 144 99 52 144 99 52 144 99 52 144 99 52 144 99 52 144 99 52 
164 58 43 155 55 40 173 60 46 153 54 40 128 46 33 173 173 173 186 186 186 173 61 46 162 57 42 162 57 42 157 55 41 162 57 42 162 56 42 168 59 44 170 60 45 166 58 44 164 58 43 161 57 42 168 59 44 157 55 41 170 60 45 162 57 42 164 58 43 159 56 41 157 55 42 157 57 41 159 57 42 155 55 41 168 59 44 157 55 41 173 61 46 164 58 43 164 58 43 166 58 42 168 60 44 166 60 45 162 58 43 144 99 52 130 91 49 130 91 49 130 91 49 130 91 49 130 91 49 130 91 49 130 91 49 130 91 49 130 91 49 130 91 49 130 91 49 130 91 49 130 91 49 130 91 49 130 91 49 130 91 49 130 91 49 130 91 49 130 91 49 130 91 49 130 91 49 130 91 49 130 91 49 130 91 49 130 91 49 130 91 49 
164 58 43 161 56 42 157 55 41 172 60 45 133 47 34 173 171 174 185 183 182 175 62 46 172 60 45 168 59 44 168 60 45 170 60 45 168 59 44 170 60 45 164 58 43 164 58 43 168 59 44 159 56 41 161 57 41 164 57 42 170 58 44 161 57 42 175 62 46 162 55 41 168 59 44 164 58 43 173 61 46 166 58 44 159 55 41 164 58 43 164 58 43 170 60 45 162 57 42 162 57 42 164 58 44 175 61 46 164 58 43 144 99 52 130 91 49 130 91 49 130 91 49 130 91 49 130 91 49 130 91 49 130 91 49 130 91 49 130 91 49 130 91 49 130 91 49 130 91 49 130 91 49 130 91 49 130 91 49 130 91 49 130 91 49 130 91 49 130 91 49 130 91 49 130 91 49 130 91 49 130 91 49 130 91 49 130 91 49 130 91 49 
168 59 44 162 58 42 157 56 41 157 55 41 124 44 31 177 177 177 186 186 186 184 66 48 159 56 41 166 58 41 166 58 44 168 59 44 161 57 41 172 60 45 168 59 44 164 58 43 173 61 46 161 58 42 159 55 41 162 57 42 162 57 42 161 57 42 166 60 44 164 58 43 170 60 45 155 55 40 168 59 44 170 59 44 153 53 39 168 59 44 166 59 44 172 61 46 166 58 44 173 61 46 161 56 42 157 55 41 164 58 43 144 99 52 130 91 49 130 91 49 130 91 49 130 91 49 130 91 49 130 91 49 130 91 49 130 91 49 130 91 49 130 91 49 130 91 49 130 91 49 130 91 49 130 91 49 130 91 49 130 91 49 130 91 49 130 91 49 130 91 49 130 91 49 130 91 49 130 91 49 130 91 49 130 91 49 130 91 49 130 91 49 
159 56 41 168 58 44 159 56 41 164 57 42 137 48 35 176 176 176 180 185 182 175 62 46 157 55 41 166 58 44 161 57 42 170 61 44 159 56 41 168 58 44 172 60 45 164 58 43 164 58 43 164 58 43 166 58 44 173 61 46 164 58 43 168 59 44 164 60 44 168 60 45 166 58 44 164 57 43 159 56 41 168 59 44 164 58 43 155 55 41 159 56 41 166 58 44 162 57 42 161 56 42 159 56 41 166 58 44 164 58 43 144 99 52 130 91 49 130 91 49 130 91 49 130 91 49 130 91 49 130 91 49 130 91 49 130 91 49 130 91 49 130 91 49 130 91 49 130 91 49 130 91 49 130 91 49 130 91 49 130 91 49 130 91 49 130 91 49 130 91 49 130 91 49 130 91 49 130 91 49 130 91 49 130 91 49 130 91 49 130 91 49 
139 49 35 133 47 34 126 44 31 126 44 31 131 46 33 176 176 176 185 185 185 177 62 47 135 47 34 141 49 36 130 45 33 128 45 32 131 46 33 130 45 33 130 45 34 124 43 31 135 47 34 124 44 31 137 48 35 135 47 34 128 45 33 139 49 35 141 49 36 135 47 34 130 46 33 124 44 31 124 44 32 124 44 31 135 47 34 137 48 35 133 47 34 124 44 31 131 46 33 120 42 30 137 47 33 130 45 33 139 49 35 144 99 52 130 91 49 130 91 49 130 91 49 130 91 49 130 91 49 130 91 49 130 91 49 130 91 49 130 91 49 130 91 49 130 91 49 130 91 49 130 91 49 130 91 49 130 91 49 130 91 49 130 91 49 130 91 49 130 91 49 130 91 49 130 91 49 130 91 49 130 91 49 130 91 49 130 91 49 130 91 49 
170 170 170 179 179 179 177 177 177 173 173 173 177 177 177 174 174 174 185 189 185 188 188 188 168 171 168 173 176 173 173 173 173 174 174 174 176 176 176 176 176 176 170 170 170 173 171 173 170 170 170 173 168 168 176 171 173 171 173 171 174 173 171 171 167 171 176 176 177 177 173 174 179 179 179 174 177 177 176 176 176 170 170 170 168 174 173 173 173 173 173 173 173 170 173 173 177 177 177 174 174 174 170 168 171 173 173 173 177 177 177 144 99 52 130 91 49 130 91 49 130 91 49 130 91 49 130 91 49 130 91 49 130 91 49 130 91 49 130 91 49 130 91 49 130 91 49 130 91 49 130 91 49 130 91 49 130 91 49 130 91 49 130 91 49 130 91 49 130 91 49 130 91 49 130 91 49 130 91 49 130 91 49 130 91 49 130 91 49 130 91 49 
185 185 185 180 180 180 185 185 183 185 185 185 182 180 182 185 185 185 180 185 182 183 182 180 183 183 185 182 182 182 186 186 186 180 182 185 182 183 185 183 183 186 182 183 183 183 183 183 182 177 176 188 186 186 176 180 180 183 183 183 186 186 186 182 177 183 182 182 182 188 188 188 189 189 189 185 185 188 183 183 182 185 183 186 188 182 182 185 185 185 186 186 186 182 182 182 183 183 182 186 186 186 186 186 186 186 186 186 188 188 188 144 99 52 130 91 49 130 91 49 130 91 49 130 91 49 130 91 49 130 91 49 130 91 49 130 91 49 130 91 49 130 91 49 130 91 49 130 91 49 130 91 49 130 91 49 130 91 49 130 91 49 130 91 49 130 91 49 130 91 49 130 91 49 130 91 49 130 91 49 130 91 49 130 91 49 130 91 49 130 91 49 
185 185 185 185 185 185 182 177 180 183 183 183 186 188 186 186 186 186 182 186 185 183 183 183 183 183 183 186 186 186 186 185 185 186 186 186 186 185 188 185 183 183 185 185 185 188 188 188 182 180 183 180 180 180 182 179 183 186 185 186 185 183 180 180 180 180 186 186 186 180 180 182 180 180 180 182 182 180 185 185 185 185 185 186 188 188 188 183 183 183 185 185 185 179 180 179 183 182 183 186 186 186 182 182 180 189 189 189 185 185 185 144 99 52 130 91 49 130 91 49 130 91 49 130 91 49 130 91 49 130 91 49 130 91 49 130 91 49 130 91 49 130 91 49 130 91 49 130 91 49 130 91 49 130 91 49 130 91 49 130 91 49 130 91 49 130 91 49 130 91 49 130 91 49 130 91 49 130 91 49 130 91 49 130 91 49 130 91 49 130 91 49 
177 62 47 181 62 48 179 63 47 177 62 46 177 62 47 172 60 45 170 60 45 173 61 46 168 60 46 177 61 46 179 63 47 177 64 47 183 63 47 184 64 48 166 59 44 172 60 45 175 62 46 183 64 48 172 59 45 183 64 48 177 62 47 183 65 49 172 60 45 188 188 188 185 185 185 166 59 44 175 62 46 183 64 48 181 63 47 179 62 47 173 60 46 168 59 44 168 58 44 170 60 45 172 60 45 183 64 48 170 61 46 144 99 52 130 91 49 130 91 49 130 91 49 130 91 49 130 91 49 130 91 49 130 91 49 130 91 49 130 91 49 130 91 49 130 91 49 130 91 49 130 91 49 130 91 49 130 91 49 130 91 49 130 91 49 130 91 49 130 91 49 130 91 49 130 91 49 130 91 49 130 91 49 130 91 49 130 91 49 130 91 49 
157 56 40 166 58 44 166 58 44 153 54 40 159 56 41 159 56 41 159 58 42 159 56 41 168 59 44 164 58 43 166 58 43 159 57 41 162 55 41 164 58 43 170 60 45 155 55 40 164 58 43 159 57 42 172 60 45 172 61 45 161 57 42 161 57 41 130 45 32 167 173 167 185 179 180 184 65 49 164 58 43 175 61 46 157 55 41 159 56 41 166 58 44 166 58 44 164 58 43 161 57 42 161 57 42 159 56 41 161 58 42 144 99 52 130 91 49 130 91 49 130 91 49 130 91 49 130 91 49 130 91 49 130 91 49 130 91 49 130 91 49 130 91 49 130 91 49 130 91 49 130 91 49 130 91 49 130 91 49 130 91 49 130 91 49 130 91 49 130 91 49 130 91 49 130 91 49 130 91 49 130 91 49 130 91 49 130 91 49 130 91 49 
164 56 42 157 55 41 172 60 45 162 57 42 152 54 40 157 55 41 166 58 43 157 57 41 162 56 42 159 56 41 173 61 45 161 57 42 173 61 46 166 59 44 172 60 45 172 60 45 161 57 42 164 58 44 168 59 44 161 58 42 162 57 42 159 56 40 133 47 34 174 174 174 183 183 183 183 64 48 162 57 42 159 56 41 168 60 45 162 57 42 155 53 39 161 57 42 172 60 46 162 57 42 166 58 44 166 58 42 164 58 43 144 99 52 130 91 49 130 91 49 130 91 49 130 91 49 130 91 49 130 91 49 130 91 49 130 91 49 130 91 49 130 91 49 130 91 49 130 91 49 130 91 49 130 91 49 130 91 49 130 91 49 130 91 49 130 91 49 130 91 49 130 91 49 130 91 49 130 91 49 130 91 49 130 91 49 130 91 49 130 91 49 
161 56 41 173 61 46 166 58 45 164 58 43 159 56 41 166 58 44 159 56 41 164 57 42 155 55 40 170 60 45 173 61 46 170 59 44 164 58 43 175 62 46 159 56 41 161 57 44 164 58 43 162 57 42 164 58 43 157 55 41 168 59 44 172 60 45 141 49 36 176 176 176 186 186 185 181 64 48 173 61 46 159 57 43 175 62 46 164 58 43 162 57 44 162 58 43 155 56 40 161 57 42 159 55 41 164 58 43 168 59 44 144 99 52 130 91 49 130 91 49 130 91 49 130 91 49 130 91 49 130 91 49 130 91 49 130 91 49 130 91 49 130 91 49 130 91 49 130 91 49 130 91 49 130 91 49 130 91 49 130 91 49 130 91 49 130 91 49 130 91 49 130 91 49 130 91 49 130 91 49 130 91 49 130 91 49 130 91 49 130 91 49 
168 58 44 157 54 39 159 57 41 155 55 40 168 59 44 161 57 42 172 61 45 168 59 44 155 55 40 172 60 45 155 55 40 159 57 41 153 54 40 162 57 42 157 57 42 164 58 43 155 55 40 164 58 43 161 57 42 175 61 46 166 58 44 168 59 44 130 45 33 173 173 173 186 186 186 166 58 44 168 59 44 159 56 41 162 57 42 164 58 43 161 57 42 161 57 42 155 53 41 161 57 42 173 61 46 170 61 45 168 59 45 144 99 52 130 91 49 130 91 49 130 91 49 130 91 49 130 91 49 130 91 49 130 91 49 130 91 49 130 91 49 130 91 49 130 91 49 130 91 49 130 91 49 130 91 49 130 91 49 130 91 49 130 91 49 130 91 49 130 91 49 130 91 49 130 91 49 130 91 49 130 91 49 130 91 49 130 91 49 130 91 49 
162 56 41 164 58 43 170 60 45 162 57 42 155 55 40 164 58 44 159 57 41 162 57 43 161 56 42 162 57 42 173 60 46 170 60 45 166 57 44 161 57 42 161 57 42 155 55 40 161 57 42 159 55 41 166 59 44 170 60 45 164 58 44 162 57 43 128 45 32 173 174 171 185 182 182 168 59 45 173 61 46 166 58 44 159 56 41 161 57 42 166 58 44 172 60 45 155 54 40 159 56 41 155 55 40 161 57 42 161 57 42 144 99 52 130 91 49 130 91 49 130 91 49 130 91 49 130 91 49 130 91 49 130 91 49 130 91 49 130 91 49 130 91 49 130 91 49 130 91 49 130 91 49 130 91 49 130 91 49 130 91 49 130 91 49 130 91 49 130 91 49 130 91 49 130 91 49 130 91 49 130 91 49 130 91 49 130 91 49 130 91 49 
170 60 45 164 58 43 168 59 44 162 57 42 168 59 44 159 56 41 159 56 41 159 56 42 166 58 44 155 55 41 173 61 46 162 57 42 162 57 41 168 59 44 162 57 42 166 58 44 161 55 40 161 57 42 168 59 44 159 56 41 162 56 43 162 58 44 135 47 34 177 177 177 188 186 186 175 62 46 162 57 42 166 58 44 157 55 40 159 55 41 164 57 42 157 55 41 162 57 42 162 57 42 161 57 42 168 59 44 164 57 43 144 99 52 130 91 49 130 91 49 130 91 49 130 91 49 130 91 49 130 91 49 130 91 49 130 91 49 130 91 49 130 91 49 130 91 49 130 91 49 130 91 49 130 91 49 130 91 49 130 91 49 130 91 49 130 91 49 130 91 49 130 91 49 130 91 49 130 91 49 130 91 49 130 91 49 130 91 49 130 91 49 
161 55 42 161 57 42 157 55 40 161 57 42 159 56 41 172 60 45 175 60 46 166 58 44 172 60 45 162 57 42 153 55 40 168 59 44 168 59 44 152 54 40 173 61 46 157 55 41 168 59 44 164 58 43 172 59 45 159 57 42 157 55 41 164 58 43 139 49 35 177 174 176 183 185 186 186 66 50 170 60 45 164 58 43 161 57 42 173 62 46 161 57 41 170 60 45 166 58 44 164 58 44 164 58 43 162 58 43 173 61 46 144 99 52 130 91 49 130 91 49 130 91 49 130 91 49 130 91 49 130 91 49 130 91 49 130 91 49 130 91 49 130 91 49 130 91 49 130 91 49 130 91 49 130 91 49 130 91 49 130 91 49 130 91 49 130 91 49 130 91 49 130 91 49 130 91 49 130 91 49 130 91 49 130 91 49 130 91 49 130 91 49 
173 61 46 173 61 46 161 57 43 166 58 44 162 57 43 157 55 39 166 58 44 159 56 41 170 60 45 166 58 44 175 62 46 159 58 42 173 60 46 162 57 42 155 55 40 173 61 46 161 57 42 155 55 41 166 58 44 159 56 41 164 58 43 157 55 41 130 45 33 174 173 173 180 180 180 177 62 48 155 55 41 173 60 45 168 59 44 164 58 42 164 58 43 168 59 44 164 58 43 161 57 42 159 56 41 157 55 41 168 59 44 144 99 52 130 91 49 130 91 49 130 91 49 130 91 49 130 91 49 130 91 49 130 91 49 130 91 49 130 91 49 130 91 49 130 91 49 130 91 49 130 91 49 130 91 49 130 91 49 130 91 49 130 91 49 130 91 49 130 91 49 130 91 49 130 91 49 130 91 49 130 91 49 130 91 49 130 91 49 130 91 49 
128 45 32 139 48 35 133 47 34 130 45 33 133 47 34 135 47 34 120 42 30 133 46 34 126 44 31 130 45 33 128 45 32 130 46 33 137 48 35 124 44 31 135 47 34 131 46 33 135 47 34 126 44 31 137 48 35 115 42 29 130 45 32 130 45 32 124 43 31 173 171 168 182 182 182 172 61 46 139 49 35 122 43 30 137 48 35 137 48 35 120 41 29 133 47 34 133 47 34 131 46 33 122 43 30 131 47 34 135 47 34 144 99 52 130 91 49 130 91 49 130 91 49 130 91 49 130 91 49 130 91 49 130 91 49 130 91 49 130 91 49 130 91 49 130 91 49 130 91 49 130 91 49 130 91 49 130 91 49 130 91 49 130 91 49 130 91 49 130 91 49 101 92 82 101 92 82 101 92 82 101 92 82 101 92 82 130 91 49 130 91 49 
177 179 179 177 177 177 176 176 176 174 171 173 173 171 174 173 173 173 173 173 173 171 173 174 173 173 173 176 174 173 173 173 173 177 177 177 173 168 168 173 176 174 179 179 179 170 167 170 174 176 173 177 177 177 176 176 176 177 177 177 173 170 171 168 167 171 171 171 173 177 174 177 182 182 182 183 183 183 171 174 173 170 167 173 176 176 176 174 174 174 171 170 170 173 171 173 170 170 170 176 174 171 174 174 174 173 173 173 170 171 171 144 99 52 130 91 49 130 91 49 130 91 49 130 91 49 130 91 49 130 91 49 130 91 49 130 91 49 130 91 49 130 91 49 130 91 49 130 91 49 130 91 49 130 91 49 130 91 49 130 91 49 130 91 49 130 91 49 130 91 49 101 92 82 101 92 82 101 92 82 101 92 82 101 92 82 108 75 39 130 91 49 
183 185 180 182 182 182 185 185 185 183 177 183 183 180 179 185 185 185 186 188 182 180 182 180 183 183 182 186 186 186 185 185 185 185 185 185 186 186 186 183 183 183 183 186 185 182 179 182 189 186 189 188 188 188 186 186 186 189 189 189 186 186 186 183 182 183 183 185 185 185 188 186 186 186 186 185 185 185 183 183 185 185 183 183 186 186 186 185 183 186 180 180 180 185 185 185 183 180 180 186 186 188 185 185 185 179 183 180 186 186 188 144 99 52 130 91 49 130 91 49 130 91 49 130 91 49 130 91 49 130 91 49 130 91 49 130 91 49 130 91 49 130 91 49 130 91 49 130 91 49 130 91 49 130 91 49 130 91 49 130 91 49 130 91 49 130 91 49 130 91 49 101 92 82 101 92 82 101 92 82 101 92 82 101 92 82 108 75 39 130 91 49 
189 186 189 185 183 185 185 182 183 180 180 180 182 177 176 185 183 180 182 182 182 183 177 183 182 182 182 183 183 183 183 183 182 182 182 182 183 185 186 188 188 188 186 186 186 189 183 188 183 183 183 185 186 185 188 188 188 188 188 189 179 180 179 186 186 186 182 182 182 180 179 177 185 177 179 185 188 182 186 183 179 186 186 186 183 180 183 180 179 180 179 182 183 185 185 185 182 182 180 183 183 185 180 182 177 183 183 182 188 188 188 144 99 52 130 91 49 130 91 49 130 91 49 130 91 49 130 91 49 130 91 49 130 91 49 130 91 49 130 91 49 130 91 49 130 91 49 130 91 49 130 91 49 130 91 49 130 91 49 130 91 49 130 91 49 130 91 49 130 91 49 101 92 82 101 92 82 101 92 82 101 92 82 101 92 82 108 75 39 130 91 49 
181 64 48 173 61 46 172 60 45 173 61 46 177 62 47 172 61 45 177 61 46 181 64 48 175 62 46 177 62 48 188 188 188 180 180 180 177 62 47 181 64 48 181 64 48 179 63 47 181 64 48 181 64 48 181 64 48 175 60 46 170 60 45 179 62 49 179 63 47 183 64 48 177 62 47 173 62 46 172 60 45 172 60 45 181 63 47 188 66 50 173 62 46 183 64 48 170 60 45 168 58 45 177 62 47 181 64 48 183 65 49 144 99 52 130 91 49 130 91 49 130 91 49 130 91 49 130 91 49 130 91 49 130 91 49 130 91 49 130 91 49 130 91 49 130 91 49 130 91 49 130 91 49 130 91 49 130 91 49 130 91 49 130 91 49 130 91 49 130 91 49 101 92 82 101 92 82 101 92 82 101 92 82 101 92 82 108 75 39 130 91 49 
170 60 45 159 56 41 164 58 43 164 58 43 166 58 44 155 55 40 164 60 45 164 58 43 155 55 40 128 45 31 176 176 176 183 183 182 177 62 47 157 55 41 155 55 40 164 58 43 168 59 44 155 55 40 162 57 42 159 57 41 166 58 44 164 58 43 162 57 42 159 56 41 170 60 45 166 58 44 159 56 41 153 56 41 157 56 41 170 60 45 159 56 41 164 58 43 157 55 41 166 58 44 175 62 46 168 59 44 166 59 44 144 99 52 130 91 49 130 91 49 130 91 49 130 91 49 130 91 49 130 91 49 130 91 49 130 91 49 130 91 49 130 91 49 130 91 49 130 91 49 130 91 49 130 91 49 130 91 49 130 91 49 130 91 49 130 91 49 130 91 49 130 91 49 108 75 39 108 75 39 108 75 39 108 75 39 108 75 39 130 91 49 
170 60 45 166 58 44 164 57 42 166 58 44 168 59 44 164 58 43 164 58 43 166 58 44 170 60 45 126 44 32 168 171 171 186 188 186 164 58 44 166 58 43 166 58 44 166 58 44 164 58 43 168 58 44 168 61 45 157 55 41 161 57 42 162 57 42 161 57 42 170 59 45 161 57 42 170 60 45 172 61 46 162 58 44 172 60 45 170 60 45 173 61 46 159 55 42 161 57 42 170 58 44 164 57 42 148 53 40 157 56 41 144 99 52 130 91 49 130 91 49 130 91 49 130 91 49 130 91 49 130 91 49 130 91 49 130 91 49 130 91 49 130 91 49 130 91 49 130 91 49 130 91 49 130 91 49 130 91 49 130 91 49 130 91 49 130 91 49 130 91 49 130 91 49 130 91 49 130 91 49 130 91 49 130 91 49 130 91 49 130 91 49 
159 57 42 173 61 46 168 61 46 173 61 46 162 57 42 166 58 44 159 56 41 164 58 42 150 53 40 135 47 34 173 173 173 188 188 188 175 63 47 159 57 41 173 62 46 161 57 42 162 58 43 162 57 42 166 58 44 168 57 44 159 56 41 164 58 43 157 55 41 162 57 42 166 58 42 168 59 44 168 59 44 161 57 42 157 56 41 155 55 40 164 57 42 161 57 42 157 55 41 161 57 42 172 60 45 172 59 45 166 57 43 144 99 52 130 91 49 130 91 49 130 91 49 130 91 49 130 91 49 130 91 49 130 91 49 130 91 49 130 91 49 130 91 49 130 91 49 130 91 49 130 91 49 130 91 49 130 91 49 130 91 49 130 91 49 130 91 49 130 91 49 130 91 49 130 91 49 130 91 49 130 91 49 130 91 49 130 91 49 130 91 49 
170 60 44 161 57 43 153 54 40 153 54 40 155 56 41 161 57 42 157 55 41 172 60 45 164 58 43 133 46 33 171 170 170 183 183 183 181 64 47 157 55 41 162 57 42 164 58 43 161 57 42 155 55 40 162 58 43 159 57 41 159 57 43 159 57 42 164 58 43 170 59 45 164 58 43 168 58 43 161 57 42 164 58 43 159 56 41 153 54 40 164 58 43 173 60 46 166 58 44 157 55 40 157 55 41 159 57 41 164 58 45 144 99 52 130 91 49 130 91 49 130 91 49 130 91 49 130 91 49 130 91 49 130 91 49 130 91 49 130 91 49 130 91 49 130 91 49 130 91 49 130 91 49 130 91 49 130 91 49 130 91 49 130 91 49 130 91 49 130 91 49 130 91 49 130 91 49 130 91 49 130 91 49 130 91 49 130 91 49 130 91 49 
170 60 45 166 58 44 152 55 40 168 60 44 168 59 45 161 56 42 159 56 41 157 55 41 155 55 41 122 43 30 173 173 174 182 180 182 179 63 47 166 59 44 166 58 44 166 58 44 157 55 41 172 60 45 166 58 44 168 59 44 172 60 45 159 57 42 164 58 43 164 58 43 161 58 42 162 57 42 166 58 44 166 58 44 166 58 44 155 55 40 159 56 41 170 60 45 159 56 41 168 59 44 159 56 41 159 56 41 155 55 41 144 99 52 130 91 49 130 91 49 130 91 49 130 91 49 130 91 49 130 91 49 130 91 49 130 91 49 130 91 49 130 91 49 130 91 49 130 91 49 130 91 49 130 91 49 130 91 49 130 91 49 130 91 49 130 91 49 130 91 49 130 91 49 130 91 49 130 91 49 130 91 49 130 91 49 130 91 49 130 91 49 
164 58 43 166 58 44 168 59 44 161 57 43 170 59 45 164 58 43 170 60 45 159 56 41 161 57 42 133 47 34 170 170 170 188 188 188 175 63 47 159 56 41 152 54 40 166 58 44 170 60 45 164 58 42 166 58 44 153 54 40 164 58 43 164 58 44 164 57 42 168 59 44 164 58 43 164 58 44 162 57 42 162 57 42 170 60 45 162 57 42 159 56 41 170 60 46 162 57 42 161 57 41 175 62 46 162 57 42 155 55 40 144 99 52 130 91 49 130 91 49 130 91 49 130 91 49 130 91 49 130 91 49 130 91 49 130 91 49 130 91 49 130 91 49 130 91 49 130 91 49 130 91 49 130 91 49 130 91 49 130 91 49 130 91 49 130 91 49 130 91 49 130 91 49 130 91 49 130 91 49 130 91 49 130 91 49 130 91 49 130 91 49 
155 55 41 166 58 44 164 58 43 162 58 44 159 56 41 153 54 40 157 55 40 157 55 41 168 58 44 131 46 33 174 173 173 185 185 185 175 62 46 157 55 40 159 56 41 157 57 42 155 55 40 168 59 44 162 57 42 170 59 45 159 56 41 175 60 46 170 60 45 162 57 42 161 55 41 161 57 41 161 57 41 164 58 43 161 57 42 162 57 43 173 61 46 168 58 42 161 57 42 166 58 44 166 58 44 164 58 42 159 56 41 144 99 52 130 91 49 130 91 49 130 91 49 130 91 49 130 91 49 130 91 49 130 91 49 130 91 49 130 91 49 130 91 49 130 91 49 130 91 49 130 91 49 130 91 49 130 91 49 130 91 49 130 91 49 130 91 49 130 91 49 130 91 49 130 91 49 130 91 49 130 91 49 130 91 49 130 91 49 130 91 49 
162 57 42 162 57 42 166 58 44 164 58 43 161 57 42 162 57 42 170 60 45 162 57 42 162 56 42 137 48 35 179 179 179 183 183 185 179 62 48 170 60 45 164 58 42 162 59 44 161 57 42 166 58 44 166 58 44 172 60 45 157 56 40 162 57 42 162 57 42 161 57 43 161 57 42 159 56 41 168 59 45 172 60 45 162 57 42 170 60 45 164 58 43 164 58 44 162 57 42 161 57 42 166 58 44 153 55 40 162 58 42 144 99 52 130 91 49 130 91 49 130 91 49 130 91 49 130 91 49 130 91 49 130 91 49 130 91 49 130 91 49 130 91 49 130 91 49 130 91 49 130 91 49 130 91 49 130 91 49 130 91 49 130 91 49 130 91 49 130 91 49 130 91 49 130 91 49 130 91 49 130 91 49 130 91 49 130 91 49 130 91 49 
130 45 33 128 45 32 126 44 31 128 45 32 130 45 33 131 46 33 137 48 35 122 43 30 141 49 36 135 48 35 171 171 173 185 185 185 173 60 45 126 45 31 135 47 34 133 47 34 139 49 35 131 46 33 122 43 30 141 49 36 135 47 34 124 44 31 130 45 32 131 46 33 133 47 34 133 47 34 133 47 34 130 45 33 135 47 34 130 45 32 130 45 33 122 43 30 137 49 35 131 46 33 126 44 31 130 45 33 124 44 31 144 99 52 130 91 49 130 91 49 130 91 49 130 91 49 130 91 49 130 91 49 130 91 49 130 91 49 130 91 49 130 91 49 130 91 49 130 91 49 130 91 49 130 91 49 130 91 49 130 91 49 130 91 49 130 91 49 130 91 49 130 91 49 130 91 49 130 91 49 130 91 49 130 91 49 130 91 49 130 91 49 
170 170 168 179 179 179 173 173 173 173 174 176 171 171 171 176 176 176 174 174 174 171 173 168 168 167 171 171 174 171 168 168 167 185 185 186 183 183 183 179 179 179 170 170 170 174 171 170 174 176 173 171 173 171 176 176 176 176 176 176 176 176 176 174 174 174 170 170 170 176 176 176 174 168 171 179 179 179 179 179 179 173 173 173 179 179 179 174 174 176 176 176 176 174 171 173 171 174 170 171 176 171 177 177 177 176 176 176 170 171 171 144 99 52 130 91 49 130 91 49 130 91 49 130 91 49 130 91 49 130 91 49 130 91 49 130 91 49 130 91 49 130 91 49 130 91 49 130 91 49 130 91 49 130 91 49 130 91 49 130 91 49 130 91 49 130 91 49 130 91 49 130 91 49 130 91 49 130 91 49 130 91 49 130 91 49 130 91 49 130 91 49 
183 180 180 186 186 186 180 180 180 183 183 183 186 185 186 182 179 182 185 185 185 188 188 188 183 183 183 183 183 183 179 179 182 188 188 188 185 185 183 185 185 185 188 185 185 177 183 185 183 183 183 188 188 188 186 186 186 185 185 185 188 188 188 182 182 182 185 185 185 186 186 185 183 183 182 185 185 185 188 188 188 185 186 186 188 188 188 182 182 182 179 180 180 182 182 182 182 182 182 185 185 185 182 182 182 186 183 186 185 185 185 144 99 52 130 91 49 130 91 49 130 91 49 130 91 49 130 91 49 130 91 49 130 91 49 130 91 49 130 91 49 130 91 49 130 91 49 130 91 49 130 91 49 130 91 49 130 91 49 130 91 49 130 91 49 130 91 49 130 91 49 130 91 49 130 91 49 130 91 49 130 91 49 130 91 49 130 91 49 130 91 49 
186 186 186 180 183 180 182 183 182 188 188 188 188 188 188 186 188 188 183 183 183 183 183 183 183 183 183 177 182 179 179 183 177 189 189 189 185 185 185 186 186 186 186 186 186 185 183 186 183 183 183 189 189 189 189 189 189 185 185 185 185 185 185 185 185 185 188 188 188 183 183 183 186 183 180 182 182 185 186 186 186 182 182 182 186 186 186 188 188 188 188 188 188 188 188 188 180 180 180 188 188 188 183 188 185 183 183 182 182 183 183 144 99 52 130 91 49 130 91 49 130 91 49 130 91 49 130 91 49 130 91 49 130 91 49 130 91 49 130 91 49 130 91 49 130 91 49 130 91 49 130 91 49 130 91 49 130 91 49 130 91 49 130 91 49 130 91 49 130 91 49 130 91 49 130 91 49 130 91 49 130 91 49 130 91 49 130 91 49 130 91 49 
183 183 183 180 180 180 183 183 183 186 186 186 183 182 183 185 185 185 186 186 186 183 177 182 185 185 185 185 188 185 189 189 189 185 185 185 185 185 185 183 183 183 188 188 188 186 186 186 185 179 185 186 186 186 186 186 186 182 183 185 183 185 183 174 177 180 182 182 182 183 182 183 185 183 183 188 188 188 180 182 180 182 185 182 183 180 183 183 185 179 183 183 183 186 186 186 177 174 182 185 185 185 186 186 186 182 182 182 182 180 182 144 99 52 130 91 49 130 91 49 130 91 49 130 91 49 130 91 49 130 91 49 130 91 49 130 91 49 130 91 49 130 91 49 130 91 49 130 91 49 130 91 49 130 91 49 130 91 49 130 91 49 130 91 49 130 91 49 130 91 49 130 91 49 130 91 49 130 91 49 130 91 49 130 91 49 130 91 49 130 91 49 
170 62 45 170 60 45 179 63 47 177 63 47 172 63 47 186 65 49 172 62 46 175 62 46 175 62 45 179 63 47 177 62 47 172 60 45 179 63 47 173 61 46 183 64 48 175 62 46 166 58 45 173 61 46 175 62 46 183 64 47 175 62 45 181 64 48 183 64 48 170 62 46 175 62 46 168 59 45 183 183 183 186 186 185 177 64 48 179 63 47 166 58 44 181 63 47 179 63 47 172 60 45 173 61 46 173 61 45 179 63 47 144 99 52 130 91 49 130 91 49 130 91 49 130 91 49 130 91 49 130 91 49 130 91 49 130 91 49 130 91 49 130 91 49 130 91 49 130 91 49 130 91 49 130 91 49 130 91 49 130 91 49 130 91 49 130 91 49 130 91 49 130 91 49 130 91 49 130 91 49 130 91 49 130 91 49 130 91 49 130 91 49 
162 57 42 161 56 41 168 59 44 166 58 44 155 57 41 161 57 42 164 58 43 170 60 45 170 60 45 162 57 42 162 57 42 155 54 40 170 60 45 170 60 45 168 58 45 159 56 41 162 57 42 175 62 46 168 59 45 157 55 41 155 55 40 164 58 43 173 61 46 162 58 42 157 55 41 137 48 35 174 174 174 185 185 185 175 62 46 166 58 44 162 57 42 164 58 43 170 60 45 168 61 45 162 57 42 166 58 43 164 58 43 144 99 52 130 91 49 130 91 49 130 91 49 130 91 49 130 91 49 130 91 49 130 91 49 130 91 49 130 91 49 130 91 49 130 91 49 130 91 49 130 91 49 130 91 49 130 91 49 130 91 49 130 91 49 130 91 49 130 91 49 130 91 49 130 91 49 130 91 49 130 91 49 130 91 49 130 91 49 130 91 49 
164 58 43 162 58 42 161 57 41 168 58 44 162 58 42 166 57 42 162 57 42 172 60 45 157 54 41 168 59 44 166 58 44 162 57 42 155 55 41 155 55 40 161 57 42 164 58 43 162 57 42 164 58 43 168 59 44 168 59 44 164 58 43 162 57 42 162 56 42 170 60 45 159 56 42 130 47 33 176 176 176 179 179 182 173 60 45 162 57 42 157 57 42 164 58 43 162 56 42 166 58 44 162 57 42 164 58 43 162 57 42 144 99 52 130 91 49 130 91 49 130 91 49 130 91 49 130 91 49 130 91 49 130 91 49 130 91 49 130 91 49 130 91 49 130 91 49 130 91 49 130 91 49 130 91 49 130 91 49 130 91 49 130 91 49 130 91 49 130 91 49 130 91 49 130 91 49 130 91 49 130 91 49 130 91 49 130 91 49 130 91 49 
162 57 42 173 61 46 159 57 41 170 60 45 168 59 44 170 60 45 161 57 42 170 60 45 168 60 45 166 58 44 161 57 42 164 58 43 170 60 45 166 58 44 164 58 43 166 58 44 162 58 43 166 58 44 166 58 44 159 56 42 155 55 40 162 58 44 170 60 45 175 61 46 162 58 44 131 47 34 174 174 174 186 186 186 175 62 46 159 56 41 162 57 42 161 57 42 162 57 42 159 56 41 168 59 44 162 57 42 157 55 41 144 99 52 130 91 49 130 91 49 130 91 49 130 91 49 130 91 49 130 91 49 130 91 49 130 91 49 130 91 49 130 91 49 130 91 49 130 91 49 130 91 49 130 91 49 130 91 49 130 91 49 130 91 49 130 91 49 130 91 49 130 91 49 130 91 49 130 91 49 130 91 49 130 91 49 130 91 49 130 91 49 
161 57 42 161 57 42 162 57 42 159 58 41 155 56 41 166 58 44 173 60 46 159 56 42 164 58 42 162 57 42 157 55 41 159 55 41 166 58 44 161 57 42 164 58 43 162 58 43 172 60 45 164 57 43 162 57 42 157 55 41 159 55 42 162 57 42 159 56 41 164 58 43 159 56 41 139 47 35 174 174 174 183 183 183 170 58 45 161 57 42 159 56 41 159 55 41 168 58 44 170 59 45 159 56 41 164 58 43 162 57 42 144 99 52 130 91 49 130 91 49 130 91 49 130 91 49 130 91 49 130 91 49 130 91 49 130 91 49 130 91 49 130 91 49 130 91 49 130 91 49 130 91 49 130 91 49 130 91 49 130 91 49 130 91 49 130 91 49 130 91 49 130 91 49 130 91 49 130 91 49 130 91 49 130 91 49 130 91 49 130 91 49 
161 57 42 172 60 45 172 60 45 166 58 44 159 56 41 161 57 42 166 58 44 166 58 44 161 57 42 159 56 41 166 58 44 161 55 42 166 60 45 166 59 43 162 57 42 164 58 43 166 58 44 172 60 45 161 56 41 162 58 43 155 55 40 159 56 41 168 60 45 162 57 42 175 62 46 133 47 34 174 174 174 188 188 188 175 61 46 168 59 44 161 57 42 161 57 42 157 56 41 166 59 44 172 60 45 155 55 40 162 57 42 144 99 52 130 91 49 130 91 49 130 91 49 130 91 49 130 91 49 130 91 49 130 91 49 130 91 49 130 91 49 130 91 49 130 91 49 130 91 49 130 91 49 130 91 49 130 91 49 130 91 49 130 91 49 130 91 49 130 91 49 130 91 49 130 91 49 130 91 49 130 91 49 130 91 49 130 91 49 130 91 49 
168 61 45 164 58 43 173 61 46 168 59 44 164 58 43 159 55 42 161 57 42 172 60 45 166 58 44 159 55 40 166 59 44 168 58 44 164 58 43 166 59 43 166 57 44 161 57 42 166 58 44 155 55 40 155 54 41 164 57 42 173 61 46 159 55 41 166 58 44 161 57 42 159 56 41 122 43 30 173 173 173 188 188 188 183 64 48 159 56 41 159 56 41 166 59 44 172 60 45 168 59 44 170 60 44 166 59 44 175 62 46 144 99 52 130 91 49 130 91 49 130 91 49 130 91 49 130 91 49 130 91 49 130 91 49 130 91 49 130 91 49 130 91 49 130 91 49 130 91 49 130 91 49 130 91 49 130 91 49 130 91 49 130 91 49 130 91 49 130 91 49 130 91 49 130 91 49 130 91 49 130 91 49 130 91 49 130 91 49 130 91 49 
170 59 44 170 60 45 164 58 43 170 60 46 159 56 41 172 61 45 159 57 42 172 60 45 173 61 46 157 55 41 164 58 43 161 57 42 166 58 44 161 57 42 162 56 42 166 58 44 161 57 42 159 56 41 153 53 40 172 59 44 170 60 45 170 60 45 161 57 42 162 58 43 166 58 44 128 45 32 174 174 174 185 183 183 181 64 48 166 58 44 162 57 42 164 58 43 166 58 44 161 57 42 157 55 41 159 57 42 166 58 44 144 99 52 130 91 49 130 91 49 130 91 49 130 91 49 130 91 49 130 91 49 130 91 49 130 91 49 130 91 49 130 91 49 130 91 49 130 91 49 130 91 49 130 91 49 130 91 49 130 91 49 130 91 49 130 91 49 130 91 49 130 91 49 130 91 49 130 91 49 130 91 49 130 91 49 130 91 49 130 91 49 
168 58 44 170 60 45 164 59 44 161 57 42 157 55 41 159 57 42 166 58 45 170 60 45 157 55 41 173 60 45 155 55 41 161 57 41 164 58 43 162 58 42 162 57 42 170 60 45 168 59 44 166 58 44 166 59 44 166 58 44 166 58 44 162 58 43 166 58 44 164 58 43 168 60 45 126 44 31 174 174 174 182 185 183 179 65 49 162 57 42 159 56 41 173 58 46 159 56 41 153 55 40 166 58 44 166 58 44 170 60 45 144 99 52 130 91 49 130 91 49 130 91 49 130 91 49 130 91 49 130 91 49 130 91 49 130 91 49 130 91 49 130 91 49 130 91 49 130 91 49 130 91 49 130 91 49 130 91 49 130 91 49 130 91 49 130 91 49 130 91 49 130 91 49 130 91 49 130 91 49 130 91 49 130 91 49 130 91 49 130 91 49 
139 49 35 135 47 34 126 46 32 122 43 30 137 48 35 135 47 34 131 46 33 135 47 34 131 46 33 128 45 32 133 48 35 133 47 34 131 46 34 133 47 34 130 45 33 131 46 33 133 47 34 124 44 31 128 45 33 128 45 33 130 46 32 124 44 31 130 46 33 126 44 31 137 48 35 131 45 33 170 170 170 186 186 186 175 62 46 135 47 34 131 46 33 141 50 36 130 45 33 137 47 35 128 45 32 131 46 33 131 46 33 144 99 52 130 91 49 130 91 49 130 91 49 130 91 49 130 91 49 130 91 49 130 91 49 130 91 49 130 91 49 130 91 49 130 91 49 130 91 49 130 91 49 130 91 49 130 91 49 130 91 49 130 91 49 130 91 49 130 91 49 130 91 49 130 91 49 130 91 49 130 91 49 130 91 49 130 91 49 130 91 49 
