P3
64 64
255
0 0 0 0 0 0 0 0 0 0 0 0 0 0 0 0 0 0 0 0 0 0 0 0 0 0 0 0 0 0 0 0 0 0 0 0 0 0 0 0 0 0 0 0 0 0 0 0 0 0 0 0 0 0 0 0 0 0 0 0 0 0 0 0 0 0 0 0 0 0 0 0 0 0 0 0 0 0 0 0 0 0 0 0 0 0 0 0 0 0 0 0 0 0 0 0 0 0 0 0 0 0 0 0 0 0 0 0 0 0 0 0 0 0 0 0 0 0 0 0 0 0 0 0 0 0 0 0 0 0 0 0 0 0 0 0 0 0 0 0 0 0 0 0 0 0 0 0 0 0 0 0 0 0 0 0 0 0 0 0 0 0 0 0 0 0 0 0 0 0 0 0 0 0 0 0 0 0 0 0 0 0 0 0 0 0 0 0 0 0 0 0 
0 0 0 111 111 111 111 111 111 111 111 111 111 111 111 111 111 111 111 111 111 111 111 111 111 111 111 111 111 111 111 111 111 111 111 111 111 111 111 0 0 0 145 145 145 145 145 145 145 145 145 145 145 145 145 145 145 145 145 145 145 145 145 0 0 0 241 241 241 241 241 241 241 241 241 241 241 241 241 241 241 241 241 241 241 241 241 241 241 241 228 228 228 228 228 228 218 218 218 218 218 218 0 0 0 115 115 115 115 115 115 115 115 115 115 115 115 0 0 0 143 143 143 143 143 143 143 143 143 143 143 143 143 143 143 143 143 143 143 143 143 143 143 143 143 143 143 0 0 0 153 153 153 153 153 153 153 153 153 153 153 153 153 153 153 153 153 153 153 153 153 153 153 153 0 0 0 237 237 237 237 237 237 237 237 237 237 237 237 0 0 0 
0 0 0 111 111 111 111 111 111 111 111 111 104 104 104 104 104 104 104 104 104 104 104 104 104 104 104 104 104 104 111 111 111 111 111 111 111 111 111 0 0 0 145 145 145 145 145 145 145 145 145 135 135 135 135 135 135 145 145 145 145 145 145 145 145 145 0 0 0 241 241 241 241 241 241 228 228 228 228 228 228 228 228 228 228 228 228 218 218 218 218 218 218 218 218 218 0 0 0 0 0 0 115 115 115 115 115 115 115 115 115 115 115 115 0 0 0 143 143 143 143 143 143 143 143 143 118 118 118 118 118 118 118 118 118 118 118 118 118 118 118 118 118 118 118 118 118 0 0 0 153 153 153 153 153 153 153 153 153 153 153 153 153 153 153 153 153 153 153 153 153 153 153 153 153 153 153 0 0 0 0 0 0 237 237 237 237 237 237 0 0 0 
0 0 0 111 111 111 111 111 111 104 104 104 104 104 104 104 104 104 104 104 104 104 104 104 104 104 104 104 104 104 104 104 104 104 104 104 0 0 0 145 145 145 145 145 145 145 145 145 135 135 135 135 135 135 135 135 135 135 135 135 135 135 135 145 145 145 145 145 145 0 0 0 228 228 228 228 228 228 228 228 228 228 228 228 218 218 218 218 218 218 0 0 0 0 0 0 115 115 115 115 115 115 115 115 115 93 93 93 93 93 93 93 93 93 0 0 0 143 143 143 143 143 143 118 118 118 118 118 118 118 118 118 118 118 118 118 118 118 118 118 118 118 118 118 118 118 118 0 0 0 153 153 153 153 153 153 132 132 132 132 132 132 132 132 132 153 153 153 153 153 153 153 153 153 153 153 153 153 153 153 132 132 132 0 0 0 237 237 237 0 0 0 
0 0 0 111 111 111 111 111 111 104 104 104 104 104 104 104 104 104 104 104 104 104 104 104 104 104 104 104 104 104 104 104 104 104 104 104 0 0 0 145 145 145 145 145 145 135 135 135 135 135 135 135 135 135 135 135 135 135 135 135 135 135 135 135 135 135 135 135 135 0 0 0 218 218 218 218 218 218 218 218 218 218 218 218 218 218 218 0 0 0 115 115 115 115 115 115 115 115 115 115 115 115 93 93 93 93 93 93 93 93 93 93 93 93 0 0 0 143 143 143 118 118 118 118 118 118 118 118 118 118 118 118 118 118 118 118 118 118 118 118 118 118 118 118 118 118 118 0 0 0 153 153 153 153 153 153 132 132 132 132 132 132 132 132 132 132 132 132 132 132 132 132 132 132 132 132 132 132 132 132 132 132 132 132 132 132 0 0 0 0 0 0 
0 0 0 111 111 111 104 104 104 104 104 104 104 104 104 104 104 104 104 104 104 104 104 104 104 104 104 104 104 104 104 104 104 104 104 104 0 0 0 145 145 145 135 135 135 135 135 135 135 135 135 135 135 135 135 135 135 135 135 135 135 135 135 135 135 135 135 135 135 135 135 135 0 0 0 218 218 218 0 0 0 0 0 0 0 0 0 115 115 115 115 115 115 115 115 115 93 93 93 93 93 93 93 93 93 93 93 93 93 93 93 0 0 0 118 118 118 118 118 118 118 118 118 118 118 118 118 118 118 118 118 118 118 118 118 118 118 118 118 118 118 118 118 118 0 0 0 153 153 153 153 153 153 132 132 132 132 132 132 132 132 132 132 132 132 132 132 132 132 132 132 132 132 132 132 132 132 132 132 132 132 132 132 132 132 132 132 132 132 0 0 0 
0 0 0 111 111 111 104 104 104 104 104 104 104 104 104 104 104 104 104 104 104 104 104 104 104 104 104 104 104 104 104 104 104 0 0 0 145 145 145 145 145 145 135 135 135 135 135 135 135 135 135 135 135 135 135 135 135 135 135 135 135 135 135 135 135 135 135 135 135 135 135 135 124 124 124 0 0 0 115 115 115 115 115 115 115 115 115 115 115 115 115 115 115 93 93 93 93 93 93 93 93 93 93 93 93 93 93 93 84 84 84 0 0 0 118 118 118 118 118 118 118 118 118 118 118 118 118 118 118 118 118 118 118 118 118 103 103 103 103 103 103 103 103 103 0 0 0 132 132 132 132 132 132 132 132 132 132 132 132 132 132 132 132 132 132 132 132 132 132 132 132 132 132 132 132 132 132 132 132 132 132 132 132 132 132 132 132 132 132 0 0 0 
0 0 0 111 111 111 104 104 104 104 104 104 104 104 104 104 104 104 104 104 104 104 104 104 104 104 104 104 104 104 97 97 97 0 0 0 145 145 145 145 145 145 135 135 135 135 135 135 135 135 135 135 135 135 135 135 135 135 135 135 135 135 135 135 135 135 135 135 135 124 124 124 124 124 124 124 124 124 0 0 0 115 115 115 93 93 93 93 93 93 93 93 93 93 93 93 93 93 93 93 93 93 93 93 93 84 84 84 84 84 84 0 0 0 118 118 118 118 118 118 118 118 118 118 118 118 118 118 118 103 103 103 103 103 103 103 103 103 103 103 103 103 103 103 0 0 0 132 132 132 132 132 132 132 132 132 132 132 132 132 132 132 132 132 132 132 132 132 132 132 132 132 132 132 132 132 132 132 132 132 132 132 132 132 132 132 132 132 132 0 0 0 
0 0 0 111 111 111 111 111 111 104 104 104 104 104 104 104 104 104 104 104 104 104 104 104 104 104 104 104 104 104 97 97 97 0 0 0 145 145 145 135 135 135 135 135 135 135 135 135 135 135 135 135 135 135 135 135 135 135 135 135 135 135 135 135 135 135 124 124 124 124 124 124 124 124 124 0 0 0 115 115 115 115 115 115 93 93 93 93 93 93 93 93 93 93 93 93 93 93 93 93 93 93 93 93 93 84 84 84 0 0 0 118 118 118 118 118 118 118 118 118 118 118 118 103 103 103 103 103 103 103 103 103 103 103 103 103 103 103 103 103 103 0 0 0 200 200 200 0 0 0 132 132 132 132 132 132 132 132 132 132 132 132 132 132 132 132 132 132 132 132 132 132 132 132 132 132 132 132 132 132 132 132 132 132 132 132 132 132 132 0 0 0 
0 0 0 111 111 111 111 111 111 104 104 104 104 104 104 104 104 104 104 104 104 104 104 104 104 104 104 97 97 97 97 97 97 0 0 0 135 135 135 135 135 135 135 135 135 135 135 135 135 135 135 135 135 135 135 135 135 124 124 124 124 124 124 124 124 124 124 124 124 0 0 0 0 0 0 192 192 192 0 0 0 93 93 93 93 93 93 93 93 93 93 93 93 93 93 93 93 93 93 93 93 93 93 93 93 84 84 84 0 0 0 103 103 103 103 103 103 103 103 103 103 103 103 103 103 103 103 103 103 103 103 103 0 0 0 0 0 0 0 0 0 200 200 200 200 200 200 200 200 200 0 0 0 132 132 132 132 132 132 132 132 132 132 132 132 132 132 132 132 132 132 132 132 132 132 132 132 132 132 132 132 132 132 132 132 132 132 132 132 0 0 0 
0 0 0 111 111 111 111 111 111 104 104 104 104 104 104 104 104 104 104 104 104 104 104 104 104 104 104 97 97 97 0 0 0 135 135 135 135 135 135 135 135 135 135 135 135 135 135 135 135 135 135 135 135 135 124 124 124 124 124 124 124 124 124 0 0 0 0 0 0 192 192 192 192 192 192 192 192 192 192 192 192 0 0 0 84 84 84 84 84 84 93 93 93 93 93 93 93 93 93 93 93 93 84 84 84 84 84 84 0 0 0 103 103 103 103 103 103 103 103 103 103 103 103 103 103 103 0 0 0 0 0 0 200 200 200 200 200 200 200 200 200 200 200 200 200 200 200 200 200 200 0 0 0 118 118 118 118 118 118 132 132 132 132 132 132 132 132 132 132 132 132 132 132 132 132 132 132 132 132 132 132 132 132 132 132 132 132 132 132 0 0 0 
0 0 0 0 0 0 111 111 111 104 104 104 104 104 104 104 104 104 104 104 104 104 104 104 104 104 104 97 97 97 0 0 0 135 135 135 135 135 135 135 135 135 135 135 135 135 135 135 124 124 124 124 124 124 124 124 124 124 124 124 0 0 0 192 192 192 192 192 192 192 192 192 192 192 192 192 192 192 192 192 192 192 192 192 0 0 0 84 84 84 84 84 84 93 93 93 93 93 93 93 93 93 84 84 84 0 0 0 103 103 103 103 103 103 103 103 103 0 0 0 0 0 0 0 0 0 200 200 200 200 200 200 200 200 200 200 200 200 200 200 200 200 200 200 200 200 200 200 200 200 181 181 181 0 0 0 118 118 118 118 118 118 132 132 132 132 132 132 132 132 132 132 132 132 132 132 132 132 132 132 132 132 132 118 118 118 118 118 118 0 0 0 
0 0 0 215 215 215 0 0 0 0 0 0 97 97 97 97 97 97 104 104 104 104 104 104 104 104 104 97 97 97 0 0 0 135 135 135 135 135 135 135 135 135 124 124 124 124 124 124 124 124 124 124 124 124 0 0 0 0 0 0 192 192 192 192 192 192 192 192 192 192 192 192 192 192 192 192 192 192 192 192 192 192 192 192 192 192 192 0 0 0 84 84 84 93 93 93 93 93 93 84 84 84 84 84 84 0 0 0 103 103 103 0 0 0 0 0 0 200 200 200 200 200 200 200 200 200 200 200 200 200 200 200 200 200 200 200 200 200 181 181 181 181 181 181 181 181 181 181 181 181 181 181 181 0 0 0 118 118 118 118 118 118 118 118 118 118 118 118 118 118 118 118 118 118 118 118 118 118 118 118 118 118 118 118 118 118 118 118 118 0 0 0 
0 0 0 215 215 215 215 215 215 215 215 215 0 0 0 0 0 0 97 97 97 97 97 97 97 97 97 0 0 0 124 124 124 124 124 124 124 124 124 124 124 124 124 124 124 124 124 124 0 0 0 0 0 0 192 192 192 192 192 192 192 192 192 192 192 192 192 192 192 192 192 192 180 180 180 180 180 180 180 180 180 192 192 192 192 192 192 0 0 0 84 84 84 84 84 84 84 84 84 84 84 84 84 84 84 0 0 0 0 0 0 200 200 200 200 200 200 200 200 200 200 200 200 200 200 200 200 200 200 181 181 181 181 181 181 181 181 181 181 181 181 181 181 181 181 181 181 181 181 181 181 181 181 181 181 181 0 0 0 118 118 118 118 118 118 118 118 118 118 118 118 118 118 118 118 118 118 118 118 118 0 0 0 0 0 0 0 0 0 0 0 0 
0 0 0 215 215 215 215 215 215 215 215 215 215 215 215 215 215 215 0 0 0 0 0 0 97 97 97 0 0 0 124 124 124 124 124 124 124 124 124 124 124 124 0 0 0 0 0 0 192 192 192 192 192 192 192 192 192 192 192 192 192 192 192 180 180 180 180 180 180 180 180 180 180 180 180 180 180 180 180 180 180 180 180 180 180 180 180 180 180 180 0 0 0 84 84 84 84 84 84 84 84 84 0 0 0 200 200 200 200 200 200 200 200 200 200 200 200 200 200 200 181 181 181 181 181 181 181 181 181 181 181 181 181 181 181 181 181 181 181 181 181 181 181 181 181 181 181 181 181 181 181 181 181 181 181 181 181 181 181 0 0 0 118 118 118 118 118 118 118 118 118 0 0 0 0 0 0 0 0 0 221 221 221 221 221 221 221 221 221 0 0 0 
0 0 0 215 215 215 215 215 215 197 197 197 215 215 215 215 215 215 215 215 215 215 215 215 0 0 0 124 124 124 124 124 124 124 124 124 124 124 124 0 0 0 192 192 192 192 192 192 192 192 192 192 192 192 192 192 192 192 192 192 180 180 180 180 180 180 180 180 180 180 180 180 180 180 180 180 180 180 180 180 180 180 180 180 180 180 180 180 180 180 180 180 180 0 0 0 84 84 84 0 0 0 200 200 200 200 200 200 200 200 200 200 200 200 181 181 181 181 181 181 181 181 181 181 181 181 181 181 181 181 181 181 181 181 181 181 181 181 181 181 181 181 181 181 181 181 181 181 181 181 181 181 181 181 181 181 181 181 181 0 0 0 118 118 118 0 0 0 0 0 0 221 221 221 221 221 221 221 221 221 221 221 221 221 221 221 221 221 221 0 0 0 
0 0 0 215 215 215 197 197 197 197 197 197 197 197 197 197 197 197 197 197 197 215 215 215 215 215 215 0 0 0 124 124 124 0 0 0 0 0 0 192 192 192 192 192 192 192 192 192 192 192 192 192 192 192 180 180 180 180 180 180 180 180 180 180 180 180 180 180 180 180 180 180 180 180 180 180 180 180 180 180 180 180 180 180 180 180 180 180 180 180 180 180 180 158 158 158 0 0 0 200 200 200 200 200 200 200 200 200 200 200 200 181 181 181 181 181 181 181 181 181 181 181 181 181 181 181 181 181 181 181 181 181 181 181 181 181 181 181 181 181 181 181 181 181 181 181 181 181 181 181 181 181 181 181 181 181 157 157 157 157 157 157 0 0 0 221 221 221 221 221 221 221 221 221 221 221 221 221 221 221 209 209 209 209 209 209 221 221 221 0 0 0 
0 0 0 215 215 215 197 197 197 197 197 197 197 197 197 197 197 197 197 197 197 215 215 215 215 215 215 0 0 0 0 0 0 192 192 192 192 192 192 192 192 192 192 192 192 192 192 192 192 192 192 180 180 180 180 180 180 180 180 180 180 180 180 180 180 180 180 180 180 180 180 180 180 180 180 180 180 180 180 180 180 180 180 180 180 180 180 180 180 180 158 158 158 158 158 158 0 0 0 200 200 200 200 200 200 181 181 181 181 181 181 181 181 181 181 181 181 181 181 181 181 181 181 181 181 181 181 181 181 181 181 181 181 181 181 181 181 181 181 181 181 181 181 181 181 181 181 181 181 181 181 181 181 157 157 157 157 157 157 0 0 0 221 221 221 221 221 221 221 221 221 221 221 221 209 209 209 209 209 209 209 209 209 209 209 209 209 209 209 0 0 0 
144 99 52 144 99 52 144 99 52 144 99 52 144 99 52 144 99 52 144 99 52 144 99 52 144 99 52 144 99 52 144 99 52 144 99 52 144 99 52 144 99 52 144 99 52 144 99 52 144 99 52 144 99 52 144 99 52 144 99 52 144 99 52 144 99 52 144 99 52 144 99 52 144 99 52 144 99 52 144 99 52 180 180 180 180 180 180 180 180 180 158 158 158 158 158 158 0 0 0 181 181 181 181 181 181 181 181 181 181 181 181 181 181 181 181 181 181 181 181 181 181 181 181 181 181 181 181 181 181 181 181 181 181 181 181 181 181 181 181 181 181 181 181 181 181 181 181 181 181 181 157 157 157 157 157 157 0 0 0 221 221 221 221 221 221 221 221 221 209 209 209 209 209 209 209 209 209 209 209 209 209 209 209 209 209 209 209 209 209 0 0 0 
130 91 49 130 91 49 130 91 49 130 91 49 130 91 49 130 91 49 130 91 49 130 91 49 130 91 49 130 91 49 130 91 49 130 91 49 130 91 49 130 91 49 130 91 49 130 91 49 130 91 49 130 91 49 130 91 49 130 91 49 130 91 49 130 91 49 130 91 49 130 91 49 130 91 49 130 91 49 144 99 52 180 180 180 180 180 180 180 180 180 158 158 158 158 158 158 0 0 0 181 181 181 181 181 181 181 181 181 181 181 181 181 181 181 181 181 181 181 181 181 181 181 181 181 181 181 181 181 181 181 181 181 181 181 181 181 181 181 181 181 181 181 181 181 181 181 181 157 157 157 157 157 157 157 157 157 0 0 0 209 209 209 209 209 209 209 209 209 209 209 209 209 209 209 209 209 209 209 209 209 209 209 209 209 209 209 209 209 209 0 0 0 
130 91 49 130 91 49 130 91 49 130 91 49 130 91 49 130 91 49 130 91 49 130 91 49 130 91 49 130 91 49 130 91 49 130 91 49 130 91 49 130 91 49 130 91 49 130 91 49 130 91 49 130 91 49 130 91 49 130 91 49 130 91 49 130 91 49 130 91 49 130 91 49 130 91 49 130 91 49 144 99 52 180 180 180 180 180 180 180 180 180 158 158 158 158 158 158 0 0 0 181 181 181 181 181 181 181 181 181 181 181 181 181 181 181 181 181 181 181 181 181 181 181 181 181 181 181 181 181 181 181 181 181 181 181 181 181 181 181 181 181 181 181 181 181 157 157 157 157 157 157 157 157 157 157 157 157 0 0 0 209 209 209 209 209 209 209 209 209 209 209 209 209 209 209 209 209 209 209 209 209 209 209 209 209 209 209 209 209 209 0 0 0 
130 91 49 130 91 49 130 91 49 130 91 49 130 91 49 130 91 49 130 91 49 130 91 49 130 91 49 130 91 49 130 91 49 130 91 49 130 91 49 130 91 49 130 91 49 130 91 49 130 91 49 130 91 49 130 91 49 130 91 49 130 91 49 130 91 49 130 91 49 130 91 49 130 91 49 130 91 49 144 99 52 180 180 180 180 180 180 180 180 180 158 158 158 158 158 158 0 0 0 181 181 181 181 181 181 181 181 181 181 181 181 181 181 181 181 181 181 181 181 181 181 181 181 181 181 181 181 181 181 181 181 181 181 181 181 181 181 181 181 181 181 181 181 181 157 157 157 157 157 157 157 157 157 0 0 0 209 209 209 209 209 209 209 209 209 209 209 209 209 209 209 209 209 209 209 209 209 209 209 209 209 209 209 209 209 209 209 209 209 0 0 0 
130 91 49 130 91 49 130 91 49 130 91 49 130 91 49 130 91 49 130 91 49 130 91 49 130 91 49 130 91 49 130 91 49 130 91 49 130 91 49 130 91 49 130 91 49 130 91 49 130 91 49 130 91 49 130 91 49 130 91 49 130 91 49 130 91 49 130 91 49 130 91 49 130 91 49 130 91 49 144 99 52 180 180 180 180 180 180 158 158 158 158 158 158 158 158 158 0 0 0 157 157 157 157 157 157 181 181 181 181 181 181 181 181 181 181 181 181 181 181 181 181 181 181 181 181 181 181 181 181 181 181 181 181 181 181 181 181 181 157 157 157 157 157 157 157 157 157 157 157 157 157 157 157 0 0 0 209 209 209 209 209 209 209 209 209 209 209 209 209 209 209 209 209 209 209 209 209 209 209 209 209 209 209 209 209 209 209 209 209 0 0 0 
130 91 49 130 91 49 130 91 49 130 91 49 130 91 49 130 91 49 130 91 49 130 91 49 130 91 49 130 91 49 130 91 49 130 91 49 130 91 49 130 91 49 130 91 49 130 91 49 130 91 49 130 91 49 130 91 49 130 91 49 130 91 49 130 91 49 130 91 49 130 91 49 130 91 49 130 91 49 144 99 52 180 180 180 180 180 180 158 158 158 158 158 158 158 158 158 0 0 0 157 157 157 157 157 157 157 157 157 181 181 181 181 181 181 181 181 181 181 181 181 181 181 181 181 181 181 181 181 181 181 181 181 181 181 181 157 157 157 157 157 157 157 157 157 157 157 157 157 157 157 157 157 157 0 0 0 209 209 209 209 209 209 209 209 209 209 209 209 209 209 209 209 209 209 209 209 209 209 209 209 209 209 209 209 209 209 209 209 209 0 0 0 
130 91 49 130 91 49 130 91 49 130 91 49 130 91 49 130 91 49 130 91 49 130 91 49 130 91 49 130 91 49 130 91 49 130 91 49 130 91 49 130 91 49 130 91 49 130 91 49 130 91 49 130 91 49 130 91 49 130 91 49 130 91 49 130 91 49 130 91 49 130 91 49 130 91 49 130 91 49 144 99 52 158 158 158 158 158 158 158 158 158 158 158 158 158 158 158 0 0 0 157 157 157 157 157 157 157 157 157 157 157 157 157 157 157 157 157 157 157 157 157 157 157 157 157 157 157 157 157 157 157 157 157 157 157 157 157 157 157 157 157 157 157 157 157 157 157 157 157 157 157 0 0 0 184 184 184 184 184 184 184 184 184 209 209 209 209 209 209 209 209 209 209 209 209 209 209 209 209 209 209 209 209 209 209 209 209 209 209 209 0 0 0 
130 91 49 130 91 49 130 91 49 130 91 49 130 91 49 130 91 49 130 91 49 130 91 49 130 91 49 130 91 49 130 91 49 130 91 49 130 91 49 130 91 49 130 91 49 130 91 49 130 91 49 130 91 49 130 91 49 130 91 49 130 91 49 130 91 49 130 91 49 130 91 49 130 91 49 130 91 49 144 99 52 158 158 158 158 158 158 158 158 158 158 158 158 158 158 158 0 0 0 157 157 157 157 157 157 157 157 157 157 157 157 157 157 157 157 157 157 157 157 157 157 157 157 157 157 157 157 157 157 157 157 157 157 157 157 157 157 157 157 157 157 157 157 157 157 157 157 157 157 157 0 0 0 184 184 184 184 184 184 184 184 184 184 184 184 209 209 209 209 209 209 209 209 209 209 209 209 209 209 209 209 209 209 209 209 209 209 209 209 0 0 0 
130 91 49 130 91 49 130 91 49 130 91 49 130 91 49 130 91 49 130 91 49 130 91 49 130 91 49 130 91 49 130 91 49 130 91 49 130 91 49 130 91 49 130 91 49 130 91 49 130 91 49 130 91 49 130 91 49 130 91 49 130 91 49 130 91 49 130 91 49 130 91 49 130 91 49 130 91 49 144 99 52 158 158 158 158 158 158 158 158 158 158 158 158 158 158 158 0 0 0 157 157 157 157 157 157 157 157 157 157 157 157 157 157 157 157 157 157 157 157 157 157 157 157 157 157 157 157 157 157 157 157 157 157 157 157 157 157 157 157 157 157 157 157 157 157 157 157 0 0 0 0 0 0 184 184 184 184 184 184 184 184 184 184 184 184 184 184 184 184 184 184 184 184 184 184 184 184 209 209 209 209 209 209 209 209 209 209 209 209 0 0 0 
130 91 49 130 91 49 130 91 49 130 91 49 130 91 49 130 91 49 130 91 49 130 91 49 130 91 49 130 91 49 130 91 49 130 91 49 130 91 49 130 91 49 130 91 49 130 91 49 130 91 49 130 91 49 130 91 49 130 91 49 130 91 49 130 91 49 130 91 49 130 91 49 130 91 49 130 91 49 144 99 52 158 158 158 158 158 158 158 158 158 158 158 158 158 158 158 0 0 0 0 0 0 0 0 0 0 0 0 0 0 0 0 0 0 0 0 0 0 0 0 0 0 0 0 0 0 0 0 0 0 0 0 0 0 0 0 0 0 0 0 0 0 0 0 0 0 0 146 146 146 146 146 146 0 0 0 0 0 0 0 0 0 184 184 184 184 184 184 184 184 184 184 184 184 184 184 184 184 184 184 184 184 184 184 184 184 184 184 184 0 0 0 
130 91 49 130 91 49 130 91 49 130 91 49 130 91 49 130 91 49 130 91 49 130 91 49 130 91 49 130 91 49 130 91 49 130 91 49 130 91 49 130 91 49 130 91 49 130 91 49 130 91 49 130 91 49 130 91 49 130 91 49 130 91 49 130 91 49 130 91 49 130 91 49 130 91 49 130 91 49 144 99 52 158 158 158 158 158 158 158 158 158 158 158 158 0 0 0 151 151 151 151 151 151 151 151 151 151 151 151 151 151 151 151 151 151 151 151 151 151 151 151 151 151 151 151 151 151 151 151 151 151 151 151 151 151 151 151 151 151 0 0 0 146 146 146 146 146 146 146 146 146 146 146 146 146 146 146 146 146 146 146 146 146 0 0 0 0 0 0 184 184 184 184 184 184 184 184 184 184 184 184 184 184 184 184 184 184 184 184 184 0 0 0 
130 91 49 130 91 49 130 91 49 130 91 49 130 91 49 130 91 49 130 91 49 130 91 49 130 91 49 130 91 49 130 91 49 130 91 49 130 91 49 130 91 49 130 91 49 130 91 49 130 91 49 130 91 49 130 91 49 130 91 49 130 91 49 130 91 49 130 91 49 130 91 49 130 91 49 130 91 49 144 99 52 0 0 0 0 0 0 0 0 0 0 0 0 151 151 151 151 151 151 151 151 151 151 151 151 151 151 151 151 151 151 151 151 151 129 129 129 129 129 129 129 129 129 129 129 129 129 129 129 129 129 129 151 151 151 151 151 151 0 0 0 146 146 146 146 146 146 146 146 146 146 146 146 146 146 146 146 146 146 146 146 146 146 146 146 146 146 146 0 0 0 0 0 0 184 184 184 184 184 184 184 184 184 184 184 184 184 184 184 0 0 0 
130 91 49 130 91 49 130 91 49 130 91 49 130 91 49 130 91 49 130 91 49 130 91 49 130 91 49 130 91 49 130 91 49 130 91 49 130 91 49 130 91 49 130 91 49 130 91 49 130 91 49 130 91 49 130 91 49 130 91 49 130 91 49 130 91 49 130 91 49 130 91 49 130 91 49 130 91 49 144 99 52 197 197 197 197 197 197 197 197 197 0 0 0 151 151 151 151 151 151 151 151 151 151 151 151 151 151 151 129 129 129 129 129 129 129 129 129 129 129 129 129 129 129 129 129 129 129 129 129 129 129 129 129 129 129 129 129 129 0 0 0 146 146 146 146 146 146 146 146 146 146 146 146 146 146 146 146 146 146 120 120 120 146 146 146 146 146 146 0 0 0 150 150 150 0 0 0 0 0 0 0 0 0 0 0 0 0 0 0 0 0 0 
130 91 49 130 91 49 130 91 49 130 91 49 130 91 49 130 91 49 130 91 49 130 91 49 130 91 49 130 91 49 130 91 49 130 91 49 130 91 49 130 91 49 130 91 49 130 91 49 130 91 49 130 91 49 130 91 49 130 91 49 130 91 49 130 91 49 130 91 49 130 91 49 130 91 49 130 91 49 144 99 52 197 197 197 197 197 197 197 197 197 197 197 197 0 0 0 151 151 151 151 151 151 129 129 129 129 129 129 129 129 129 129 129 129 129 129 129 129 129 129 129 129 129 129 129 129 129 129 129 129 129 129 129 129 129 129 129 129 0 0 0 146 146 146 146 146 146 146 146 146 146 146 146 120 120 120 120 120 120 120 120 120 120 120 120 146 146 146 0 0 0 150 150 150 150 150 150 150 150 150 150 150 150 150 150 150 150 150 150 0 0 0 
130 91 49 130 91 49 130 91 49 130 91 49 130 91 49 130 91 49 130 91 49 130 91 49 130 91 49 130 91 49 130 91 49 130 91 49 130 91 49 130 91 49 130 91 49 130 91 49 130 91 49 130 91 49 130 91 49 130 91 49 130 91 49 130 91 49 130 91 49 130 91 49 130 91 49 130 91 49 144 99 52 197 197 197 197 197 197 197 197 197 197 197 197 0 0 0 151 151 151 129 129 129 129 129 129 129 129 129 129 129 129 129 129 129 129 129 129 129 129 129 129 129 129 129 129 129 129 129 129 129 129 129 129 129 129 129 129 129 0 0 0 146 146 146 146 146 146 146 146 146 120 120 120 120 120 120 120 120 120 120 120 120 120 120 120 120 120 120 0 0 0 150 150 150 150 150 150 150 150 150 150 150 150 150 150 150 150 150 150 0 0 0 
130 91 49 130 91 49 130 91 49 130 91 49 130 91 49 130 91 49 130 91 49 130 91 49 130 91 49 130 91 49 130 91 49 130 91 49 130 91 49 130 91 49 130 91 49 130 91 49 130 91 49 130 91 49 130 91 49 130 91 49 130 91 49 130 91 49 130 91 49 130 91 49 130 91 49 130 91 49 144 99 52 170 170 170 170 170 170 197 197 197 197 197 197 0 0 0 129 129 129 129 129 129 129 129 129 129 129 129 129 129 129 129 129 129 129 129 129 129 129 129 129 129 129 129 129 129 129 129 129 129 129 129 129 129 129 129 129 129 129 129 129 0 0 0 146 146 146 146 146 146 120 120 120 120 120 120 120 120 120 120 120 120 120 120 120 120 120 120 0 0 0 150 150 150 150 150 150 150 150 150 150 150 150 150 150 150 150 150 150 0 0 0 
130 91 49 130 91 49 130 91 49 130 91 49 130 91 49 130 91 49 130 91 49 130 91 49 130 91 49 130 91 49 130 91 49 130 91 49 130 91 49 130 91 49 130 91 49 130 91 49 130 91 49 130 91 49 130 91 49 130 91 49 130 91 49 130 91 49 130 91 49 130 91 49 130 91 49 130 91 49 144 99 52 170 170 170 170 170 170 170 170 170 170 170 170 170 170 170 0 0 0 129 129 129 129 129 129 129 129 129 129 129 129 129 129 129 129 129 129 129 129 129 129 129 129 129 129 129 129 129 129 129 129 129 129 129 129 129 129 129 129 129 129 0 0 0 146 146 146 120 120 120 120 120 120 120 120 120 120 120 120 120 120 120 120 120 120 107 107 107 0 0 0 150 150 150 150 150 150 150 150 150 126 126 126 150 150 150 150 150 150 0 0 0 
130 91 49 130 91 49 130 91 49 130 91 49 130 91 49 130 91 49 130 91 49 130 91 49 130 91 49 130 91 49 130 91 49 130 91 49 130 91 49 130 91 49 130 91 49 130 91 49 130 91 49 130 91 49 130 91 49 130 91 49 130 91 49 130 91 49 130 91 49 130 91 49 130 91 49 130 91 49 144 99 52 170 170 170 170 170 170 170 170 170 170 170 170 170 170 170 0 0 0 114 114 114 129 129 129 129 129 129 129 129 129 129 129 129 129 129 129 129 129 129 129 129 129 129 129 129 129 129 129 129 129 129 129 129 129 129 129 129 129 129 129 0 0 0 120 120 120 120 120 120 120 120 120 120 120 120 120 120 120 120 120 120 120 120 120 107 107 107 0 0 0 150 150 150 150 150 150 126 126 126 126 126 126 126 126 126 150 150 150 0 0 0 
130 91 49 130 91 49 101 92 82 101 92 82 101 92 82 101 92 82 101 92 82 130 91 49 130 91 49 130 91 49 130 91 49 130 91 49 130 91 49 130 91 49 130 91 49 130 91 49 130 91 49 130 91 49 130 91 49 130 91 49 130 91 49 130 91 49 130 91 49 130 91 49 130 91 49 130 91 49 144 99 52 170 170 170 170 170 170 170 170 170 170 170 170 170 170 170 0 0 0 114 114 114 114 114 114 114 114 114 114 114 114 129 129 129 129 129 129 129 129 129 129 129 129 129 129 129 129 129 129 129 129 129 129 129 129 129 129 129 114 114 114 0 0 0 120 120 120 120 120 120 120 120 120 120 120 120 120 120 120 120 120 120 107 107 107 107 107 107 0 0 0 150 150 150 150 150 150 126 126 126 126 126 126 126 126 126 126 126 126 0 0 0 
130 91 49 130 91 49 101 92 82 101 92 82 101 92 82 101 92 82 101 92 82 108 75 39 130 91 49 130 91 49 130 91 49 130 91 49 130 91 49 130 91 49 130 91 49 130 91 49 130 91 49 130 91 49 130 91 49 130 91 49 130 91 49 130 91 49 130 91 49 130 91 49 130 91 49 130 91 49 144 99 52 170 170 170 170 170 170 170 170 170 170 170 170 170 170 170 143 143 143 0 0 0 114 114 114 114 114 114 114 114 114 114 114 114 129 129 129 129 129 129 129 129 129 129 129 129 129 129 129 129 129 129 114 114 114 114 114 114 114 114 114 0 0 0 107 107 107 120 120 120 120 120 120 120 120 120 120 120 120 120 120 120 107 107 107 0 0 0 150 150 150 150 150 150 126 126 126 126 126 126 126 126 126 126 126 126 126 126 126 0 0 0 
130 91 49 130 91 49 101 92 82 101 92 82 101 92 82 101 92 82 101 92 82 108 75 39 130 91 49 130 91 49 130 91 49 130 91 49 130 91 49 130 91 49 130 91 49 130 91 49 130 91 49 130 91 49 130 91 49 130 91 49 130 91 49 130 91 49 130 91 49 130 91 49 130 91 49 130 91 49 144 99 52 170 170 170 170 170 170 170 170 170 170 170 170 170 170 170 143 143 143 0 0 0 114 114 114 114 114 114 114 114 114 114 114 114 114 114 114 114 114 114 129 129 129 129 129 129 129 129 129 129 129 129 114 114 114 114 114 114 114 114 114 0 0 0 107 107 107 120 120 120 120 120 120 120 120 120 120 120 120 107 107 107 107 107 107 0 0 0 150 150 150 150 150 150 126 126 126 126 126 126 126 126 126 126 126 126 126 126 126 0 0 0 
130 91 49 130 91 49 101 92 82 101 92 82 101 92 82 101 92 82 101 92 82 108 75 39 130 91 49 130 91 49 130 91 49 130 91 49 130 91 49 130 91 49 130 91 49 130 91 49 130 91 49 130 91 49 130 91 49 130 91 49 130 91 49 130 91 49 130 91 49 130 91 49 130 91 49 130 91 49 144 99 52 170 170 170 170 170 170 170 170 170 170 170 170 170 170 170 143 143 143 143 143 143 0 0 0 114 114 114 114 114 114 114 114 114 114 114 114 114 114 114 114 114 114 129 129 129 129 129 129 114 114 114 114 114 114 114 114 114 114 114 114 0 0 0 107 107 107 107 107 107 120 120 120 120 120 120 120 120 120 107 107 107 107 107 107 0 0 0 150 150 150 126 126 126 126 126 126 126 126 126 126 126 126 126 126 126 126 126 126 0 0 0 
130 91 49 130 91 49 101 92 82 101 92 82 101 92 82 101 92 82 101 92 82 108 75 39 130 91 49 130 91 49 130 91 49 130 91 49 130 91 49 130 91 49 130 91 49 130 91 49 130 91 49 130 91 49 130 91 49 130 91 49 130 91 49 130 91 49 130 91 49 130 91 49 130 91 49 130 91 49 144 99 52 170 170 170 170 170 170 170 170 170 170 170 170 170 170 170 170 170 170 143 143 143 143 143 143 0 0 0 0 0 0 114 114 114 114 114 114 114 114 114 114 114 114 114 114 114 114 114 114 114 114 114 114 114 114 114 114 114 114 114 114 0 0 0 107 107 107 107 107 107 120 120 120 120 120 120 120 120 120 107 107 107 107 107 107 0 0 0 126 126 126 126 126 126 126 126 126 126 126 126 126 126 126 126 126 126 126 126 126 0 0 0 
130 91 49 130 91 49 130 91 49 108 75 39 108 75 39 108 75 39 108 75 39 108 75 39 130 91 49 130 91 49 130 91 49 130 91 49 130 91 49 130 91 49 130 91 49 130 91 49 130 91 49 130 91 49 130 91 49 130 91 49 130 91 49 130 91 49 130 91 49 130 91 49 130 91 49 130 91 49 144 99 52 170 170 170 170 170 170 170 170 170 170 170 170 170 170 170 170 170 170 143 143 143 0 0 0 200 200 200 200 200 200 0 0 0 114 114 114 114 114 114 114 114 114 114 114 114 114 114 114 114 114 114 114 114 114 114 114 114 114 114 114 0 0 0 107 107 107 107 107 107 120 120 120 120 120 120 120 120 120 107 107 107 107 107 107 0 0 0 126 126 126 126 126 126 126 126 126 126 126 126 126 126 126 126 126 126 126 126 126 0 0 0 
130 91 49 130 91 49 130 91 49 130 91 49 130 91 49 130 91 49 130 91 49 130 91 49 130 91 49 130 91 49 130 91 49 130 91 49 130 91 49 130 91 49 130 91 49 130 91 49 130 91 49 130 91 49 130 91 49 130 91 49 130 91 49 130 91 49 130 91 49 130 91 49 130 91 49 130 91 49 144 99 52 170 170 170 170 170 170 170 170 170 170 170 170 170 170 170 170 170 170 143 143 143 0 0 0 200 200 200 200 200 200 200 200 200 0 0 0 114 114 114 105 105 105 105 105 105 114 114 114 114 114 114 114 114 114 114 114 114 114 114 114 114 114 114 0 0 0 107 107 107 107 107 107 120 120 120 107 107 107 107 107 107 107 107 107 0 0 0 126 126 126 126 126 126 126 126 126 126 126 126 126 126 126 126 126 126 126 126 126 0 0 0 
130 91 49 130 91 49 130 91 49 130 91 49 130 91 49 130 91 49 130 91 49 130 91 49 130 91 49 130 91 49 130 91 49 130 91 49 130 91 49 130 91 49 130 91 49 130 91 49 130 91 49 130 91 49 130 91 49 130 91 49 130 91 49 130 91 49 130 91 49 130 91 49 130 91 49 130 91 49 144 99 52 170 170 170 170 170 170 170 170 170 170 170 170 170 170 170 143 143 143 143 143 143 0 0 0 200 200 200 200 200 200 200 200 200 200 200 200 0 0 0 0 0 0 105 105 105 105 105 105 105 105 105 114 114 114 114 114 114 105 105 105 105 105 105 0 0 0 107 107 107 107 107 107 107 107 107 107 107 107 107 107 107 107 107 107 0 0 0 102 102 102 126 126 126 126 126 126 126 126 126 126 126 126 126 126 126 126 126 126 0 0 0 
130 91 49 130 91 49 130 91 49 130 91 49 130 91 49 130 91 49 130 91 49 130 91 49 130 91 49 130 91 49 130 91 49 130 91 49 130 91 49 130 91 49 130 91 49 130 91 49 130 91 49 130 91 49 130 91 49 130 91 49 130 91 49 130 91 49 130 91 49 130 91 49 130 91 49 130 91 49 144 99 52 170 170 170 170 170 170 170 170 170 170 170 170 170 170 170 143 143 143 0 0 0 200 200 200 200 200 200 200 200 200 200 200 200 200 200 200 200 200 200 200 200 200 0 0 0 105 105 105 105 105 105 105 105 105 105 105 105 105 105 105 0 0 0 206 206 206 0 0 0 0 0 0 0 0 0 0 0 0 0 0 0 107 107 107 0 0 0 102 102 102 102 102 102 126 126 126 126 126 126 126 126 126 102 102 102 102 102 102 0 0 0 
130 91 49 130 91 49 130 91 49 130 91 49 130 91 49 130 91 49 130 91 49 130 91 49 130 91 49 130 91 49 130 91 49 130 91 49 130 91 49 130 91 49 130 91 49 130 91 49 130 91 49 130 91 49 130 91 49 130 91 49 130 91 49 130 91 49 130 91 49 130 91 49 130 91 49 130 91 49 144 99 52 170 170 170 170 170 170 170 170 170 170 170 170 143 143 143 143 143 143 0 0 0 200 200 200 200 200 200 200 200 200 200 200 200 200 200 200 200 200 200 200 200 200 200 200 200 0 0 0 105 105 105 105 105 105 105 105 105 0 0 0 206 206 206 206 206 206 206 206 206 206 206 206 206 206 206 206 206 206 206 206 206 0 0 0 0 0 0 102 102 102 102 102 102 102 102 102 102 102 102 102 102 102 102 102 102 102 102 102 0 0 0 
130 91 49 130 91 49 130 91 49 130 91 49 130 91 49 130 91 49 130 91 49 130 91 49 130 91 49 130 91 49 130 91 49 130 91 49 130 91 49 130 91 49 130 91 49 130 91 49 130 91 49 130 91 49 130 91 49 130 91 49 130 91 49 130 91 49 130 91 49 130 91 49 130 91 49 130 91 49 144 99 52 170 170 170 170 170 170 170 170 170 170 170 170 143 143 143 143 143 143 0 0 0 200 200 200 200 200 200 200 200 200 200 200 200 200 200 200 200 200 200 200 200 200 200 200 200 200 200 200 0 0 0 0 0 0 105 105 105 0 0 0 206 206 206 206 206 206 206 206 206 206 206 206 206 206 206 206 206 206 206 206 206 206 206 206 206 206 206 0 0 0 102 102 102 102 102 102 102 102 102 102 102 102 102 102 102 102 102 102 0 0 0 
130 91 49 130 91 49 130 91 49 130 91 49 130 91 49 130 91 49 130 91 49 130 91 49 130 91 49 130 91 49 130 91 49 130 91 49 130 91 49 130 91 49 130 91 49 130 91 49 130 91 49 130 91 49 130 91 49 130 91 49 130 91 49 130 91 49 130 91 49 130 91 49 130 91 49 130 91 49 144 99 52 170 170 170 170 170 170 170 170 170 143 143 143 143 143 143 143 143 143 0 0 0 200 200 200 200 200 200 200 200 200 180 180 180 180 180 180 180 180 180 180 180 180 180 180 180 200 200 200 200 200 200 200 200 200 0 0 0 206 206 206 206 206 206 206 206 206 206 206 206 206 206 206 206 206 206 206 206 206 206 206 206 206 206 206 206 206 206 206 206 206 0 0 0 0 0 0 102 102 102 102 102 102 102 102 102 102 102 102 0 0 0 
130 91 49 130 91 49 130 91 49 130 91 49 130 91 49 130 91 49 130 91 49 130 91 49 130 91 49 130 91 49 130 91 49 130 91 49 130 91 49 130 91 49 130 91 49 130 91 49 130 91 49 130 91 49 130 91 49 130 91 49 130 91 49 130 91 49 130 91 49 130 91 49 130 91 49 130 91 49 144 99 52 143 143 143 170 170 170 143 143 143 143 143 143 143 143 143 143 143 143 0 0 0 200 200 200 200 200 200 180 180 180 180 180 180 180 180 180 180 180 180 180 180 180 180 180 180 180 180 180 180 180 180 0 0 0 206 206 206 206 206 206 206 206 206 206 206 206 191 191 191 191 191 191 191 191 191 191 191 191 191 191 191 191 191 191 191 191 191 206 206 206 206 206 206 206 206 206 0 0 0 102 102 102 102 102 102 102 102 102 0 0 0 
130 91 49 130 91 49 130 91 49 130 91 49 130 91 49 130 91 49 130 91 49 130 91 49 130 91 49 130 91 49 130 91 49 130 91 49 130 91 49 130 91 49 130 91 49 130 91 49 130 91 49 130 91 49 130 91 49 130 91 49 130 91 49 130 91 49 130 91 49 130 91 49 130 91 49 130 91 49 144 99 52 143 143 143 143 143 143 143 143 143 143 143 143 143 143 143 143 143 143 0 0 0 200 200 200 180 180 180 180 180 180 180 180 180 180 180 180 180 180 180 180 180 180 180 180 180 180 180 180 180 180 180 0 0 0 206 206 206 206 206 206 206 206 206 191 191 191 191 191 191 191 191 191 191 191 191 191 191 191 191 191 191 191 191 191 191 191 191 191 191 191 191 191 191 206 206 206 206 206 206 0 0 0 102 102 102 102 102 102 0 0 0 
130 91 49 130 91 49 130 91 49 130 91 49 130 91 49 130 91 49 130 91 49 130 91 49 130 91 49 130 91 49 130 91 49 130 91 49 130 91 49 130 91 49 130 91 49 130 91 49 130 91 49 130 91 49 130 91 49 130 91 49 130 91 49 130 91 49 130 91 49 130 91 49 130 91 49 130 91 49 144 99 52 143 143 143 143 143 143 143 143 143 143 143 143 143 143 143 143 143 143 0 0 0 180 180 180 180 180 180 180 180 180 180 180 180 180 180 180 180 180 180 180 180 180 180 180 180 146 146 146 146 146 146 0 0 0 206 206 206 206 206 206 191 191 191 191 191 191 191 191 191 191 191 191 191 191 191 191 191 191 191 191 191 191 191 191 191 191 191 191 191 191 191 191 191 191 191 191 160 160 160 160 160 160 0 0 0 0 0 0 0 0 0 
130 91 49 130 91 49 130 91 49 130 91 49 130 91 49 130 91 49 130 91 49 130 91 49 130 91 49 130 91 49 130 91 49 130 91 49 130 91 49 130 91 49 130 91 49 130 91 49 130 91 49 130 91 49 130 91 49 130 91 49 130 91 49 130 91 49 130 91 49 130 91 49 130 91 49 130 91 49 144 99 52 143 143 143 143 143 143 143 143 143 143 143 143 143 143 143 0 0 0 146 146 146 146 146 146 180 180 180 180 180 180 180 180 180 180 180 180 180 180 180 180 180 180 146 146 146 146 146 146 146 146 146 0 0 0 206 206 206 206 206 206 191 191 191 191 191 191 191 191 191 191 191 191 191 191 191 191 191 191 191 191 191 191 191 191 191 191 191 191 191 191 191 191 191 160 160 160 160 160 160 0 0 0 250 250 250 250 250 250 0 0 0 
130 91 49 130 91 49 130 91 49 130 91 49 130 91 49 130 91 49 130 91 49 130 91 49 130 91 49 130 91 49 130 91 49 130 91 49 130 91 49 130 91 49 130 91 49 130 91 49 130 91 49 130 91 49 130 91 49 130 91 49 130 91 49 130 91 49 130 91 49 130 91 49 130 91 49 130 91 49 144 99 52 0 0 0 143 143 143 143 143 143 143 143 143 143 143 143 0 0 0 146 146 146 146 146 146 146 146 146 146 146 146 146 146 146 146 146 146 146 146 146 146 146 146 146 146 146 146 146 146 146 146 146 0 0 0 160 160 160 160 160 160 191 191 191 191 191 191 191 191 191 191 191 191 191 191 191 191 191 191 191 191 191 191 191 191 191 191 191 160 160 160 160 160 160 160 160 160 0 0 0 250 250 250 250 250 250 250 250 250 0 0 0 
130 91 49 130 91 49 130 91 49 130 91 49 130 91 49 130 91 49 130 91 49 130 91 49 130 91 49 130 91 49 130 91 49 130 91 49 130 91 49 130 91 49 130 91 49 130 91 49 130 91 49 130 91 49 130 91 49 130 91 49 130 91 49 130 91 49 130 91 49 130 91 49 130 91 49 130 91 49 144 99 52 155 155 155 0 0 0 0 0 0 0 0 0 0 0 0 146 146 146 146 146 146 146 146 146 146 146 146 146 146 146 146 146 146 146 146 146 146 146 146 146 146 146 146 146 146 0 0 0 0 0 0 160 160 160 160 160 160 160 160 160 160 160 160 191 191 191 191 191 191 191 191 191 191 191 191 191 191 191 160 160 160 160 160 160 160 160 160 160 160 160 160 160 160 0 0 0 250 250 250 250 250 250 250 250 250 250 250 250 0 0 0 
130 91 49 130 91 49 130 91 49 130 91 49 130 91 49 130 91 49 130 91 49 130 91 49 130 91 49 130 91 49 130 91 49 130 91 49 130 91 49 130 91 49 130 91 49 130 91 49 130 91 49 130 91 49 130 91 49 130 91 49 130 91 49 130 91 49 130 91 49 130 91 49 130 91 49 130 91 49 144 99 52 0 0 0 255 255 255 255 255 255 255 255 255 255 255 255 0 0 0 0 0 0 146 146 146 0 0 0 0 0 0 0 0 0 0 0 0 0 0 0 0 0 0 0 0 0 255 255 255 255 255 255 0 0 0 160 160 160 160 160 160 160 160 160 160 160 160 160 160 160 160 160 160 160 160 160 160 160 160 160 160 160 160 160 160 160 160 160 160 160 160 0 0 0 250 250 250 250 250 250 250 250 250 250 250 250 250 250 250 0 0 0 
130 91 49 130 91 49 130 91 49 130 91 49 130 91 49 130 91 49 130 91 49 130 91 49 130 91 49 130 91 49 130 91 49 130 91 49 130 91 49 130 91 49 130 91 49 130 91 49 130 91 49 130 91 49 130 91 49 130 91 49 130 91 49 130 91 49 130 91 49 130 91 49 130 91 49 130 91 49 144 99 52 255 255 255 255 255 255 255 255 255 255 255 255 255 255 255 255 255 255 255 255 255 0 0 0 255 255 255 255 255 255 255 255 255 255 255 255 255 255 255 255 255 255 255 255 255 255 255 255 255 255 255 255 255 255 0 0 0 160 160 160 160 160 160 160 160 160 160 160 160 160 160 160 160 160 160 160 160 160 160 160 160 160 160 160 0 0 0 0 0 0 250 250 250 250 250 250 250 250 250 236 236 236 236 236 236 250 250 250 0 0 0 
130 91 49 130 91 49 130 91 49 130 91 49 130 91 49 130 91 49 130 91 49 130 91 49 130 91 49 130 91 49 130 91 49 130 91 49 130 91 49 130 91 49 130 91 49 130 91 49 130 91 49 130 91 49 130 91 49 130 91 49 130 91 49 130 91 49 130 91 49 130 91 49 130 91 49 130 91 49 144 99 52 255 255 255 255 255 255 255 255 255 255 255 255 255 255 255 255 255 255 255 255 255 255 255 255 0 0 0 255 255 255 255 255 255 255 255 255 255 255 255 255 255 255 255 255 255 255 255 255 255 255 255 0 0 0 255 255 255 0 0 0 0 0 0 160 160 160 160 160 160 160 160 160 160 160 160 160 160 160 0 0 0 0 0 0 255 255 255 255 255 255 0 0 0 250 250 250 250 250 250 236 236 236 236 236 236 236 236 236 0 0 0 
130 91 49 130 91 49 130 91 49 130 91 49 130 91 49 130 91 49 130 91 49 130 91 49 130 91 49 130 91 49 130 91 49 130 91 49 130 91 49 130 91 49 130 91 49 130 91 49 130 91 49 130 91 49 130 91 49 130 91 49 130 91 49 130 91 49 130 91 49 130 91 49 130 91 49 130 91 49 144 99 52 255 255 255 255 255 255 255 255 255 255 255 255 255 255 255 255 255 255 255 255 255 255 255 255 0 0 0 255 255 255 255 255 255 231 231 231 231 231 231 255 255 255 255 255 255 255 255 255 255 255 255 0 0 0 255 255 255 255 255 255 255 255 255 0 0 0 0 0 0 160 160 160 0 0 0 0 0 0 255 255 255 255 255 255 255 255 255 255 255 255 0 0 0 250 250 250 236 236 236 236 236 236 236 236 236 236 236 236 0 0 0 
130 91 49 130 91 49 130 91 49 130 91 49 130 91 49 130 91 49 130 91 49 130 91 49 130 91 49 130 91 49 130 91 49 130 91 49 130 91 49 130 91 49 130 91 49 130 91 49 130 91 49 130 91 49 130 91 49 130 91 49 130 91 49 130 91 49 130 91 49 130 91 49 130 91 49 130 91 49 144 99 52 234 234 234 234 234 234 234 234 234 234 234 234 234 234 234 234 234 234 255 255 255 255 255 255 0 0 0 255 255 255 231 231 231 231 231 231 231 231 231 231 231 231 255 255 255 255 255 255 0 0 0 255 255 255 255 255 255 255 255 255 255 255 255 255 255 255 255 255 255 0 0 0 255 255 255 255 255 255 255 255 255 255 255 255 255 255 255 255 255 255 255 255 255 0 0 0 208 208 208 236 236 236 236 236 236 208 208 208 0 0 0 
130 91 49 130 91 49 130 91 49 130 91 49 130 91 49 130 91 49 130 91 49 130 91 49 130 91 49 130 91 49 130 91 49 130 91 49 130 91 49 130 91 49 130 91 49 130 91 49 130 91 49 130 91 49 130 91 49 130 91 49 130 91 49 130 91 49 130 91 49 130 91 49 130 91 49 130 91 49 144 99 52 234 234 234 234 234 234 234 234 234 234 234 234 234 234 234 234 234 234 234 234 234 234 234 234 0 0 0 209 209 209 231 231 231 231 231 231 231 231 231 231 231 231 209 209 209 209 209 209 0 0 0 255 255 255 255 255 255 255 255 255 255 255 255 255 255 255 255 255 255 255 255 255 255 255 255 255 255 255 239 239 239 239 239 239 255 255 255 255 255 255 255 255 255 0 0 0 208 208 208 236 236 236 236 236 236 208 208 208 0 0 0 
130 91 49 130 91 49 130 91 49 130 91 49 130 91 49 130 91 49 130 91 49 130 91 49 130 91 49 130 91 49 130 91 49 130 91 49 130 91 49 130 91 49 130 91 49 130 91 49 130 91 49 130 91 49 130 91 49 130 91 49 130 91 49 130 91 49 130 91 49 130 91 49 130 91 49 130 91 49 144 99 52 234 234 234 234 234 234 234 234 234 234 234 234 234 234 234 234 234 234 203 203 203 203 203 203 0 0 0 209 209 209 209 209 209 231 231 231 209 209 209 209 209 209 209 209 209 0 0 0 223 223 223 223 223 223 239 239 239 239 239 239 239 239 239 239 239 239 239 239 239 239 239 239 239 239 239 239 239 239 239 239 239 239 239 239 239 239 239 223 223 223 223 223 223 0 0 0 208 208 208 236 236 236 208 208 208 208 208 208 0 0 0 
130 91 49 130 91 49 130 91 49 130 91 49 130 91 49 130 91 49 130 91 49 130 91 49 130 91 49 130 91 49 130 91 49 130 91 49 130 91 49 130 91 49 130 91 49 130 91 49 130 91 49 130 91 49 130 91 49 130 91 49 130 91 49 130 91 49 130 91 49 130 91 49 130 91 49 130 91 49 144 99 52 234 234 234 234 234 234 234 234 234 234 234 234 203 203 203 203 203 203 203 203 203 203 203 203 0 0 0 209 209 209 209 209 209 209 209 209 209 209 209 209 209 209 209 209 209 0 0 0 223 223 223 223 223 223 223 223 223 223 223 223 223 223 223 223 223 223 239 239 239 239 239 239 239 239 239 223 223 223 223 223 223 223 223 223 223 223 223 223 223 223 223 223 223 0 0 0 208 208 208 208 208 208 208 208 208 208 208 208 0 0 0 
130 91 49 130 91 49 130 91 49 130 91 49 130 91 49 130 91 49 130 91 49 130 91 49 130 91 49 130 91 49 130 91 49 130 91 49 130 91 49 130 91 49 130 91 49 130 91 49 130 91 49 130 91 49 130 91 49 130 91 49 130 91 49 130 91 49 130 91 49 130 91 49 130 91 49 130 91 49 144 99 52 203 203 203 203 203 203 203 203 203 203 203 203 203 203 203 203 203 203 203 203 203 203 203 203 0 0 0 209 209 209 209 209 209 209 209 209 209 209 209 209 209 209 0 0 0 223 223 223 223 223 223 223 223 223 223 223 223 223 223 223 223 223 223 223 223 223 223 223 223 223 223 223 223 223 223 223 223 223 223 223 223 223 223 223 223 223 223 223 223 223 223 223 223 0 0 0 208 208 208 208 208 208 208 208 208 208 208 208 0 0 0 
130 91 49 130 91 49 130 91 49 130 91 49 130 91 49 130 91 49 130 91 49 130 91 49 130 91 49 130 91 49 130 91 49 130 91 49 130 91 49 130 91 49 130 91 49 130 91 49 130 91 49 130 91 49 130 91 49 130 91 49 130 91 49 130 91 49 130 91 49 130 91 49 130 91 49 130 91 49 144 99 52 0 0 0 0 0 0 0 0 0 0 0 0 0 0 0 0 0 0 0 0 0 0 0 0 0 0 0 0 0 0 0 0 0 0 0 0 0 0 0 0 0 0 0 0 0 0 0 0 0 0 0 0 0 0 0 0 0 0 0 0 0 0 0 0 0 0 0 0 0 0 0 0 0 0 0 0 0 0 0 0 0 0 0 0 0 0 0 0 0 0 0 0 0 0 0 0 0 0 0 0 0 0 0 0 0 0 0 0 0 0 0 
