P3
# Created by GIMP version 2.10.30 PNM plug-in
64 64
255
124
124
124
124
124
124
124
124
124
72
56
24
84
60
28
92
64
32
92
64
32
116
76
40
92
64
32
92
64
32
92
64
32
92
64
32
92
64
32
92
64
32
92
64
32
92
64
32
92
64
32
92
64
32
92
64
32
92
64
32
92
64
32
92
64
32
84
60
28
64
48
24
72
56
24
92
64
32
92
64
32
92
64
32
92
64
32
84
60
28
84
60
28
72
56
24
84
84
84
100
100
100
124
124
124
124
124
124
112
112
112
112
112
112
112
112
112
112
112
112
44
44
44
44
44
44
44
44
44
44
44
44
44
44
44
44
44
44
44
44
44
72
72
72
100
100
100
112
112
112
84
84
84
100
100
100
84
84
84
84
84
84
76
76
76
76
76
76
76
76
76
76
76
76
84
84
84
92
92
92
92
92
92
100
100
100
112
112
112
124
124
124
124
124
124
112
112
112
112
112
112
84
84
84
72
56
24
84
60
28
92
64
32
116
76
40
92
64
32
92
64
32
92
64
32
92
64
32
92
64
32
92
64
32
92
64
32
84
60
28
92
64
32
92
64
32
92
64
32
92
64
32
92
64
32
92
64
32
84
60
28
64
48
24
72
56
24
92
64
32
92
64
32
92
64
32
84
60
28
72
56
24
72
56
24
84
84
84
100
100
100
124
124
124
124
124
124
112
112
112
124
124
124
112
112
112
124
124
124
124
124
124
72
72
72
44
44
44
44
44
44
44
44
44
44
44
44
44
44
44
72
72
72
100
100
100
112
112
112
84
84
84
100
100
100
84
84
84
76
76
76
76
76
76
84
84
84
84
84
84
92
92
92
100
100
100
100
100
100
100
100
100
100
100
100
100
100
100
100
100
100
112
112
112
112
112
112
112
112
112
112
112
112
100
100
100
84
84
84
72
56
24
84
60
28
108
72
36
92
64
32
92
64
32
92
64
32
92
64
32
92
64
32
92
64
32
92
64
32
92
64
32
84
60
28
84
60
28
92
64
32
92
64
32
92
64
32
92
64
32
84
60
28
64
48
24
72
56
24
92
64
32
84
60
28
84
60
28
72
56
24
72
72
72
84
84
84
100
100
100
100
100
100
72
72
72
92
64
32
92
64
32
92
64
32
92
64
32
72
72
72
100
100
100
100
100
100
72
72
72
44
44
44
44
44
44
44
44
44
72
72
72
100
100
100
112
112
112
84
84
84
100
100
100
84
84
84
76
76
76
84
84
84
92
92
92
100
100
100
100
100
100
100
100
100
100
100
100
100
100
100
100
100
100
100
100
100
100
100
100
100
100
100
100
100
100
84
84
84
112
112
112
124
124
124
112
112
112
100
100
100
84
84
84
72
56
24
108
72
36
92
64
32
92
64
32
92
64
32
92
64
32
92
64
32
92
64
32
92
64
32
92
64
32
84
60
28
84
60
28
92
64
32
92
64
32
92
64
32
92
64
32
72
56
24
64
48
24
72
56
24
84
60
28
72
56
24
72
56
24
84
84
84
100
100
100
124
124
124
72
72
72
92
64
32
92
64
32
72
56
24
72
56
24
64
48
24
72
56
24
64
48
24
72
56
24
100
100
100
100
100
100
72
72
72
72
72
72
72
72
72
100
100
100
112
112
112
84
84
84
100
100
100
100
100
100
100
100
100
100
100
100
100
100
100
100
100
100
92
92
92
84
84
84
84
84
84
76
76
76
76
76
76
76
76
76
76
76
76
76
76
76
76
76
76
76
76
76
76
76
76
84
84
84
112
112
112
112
112
112
124
124
124
100
100
100
72
56
24
108
72
36
92
64
32
92
64
32
92
64
32
92
64
32
92
64
32
92
64
32
92
64
32
92
64
32
92
64
32
92
64
32
92
64
32
92
64
32
92
64
32
84
60
28
72
56
24
64
48
24
72
56
24
72
56
24
84
84
84
100
100
100
124
124
124
124
124
124
72
72
72
92
64
32
72
56
24
72
56
24
72
56
24
72
56
24
64
48
24
72
56
24
64
48
24
72
56
24
72
72
72
124
124
124
100
100
100
100
100
100
100
100
100
112
112
112
84
84
84
100
100
100
92
92
92
92
92
92
92
92
92
92
92
92
92
92
92
92
92
92
92
92
92
92
92
92
92
92
92
92
92
92
92
92
92
92
92
92
92
92
92
92
92
92
92
92
92
92
92
92
76
76
76
76
76
76
84
84
84
112
112
112
112
112
112
112
112
112
72
56
24
84
60
28
92
64
32
92
64
32
92
64
32
92
64
32
92
64
32
84
60
28
92
64
32
92
64
32
92
64
32
92
64
32
92
64
32
92
64
32
84
60
28
64
48
24
64
48
24
72
56
24
84
84
84
100
100
100
124
124
124
124
124
124
100
100
100
92
64
32
92
64
32
72
56
24
72
56
24
72
56
24
72
56
24
72
56
24
64
48
24
72
56
24
64
48
24
64
48
24
56
44
20
100
100
100
140
140
140
168
168
168
112
112
112
84
84
84
100
100
100
84
84
84
76
76
76
76
76
76
76
76
76
76
76
76
76
76
76
76
76
76
76
76
76
76
76
76
76
76
76
76
76
76
76
76
76
76
76
76
76
76
76
76
76
76
76
76
76
76
76
76
76
76
76
76
76
76
76
76
76
84
84
84
112
112
112
124
124
124
84
84
84
72
56
24
84
60
28
92
64
32
92
64
32
92
64
32
92
64
32
92
64
32
92
64
32
92
64
32
92
64
32
92
64
32
92
64
32
84
60
28
64
48
24
64
48
24
72
72
72
84
84
84
100
100
100
124
124
124
124
124
124
72
72
72
92
64
32
72
56
24
72
56
24
72
56
24
72
56
24
72
56
24
72
56
24
72
56
24
64
48
24
64
48
24
72
56
24
56
44
20
56
44
20
100
100
100
168
168
168
124
124
124
84
84
84
100
100
100
84
84
84
76
76
76
76
76
76
76
76
76
76
76
76
76
76
76
72
72
72
76
76
76
76
76
76
76
76
76
76
76
76
76
76
76
76
76
76
76
76
76
76
76
76
76
76
76
76
76
76
76
76
76
76
76
76
76
76
76
76
76
76
76
76
76
84
84
84
112
112
112
124
124
124
84
84
84
72
56
24
84
60
28
92
64
32
92
64
32
92
64
32
92
64
32
92
64
32
92
64
32
92
64
32
84
60
28
84
60
28
64
48
24
72
56
24
84
84
84
100
100
100
100
100
100
124
124
124
100
100
100
92
64
32
92
64
32
72
56
24
72
56
24
72
56
24
72
56
24
72
56
24
72
56
24
72
56
24
72
56
24
64
48
24
64
48
24
72
56
24
56
44
20
56
44
20
100
100
100
152
152
152
124
124
124
100
100
100
84
84
84
76
76
76
76
76
76
76
76
76
76
76
76
76
76
76
76
76
76
76
76
76
76
76
76
76
76
76
76
76
76
76
76
76
76
76
76
76
76
76
76
76
76
76
76
76
76
76
76
76
76
76
76
76
76
76
76
76
76
76
76
76
76
76
76
76
76
72
72
72
84
84
84
124
124
124
100
100
100
84
84
84
72
56
24
84
60
28
92
64
32
92
64
32
92
64
32
92
64
32
84
60
28
84
60
28
64
48
24
64
48
24
84
84
84
100
100
100
100
100
100
124
124
124
124
124
124
72
72
72
92
64
32
84
60
28
72
56
24
72
56
24
72
56
24
72
56
24
72
56
24
72
56
24
64
48
24
72
56
24
72
56
24
64
48
24
56
44
20
72
56
24
56
44
20
56
44
20
100
100
100
152
152
152
100
100
100
84
84
84
76
76
76
76
76
76
76
76
76
76
76
76
72
72
72
76
76
76
76
76
76
76
76
76
76
76
76
76
76
76
76
76
76
76
76
76
76
76
76
76
76
76
72
72
72
76
76
76
76
76
76
76
76
76
76
76
76
76
76
76
76
76
76
76
76
76
76
76
76
72
72
72
72
72
72
124
124
124
124
124
124
100
100
100
84
84
84
72
56
24
84
60
28
84
60
28
84
60
28
84
60
28
64
48
24
64
48
24
84
84
84
100
100
100
124
124
124
124
124
124
124
124
124
100
100
100
92
64
32
92
64
32
84
60
28
72
56
24
72
56
24
72
56
24
72
56
24
72
56
24
72
56
24
72
56
24
64
48
24
72
56
24
72
56
24
64
48
24
56
44
20
64
48
24
56
44
20
56
44
20
100
100
100
140
140
140
100
100
100
84
84
84
76
76
76
76
76
76
76
76
76
72
72
72
76
76
76
76
76
76
76
76
76
76
76
76
76
76
76
76
76
76
76
76
76
76
76
76
76
76
76
76
76
76
76
76
76
76
76
76
76
76
76
76
76
76
76
76
76
76
76
76
76
76
76
76
76
76
76
76
76
72
72
72
72
72
72
124
124
124
112
112
112
124
124
124
100
100
100
84
84
84
64
48
24
64
48
24
64
48
24
64
48
24
72
72
72
84
84
84
100
100
100
124
124
124
124
124
124
100
100
100
72
72
72
92
64
32
84
60
28
84
60
28
72
56
24
72
56
24
72
56
24
72
56
24
72
56
24
72
56
24
72
56
24
72
56
24
72
56
24
72
56
24
72
56
24
72
56
24
56
44
20
64
48
24
56
44
20
64
64
64
100
100
100
140
140
140
100
100
100
92
92
92
76
76
76
72
72
72
76
76
76
76
76
76
76
76
76
72
72
72
76
76
76
76
76
76
76
76
76
76
76
76
76
76
76
76
76
76
76
76
76
76
76
76
76
76
76
76
76
76
76
76
76
76
76
76
76
76
76
76
76
76
76
76
76
76
76
76
76
76
76
72
72
72
72
72
72
112
112
112
112
112
112
124
124
124
124
124
124
100
100
100
84
84
84
84
84
84
84
84
84
84
84
84
84
84
84
100
100
100
124
124
124
124
124
124
100
100
100
92
64
32
92
64
32
84
60
28
72
56
24
72
56
24
72
56
24
84
60
28
72
56
24
72
56
24
72
56
24
72
56
24
72
56
24
72
56
24
56
44
20
72
56
24
72
56
24
72
56
24
56
44
20
56
44
20
56
44
20
76
76
76
112
112
112
124
124
124
100
100
100
92
92
92
76
76
76
76
76
76
76
76
76
72
72
72
76
76
76
76
76
76
76
76
76
76
76
76
76
76
76
76
76
76
72
72
72
72
72
72
76
76
76
76
76
76
76
76
76
76
76
76
76
76
76
76
76
76
72
72
72
76
76
76
76
76
76
76
76
76
76
76
76
72
72
72
56
56
56
112
112
112
112
112
112
100
100
100
84
84
84
84
84
84
84
84
84
100
100
100
112
112
112
152
152
152
152
152
152
140
140
140
112
112
112
100
100
100
92
64
32
84
60
28
84
60
28
72
56
24
84
60
28
84
60
28
72
56
24
72
56
24
72
56
24
72
56
24
72
56
24
72
56
24
72
56
24
72
56
24
56
44
20
72
56
24
72
56
24
72
56
24
56
44
20
56
44
20
56
44
20
84
84
84
112
112
112
140
140
140
100
100
100
84
84
84
76
76
76
76
76
76
76
76
76
76
76
76
76
76
76
76
76
76
76
76
76
76
76
76
76
76
76
76
76
76
72
72
72
72
72
72
76
76
76
72
72
72
72
72
72
72
72
72
72
72
72
76
76
76
76
76
76
76
76
76
76
76
76
76
76
76
72
72
72
56
56
56
100
100
100
124
124
124
100
100
100
84
84
84
84
84
84
84
84
84
84
84
84
72
72
72
100
100
100
152
152
152
140
140
140
140
140
140
100
100
100
92
64
32
72
56
24
84
60
28
84
60
28
72
56
24
84
60
28
84
60
28
72
56
24
72
56
24
72
56
24
72
56
24
72
56
24
72
56
24
72
56
24
72
56
24
56
44
20
72
56
24
72
56
24
72
56
24
56
44
20
56
44
20
56
44
20
100
100
100
112
112
112
124
124
124
100
100
100
84
84
84
76
76
76
76
76
76
76
76
76
76
76
76
76
76
76
76
76
76
76
76
76
76
76
76
76
76
76
76
76
76
76
76
76
76
76
76
76
76
76
72
72
72
72
72
72
72
72
72
72
72
72
76
76
76
76
76
76
76
76
76
76
76
76
72
72
72
56
56
56
100
100
100
124
124
124
112
112
112
84
84
84
84
84
84
84
84
84
84
84
84
84
84
84
72
72
72
72
72
72
112
112
112
140
140
140
124
124
124
92
64
32
84
60
28
72
56
24
92
64
32
72
56
24
72
56
24
72
56
24
72
56
24
72
56
24
72
56
24
72
56
24
72
56
24
72
56
24
72
56
24
72
56
24
72
56
24
56
44
20
72
56
24
72
56
24
72
56
24
56
44
20
56
44
20
64
64
64
100
100
100
124
124
124
124
124
124
100
100
100
84
84
84
76
76
76
76
76
76
76
76
76
76
76
76
76
76
76
76
76
76
76
76
76
76
76
76
76
76
76
76
76
76
76
76
76
76
76
76
76
76
76
72
72
72
72
72
72
72
72
72
72
72
72
76
76
76
76
76
76
76
76
76
72
72
72
56
56
56
100
100
100
124
124
124
124
124
124
100
100
100
84
84
84
84
84
84
84
84
84
84
84
84
84
84
84
72
72
72
72
72
72
72
72
72
100
100
100
84
84
84
92
64
32
72
56
24
92
64
32
84
60
28
72
56
24
72
56
24
72
56
24
72
56
24
72
56
24
72
56
24
72
56
24
72
56
24
72
56
24
72
56
24
72
56
24
64
48
24
56
44
20
72
56
24
72
56
24
72
56
24
56
44
20
56
44
20
76
76
76
112
112
112
124
124
124
124
124
124
100
100
100
84
84
84
76
76
76
76
76
76
76
76
76
76
76
76
76
76
76
76
76
76
76
76
76
76
76
76
76
76
76
76
76
76
76
76
76
76
76
76
76
76
76
72
72
72
72
72
72
72
72
72
72
72
72
76
76
76
72
72
72
72
72
72
56
56
56
100
100
100
124
124
124
124
124
124
112
112
112
100
100
100
84
84
84
84
84
84
84
84
84
84
84
84
84
84
84
64
64
64
76
76
76
84
84
84
72
72
72
100
100
100
92
64
32
72
56
24
92
64
32
72
56
24
72
56
24
84
60
28
72
56
24
72
56
24
72
56
24
72
56
24
72
56
24
72
56
24
72
56
24
72
56
24
72
56
24
64
48
24
56
44
20
72
56
24
72
56
24
64
48
24
56
44
20
56
44
20
84
84
84
124
124
124
124
124
124
124
124
124
84
84
84
76
76
76
76
76
76
76
76
76
76
76
76
76
76
76
76
76
76
76
76
76
76
76
76
76
76
76
76
76
76
76
76
76
76
76
76
76
76
76
76
76
76
76
76
76
76
76
76
76
76
76
76
76
76
72
72
72
56
56
56
56
56
56
100
100
100
100
100
100
72
72
72
72
72
72
100
100
100
112
112
112
84
84
84
84
84
84
84
84
84
84
84
84
76
76
76
64
64
64
84
84
84
84
84
84
100
100
100
100
100
100
92
64
32
72
56
24
84
60
28
72
56
24
72
56
24
72
56
24
72
56
24
72
56
24
72
56
24
72
56
24
72
56
24
72
56
24
72
56
24
72
56
24
72
56
24
56
44
20
56
44
20
72
56
24
72
56
24
64
48
24
56
44
20
56
44
20
100
100
100
108
72
36
92
64
32
100
100
100
84
84
84
76
76
76
76
76
76
76
76
76
76
76
76
76
76
76
76
76
76
76
76
76
76
76
76
72
72
72
76
76
76
76
76
76
76
76
76
76
76
76
76
76
76
76
76
76
76
76
76
76
76
76
72
72
72
56
56
56
64
64
64
100
100
100
100
100
100
72
72
72
84
60
28
84
60
28
72
72
72
100
100
100
100
100
100
84
84
84
84
84
84
84
84
84
64
64
64
64
64
64
84
84
84
84
84
84
84
84
84
112
112
112
92
64
32
84
60
28
84
60
28
72
56
24
72
56
24
72
56
24
72
56
24
72
56
24
72
56
24
72
56
24
72
56
24
72
56
24
72
56
24
72
56
24
72
56
24
56
44
20
64
48
24
72
56
24
64
48
24
56
44
20
64
48
24
92
92
92
108
72
36
92
64
32
92
64
32
84
84
84
100
100
100
64
64
64
76
76
76
76
76
76
76
76
76
76
76
76
76
76
76
76
76
76
76
76
76
76
76
76
76
76
76
76
76
76
76
76
76
76
76
76
76
76
76
76
76
76
72
72
72
64
64
64
56
56
56
64
64
64
64
64
64
100
100
100
72
72
72
84
60
28
92
64
32
72
56
24
84
60
28
72
72
72
124
124
124
72
72
72
84
84
84
64
64
64
64
64
64
64
64
64
84
84
84
84
84
84
84
84
84
100
100
100
100
100
100
84
60
28
84
60
28
72
56
24
72
56
24
72
56
24
72
56
24
72
56
24
72
56
24
72
56
24
72
56
24
72
56
24
72
56
24
72
56
24
64
48
24
56
44
20
64
48
24
56
44
20
56
44
20
64
48
24
100
100
100
108
72
36
92
64
32
92
64
32
92
64
32
72
56
24
100
100
100
100
100
100
64
64
64
72
72
72
76
76
76
76
76
76
76
76
76
76
76
76
76
76
76
76
76
76
76
76
76
76
76
76
76
76
76
72
72
72
64
64
64
56
56
56
52
52
52
52
52
52
56
56
56
64
64
64
100
100
100
72
72
72
84
60
28
92
64
32
72
56
24
72
56
24
72
56
24
64
48
24
100
100
100
112
112
112
72
72
72
64
64
64
84
84
84
64
64
64
84
84
84
84
84
84
84
84
84
72
72
72
124
124
124
72
72
72
84
60
28
72
56
24
72
56
24
72
56
24
72
56
24
72
56
24
72
56
24
72
56
24
72
56
24
72
56
24
72
56
24
64
48
24
56
44
20
56
44
20
56
44
20
56
44
20
76
76
76
100
100
100
124
124
124
72
56
24
72
56
24
72
56
24
72
56
24
72
56
24
112
112
112
112
112
112
100
100
100
64
64
64
64
64
64
64
64
64
72
72
72
72
72
72
72
72
72
72
72
72
72
72
72
64
64
64
64
64
64
56
56
56
52
52
52
56
56
56
64
64
64
56
56
56
84
84
84
100
100
100
100
100
100
84
60
28
92
64
32
72
56
24
72
56
24
72
56
24
72
56
24
64
48
24
72
72
72
124
124
124
100
100
100
72
72
72
84
84
84
64
64
64
84
84
84
84
84
84
84
84
84
72
72
72
112
112
112
100
100
100
64
48
24
72
56
24
72
56
24
72
56
24
72
56
24
72
56
24
72
56
24
72
56
24
72
56
24
72
56
24
72
56
24
56
44
20
56
44
20
56
44
20
56
44
20
76
76
76
100
100
100
124
124
124
124
124
124
124
124
124
100
100
100
100
100
100
100
100
100
100
100
100
140
140
140
140
140
140
100
100
100
100
100
100
64
64
64
56
56
56
52
52
52
52
52
52
52
52
52
52
52
52
52
52
52
52
52
52
52
52
52
56
56
56
64
64
64
64
64
64
56
56
56
84
84
84
100
100
100
124
124
124
72
72
72
92
64
32
72
56
24
72
56
24
72
56
24
72
56
24
72
56
24
64
48
24
64
48
24
100
100
100
112
112
112
72
72
72
84
84
84
64
64
64
84
84
84
84
84
84
84
84
84
56
56
56
100
100
100
124
124
124
72
72
72
72
56
24
72
56
24
72
56
24
72
56
24
72
56
24
72
56
24
72
56
24
72
56
24
72
56
24
56
44
20
56
44
20
56
44
20
64
64
64
92
92
92
100
100
100
84
84
84
84
84
84
84
84
84
84
84
84
84
84
84
84
84
84
84
84
84
124
124
124
140
140
140
152
152
152
152
152
152
112
112
112
100
100
100
84
84
84
56
56
56
64
64
64
64
64
64
64
64
64
64
64
64
64
64
64
64
64
64
64
64
64
64
64
64
56
56
56
84
84
84
100
100
100
124
124
124
72
72
72
84
60
28
72
56
24
72
56
24
72
56
24
84
60
28
72
56
24
72
56
24
64
48
24
72
56
24
100
100
100
124
124
124
100
100
100
72
72
72
64
64
64
84
84
84
84
84
84
76
76
76
56
56
56
100
100
100
124
124
124
100
100
100
64
48
24
72
56
24
72
56
24
72
56
24
72
56
24
72
56
24
72
56
24
72
56
24
56
44
20
56
44
20
64
64
64
84
84
84
100
100
100
100
100
100
84
84
84
72
72
72
64
64
64
56
56
56
64
64
64
64
64
64
64
64
64
64
64
64
84
84
84
124
124
124
152
152
152
152
152
152
140
140
140
124
124
124
100
100
100
84
84
84
56
56
56
64
64
64
64
64
64
64
64
64
64
64
64
64
64
64
56
56
56
56
56
56
84
84
84
100
100
100
124
124
124
72
72
72
84
60
28
92
64
32
72
56
24
72
56
24
72
56
24
72
56
24
72
56
24
72
56
24
64
48
24
72
56
24
72
72
72
124
124
124
124
124
124
100
100
100
64
64
64
84
84
84
76
76
76
72
72
72
56
56
56
100
100
100
124
124
124
124
124
124
72
72
72
56
44
20
64
48
24
72
56
24
72
56
24
72
56
24
64
48
24
56
44
20
56
44
20
84
84
84
100
100
100
124
124
124
100
100
100
84
84
84
72
72
72
64
64
64
64
64
64
56
56
56
56
56
56
64
64
64
64
64
64
64
64
64
64
64
64
84
84
84
124
124
124
140
140
140
140
140
140
112
112
112
124
124
124
100
100
100
84
84
84
56
56
56
56
56
56
56
56
56
56
56
56
56
56
56
56
56
56
84
84
84
100
100
100
124
124
124
100
100
100
84
60
28
92
64
32
72
56
24
72
56
24
72
56
24
72
56
24
72
56
24
72
56
24
72
56
24
64
48
24
72
56
24
64
48
24
100
100
100
124
124
124
112
112
112
56
56
56
72
72
72
72
72
72
72
72
72
56
56
56
112
112
112
112
112
112
124
124
124
100
100
100
56
44
20
56
44
20
56
44
20
56
44
20
56
44
20
56
44
20
56
44
20
64
64
64
100
100
100
124
124
124
100
100
100
84
84
84
72
72
72
64
64
64
64
64
64
64
64
64
56
56
56
64
64
64
56
56
56
64
64
64
64
64
64
56
56
56
64
64
64
112
112
112
124
124
124
112
112
112
84
84
84
84
84
84
124
124
124
100
100
100
84
84
84
56
56
56
56
56
56
56
56
56
56
56
56
84
84
84
100
100
100
124
124
124
100
100
100
72
72
72
92
64
32
72
56
24
72
56
24
72
56
24
84
60
28
84
60
28
72
56
24
72
56
24
72
56
24
56
44
20
72
56
24
64
48
24
84
84
84
112
112
112
124
124
124
100
100
100
56
56
56
56
56
56
56
56
56
112
112
112
124
124
124
124
124
124
124
124
124
124
124
124
72
72
72
56
44
20
56
44
20
56
44
20
56
44
20
64
64
64
76
76
76
92
92
92
124
124
124
84
84
84
84
84
84
72
72
72
64
64
64
72
72
72
72
72
72
64
64
64
56
56
56
64
64
64
56
56
56
64
64
64
64
64
64
56
56
56
72
72
72
100
100
100
112
112
112
100
100
100
72
72
72
72
72
72
84
84
84
124
124
124
100
100
100
84
84
84
84
84
84
84
84
84
84
84
84
100
100
100
124
124
124
100
100
100
72
72
72
84
60
28
72
56
24
72
56
24
72
56
24
72
56
24
84
60
28
84
60
28
72
56
24
72
56
24
72
56
24
56
44
20
72
56
24
64
48
24
72
72
72
124
124
124
140
140
140
112
112
112
100
100
100
100
100
100
112
112
112
124
124
124
84
84
84
108
72
36
108
72
36
84
84
84
100
100
100
72
72
72
72
72
72
76
76
76
92
92
92
92
92
92
124
124
124
124
124
124
84
84
84
84
84
84
72
72
72
64
64
64
64
64
64
72
72
72
72
72
72
64
64
64
56
56
56
64
64
64
64
64
64
56
56
56
64
64
64
52
52
52
84
84
84
100
100
100
112
112
112
84
84
84
72
72
72
72
72
72
72
72
72
84
84
84
124
124
124
124
124
124
124
124
124
140
140
140
140
140
140
124
124
124
112
112
112
72
72
72
84
60
28
72
56
24
72
56
24
72
56
24
72
56
24
72
56
24
72
56
24
72
56
24
84
60
28
72
56
24
72
56
24
56
44
20
72
56
24
64
48
24
72
72
72
124
124
124
112
112
112
140
140
140
112
112
112
112
112
112
100
100
100
108
72
36
108
72
36
92
64
32
92
64
32
92
64
32
92
64
32
100
100
100
100
100
100
100
100
100
112
112
112
124
124
124
112
112
112
84
84
84
84
84
84
72
72
72
64
64
64
64
64
64
64
64
64
64
64
64
64
64
64
64
64
64
52
52
52
64
64
64
64
64
64
56
56
56
56
56
56
48
48
48
84
84
84
100
100
100
100
100
100
72
72
72
72
72
72
72
72
72
72
72
72
72
72
72
100
100
100
124
124
124
140
140
140
140
140
140
124
124
124
112
112
112
100
100
100
84
60
28
72
56
24
72
56
24
72
56
24
72
56
24
72
56
24
72
56
24
72
56
24
72
56
24
72
56
24
72
56
24
64
48
24
56
44
20
72
56
24
64
48
24
72
72
72
124
124
124
112
112
112
112
112
112
112
112
112
112
112
112
108
72
36
92
64
32
92
64
32
92
64
32
92
64
32
92
64
32
92
64
32
84
60
28
124
124
124
124
124
124
112
112
112
112
112
112
84
84
84
84
84
84
72
72
72
64
64
64
64
64
64
64
64
64
72
72
72
64
64
64
64
64
64
64
64
64
52
52
52
64
64
64
64
64
64
56
56
56
56
56
56
72
72
72
100
100
100
112
112
112
84
84
84
84
84
84
72
72
72
72
72
72
72
72
72
72
72
72
84
84
84
100
100
100
112
112
112
112
112
112
100
100
100
92
92
92
84
84
84
84
60
28
72
56
24
72
56
24
84
60
28
84
60
28
84
60
28
72
56
24
72
56
24
72
56
24
72
56
24
72
56
24
64
48
24
64
48
24
72
56
24
64
48
24
84
84
84
112
112
112
140
140
140
112
112
112
112
112
112
112
112
112
100
100
100
92
64
32
92
64
32
92
64
32
92
64
32
92
64
32
92
64
32
72
56
24
124
124
124
112
112
112
124
124
124
84
84
84
84
84
84
84
84
84
64
64
64
64
64
64
64
64
64
64
64
64
64
64
64
64
64
64
64
64
64
64
64
64
52
52
52
64
64
64
64
64
64
56
56
56
52
52
52
84
84
84
112
112
112
124
124
124
124
124
124
100
100
100
100
100
100
100
100
100
100
100
100
100
100
100
100
100
100
100
100
100
124
124
124
112
112
112
92
92
92
84
84
84
92
92
92
84
60
28
72
56
24
72
56
24
84
60
28
84
60
28
84
60
28
72
56
24
72
56
24
72
56
24
72
56
24
72
56
24
56
44
20
64
48
24
64
48
24
64
48
24
84
84
84
124
124
124
124
124
124
100
100
100
84
84
84
100
100
100
124
124
124
124
124
124
92
64
32
92
64
32
92
64
32
84
60
28
72
56
24
72
56
24
124
124
124
124
124
124
84
84
84
84
84
84
72
72
72
84
84
84
64
64
64
64
64
64
64
64
64
64
64
64
64
64
64
64
64
64
64
64
64
64
64
64
52
52
52
64
64
64
64
64
64
56
56
56
48
48
48
100
100
100
84
84
84
116
76
40
116
76
40
116
76
40
116
76
40
116
76
40
116
76
40
116
76
40
116
76
40
116
76
40
72
56
24
92
64
32
116
76
40
92
92
92
100
100
100
84
60
28
72
56
24
72
56
24
84
60
28
84
60
28
84
60
28
72
56
24
72
56
24
72
56
24
72
56
24
64
48
24
56
44
20
72
56
24
64
48
24
72
72
72
100
100
100
124
124
124
100
100
100
84
84
84
92
92
92
84
84
84
100
100
100
124
124
124
124
124
124
84
60
28
84
60
28
72
56
24
72
56
24
100
100
100
124
124
124
84
84
84
84
84
84
72
72
72
72
72
72
84
84
84
72
72
72
64
64
64
64
64
64
64
64
64
64
64
64
64
64
64
64
64
64
64
64
64
48
48
48
64
64
64
64
64
64
52
52
52
84
84
84
112
112
112
108
72
36
108
72
36
108
72
36
92
64
32
92
64
32
92
64
32
92
64
32
92
64
32
92
64
32
92
64
32
72
56
24
92
64
32
92
64
32
92
64
32
124
124
124
84
60
28
72
56
24
72
56
24
72
56
24
72
56
24
72
56
24
72
56
24
72
56
24
72
56
24
72
56
24
64
48
24
56
44
20
64
48
24
72
72
72
100
100
100
100
100
100
100
100
100
84
84
84
92
92
92
84
84
84
84
84
84
84
84
84
100
100
100
124
124
124
124
124
124
100
100
100
84
84
84
84
84
84
124
124
124
100
100
100
84
84
84
72
72
72
64
64
64
72
72
72
84
84
84
72
72
72
64
64
64
64
64
64
64
64
64
64
64
64
64
64
64
64
64
64
56
56
56
48
48
48
64
64
64
56
56
56
48
48
48
84
84
84
100
100
100
108
72
36
92
64
32
108
72
36
92
64
32
92
64
32
92
64
32
92
64
32
92
64
32
92
64
32
92
64
32
72
56
24
92
64
32
92
64
32
84
60
28
100
100
100
84
60
28
72
56
24
72
56
24
84
60
28
72
56
24
72
56
24
72
56
24
72
56
24
72
56
24
72
56
24
56
44
20
64
48
24
72
72
72
100
100
100
100
100
100
124
124
124
84
84
84
92
92
92
84
84
84
84
84
84
84
84
84
84
84
84
84
84
84
100
100
100
124
124
124
140
140
140
124
124
124
140
140
140
124
124
124
84
84
84
72
72
72
64
64
64
64
64
64
72
72
72
84
84
84
72
72
72
64
64
64
64
64
64
64
64
64
64
64
64
64
64
64
64
64
64
56
56
56
48
48
48
64
64
64
56
56
56
48
48
48
100
100
100
84
84
84
128
80
44
92
64
32
108
72
36
92
64
32
92
64
32
84
60
28
92
64
32
92
64
32
92
64
32
92
64
32
72
56
24
92
64
32
92
64
32
84
60
28
100
100
100
84
60
28
72
56
24
72
56
24
72
56
24
72
56
24
72
56
24
72
56
24
72
56
24
72
56
24
64
48
24
56
44
20
72
72
72
100
100
100
100
100
100
112
112
112
100
100
100
84
84
84
92
92
92
84
84
84
84
84
84
84
84
84
84
84
84
84
84
84
84
84
84
100
100
100
124
124
124
140
140
140
140
140
140
140
140
140
84
84
84
64
64
64
64
64
64
64
64
64
72
72
72
84
84
84
76
76
76
64
64
64
64
64
64
64
64
64
64
64
64
64
64
64
64
64
64
52
52
52
48
48
48
64
64
64
48
48
48
100
100
100
112
112
112
72
72
72
128
80
44
92
64
32
108
72
36
92
64
32
92
64
32
92
64
32
92
64
32
92
64
32
92
64
32
92
64
32
72
56
24
92
64
32
92
64
32
84
60
28
100
100
100
64
48
24
72
56
24
72
56
24
72
56
24
72
56
24
72
56
24
72
56
24
72
56
24
72
56
24
56
44
20
72
72
72
100
100
100
100
100
100
124
124
124
124
124
124
84
84
84
92
92
92
84
84
84
84
84
84
84
84
84
84
84
84
84
84
84
84
84
84
84
84
84
84
84
84
100
100
100
140
140
140
152
152
152
152
152
152
84
84
84
64
64
64
64
64
64
64
64
64
72
72
72
84
84
84
76
76
76
64
64
64
64
64
64
64
64
64
64
64
64
64
64
64
64
64
64
52
52
52
48
48
48
56
56
56
72
72
72
112
112
112
112
112
112
108
72
36
128
80
44
92
64
32
108
72
36
92
64
32
92
64
32
92
64
32
92
64
32
92
64
32
92
64
32
92
64
32
72
56
24
92
64
32
92
64
32
84
60
28
100
100
100
72
72
72
64
48
24
72
56
24
72
56
24
72
56
24
72
56
24
72
56
24
72
56
24
64
48
24
72
72
72
100
100
100
100
100
100
112
112
112
124
124
124
100
100
100
84
84
84
92
92
92
84
84
84
84
84
84
84
84
84
84
84
84
84
84
84
84
84
84
84
84
84
84
84
84
84
84
84
100
100
100
152
152
152
152
152
152
100
100
100
64
64
64
64
64
64
64
64
64
72
72
72
84
84
84
76
76
76
72
72
72
64
64
64
64
64
64
64
64
64
64
64
64
64
64
64
48
48
48
48
48
48
52
52
52
84
84
84
124
124
124
100
100
100
108
72
36
128
80
44
92
64
32
108
72
36
92
64
32
92
64
32
92
64
32
92
64
32
92
64
32
92
64
32
92
64
32
84
60
28
92
64
32
92
64
32
84
60
28
100
100
100
100
100
100
72
72
72
64
48
24
72
56
24
72
56
24
72
56
24
72
56
24
64
48
24
72
72
72
100
100
100
100
100
100
112
112
112
124
124
124
100
100
100
84
84
84
92
92
92
84
84
84
84
84
84
92
92
92
84
84
84
84
84
84
84
84
84
84
84
84
84
84
84
72
72
72
84
84
84
84
84
84
100
100
100
140
140
140
112
112
112
56
56
56
64
64
64
64
64
64
72
72
72
84
84
84
76
76
76
72
72
72
64
64
64
64
64
64
64
64
64
64
64
64
64
64
64
48
48
48
48
48
48
48
48
48
100
100
100
124
124
124
84
84
84
108
72
36
128
80
44
92
64
32
92
64
32
92
64
32
92
64
32
92
64
32
92
64
32
92
64
32
92
64
32
84
60
28
84
60
28
92
64
32
92
64
32
84
60
28
100
100
100
124
124
124
100
100
100
72
72
72
64
48
24
72
56
24
72
56
24
64
48
24
72
72
72
100
100
100
100
100
100
124
124
124
124
124
124
112
112
112
100
100
100
84
84
84
84
84
84
84
84
84
84
84
84
84
84
84
84
84
84
84
84
84
84
84
84
84
84
84
84
84
84
84
84
84
72
72
72
84
84
84
84
84
84
140
140
140
140
140
140
84
84
84
56
56
56
56
56
56
72
72
72
84
84
84
72
72
72
76
76
76
64
64
64
64
64
64
64
64
64
64
64
64
64
64
64
48
48
48
48
48
48
72
72
72
112
112
112
112
112
112
108
72
36
92
64
32
128
80
44
92
64
32
108
72
36
92
64
32
92
64
32
92
64
32
92
64
32
92
64
32
92
64
32
84
60
28
92
64
32
92
64
32
92
64
32
72
56
24
100
100
100
124
124
124
124
124
124
100
100
100
72
72
72
64
48
24
64
48
24
72
72
72
100
100
100
100
100
100
140
140
140
140
140
140
124
124
124
100
100
100
84
84
84
84
84
84
84
84
84
84
84
84
84
84
84
92
92
92
84
84
84
84
84
84
84
84
84
84
84
84
84
84
84
84
84
84
64
64
64
84
84
84
84
84
84
100
100
100
112
112
112
112
112
112
48
48
48
56
56
56
56
56
56
84
84
84
64
64
64
76
76
76
64
64
64
64
64
64
64
64
64
64
64
64
64
64
64
48
48
48
48
48
48
84
84
84
124
124
124
100
100
100
108
72
36
92
64
32
128
80
44
108
72
36
92
64
32
92
64
32
92
64
32
92
64
32
92
64
32
92
64
32
92
64
32
84
60
28
92
64
32
92
64
32
92
64
32
72
56
24
100
100
100
124
124
124
124
124
124
124
124
124
100
100
100
72
72
72
72
72
72
100
100
100
100
100
100
152
152
152
152
152
152
140
140
140
100
100
100
84
84
84
84
84
84
84
84
84
84
84
84
84
84
84
84
84
84
92
92
92
84
84
84
84
84
84
84
84
84
84
84
84
84
84
84
84
84
84
64
64
64
72
72
72
84
84
84
84
84
84
100
100
100
100
100
100
72
72
72
48
48
48
52
52
52
48
48
48
64
64
64
76
76
76
64
64
64
64
64
64
64
64
64
64
64
64
64
64
64
48
48
48
48
48
48
84
84
84
124
124
124
84
84
84
108
72
36
92
64
32
128
80
44
116
76
40
92
64
32
92
64
32
92
64
32
92
64
32
92
64
32
92
64
32
84
60
28
92
64
32
92
64
32
92
64
32
92
64
32
72
56
24
100
100
100
44
44
44
44
44
44
56
56
56
84
84
84
100
100
100
100
100
100
100
100
100
124
124
124
152
152
152
152
152
152
112
112
112
84
84
84
84
84
84
84
84
84
84
84
84
92
92
92
92
92
92
84
84
84
84
84
84
84
84
84
84
84
84
92
92
92
84
84
84
84
84
84
84
84
84
72
72
72
64
64
64
84
84
84
84
84
84
84
84
84
100
100
100
84
84
84
72
72
72
48
48
48
48
48
48
56
56
56
72
72
72
72
72
72
64
64
64
64
64
64
64
64
64
56
56
56
48
48
48
72
72
72
100
100
100
112
112
112
108
72
36
92
64
32
92
64
32
116
76
40
128
80
44
92
64
32
92
64
32
92
64
32
92
64
32
92
64
32
92
64
32
84
60
28
92
64
32
92
64
32
92
64
32
92
64
32
72
56
24
100
100
100
44
44
44
44
44
44
44
44
44
44
44
44
56
56
56
84
84
84
44
44
44
72
72
72
140
140
140
140
140
140
100
100
100
84
84
84
84
84
84
84
84
84
92
92
92
92
92
92
92
92
92
84
84
84
84
84
84
84
84
84
84
84
84
84
84
84
84
84
84
84
84
84
84
84
84
72
72
72
64
64
64
84
84
84
84
84
84
84
84
84
84
84
84
72
72
72
84
84
84
100
100
100
84
84
84
52
52
52
52
52
52
72
72
72
64
64
64
64
64
64
64
64
64
56
56
56
48
48
48
84
84
84
112
112
112
124
124
124
108
72
36
92
64
32
92
64
32
108
72
36
128
80
44
92
64
32
92
64
32
92
64
32
92
64
32
92
64
32
84
60
28
92
64
32
92
64
32
92
64
32
92
64
32
92
64
32
72
56
24
100
100
100
44
44
44
44
44
44
44
44
44
44
44
44
32
32
32
44
44
44
44
44
44
32
32
32
72
72
72
124
124
124
84
84
84
84
84
84
84
84
84
84
84
84
92
92
92
92
92
92
92
92
92
84
84
84
84
84
84
84
84
84
84
84
84
84
84
84
84
84
84
72
72
72
84
84
84
72
72
72
64
64
64
72
72
72
84
84
84
84
84
84
84
84
84
72
72
72
100
100
100
100
100
100
84
84
84
48
48
48
52
52
52
52
52
52
56
56
56
64
64
64
64
64
64
56
56
56
48
48
48
100
100
100
124
124
124
124
124
124
84
60
28
92
64
32
92
64
32
92
64
32
116
76
40
92
64
32
92
64
32
92
64
32
92
64
32
92
64
32
92
64
32
92
64
32
92
64
32
84
60
28
92
64
32
92
64
32
72
56
24
100
100
100
44
44
44
44
44
44
44
44
44
44
44
44
32
32
32
44
44
44
44
44
44
32
32
32
72
72
72
112
112
112
84
84
84
84
84
84
84
84
84
84
84
84
92
92
92
92
92
92
84
84
84
84
84
84
84
84
84
84
84
84
84
84
84
84
84
84
84
84
84
84
84
84
84
84
84
72
72
72
64
64
64
72
72
72
84
84
84
84
84
84
72
72
72
56
56
56
100
100
100
140
140
140
140
140
140
84
84
84
48
48
48
52
52
52
52
52
52
64
64
64
64
64
64
52
52
52
72
72
72
112
112
112
112
112
112
112
112
112
100
100
100
84
60
28
92
64
32
92
64
32
108
72
36
108
72
36
92
64
32
92
64
32
92
64
32
92
64
32
92
64
32
92
64
32
92
64
32
92
64
32
92
64
32
92
64
32
72
56
24
100
100
100
44
44
44
44
44
44
44
44
44
44
44
44
32
32
32
44
44
44
32
32
32
72
72
72
100
100
100
100
100
100
84
84
84
84
84
84
84
84
84
84
84
84
84
84
84
84
84
84
84
84
84
92
92
92
84
84
84
84
84
84
84
84
84
84
84
84
84
84
84
72
72
72
84
84
84
72
72
72
64
64
64
72
72
72
84
84
84
72
72
72
56
56
56
72
72
72
124
124
124
140
140
140
140
140
140
124
124
124
84
84
84
48
48
48
52
52
52
56
56
56
56
56
56
48
48
48
84
84
84
124
124
124
112
112
112
112
112
112
124
124
124
100
100
100
84
60
28
92
64
32
92
64
32
108
72
36
92
64
32
92
64
32
92
64
32
92
64
32
92
64
32
84
60
28
84
60
28
92
64
32
92
64
32
84
60
28
72
56
24
100
100
100
44
44
44
44
44
44
44
44
44
32
32
32
44
44
44
44
44
44
72
72
72
100
100
100
100
100
100
100
100
100
72
72
72
84
84
84
84
84
84
92
92
92
92
92
92
84
84
84
84
84
84
84
84
84
84
84
84
84
84
84
84
84
84
84
84
84
84
84
84
72
72
72
84
84
84
72
72
72
52
52
52
72
72
72
72
72
72
56
56
56
72
72
72
84
84
84
124
124
124
72
72
72
72
56
24
72
72
72
124
124
124
84
84
84
48
48
48
48
48
48
48
48
48
48
48
48
112
112
112
124
124
124
100
100
100
56
56
56
56
56
56
100
100
100
100
100
100
84
60
28
84
60
28
92
64
32
108
72
36
92
64
32
92
64
32
92
64
32
92
64
32
84
60
28
84
60
28
92
64
32
84
60
28
72
56
24
72
72
72
100
100
100
44
44
44
44
44
44
44
44
44
32
32
32
44
44
44
44
44
44
100
100
100
112
112
112
112
112
112
112
112
112
100
100
100
72
72
72
84
84
84
92
92
92
92
92
92
84
84
84
84
84
84
84
84
84
84
84
84
84
84
84
84
84
84
84
84
84
84
84
84
72
72
72
84
84
84
72
72
72
52
52
52
64
64
64
56
56
56
72
72
72
84
84
84
100
100
100
72
72
72
84
60
28
72
56
24
64
48
24
72
72
72
124
124
124
100
100
100
84
84
84
84
84
84
100
100
100
124
124
124
100
100
100
56
56
56
44
44
44
44
44
44
56
56
56
100
100
100
112
112
112
100
100
100
84
60
28
92
64
32
92
64
32
92
64
32
92
64
32
92
64
32
92
64
32
92
64
32
84
60
28
72
56
24
72
72
72
100
100
100
100
100
100
32
32
32
32
32
32
32
32
32
32
32
32
32
32
32
32
32
32
124
124
124
124
124
124
112
112
112
112
112
112
124
124
124
100
100
100
72
72
72
72
72
72
84
84
84
84
84
84
84
84
84
84
84
84
84
84
84
84
84
84
84
84
84
84
84
84
84
84
84
72
72
72
84
84
84
64
64
64
52
52
52
56
56
56
72
72
72
84
84
84
100
100
100
72
72
72
84
60
28
72
56
24
72
56
24
64
48
24
72
56
24
64
48
24
72
72
72
124
124
124
124
124
124
124
124
124
100
100
100
56
56
56
44
44
44
44
44
44
44
44
44
44
44
44
56
56
56
100
100
100
112
112
112
100
100
100
84
60
28
84
60
28
92
64
32
92
64
32
92
64
32
92
64
32
84
60
28
72
56
24
72
72
72
100
100
100
112
112
112
124
124
124
124
124
124
72
72
72
72
72
72
72
72
72
72
72
72
72
72
72
124
124
124
112
112
112
124
124
124
140
140
140
140
140
140
140
140
140
100
100
100
72
72
72
72
72
72
84
84
84
84
84
84
84
84
84
84
84
84
84
84
84
84
84
84
84
84
84
72
72
72
72
72
72
84
84
84
64
64
64
52
52
52
72
72
72
84
84
84
100
100
100
72
72
72
84
60
28
72
56
24
72
56
24
72
56
24
64
48
24
72
56
24
64
48
24
72
56
24
72
72
72
124
124
124
124
124
124
72
72
72
56
56
56
44
44
44
44
44
44
44
44
44
44
44
44
44
44
44
56
56
56
100
100
100
112
112
112
112
112
112
84
84
84
84
60
28
84
60
28
84
60
28
72
56
24
72
56
24
72
72
72
100
100
100
84
84
84
84
84
84
84
84
84
84
84
84
84
84
84
84
84
84
100
100
100
124
124
124
124
124
124
124
124
124
84
84
84
108
72
36
108
72
36
84
84
84
140
140
140
140
140
140
100
100
100
72
72
72
56
56
56
84
84
84
84
84
84
84
84
84
84
84
84
84
84
84
84
84
84
72
72
72
72
72
72
72
72
72
52
52
52
72
72
72
84
84
84
100
100
100
72
72
72
84
60
28
72
56
24
72
56
24
72
56
24
72
56
24
64
48
24
72
56
24
64
48
24
72
56
24
64
48
24
124
124
124
100
100
100
56
56
56
40
40
40
44
44
44
44
44
44
44
44
44
40
40
40
40
40
40
44
44
44
56
56
56
100
100
100
124
124
124
112
112
112
84
84
84
84
60
28
72
56
24
72
72
72
72
72
72
100
100
100
100
100
100
84
84
84
84
84
84
84
84
84
84
84
84
84
84
84
84
84
84
72
72
72
100
100
100
124
124
124
108
72
36
108
72
36
92
64
32
92
64
32
108
72
36
108
72
36
84
84
84
124
124
124
100
100
100
72
72
72
56
56
56
72
72
72
84
84
84
84
84
84
84
84
84
72
72
72
72
72
72
72
72
72
56
56
56
72
72
72
84
84
84
100
100
100
72
72
72
84
60
28
72
56
24
72
56
24
72
56
24
72
56
24
72
56
24
64
48
24
72
56
24
64
48
24
72
56
24
64
48
24
124
124
124
56
56
56
44
44
44
44
44
44
40
40
40
44
44
44
44
44
44
40
40
40
40
40
40
44
44
44
44
44
44
56
56
56
100
100
100
124
124
124
112
112
112
84
84
84
72
72
72
72
72
72
100
100
100
124
124
124
84
84
84
84
84
84
84
84
84
76
76
76
84
84
84
84
84
84
84
84
84
72
72
72
100
100
100
124
124
124
92
64
32
92
64
32
92
64
32
92
64
32
92
64
32
92
64
32
108
72
36
108
72
36
84
84
84
100
100
100
72
72
72
56
56
56
72
72
72
84
84
84
72
72
72
72
72
72
56
56
56
56
56
56
72
72
72
100
100
100
72
72
72
72
72
72
84
60
28
72
56
24
72
56
24
72
56
24
72
56
24
64
48
24
72
56
24
64
48
24
72
56
24
64
48
24
64
48
24
72
72
72
100
100
100
56
56
56
44
44
44
44
44
44
44
44
44
32
32
32
40
40
40
44
44
44
44
44
44
44
44
44
44
44
44
44
44
44
56
56
56
100
100
100
124
124
124
112
112
112
100
100
100
100
100
100
140
140
140
100
100
100
76
76
76
76
76
76
84
84
84
84
84
84
84
84
84
84
84
84
76
76
76
72
72
72
100
100
100
124
124
124
92
64
32
84
60
28
92
64
32
92
64
32
92
64
32
92
64
32
92
64
32
92
64
32
108
72
36
72
56
24
100
100
100
72
72
72
56
56
56
72
72
72
72
72
72
56
56
56
72
72
72
84
84
84
100
100
100
72
72
72
84
60
28
92
64
32
84
60
28
72
56
24
72
56
24
72
56
24
72
56
24
72
56
24
72
56
24
64
48
24
64
48
24
64
48
24
72
72
72
100
100
100
56
56
56
44
44
44
44
44
44
44
44
44
44
44
44
44
44
44
32
32
32
32
32
32
44
44
44
40
40
40
44
44
44
44
44
44
44
44
44
56
56
56
100
100
100
124
124
124
112
112
112
140
140
140
140
140
140
84
84
84
76
76
76
76
76
76
84
84
84
84
84
84
84
84
84
84
84
84
76
76
76
72
72
72
100
100
100
108
72
36
92
64
32
92
64
32
92
64
32
92
64
32
92
64
32
92
64
32
92
64
32
84
60
28
92
64
32
72
56
24
92
64
32
92
64
32
72
72
72
56
56
56
56
56
56
72
72
72
84
84
84
100
100
100
72
72
72
84
60
28
92
64
32
84
60
28
72
56
24
72
56
24
72
56
24
72
56
24
72
56
24
64
48
24
72
56
24
64
48
24
64
48
24
64
48
24
84
84
84
56
56
56
56
56
56
44
44
44
44
44
44
44
44
44
44
44
44
44
44
44
40
40
40
32
32
32
32
32
32
40
40
40
44
44
44
44
44
44
44
44
44
44
44
44
56
56
56
100
100
100
124
124
124
140
140
140
100
100
100
84
84
84
84
84
84
84
84
84
84
84
84
84
84
84
84
84
84
76
76
76
72
72
72
72
72
72
100
100
100
108
72
36
92
64
32
92
64
32
84
60
28
84
60
28
92
64
32
92
64
32
92
64
32
84
60
28
92
64
32
72
56
24
92
64
32
92
64
32
84
60
28
72
72
72
72
72
72
84
84
84
100
100
100
72
72
72
84
60
28
84
60
28
92
64
32
84
60
28
72
56
24
72
56
24
72
56
24
72
56
24
72
56
24
64
48
24
72
56
24
64
48
24
64
48
24
72
72
72
100
100
100
56
56
56
44
44
44
44
44
44
40
40
40
40
40
40
44
44
44
44
44
44
44
44
44
40
40
40
32
32
32
32
32
32
40
40
40
44
44
44
44
44
44
44
44
44
44
44
44
56
56
56
100
100
100
124
124
124
84
84
84
84
84
84
84
84
84
84
84
84
84
84
84
84
84
84
84
84
84
72
72
72
72
72
72
84
84
84
108
72
36
92
64
32
92
64
32
92
64
32
84
60
28
84
60
28
92
64
32
92
64
32
92
64
32
84
60
28
92
64
32
72
56
24
84
60
28
72
56
24
72
56
24
84
84
84
84
84
84
100
100
100
72
72
72
84
60
28
72
56
24
84
60
28
92
64
32
72
56
24
72
56
24
72
56
24
72
56
24
72
56
24
72
56
24
64
48
24
72
56
24
64
48
24
72
72
72
100
100
100
72
72
72
56
56
56
44
44
44
44
44
44
40
40
40
40
40
40
40
40
40
44
44
44
44
44
44
40
40
40
32
32
32
32
32
32
32
32
32
40
40
40
44
44
44
44
44
44
44
44
44
44
44
44
56
56
56
100
100
100
124
124
124
84
84
84
84
84
84
84
84
84
84
84
84
84
84
84
72
72
72
76
76
76
72
72
72
100
100
100
108
72
36
92
64
32
92
64
32
92
64
32
92
64
32
92
64
32
92
64
32
92
64
32
84
60
28
72
56
24
84
60
28
64
48
24
72
56
24
72
56
24
84
84
84
100
100
100
100
100
100
72
72
72
84
60
28
72
56
24
72
56
24
84
60
28
92
64
32
72
56
24
84
60
28
72
56
24
72
56
24
72
56
24
72
56
24
64
48
24
64
48
24
64
48
24
84
84
84
100
100
100
56
56
56
56
56
56
44
44
44
44
44
44
40
40
40
40
40
40
44
44
44
40
40
40
44
44
44
44
44
44
32
32
32
32
32
32
32
32
32
32
32
32
40
40
40
44
44
44
44
44
44
44
44
44
44
44
44
56
56
56
100
100
100
100
100
100
84
84
84
84
84
84
84
84
84
76
76
76
72
72
72
72
72
72
84
84
84
108
72
36
92
64
32
92
64
32
92
64
32
92
64
32
92
64
32
92
64
32
92
64
32
92
64
32
84
60
28
72
56
24
72
56
24
64
48
24
72
56
24
84
84
84
124
124
124
124
124
124
124
124
124
72
72
72
72
56
24
72
56
24
72
56
24
84
60
28
92
64
32
72
56
24
72
56
24
72
56
24
72
56
24
72
56
24
72
56
24
64
48
24
64
48
24
72
72
72
100
100
100
56
56
56
44
44
44
56
56
56
44
44
44
44
44
44
44
44
44
44
44
44
44
44
44
44
44
44
44
44
44
44
44
44
40
40
40
32
32
32
32
32
32
40
40
40
32
32
32
40
40
40
44
44
44
44
44
44
44
44
44
44
44
44
56
56
56
100
100
100
76
76
76
76
76
76
76
76
76
72
72
72
76
76
76
72
72
72
84
84
84
108
72
36
92
64
32
92
64
32
92
64
32
92
64
32
92
64
32
92
64
32
92
64
32
92
64
32
84
60
28
72
56
24
64
48
24
64
48
24
84
84
84
124
124
124
124
124
124
124
124
124
124
124
124
84
84
84
72
56
24
72
56
24
72
56
24
84
60
28
92
64
32
72
56
24
72
56
24
72
56
24
72
56
24
72
56
24
72
56
24
64
48
24
72
72
72
100
100
100
72
72
72
56
56
56
44
44
44
56
56
56
44
44
44
44
44
44
44
44
44
44
44
44
44
44
44
44
44
44
44
44
44
44
44
44
40
40
40
32
32
32
32
32
32
32
32
32
40
40
40
32
32
32
40
40
40
44
44
44
44
44
44
44
44
44
44
44
44
32
32
32
100
100
100
76
76
76
72
72
72
84
84
84
84
84
84
72
72
72
108
72
36
92
64
32
92
64
32
92
64
32
92
64
32
92
64
32
92
64
32
92
64
32
92
64
32
92
64
32
72
56
24
64
48
24
64
48
24
84
84
84
124
124
124
84
84
84
64
64
64
84
84
84
124
124
124
100
100
100
72
72
72
72
56
24
72
56
24
84
60
28
92
64
32
72
56
24
72
56
24
72
56
24
72
56
24
72
56
24
72
56
24
64
48
24
84
84
84
100
100
100
56
56
56
44
44
44
44
44
44
56
56
56
44
44
44
44
44
44
44
44
44
44
44
44
40
40
40
40
40
40
44
44
44
44
44
44
44
44
44
40
40
40
32
32
32
28
28
28
40
40
40
40
40
40
32
32
32
40
40
40
44
44
44
44
44
44
44
44
44
32
32
32
84
84
84
100
100
100
84
84
84
84
84
84
76
76
76
100
100
100
108
72
36
92
64
32
92
64
32
92
64
32
92
64
32
92
64
32
92
64
32
92
64
32
92
64
32
84
60
28
72
56
24
64
48
24
84
84
84
124
124
124
84
84
84
64
64
64
64
64
64
64
64
64
84
84
84
124
124
124
84
84
84
72
56
24
72
56
24
84
60
28
92
64
32
72
56
24
72
56
24
72
56
24
72
56
24
72
56
24
64
48
24
72
72
72
100
100
100
56
56
56
44
44
44
44
44
44
44
44
44
56
56
56
44
44
44
44
44
44
44
44
44
44
44
44
40
40
40
40
40
40
44
44
44
44
44
44
44
44
44
40
40
40
32
32
32
28
28
28
32
32
32
44
44
44
32
32
32
32
32
32
40
40
40
44
44
44
44
44
44
32
32
32
84
84
84
124
124
124
76
76
76
76
76
76
100
100
100
108
72
36
92
64
32
92
64
32
92
64
32
92
64
32
92
64
32
92
64
32
92
64
32
92
64
32
84
60
28
64
48
24
64
48
24
84
84
84
124
124
124
124
124
124
64
64
64
64
64
64
64
64
64
64
64
64
64
64
64
84
84
84
100
100
100
72
56
24
72
56
24
84
60
28
72
56
24
72
56
24
72
56
24
72
56
24
72
56
24
64
48
24
72
72
72
84
84
84
100
100
100
44
44
44
44
44
44
44
44
44
44
44
44
56
56
56
44
44
44
44
44
44
40
40
40
44
44
44
44
44
44
44
44
44
44
44
44
44
44
44
44
44
44
40
40
40
32
32
32
28
28
28
32
32
32
44
44
44
40
40
40
32
32
32
32
32
32
40
40
40
44
44
44
32
32
32
84
84
84
124
124
124
124
124
124
100
100
100
100
100
100
108
72
36
92
64
32
92
64
32
92
64
32
92
64
32
