P3
# Created by GIMP version 2.10.30 PNM plug-in
64 64
255
56
56
56
56
56
56
56
56
56
56
56
56
56
56
56
56
56
56
56
56
56
56
56
56
56
56
56
56
56
56
56
56
56
56
56
56
56
56
56
56
56
56
56
56
56
56
56
56
56
56
56
56
56
56
56
56
56
56
56
56
56
56
56
56
56
56
56
56
56
56
56
56
56
56
56
56
56
56
56
56
56
56
56
56
56
56
56
56
56
56
56
56
56
56
56
56
56
56
56
56
56
56
56
56
56
56
56
56
56
56
56
56
56
56
56
56
56
56
56
56
56
56
56
56
56
56
56
56
56
56
56
56
56
56
56
56
56
56
56
56
56
56
56
56
56
56
56
56
56
56
56
56
56
56
56
56
56
56
56
56
56
56
56
56
56
56
56
56
56
56
56
56
56
56
56
56
56
56
56
56
56
56
56
56
56
56
56
56
56
56
56
56
84
84
84
56
56
56
84
84
84
72
72
72
72
72
72
72
72
72
72
72
72
72
72
72
84
84
84
72
72
72
72
72
72
72
72
72
72
72
72
72
72
72
72
72
72
84
84
84
72
72
72
56
56
56
72
72
72
72
72
72
72
72
72
72
72
72
72
72
72
72
72
72
72
72
72
84
84
84
84
84
84
84
84
84
84
84
84
84
84
84
84
84
84
72
72
72
72
72
72
72
72
72
72
72
72
72
72
72
72
72
72
72
72
72
72
72
72
72
72
72
84
84
84
84
84
84
84
84
84
84
84
84
84
84
84
84
84
84
84
84
84
72
72
72
72
72
72
72
72
72
72
72
72
56
56
56
56
56
56
56
56
56
72
72
72
72
72
72
84
84
84
84
84
84
72
72
72
72
72
72
72
72
72
72
72
72
72
72
72
56
56
56
56
56
56
236
0
0
236
0
0
212
0
0
212
0
0
212
0
0
212
0
0
212
0
0
212
0
0
212
0
0
212
0
0
212
0
0
164
0
0
72
72
72
72
72
72
84
84
84
236
0
0
236
0
0
212
0
0
212
0
0
212
0
0
212
0
0
212
0
0
212
0
0
212
0
0
212
0
0
212
0
0
212
0
0
212
0
0
212
0
0
212
0
0
212
0
0
212
0
0
212
0
0
212
0
0
212
0
0
164
0
0
72
72
72
56
56
56
84
84
84
236
0
0
236
0
0
236
0
0
236
0
0
224
0
0
224
0
0
224
0
0
224
0
0
224
0
0
224
0
0
212
0
0
212
0
0
212
0
0
212
0
0
212
0
0
200
0
0
200
0
0
200
0
0
200
0
0
188
0
0
188
0
0
188
0
0
164
0
0
72
72
72
72
72
72
252
244
0
200
0
0
176
0
0
176
0
0
212
0
0
136
0
0
164
0
0
212
0
0
136
0
0
200
0
0
164
0
0
100
0
0
44
44
44
72
72
72
84
84
84
236
0
0
188
0
0
136
0
0
188
0
0
136
0
0
188
0
0
136
0
0
188
0
0
124
0
0
188
0
0
152
0
0
188
0
0
152
0
0
188
0
0
124
0
0
188
0
0
124
0
0
188
0
0
200
0
0
164
0
0
112
0
0
44
44
44
72
72
72
56
56
56
212
0
0
164
0
0
200
0
0
176
0
0
200
0
0
176
0
0
176
0
0
200
0
0
112
0
0
200
0
0
124
0
0
200
0
0
176
0
0
200
0
0
136
0
0
176
0
0
164
0
0
124
0
0
200
0
0
152
0
0
200
0
0
164
0
0
252
244
0
44
44
44
228
216
0
204
196
0
132
132
0
180
180
180
180
180
180
180
180
180
180
180
180
180
180
180
180
180
180
180
180
180
180
180
180
180
180
180
180
180
180
180
180
180
180
180
180
180
180
180
180
180
180
180
180
180
180
180
180
180
180
180
180
180
180
180
180
180
180
180
180
180
180
180
180
180
180
180
180
180
180
180
180
180
180
180
180
180
180
180
180
180
180
180
180
180
180
180
180
180
180
180
180
180
180
180
180
180
180
180
180
180
180
180
180
180
180
180
180
180
180
180
180
180
180
180
180
180
180
180
180
180
180
180
180
180
180
180
180
180
180
180
180
180
180
180
180
180
180
180
180
180
180
180
180
180
180
180
180
180
180
180
180
180
180
180
180
180
180
180
180
180
180
180
180
180
180
180
180
180
180
180
180
180
180
204
196
0
204
196
0
112
108
0
168
104
64
156
156
0
88
84
0
112
112
112
112
112
112
124
124
124
124
124
124
124
124
124
124
124
124
124
124
124
124
124
124
124
124
124
124
124
124
124
124
124
124
124
124
124
124
124
124
124
124
124
124
124
124
124
124
124
124
124
124
124
124
124
124
124
124
124
124
124
124
124
124
124
124
124
124
124
124
124
124
124
124
124
124
124
124
124
124
124
124
124
124
124
124
124
124
124
124
124
124
124
124
124
124
124
124
124
124
124
124
124
124
124
124
124
124
124
124
124
124
124
124
124
124
124
124
124
124
124
124
124
124
124
124
124
124
124
124
124
124
124
124
124
124
124
124
124
124
124
124
124
124
124
124
124
124
124
124
124
124
124
124
124
124
124
124
124
124
124
124
124
124
124
112
112
112
112
112
112
112
112
112
112
108
0
232
140
88
88
84
0
72
72
72
84
60
28
164
0
0
124
124
124
124
124
124
124
124
124
124
124
124
152
152
152
152
152
152
152
152
152
152
152
152
152
152
152
152
152
152
152
152
152
152
152
152
152
152
152
152
152
152
152
152
152
152
152
152
152
152
152
152
152
152
152
152
152
152
152
152
152
152
152
152
152
152
152
152
152
152
152
152
152
152
152
152
152
152
152
152
152
152
152
152
152
152
152
152
152
152
152
152
152
152
152
152
152
152
152
152
152
152
152
152
152
152
152
152
152
152
152
152
152
152
152
152
152
152
152
152
152
152
152
152
152
152
152
152
152
152
152
152
152
152
152
152
152
152
152
152
152
152
152
152
152
152
152
152
152
152
152
152
152
152
152
152
152
152
152
152
152
152
124
124
124
112
112
112
124
124
124
124
124
124
88
0
0
168
104
64
44
44
44
72
72
72
188
0
0
124
0
0
152
152
152
124
124
124
252
32
32
164
0
0
64
0
0
64
0
0
84
84
84
112
0
0
112
0
0
112
0
0
112
0
0
112
0
0
112
0
0
112
0
0
112
0
0
112
0
0
112
0
0
112
0
0
112
0
0
112
0
0
112
0
0
112
0
0
112
0
0
112
0
0
112
0
0
112
0
0
112
0
0
112
0
0
112
0
0
112
0
0
112
0
0
112
0
0
112
0
0
112
0
0
112
0
0
112
0
0
112
0
0
112
0
0
112
0
0
112
0
0
112
0
0
112
0
0
112
0
0
112
0
0
112
0
0
112
0
0
112
0
0
164
0
0
176
0
0
252
0
0
224
0
0
124
124
124
64
0
0
64
0
0
64
0
0
124
124
124
192
192
192
112
112
112
88
0
0
64
0
0
44
44
44
72
72
72
188
0
0
164
0
0
168
168
168
124
124
124
164
0
0
192
192
192
152
152
152
112
112
112
64
0
0
124
124
124
168
168
168
192
192
192
208
208
208
192
192
192
192
192
192
180
180
180
180
180
180
180
180
180
180
180
180
180
180
180
180
180
180
180
180
180
180
180
180
180
180
180
180
180
180
180
180
180
180
180
180
180
180
180
180
180
180
180
180
180
180
180
180
180
180
180
180
180
180
180
180
180
180
180
180
180
180
180
180
180
180
180
180
180
180
180
180
180
180
180
180
180
180
180
180
180
180
180
180
180
180
180
180
180
180
180
180
180
180
180
180
192
192
192
192
192
192
192
192
192
192
192
192
192
192
192
124
124
124
64
0
0
124
124
124
112
112
112
152
152
152
252
32
32
124
124
124
112
112
112
88
0
0
64
0
0
44
44
44
72
72
72
124
0
0
100
0
0
180
180
180
152
152
152
64
0
0
152
152
152
192
192
192
152
152
152
124
124
124
140
140
140
152
152
152
168
168
168
168
168
168
140
140
140
124
124
124
168
168
168
208
208
208
192
192
192
180
180
180
180
180
180
180
180
180
180
180
180
180
180
180
180
180
180
180
180
180
180
180
180
180
180
180
180
180
180
180
180
180
180
180
180
180
180
180
180
180
180
180
180
180
180
180
180
180
180
180
180
180
180
180
180
180
180
180
180
180
180
180
180
180
180
180
180
180
180
180
180
180
180
180
180
180
180
180
180
180
180
180
180
140
140
140
108
0
112
100
100
100
192
192
192
180
180
180
168
168
168
168
168
168
168
168
168
112
112
112
168
168
168
208
208
208
164
0
0
112
112
112
124
124
124
64
0
0
64
0
0
44
44
44
72
72
72
72
72
72
44
44
44
208
208
208
168
168
168
64
0
0
152
152
152
168
168
168
192
192
192
152
152
152
124
124
124
124
124
124
152
152
152
152
152
152
84
84
84
88
0
88
112
112
112
168
168
168
208
208
208
208
208
208
192
192
192
192
192
192
180
180
180
180
180
180
180
180
180
180
180
180
180
180
180
180
180
180
180
180
180
180
180
180
180
180
180
180
180
180
180
180
180
180
180
180
180
180
180
180
180
180
180
180
180
180
180
180
180
180
180
180
180
180
180
180
180
180
180
180
180
180
180
180
180
180
192
192
192
192
192
192
140
140
140
100
100
100
96
0
100
80
0
80
152
152
152
168
168
168
168
168
168
152
152
152
152
152
152
168
168
168
208
208
208
124
124
124
64
0
0
124
124
124
152
152
152
32
32
32
32
32
32
44
44
44
84
84
84
56
56
56
56
56
56
208
208
208
180
180
180
84
84
84
112
112
112
152
152
152
180
180
180
192
192
192
152
152
152
124
124
124
124
124
124
140
140
140
80
0
80
88
0
88
88
0
88
88
0
88
124
124
124
168
168
168
208
208
208
192
192
192
192
192
192
192
192
192
192
192
192
192
192
192
180
180
180
180
180
180
80
0
80
112
112
112
84
84
84
80
0
80
80
0
80
80
0
80
80
0
80
180
84
0
204
96
0
252
120
0
180
180
180
180
180
180
180
180
180
180
180
180
192
192
192
192
192
192
140
140
140
100
100
100
96
0
100
88
0
88
80
0
80
80
0
80
152
152
152
152
152
152
152
152
152
152
152
152
168
168
168
208
208
208
192
192
192
100
100
100
84
84
84
140
140
140
168
168
168
32
32
32
44
44
44
44
44
44
236
0
0
212
0
0
212
0
0
180
180
180
208
208
208
64
0
0
124
124
124
152
152
152
168
168
168
180
180
180
192
192
192
152
152
152
112
112
112
100
100
100
72
72
72
72
0
72
80
0
80
80
0
80
88
0
88
88
0
88
124
124
124
168
168
168
180
180
180
180
180
180
180
180
180
180
180
180
180
180
180
180
180
180
80
0
80
80
0
80
80
0
80
80
0
80
80
0
80
124
124
124
80
0
80
180
84
0
180
84
0
204
96
0
252
136
32
180
180
180
180
180
180
180
180
180
140
140
140
100
100
100
96
0
100
88
0
88
80
0
80
80
0
80
80
0
80
72
72
72
152
152
152
152
152
152
152
152
152
168
168
168
192
192
192
192
192
192
168
168
168
124
124
124
64
0
0
152
152
152
168
168
168
88
0
0
88
0
0
212
0
0
176
0
0
136
0
0
136
0
0
180
180
180
208
208
208
112
0
0
152
152
152
140
140
140
152
152
152
168
168
168
180
180
180
100
100
100
88
0
88
112
112
112
100
100
100
72
72
72
72
0
72
72
0
72
80
0
80
80
0
80
88
0
88
88
0
88
88
0
88
124
124
124
140
140
140
180
180
180
180
180
180
180
180
180
112
112
112
80
0
80
80
0
80
80
0
80
80
0
80
80
0
80
80
0
80
180
84
0
140
140
140
180
180
180
180
180
180
140
140
140
100
100
100
96
0
100
96
0
100
88
0
88
88
0
88
80
0
80
80
0
80
80
0
80
72
72
72
112
112
112
112
112
112
80
0
80
100
100
100
168
168
168
192
192
192
168
168
168
140
140
140
124
124
124
64
0
0
168
168
168
180
180
180
88
0
0
88
0
0
176
0
0
136
0
0
164
0
0
136
0
0
180
180
180
208
208
208
176
0
0
168
168
168
152
152
152
140
140
140
152
152
152
100
100
100
108
0
112
96
0
100
72
72
72
112
112
112
100
100
100
72
72
72
72
0
72
72
0
72
72
0
72
72
0
72
132
0
132
88
0
88
88
0
88
88
0
88
112
112
112
140
140
140
180
180
180
180
180
180
80
0
80
80
0
80
80
0
80
80
0
80
80
0
80
80
0
80
140
140
140
180
180
180
140
140
140
100
100
100
96
0
100
96
0
100
88
0
88
132
0
132
80
0
80
80
0
80
80
0
80
72
0
72
72
72
72
112
112
112
84
84
84
108
0
112
96
0
100
96
0
100
100
100
100
168
168
168
152
152
152
124
124
124
140
140
140
112
0
0
168
168
168
180
180
180
88
0
0
88
0
0
152
0
0
112
0
0
164
0
0
164
0
0
180
180
180
180
180
180
152
0
0
180
180
180
152
152
152
140
140
140
140
140
140
72
0
72
96
0
100
108
0
112
96
0
100
88
0
88
72
72
72
100
100
100
72
72
72
56
56
56
72
0
72
72
0
72
108
0
112
72
0
72
88
0
88
88
0
88
88
0
88
88
0
88
180
180
180
180
180
180
80
0
80
80
0
80
80
0
80
80
0
80
80
0
80
80
0
80
180
180
180
180
180
180
88
0
88
96
0
100
96
0
100
88
0
88
80
0
80
108
0
112
72
0
72
72
0
72
56
56
56
72
72
72
100
100
100
72
72
72
80
0
80
96
0
100
96
0
100
108
0
112
108
0
112
152
152
152
140
140
140
124
124
124
140
140
140
112
0
0
168
168
168
180
180
180
88
0
0
88
0
0
124
0
0
164
0
0
136
0
0
136
0
0
180
180
180
180
180
180
136
0
0
192
192
192
168
168
168
152
152
152
140
140
140
72
0
72
72
0
72
96
0
100
108
0
112
96
0
100
96
0
100
88
0
88
72
72
72
84
84
84
56
56
56
64
0
64
64
0
64
72
0
72
72
0
72
72
0
72
88
0
88
84
84
84
180
180
180
180
180
180
80
0
80
80
0
80
80
0
80
80
0
80
80
0
80
80
0
80
180
180
180
180
180
180
84
84
84
72
0
72
72
0
72
72
0
72
72
0
72
72
0
72
72
0
72
56
56
56
72
72
72
72
72
72
72
0
72
80
0
80
88
0
88
96
0
100
108
0
112
108
0
112
108
0
112
140
140
140
124
124
124
140
140
140
140
140
140
112
0
0
168
168
168
180
180
180
88
0
0
88
0
0
124
0
0
112
0
0
164
0
0
100
0
0
180
180
180
180
180
180
112
0
0
208
208
208
180
180
180
168
168
168
152
152
152
72
72
72
72
0
72
72
0
72
96
0
100
108
0
112
108
0
112
96
0
100
88
0
88
72
0
72
64
0
64
64
0
64
64
0
64
64
0
64
72
0
72
72
0
72
140
140
140
180
180
180
180
180
180
112
112
112
80
0
80
80
0
80
80
0
80
80
0
80
80
0
80
80
0
80
112
112
112
180
180
180
180
180
180
140
140
140
72
0
72
72
0
72
72
0
72
64
0
64
64
0
64
64
0
64
72
0
72
72
0
72
80
0
80
88
0
88
96
0
100
108
0
112
108
0
112
108
0
112
84
84
84
140
140
140
124
124
124
140
140
140
152
152
152
112
0
0
180
180
180
180
180
180
88
0
0
88
0
0
136
0
0
112
0
0
176
0
0
100
0
0
180
180
180
180
180
180
112
0
0
208
208
208
192
192
192
180
180
180
152
152
152
100
100
100
72
72
72
72
0
72
88
0
88
96
0
100
96
0
100
108
0
112
96
0
100
88
0
88
108
0
112
64
0
64
64
0
64
64
0
64
72
0
72
140
140
140
80
0
80
112
112
112
180
180
180
80
0
80
80
0
80
80
0
80
80
0
80
80
0
80
80
0
80
80
0
80
80
0
80
180
180
180
112
112
112
72
0
72
140
140
140
72
0
72
64
0
64
64
0
64
72
0
72
88
0
88
72
0
72
72
0
72
88
0
88
96
0
100
108
0
112
108
0
112
108
0
112
84
84
84
124
124
124
124
124
124
140
140
140
140
140
140
168
168
168
112
0
0
180
180
180
180
180
180
88
0
0
88
0
0
112
0
0
64
0
0
76
0
0
76
0
0
180
180
180
180
180
180
112
0
0
208
208
208
208
208
208
100
100
100
80
0
80
112
112
112
84
84
84
84
84
84
72
72
72
88
0
88
96
0
100
96
0
100
108
0
112
88
0
88
132
0
132
80
0
80
64
0
64
64
0
64
72
0
72
80
0
80
72
0
72
80
0
80
180
180
180
180
180
180
80
0
80
80
0
80
80
0
80
80
0
80
80
0
80
80
0
80
180
180
180
180
180
180
72
0
72
72
0
72
72
0
72
72
0
72
72
0
72
72
0
72
88
0
88
108
0
112
80
0
80
88
0
88
96
0
100
96
0
100
108
0
112
84
84
84
124
124
124
100
100
100
72
72
72
72
72
72
100
100
100
152
152
152
168
168
168
112
0
0
180
180
180
180
180
180
64
0
0
88
0
0
64
0
0
44
44
44
44
44
44
44
44
44
180
180
180
180
180
180
112
0
0
180
180
180
208
208
208
88
0
88
80
0
80
72
0
72
72
72
72
84
84
84
84
84
84
84
84
84
72
72
72
96
0
100
96
0
100
108
0
112
88
0
88
132
0
132
80
0
80
80
0
80
80
0
80
72
0
72
80
0
80
72
0
72
124
124
124
100
100
100
80
0
80
80
0
80
80
0
80
80
0
80
80
0
80
80
0
80
100
100
100
124
124
124
72
0
72
72
0
72
72
0
72
72
0
72
72
0
72
72
0
72
108
0
112
88
0
88
88
0
88
96
0
100
96
0
100
84
84
84
140
140
140
124
124
124
100
100
100
72
72
72
64
0
64
64
0
64
72
0
72
152
152
152
168
168
168
112
0
0
180
180
180
180
180
180
32
32
32
32
32
32
44
44
44
84
84
84
84
84
84
72
72
72
180
180
180
180
180
180
112
0
0
180
180
180
208
208
208
96
0
100
88
0
88
80
0
80
72
0
72
72
0
72
64
0
64
56
56
56
72
72
72
72
72
72
84
84
84
100
100
100
88
0
88
88
0
88
88
0
88
88
0
88
72
0
72
72
0
72
72
0
72
80
0
80
80
0
80
80
0
80
80
0
80
80
0
80
80
0
80
80
0
80
80
0
80
80
0
80
80
0
80
72
0
72
72
0
72
72
0
72
72
0
72
72
0
72
72
0
72
80
0
80
80
0
80
88
0
88
84
84
84
100
100
100
140
140
140
124
124
124
84
84
84
80
0
80
72
0
72
64
0
64
64
0
64
64
0
64
72
0
72
168
168
168
168
168
168
112
0
0
180
180
180
180
180
180
32
32
32
44
44
44
44
44
44
84
84
84
236
0
0
236
0
0
192
192
192
192
192
192
124
0
0
192
192
192
180
180
180
96
0
100
96
0
100
80
0
80
80
0
80
72
0
72
64
0
64
64
0
64
64
0
64
72
0
72
72
0
72
88
0
88
156
0
156
88
0
88
88
0
88
88
0
88
72
0
72
72
0
72
80
0
80
80
0
80
80
0
80
80
0
80
80
0
80
80
0
80
80
0
80
80
0
80
80
0
80
80
0
80
80
0
80
72
0
72
72
0
72
72
0
72
72
0
72
72
0
72
80
0
80
88
0
88
88
0
88
156
0
156
88
0
88
88
0
88
88
0
88
80
0
80
80
0
80
72
0
72
64
0
64
64
0
64
64
0
64
64
0
64
88
0
88
168
168
168
168
168
168
112
0
0
180
180
180
180
180
180
88
0
0
88
0
0
44
44
44
84
84
84
236
0
0
136
0
0
208
208
208
208
208
208
152
0
0
208
208
208
192
192
192
88
0
88
96
0
100
88
0
88
80
0
80
72
0
72
72
0
72
64
0
64
64
0
64
64
0
64
72
0
72
72
0
72
132
0
132
88
0
88
88
0
88
88
0
88
80
0
80
80
0
80
80
0
80
80
0
80
80
0
80
80
0
80
80
0
80
80
0
80
80
0
80
80
0
80
80
0
80
80
0
80
80
0
80
80
0
80
72
0
72
72
0
72
80
0
80
80
0
80
88
0
88
88
0
88
88
0
88
156
0
156
88
0
88
88
0
88
88
0
88
80
0
80
72
0
72
72
0
72
64
0
64
64
0
64
64
0
64
72
0
72
88
0
88
152
152
152
168
168
168
124
0
0
180
180
180
180
180
180
88
0
0
64
0
0
44
44
44
56
56
56
236
0
0
176
0
0
192
192
192
192
192
192
136
0
0
192
192
192
152
152
152
112
112
112
88
0
88
96
0
100
80
0
80
80
0
80
72
0
72
64
0
64
64
0
64
72
0
72
64
0
64
72
0
72
108
0
112
88
0
88
88
0
88
80
0
80
80
0
80
80
0
80
80
0
80
80
0
80
80
0
80
84
84
84
84
84
84
100
100
100
112
112
112
112
112
112
100
100
100
84
84
84
84
84
84
80
0
80
80
0
80
80
0
80
88
0
88
88
0
88
88
0
88
88
0
88
88
0
88
132
0
132
88
0
88
88
0
88
80
0
80
72
0
72
72
0
72
64
0
64
64
0
64
64
0
64
64
0
64
72
0
72
112
112
112
152
152
152
168
168
168
124
0
0
180
180
180
180
180
180
88
0
0
64
0
0
44
44
44
72
72
72
188
0
0
100
0
0
180
180
180
180
180
180
124
0
0
180
180
180
152
152
152
152
152
152
112
112
112
72
72
72
88
0
88
80
0
80
72
0
72
72
0
72
72
0
72
80
0
80
72
0
72
80
0
80
88
0
88
108
0
112
80
0
80
80
0
80
80
0
80
80
0
80
80
0
80
80
0
80
80
0
80
100
100
100
108
0
112
156
0
156
108
0
112
108
0
112
156
0
156
108
0
112
100
100
100
80
0
80
80
0
80
88
0
88
88
0
88
88
0
88
88
0
88
88
0
88
132
0
132
88
0
88
88
0
88
80
0
80
72
0
72
72
0
72
72
0
72
64
0
64
64
0
64
64
0
64
72
72
72
112
112
112
152
152
152
152
152
152
180
180
180
136
0
0
180
180
180
180
180
180
88
0
0
64
0
0
44
44
44
72
72
72
188
0
0
176
0
0
180
180
180
180
180
180
112
0
0
180
180
180
80
0
80
88
0
88
72
72
72
100
100
100
112
112
112
112
112
112
100
100
100
100
100
100
84
84
84
72
72
72
64
64
64
48
48
48
72
0
72
80
0
80
88
0
88
132
0
132
88
0
88
80
0
80
80
0
80
80
0
80
80
0
80
124
124
124
156
0
156
108
0
112
108
0
112
108
0
112
108
0
112
156
0
156
124
124
124
80
0
80
88
0
88
80
0
80
88
0
88
88
0
88
132
0
132
88
0
88
88
0
88
88
0
88
84
84
84
84
84
84
72
72
72
64
64
64
56
56
56
64
64
64
72
72
72
84
84
84
100
100
100
72
72
72
96
0
100
108
0
112
192
192
192
152
0
0
192
192
192
192
192
192
88
0
0
64
0
0
44
44
44
84
84
84
188
0
0
112
0
0
168
168
168
168
168
168
112
0
0
168
168
168
80
0
80
80
0
80
88
0
88
88
0
88
88
0
88
88
0
88
80
0
80
72
0
72
80
0
80
72
0
72
80
0
80
72
0
72
80
0
80
72
0
72
80
0
80
88
0
88
132
0
132
108
0
112
80
0
80
80
0
80
80
0
80
84
84
84
108
0
112
108
0
112
108
0
112
108
0
112
108
0
112
108
0
112
84
84
84
80
0
80
80
0
80
88
0
88
108
0
112
132
0
132
88
0
88
88
0
88
88
0
88
88
0
88
80
0
80
72
0
72
72
0
72
72
0
72
72
0
72
64
0
64
72
0
72
72
0
72
80
0
80
88
0
88
96
0
100
108
0
112
208
208
208
152
0
0
208
208
208
208
208
208
88
0
0
64
0
0
44
44
44
72
72
72
200
0
0
164
0
0
168
168
168
168
168
168
100
0
0
168
168
168
80
0
80
80
0
80
80
0
80
88
0
88
88
0
88
88
0
88
80
0
80
80
0
80
72
0
72
80
0
80
72
0
72
80
0
80
72
0
72
80
0
80
80
0
80
80
0
80
80
0
80
80
0
80
80
0
80
80
0
80
80
0
80
124
124
124
156
0
156
108
0
112
108
0
112
108
0
112
108
0
112
156
0
156
124
124
124
80
0
80
88
0
88
80
0
80
88
0
88
80
0
80
88
0
88
88
0
88
88
0
88
80
0
80
72
0
72
72
0
72
72
0
72
72
0
72
72
0
72
72
0
72
72
0
72
80
0
80
88
0
88
88
0
88
96
0
100
96
0
100
192
192
192
152
0
0
192
192
192
192
192
192
88
0
0
64
0
0
44
44
44
72
72
72
164
0
0
152
0
0
152
152
152
152
152
152
76
0
0
152
152
152
80
0
80
80
0
80
88
0
88
80
0
80
88
0
88
80
0
80
88
0
88
80
0
80
80
0
80
80
0
80
80
0
80
80
0
80
80
0
80
80
0
80
80
0
80
80
0
80
80
0
80
80
0
80
80
0
80
80
0
80
80
0
80
84
84
84
108
0
112
156
0
156
72
72
72
108
0
112
156
0
156
108
0
112
84
84
84
80
0
80
80
0
80
88
0
88
80
0
80
88
0
88
88
0
88
88
0
88
80
0
80
80
0
80
72
0
72
72
0
72
72
0
72
72
0
72
72
0
72
72
0
72
72
0
72
80
0
80
80
0
80
96
0
100
108
0
112
96
0
100
192
192
192
136
0
0
192
192
192
192
192
192
88
0
0
64
0
0
44
44
44
72
72
72
72
72
72
56
56
56
168
168
168
168
168
168
88
0
0
168
168
168
80
0
80
80
0
80
80
0
80
88
0
88
80
0
80
88
0
88
80
0
80
80
0
80
80
0
80
80
0
80
80
0
80
80
0
80
84
84
84
80
0
80
80
0
80
80
0
80
80
0
80
84
84
84
80
0
80
80
0
80
80
0
80
124
124
124
84
84
84
108
0
112
72
72
72
108
0
112
108
0
112
84
84
84
124
124
124
80
0
80
88
0
88
80
0
80
84
84
84
88
0
88
80
0
80
80
0
80
80
0
80
84
84
84
72
0
72
72
0
72
72
0
72
72
0
72
72
0
72
72
0
72
72
0
72
80
0
80
80
0
80
96
0
100
96
0
100
80
0
80
180
180
180
124
0
0
180
180
180
180
180
180
32
32
32
32
32
32
44
44
44
84
84
84
84
84
84
84
84
84
168
168
168
168
168
168
100
0
0
168
168
168
100
100
100
80
0
80
80
0
80
80
0
80
80
0
80
80
0
80
80
0
80
80
0
80
80
0
80
72
72
72
112
112
112
80
0
80
80
0
80
80
0
80
80
0
80
80
0
80
84
84
84
80
0
80
80
0
80
80
0
80
80
0
80
84
84
84
124
124
124
124
124
124
84
84
84
84
84
84
124
124
124
124
124
124
84
84
84
80
0
80
80
0
80
80
0
80
88
0
88
84
84
84
80
0
80
80
0
80
72
0
72
80
0
80
72
0
72
112
112
112
72
72
72
72
0
72
72
0
72
72
0
72
80
0
80
80
0
80
88
0
88
96
0
100
88
0
88
100
100
100
180
180
180
112
0
0
180
180
180
180
180
180
32
32
32
44
44
44
44
44
44
188
0
0
188
0
0
188
0
0
180
180
180
180
180
180
112
0
0
180
180
180
152
152
152
100
100
100
80
0
80
80
0
80
80
0
80
80
0
80
72
72
72
112
112
112
112
112
112
80
0
80
80
0
80
80
0
80
80
0
80
80
0
80
80
0
80
112
112
112
80
0
80
80
0
80
80
0
80
80
0
80
80
0
80
80
0
80
80
0
80
84
84
84
124
124
124
124
124
124
84
84
84
80
0
80
80
0
80
80
0
80
80
0
80
88
0
88
80
0
80
80
0
80
112
112
112
80
0
80
80
0
80
72
0
72
72
0
72
72
0
72
80
0
80
112
112
112
112
112
112
72
72
72
80
0
80
80
0
80
88
0
88
88
0
88
100
100
100
152
152
152
180
180
180
112
0
0
180
180
180
180
180
180
88
0
0
88
0
0
188
0
0
164
0
0
176
0
0
164
0
0
180
180
180
180
180
180
112
0
0
180
180
180
180
180
180
180
180
180
152
152
152
152
152
152
152
152
152
152
152
152
112
112
112
80
0
80
80
0
80
80
0
80
80
0
80
80
0
80
80
0
80
80
0
80
112
112
112
80
0
80
80
0
80
80
0
80
80
0
80
80
0
80
80
0
80
80
0
80
80
0
80
80
0
80
80
0
80
80
0
80
80
0
80
80
0
80
80
0
80
80
0
80
80
0
80
80
0
80
80
0
80
80
0
80
80
0
80
112
112
112
72
0
72
80
0
80
72
0
72
72
0
72
72
0
72
72
0
72
80
0
80
112
112
112
152
152
152
152
152
152
152
152
152
152
152
152
180
180
180
168
168
168
168
168
168
100
0
0
168
168
168
168
168
168
88
0
0
88
0
0
164
0
0
164
0
0
124
0
0
136
0
0
180
180
180
180
180
180
112
0
0
180
180
180
180
180
180
152
152
152
152
152
152
112
112
112
80
0
80
80
0
80
80
0
80
80
0
80
80
0
80
80
0
80
80
0
80
80
0
80
80
0
80
112
112
112
80
0
80
80
0
80
80
0
80
80
0
80
80
0
80
80
0
80
80
0
80
80
0
80
80
0
80
80
0
80
80
0
80
80
0
80
80
0
80
80
0
80
80
0
80
80
0
80
80
0
80
80
0
80
80
0
80
80
0
80
80
0
80
80
0
80
112
112
112
72
0
72
80
0
80
72
0
72
80
0
80
72
0
72
80
0
80
88
0
88
88
0
88
88
0
88
112
112
112
152
152
152
152
152
152
152
152
152
152
152
152
88
0
0
152
152
152
152
152
152
88
0
0
88
0
0
112
0
0
136
0
0
124
0
0
164
0
0
180
180
180
180
180
180
112
0
0
180
180
180
180
180
180
80
0
80
80
0
80
80
0
80
80
0
80
80
0
80
80
0
80
80
0
80
80
0
80
80
0
80
80
0
80
80
0
80
112
112
112
80
0
80
80
0
80
80
0
80
80
0
80
112
112
112
80
0
80
112
112
112
80
0
80
80
0
80
80
0
80
80
0
80
80
0
80
80
0
80
80
0
80
80
0
80
80
0
80
80
0
80
112
112
112
80
0
80
112
112
112
80
0
80
80
0
80
80
0
80
80
0
80
112
112
112
72
0
72
80
0
80
72
0
72
80
0
80
88
0
88
88
0
88
88
0
88
88
0
88
88
0
88
80
0
80
80
0
80
140
140
140
140
140
140
76
0
0
140
140
140
140
140
140
88
0
0
88
0
0
112
0
0
164
0
0
136
0
0
124
0
0
180
180
180
180
180
180
112
0
0
180
180
180
180
180
180
80
0
80
80
0
80
80
0
80
80
0
80
80
0
80
80
0
80
80
0
80
80
0
80
80
0
80
80
0
80
112
112
112
80
0
80
80
0
80
80
0
80
80
0
80
100
100
100
152
152
152
112
112
112
80
0
80
80
0
80
80
0
80
80
0
80
80
0
80
80
0
80
80
0
80
80
0
80
80
0
80
80
0
80
80
0
80
80
0
80
112
112
112
152
152
152
100
100
100
80
0
80
80
0
80
80
0
80
80
0
80
112
112
112
80
0
80
80
0
80
80
0
80
80
0
80
88
0
88
88
0
88
88
0
88
88
0
88
80
0
80
80
0
80
152
152
152
152
152
152
88
0
0
152
152
152
152
152
152
88
0
0
88
0
0
136
0
0
164
0
0
136
0
0
124
0
0
180
180
180
180
180
180
124
0
0
180
180
180
180
180
180
112
112
112
80
0
80
80
0
80
80
0
80
80
0
80
80
0
80
80
0
80
80
0
80
80
0
80
112
112
112
80
0
80
80
0
80
80
0
80
80
0
80
80
0
80
152
152
152
80
0
80
80
0
80
80
0
80
80
0
80
80
0
80
80
0
80
80
0
80
80
0
80
80
0
80
80
0
80
80
0
80
80
0
80
80
0
80
80
0
80
80
0
80
80
0
80
152
152
152
80
0
80
80
0
80
80
0
80
80
0
80
80
0
80
112
112
112
80
0
80
80
0
80
88
0
88
88
0
88
88
0
88
88
0
88
88
0
88
80
0
80
112
112
112
152
152
152
152
152
152
100
0
0
152
152
152
152
152
152
88
0
0
88
0
0
112
0
0
112
0
0
112
0
0
136
0
0
180
180
180
180
180
180
124
0
0
180
180
180
180
180
180
152
152
152
80
0
80
80
0
80
80
0
80
80
0
80
80
0
80
80
0
80
80
0
80
112
112
112
80
0
80
80
0
80
80
0
80
80
0
80
80
0
80
152
152
152
80
0
80
80
0
80
80
0
80
80
0
80
80
0
80
80
0
80
80
0
80
80
0
80
80
0
80
80
0
80
80
0
80
80
0
80
80
0
80
80
0
80
80
0
80
80
0
80
80
0
80
80
0
80
152
152
152
80
0
80
80
0
80
80
0
80
80
0
80
80
0
80
112
112
112
80
0
80
80
0
80
88
0
88
80
0
80
88
0
88
80
0
80
80
0
80
152
152
152
168
168
168
168
168
168
100
0
0
168
168
168
168
168
168
88
0
0
88
0
0
112
0
0
64
0
0
64
0
0
76
0
0
180
180
180
180
180
180
136
0
0
180
180
180
180
180
180
180
180
180
112
112
112
80
0
80
80
0
80
80
0
80
80
0
80
80
0
80
112
112
112
80
0
80
80
0
80
80
0
80
80
0
80
80
0
80
80
0
80
80
0
80
80
0
80
80
0
80
80
0
80
80
0
80
80
0
80
80
0
80
80
0
80
80
0
80
80
0
80
80
0
80
80
0
80
80
0
80
80
0
80
80
0
80
80
0
80
80
0
80
80
0
80
80
0
80
80
0
80
80
0
80
80
0
80
80
0
80
80
0
80
80
0
80
80
0
80
112
112
112
80
0
80
80
0
80
80
0
80
88
0
88
80
0
80
112
112
112
180
180
180
180
180
180
180
180
180
100
0
0
180
180
180
180
180
180
88
0
0
88
0
0
64
0
0
44
44
44
44
44
44
44
44
44
192
192
192
192
192
192
136
0
0
192
192
192
192
192
192
192
192
192
180
180
180
112
112
112
80
0
80
80
0
80
80
0
80
112
112
112
80
0
80
80
0
80
80
0
80
80
0
80
80
0
80
80
0
80
152
152
152
80
0
80
80
0
80
80
0
80
80
0
80
80
0
80
80
0
80
80
0
80
80
0
80
80
0
80
80
0
80
80
0
80
80
0
80
80
0
80
80
0
80
80
0
80
80
0
80
80
0
80
80
0
80
80
0
80
80
0
80
152
152
152
80
0
80
80
0
80
80
0
80
80
0
80
80
0
80
80
0
80
112
112
112
80
0
80
80
0
80
80
0
80
112
112
112
180
180
180
180
180
180
180
180
180
180
180
180
112
0
0
180
180
180
180
180
180
32
32
32
32
32
32
44
44
44
84
84
84
72
72
72
84
84
84
208
208
208
208
208
208
164
0
0
208
208
208
208
208
208
208
208
208
180
180
180
180
180
180
152
152
152
152
152
152
152
152
152
152
152
152
80
0
80
80
0
80
80
0
80
80
0
80
80
0
80
152
152
152
180
180
180
156
0
156
80
0
80
80
0
80
80
0
80
80
0
80
80
0
80
80
0
80
112
112
112
80
0
80
80
0
80
80
0
80
80
0
80
112
112
112
80
0
80
80
0
80
80
0
80
80
0
80
80
0
80
80
0
80
156
0
156
180
180
180
152
152
152
80
0
80
80
0
80
80
0
80
80
0
80
80
0
80
152
152
152
152
152
152
152
152
152
152
152
152
180
180
180
180
180
180
180
180
180
180
180
180
180
180
180
112
0
0
180
180
180
180
180
180
32
32
32
44
44
44
44
44
44
56
56
56
236
0
0
212
0
0
192
192
192
192
192
192
152
0
0
192
192
192
192
192
192
192
192
192
180
180
180
180
180
180
180
180
180
180
180
180
180
180
180
152
152
152
152
152
152
80
0
80
80
0
80
80
0
80
152
152
152
180
180
180
180
180
180
180
180
180
112
112
112
80
0
80
80
0
80
80
0
80
80
0
80
80
0
80
80
0
80
80
0
80
80
0
80
80
0
80
80
0
80
80
0
80
80
0
80
80
0
80
80
0
80
80
0
80
80
0
80
112
112
112
180
180
180
180
180
180
180
180
180
152
152
152
80
0
80
80
0
80
80
0
80
152
152
152
152
152
152
180
180
180
180
180
180
180
180
180
180
180
180
180
180
180
180
180
180
192
192
192
192
192
192
136
0
0
192
192
192
192
192
192
88
0
0
88
0
0
44
44
44
84
84
84
212
0
0
164
0
0
180
180
180
180
180
180
152
0
0
180
180
180
180
180
180
180
180
180
180
180
180
180
180
180
180
180
180
180
180
180
124
124
124
180
84
0
180
84
0
124
124
124
180
180
180
180
180
180
180
180
180
180
180
180
124
124
124
180
84
0
80
0
80
80
0
80
80
0
80
80
0
80
80
0
80
80
0
80
80
0
80
80
0
80
80
0
80
80
0
80
80
0
80
80
0
80
80
0
80
80
0
80
80
0
80
80
0
80
80
0
80
80
0
80
180
84
0
124
124
124
180
180
180
180
180
180
180
180
180
180
180
180
124
124
124
180
84
0
180
84
0
124
124
124
180
180
180
180
180
180
192
192
192
192
192
192
192
192
192
192
192
192
192
192
192
136
0
0
192
192
192
192
192
192
88
0
0
64
0
0
44
44
44
72
72
72
212
0
0
164
0
0
180
180
180
180
180
180
136
0
0
180
180
180
180
180
180
180
180
180
180
180
180
180
180
180
180
180
180
180
180
180
180
84
0
180
84
0
180
84
0
180
84
0
180
84
0
180
84
0
180
84
0
180
84
0
180
84
0
180
84
0
116
76
40
116
76
40
80
0
80
80
0
80
112
112
112
180
180
180
80
0
80
80
0
80
80
0
80
80
0
80
80
0
80
80
0
80
180
180
180
112
112
112
80
0
80
80
0
80
116
76
40
116
76
40
180
84
0
180
84
0
180
84
0
180
84
0
180
84
0
180
84
0
180
84
0
180
84
0
180
84
0
180
84
0
192
192
192
192
192
192
192
192
192
192
192
192
208
208
208
208
208
208
208
208
208
152
0
0
208
208
208
208
208
208
88
0
0
64
0
0
44
44
44
72
72
72
212
0
0
136
0
0
180
180
180
180
180
180
136
0
0
180
180
180
180
180
180
180
180
180
180
180
180
180
180
180
180
180
180
180
180
180
180
180
180
124
124
124
100
100
100
116
76
40
180
84
0
180
84
0
180
84
0
180
84
0
116
76
40
116
76
40
124
124
124
180
180
180
180
180
180
180
180
180
180
180
180
80
0
80
80
0
80
80
0
80
80
0
80
80
0
80
80
0
80
80
0
80
80
0
80
180
180
180
180
180
180
180
180
180
180
180
180
124
124
124
116
76
40
116
76
40
180
84
0
180
84
0
180
84
0
180
84
0
116
76
40
100
100
100
124
124
124
180
180
180
180
180
180
180
180
180
192
192
192
192
192
192
192
192
192
192
192
192
192
192
192
152
0
0
192
192
192
192
192
192
88
0
0
64
0
0
44
44
44
56
56
56
212
0
0
164
0
0
180
180
180
180
180
180
124
0
0
180
180
180
180
180
180
180
180
180
180
180
180
180
180
180
180
180
180
180
180
180
140
140
140
180
84
0
180
84
0
180
84
0
180
84
0
180
84
0
180
84
0
180
84
0
180
84
0
180
84
0
180
84
0
180
180
180
180
180
180
180
180
180
80
0
80
80
0
80
80
0
80
80
0
80
80
0
80
80
0
80
80
0
80
80
0
80
80
0
80
80
0
80
180
180
180
180
180
180
180
180
180
180
84
0
180
84
0
180
84
0
180
84
0
180
84
0
180
84
0
180
84
0
180
84
0
180
84
0
180
84
0
140
140
140
180
180
180
180
180
180
180
180
180
180
180
180
180
180
180
192
192
192
192
192
192
136
0
0
192
192
192
192
192
192
88
0
0
64
0
0
44
44
44
84
84
84
212
0
0
164
0
0
168
168
168
168
168
168
112
0
0
168
168
168
168
168
168
168
168
168
168
168
168
180
180
180
180
180
180
180
180
180
180
84
0
116
76
40
116
76
40
140
140
140
180
84
0
180
84
0
116
76
40
180
180
180
140
140
140
116
76
40
180
84
0
180
180
180
124
124
124
80
0
80
80
0
80
80
0
80
80
0
80
80
0
80
80
0
80
80
0
80
80
0
80
80
0
80
80
0
80
80
0
80
80
0
80
124
124
124
180
180
180
180
84
0
116
76
40
140
140
140
180
180
180
116
76
40
180
84
0
180
84
0
140
140
140
116
76
40
116
76
40
180
84
0
180
180
180
180
180
180
180
180
180
180
180
180
180
180
180
180
180
180
180
180
180
112
0
0
180
180
180
180
180
180
88
0
0
64
0
0
44
44
44
56
56
56
200
0
0
164
0
0
168
168
168
168
168
168
112
0
0
168
168
168
168
168
168
168
168
168
168
168
168
168
168
168
168
168
168
180
180
180
116
76
40
124
124
124
140
140
140
180
180
180
180
84
0
116
76
40
180
180
180
180
180
180
180
180
180
180
180
180
124
124
124
84
84
84
80
0
80
80
0
80
80
0
80
80
0
80
80
0
80
80
0
80
80
0
80
80
0
80
80
0
80
80
0
80
80
0
80
80
0
80
80
0
80
80
0
80
84
84
84
124
124
124
180
180
180
180
180
180
180
180
180
180
180
180
116
76
40
180
84
0
180
180
180
140
140
140
124
124
124
116
76
40
180
180
180
180
180
180
180
180
180
180
180
180
180
180
180
180
180
180
180
180
180
112
0
0
180
180
180
180
180
180
88
0
0
64
0
0
44
44
44
84
84
84
164
0
0
100
0
0
180
180
180
180
180
180
112
0
0
180
180
180
180
180
180
180
180
180
180
180
180
180
180
180
180
180
180
180
180
180
180
180
180
180
180
180
180
180
180
180
180
180
180
84
0
116
76
40
180
180
180
180
180
180
124
124
124
84
84
84
80
0
80
80
0
80
80
0
80
80
0
80
80
0
80
80
0
80
80
0
80
80
0
80
80
0
80
80
0
80
80
0
80
80
0
80
80
0
80
80
0
80
80
0
80
80
0
80
80
0
80
80
0
80
84
84
84
124
124
124
180
180
180
180
180
180
116
76
40
180
84
0
180
180
180
180
180
180
180
180
180
180
180
180
180
180
180
180
180
180
180
180
180
180
180
180
180
180
180
180
180
180
180
180
180
112
0
0
180
180
180
180
180
180
64
0
0
64
0
0
44
44
44
56
56
56
72
72
72
44
44
44
180
180
180
180
180
180
112
0
0
152
152
152
180
180
180
180
180
180
180
180
180
180
180
180
180
180
180
180
180
180
180
180
180
180
180
180
180
180
180
180
180
180
140
140
140
180
84
0
180
180
180
80
0
80
80
0
80
80
0
80
80
0
80
80
0
80
80
0
80
80
0
80
80
0
80
80
0
80
124
124
124
80
0
80
80
0
80
80
0
80
80
0
80
124
124
124
80
0
80
80
0
80
80
0
80
80
0
80
80
0
80
80
0
80
80
0
80
80
0
80
80
0
80
180
180
180
180
84
0
140
140
140
180
180
180
180
180
180
180
180
180
180
180
180
180
180
180
180
180
180
180
180
180
180
180
180
180
180
180
180
180
180
152
152
152
112
0
0
180
180
180
180
180
180
32
32
32
32
32
32
44
44
44
84
84
84
56
56
56
84
84
84
180
180
180
180
180
180
112
0
0
124
124
124
180
180
180
180
180
180
180
180
180
180
180
180
180
180
180
180
180
180
180
180
180
180
180
180
180
180
180
180
180
180
180
180
180
180
180
180
180
180
180
124
124
124
84
84
84
80
0
80
80
0
80
80
0
80
80
0
80
80
0
80
100
100
100
180
180
180
80
0
80
80
0
80
80
0
80
80
0
80
80
0
80
80
0
80
180
180
180
100
100
100
80
0
80
80
0
80
80
0
80
80
0
80
80
0
80
84
84
84
124
124
124
180
180
180
180
180
180
180
180
180
180
180
180
180
180
180
180
180
180
180
180
180
180
180
180
180
180
180
180
180
180
180
180
180
180
180
180
180
180
180
124
124
124
112
0
0
180
180
180
180
180
180
32
32
32
44
44
44
44
44
44
212
0
0
212
0
0
212
0
0
180
180
180
180
180
180
124
124
124
112
0
0
124
124
124
152
152
152
180
180
180
180
180
180
180
180
180
180
180
180
180
180
180
180
180
180
180
180
180
180
180
180
180
180
180
180
180
180
180
180
180
180
180
180
180
180
180
124
124
124
84
84
84
80
0
80
80
0
80
100
100
100
180
180
180
124
124
124
80
0
80
80
0
80
80
0
80
80
0
80
80
0
80
80
0
80
124
124
124
180
180
180
100
100
100
80
0
80
80
0
80
84
84
84
124
124
124
180
180
180
180
180
180
180
180
180
180
180
180
180
180
180
180
180
180
180
180
180
180
180
180
180
180
180
180
180
180
180
180
180
180
180
180
180
180
180
152
152
152
124
124
124
112
0
0
124
124
124
180
180
180
180
180
180
88
0
0
88
0
0
188
0
0
124
0
0
164
0
0
88
0
0
124
124
124
180
180
180
180
180
180
124
124
124
112
0
0
112
0
0
112
0
0
124
124
124
152
152
152
180
180
180
180
180
180
180
180
180
180
180
180
180
180
180
180
180
180
180
180
180
180
180
180
180
180
180
180
180
180
180
180
180
180
180
180
180
180
180
180
180
180
180
180
180
180
180
180
80
0
80
80
0
80
80
0
80
80
0
80
80
0
80
80
0
80
80
0
80
80
0
80
180
180
180
180
180
180
180
180
180
180
180
180
180
180
180
180
180
180
180
180
180
180
180
180
180
180
180
180
180
180
180
180
180
180
180
180
180
180
180
180
180
180
180
180
180
180
180
180
152
152
152
140
140
140
112
0
0
112
0
0
112
0
0
124
124
124
152
152
152
180
180
180
124
124
124
88
0
0
88
0
0
112
0
0
164
0
0
124
0
0
124
0
0
88
0
0
124
124
124
180
180
180
180
180
180
180
180
180
152
152
152
124
124
124
112
0
0
112
0
0
112
0
0
112
0
0
124
124
124
152
152
152
180
180
180
180
180
180
180
180
180
180
180
180
180
180
180
180
180
180
180
180
180
180
180
180
180
180
180
180
180
180
180
180
180
180
180
180
100
100
100
80
0
80
80
0
80
80
0
80
80
0
80
80
0
80
80
0
80
100
100
100
180
180
180
180
180
180
180
180
180
180
180
180
180
180
180
180
180
180
180
180
180
180
180
180
180
180
180
180
180
180
180
180
180
180
180
180
152
152
152
124
124
124
112
0
0
112
0
0
112
0
0
112
0
0
140
140
140
152
152
152
180
180
180
180
180
180
180
180
180
124
124
124
88
0
0
88
0
0
88
0
0
76
0
0
164
0
0
124
0
0
88
0
0
88
0
0
88
0
0
84
84
84
124
124
124
180
180
180
180
180
180
180
180
180
180
180
180
180
180
180
152
152
152
124
124
124
112
0
0
112
0
0
112
0
0
124
124
124
152
152
152
180
180
180
180
180
180
180
180
180
180
180
180
180
180
180
180
180
180
180
180
180
180
180
180
180
180
180
180
180
180
100
100
100
80
0
80
80
0
80
80
0
80
80
0
80
100
100
100
180
180
180
180
180
180
180
180
180
180
180
180
180
180
180
180
180
180
180
180
180
180
180
180
180
180
180
180
180
180
152
152
152
124
124
124
112
0
0
112
0
0
112
0
0
124
124
124
152
152
152
180
180
180
180
180
180
180
180
180
180
180
180
180
180
180
124
124
124
84
84
84
88
0
0
88
0
0
88
0
0
112
0
0
136
0
0
124
0
0
152
0
0
88
0
0
88
0
0
88
0
0
88
0
0
88
0
0
84
84
84
124
124
124
180
180
180
180
180
180
180
180
180
180
180
180
180
180
180
180
180
180
152
152
152
124
124
124
112
0
0
112
0
0
112
0
0
124
124
124
152
152
152
180
180
180
180
180
180
180
180
180
180
180
180
180
180
180
180
180
180
180
180
180
180
180
180
100
100
100
80
0
80
80
0
80
100
100
100
180
180
180
180
180
180
180
180
180
180
180
180
180
180
180
180
180
180
180
180
180
180
180
180
152
152
152
124
124
124
112
0
0
112
0
0
112
0
0
124
124
124
152
152
152
180
180
180
180
180
180
180
180
180
180
180
180
180
180
180
124
124
124
84
84
84
88
0
0
88
0
0
88
0
0
88
0
0
88
0
0
100
0
0
112
0
0
164
0
0
100
0
0
164
0
0
124
0
0
164
0
0
100
0
0
88
0
0
100
0
0
88
0
0
88
0
0
88
0
0
88
0
0
84
84
84
124
124
124
180
180
180
180
180
180
180
180
180
180
180
180
180
180
180
152
152
152
124
124
124
112
0
0
112
0
0
112
0
0
124
124
124
152
152
152
180
180
180
180
180
180
180
180
180
180
180
180
180
180
180
180
180
180
100
100
100
100
100
100
180
180
180
180
180
180
180
180
180
180
180
180
180
180
180
180
180
180
152
152
152
124
124
124
112
0
0
112
0
0
112
0
0
124
124
124
152
152
152
180
180
180
180
180
180
180
180
180
180
180
180
180
180
180
124
124
124
84
84
84
88
0
0
88
0
0
88
0
0
88
0
0
88
0
0
88
0
0
112
0
0
88
0
0
164
0
0
112
0
0
164
0
0
100
0
0
164
0
0
124
0
0
124
0
0
100
0
0
152
0
0
152
0
0
100
0
0
88
0
0
88
0
0
88
0
0
88
0
0
88
0
0
88
0
0
84
84
84
124
124
124
180
180
180
180
180
180
180
180
180
180
180
180
180
180
180
152
152
152
124
124
124
112
0
0
112
0
0
112
0
0
112
0
0
124
124
124
152
152
152
180
180
180
180
180
180
180
180
180
180
180
180
180
180
180
180
180
180
152
152
152
124
124
124
112
0
0
112
0
0
112
0
0
112
0
0
124
124
124
152
152
152
180
180
180
180
180
180
180
180
180
180
180
180
180
180
180
124
124
124
84
84
84
88
0
0
88
0
0
88
0
0
88
0
0
88
0
0
88
0
0
88
0
0
112
0
0
164
0
0
112
0
0
88
0
0
100
0
0
164
0
0
76
0
0
124
0
0
152
0
0
88
0
0
164
0
0
100
0
0
100
0
0
136
0
0
100
0
0
124
0
0
124
0
0
164
0
0
88
0
0
88
0
0
88
0
0
88
0
0
88
0
0
88
0
0
64
0
0
84
84
84
124
124
124
180
180
180
180
180
180
180
180
180
180
180
180
180
180
180
152
152
152
124
124
124
112
0
0
112
0
0
112
0
0
124
124
124
152
152
152
152
152
152
124
124
124
112
0
0
112
0
0
112
0
0
124
124
124
152
152
152
180
180
180
180
180
180
180
180
180
180
180
180
180
180
180
124
124
124
84
84
84
64
0
0
44
44
44
44
44
44
44
44
44
88
0
0
88
0
0
88
0
0
88
0
0
164
0
0
88
0
0
164
0
0
112
0
0
164
0
0
112
0
0
164
0
0
100
0
0
164
0
0
112
0
0
76
0
0
76
0
0
76
0
0
76
0
0
76
0
0
76
0
0
76
0
0
76
0
0
76
0
0
76
0
0
76
0
0
76
0
0
76
0
0
76
0
0
76
0
0
76
0
0
64
0
0
64
0
0
32
32
32
32
32
32
44
44
44
84
84
84
124
124
124
180
180
180
180
180
180
180
180
180
180
180
180
180
180
180
152
152
152
124
124
124
112
0
0
112
0
0
112
0
0
112
0
0
124
124
124
152
152
152
180
180
180
180
180
180
180
180
180
180
180
180
124
124
124
84
84
84
76
0
0
76
0
0
76
0
0
64
0
0
64
0
0
32
32
32
44
44
44
44
44
44
88
0
0
64
0
0
64
0
0
76
0
0
76
0
0
76
0
0
76
0
0
76
0
0
76
0
0
76
0
0
76
0
0
76
0
0
76
0
0
76
0
0
44
44
44
44
44
44
44
44
44
44
44
44
44
44
44
44
44
44
44
44
44
44
44
44
44
44
44
44
44
44
44
44
44
44
44
44
44
44
44
44
44
44
44
44
44
44
44
44
44
44
44
44
44
44
44
44
44
32
32
32
32
32
32
32
32
32
32
32
32
32
32
32
44
44
44
84
84
84
124
124
124
180
180
180
180
180
180
180
180
180
180
180
180
180
180
180
180
180
180
180
180
180
180
180
180
180
180
180
180
180
180
124
124
124
84
84
84
32
32
32
32
32
32
32
32
32
32
32
32
32
32
32
44
44
44
32
32
32
32
32
32
32
32
32
44
44
44
44
44
44
44
44
44
44
44
44
44
44
44
44
44
44
44
44
44
44
44
44
44
44
44
32
32
32
32
32
32
32
32
32
32
32
32
32
32
32
44
44
44
44
44
44
56
56
56
84
84
84
56
56
56
84
84
84
56
56
56
56
56
56
56
56
56
72
72
72
72
72
72
72
72
72
72
72
72
72
72
72
84
84
84
56
56
56
56
56
56
56
56
56
56
56
56
44
44
44
44
44
44
44
44
44
44
44
44
44
44
44
44
44
44
44
44
44
32
32
32
32
32
32
32
32
32
32
32
32
32
32
32
84
84
84
124
124
124
180
180
180
180
180
180
124
124
124
84
84
84
44
44
44
32
32
32
32
32
32
32
32
32
32
32
32
32
32
32
44
44
44
44
44
44
44
44
44
44
44
44
44
44
44
44
44
44
44
44
44
44
44
44
56
56
56
56
56
56
72
72
72
72
72
72
84
84
84
72
72
72
72
72
72
72
72
72
72
72
72
64
64
64
56
56
56
64
64
64
72
72
72
72
72
72
72
72
72
84
84
84
84
84
84
84
84
84
84
84
84
84
84
84
84
84
84
84
84
84
84
84
84
84
84
84
84
84
84
84
84
84
84
84
84
84
84
84
84
84
84
84
84
84
84
84
84
84
84
84
84
84
84
84
84
84
72
72
72
56
56
56
56
56
56
56
56
56
44
44
44
44
44
44
32
32
32
32
32
32
32
32
32
32
32
32
32
32
32
32
32
32
32
32
32
32
32
32
32
32
32
32
32
32
32
32
32
32
32
32
32
32
32
32
32
32
32
32
32
32
32
32
32
32
32
44
44
44
56
56
56
56
56
56
56
56
56
72
72
72
72
72
72
84
84
84
84
84
84
84
84
84
84
84
84
84
84
84
84
84
84
84
84
84
84
84
84
84
84
84
84
84
84
84
84
84
84
84
84
84
84
84
84
84
84
84
84
84
84
84
84
