P3
# Created by GIMP version 2.10.30 PNM plug-in
64 64
255
44
44
44
44
44
44
44
44
44
44
44
44
44
44
44
44
44
44
44
44
44
44
44
44
44
44
44
44
44
44
44
44
44
44
44
44
44
44
44
44
44
44
44
44
44
44
44
44
44
44
44
44
44
44
44
44
44
44
44
44
44
44
44
44
44
44
44
44
44
44
44
44
44
44
44
44
44
44
44
44
44
44
44
44
44
44
44
44
44
44
44
44
44
44
44
44
44
44
44
44
44
44
44
44
44
44
44
44
44
44
44
44
44
44
44
44
44
44
44
44
44
44
44
44
44
44
44
44
44
44
44
44
44
44
44
44
44
44
44
44
44
44
44
44
44
44
44
44
44
44
44
44
44
44
44
44
44
44
44
44
44
44
44
44
44
44
44
44
44
44
44
44
44
44
44
44
44
44
44
44
44
44
44
44
44
44
44
44
44
44
44
44
84
84
84
84
84
84
84
84
84
84
84
84
84
84
84
84
84
84
84
84
84
84
84
84
84
84
84
84
84
84
72
72
72
220
220
220
204
196
0
204
196
0
204
196
0
204
196
0
204
196
0
220
220
220
220
220
220
220
220
220
220
220
220
220
220
220
220
220
220
180
172
0
180
172
0
180
172
0
220
220
220
32
32
32
56
56
56
140
140
140
168
168
168
220
220
220
220
220
220
220
220
220
220
220
220
220
220
220
204
196
0
204
196
0
204
196
0
112
112
112
140
140
140
140
140
140
84
84
84
32
32
32
72
72
72
72
72
72
72
72
72
72
72
72
72
72
72
72
72
72
72
72
72
72
72
72
72
72
72
72
72
72
84
84
84
84
84
84
84
84
84
84
84
84
84
84
84
84
84
84
84
84
84
84
84
84
84
84
84
84
84
84
84
84
84
84
84
84
84
84
84
84
84
84
84
84
84
84
84
84
84
84
84
84
84
84
84
84
84
84
84
84
72
72
72
220
220
220
208
208
208
180
172
0
180
172
0
180
172
0
180
172
0
152
152
152
168
168
168
204
196
0
204
196
0
208
208
208
192
192
192
192
192
192
204
196
0
204
196
0
140
140
140
32
32
32
56
56
56
140
140
140
192
192
192
180
180
180
140
140
140
204
196
0
124
124
124
204
196
0
156
156
0
156
156
0
156
156
0
112
108
0
84
84
84
84
84
84
56
56
56
32
32
32
56
56
56
112
112
112
156
156
0
156
156
0
156
156
0
156
156
0
124
124
124
124
124
124
124
124
124
112
112
112
100
100
100
72
72
72
72
72
72
72
72
72
72
72
72
72
72
72
72
72
72
72
72
72
72
72
72
72
72
72
140
140
140
140
140
140
140
140
140
140
140
140
140
140
140
140
140
140
140
140
140
140
140
140
32
32
32
84
84
84
72
72
72
220
220
220
208
208
208
180
172
0
180
172
0
180
172
0
112
108
0
152
152
152
204
196
0
204
196
0
156
156
0
192
192
192
192
192
192
192
192
192
132
132
0
180
172
0
100
100
100
32
32
32
56
56
56
168
168
168
220
220
220
168
168
168
140
140
140
124
124
124
204
196
0
124
124
124
112
108
0
132
132
0
112
108
0
84
84
84
124
124
124
84
84
84
56
56
56
32
32
32
56
56
56
156
156
0
204
196
0
228
216
0
156
156
0
112
108
0
140
140
140
180
180
180
192
192
192
204
196
0
204
196
0
204
196
0
100
100
100
100
100
100
204
196
0
204
196
0
140
140
140
140
140
140
140
140
140
140
140
140
208
208
208
180
180
180
180
172
0
180
180
180
180
180
180
168
168
168
140
140
140
140
140
140
32
32
32
84
84
84
72
72
72
220
220
220
208
208
208
156
156
0
156
156
0
132
132
0
112
108
0
152
152
152
204
196
0
156
156
0
168
168
168
168
168
168
152
152
152
140
140
140
140
140
140
156
156
0
84
84
84
32
32
32
56
56
56
140
140
140
192
192
192
140
140
140
140
140
140
140
140
140
168
168
168
168
168
168
100
100
100
132
132
0
112
108
0
84
84
84
112
112
112
84
84
84
56
56
56
32
32
32
56
56
56
156
156
0
228
216
0
180
172
0
112
108
0
100
100
100
124
124
124
180
180
180
220
220
220
204
196
0
228
216
0
228
216
0
72
72
72
100
100
100
204
196
0
204
196
0
132
132
0
124
124
124
208
208
208
208
208
208
168
168
168
168
168
168
180
172
0
180
172
0
84
84
84
112
112
112
124
124
124
112
112
112
32
32
32
84
84
84
72
72
72
220
220
220
192
192
192
156
156
0
132
132
0
112
108
0
112
112
112
124
124
124
152
152
152
168
168
168
152
152
152
156
156
0
140
140
140
112
112
112
140
140
140
132
132
0
84
84
84
32
32
32
56
56
56
72
72
72
168
168
168
204
196
0
156
156
0
168
168
168
140
140
140
140
140
140
124
124
124
88
84
0
84
84
84
112
112
112
84
84
84
84
84
84
56
56
56
32
32
32
56
56
56
156
156
0
228
216
0
112
108
0
100
100
100
140
140
140
180
180
180
228
216
0
204
196
0
124
124
124
156
156
0
156
156
0
72
72
72
100
100
100
156
156
0
132
132
0
112
108
0
72
72
72
140
140
140
152
152
152
180
180
180
152
152
152
112
108
0
84
84
84
140
140
140
140
140
140
140
140
140
112
112
112
32
32
32
72
72
72
72
72
72
220
220
220
208
208
208
156
156
0
112
108
0
112
108
0
124
124
124
168
168
168
152
152
152
152
152
152
152
152
152
156
156
0
140
140
140
152
152
152
112
112
112
140
140
140
84
84
84
32
32
32
56
56
56
72
72
72
124
124
124
156
156
0
132
132
0
180
172
0
140
140
140
168
168
168
168
168
168
112
112
112
100
100
100
112
112
112
56
56
56
56
56
56
56
56
56
32
32
32
56
56
56
132
132
0
156
156
0
112
108
0
100
100
100
124
124
124
204
196
0
204
196
0
204
196
0
124
124
124
112
108
0
156
156
0
72
72
72
112
112
112
100
100
100
72
72
72
72
72
72
100
100
100
180
172
0
124
124
124
180
180
180
180
180
180
124
124
124
140
140
140
168
168
168
140
140
140
112
112
112
84
84
84
32
32
32
56
56
56
72
72
72
220
220
220
208
208
208
140
140
140
124
124
124
124
124
124
152
152
152
168
168
168
152
152
152
208
208
208
124
124
124
132
132
0
152
152
152
168
168
168
140
140
140
140
140
140
84
84
84
32
32
32
56
56
56
72
72
72
112
112
112
140
140
140
168
168
168
140
140
140
168
168
168
140
140
140
140
140
140
140
140
140
168
168
168
112
112
112
56
56
56
56
56
56
56
56
56
44
44
44
56
56
56
132
132
0
112
108
0
100
100
100
140
140
140
140
140
140
124
124
124
204
196
0
124
124
124
124
124
124
112
108
0
112
108
0
72
72
72
112
112
112
124
124
124
140
140
140
112
112
112
124
124
124
132
132
0
100
100
100
152
152
152
168
168
168
168
168
168
112
112
112
112
112
112
140
140
140
72
72
72
72
72
72
32
32
32
44
44
44
72
72
72
220
220
220
192
192
192
168
168
168
152
152
152
124
124
124
152
152
152
204
196
0
152
152
152
152
152
152
140
140
140
152
152
152
140
140
140
140
140
140
168
168
168
140
140
140
84
84
84
32
32
32
32
32
32
72
72
72
84
84
84
112
112
112
112
112
112
84
84
84
84
84
84
56
56
56
56
56
56
56
56
56
56
56
56
56
56
56
56
56
56
56
56
56
32
32
32
56
56
56
56
56
56
124
124
124
100
100
100
140
140
140
124
124
124
168
168
168
168
168
168
124
124
124
140
140
140
168
168
168
124
124
124
72
72
72
112
112
112
140
140
140
152
152
152
140
140
140
140
140
140
168
168
168
124
124
124
100
100
100
140
140
140
140
140
140
140
140
140
140
140
140
112
112
112
84
84
84
72
72
72
72
72
72
32
32
32
44
44
44
72
72
72
220
220
220
236
236
236
168
168
168
124
124
124
152
152
152
124
124
124
204
196
0
180
172
0
112
112
112
140
140
140
140
140
140
140
140
140
168
168
168
140
140
140
140
140
140
84
84
84
44
44
44
32
32
32
72
72
72
72
72
72
56
56
56
56
56
56
56
56
56
56
56
56
56
56
56
56
56
56
56
56
56
56
56
56
56
56
56
32
32
32
32
32
32
56
56
56
56
56
56
56
56
56
124
124
124
180
180
180
180
180
180
140
140
140
156
156
0
124
124
124
152
152
152
124
124
124
124
124
124
152
152
152
100
100
100
112
112
112
152
152
152
140
140
140
152
152
152
140
140
140
140
140
140
168
168
168
140
140
140
112
112
112
112
112
112
112
112
112
112
112
112
84
84
84
72
72
72
56
56
56
56
56
56
32
32
32
44
44
44
72
72
72
220
220
220
220
220
220
140
140
140
124
124
124
152
152
152
152
152
152
204
196
0
156
156
0
112
112
112
168
168
168
140
140
140
168
168
168
140
140
140
168
168
168
140
140
140
84
84
84
44
44
44
32
32
32
56
56
56
72
72
72
56
56
56
44
44
44
44
44
44
32
32
32
32
32
32
32
32
32
32
32
32
32
32
32
44
44
44
44
44
44
56
56
56
56
56
56
56
56
56
56
56
56
124
124
124
180
180
180
124
124
124
156
156
0
72
72
72
140
140
140
168
168
168
228
216
0
124
124
124
140
140
140
112
112
112
140
140
140
112
112
112
152
152
152
100
100
100
112
112
112
140
140
140
100
100
100
100
100
100
84
84
84
84
84
84
72
72
72
72
72
72
72
72
72
32
32
32
32
32
32
32
32
32
32
32
32
44
44
44
72
72
72
168
168
168
220
220
220
168
168
168
152
152
152
124
124
124
204
196
0
180
172
0
156
156
0
112
112
112
152
152
152
140
140
140
140
140
140
124
124
124
140
140
140
112
112
112
100
100
100
56
56
56
32
32
32
56
56
56
72
72
72
72
72
72
72
72
72
72
72
72
112
112
112
168
168
168
168
168
168
168
168
168
168
168
168
220
220
220
220
220
220
112
108
0
56
56
56
56
56
56
56
56
56
112
112
112
180
180
180
140
140
140
124
124
124
100
100
100
100
100
100
124
124
124
156
156
0
56
56
56
84
84
84
84
84
84
100
100
100
72
72
72
72
72
72
72
72
72
72
72
72
72
72
72
72
72
72
72
72
72
32
32
32
32
32
32
32
32
32
32
32
32
32
32
32
44
44
44
44
44
44
44
44
44
44
44
44
56
56
56
84
84
84
140
140
140
220
220
220
208
208
208
140
140
140
124
124
124
140
140
140
156
156
0
112
112
112
140
140
140
140
140
140
168
168
168
124
124
124
140
140
140
156
156
0
140
140
140
84
84
84
56
56
56
32
32
32
56
56
56
72
72
72
112
112
112
168
168
168
252
244
32
252
244
32
220
220
220
220
220
220
220
220
220
208
208
208
208
208
208
220
220
220
204
196
0
112
108
0
56
56
56
56
56
56
84
84
84
140
140
140
112
112
112
100
100
100
100
100
100
84
84
84
72
72
72
88
84
0
56
56
56
56
56
56
56
56
56
56
56
56
56
56
56
56
56
56
44
44
44
44
44
44
44
44
44
44
44
44
44
44
44
44
44
44
44
44
44
44
44
44
44
44
44
44
44
44
44
44
44
44
44
44
44
44
44
44
44
44
56
56
56
84
84
84
112
112
112
168
168
168
208
208
208
140
140
140
168
168
168
140
140
140
140
140
140
140
140
140
168
168
168
140
140
140
140
140
140
152
152
152
140
140
140
100
100
100
100
100
100
84
84
84
56
56
56
32
32
32
44
44
44
56
56
56
168
168
168
252
244
32
204
196
0
156
156
0
140
140
140
140
140
140
168
168
168
140
140
140
168
168
168
156
156
0
112
112
112
88
84
0
32
32
32
56
56
56
56
56
56
56
56
56
56
56
56
56
56
56
56
56
56
56
56
56
56
56
56
56
56
56
56
56
56
56
56
56
44
44
44
44
44
44
32
32
32
32
32
32
32
32
32
32
32
32
32
32
32
32
32
32
32
32
32
56
56
56
56
56
56
56
56
56
56
56
56
56
56
56
56
56
56
56
56
56
56
56
56
56
56
56
56
56
56
84
84
84
72
72
72
140
140
140
208
208
208
168
168
168
140
140
140
168
168
168
152
152
152
112
112
112
152
152
152
140
140
140
124
124
124
140
140
140
168
168
168
132
132
0
84
84
84
84
84
84
56
56
56
32
32
32
44
44
44
72
72
72
168
168
168
204
196
0
132
132
0
124
124
124
168
168
168
140
140
140
228
216
0
228
216
0
140
140
140
156
156
0
84
84
84
112
108
0
56
56
56
56
56
56
44
44
44
44
44
44
44
44
44
44
44
44
44
44
44
44
44
44
44
44
44
44
44
44
44
44
44
44
44
44
56
56
56
56
56
56
56
56
56
56
56
56
56
56
56
56
56
56
56
56
56
56
56
56
56
56
56
84
84
84
72
72
72
56
56
56
56
56
56
56
56
56
56
56
56
56
56
56
56
56
56
56
56
56
56
56
56
84
84
84
72
72
72
112
112
112
192
192
192
140
140
140
168
168
168
152
152
152
204
196
0
156
156
0
112
112
112
168
168
168
140
140
140
168
168
168
140
140
140
112
108
0
84
84
84
112
112
112
72
72
72
32
32
32
44
44
44
72
72
72
168
168
168
228
216
0
132
132
0
124
124
124
140
140
140
204
196
0
228
216
0
124
124
124
140
140
140
132
132
0
84
84
84
88
84
0
56
56
56
72
72
72
72
72
72
84
84
84
84
84
84
84
84
84
84
84
84
32
32
32
72
72
72
72
72
72
72
72
72
72
72
72
72
72
72
72
72
72
72
72
72
72
72
72
72
72
72
72
72
72
72
72
72
72
72
72
72
72
72
152
152
152
152
152
152
152
152
152
152
152
152
152
152
152
152
152
152
152
152
152
152
152
152
152
152
152
44
44
44
32
32
32
84
84
84
72
72
72
192
192
192
192
192
192
132
132
0
140
140
140
156
156
0
132
132
0
168
168
168
112
112
112
140
140
140
140
140
140
140
140
140
112
112
112
100
100
100
84
84
84
84
84
84
32
32
32
32
32
32
72
72
72
228
216
0
228
216
0
124
124
124
124
124
124
168
168
168
228
216
0
228
216
0
112
112
112
140
140
140
112
108
0
84
84
84
56
56
56
56
56
56
72
72
72
228
216
0
180
172
0
180
172
0
100
100
100
84
84
84
72
72
72
84
84
84
124
124
124
152
152
152
152
152
152
152
152
152
152
152
152
152
152
152
152
152
152
152
152
152
152
152
152
152
152
152
152
152
152
152
152
152
208
208
208
204
196
0
180
172
0
220
220
220
220
220
220
204
196
0
156
156
0
112
112
112
112
112
112
56
56
56
32
32
32
84
84
84
72
72
72
140
140
140
192
192
192
112
108
0
100
100
100
152
152
152
100
100
100
140
140
140
112
112
112
112
112
112
168
168
168
140
140
140
112
112
112
140
140
140
112
112
112
72
72
72
32
32
32
32
32
32
72
72
72
228
216
0
124
124
124
140
140
140
124
124
124
140
140
140
156
156
0
112
108
0
100
100
100
168
168
168
140
140
140
84
84
84
56
56
56
56
56
56
56
56
56
180
172
0
180
172
0
132
132
0
100
100
100
44
44
44
72
72
72
124
124
124
192
192
192
204
196
0
204
196
0
204
196
0
220
220
220
180
172
0
168
168
168
168
168
168
204
196
0
204
196
0
204
196
0
220
220
220
204
196
0
180
172
0
132
132
0
180
172
0
180
172
0
156
156
0
112
108
0
84
84
84
112
112
112
56
56
56
32
32
32
84
84
84
72
72
72
112
112
112
152
152
152
100
100
100
100
100
100
140
140
140
140
140
140
112
112
112
140
140
140
84
84
84
140
140
140
112
112
112
84
84
84
112
112
112
84
84
84
72
72
72
32
32
32
32
32
32
72
72
72
124
124
124
140
140
140
124
124
124
140
140
140
228
216
0
100
100
100
100
100
100
100
100
100
84
84
84
84
84
84
84
84
84
56
56
56
32
32
32
56
56
56
156
156
0
132
132
0
84
84
84
100
100
100
32
32
32
72
72
72
152
152
152
204
196
0
204
196
0
204
196
0
124
124
124
228
216
0
156
156
0
124
124
124
168
168
168
204
196
0
156
156
0
132
132
0
112
112
112
180
172
0
132
132
0
168
168
168
180
172
0
156
156
0
132
132
0
112
108
0
84
84
84
112
112
112
56
56
56
32
32
32
72
72
72
84
84
84
72
72
72
152
152
152
152
152
152
112
112
112
140
140
140
100
100
100
112
112
112
112
112
112
112
112
112
112
112
112
84
84
84
112
112
112
84
84
84
72
72
72
44
44
44
32
32
32
32
32
32
44
44
44
168
168
168
140
140
140
112
112
112
140
140
140
112
112
112
84
84
84
56
56
56
56
56
56
56
56
56
56
56
56
56
56
56
56
56
56
32
32
32
100
100
100
156
156
0
132
132
0
112
112
112
84
84
84
32
32
32
72
72
72
152
152
152
204
196
0
204
196
0
124
124
124
152
152
152
156
156
0
156
156
0
124
124
124
152
152
152
204
196
0
156
156
0
132
132
0
112
112
112
132
132
0
168
168
168
140
140
140
180
172
0
156
156
0
112
108
0
112
108
0
84
84
84
84
84
84
56
56
56
32
32
32
72
72
72
84
84
84
72
72
72
100
100
100
84
84
84
84
84
84
56
56
56
56
56
56
56
56
56
56
56
56
56
56
56
56
56
56
44
44
44
32
32
32
32
32
32
32
32
32
32
32
32
32
32
32
32
32
32
44
44
44
140
140
140
112
112
112
56
56
56
56
56
56
56
56
56
32
32
32
32
32
32
32
32
32
32
32
32
32
32
32
32
32
32
32
32
32
32
32
32
100
100
100
140
140
140
132
132
0
140
140
140
84
84
84
32
32
32
72
72
72
152
152
152
168
168
168
124
124
124
140
140
140
152
152
152
156
156
0
124
124
124
124
124
124
168
168
168
204
196
0
156
156
0
132
132
0
152
152
152
168
168
168
140
140
140
168
168
168
180
172
0
112
108
0
84
84
84
84
84
84
140
140
140
84
84
84
56
56
56
32
32
32
72
72
72
84
84
84
72
72
72
44
44
44
44
44
44
44
44
44
44
44
44
32
32
32
32
32
32
32
32
32
32
32
32
32
32
32
32
32
32
32
32
32
32
32
32
32
32
32
32
32
32
32
32
32
32
32
32
44
44
44
56
56
56
84
84
84
56
56
56
32
32
32
32
32
32
32
32
32
32
32
32
44
44
44
44
44
44
44
44
44
44
44
44
44
44
44
44
44
44
140
140
140
168
168
168
140
140
140
168
168
168
84
84
84
32
32
32
72
72
72
140
140
140
168
168
168
152
152
152
168
168
168
152
152
152
168
168
168
124
124
124
168
168
168
124
124
124
168
168
168
156
156
0
112
108
0
112
112
112
140
140
140
168
168
168
124
124
124
124
124
124
84
84
84
112
112
112
140
140
140
112
112
112
84
84
84
56
56
56
32
32
32
56
56
56
84
84
84
84
84
84
72
72
72
56
56
56
32
32
32
32
32
32
32
32
32
32
32
32
32
32
32
32
32
32
32
32
32
32
32
32
72
72
72
72
72
72
72
72
72
72
72
72
72
72
72
72
72
72
72
72
72
140
140
140
140
140
140
152
152
152
156
156
0
156
156
0
156
156
0
156
156
0
156
156
0
124
124
124
84
84
84
44
44
44
56
56
56
100
100
100
192
192
192
220
220
220
168
168
168
192
192
192
100
100
100
32
32
32
72
72
72
140
140
140
140
140
140
168
168
168
228
216
0
152
152
152
140
140
140
168
168
168
152
152
152
168
168
168
168
168
168
124
124
124
124
124
124
152
152
152
140
140
140
204
196
0
156
156
0
124
124
124
140
140
140
140
140
140
140
140
140
100
100
100
72
72
72
56
56
56
32
32
32
56
56
56
140
140
140
204
196
0
204
196
0
180
172
0
156
156
0
140
140
140
180
180
180
180
180
180
180
180
180
100
100
100
56
56
56
72
72
72
100
100
100
156
156
0
204
196
0
204
196
0
204
196
0
180
172
0
208
208
208
236
236
236
236
236
236
236
236
236
204
196
0
204
196
0
204
196
0
204
196
0
180
172
0
156
156
0
132
132
0
32
32
32
56
56
56
124
124
124
220
220
220
192
192
192
220
220
220
168
168
168
112
112
112
32
32
32
72
72
72
124
124
124
152
152
152
168
168
168
152
152
152
140
140
140
168
168
168
152
152
152
228
216
0
152
152
152
124
124
124
168
168
168
152
152
152
168
168
168
140
140
140
156
156
0
132
132
0
168
168
168
140
140
140
140
140
140
140
140
140
100
100
100
72
72
72
56
56
56
32
32
32
56
56
56
204
196
0
180
172
0
180
172
0
156
156
0
124
124
124
124
124
124
124
124
124
124
124
124
124
124
124
56
56
56
84
84
84
72
72
72
156
156
0
204
196
0
180
172
0
112
112
112
152
152
152
168
168
168
168
168
168
152
152
152
168
168
168
152
152
152
156
156
0
124
124
124
156
156
0
132
132
0
156
156
0
132
132
0
112
108
0
32
32
32
56
56
56
140
140
140
220
220
220
168
168
168
168
168
168
192
192
192
228
216
0
32
32
32
72
72
72
228
216
0
168
168
168
152
152
152
168
168
168
152
152
152
228
216
0
228
216
0
124
124
124
168
168
168
152
152
152
152
152
152
168
168
168
152
152
152
152
152
152
132
132
0
140
140
140
140
140
140
140
140
140
140
140
140
112
112
112
84
84
84
56
56
56
56
56
56
32
32
32
56
56
56
180
172
0
156
156
0
132
132
0
100
100
100
100
100
100
100
100
100
100
100
100
100
100
100
100
100
100
32
32
32
84
84
84
72
72
72
152
152
152
236
236
236
152
152
152
152
152
152
156
156
0
152
152
152
204
196
0
168
168
168
152
152
152
152
152
152
124
124
124
168
168
168
132
132
0
124
124
124
156
156
0
112
108
0
88
84
0
32
32
32
56
56
56
140
140
140
228
216
0
140
140
140
140
140
140
168
168
168
156
156
0
32
32
32
72
72
72
156
156
0
88
84
0
112
112
112
100
100
100
228
216
0
180
172
0
132
132
0
112
108
0
88
84
0
112
112
112
112
112
112
84
84
84
112
112
112
100
100
100
100
100
100
100
100
100
100
100
100
100
100
100
84
84
84
72
72
72
56
56
56
56
56
56
56
56
56
32
32
32
56
56
56
180
172
0
132
132
0
100
100
100
100
100
100
152
152
152
132
132
0
156
156
0
112
108
0
100
100
100
32
32
32
72
72
72
72
72
72
152
152
152
236
236
236
228
216
0
168
168
168
152
152
152
204
196
0
132
132
0
152
152
152
204
196
0
204
196
0
168
168
168
152
152
152
132
132
0
168
168
168
132
132
0
100
100
100
88
84
0
32
32
32
56
56
56
140
140
140
180
172
0
112
112
112
140
140
140
168
168
168
112
108
0
32
32
32
72
72
72
88
84
0
56
56
56
56
56
56
72
72
72
88
84
0
88
84
0
88
84
0
88
84
0
72
72
72
72
72
72
84
84
84
84
84
84
84
84
84
84
84
84
72
72
72
72
72
72
56
56
56
56
56
56
56
56
56
32
32
32
32
32
32
32
32
32
32
32
32
44
44
44
56
56
56
180
172
0
132
132
0
100
100
100
152
152
152
152
152
152
124
124
124
132
132
0
112
108
0
100
100
100
32
32
32
72
72
72
72
72
72
152
152
152
236
236
236
204
196
0
168
168
168
204
196
0
156
156
0
124
124
124
152
152
152
204
196
0
132
132
0
152
152
152
168
168
168
152
152
152
152
152
152
124
124
124
100
100
100
64
64
0
32
32
32
56
56
56
140
140
140
112
112
112
140
140
140
168
168
168
220
220
220
88
84
0
32
32
32
72
72
72
44
44
44
44
44
44
32
32
32
32
32
32
32
32
32
32
32
32
32
32
32
32
32
32
32
32
32
32
32
32
56
56
56
56
56
56
72
72
72
32
32
32
32
32
32
32
32
32
32
32
32
32
32
32
32
32
32
44
44
44
44
44
44
44
44
44
72
72
72
72
72
72
72
72
72
236
236
236
100
100
100
152
152
152
168
168
168
132
132
0
140
140
140
132
132
0
112
108
0
100
100
100
32
32
32
56
56
56
72
72
72
152
152
152
236
236
236
180
172
0
152
152
152
204
196
0
112
108
0
124
124
124
168
168
168
152
152
152
168
168
168
152
152
152
124
124
124
180
172
0
132
132
0
124
124
124
100
100
100
64
64
0
32
32
32
56
56
56
228
216
0
236
236
236
168
168
168
220
220
220
168
168
168
84
84
84
32
32
32
72
72
72
56
56
56
56
56
56
56
56
56
56
56
56
44
44
44
44
44
44
44
44
44
32
32
32
32
32
32
32
32
32
32
32
32
32
32
32
32
32
32
72
72
72
100
100
100
100
100
100
112
112
112
140
140
140
152
152
152
140
140
140
140
140
140
140
140
140
140
140
140
72
72
72
32
32
32
236
236
236
152
152
152
152
152
152
168
168
168
132
132
0
140
140
140
100
100
100
124
124
124
100
100
100
64
64
0
32
32
32
72
72
72
152
152
152
236
236
236
180
172
0
168
168
168
156
156
0
112
108
0
124
124
124
152
152
152
124
124
124
152
152
152
168
168
168
152
152
152
180
172
0
132
132
0
124
124
124
84
84
84
64
64
0
32
32
32
56
56
56
180
172
0
236
236
236
192
192
192
192
192
192
168
168
168
84
84
84
32
32
32
72
72
72
56
56
56
56
56
56
56
56
56
56
56
56
56
56
56
56
56
56
56
56
56
56
56
56
56
56
56
56
56
56
56
56
56
56
56
56
56
56
56
100
100
100
140
140
140
180
180
180
180
172
0
180
172
0
140
140
140
168
168
168
168
168
168
168
168
168
168
168
168
100
100
100
32
32
32
236
236
236
168
168
168
208
208
208
140
140
140
112
108
0
168
168
168
140
140
140
124
124
124
100
100
100
64
64
0
32
32
32
72
72
72
152
152
152
236
236
236
168
168
168
204
196
0
156
156
0
112
108
0
124
124
124
152
152
152
168
168
168
168
168
168
152
152
152
168
168
168
180
172
0
132
132
0
140
140
140
84
84
84
64
64
0
32
32
32
112
108
0
156
156
0
220
220
220
168
168
168
168
168
168
180
172
0
84
84
84
32
32
32
72
72
72
112
108
0
156
156
0
156
156
0
156
156
0
180
172
0
180
172
0
132
132
0
132
132
0
72
72
72
72
72
72
72
72
72
72
72
72
84
84
84
100
100
100
180
180
180
180
172
0
180
172
0
132
132
0
100
100
100
168
168
168
168
168
168
168
168
168
168
168
168
72
72
72
32
32
32
236
236
236
168
168
168
152
152
152
168
168
168
124
124
124
140
140
140
124
124
124
140
140
140
100
100
100
64
64
0
32
32
32
72
72
72
124
124
124
152
152
152
204
196
0
156
156
0
112
108
0
112
112
112
124
124
124
168
168
168
152
152
152
152
152
152
124
124
124
152
152
152
180
172
0
132
132
0
100
100
100
84
84
84
64
64
0
32
32
32
56
56
56
156
156
0
220
220
220
220
220
220
180
172
0
156
156
0
84
84
84
32
32
32
72
72
72
112
112
112
156
156
0
112
108
0
156
156
0
156
156
0
156
156
0
180
172
0
180
172
0
180
172
0
132
132
0
152
152
152
56
56
56
84
84
84
100
100
100
180
172
0
156
156
0
132
132
0
100
100
100
140
140
140
168
168
168
180
172
0
180
172
0
112
112
112
100
100
100
32
32
32
236
236
236
208
208
208
168
168
168
152
152
152
168
168
168
132
132
0
140
140
140
168
168
168
100
100
100
64
64
0
32
32
32
56
56
56
84
84
84
152
152
152
156
156
0
112
108
0
124
124
124
124
124
124
140
140
140
152
152
152
168
168
168
124
124
124
152
152
152
124
124
124
180
172
0
132
132
0
112
112
112
72
72
72
56
56
56
32
32
32
56
56
56
156
156
0
220
220
220
168
168
168
180
172
0
112
108
0
84
84
84
32
32
32
72
72
72
152
152
152
112
112
112
112
112
112
156
156
0
156
156
0
132
132
0
132
132
0
112
108
0
112
108
0
112
108
0
124
124
124
56
56
56
84
84
84
100
100
100
180
172
0
156
156
0
112
112
112
112
112
112
168
168
168
112
112
112
180
172
0
132
132
0
112
112
112
100
100
100
32
32
32
236
236
236
152
152
152
140
140
140
152
152
152
168
168
168
140
140
140
140
140
140
124
124
124
100
100
100
64
64
0
32
32
32
44
44
44
84
84
84
168
168
168
236
236
236
168
168
168
204
196
0
204
196
0
156
156
0
140
140
140
124
124
124
124
124
124
124
124
124
124
124
124
180
172
0
132
132
0
100
100
100
72
72
72
44
44
44
32
32
32
112
108
0
140
140
140
208
208
208
192
192
192
180
172
0
88
84
0
84
84
84
32
32
32
72
72
72
220
220
220
168
168
168
168
168
168
156
156
0
112
108
0
112
112
112
112
112
112
88
84
0
100
100
100
112
112
112
100
100
100
56
56
56
72
72
72
100
100
100
112
112
112
140
140
140
168
168
168
140
140
140
112
112
112
140
140
140
180
172
0
112
108
0
112
112
112
84
84
84
32
32
32
220
220
220
168
168
168
168
168
168
168
168
168
152
152
152
168
168
168
168
168
168
124
124
124
100
100
100
64
64
0
32
32
32
44
44
44
84
84
84
140
140
140
236
236
236
192
192
192
204
196
0
132
132
0
112
108
0
124
124
124
152
152
152
152
152
152
140
140
140
168
168
168
156
156
0
132
132
0
100
100
100
72
72
72
32
32
32
32
32
32
156
156
0
140
140
140
208
208
208
168
168
168
132
132
0
112
108
0
64
64
0
32
32
32
72
72
72
208
208
208
168
168
168
140
140
140
156
156
0
112
108
0
140
140
140
124
124
124
152
152
152
100
100
100
152
152
152
100
100
100
56
56
56
72
72
72
100
100
100
168
168
168
168
168
168
140
140
140
168
168
168
168
168
168
180
172
0
156
156
0
112
108
0
112
112
112
84
84
84
32
32
32
220
220
220
192
192
192
124
124
124
152
152
152
204
196
0
180
172
0
124
124
124
140
140
140
100
100
100
64
64
0
32
32
32
32
32
32
72
72
72
112
112
112
208
208
208
192
192
192
132
132
0
112
108
0
100
100
100
124
124
124
140
140
140
168
168
168
152
152
152
180
172
0
156
156
0
100
100
100
100
100
100
56
56
56
32
32
32
32
32
32
72
72
72
140
140
140
208
208
208
140
140
140
112
108
0
88
84
0
64
64
0
32
32
32
72
72
72
192
192
192
168
168
168
168
168
168
156
156
0
112
108
0
124
124
124
140
140
140
152
152
152
152
152
152
168
168
168
84
84
84
56
56
56
72
72
72
100
100
100
220
220
220
152
152
152
168
168
168
140
140
140
140
140
140
132
132
0
112
108
0
112
108
0
112
112
112
84
84
84
32
32
32
192
192
192
220
220
220
140
140
140
152
152
152
180
172
0
132
132
0
140
140
140
168
168
168
100
100
100
64
64
0
64
64
0
32
32
32
72
72
72
84
84
84
180
180
180
220
220
220
112
108
0
100
100
100
124
124
124
140
140
140
168
168
168
140
140
140
132
132
0
100
100
100
100
100
100
100
100
100
112
112
112
56
56
56
32
32
32
56
56
56
72
72
72
124
124
124
168
168
168
124
124
124
112
108
0
64
64
0
88
84
0
56
56
56
72
72
72
168
168
168
168
168
168
140
140
140
156
156
0
132
132
0
112
112
112
152
152
152
124
124
124
112
112
112
152
152
152
84
84
84
56
56
56
56
56
56
100
100
100
220
220
220
168
168
168
168
168
168
140
140
140
152
152
152
112
108
0
112
108
0
112
112
112
112
112
112
84
84
84
32
32
32
180
180
180
220
220
220
124
124
124
168
168
168
140
140
140
140
140
140
140
140
140
140
140
140
100
100
100
64
64
0
64
64
0
32
32
32
56
56
56
84
84
84
140
140
140
192
192
192
152
152
152
124
124
124
124
124
124
112
112
112
112
112
112
112
112
112
100
100
100
100
100
100
112
112
112
112
112
112
84
84
84
56
56
56
32
32
32
56
56
56
72
72
72
84
84
84
56
56
56
56
56
56
88
84
0
88
84
0
56
56
56
56
56
56
72
72
72
112
112
112
84
84
84
72
72
72
84
84
84
84
84
84
84
84
84
84
84
84
84
84
84
84
84
84
84
84
84
84
84
84
56
56
56
56
56
56
100
100
100
220
220
220
180
180
180
140
140
140
180
172
0
132
132
0
140
140
140
112
112
112
140
140
140
152
152
152
84
84
84
32
32
32
152
152
152
220
220
220
168
168
168
124
124
124
168
168
168
168
168
168
124
124
124
140
140
140
100
100
100
84
84
84
64
64
0
32
32
32
56
56
56
84
84
84
72
72
72
140
140
140
140
140
140
112
112
112
112
112
112
84
84
84
84
84
84
72
72
72
32
32
32
64
64
0
72
72
72
84
84
84
72
72
72
32
32
32
32
32
32
56
56
56
72
72
72
84
84
84
72
72
72
72
72
72
56
56
56
56
56
56
56
56
56
72
72
72
72
72
72
32
32
32
32
32
32
32
32
32
32
32
32
32
32
32
32
32
32
32
32
32
32
32
32
32
32
32
32
32
32
32
32
32
32
32
32
56
56
56
100
100
100
220
220
220
180
180
180
168
168
168
140
140
140
152
152
152
140
140
140
180
172
0
156
156
0
112
112
112
84
84
84
32
32
32
124
124
124
220
220
220
152
152
152
152
152
152
168
168
168
140
140
140
100
100
100
140
140
140
124
124
124
84
84
84
64
64
0
32
32
32
44
44
44
72
72
72
72
72
72
56
56
56
44
44
44
44
44
44
44
44
44
32
32
32
32
32
32
44
44
44
44
44
44
44
44
44
56
56
56
56
56
56
56
56
56
56
56
56
56
56
56
56
56
56
72
72
72
72
72
72
72
72
72
72
72
72
72
72
72
72
72
72
72
72
72
72
72
72
72
72
72
72
72
72
72
72
72
72
72
72
56
56
56
56
56
56
56
56
56
56
56
56
56
56
56
56
56
56
56
56
56
56
56
56
56
56
56
56
56
56
100
100
100
220
220
220
180
172
0
180
172
0
152
152
152
140
140
140
180
172
0
156
156
0
132
132
0
112
112
112
84
84
84
32
32
32
84
84
84
236
236
236
168
168
168
168
168
168
140
140
140
140
140
140
140
140
140
168
168
168
124
124
124
84
84
84
88
84
0
32
32
32
44
44
44
72
72
72
72
72
72
72
72
72
56
56
56
56
56
56
56
56
56
56
56
56
56
56
56
72
72
72
72
72
72
72
72
72
84
84
84
84
84
84
100
100
100
100
100
100
100
100
100
112
112
112
112
112
112
124
124
124
124
124
124
124
124
124
124
124
124
124
124
124
132
132
0
132
132
0
132
132
0
132
132
0
124
124
124
124
124
124
124
124
124
124
124
124
124
124
124
124
124
124
124
124
124
124
124
124
124
124
124
124
124
124
56
56
56
84
84
84
100
100
100
180
172
0
180
172
0
132
132
0
168
168
168
152
152
152
156
156
0
112
108
0
112
108
0
100
100
100
84
84
84
32
32
32
72
72
72
236
236
236
152
152
152
140
140
140
156
156
0
124
124
124
140
140
140
124
124
124
124
124
124
84
84
84
88
84
0
32
32
32
44
44
44
56
56
56
100
100
100
156
156
0
156
156
0
156
156
0
156
156
0
156
156
0
156
156
0
156
156
0
132
132
0
124
124
124
124
124
124
140
140
140
152
152
152
152
152
152
168
168
168
168
168
168
168
168
168
168
168
168
168
168
168
180
180
180
180
180
180
204
196
0
204
196
0
204
196
0
180
172
0
132
132
0
192
192
192
192
192
192
228
216
0
180
172
0
192
192
192
204
196
0
180
172
0
132
132
0
192
192
192
124
124
124
56
56
56
84
84
84
100
100
100
180
172
0
132
132
0
124
124
124
152
152
152
152
152
152
140
140
140
112
108
0
112
108
0
100
100
100
32
32
32
44
44
44
72
72
72
236
236
236
168
168
168
140
140
140
132
132
0
100
100
100
168
168
168
140
140
140
100
100
100
84
84
84
88
84
0
32
32
32
32
32
32
56
56
56
112
108
0
204
196
0
204
196
0
204
196
0
204
196
0
204
196
0
204
196
0
204
196
0
204
196
0
156
156
0
168
168
168
192
192
192
168
168
168
192
192
192
152
152
152
192
192
192
168
168
168
192
192
192
192
192
192
192
192
192
204
196
0
180
172
0
132
132
0
132
132
0
132
132
0
180
180
180
180
180
180
228
216
0
180
172
0
192
192
192
192
192
192
180
172
0
180
172
0
180
172
0
132
132
0
100
100
100
44
44
44
72
72
72
100
100
100
180
172
0
132
132
0
124
124
124
168
168
168
140
140
140
140
140
140
140
140
140
140
140
140
84
84
84
32
32
32
44
44
44
72
72
72
236
236
236
140
140
140
168
168
168
100
100
100
100
100
100
140
140
140
140
140
140
100
100
100
84
84
84
88
84
0
32
32
32
32
32
32
56
56
56
112
108
0
204
196
0
180
172
0
180
172
0
180
172
0
180
172
0
180
172
0
180
172
0
180
172
0
132
132
0
168
168
168
192
192
192
168
168
168
168
168
168
192
192
192
204
196
0
156
156
0
152
152
152
168
168
168
152
152
152
180
172
0
132
132
0
168
168
168
152
152
152
204
196
0
204
196
0
180
172
0
124
124
124
140
140
140
192
192
192
180
172
0
156
156
0
180
172
0
132
132
0
124
124
124
84
84
84
44
44
44
72
72
72
100
100
100
180
172
0
132
132
0
140
140
140
140
140
140
168
168
168
140
140
140
168
168
168
140
140
140
84
84
84
32
32
32
56
56
56
72
72
72
220
220
220
168
168
168
168
168
168
168
168
168
168
168
168
140
140
140
168
168
168
100
100
100
84
84
84
64
64
0
32
32
32
32
32
32
56
56
56
44
44
44
180
172
0
180
172
0
156
156
0
156
156
0
156
156
0
156
156
0
156
156
0
156
156
0
132
132
0
112
108
0
140
140
140
192
192
192
168
168
168
168
168
168
156
156
0
156
156
0
168
168
168
168
168
168
152
152
152
192
192
192
152
152
152
168
168
168
204
196
0
180
172
0
180
172
0
124
124
124
140
140
140
152
152
152
168
168
168
112
112
112
112
112
112
180
172
0
112
112
112
112
112
112
84
84
84
44
44
44
56
56
56
72
72
72
132
132
0
124
124
124
140
140
140
168
168
168
140
140
140
168
168
168
140
140
140
100
100
100
84
84
84
32
32
32
56
56
56
72
72
72
208
208
208
140
140
140
140
140
140
168
168
168
140
140
140
140
140
140
140
140
140
100
100
100
84
84
84
56
56
56
32
32
32
32
32
32
56
56
56
44
44
44
140
140
140
140
140
140
140
140
140
156
156
0
132
132
0
156
156
0
132
132
0
132
132
0
112
108
0
112
108
0
112
112
112
168
168
168
192
192
192
168
168
168
140
140
140
124
124
124
152
152
152
192
192
192
152
152
152
152
152
152
168
168
168
204
196
0
124
124
124
124
124
124
124
124
124
152
152
152
168
168
168
168
168
168
152
152
152
140
140
140
140
140
140
180
172
0
112
112
112
112
112
112
84
84
84
44
44
44
56
56
56
72
72
72
140
140
140
140
140
140
140
140
140
140
140
140
124
124
124
100
100
100
84
84
84
84
84
84
32
32
32
44
44
44
56
56
56
72
72
72
180
180
180
168
168
168
140
140
140
140
140
140
168
168
168
140
140
140
124
124
124
100
100
100
84
84
84
56
56
56
32
32
32
32
32
32
56
56
56
44
44
44
192
192
192
220
220
220
192
192
192
156
156
0
112
108
0
112
108
0
112
108
0
112
108
0
112
112
112
112
112
112
140
140
140
168
168
168
192
192
192
140
140
140
180
180
180
140
140
140
152
152
152
152
152
152
204
196
0
204
196
0
152
152
152
140
140
140
124
124
124
112
112
112
140
140
140
140
140
140
228
216
0
180
172
0
180
180
180
168
168
168
140
140
140
180
172
0
112
112
112
112
112
112
84
84
84
44
44
44
56
56
56
72
72
72
124
124
124
124
124
124
112
112
112
100
100
100
84
84
84
84
84
84
84
84
84
84
84
84
32
32
32
44
44
44
56
56
56
72
72
72
152
152
152
152
152
152
168
168
168
140
140
140
140
140
140
140
140
140
112
112
112
100
100
100
84
84
84
56
56
56
32
32
32
32
32
32
56
56
56
44
44
44
180
180
180
220
220
220
208
208
208
132
132
0
112
112
112
112
112
112
112
112
112
112
112
112
124
124
124
152
152
152
140
140
140
156
156
0
168
168
168
180
180
180
168
168
168
140
140
140
180
180
180
204
196
0
168
168
168
140
140
140
140
140
140
168
168
168
140
140
140
140
140
140
152
152
152
180
180
180
180
172
0
132
132
0
168
168
168
152
152
152
152
152
152
112
112
112
112
112
112
112
112
112
84
84
84
32
32
32
56
56
56
72
72
72
56
56
56
32
32
32
84
84
84
84
84
84
84
84
84
84
84
84
84
84
84
84
84
84
32
32
32
56
56
56
72
72
72
72
72
72
124
124
124
100
100
100
100
100
100
100
100
100
100
100
100
100
100
100
100
100
100
84
84
84
84
84
84
56
56
56
32
32
32
32
32
32
56
56
56
44
44
44
168
168
168
220
220
220
208
208
208
112
112
112
124
124
124
140
140
140
140
140
140
180
172
0
180
172
0
132
132
0
180
180
180
140
140
140
140
140
140
180
180
180
152
152
152
168
168
168
180
180
180
168
168
168
140
140
140
180
172
0
168
168
168
180
172
0
168
168
168
152
152
152
180
180
180
180
172
0
132
132
0
152
152
152
168
168
168
168
168
168
152
152
152
180
172
0
180
172
0
112
112
112
84
84
84
32
32
32
56
56
56
84
84
84
84
84
84
84
84
84
44
44
44
44
44
44
32
32
32
32
32
32
44
44
44
32
32
32
44
44
44
56
56
56
72
72
72
56
56
56
56
56
56
56
56
56
56
56
56
56
56
56
56
56
56
56
56
56
56
56
56
56
56
56
56
56
56
56
56
56
32
32
32
32
32
32
44
44
44
44
44
44
140
140
140
208
208
208
180
180
180
140
140
140
180
180
180
152
152
152
180
180
180
180
172
0
180
172
0
112
108
0
140
140
140
180
180
180
140
140
140
180
180
180
152
152
152
140
140
140
140
140
140
228
216
0
180
172
0
112
108
0
152
152
152
168
168
168
192
192
192
152
152
152
168
168
168
152
152
152
152
152
152
168
168
168
152
152
152
140
140
140
140
140
140
180
180
180
124
124
124
112
112
112
84
84
84
32
32
32
56
56
56
72
72
72
72
72
72
72
72
72
72
72
72
56
56
56
56
56
56
44
44
44
44
44
44
44
44
44
44
44
44
56
56
56
72
72
72
56
56
56
56
56
56
32
32
32
32
32
32
32
32
32
32
32
32
32
32
32
32
32
32
32
32
32
32
32
32
32
32
32
32
32
32
32
32
32
32
32
32
44
44
44
140
140
140
152
152
152
112
112
112
112
112
112
112
112
112
112
112
112
112
112
112
132
132
0
112
108
0
112
108
0
140
140
140
168
168
168
112
112
112
124
124
124
140
140
140
180
180
180
228
216
0
180
172
0
112
108
0
168
168
168
140
140
140
168
168
168
152
152
152
140
140
140
140
140
140
180
180
180
124
124
124
140
140
140
140
140
140
204
196
0
152
152
152
140
140
140
152
152
152
112
112
112
84
84
84
32
32
32
56
56
56
72
72
72
124
124
124
168
168
168
204
196
0
204
196
0
204
196
0
156
156
0
140
140
140
100
100
100
72
72
72
72
72
72
84
84
84
56
56
56
56
56
56
44
44
44
44
44
44
44
44
44
44
44
44
44
44
44
44
44
44
44
44
44
44
44
44
44
44
44
44
44
44
44
44
44
44
44
44
56
56
56
84
84
84
72
72
72
56
56
56
44
44
44
44
44
44
44
44
44
44
44
44
44
44
44
44
44
44
84
84
84
112
112
112
112
112
112
124
124
124
140
140
140
180
172
0
180
180
180
112
108
0
112
108
0
124
124
124
124
124
124
112
112
112
100
100
100
124
124
124
140
140
140
140
140
140
140
140
140
124
124
124
124
124
124
180
180
180
124
124
124
100
100
100
124
124
124
124
124
124
100
100
100
84
84
84
32
32
32
56
56
56
72
72
72
168
168
168
204
196
0
228
216
0
204
196
0
204
196
0
204
196
0
204
196
0
180
172
0
156
156
0
168
168
168
140
140
140
112
112
112
100
100
100
84
84
84
72
72
72
56
56
56
56
56
56
56
56
56
56
56
56
56
56
56
56
56
56
56
56
56
56
56
56
56
56
56
56
56
56
72
72
72
84
84
84
72
72
72
72
72
72
56
56
56
56
56
56
56
56
56
56
56
56
56
56
56
56
56
56
44
44
44
72
72
72
84
84
84
84
84
84
84
84
84
84
84
84
84
84
84
84
84
84
84
84
84
84
84
84
84
84
84
84
84
84
84
84
84
84
84
84
84
84
84
84
84
84
84
84
84
84
84
84
84
84
84
84
84
84
84
84
84
84
84
84
84
84
84
84
84
84
84
84
84
32
32
32
44
44
44
56
56
56
72
72
72
168
168
168
204
196
0
228
216
0
180
172
0
140
140
140
140
140
140
140
140
140
152
152
152
168
168
168
192
192
192
180
172
0
228
216
0
228
216
0
204
196
0
204
196
0
204
196
0
180
172
0
180
172
0
180
172
0
180
172
0
180
172
0
132
132
0
112
112
112
124
124
124
112
112
112
100
100
100
100
100
100
84
84
84
84
84
84
72
72
72
72
72
72
72
72
72
72
72
72
72
72
72
56
56
56
56
56
56
44
44
44
44
44
44
44
44
44
44
44
44
44
44
44
32
32
32
32
32
32
44
44
44
44
44
44
44
44
44
44
44
44
44
44
44
44
44
44
32
32
32
32
32
32
32
32
32
32
32
32
32
32
32
32
32
32
32
32
32
32
32
32
32
32
32
32
32
32
32
32
32
44
44
44
56
56
56
72
72
72
72
72
72
168
168
168
192
192
192
152
152
152
180
172
0
152
152
152
192
192
192
192
192
192
180
180
180
192
192
192
180
180
180
192
192
192
168
168
168
140
140
140
140
140
140
156
156
0
156
156
0
156
156
0
156
156
0
156
156
0
156
156
0
156
156
0
156
156
0
132
132
0
140
140
140
140
140
140
192
192
192
168
168
168
168
168
168
168
168
168
168
168
168
168
168
168
140
140
140
72
72
72
84
84
84
72
72
72
56
56
56
56
56
56
56
56
56
56
56
56
56
56
56
56
56
56
56
56
56
56
56
56
56
56
56
44
44
44
44
44
44
44
44
44
44
44
44
44
44
44
44
44
44
44
44
44
44
44
44
44
44
44
44
44
44
44
44
44
44
44
44
44
44
44
44
44
44
44
44
44
56
56
56
56
56
56
72
72
72
72
72
72
72
72
72
168
168
168
192
192
192
192
192
192
152
152
152
192
192
192
180
180
180
168
168
168
168
168
168
152
152
152
192
192
192
168
168
168
180
180
180
192
192
192
180
180
180
168
168
168
140
140
140
140
140
140
140
140
140
140
140
140
140
140
140
132
132
0
132
132
0
132
132
0
140
140
140
152
152
152
192
192
192
220
220
220
228
216
0
228
216
0
140
140
140
192
192
192
124
124
124
56
56
56
72
72
72
84
84
84
72
72
72
72
72
72
72
72
72
56
56
56
56
56
56
56
56
56
56
56
56
56
56
56
56
56
56
56
56
56
56
56
56
56
56
56
56
56
56
56
56
56
56
56
56
56
56
56
56
56
56
56
56
56
56
56
56
56
56
56
56
56
56
56
56
56
56
56
56
56
56
56
72
72
72
72
72
72
72
72
72
84
84
84
72
72
72
168
168
168
180
180
180
208
208
208
192
192
192
180
180
180
192
192
192
228
216
0
180
172
0
132
132
0
180
180
180
180
180
180
208
208
208
168
168
168
208
208
208
192
192
192
192
192
192
204
196
0
156
156
0
152
152
152
140
140
140
140
140
140
140
140
140
140
140
140
140
140
140
180
180
180
168
168
168
140
140
140
228
216
0
132
132
0
140
140
140
124
124
124
100
100
100
32
32
32
56
56
56
84
84
84
72
72
72
132
132
0
180
172
0
180
172
0
180
172
0
100
100
100
72
72
72
72
72
72
72
72
72
84
84
84
84
84
84
84
84
84
112
108
0
180
172
0
156
156
0
132
132
0
112
108
0
112
108
0
88
84
0
72
72
72
72
72
72
72
72
72
72
72
72
72
72
72
84
84
84
84
84
84
84
84
84
84
84
84
72
72
72
168
168
168
192
192
192
192
192
192
168
168
168
140
140
140
124
124
124
180
172
0
132
132
0
88
84
0
192
192
192
168
168
168
192
192
192
208
208
208
168
168
168
168
168
168
168
168
168
208
208
208
192
192
192
192
192
192
168
168
168
192
192
192
168
168
168
208
208
208
168
168
168
124
124
124
168
168
168
208
208
208
168
168
168
140
140
140
140
140
140
100
100
100
84
84
84
32
32
32
56
56
56
72
72
72
72
72
72
180
172
0
132
132
0
132
132
0
132
132
0
100
100
100
220
220
220
220
220
220
180
180
180
84
84
84
84
84
84
156
156
0
204
196
0
204
196
0
204
196
0
156
156
0
124
124
124
204
196
0
168
168
168
168
168
168
208
208
208
204
196
0
180
180
180
152
152
152
124
124
124
72
72
72
72
72
72
84
84
84
72
72
72
168
168
168
140
140
140
112
112
112
100
100
100
100
100
100
100
100
100
132
132
0
88
84
0
112
112
112
124
124
124
112
112
112
100
100
100
112
112
112
124
124
124
112
112
112
100
100
100
100
100
100
100
100
100
112
112
112
124
124
124
140
140
140
168
168
168
140
140
140
124
124
124
100
100
100
100
100
100
100
100
100
100
100
100
100
100
100
100
100
100
84
84
84
84
84
84
56
56
56
32
32
32
56
56
56
72
72
72
100
100
100
132
132
0
132
132
0
112
108
0
100
100
100
180
180
180
180
180
180
180
180
180
100
100
100
84
84
84
140
140
140
124
124
124
124
124
124
124
124
124
124
124
124
124
124
124
168
168
168
168
168
168
140
140
140
204
196
0
156
156
0
112
112
112
168
168
168
220
220
220
152
152
152
32
32
32
84
84
84
72
72
72
140
140
140
100
100
100
72
72
72
56
56
56
56
56
56
56
56
56
56
56
56
56
56
56
56
56
56
56
56
56
56
56
56
56
56
56
56
56
56
56
56
56
56
56
56
56
56
56
56
56
56
56
56
56
56
56
56
56
56
56
56
56
56
56
56
56
56
56
56
56
56
56
56
56
56
56
56
56
56
56
56
56
56
56
56
56
56
56
56
56
56
56
56
56
56
56
56
56
56
32
32
32
44
44
44
72
72
72
180
180
180
132
132
0
112
108
0
100
100
100
152
152
152
100
100
100
152
152
152
140
140
140
100
100
100
72
72
72
140
140
140
140
140
140
168
168
168
140
140
140
168
168
168
204
196
0
204
196
0
168
168
168
168
168
168
156
156
0
132
132
0
112
112
112
140
140
140
168
168
168
84
84
84
32
32
32
84
84
84
72
72
72
56
56
56
32
32
32
32
32
32
32
32
32
32
32
32
32
32
32
32
32
32
32
32
32
32
32
32
32
32
32
32
32
32
32
32
32
32
32
32
32
32
32
32
32
32
32
32
32
32
32
32
32
32
32
32
32
32
32
32
32
32
32
32
32
32
32
32
32
32
32
32
32
32
32
32
32
32
32
32
32
32
32
32
32
32
32
32
32
32
32
32
32
32
32
32
32
32
32
32
32
32
32
44
44
44
72
72
72
56
56
56
64
64
0
88
84
0
84
84
84
100
100
100
100
100
100
100
100
100
100
100
100
100
100
100
72
72
72
100
100
100
100
100
100
152
152
152
168
168
168
204
196
0
204
196
0
156
156
0
124
124
124
168
168
168
132
132
0
112
112
112
112
112
112
140
140
140
140
140
140
84
84
84
32
32
32
84
84
84
84
84
84
72
72
72
56
56
56
56
56
56
56
56
56
44
44
44
44
44
44
44
44
44
44
44
44
44
44
44
44
44
44
44
44
44
44
44
44
44
44
44
44
44
44
44
44
44
44
44
44
44
44
44
44
44
44
44
44
44
44
44
44
44
44
44
44
44
44
44
44
44
44
44
44
44
44
44
44
44
44
44
44
44
44
44
44
44
44
44
44
44
44
44
44
44
44
44
44
44
44
44
44
44
44
44
44
44
56
56
56
72
72
72
64
64
0
64
64
0
56
56
56
32
32
32
32
32
32
32
32
32
32
32
32
32
32
32
56
56
56
72
72
72
84
84
84
84
84
84
112
108
0
88
84
0
84
84
84
84
84
84
84
84
84
112
108
0
88
84
0
84
84
84
84
84
84
84
84
84
84
84
84
84
84
84
32
32
32
84
84
84
84
84
84
84
84
84
84
84
84
84
84
84
72
72
72
72
72
72
72
72
72
72
72
72
72
72
72
72
72
72
72
72
72
72
72
72
56
56
56
56
56
56
56
56
56
56
56
56
56
56
56
56
56
56
56
56
56
56
56
56
56
56
56
56
56
56
56
56
56
56
56
56
56
56
56
56
56
56
56
56
56
56
56
56
56
56
56
56
56
56
56
56
56
56
56
56
56
56
56
56
56
56
56
56
56
56
56
56
56
56
56
72
72
72
72
72
72
72
72
72
72
72
72
56
56
56
56
56
56
56
56
56
56
56
56
56
56
56
56
56
56
72
72
72
72
72
72
32
32
32
32
32
32
32
32
32
32
32
32
32
32
32
32
32
32
32
32
32
32
32
32
32
32
32
32
32
32
32
32
32
32
32
32
32
32
32
32
32
32
84
84
84
56
56
56
56
56
56
56
56
56
56
56
56
56
56
56
56
56
56
56
56
56
56
56
56
56
56
56
56
56
56
56
56
56
56
56
56
56
56
56
56
56
56
56
56
56
56
56
56
56
56
56
56
56
56
56
56
56
56
56
56
56
56
56
56
56
56
56
56
56
56
56
56
56
56
56
56
56
56
56
56
56
56
56
56
56
56
56
56
56
56
56
56
56
56
56
56
56
56
56
56
56
56
56
56
56
56
56
56
56
56
56
56
56
56
56
56
56
56
56
56
56
56
56
56
56
56
56
56
56
56
56
56
56
56
56
56
56
56
56
56
56
56
56
56
56
56
56
56
56
56
56
56
56
56
56
56
56
56
56
56
56
56
56
56
56
56
56
56
56
56
56
56
56
56
56
56
56
56
56
56
56
56
56
56
56
56
56
56
56
56
56
56
