P3
# Created by GIMP version 2.10.30 PNM plug-in
64 64
255
56
56
56
56
56
56
56
56
56
56
56
56
56
56
56
56
56
56
56
56
56
56
56
56
56
56
56
56
56
56
56
56
56
56
56
56
56
56
56
56
56
56
56
56
56
56
56
56
56
56
56
56
56
56
56
56
56
56
56
56
56
56
56
56
56
56
56
56
56
56
56
56
56
56
56
56
56
56
56
56
56
56
56
56
56
56
56
56
56
56
56
56
56
56
56
56
56
56
56
56
56
56
56
56
56
56
56
56
56
56
56
56
56
56
56
56
56
56
56
56
56
56
56
56
56
56
56
56
56
56
56
56
56
56
56
56
56
56
56
56
56
56
56
56
56
56
56
56
56
56
56
56
56
56
56
56
56
56
56
56
56
56
56
56
56
56
56
56
56
56
56
56
56
56
56
56
56
56
56
56
56
56
56
56
56
56
56
56
56
56
56
56
84
84
84
56
56
56
84
84
84
72
72
72
72
72
72
72
72
72
72
72
72
72
72
72
84
84
84
72
72
72
72
72
72
72
72
72
72
72
72
72
72
72
72
72
72
84
84
84
72
72
72
56
56
56
72
72
72
72
72
72
72
72
72
72
72
72
72
72
72
72
72
72
72
72
72
84
84
84
84
84
84
84
84
84
84
84
84
84
84
84
84
84
84
72
72
72
72
72
72
72
72
72
72
72
72
72
72
72
72
72
72
72
72
72
72
72
72
72
72
72
84
84
84
84
84
84
84
84
84
84
84
84
84
84
84
84
84
84
84
84
84
72
72
72
72
72
72
72
72
72
72
72
72
56
56
56
56
56
56
56
56
56
72
72
72
72
72
72
84
84
84
84
84
84
72
72
72
72
72
72
72
72
72
72
72
72
72
72
72
56
56
56
56
56
56
236
0
0
236
0
0
212
0
0
212
0
0
212
0
0
212
0
0
212
0
0
212
0
0
212
0
0
212
0
0
212
0
0
164
0
0
72
72
72
72
72
72
84
84
84
236
0
0
236
0
0
212
0
0
212
0
0
212
0
0
212
0
0
212
0
0
212
0
0
212
0
0
212
0
0
212
0
0
212
0
0
212
0
0
212
0
0
212
0
0
212
0
0
212
0
0
212
0
0
212
0
0
212
0
0
164
0
0
72
72
72
56
56
56
84
84
84
236
0
0
236
0
0
236
0
0
236
0
0
224
0
0
224
0
0
224
0
0
224
0
0
224
0
0
224
0
0
212
0
0
212
0
0
212
0
0
212
0
0
212
0
0
200
0
0
200
0
0
200
0
0
200
0
0
188
0
0
188
0
0
188
0
0
164
0
0
72
72
72
72
72
72
236
0
0
200
0
0
176
0
0
176
0
0
212
0
0
136
0
0
164
0
0
212
0
0
136
0
0
200
0
0
164
0
0
100
0
0
44
44
44
72
72
72
84
84
84
236
0
0
188
0
0
136
0
0
188
0
0
136
0
0
188
0
0
136
0
0
188
0
0
124
0
0
188
0
0
152
0
0
188
0
0
152
0
0
188
0
0
124
0
0
188
0
0
124
0
0
188
0
0
200
0
0
164
0
0
112
0
0
44
44
44
72
72
72
56
56
56
212
0
0
164
0
0
200
0
0
176
0
0
200
0
0
176
0
0
176
0
0
200
0
0
112
0
0
200
0
0
124
0
0
200
0
0
176
0
0
200
0
0
136
0
0
176
0
0
164
0
0
124
0
0
200
0
0
152
0
0
200
0
0
164
0
0
124
0
0
44
44
44
72
72
72
212
0
0
164
0
0
124
0
0
164
0
0
136
0
0
164
0
0
152
0
0
112
0
0
164
0
0
136
0
0
112
0
0
100
0
0
44
44
44
72
72
72
84
84
84
212
0
0
188
0
0
136
0
0
136
0
0
164
0
0
136
0
0
112
0
0
164
0
0
164
0
0
112
0
0
152
0
0
164
0
0
164
0
0
112
0
0
152
0
0
164
0
0
112
0
0
164
0
0
152
0
0
112
0
0
88
0
0
44
44
44
72
72
72
84
84
84
212
0
0
164
0
0
164
0
0
124
0
0
100
0
0
164
0
0
136
0
0
112
0
0
136
0
0
164
0
0
124
0
0
136
0
0
164
0
0
164
0
0
136
0
0
164
0
0
124
0
0
136
0
0
164
0
0
88
0
0
164
0
0
112
0
0
100
0
0
44
44
44
72
72
72
212
0
0
124
0
0
164
0
0
164
0
0
112
0
0
152
0
0
164
0
0
164
0
0
112
0
0
164
0
0
88
0
0
64
0
0
44
44
44
72
72
72
84
84
84
212
0
0
136
0
0
188
0
0
164
0
0
136
0
0
164
0
0
112
0
0
164
0
0
136
0
0
164
0
0
112
0
0
164
0
0
112
0
0
136
0
0
124
0
0
164
0
0
112
0
0
152
0
0
124
0
0
112
0
0
88
0
0
44
44
44
72
72
72
72
72
72
212
0
0
112
0
0
164
0
0
100
0
0
136
0
0
164
0
0
100
0
0
164
0
0
112
0
0
164
0
0
124
0
0
164
0
0
136
0
0
164
0
0
100
0
0
164
0
0
152
0
0
124
0
0
164
0
0
124
0
0
164
0
0
112
0
0
76
0
0
44
44
44
72
72
72
200
0
0
164
0
0
124
0
0
136
0
0
152
0
0
124
0
0
164
0
0
112
0
0
136
0
0
164
0
0
112
0
0
64
0
0
44
44
44
72
72
72
84
84
84
188
0
0
188
0
0
136
0
0
164
0
0
136
0
0
136
0
0
152
0
0
164
0
0
112
0
0
136
0
0
112
0
0
164
0
0
136
0
0
112
0
0
152
0
0
124
0
0
136
0
0
112
0
0
164
0
0
112
0
0
64
0
0
44
44
44
56
56
56
72
72
72
188
0
0
112
0
0
164
0
0
124
0
0
164
0
0
136
0
0
100
0
0
164
0
0
112
0
0
112
0
0
164
0
0
164
0
0
112
0
0
164
0
0
136
0
0
164
0
0
164
0
0
124
0
0
164
0
0
88
0
0
164
0
0
136
0
0
76
0
0
44
44
44
72
72
72
188
0
0
124
0
0
164
0
0
164
0
0
112
0
0
164
0
0
152
0
0
112
0
0
152
0
0
112
0
0
88
0
0
64
0
0
44
44
44
72
72
72
72
72
72
188
0
0
200
0
0
136
0
0
164
0
0
112
0
0
164
0
0
112
0
0
164
0
0
112
0
0
164
0
0
112
0
0
152
0
0
136
0
0
112
0
0
124
0
0
164
0
0
112
0
0
152
0
0
124
0
0
112
0
0
88
0
0
44
44
44
56
56
56
72
72
72
188
0
0
152
0
0
164
0
0
100
0
0
136
0
0
164
0
0
124
0
0
136
0
0
112
0
0
136
0
0
124
0
0
164
0
0
136
0
0
164
0
0
100
0
0
164
0
0
124
0
0
136
0
0
164
0
0
124
0
0
164
0
0
112
0
0
64
0
0
44
44
44
72
72
72
188
0
0
164
0
0
112
0
0
136
0
0
88
0
0
112
0
0
124
0
0
88
0
0
112
0
0
136
0
0
112
0
0
64
0
0
44
44
44
56
56
56
84
84
84
152
0
0
152
0
0
112
0
0
112
0
0
76
0
0
136
0
0
112
0
0
112
0
0
136
0
0
112
0
0
76
0
0
112
0
0
136
0
0
112
0
0
136
0
0
112
0
0
76
0
0
136
0
0
112
0
0
112
0
0
64
0
0
44
44
44
56
56
56
72
72
72
188
0
0
112
0
0
112
0
0
88
0
0
112
0
0
112
0
0
76
0
0
136
0
0
76
0
0
112
0
0
88
0
0
136
0
0
76
0
0
112
0
0
76
0
0
136
0
0
100
0
0
76
0
0
112
0
0
136
0
0
112
0
0
136
0
0
64
0
0
44
44
44
72
72
72
124
0
0
100
0
0
100
0
0
100
0
0
64
0
0
64
0
0
64
0
0
64
0
0
64
0
0
64
0
0
64
0
0
64
0
0
44
44
44
56
56
56
72
72
72
124
0
0
100
0
0
100
0
0
88
0
0
88
0
0
88
0
0
88
0
0
88
0
0
88
0
0
88
0
0
88
0
0
88
0
0
64
0
0
64
0
0
64
0
0
64
0
0
64
0
0
64
0
0
64
0
0
64
0
0
64
0
0
44
44
44
56
56
56
72
72
72
136
0
0
100
0
0
100
0
0
100
0
0
100
0
0
100
0
0
100
0
0
100
0
0
100
0
0
100
0
0
100
0
0
88
0
0
88
0
0
88
0
0
88
0
0
88
0
0
88
0
0
88
0
0
88
0
0
88
0
0
64
0
0
64
0
0
64
0
0
44
44
44
72
72
72
72
72
72
44
44
44
44
44
44
44
44
44
44
44
44
44
44
44
44
44
44
44
44
44
44
44
44
32
32
32
32
32
32
32
32
32
44
44
44
56
56
56
84
84
84
72
72
72
44
44
44
44
44
44
44
44
44
44
44
44
44
44
44
32
32
32
32
32
32
32
32
32
32
32
32
32
32
32
44
44
44
44
44
44
32
32
32
32
32
32
32
32
32
32
32
32
44
44
44
44
44
44
44
44
44
44
44
44
44
44
44
72
72
72
84
84
84
56
56
56
44
44
44
44
44
44
44
44
44
44
44
44
44
44
44
44
44
44
44
44
44
44
44
44
44
44
44
44
44
44
44
44
44
32
32
32
32
32
32
32
32
32
32
32
32
32
32
32
44
44
44
44
44
44
44
44
44
44
44
44
44
44
44
44
44
44
44
44
44
84
84
84
56
56
56
56
56
56
56
56
56
56
56
56
72
72
72
72
72
72
72
72
72
72
72
72
56
56
56
56
56
56
56
56
56
56
56
56
56
56
56
72
72
72
56
56
56
72
72
72
72
72
72
72
72
72
72
72
72
72
72
72
72
72
72
72
72
72
56
56
56
56
56
56
56
56
56
84
84
84
72
72
72
72
72
72
72
72
72
56
56
56
56
56
56
72
72
72
72
72
72
72
72
72
72
72
72
72
72
72
72
72
72
84
84
84
56
56
56
72
72
72
84
84
84
84
84
84
84
84
84
84
84
84
92
92
92
100
100
100
100
100
100
92
92
92
84
84
84
84
84
84
72
72
72
72
72
72
64
64
64
56
56
56
64
64
64
84
84
84
56
56
56
84
84
84
72
72
72
72
72
72
72
72
72
84
84
84
56
56
56
236
0
0
212
0
0
212
0
0
212
0
0
188
0
0
188
0
0
188
0
0
188
0
0
188
0
0
188
0
0
188
0
0
188
0
0
188
0
0
188
0
0
188
0
0
164
0
0
72
72
72
84
84
84
72
72
72
236
0
0
236
0
0
212
0
0
212
0
0
212
0
0
212
0
0
212
0
0
212
0
0
200
0
0
200
0
0
200
0
0
200
0
0
200
0
0
200
0
0
200
0
0
188
0
0
188
0
0
188
0
0
188
0
0
188
0
0
188
0
0
188
0
0
188
0
0
188
0
0
188
0
0
188
0
0
188
0
0
188
0
0
188
0
0
188
0
0
188
0
0
188
0
0
188
0
0
164
0
0
72
72
72
64
64
64
84
84
84
236
0
0
236
0
0
212
0
0
212
0
0
212
0
0
212
0
0
212
0
0
212
0
0
176
0
0
136
0
0
136
0
0
176
0
0
152
0
0
124
0
0
176
0
0
124
0
0
152
0
0
136
0
0
176
0
0
100
0
0
176
0
0
136
0
0
164
0
0
64
0
0
56
56
56
72
72
72
84
84
84
236
0
0
112
0
0
176
0
0
200
0
0
124
0
0
188
0
0
100
0
0
136
0
0
188
0
0
136
0
0
136
0
0
200
0
0
152
0
0
164
0
0
136
0
0
124
0
0
136
0
0
164
0
0
136
0
0
164
0
0
136
0
0
164
0
0
124
0
0
200
0
0
100
0
0
200
0
0
136
0
0
152
0
0
188
0
0
200
0
0
152
0
0
200
0
0
164
0
0
64
0
0
56
56
56
72
72
72
56
56
56
236
0
0
200
0
0
124
0
0
176
0
0
136
0
0
176
0
0
136
0
0
176
0
0
136
0
0
164
0
0
136
0
0
164
0
0
124
0
0
136
0
0
136
0
0
100
0
0
164
0
0
136
0
0
100
0
0
136
0
0
164
0
0
164
0
0
112
0
0
64
0
0
44
44
44
72
72
72
72
72
72
212
0
0
176
0
0
112
0
0
164
0
0
124
0
0
164
0
0
164
0
0
136
0
0
164
0
0
100
0
0
164
0
0
112
0
0
100
0
0
136
0
0
164
0
0
124
0
0
164
0
0
124
0
0
164
0
0
100
0
0
164
0
0
164
0
0
136
0
0
100
0
0
164
0
0
136
0
0
164
0
0
112
0
0
136
0
0
164
0
0
112
0
0
164
0
0
112
0
0
64
0
0
56
56
56
72
72
72
84
84
84
200
0
0
176
0
0
124
0
0
164
0
0
136
0
0
124
0
0
164
0
0
152
0
0
112
0
0
164
0
0
164
0
0
136
0
0
152
0
0
100
0
0
164
0
0
124
0
0
136
0
0
136
0
0
152
0
0
100
0
0
164
0
0
136
0
0
112
0
0
64
0
0
44
44
44
56
56
56
72
72
72
212
0
0
112
0
0
164
0
0
136
0
0
152
0
0
136
0
0
136
0
0
100
0
0
136
0
0
136
0
0
112
0
0
164
0
0
136
0
0
100
0
0
164
0
0
136
0
0
124
0
0
100
0
0
124
0
0
136
0
0
136
0
0
164
0
0
88
0
0
136
0
0
124
0
0
164
0
0
112
0
0
164
0
0
112
0
0
164
0
0
164
0
0
112
0
0
112
0
0
64
0
0
44
44
44
64
64
64
72
72
72
200
0
0
124
0
0
164
0
0
164
0
0
164
0
0
124
0
0
164
0
0
124
0
0
164
0
0
136
0
0
136
0
0
164
0
0
136
0
0
124
0
0
124
0
0
136
0
0
124
0
0
164
0
0
152
0
0
100
0
0
164
0
0
100
0
0
112
0
0
64
0
0
44
44
44
56
56
56
72
72
72
212
0
0
112
0
0
164
0
0
164
0
0
124
0
0
164
0
0
100
0
0
136
0
0
164
0
0
100
0
0
112
0
0
164
0
0
100
0
0
136
0
0
164
0
0
124
0
0
136
0
0
124
0
0
164
0
0
100
0
0
164
0
0
136
0
0
88
0
0
164
0
0
100
0
0
164
0
0
112
0
0
136
0
0
112
0
0
164
0
0
112
0
0
164
0
0
112
0
0
64
0
0
44
44
44
56
56
56
72
72
72
200
0
0
176
0
0
124
0
0
164
0
0
124
0
0
164
0
0
152
0
0
124
0
0
112
0
0
164
0
0
100
0
0
164
0
0
112
0
0
136
0
0
124
0
0
152
0
0
100
0
0
164
0
0
100
0
0
136
0
0
164
0
0
164
0
0
112
0
0
64
0
0
44
44
44
72
72
72
84
84
84
212
0
0
176
0
0
88
0
0
164
0
0
124
0
0
164
0
0
136
0
0
100
0
0
136
0
0
88
0
0
136
0
0
112
0
0
100
0
0
164
0
0
136
0
0
124
0
0
88
0
0
124
0
0
164
0
0
100
0
0
136
0
0
88
0
0
136
0
0
164
0
0
100
0
0
136
0
0
164
0
0
112
0
0
136
0
0
164
0
0
112
0
0
164
0
0
112
0
0
64
0
0
32
32
32
56
56
56
72
72
72
176
0
0
124
0
0
164
0
0
164
0
0
88
0
0
164
0
0
124
0
0
136
0
0
112
0
0
176
0
0
100
0
0
112
0
0
76
0
0
124
0
0
112
0
0
152
0
0
112
0
0
152
0
0
112
0
0
88
0
0
152
0
0
112
0
0
112
0
0
64
0
0
44
44
44
72
72
72
84
84
84
176
0
0
164
0
0
112
0
0
136
0
0
88
0
0
112
0
0
152
0
0
112
0
0
136
0
0
100
0
0
112
0
0
136
0
0
88
0
0
112
0
0
152
0
0
112
0
0
152
0
0
100
0
0
136
0
0
112
0
0
136
0
0
136
0
0
88
0
0
152
0
0
112
0
0
112
0
0
136
0
0
76
0
0
112
0
0
152
0
0
112
0
0
136
0
0
112
0
0
64
0
0
32
32
32
64
64
64
84
84
84
176
0
0
164
0
0
124
0
0
112
0
0
88
0
0
112
0
0
152
0
0
112
0
0
64
0
0
76
0
0
76
0
0
76
0
0
76
0
0
76
0
0
76
0
0
76
0
0
76
0
0
76
0
0
76
0
0
76
0
0
76
0
0
64
0
0
64
0
0
64
0
0
56
56
56
72
72
72
84
84
84
164
0
0
100
0
0
100
0
0
100
0
0
100
0
0
100
0
0
100
0
0
100
0
0
100
0
0
100
0
0
100
0
0
100
0
0
100
0
0
100
0
0
88
0
0
88
0
0
88
0
0
88
0
0
88
0
0
88
0
0
88
0
0
88
0
0
88
0
0
88
0
0
88
0
0
88
0
0
88
0
0
88
0
0
88
0
0
88
0
0
88
0
0
88
0
0
64
0
0
64
0
0
32
32
32
72
72
72
56
56
56
164
0
0
100
0
0
64
0
0
100
0
0
64
0
0
64
0
0
100
0
0
64
0
0
44
44
44
44
44
44
44
44
44
32
32
32
44
44
44
44
44
44
44
44
44
32
32
32
32
32
32
32
32
32
44
44
44
44
44
44
44
44
44
32
32
32
32
32
32
44
44
44
56
56
56
72
72
72
56
56
56
72
72
72
56
56
56
52
52
52
44
44
44
44
44
44
44
44
44
44
44
44
44
44
44
44
44
44
52
52
52
52
52
52
56
56
56
56
56
56
52
52
52
44
44
44
44
44
44
44
44
44
32
32
32
32
32
32
32
32
32
32
32
32
32
32
32
44
44
44
44
44
44
44
44
44
32
32
32
32
32
32
32
32
32
32
32
32
44
44
44
44
44
44
44
44
44
44
44
44
44
44
44
56
56
56
72
72
72
84
84
84
72
72
72
44
44
44
44
44
44
44
44
44
44
44
44
44
44
44
44
44
44
44
44
44
84
84
84
84
84
84
72
72
72
56
56
56
56
56
56
72
72
72
84
84
84
56
56
56
84
84
84
56
56
56
72
72
72
72
72
72
56
56
56
56
56
56
56
56
56
56
56
56
72
72
72
72
72
72
84
84
84
72
72
72
72
72
72
72
72
72
64
64
64
56
56
56
64
64
64
56
56
56
64
64
64
56
56
56
64
64
64
72
72
72
72
72
72
72
72
72
84
84
84
56
56
56
84
84
84
72
72
72
64
64
64
56
56
56
56
56
56
56
56
56
64
64
64
64
64
64
72
72
72
72
72
72
84
84
84
64
64
64
56
56
56
56
56
56
64
64
64
72
72
72
72
72
72
72
72
72
84
84
84
72
72
72
84
84
84
56
56
56
84
84
84
64
64
64
56
56
56
64
64
64
84
84
84
72
72
72
72
72
72
72
72
72
84
84
84
236
0
0
236
0
0
212
0
0
212
0
0
212
0
0
212
0
0
212
0
0
212
0
0
212
0
0
188
0
0
188
0
0
188
0
0
188
0
0
188
0
0
188
0
0
188
0
0
188
0
0
188
0
0
188
0
0
188
0
0
188
0
0
188
0
0
188
0
0
188
0
0
188
0
0
188
0
0
164
0
0
72
72
72
84
84
84
84
84
84
236
0
0
236
0
0
212
0
0
212
0
0
212
0
0
212
0
0
212
0
0
212
0
0
212
0
0
212
0
0
212
0
0
212
0
0
188
0
0
188
0
0
188
0
0
188
0
0
188
0
0
188
0
0
188
0
0
188
0
0
188
0
0
188
0
0
188
0
0
188
0
0
188
0
0
188
0
0
188
0
0
188
0
0
188
0
0
188
0
0
188
0
0
164
0
0
72
72
72
84
84
84
236
0
0
136
0
0
176
0
0
188
0
0
124
0
0
188
0
0
124
0
0
188
0
0
124
0
0
176
0
0
136
0
0
176
0
0
136
0
0
176
0
0
200
0
0
136
0
0
176
0
0
136
0
0
176
0
0
136
0
0
188
0
0
176
0
0
100
0
0
176
0
0
200
0
0
112
0
0
64
0
0
56
56
56
72
72
72
84
84
84
236
0
0
188
0
0
112
0
0
212
0
0
164
0
0
176
0
0
136
0
0
164
0
0
176
0
0
136
0
0
176
0
0
152
0
0
176
0
0
124
0
0
100
0
0
164
0
0
136
0
0
112
0
0
136
0
0
164
0
0
124
0
0
136
0
0
164
0
0
152
0
0
136
0
0
164
0
0
124
0
0
136
0
0
164
0
0
88
0
0
164
0
0
64
0
0
44
44
44
56
56
56
236
0
0
176
0
0
136
0
0
164
0
0
152
0
0
164
0
0
124
0
0
112
0
0
136
0
0
164
0
0
164
0
0
136
0
0
152
0
0
136
0
0
164
0
0
136
0
0
100
0
0
164
0
0
112
0
0
164
0
0
136
0
0
100
0
0
136
0
0
164
0
0
112
0
0
176
0
0
64
0
0
44
44
44
72
72
72
92
92
92
212
0
0
188
0
0
152
0
0
164
0
0
100
0
0
164
0
0
100
0
0
136
0
0
112
0
0
152
0
0
136
0
0
100
0
0
164
0
0
100
0
0
136
0
0
164
0
0
100
0
0
164
0
0
112
0
0
164
0
0
124
0
0
164
0
0
136
0
0
164
0
0
100
0
0
164
0
0
152
0
0
124
0
0
164
0
0
124
0
0
112
0
0
64
0
0
44
44
44
72
72
72
188
0
0
100
0
0
164
0
0
164
0
0
112
0
0
136
0
0
88
0
0
164
0
0
100
0
0
164
0
0
112
0
0
164
0
0
136
0
0
152
0
0
164
0
0
100
0
0
136
0
0
164
0
0
112
0
0
136
0
0
164
0
0
136
0
0
100
0
0
124
0
0
164
0
0
112
0
0
64
0
0
44
44
44
84
84
84
100
100
100
212
0
0
188
0
0
124
0
0
164
0
0
124
0
0
164
0
0
100
0
0
164
0
0
112
0
0
152
0
0
164
0
0
124
0
0
164
0
0
124
0
0
164
0
0
136
0
0
100
0
0
164
0
0
112
0
0
112
0
0
164
0
0
152
0
0
112
0
0
152
0
0
136
0
0
164
0
0
164
0
0
124
0
0
164
0
0
88
0
0
112
0
0
64
0
0
44
44
44
72
72
72
188
0
0
176
0
0
136
0
0
164
0
0
76
0
0
164
0
0
88
0
0
112
0
0
136
0
0
164
0
0
136
0
0
112
0
0
124
0
0
164
0
0
124
0
0
136
0
0
100
0
0
124
0
0
164
0
0
100
0
0
164
0
0
136
0
0
100
0
0
164
0
0
112
0
0
88
0
0
64
0
0
44
44
44
84
84
84
92
92
92
212
0
0
112
0
0
164
0
0
112
0
0
152
0
0
136
0
0
100
0
0
136
0
0
152
0
0
112
0
0
164
0
0
100
0
0
136
0
0
100
0
0
136
0
0
164
0
0
124
0
0
136
0
0
112
0
0
136
0
0
124
0
0
164
0
0
136
0
0
164
0
0
100
0
0
164
0
0
124
0
0
136
0
0
164
0
0
124
0
0
112
0
0
64
0
0
44
44
44
84
84
84
188
0
0
112
0
0
100
0
0
164
0
0
76
0
0
136
0
0
124
0
0
164
0
0
100
0
0
164
0
0
88
0
0
164
0
0
100
0
0
164
0
0
136
0
0
100
0
0
136
0
0
164
0
0
136
0
0
100
0
0
164
0
0
100
0
0
136
0
0
124
0
0
124
0
0
176
0
0
64
0
0
44
44
44
72
72
72
84
84
84
212
0
0
200
0
0
112
0
0
164
0
0
112
0
0
164
0
0
136
0
0
164
0
0
136
0
0
112
0
0
164
0
0
100
0
0
164
0
0
88
0
0
112
0
0
112
0
0
76
0
0
164
0
0
76
0
0
164
0
0
88
0
0
164
0
0
76
0
0
164
0
0
164
0
0
136
0
0
100
0
0
76
0
0
112
0
0
136
0
0
112
0
0
64
0
0
44
44
44
72
72
72
200
0
0
164
0
0
100
0
0
112
0
0
112
0
0
112
0
0
88
0
0
112
0
0
76
0
0
112
0
0
112
0
0
136
0
0
100
0
0
136
0
0
112
0
0
112
0
0
136
0
0
112
0
0
112
0
0
100
0
0
112
0
0
152
0
0
112
0
0
152
0
0
112
0
0
112
0
0
64
0
0
44
44
44
56
56
56
84
84
84
200
0
0
164
0
0
112
0
0
152
0
0
112
0
0
136
0
0
88
0
0
112
0
0
112
0
0
112
0
0
112
0
0
100
0
0
136
0
0
112
0
0
136
0
0
76
0
0
164
0
0
88
0
0
112
0
0
164
0
0
76
0
0
112
0
0
136
0
0
76
0
0
164
0
0
88
0
0
164
0
0
76
0
0
164
0
0
112
0
0
112
0
0
64
0
0
44
44
44
72
72
72
164
0
0
152
0
0
100
0
0
100
0
0
100
0
0
100
0
0
100
0
0
100
0
0
100
0
0
100
0
0
100
0
0
100
0
0
100
0
0
100
0
0
100
0
0
100
0
0
76
0
0
76
0
0
76
0
0
76
0
0
76
0
0
76
0
0
76
0
0
76
0
0
76
0
0
64
0
0
64
0
0
44
44
44
56
56
56
84
84
84
164
0
0
100
0
0
100
0
0
100
0
0
100
0
0
100
0
0
100
0
0
100
0
0
100
0
0
100
0
0
100
0
0
100
0
0
100
0
0
100
0
0
100
0
0
88
0
0
88
0
0
88
0
0
88
0
0
88
0
0
88
0
0
88
0
0
88
0
0
88
0
0
88
0
0
88
0
0
88
0
0
64
0
0
88
0
0
124
0
0
88
0
0
64
0
0
44
44
44
72
72
72
72
72
72
56
56
56
44
44
44
44
44
44
44
44
44
44
44
44
44
44
44
44
44
44
44
44
44
44
44
44
44
44
44
44
44
44
44
44
44
44
44
44
44
44
44
44
44
44
44
44
44
44
44
44
44
44
44
56
56
56
56
56
56
56
56
56
44
44
44
44
44
44
44
44
44
44
44
44
44
44
44
44
44
44
72
72
72
72
72
72
72
72
72
44
44
44
44
44
44
44
44
44
44
44
44
44
44
44
44
44
44
44
44
44
44
44
44
32
32
32
32
32
32
32
32
32
32
32
32
32
32
32
44
44
44
56
56
56
56
56
56
56
56
56
44
44
44
32
32
32
32
32
32
32
32
32
44
44
44
44
44
44
44
44
44
44
44
44
44
44
44
44
44
44
44
44
44
44
44
44
44
44
44
44
44
44
44
44
44
84
84
84
84
84
84
84
84
84
84
84
84
84
84
84
72
72
72
72
72
72
56
56
56
72
72
72
56
56
56
56
56
56
56
56
56
72
72
72
84
84
84
100
100
100
100
100
100
84
84
84
84
84
84
84
84
84
72
72
72
72
72
72
72
72
72
64
64
64
64
64
64
56
56
56
56
56
56
64
64
64
56
56
56
56
56
56
64
64
64
84
84
84
72
72
72
72
72
72
72
72
72
84
84
84
56
56
56
84
84
84
72
72
72
84
84
84
72
72
72
64
64
64
56
56
56
64
64
64
56
56
56
64
64
64
72
72
72
84
84
84
84
84
84
72
72
72
72
72
72
64
64
64
56
56
56
64
64
64
72
72
72
72
72
72
72
72
72
84
84
84
56
56
56
84
84
84
72
72
72
72
72
72
72
72
72
84
84
84
56
56
56
188
0
0
188
0
0
188
0
0
188
0
0
188
0
0
188
0
0
188
0
0
188
0
0
188
0
0
188
0
0
164
0
0
72
72
72
56
56
56
84
84
84
212
0
0
212
0
0
212
0
0
212
0
0
212
0
0
212
0
0
212
0
0
212
0
0
188
0
0
188
0
0
188
0
0
188
0
0
188
0
0
188
0
0
188
0
0
188
0
0
188
0
0
188
0
0
188
0
0
188
0
0
188
0
0
188
0
0
188
0
0
188
0
0
188
0
0
164
0
0
72
72
72
84
84
84
84
84
84
200
0
0
236
0
0
212
0
0
212
0
0
212
0
0
212
0
0
212
0
0
212
0
0
212
0
0
212
0
0
212
0
0
188
0
0
188
0
0
188
0
0
188
0
0
188
0
0
188
0
0
188
0
0
188
0
0
188
0
0
188
0
0
164
0
0
176
0
0
164
0
0
176
0
0
152
0
0
200
0
0
176
0
0
176
0
0
200
0
0
164
0
0
64
0
0
56
56
56
72
72
72
56
56
56
212
0
0
164
0
0
100
0
0
164
0
0
112
0
0
164
0
0
164
0
0
100
0
0
164
0
0
136
0
0
164
0
0
164
0
0
112
0
0
164
0
0
136
0
0
100
0
0
164
0
0
164
0
0
100
0
0
164
0
0
164
0
0
112
0
0
164
0
0
124
0
0
164
0
0
64
0
0
56
56
56
72
72
72
84
84
84
212
0
0
164
0
0
124
0
0
164
0
0
112
0
0
164
0
0
164
0
0
100
0
0
164
0
0
124
0
0
136
0
0
124
0
0
164
0
0
112
0
0
164
0
0
136
0
0
164
0
0
124
0
0
164
0
0
112
0
0
164
0
0
164
0
0
124
0
0
136
0
0
164
0
0
152
0
0
164
0
0
124
0
0
164
0
0
136
0
0
112
0
0
64
0
0
44
44
44
72
72
72
84
84
84
212
0
0
100
0
0
164
0
0
124
0
0
136
0
0
164
0
0
124
0
0
164
0
0
152
0
0
112
0
0
164
0
0
136
0
0
136
0
0
112
0
0
136
0
0
136
0
0
164
0
0
136
0
0
100
0
0
164
0
0
112
0
0
136
0
0
164
0
0
100
0
0
164
0
0
64
0
0
56
56
56
84
84
84
84
84
84
212
0
0
164
0
0
88
0
0
164
0
0
112
0
0
164
0
0
136
0
0
100
0
0
164
0
0
136
0
0
164
0
0
124
0
0
136
0
0
136
0
0
152
0
0
112
0
0
152
0
0
124
0
0
152
0
0
136
0
0
112
0
0
136
0
0
124
0
0
164
0
0
152
0
0
124
0
0
164
0
0
124
0
0
152
0
0
164
0
0
112
0
0
64
0
0
44
44
44
72
72
72
56
56
56
212
0
0
100
0
0
164
0
0
164
0
0
124
0
0
152
0
0
164
0
0
112
0
0
164
0
0
112
0
0
164
0
0
136
0
0
164
0
0
88
0
0
164
0
0
76
0
0
136
0
0
136
0
0
164
0
0
136
0
0
112
0
0
152
0
0
164
0
0
124
0
0
164
0
0
64
0
0
56
56
56
84
84
84
100
100
100
212
0
0
164
0
0
124
0
0
164
0
0
112
0
0
164
0
0
136
0
0
164
0
0
136
0
0
164
0
0
164
0
0
124
0
0
164
0
0
112
0
0
152
0
0
136
0
0
164
0
0
152
0
0
124
0
0
164
0
0
112
0
0
164
0
0
136
0
0
124
0
0
164
0
0
152
0
0
164
0
0
152
0
0
124
0
0
136
0
0
112
0
0
64
0
0
56
56
56
72
72
72
84
84
84
212
0
0
152
0
0
100
0
0
164
0
0
124
0
0
164
0
0
124
0
0
88
0
0
152
0
0
136
0
0
136
0
0
136
0
0
112
0
0
136
0
0
164
0
0
100
0
0
164
0
0
136
0
0
100
0
0
136
0
0
152
0
0
112
0
0
136
0
0
164
0
0
124
0
0
64
0
0
56
56
56
84
84
84
100
100
100
212
0
0
124
0
0
164
0
0
164
0
0
112
0
0
164
0
0
100
0
0
164
0
0
164
0
0
124
0
0
124
0
0
164
0
0
124
0
0
164
0
0
136
0
0
152
0
0
152
0
0
136
0
0
124
0
0
112
0
0
136
0
0
164
0
0
136
0
0
124
0
0
164
0
0
124
0
0
164
0
0
124
0
0
152
0
0
164
0
0
112
0
0
64
0
0
56
56
56
72
72
72
72
72
72
212
0
0
100
0
0
164
0
0
124
0
0
88
0
0
152
0
0
164
0
0
112
0
0
136
0
0
136
0
0
164
0
0
136
0
0
164
0
0
112
0
0
136
0
0
76
0
0
100
0
0
152
0
0
100
0
0
164
0
0
152
0
0
112
0
0
164
0
0
124
0
0
164
0
0
64
0
0
56
56
56
72
72
72
84
84
84
200
0
0
164
0
0
124
0
0
164
0
0
164
0
0
112
0
0
164
0
0
136
0
0
136
0
0
124
0
0
164
0
0
124
0
0
164
0
0
112
0
0
152
0
0
136
0
0
164
0
0
124
0
0
136
0
0
164
0
0
112
0
0
112
0
0
112
0
0
136
0
0
152
0
0
112
0
0
112
0
0
152
0
0
112
0
0
112
0
0
112
0
0
64
0
0
56
56
56
72
72
72
72
72
72
152
0
0
100
0
0
164
0
0
164
0
0
88
0
0
164
0
0
124
0
0
112
0
0
164
0
0
112
0
0
164
0
0
100
0
0
164
0
0
88
0
0
136
0
0
100
0
0
164
0
0
136
0
0
100
0
0
152
0
0
112
0
0
152
0
0
164
0
0
100
0
0
124
0
0
64
0
0
44
44
44
72
72
72
84
84
84
200
0
0
164
0
0
88
0
0
164
0
0
112
0
0
164
0
0
164
0
0
136
0
0
164
0
0
136
0
0
164
0
0
124
0
0
164
0
0
112
0
0
152
0
0
112
0
0
152
0
0
124
0
0
164
0
0
164
0
0
112
0
0
64
0
0
64
0
0
76
0
0
76
0
0
76
0
0
76
0
0
76
0
0
76
0
0
76
0
0
64
0
0
64
0
0
44
44
44
72
72
72
72
72
72
164
0
0
100
0
0
100
0
0
100
0
0
100
0
0
100
0
0
100
0
0
100
0
0
100
0
0
100
0
0
88
0
0
88
0
0
88
0
0
88
0
0
88
0
0
88
0
0
88
0
0
88
0
0
88
0
0
88
0
0
88
0
0
88
0
0
88
0
0
88
0
0
64
0
0
64
0
0
44
44
44
72
72
72
72
72
72
164
0
0
100
0
0
100
0
0
100
0
0
100
0
0
100
0
0
100
0
0
100
0
0
100
0
0
100
0
0
100
0
0
100
0
0
100
0
0
100
0
0
100
0
0
100
0
0
88
0
0
88
0
0
88
0
0
88
0
0
64
0
0
44
44
44
44
44
44
44
44
44
44
44
44
44
44
44
44
44
44
44
44
44
44
44
44
44
44
44
44
44
44
44
44
44
44
44
44
72
72
72
84
84
84
72
72
72
44
44
44
32
32
32
32
32
32
32
32
32
32
32
32
44
44
44
44
44
44
56
56
56
56
56
56
56
56
56
44
44
44
32
32
32
32
32
32
32
32
32
32
32
32
32
32
32
44
44
44
44
44
44
44
44
44
44
44
44
44
44
44
44
44
44
44
44
44
44
44
44
44
44
44
56
56
56
72
72
72
72
72
72
72
72
72
44
44
44
44
44
44
44
44
44
44
44
44
56
56
56
56
56
56
72
72
72
56
56
56
44
44
44
44
44
44
32
32
32
32
32
32
32
32
32
44
44
44
44
44
44
44
44
44
44
44
44
44
44
44
44
44
44
44
44
44
84
84
84
72
72
72
84
84
84
56
56
56
72
72
72
56
56
56
56
56
56
72
72
72
72
72
72
56
56
56
56
56
56
56
56
56
56
56
56
72
72
72
72
72
72
56
56
56
56
56
56
56
56
56
72
72
72
72
72
72
72
72
72
72
72
72
72
72
72
84
84
84
84
84
84
72
72
72
72
72
72
56
56
56
56
56
56
56
56
56
84
84
84
72
72
72
72
72
72
72
72
72
84
84
84
56
56
56
72
72
72
56
56
56
72
72
72
56
56
56
72
72
72
72
72
72
84
84
84
72
72
72
84
84
84
56
56
56
84
84
84
72
72
72
84
84
84
92
92
92
100
100
100
84
84
84
76
76
76
72
72
72
72
72
72
56
56
56
84
84
84
72
72
72
84
84
84
72
72
72
84
84
84
56
56
56
84
84
84
56
56
56
56
56
56
236
0
0
212
0
0
212
0
0
212
0
0
212
0
0
212
0
0
212
0
0
212
0
0
188
0
0
188
0
0
188
0
0
188
0
0
188
0
0
188
0
0
188
0
0
188
0
0
188
0
0
188
0
0
188
0
0
188
0
0
188
0
0
188
0
0
188
0
0
188
0
0
188
0
0
188
0
0
188
0
0
188
0
0
188
0
0
188
0
0
164
0
0
56
56
56
84
84
84
56
56
56
236
0
0
236
0
0
212
0
0
212
0
0
212
0
0
212
0
0
212
0
0
212
0
0
212
0
0
212
0
0
188
0
0
188
0
0
188
0
0
188
0
0
188
0
0
188
0
0
188
0
0
188
0
0
188
0
0
188
0
0
188
0
0
188
0
0
188
0
0
188
0
0
188
0
0
188
0
0
188
0
0
164
0
0
72
72
72
84
84
84
212
0
0
164
0
0
136
0
0
136
0
0
164
0
0
100
0
0
164
0
0
164
0
0
124
0
0
152
0
0
164
0
0
124
0
0
164
0
0
112
0
0
136
0
0
164
0
0
100
0
0
164
0
0
124
0
0
164
0
0
136
0
0
164
0
0
100
0
0
164
0
0
100
0
0
164
0
0
164
0
0
124
0
0
112
0
0
164
0
0
64
0
0
56
56
56
72
72
72
84
84
84
236
0
0
164
0
0
164
0
0
100
0
0
164
0
0
100
0
0
164
0
0
88
0
0
164
0
0
112
0
0
164
0
0
88
0
0
164
0
0
136
0
0
88
0
0
152
0
0
136
0
0
112
0
0
164
0
0
136
0
0
124
0
0
164
0
0
124
0
0
152
0
0
112
0
0
136
0
0
164
0
0
64
0
0
44
44
44
72
72
72
212
0
0
164
0
0
100
0
0
164
0
0
136
0
0
100
0
0
164
0
0
136
0
0
152
0
0
124
0
0
164
0
0
100
0
0
136
0
0
88
0
0
164
0
0
152
0
0
100
0
0
164
0
0
88
0
0
136
0
0
152
0
0
136
0
0
100
0
0
164
0
0
124
0
0
164
0
0
124
0
0
164
0
0
112
0
0
152
0
0
64
0
0
44
44
44
72
72
72
72
72
72
212
0
0
136
0
0
164
0
0
100
0
0
136
0
0
100
0
0
124
0
0
88
0
0
136
0
0
88
0
0
152
0
0
124
0
0
164
0
0
88
0
0
164
0
0
100
0
0
164
0
0
112
0
0
136
0
0
112
0
0
164
0
0
136
0
0
124
0
0
152
0
0
164
0
0
100
0
0
136
0
0
64
0
0
44
44
44
72
72
72
212
0
0
136
0
0
100
0
0
164
0
0
100
0
0
136
0
0
112
0
0
100
0
0
164
0
0
100
0
0
164
0
0
136
0
0
124
0
0
136
0
0
164
0
0
100
0
0
152
0
0
136
0
0
136
0
0
88
0
0
124
0
0
164
0
0
76
0
0
152
0
0
88
0
0
136
0
0
100
0
0
136
0
0
136
0
0
112
0
0
64
0
0
44
44
44
56
56
56
72
72
72
212
0
0
136
0
0
164
0
0
100
0
0
100
0
0
136
0
0
164
0
0
124
0
0
88
0
0
164
0
0
124
0
0
88
0
0
152
0
0
164
0
0
88
0
0
164
0
0
112
0
0
112
0
0
164
0
0
112
0
0
164
0
0
124
0
0
164
0
0
112
0
0
136
0
0
100
0
0
164
0
0
64
0
0
44
44
44
56
56
56
212
0
0
164
0
0
136
0
0
164
0
0
136
0
0
100
0
0
164
0
0
136
0
0
124
0
0
152
0
0
164
0
0
124
0
0
164
0
0
88
0
0
136
0
0
164
0
0
100
0
0
164
0
0
88
0
0
136
0
0
164
0
0
88
0
0
152
0
0
164
0
0
124
0
0
164
0
0
164
0
0
164
0
0
112
0
0
124
0
0
64
0
0
44
44
44
56
56
56
72
72
72
212
0
0
164
0
0
100
0
0
164
0
0
136
0
0
100
0
0
164
0
0
88
0
0
164
0
0
112
0
0
152
0
0
124
0
0
124
0
0
88
0
0
136
0
0
100
0
0
164
0
0
124
0
0
136
0
0
152
0
0
136
0
0
152
0
0
124
0
0
112
0
0
164
0
0
136
0
0
164
0
0
64
0
0
44
44
44
84
84
84
212
0
0
164
0
0
100
0
0
136
0
0
164
0
0
100
0
0
164
0
0
100
0
0
164
0
0
100
0
0
164
0
0
100
0
0
164
0
0
112
0
0
164
0
0
100
0
0
100
0
0
164
0
0
88
0
0
136
0
0
124
0
0
164
0
0
124
0
0
136
0
0
100
0
0
152
0
0
100
0
0
136
0
0
112
0
0
164
0
0
64
0
0
32
32
32
56
56
56
84
84
84
212
0
0
164
0
0
100
0
0
100
0
0
164
0
0
100
0
0
124
0
0
88
0
0
164
0
0
88
0
0
164
0
0
88
0
0
152
0
0
88
0
0
164
0
0
100
0
0
136
0
0
112
0
0
164
0
0
112
0
0
124
0
0
164
0
0
124
0
0
152
0
0
136
0
0
100
0
0
112
0
0
64
0
0
44
44
44
56
56
56
200
0
0
164
0
0
100
0
0
164
0
0
100
0
0
136
0
0
112
0
0
136
0
0
152
0
0
124
0
0
164
0
0
136
0
0
136
0
0
136
0
0
164
0
0
152
0
0
100
0
0
136
0
0
124
0
0
88
0
0
100
0
0
164
0
0
76
0
0
164
0
0
112
0
0
152
0
0
124
0
0
164
0
0
112
0
0
164
0
0
64
0
0
32
32
32
56
56
56
84
84
84
200
0
0
112
0
0
164
0
0
100
0
0
136
0
0
100
0
0
164
0
0
88
0
0
124
0
0
164
0
0
124
0
0
88
0
0
152
0
0
112
0
0
136
0
0
100
0
0
164
0
0
112
0
0
164
0
0
112
0
0
164
0
0
124
0
0
152
0
0
112
0
0
164
0
0
100
0
0
164
0
0
64
0
0
44
44
44
84
84
84
164
0
0
100
0
0
100
0
0
100
0
0
100
0
0
100
0
0
100
0
0
100
0
0
100
0
0
100
0
0
76
0
0
76
0
0
76
0
0
76
0
0
76
0
0
76
0
0
76
0
0
76
0
0
76
0
0
76
0
0
76
0
0
76
0
0
76
0
0
76
0
0
76
0
0
76
0
0
76
0
0
76
0
0
76
0
0
76
0
0
64
0
0
44
44
44
72
72
72
84
84
84
164
0
0
100
0
0
100
0
0
100
0
0
100
0
0
100
0
0
100
0
0
100
0
0
100
0
0
100
0
0
88
0
0
88
0
0
88
0
0
88
0
0
88
0
0
76
0
0
76
0
0
76
0
0
76
0
0
76
0
0
76
0
0
76
0
0
76
0
0
76
0
0
76
0
0
76
0
0
64
0
0
64
0
0
44
44
44
56
56
56
72
72
72
44
44
44
44
44
44
44
44
44
44
44
44
44
44
44
44
44
44
44
44
44
44
44
44
44
44
44
44
44
44
56
56
56
56
56
56
56
56
56
44
44
44
32
32
32
32
32
32
32
32
32
32
32
32
44
44
44
44
44
44
44
44
44
32
32
32
32
32
32
32
32
32
32
32
32
44
44
44
44
44
44
32
32
32
32
32
32
44
44
44
44
44
44
72
72
72
56
56
56
72
72
72
44
44
44
44
44
44
44
44
44
44
44
44
44
44
44
44
44
44
32
32
32
32
32
32
32
32
32
44
44
44
52
52
52
56
56
56
52
52
52
44
44
44
32
32
32
44
44
44
44
44
44
44
44
44
44
44
44
32
32
32
32
32
32
32
32
32
44
44
44
44
44
44
44
44
44
44
44
44
44
44
44
44
44
44
84
84
84
56
56
56
84
84
84
56
56
56
84
84
84
72
72
72
84
84
84
72
72
72
72
72
72
72
72
72
72
72
72
84
84
84
100
100
100
100
100
100
84
84
84
72
72
72
84
84
84
56
56
56
84
84
84
72
72
72
84
84
84
72
72
72
64
64
64
56
56
56
56
56
56
56
56
56
64
64
64
72
72
72
84
84
84
72
72
72
72
72
72
56
56
56
72
72
72
72
72
72
84
84
84
56
56
56
84
84
84
72
72
72
72
72
72
72
72
72
72
72
72
72
72
72
72
72
72
72
72
72
72
72
72
76
76
76
84
84
84
84
84
84
84
84
84
76
76
76
72
72
72
72
72
72
72
72
72
72
72
72
56
56
56
48
48
48
32
32
32
32
32
32
48
48
48
56
56
56
72
72
72
72
72
72
84
84
84
72
72
72
212
0
0
212
0
0
212
0
0
212
0
0
212
0
0
188
0
0
188
0
0
188
0
0
188
0
0
188
0
0
188
0
0
188
0
0
188
0
0
188
0
0
188
0
0
188
0
0
188
0
0
164
0
0
72
72
72
84
84
84
72
72
72
236
0
0
236
0
0
212
0
0
212
0
0
212
0
0
212
0
0
212
0
0
212
0
0
212
0
0
212
0
0
188
0
0
188
0
0
188
0
0
188
0
0
188
0
0
188
0
0
188
0
0
188
0
0
188
0
0
188
0
0
188
0
0
188
0
0
188
0
0
188
0
0
188
0
0
164
0
0
72
72
72
56
56
56
84
84
84
236
0
0
212
0
0
212
0
0
212
0
0
212
0
0
212
0
0
188
0
0
188
0
0
188
0
0
188
0
0
188
0
0
188
0
0
188
0
0
188
0
0
124
0
0
164
0
0
88
0
0
164
0
0
164
0
0
100
0
0
152
0
0
100
0
0
164
0
0
124
0
0
200
0
0
124
0
0
164
0
0
100
0
0
164
0
0
124
0
0
164
0
0
64
0
0
44
44
44
72
72
72
72
72
72
212
0
0
164
0
0
164
0
0
164
0
0
164
0
0
100
0
0
164
0
0
76
0
0
164
0
0
124
0
0
164
0
0
100
0
0
164
0
0
100
0
0
164
0
0
152
0
0
164
0
0
100
0
0
164
0
0
100
0
0
164
0
0
88
0
0
164
0
0
112
0
0
100
0
0
64
0
0
56
56
56
72
72
72
84
84
84
212
0
0
164
0
0
100
0
0
136
0
0
164
0
0
88
0
0
164
0
0
112
0
0
164
0
0
112
0
0
164
0
0
100
0
0
164
0
0
112
0
0
164
0
0
124
0
0
124
0
0
164
0
0
124
0
0
164
0
0
100
0
0
152
0
0
124
0
0
100
0
0
164
0
0
88
0
0
124
0
0
100
0
0
136
0
0
100
0
0
136
0
0
64
0
0
44
44
44
72
72
72
72
72
72
212
0
0
124
0
0
164
0
0
112
0
0
164
0
0
100
0
0
112
0
0
76
0
0
124
0
0
152
0
0
124
0
0
164
0
0
136
0
0
100
0
0
136
0
0
152
0
0
100
0
0
124
0
0
136
0
0
112
0
0
136
0
0
88
0
0
164
0
0
100
0
0
164
0
0
64
0
0
52
52
52
72
72
72
84
84
84
212
0
0
100
0
0
164
0
0
88
0
0
164
0
0
112
0
0
164
0
0
112
0
0
136
0
0
164
0
0
112
0
0
164
0
0
136
0
0
76
0
0
164
0
0
124
0
0
88
0
0
124
0
0
164
0
0
100
0
0
152
0
0
100
0
0
124
0
0
164
0
0
124
0
0
88
0
0
164
0
0
136
0
0
100
0
0
152
0
0
124
0
0
64
0
0
44
44
44
72
72
72
64
64
64
212
0
0
124
0
0
124
0
0
112
0
0
164
0
0
100
0
0
124
0
0
124
0
0
164
0
0
88
0
0
164
0
0
76
0
0
164
0
0
164
0
0
100
0
0
164
0
0
100
0
0
164
0
0
100
0
0
136
0
0
88
0
0
136
0
0
136
0
0
100
0
0
112
0
0
64
0
0
44
44
44
72
72
72
84
84
84
212
0
0
100
0
0
164
0
0
112
0
0
112
0
0
164
0
0
164
0
0
136
0
0
112
0
0
136
0
0
112
0
0
100
0
0
112
0
0
136
0
0
124
0
0
152
0
0
88
0
0
152
0
0
100
0
0
100
0
0
164
0
0
100
0
0
164
0
0
124
0
0
164
0
0
88
0
0
124
0
0
112
0
0
100
0
0
164
0
0
100
0
0
64
0
0
44
44
44
72
72
72
64
64
64
212
0
0
164
0
0
76
0
0
112
0
0
164
0
0
100
0
0
164
0
0
76
0
0
164
0
0
124
0
0
152
0
0
100
0
0
164
0
0
100
0
0
136
0
0
124
0
0
100
0
0
164
0
0
100
0
0
164
0
0
136
0
0
88
0
0
112
0
0
152
0
0
100
0
0
64
0
0
44
44
44
72
72
72
84
84
84
212
0
0
164
0
0
100
0
0
88
0
0
164
0
0
136
0
0
112
0
0
112
0
0
164
0
0
112
0
0
164
0
0
100
0
0
112
0
0
164
0
0
100
0
0
164
0
0
124
0
0
164
0
0
100
0
0
164
0
0
100
0
0
136
0
0
164
0
0
100
0
0
164
0
0
124
0
0
88
0
0
136
0
0
164
0
0
124
0
0
136
0
0
64
0
0
44
44
44
72
72
72
64
64
64
212
0
0
76
0
0
164
0
0
164
0
0
100
0
0
164
0
0
124
0
0
112
0
0
136
0
0
88
0
0
124
0
0
76
0
0
164
0
0
100
0
0
164
0
0
100
0
0
124
0
0
124
0
0
100
0
0
136
0
0
112
0
0
88
0
0
136
0
0
112
0
0
100
0
0
64
0
0
44
44
44
72
72
72
72
72
72
212
0
0
100
0
0
164
0
0
136
0
0
164
0
0
112
0
0
164
0
0
136
0
0
112
0
0
112
0
0
88
0
0
164
0
0
112
0
0
164
0
0
100
0
0
164
0
0
124
0
0
124
0
0
100
0
0
152
0
0
152
0
0
100
0
0
152
0
0
100
0
0
124
0
0
88
0
0
164
0
0
100
0
0
164
0
0
100
0
0
152
0
0
64
0
0
44
44
44
72
72
72
72
72
72
212
0
0
76
0
0
164
0
0
112
0
0
164
0
0
100
0
0
124
0
0
124
0
0
136
0
0
76
0
0
152
0
0
100
0
0
136
0
0
76
0
0
164
0
0
124
0
0
100
0
0
164
0
0
136
0
0
100
0
0
164
0
0
88
0
0
164
0
0
88
0
0
136
0
0
64
0
0
44
44
44
56
56
56
72
72
72
212
0
0
100
0
0
164
0
0
88
0
0
112
0
0
88
0
0
164
0
0
112
0
0
164
0
0
112
0
0
88
0
0
100
0
0
164
0
0
76
0
0
124
0
0
152
0
0
88
0
0
164
0
0
100
0
0
100
0
0
136
0
0
100
0
0
124
0
0
124
0
0
164
0
0
88
0
0
164
0
0
100
0
0
112
0
0
136
0
0
124
0
0
64
0
0
44
44
44
72
72
72
84
84
84
200
0
0
164
0
0
76
0
0
112
0
0
164
0
0
100
0
0
164
0
0
76
0
0
136
0
0
100
0
0
164
0
0
100
0
0
164
0
0
112
0
0
100
0
0
164
0
0
100
0
0
124
0
0
164
0
0
100
0
0
136
0
0
112
0
0
136
0
0
100
0
0
136
0
0
64
0
0
44
44
44
56
56
56
72
72
72
200
0
0
100
0
0
100
0
0
88
0
0
164
0
0
88
0
0
164
0
0
112
0
0
164
0
0
112
0
0
164
0
0
100
0
0
164
0
0
112
0
0
76
0
0
76
0
0
76
0
0
76
0
0
76
0
0
76
0
0
76
0
0
76
0
0
76
0
0
76
0
0
76
0
0
76
0
0
76
0
0
76
0
0
76
0
0
76
0
0
64
0
0
64
0
0
44
44
44
72
72
72
72
72
72
164
0
0
64
0
0
64
0
0
64
0
0
64
0
0
64
0
0
76
0
0
76
0
0
76
0
0
76
0
0
76
0
0
76
0
0
76
0
0
76
0
0
76
0
0
76
0
0
76
0
0
76
0
0
76
0
0
76
0
0
76
0
0
76
0
0
76
0
0
76
0
0
64
0
0
64
0
0
32
32
32
72
72
72
84
84
84
164
0
0
64
0
0
64
0
0
76
0
0
76
0
0
76
0
0
76
0
0
76
0
0
76
0
0
76
0
0
76
0
0
76
0
0
76
0
0
76
0
0
44
44
44
44
44
44
44
44
44
44
44
44
44
44
44
44
44
44
44
44
44
44
44
44
44
44
44
44
44
44
44
44
44
44
44
44
44
44
44
44
44
44
44
44
44
44
44
44
44
44
44
44
44
44
44
44
44
72
72
72
84
84
84
72
72
72
56
56
56
52
52
52
52
52
52
44
44
44
44
44
44
44
44
44
44
44
44
44
44
44
44
44
44
44
44
44
44
44
44
44
44
44
44
44
44
44
44
44
44
44
44
44
44
44
44
44
44
32
32
32
32
32
32
32
32
32
32
32
32
32
32
32
44
44
44
32
32
32
32
32
32
32
32
32
56
56
56
72
72
72
72
72
72
44
44
44
44
44
44
44
44
44
44
44
44
44
44
44
44
44
44
32
32
32
32
32
32
32
32
32
32
32
32
32
32
32
44
44
44
44
44
44
56
56
56
84
84
84
56
56
56
84
84
84
56
56
56
56
56
56
56
56
56
72
72
72
72
72
72
72
72
72
72
72
72
72
72
72
84
84
84
84
84
84
56
56
56
72
72
72
72
72
72
72
72
72
72
72
72
84
84
84
84
84
84
84
84
84
84
84
84
84
84
84
72
72
72
72
72
72
72
72
72
84
84
84
72
72
72
72
72
72
72
72
72
84
84
84
72
72
72
72
72
72
56
56
56
72
72
72
72
72
72
72
72
72
64
64
64
56
56
56
56
56
56
64
64
64
56
56
56
56
56
56
64
64
64
72
72
72
64
64
64
56
56
56
64
64
64
84
84
84
72
72
72
72
72
72
56
56
56
84
84
84
72
72
72
72
72
72
72
72
72
72
72
72
64
64
64
56
56
56
64
64
64
72
72
72
72
72
72
72
72
72
84
84
84
84
84
84
84
84
84
84
84
84
84
84
84
84
84
84
84
84
84
84
84
84
84
84
84
84
84
84
84
84
84
84
84
84
84
84
84
84
84
84
84
84
84
84
84
84
84
84
84
84
84
84
84
84
84
84
84
84
84
84
84
84
84
84
84
84
84
84
84
84
84
84
84
84
84
84
84
84
84
84
84
84
84
84
84
84
84
84
84
84
84
84
84
84
84
84
84
84
84
84
84
84
84
84
84
84
84
84
84
84
84
84
84
84
84
84
84
84
84
84
84
84
84
84
84
84
84
84
84
84
84
84
84
84
84
84
84
84
84
84
84
84
84
84
84
84
84
84
84
84
84
84
84
84
84
84
84
84
84
84
84
84
84
84
84
84
84
84
84
84
84
84
84
84
84
84
84
84
84
84
84
84
84
84
84
84
84
84
84
84
