P3
# Created by GIMP version 2.10.30 PNM plug-in
64 64
255
56
56
56
97
0
16
107
0
20
107
0
20
107
0
20
107
0
20
107
0
20
107
0
20
107
0
20
107
0
20
107
0
20
107
0
20
107
0
20
107
0
20
107
0
20
107
0
20
107
0
20
107
0
20
107
0
20
107
0
20
107
0
20
97
0
16
56
56
56
56
56
56
118
0
24
118
0
24
118
0
24
118
0
24
118
0
24
118
0
24
118
0
24
118
0
24
118
0
24
118
0
24
118
0
24
118
0
24
118
0
24
118
0
24
118
0
24
118
0
24
118
0
24
118
0
24
118
0
24
118
0
24
118
0
24
118
0
24
118
0
24
118
0
24
118
0
24
118
0
24
118
0
24
118
0
24
56
56
56
56
56
56
97
0
16
107
0
20
107
0
20
107
0
20
107
0
20
107
0
20
107
0
20
107
0
20
97
0
16
44
44
44
32
32
32
142
0
32
142
0
32
142
0
32
142
0
32
142
0
32
142
0
32
142
0
32
142
0
32
142
0
32
142
0
32
142
0
32
142
0
32
142
0
32
142
0
32
142
0
32
142
0
32
142
0
32
142
0
32
142
0
32
142
0
32
142
0
32
32
32
32
32
32
32
163
0
38
163
0
38
163
0
38
163
0
38
163
0
38
163
0
38
163
0
38
163
0
38
163
0
38
163
0
38
163
0
38
163
0
38
163
0
38
163
0
38
163
0
38
163
0
38
163
0
38
163
0
38
163
0
38
163
0
38
163
0
38
163
0
38
163
0
38
163
0
38
163
0
38
163
0
38
163
0
38
163
0
38
32
32
32
32
32
32
153
0
35
153
0
35
153
0
35
153
0
35
153
0
35
153
0
35
153
0
35
153
0
35
153
0
35
32
32
32
0
0
0
142
0
32
142
0
32
142
0
32
118
0
24
142
0
32
107
0
20
142
0
32
142
0
32
132
0
29
107
0
20
132
0
29
132
0
29
107
0
20
132
0
29
132
0
29
107
0
20
142
0
32
107
0
20
97
0
16
97
0
16
76
0
7
0
0
0
32
32
32
163
0
38
142
0
32
163
0
38
153
0
35
107
0
20
142
0
32
163
0
38
132
0
29
97
0
16
97
0
16
132
0
29
118
0
24
142
0
32
142
0
32
118
0
24
97
0
16
118
0
24
142
0
32
163
0
38
142
0
32
118
0
24
132
0
29
142
0
32
163
0
38
163
0
38
142
0
32
132
0
29
97
0
16
0
0
0
32
32
32
153
0
35
163
0
38
142
0
32
132
0
29
142
0
32
153
0
35
153
0
35
132
0
29
107
0
20
0
0
0
0
0
0
142
0
32
132
0
29
107
0
20
118
0
24
132
0
29
132
0
29
132
0
29
107
0
20
107
0
20
142
0
32
132
0
29
142
0
32
86
0
11
132
0
29
132
0
29
107
0
20
97
0
16
107
0
20
107
0
20
97
0
16
86
0
11
0
0
0
32
32
32
163
0
38
163
0
38
142
0
32
132
0
29
132
0
29
132
0
29
97
0
16
132
0
29
76
0
7
97
0
16
76
0
7
76
0
7
107
0
20
142
0
32
142
0
32
86
0
11
97
0
16
97
0
16
86
0
11
97
0
16
97
0
16
76
0
7
97
0
16
118
0
24
118
0
24
97
0
16
86
0
11
97
0
16
0
0
0
32
32
32
153
0
35
153
0
35
142
0
32
142
0
32
107
0
20
132
0
29
142
0
32
142
0
32
76
0
7
0
0
0
0
0
0
142
0
32
118
0
24
142
0
32
97
0
16
174
0
41
174
0
41
132
0
29
107
0
20
107
0
20
107
0
20
132
0
29
118
0
24
118
0
24
107
0
20
86
0
11
76
0
7
107
0
20
97
0
16
76
0
7
76
0
7
86
0
11
0
0
0
32
32
32
0
0
0
0
0
0
0
0
0
0
0
0
0
0
0
0
0
0
0
0
0
0
0
0
0
0
0
0
0
0
0
0
0
0
0
0
0
0
0
0
0
0
0
0
0
0
0
0
0
0
0
0
0
0
0
0
0
0
0
0
0
0
0
0
0
0
0
0
0
0
0
0
0
0
0
0
0
0
0
0
0
0
0
0
0
0
0
32
32
32
153
0
35
142
0
32
153
0
35
163
0
38
163
0
38
153
0
35
142
0
32
107
0
20
107
0
20
0
0
0
0
0
0
142
0
32
118
0
24
107
0
20
142
0
32
174
0
41
174
0
41
86
0
11
107
0
20
107
0
20
107
0
20
142
0
32
132
0
29
132
0
29
132
0
29
118
0
24
97
0
16
97
0
16
107
0
20
76
0
7
76
0
7
56
0
11
0
0
0
32
32
32
142
0
32
142
0
32
142
0
32
142
0
32
142
0
32
142
0
32
142
0
32
142
0
32
142
0
32
142
0
32
142
0
32
142
0
32
142
0
32
142
0
32
142
0
32
142
0
32
142
0
32
142
0
32
142
0
32
32
32
32
32
32
32
32
32
32
32
32
32
32
32
32
32
32
32
32
32
32
32
32
32
32
32
32
32
32
32
32
32
32
153
0
35
163
0
38
142
0
32
153
0
35
142
0
32
107
0
20
107
0
20
86
0
11
76
0
7
0
0
0
0
0
0
142
0
32
132
0
29
132
0
29
153
0
35
153
0
35
142
0
32
142
0
32
142
0
32
132
0
29
142
0
32
142
0
32
142
0
32
132
0
29
132
0
29
97
0
16
97
0
16
86
0
11
76
0
7
86
0
11
97
0
16
86
0
11
0
0
0
32
32
32
142
0
32
163
0
38
163
0
38
163
0
38
153
0
35
142
0
32
132
0
29
132
0
29
163
0
38
132
0
29
132
0
29
153
0
35
132
0
29
132
0
29
153
0
35
163
0
38
163
0
38
142
0
32
142
0
32
0
0
0
32
32
32
142
0
32
142
0
32
142
0
32
142
0
32
132
0
29
132
0
29
86
0
11
32
32
32
32
32
32
153
0
35
132
0
29
132
0
29
142
0
32
107
0
20
118
0
24
118
0
24
86
0
11
86
0
11
0
0
0
0
0
0
142
0
32
142
0
32
132
0
29
142
0
32
153
0
35
153
0
35
142
0
32
132
0
29
107
0
20
86
0
11
142
0
32
142
0
32
132
0
29
118
0
24
118
0
24
107
0
20
86
0
11
86
0
11
76
0
7
56
0
11
56
0
11
0
0
0
32
32
32
142
0
32
153
0
35
163
0
38
195
0
47
174
0
41
153
0
35
142
0
32
163
0
38
142
0
32
132
0
29
132
0
29
132
0
29
153
0
35
153
0
35
142
0
32
142
0
32
142
0
32
132
0
29
142
0
32
0
0
0
32
32
32
142
0
32
132
0
29
132
0
29
118
0
24
132
0
29
107
0
20
86
0
11
0
0
0
32
32
32
153
0
35
132
0
29
132
0
29
142
0
32
97
0
16
118
0
24
118
0
24
118
0
24
86
0
11
0
0
0
0
0
0
142
0
32
132
0
29
107
0
20
132
0
29
142
0
32
142
0
32
118
0
24
132
0
29
107
0
20
132
0
29
97
0
16
97
0
16
118
0
24
118
0
24
118
0
24
97
0
16
107
0
20
107
0
20
86
0
11
76
0
7
56
0
11
0
0
0
32
32
32
142
0
32
153
0
35
174
0
41
163
0
38
174
0
41
132
0
29
153
0
35
142
0
32
142
0
32
163
0
38
132
0
29
132
0
29
142
0
32
107
0
20
142
0
32
107
0
20
132
0
29
142
0
32
107
0
20
0
0
0
32
32
32
142
0
32
132
0
29
132
0
29
132
0
29
107
0
20
107
0
20
86
0
11
0
0
0
32
32
32
153
0
35
163
0
38
142
0
32
132
0
29
142
0
32
142
0
32
118
0
24
118
0
24
56
0
11
0
0
0
0
0
0
142
0
32
118
0
24
118
0
24
118
0
24
142
0
32
107
0
20
107
0
20
107
0
20
142
0
32
142
0
32
97
0
16
76
0
7
86
0
11
86
0
11
97
0
16
86
0
11
107
0
20
107
0
20
107
0
20
76
0
7
56
0
11
0
0
0
32
32
32
142
0
32
153
0
35
153
0
35
153
0
35
132
0
29
132
0
29
132
0
29
153
0
35
142
0
32
142
0
32
142
0
32
142
0
32
132
0
29
118
0
24
86
0
11
107
0
20
107
0
20
107
0
20
86
0
11
0
0
0
32
32
32
142
0
32
142
0
32
132
0
29
107
0
20
107
0
20
76
0
7
76
0
7
0
0
0
32
32
32
163
0
38
107
0
20
107
0
20
132
0
29
142
0
32
142
0
32
132
0
29
76
0
7
56
0
11
0
0
0
0
0
0
132
0
29
107
0
20
118
0
24
142
0
32
118
0
24
118
0
24
97
0
16
132
0
29
142
0
32
142
0
32
97
0
16
97
0
16
86
0
11
76
0
7
86
0
11
86
0
11
86
0
11
107
0
20
107
0
20
76
0
7
56
0
11
0
0
0
32
32
32
142
0
32
163
0
38
153
0
35
153
0
35
153
0
35
132
0
29
132
0
29
153
0
35
163
0
38
163
0
38
142
0
32
142
0
32
86
0
11
86
0
11
118
0
24
107
0
20
107
0
20
86
0
11
76
0
7
0
0
0
32
32
32
142
0
32
142
0
32
132
0
29
107
0
20
142
0
32
107
0
20
76
0
7
0
0
0
32
32
32
163
0
38
107
0
20
163
0
38
142
0
32
107
0
20
132
0
29
132
0
29
76
0
7
56
0
11
0
0
0
0
0
0
132
0
29
118
0
24
132
0
29
107
0
20
107
0
20
142
0
32
118
0
24
86
0
11
107
0
20
76
0
7
107
0
20
86
0
11
76
0
7
86
0
11
107
0
20
56
0
11
76
0
7
56
0
11
56
0
11
86
0
11
56
0
11
0
0
0
32
32
32
142
0
32
163
0
38
142
0
32
142
0
32
153
0
35
153
0
35
153
0
35
153
0
35
163
0
38
153
0
35
153
0
35
142
0
32
86
0
11
86
0
11
97
0
16
142
0
32
86
0
11
86
0
11
56
0
11
0
0
0
32
32
32
142
0
32
107
0
20
118
0
24
132
0
29
107
0
20
76
0
7
76
0
7
0
0
0
32
32
32
163
0
38
163
0
38
107
0
20
107
0
20
86
0
11
86
0
11
107
0
20
107
0
20
56
0
11
0
0
0
0
0
0
132
0
29
107
0
20
132
0
29
107
0
20
86
0
11
118
0
24
118
0
24
107
0
20
86
0
11
107
0
20
86
0
11
107
0
20
86
0
11
56
0
11
97
0
16
97
0
16
56
0
11
56
0
11
56
0
11
86
0
11
56
0
11
0
0
0
32
32
32
142
0
32
153
0
35
142
0
32
142
0
32
132
0
29
163
0
38
132
0
29
132
0
29
142
0
32
153
0
35
153
0
35
142
0
32
132
0
29
132
0
29
107
0
20
107
0
20
76
0
7
76
0
7
86
0
11
0
0
0
32
32
32
142
0
32
118
0
24
118
0
24
118
0
24
97
0
16
97
0
16
86
0
11
0
0
0
32
32
32
163
0
38
107
0
20
97
0
16
86
0
11
107
0
20
86
0
11
107
0
20
107
0
20
56
0
11
0
0
0
0
0
0
132
0
29
132
0
29
107
0
20
107
0
20
107
0
20
97
0
16
86
0
11
76
0
7
76
0
7
86
0
11
107
0
20
86
0
11
97
0
16
86
0
11
56
0
11
56
0
11
97
0
16
56
0
11
86
0
11
76
0
7
56
0
11
0
0
0
32
32
32
142
0
32
153
0
35
195
0
47
174
0
41
118
0
24
118
0
24
132
0
29
132
0
29
118
0
24
107
0
20
107
0
20
107
0
20
118
0
24
132
0
29
118
0
24
107
0
20
86
0
11
86
0
11
56
0
11
0
0
0
32
32
32
142
0
32
142
0
32
118
0
24
118
0
24
97
0
16
97
0
16
86
0
11
0
0
0
32
32
32
163
0
38
107
0
20
107
0
20
97
0
16
76
0
7
76
0
7
76
0
7
76
0
7
56
0
11
0
0
0
0
0
0
132
0
29
107
0
20
132
0
29
86
0
11
86
0
11
97
0
16
86
0
11
107
0
20
86
0
11
56
0
11
56
0
11
56
0
11
56
0
11
56
0
11
56
0
11
56
0
11
56
0
11
56
0
11
56
0
11
56
0
11
56
0
11
0
0
0
32
32
32
142
0
32
163
0
38
174
0
41
174
0
41
118
0
24
118
0
24
118
0
24
142
0
32
142
0
32
107
0
20
118
0
24
118
0
24
107
0
20
118
0
24
97
0
16
107
0
20
86
0
11
76
0
7
56
0
11
0
0
0
32
32
32
142
0
32
107
0
20
132
0
29
142
0
32
76
0
7
76
0
7
76
0
7
0
0
0
32
32
32
0
0
0
0
0
0
0
0
0
0
0
0
0
0
0
0
0
0
0
0
0
0
0
0
0
0
0
0
0
0
0
0
0
0
0
0
0
0
0
0
0
0
0
0
0
0
0
0
0
0
0
0
0
0
0
0
0
0
0
0
0
0
0
0
0
0
0
0
0
0
0
0
0
0
0
0
0
0
0
0
0
0
0
0
0
0
0
0
0
0
0
0
0
0
0
0
0
0
0
32
32
32
142
0
32
163
0
38
142
0
32
142
0
32
132
0
29
118
0
24
118
0
24
142
0
32
142
0
32
142
0
32
118
0
24
118
0
24
132
0
29
86
0
11
86
0
11
107
0
20
86
0
11
76
0
7
56
0
11
0
0
0
32
32
32
142
0
32
142
0
32
142
0
32
132
0
29
142
0
32
76
0
7
86
0
11
0
0
0
32
32
32
32
32
32
32
32
32
32
32
32
32
32
32
32
32
32
32
32
32
32
32
32
32
32
32
32
32
32
32
32
32
142
0
32
163
0
38
153
0
35
142
0
32
153
0
35
142
0
32
142
0
32
142
0
32
142
0
32
142
0
32
153
0
35
142
0
32
142
0
32
142
0
32
142
0
32
0
0
0
153
0
35
153
0
35
153
0
35
142
0
32
142
0
32
132
0
29
132
0
29
0
0
0
142
0
32
153
0
35
132
0
29
142
0
32
118
0
24
132
0
29
142
0
32
142
0
32
142
0
32
142
0
32
107
0
20
132
0
29
132
0
29
107
0
20
107
0
20
76
0
7
76
0
7
56
0
11
56
0
11
0
0
0
32
32
32
132
0
29
142
0
32
132
0
29
142
0
32
132
0
29
97
0
16
86
0
11
0
0
0
32
32
32
142
0
32
142
0
32
142
0
32
142
0
32
0
0
0
163
0
38
163
0
38
163
0
38
163
0
38
163
0
38
163
0
38
153
0
35
142
0
32
132
0
29
142
0
32
163
0
38
153
0
35
142
0
32
118
0
24
142
0
32
142
0
32
107
0
20
142
0
32
132
0
29
107
0
20
0
0
0
153
0
35
153
0
35
132
0
29
163
0
38
163
0
38
107
0
20
163
0
38
0
0
0
142
0
32
142
0
32
142
0
32
142
0
32
163
0
38
142
0
32
132
0
29
142
0
32
142
0
32
142
0
32
118
0
24
86
0
11
97
0
16
107
0
20
56
0
11
56
0
11
86
0
11
76
0
7
56
0
11
0
0
0
32
32
32
132
0
29
132
0
29
107
0
20
97
0
16
107
0
20
97
0
16
76
0
7
0
0
0
32
32
32
142
0
32
153
0
35
118
0
24
107
0
20
0
0
0
163
0
38
163
0
38
142
0
32
153
0
35
163
0
38
163
0
38
153
0
35
132
0
29
132
0
29
118
0
24
142
0
32
142
0
32
118
0
24
107
0
20
132
0
29
132
0
29
107
0
20
107
0
20
132
0
29
132
0
29
0
0
0
153
0
35
163
0
38
163
0
38
153
0
35
132
0
29
107
0
20
107
0
20
0
0
0
142
0
32
153
0
35
132
0
29
142
0
32
163
0
38
142
0
32
118
0
24
107
0
20
118
0
24
118
0
24
86
0
11
107
0
20
107
0
20
97
0
16
56
0
11
56
0
11
86
0
11
56
0
11
56
0
11
0
0
0
32
32
32
132
0
29
132
0
29
76
0
7
76
0
7
76
0
7
86
0
11
56
0
11
0
0
0
32
32
32
142
0
32
153
0
35
153
0
35
107
0
20
0
0
0
163
0
38
142
0
32
153
0
35
153
0
35
153
0
35
153
0
35
142
0
32
132
0
29
153
0
35
153
0
35
132
0
29
132
0
29
107
0
20
107
0
20
107
0
20
132
0
29
107
0
20
107
0
20
107
0
20
107
0
20
0
0
0
153
0
35
163
0
38
153
0
35
153
0
35
132
0
29
132
0
29
86
0
11
0
0
0
142
0
32
153
0
35
142
0
32
142
0
32
142
0
32
118
0
24
142
0
32
107
0
20
107
0
20
86
0
11
97
0
16
97
0
16
76
0
7
76
0
7
76
0
7
86
0
11
86
0
11
76
0
7
56
0
11
0
0
0
32
32
32
132
0
29
107
0
20
76
0
7
86
0
11
76
0
7
76
0
7
56
0
11
0
0
0
32
32
32
142
0
32
118
0
24
107
0
20
76
0
7
0
0
0
163
0
38
163
0
38
163
0
38
153
0
35
153
0
35
142
0
32
118
0
24
132
0
29
153
0
35
163
0
38
153
0
35
107
0
20
107
0
20
132
0
29
132
0
29
107
0
20
132
0
29
76
0
7
107
0
20
107
0
20
0
0
0
153
0
35
163
0
38
132
0
29
107
0
20
132
0
29
132
0
29
86
0
11
0
0
0
142
0
32
142
0
32
142
0
32
132
0
29
132
0
29
132
0
29
132
0
29
107
0
20
86
0
11
76
0
7
86
0
11
86
0
11
76
0
7
86
0
11
86
0
11
76
0
7
56
0
11
56
0
11
56
0
11
0
0
0
32
32
32
132
0
29
107
0
20
86
0
11
76
0
7
76
0
7
56
0
11
56
0
11
0
0
0
32
32
32
142
0
32
76
0
7
86
0
11
76
0
7
0
0
0
163
0
38
163
0
38
153
0
35
153
0
35
153
0
35
142
0
32
142
0
32
118
0
24
132
0
29
153
0
35
184
0
44
107
0
20
132
0
29
107
0
20
107
0
20
86
0
11
86
0
11
97
0
16
107
0
20
107
0
20
0
0
0
153
0
35
132
0
29
163
0
38
107
0
20
107
0
20
107
0
20
86
0
11
0
0
0
0
0
0
0
0
0
0
0
0
0
0
0
0
0
0
0
0
0
0
0
0
0
0
0
0
0
0
0
0
0
0
0
0
0
0
0
0
0
0
0
0
0
0
0
0
0
0
0
0
0
0
0
0
0
0
0
0
0
0
0
32
32
32
0
0
0
0
0
0
0
0
0
0
0
0
0
0
0
0
0
0
0
0
0
0
0
0
0
0
0
0
0
0
0
0
0
0
0
0
0
0
0
32
32
32
163
0
38
163
0
38
142
0
32
142
0
32
132
0
29
153
0
35
118
0
24
107
0
20
118
0
24
132
0
29
142
0
32
132
0
29
107
0
20
107
0
20
132
0
29
86
0
11
97
0
16
107
0
20
76
0
7
76
0
7
0
0
0
153
0
35
132
0
29
132
0
29
86
0
11
107
0
20
107
0
20
76
0
7
0
0
0
32
32
32
32
32
32
32
32
32
32
32
32
32
32
32
32
32
32
32
32
32
32
32
32
32
32
32
32
32
32
32
32
32
32
32
32
32
32
32
32
32
32
32
32
32
32
32
32
32
32
32
32
32
32
32
32
32
32
32
32
32
32
32
32
32
32
32
32
32
32
32
32
32
32
32
153
0
35
153
0
35
153
0
35
153
0
35
153
0
35
153
0
35
153
0
35
153
0
35
32
32
32
32
32
32
163
0
38
142
0
32
142
0
32
132
0
29
132
0
29
153
0
35
142
0
32
118
0
24
132
0
29
107
0
20
132
0
29
107
0
20
132
0
29
132
0
29
107
0
20
97
0
16
107
0
20
86
0
11
107
0
20
76
0
7
0
0
0
153
0
35
163
0
38
132
0
29
118
0
24
86
0
11
76
0
7
86
0
11
0
0
0
32
32
32
153
0
35
153
0
35
153
0
35
153
0
35
153
0
35
153
0
35
153
0
35
153
0
35
153
0
35
153
0
35
153
0
35
153
0
35
153
0
35
153
0
35
153
0
35
153
0
35
153
0
35
153
0
35
153
0
35
153
0
35
132
0
29
142
0
32
32
32
32
32
32
32
153
0
35
174
0
41
153
0
35
174
0
41
142
0
32
142
0
32
142
0
32
132
0
29
0
0
0
32
32
32
163
0
38
153
0
35
132
0
29
132
0
29
132
0
29
153
0
35
153
0
35
132
0
29
118
0
24
153
0
35
132
0
29
132
0
29
132
0
29
132
0
29
107
0
20
107
0
20
97
0
16
76
0
7
76
0
7
76
0
7
0
0
0
142
0
32
163
0
38
107
0
20
118
0
24
118
0
24
86
0
11
76
0
7
0
0
0
32
32
32
153
0
35
163
0
38
153
0
35
142
0
32
163
0
38
163
0
38
163
0
38
153
0
35
163
0
38
142
0
32
153
0
35
142
0
32
163
0
38
153
0
35
107
0
20
142
0
32
163
0
38
163
0
38
163
0
38
107
0
20
142
0
32
76
0
7
0
0
0
32
32
32
153
0
35
174
0
41
153
0
35
174
0
41
174
0
41
142
0
32
132
0
29
118
0
24
0
0
0
32
32
32
163
0
38
163
0
38
132
0
29
132
0
29
132
0
29
153
0
35
142
0
32
118
0
24
107
0
20
118
0
24
153
0
35
153
0
35
86
0
11
107
0
20
132
0
29
118
0
24
118
0
24
97
0
16
76
0
7
86
0
11
0
0
0
142
0
32
107
0
20
86
0
11
97
0
16
97
0
16
76
0
7
86
0
11
0
0
0
32
32
32
153
0
35
163
0
38
142
0
32
153
0
35
174
0
41
195
0
47
195
0
47
163
0
38
184
0
44
195
0
47
142
0
32
163
0
38
142
0
32
142
0
32
163
0
38
163
0
38
142
0
32
142
0
32
142
0
32
142
0
32
107
0
20
76
0
7
0
0
0
32
32
32
153
0
35
174
0
41
174
0
41
174
0
41
174
0
41
142
0
32
118
0
24
107
0
20
0
0
0
32
32
32
163
0
38
153
0
35
163
0
38
142
0
32
142
0
32
142
0
32
132
0
29
107
0
20
118
0
24
142
0
32
153
0
35
153
0
35
142
0
32
132
0
29
107
0
20
118
0
24
118
0
24
97
0
16
76
0
7
86
0
11
0
0
0
132
0
29
107
0
20
76
0
7
76
0
7
76
0
7
76
0
7
86
0
11
0
0
0
32
32
32
153
0
35
153
0
35
142
0
32
163
0
38
184
0
44
184
0
44
195
0
47
163
0
38
195
0
47
184
0
44
184
0
44
153
0
35
107
0
20
142
0
32
107
0
20
107
0
20
142
0
32
107
0
20
107
0
20
142
0
32
76
0
7
76
0
7
0
0
0
32
32
32
153
0
35
153
0
35
142
0
32
174
0
41
142
0
32
118
0
24
142
0
32
86
0
11
0
0
0
32
32
32
163
0
38
163
0
38
163
0
38
142
0
32
142
0
32
153
0
35
132
0
29
153
0
35
132
0
29
132
0
29
142
0
32
153
0
35
142
0
32
86
0
11
107
0
20
97
0
16
97
0
16
97
0
16
76
0
7
76
0
7
0
0
0
0
0
0
0
0
0
0
0
0
0
0
0
0
0
0
0
0
0
0
0
0
0
0
0
32
32
32
153
0
35
163
0
38
163
0
38
153
0
35
153
0
35
174
0
41
174
0
41
142
0
32
142
0
32
184
0
44
184
0
44
142
0
32
142
0
32
107
0
20
107
0
20
107
0
20
97
0
16
142
0
32
107
0
20
107
0
20
76
0
7
76
0
7
0
0
0
32
32
32
153
0
35
174
0
41
142
0
32
142
0
32
142
0
32
142
0
32
118
0
24
86
0
11
0
0
0
32
32
32
163
0
38
163
0
38
163
0
38
153
0
35
153
0
35
142
0
32
118
0
24
118
0
24
142
0
32
142
0
32
132
0
29
142
0
32
142
0
32
86
0
11
97
0
16
76
0
7
86
0
11
76
0
7
56
0
11
56
0
11
0
0
0
32
32
32
32
32
32
32
32
32
32
32
32
32
32
32
32
32
32
32
32
32
32
32
32
32
32
32
153
0
35
153
0
35
163
0
38
153
0
35
153
0
35
153
0
35
142
0
32
142
0
32
142
0
32
163
0
38
142
0
32
142
0
32
142
0
32
107
0
20
118
0
24
118
0
24
107
0
20
107
0
20
76
0
7
76
0
7
76
0
7
86
0
11
0
0
0
32
32
32
153
0
35
174
0
41
174
0
41
142
0
32
142
0
32
118
0
24
107
0
20
97
0
16
0
0
0
32
32
32
163
0
38
142
0
32
142
0
32
163
0
38
153
0
35
142
0
32
132
0
29
118
0
24
142
0
32
142
0
32
142
0
32
132
0
29
107
0
20
97
0
16
86
0
11
76
0
7
86
0
11
86
0
11
76
0
7
76
0
7
0
0
0
32
32
32
153
0
35
153
0
35
153
0
35
153
0
35
142
0
32
142
0
32
32
32
32
32
32
32
153
0
35
142
0
32
142
0
32
163
0
38
153
0
35
118
0
24
118
0
24
142
0
32
163
0
38
153
0
35
107
0
20
142
0
32
142
0
32
107
0
20
118
0
24
118
0
24
118
0
24
97
0
16
97
0
16
97
0
16
76
0
7
76
0
7
0
0
0
32
32
32
153
0
35
174
0
41
174
0
41
132
0
29
132
0
29
142
0
32
142
0
32
76
0
7
0
0
0
32
32
32
163
0
38
142
0
32
142
0
32
153
0
35
153
0
35
132
0
29
118
0
24
132
0
29
118
0
24
142
0
32
142
0
32
107
0
20
86
0
11
86
0
11
76
0
7
76
0
7
76
0
7
86
0
11
56
0
11
86
0
11
0
0
0
32
32
32
153
0
35
153
0
35
118
0
24
142
0
32
132
0
29
118
0
24
0
0
0
32
32
32
153
0
35
163
0
38
153
0
35
163
0
38
153
0
35
118
0
24
118
0
24
142
0
32
142
0
32
142
0
32
107
0
20
142
0
32
142
0
32
142
0
32
97
0
16
118
0
24
118
0
24
76
0
7
97
0
16
97
0
16
97
0
16
56
0
11
0
0
0
32
32
32
153
0
35
153
0
35
174
0
41
132
0
29
132
0
29
132
0
29
142
0
32
76
0
7
0
0
0
32
32
32
163
0
38
163
0
38
132
0
29
132
0
29
107
0
20
132
0
29
118
0
24
118
0
24
107
0
20
118
0
24
118
0
24
107
0
20
86
0
11
86
0
11
97
0
16
107
0
20
107
0
20
86
0
11
56
0
11
56
0
11
0
0
0
32
32
32
153
0
35
142
0
32
142
0
32
132
0
29
118
0
24
132
0
29
0
0
0
32
32
32
153
0
35
163
0
38
163
0
38
142
0
32
153
0
35
153
0
35
153
0
35
132
0
29
142
0
32
107
0
20
107
0
20
107
0
20
142
0
32
142
0
32
97
0
16
76
0
7
86
0
11
76
0
7
86
0
11
97
0
16
97
0
16
56
0
11
0
0
0
32
32
32
153
0
35
153
0
35
142
0
32
118
0
24
153
0
35
142
0
32
142
0
32
86
0
11
0
0
0
32
32
32
163
0
38
118
0
24
118
0
24
132
0
29
132
0
29
132
0
29
118
0
24
142
0
32
132
0
29
97
0
16
107
0
20
107
0
20
97
0
16
86
0
11
97
0
16
107
0
20
107
0
20
86
0
11
76
0
7
56
0
11
0
0
0
32
32
32
153
0
35
142
0
32
132
0
29
118
0
24
97
0
16
86
0
11
0
0
0
32
32
32
153
0
35
163
0
38
142
0
32
107
0
20
142
0
32
153
0
35
153
0
35
142
0
32
142
0
32
107
0
20
97
0
16
107
0
20
86
0
11
97
0
16
97
0
16
97
0
16
76
0
7
56
0
11
56
0
11
76
0
7
56
0
11
56
0
11
0
0
0
32
32
32
153
0
35
153
0
35
174
0
41
118
0
24
153
0
35
153
0
35
132
0
29
86
0
11
0
0
0
32
32
32
163
0
38
118
0
24
118
0
24
107
0
20
107
0
20
132
0
29
142
0
32
132
0
29
118
0
24
118
0
24
107
0
20
86
0
11
86
0
11
76
0
7
66
0
8
66
0
8
97
0
16
86
0
11
76
0
7
56
0
11
0
0
0
32
32
32
153
0
35
153
0
35
118
0
24
153
0
35
118
0
24
76
0
7
0
0
0
32
32
32
153
0
35
142
0
32
142
0
32
163
0
38
107
0
20
142
0
32
142
0
32
132
0
29
107
0
20
97
0
16
107
0
20
107
0
20
86
0
11
86
0
11
97
0
16
97
0
16
86
0
11
56
0
11
56
0
11
86
0
11
86
0
11
56
0
11
0
0
0
32
32
32
153
0
35
142
0
32
174
0
41
142
0
32
118
0
24
132
0
29
132
0
29
76
0
7
0
0
0
32
32
32
163
0
38
163
0
38
107
0
20
107
0
20
107
0
20
107
0
20
132
0
29
132
0
29
118
0
24
107
0
20
107
0
20
107
0
20
107
0
20
76
0
7
66
0
8
66
0
8
76
0
7
76
0
7
86
0
11
56
0
11
0
0
0
32
32
32
153
0
35
153
0
35
153
0
35
97
0
16
97
0
16
86
0
11
0
0
0
32
32
32
153
0
35
107
0
20
163
0
38
107
0
20
142
0
32
142
0
32
107
0
20
107
0
20
97
0
16
86
0
11
107
0
20
107
0
20
107
0
20
86
0
11
86
0
11
76
0
7
76
0
7
86
0
11
86
0
11
86
0
11
66
0
8
56
0
11
0
0
0
32
32
32
153
0
35
174
0
41
142
0
32
142
0
32
132
0
29
76
0
7
97
0
16
86
0
11
0
0
0
32
32
32
163
0
38
142
0
32
142
0
32
132
0
29
132
0
29
107
0
20
118
0
24
118
0
24
107
0
20
97
0
16
107
0
20
107
0
20
107
0
20
76
0
7
76
0
7
86
0
11
76
0
7
76
0
7
76
0
7
76
0
7
0
0
0
32
32
32
153
0
35
153
0
35
153
0
35
142
0
32
76
0
7
76
0
7
0
0
0
32
32
32
153
0
35
142
0
32
163
0
38
107
0
20
142
0
32
142
0
32
97
0
16
86
0
11
86
0
11
76
0
7
107
0
20
107
0
20
107
0
20
86
0
11
76
0
7
76
0
7
76
0
7
76
0
7
66
0
8
66
0
8
66
0
8
56
0
11
0
0
0
32
32
32
153
0
35
174
0
41
142
0
32
132
0
29
107
0
20
132
0
29
97
0
16
76
0
7
0
0
0
32
32
32
163
0
38
142
0
32
142
0
32
132
0
29
118
0
24
107
0
20
118
0
24
86
0
11
97
0
16
107
0
20
86
0
11
107
0
20
107
0
20
76
0
7
86
0
11
76
0
7
56
0
11
76
0
7
86
0
11
76
0
7
0
0
0
32
32
32
153
0
35
132
0
29
132
0
29
76
0
7
118
0
24
86
0
11
0
0
0
32
32
32
153
0
35
142
0
32
107
0
20
142
0
32
142
0
32
107
0
20
76
0
7
76
0
7
76
0
7
76
0
7
86
0
11
86
0
11
86
0
11
86
0
11
76
0
7
56
0
11
56
0
11
56
0
11
56
0
11
56
0
11
56
0
11
56
0
11
0
0
0
32
32
32
153
0
35
174
0
41
142
0
32
107
0
20
132
0
29
132
0
29
107
0
20
86
0
11
0
0
0
32
32
32
163
0
38
132
0
29
142
0
32
142
0
32
107
0
20
107
0
20
132
0
29
107
0
20
86
0
11
107
0
20
86
0
11
97
0
16
76
0
7
86
0
11
56
0
11
56
0
11
76
0
7
56
0
11
56
0
11
56
0
11
0
0
0
32
32
32
153
0
35
132
0
29
132
0
29
153
0
35
76
0
7
86
0
11
0
0
0
32
32
32
0
0
0
0
0
0
0
0
0
0
0
0
0
0
0
0
0
0
0
0
0
0
0
0
0
0
0
0
0
0
0
0
0
0
0
0
0
0
0
0
0
0
0
0
0
0
0
0
0
0
0
0
0
0
0
0
0
0
0
0
0
0
0
0
0
0
0
0
0
32
32
32
142
0
32
153
0
35
142
0
32
107
0
20
86
0
11
107
0
20
107
0
20
86
0
11
0
0
0
32
32
32
163
0
38
132
0
29
118
0
24
118
0
24
107
0
20
107
0
20
118
0
24
132
0
29
118
0
24
97
0
16
107
0
20
97
0
16
76
0
7
76
0
7
76
0
7
56
0
11
86
0
11
56
0
11
76
0
7
56
0
11
0
0
0
32
32
32
153
0
35
153
0
35
118
0
24
153
0
35
118
0
24
76
0
7
0
0
0
32
32
32
32
32
32
32
32
32
32
32
32
32
32
32
32
32
32
32
32
32
32
32
32
32
32
32
32
32
32
32
32
32
32
32
32
32
32
32
32
32
32
32
32
32
32
32
32
32
32
32
32
32
32
32
32
32
32
32
32
32
32
32
32
32
32
32
32
32
32
32
32
32
32
32
142
0
32
153
0
35
153
0
35
142
0
32
107
0
20
76
0
7
86
0
11
56
0
11
0
0
0
32
32
32
163
0
38
163
0
38
118
0
24
118
0
24
107
0
20
107
0
20
132
0
29
118
0
24
107
0
20
86
0
11
97
0
16
107
0
20
97
0
16
56
0
11
56
0
11
56
0
11
56
0
11
56
0
11
56
0
11
56
0
11
0
0
0
32
32
32
153
0
35
153
0
35
118
0
24
118
0
24
76
0
7
86
0
11
0
0
0
32
32
32
142
0
32
142
0
32
142
0
32
142
0
32
142
0
32
142
0
32
142
0
32
142
0
32
142
0
32
142
0
32
142
0
32
142
0
32
142
0
32
142
0
32
142
0
32
142
0
32
142
0
32
142
0
32
142
0
32
142
0
32
142
0
32
142
0
32
32
32
32
32
32
32
142
0
32
153
0
35
142
0
32
163
0
38
142
0
32
107
0
20
86
0
11
56
0
11
0
0
0
32
32
32
163
0
38
132
0
29
132
0
29
107
0
20
118
0
24
0
0
0
0
0
0
0
0
0
0
0
0
0
0
0
0
0
0
0
0
0
0
0
0
0
0
0
0
0
0
0
0
0
0
0
0
0
0
0
0
0
0
0
0
0
0
0
0
32
32
32
153
0
35
153
0
35
107
0
20
107
0
20
76
0
7
76
0
7
0
0
0
32
32
32
142
0
32
163
0
38
163
0
38
163
0
38
163
0
38
163
0
38
163
0
38
153
0
35
142
0
32
142
0
32
142
0
32
142
0
32
142
0
32
142
0
32
142
0
32
132
0
29
118
0
24
107
0
20
163
0
38
132
0
29
142
0
32
107
0
20
0
0
0
32
32
32
142
0
32
174
0
41
142
0
32
142
0
32
163
0
38
118
0
24
76
0
7
56
0
11
0
0
0
32
32
32
0
0
0
0
0
0
0
0
0
0
0
0
0
0
0
32
32
32
32
32
32
32
32
32
32
32
32
32
32
32
76
0
7
76
0
7
97
0
16
97
0
16
118
0
24
118
0
24
118
0
24
107
0
20
97
0
16
86
0
11
32
32
32
32
32
32
142
0
32
153
0
35
107
0
20
107
0
20
107
0
20
76
0
7
0
0
0
32
32
32
153
0
35
163
0
38
174
0
41
174
0
41
163
0
38
142
0
32
142
0
32
153
0
35
153
0
35
174
0
41
163
0
38
132
0
29
132
0
29
142
0
32
142
0
32
132
0
29
107
0
20
118
0
24
107
0
20
118
0
24
132
0
29
107
0
20
0
0
0
32
32
32
142
0
32
142
0
32
142
0
32
142
0
32
118
0
24
118
0
24
76
0
7
56
0
11
0
0
0
32
32
32
118
0
24
132
0
29
118
0
24
118
0
24
0
0
0
32
32
32
132
0
29
142
0
32
153
0
35
163
0
38
163
0
38
163
0
38
163
0
38
163
0
38
163
0
38
163
0
38
163
0
38
163
0
38
163
0
38
163
0
38
32
32
32
32
32
32
142
0
32
142
0
32
118
0
24
107
0
20
107
0
20
86
0
11
0
0
0
32
32
32
153
0
35
163
0
38
174
0
41
174
0
41
174
0
41
153
0
35
153
0
35
153
0
35
153
0
35
163
0
38
163
0
38
107
0
20
107
0
20
107
0
20
107
0
20
142
0
32
142
0
32
142
0
32
132
0
29
132
0
29
107
0
20
86
0
11
0
0
0
32
32
32
142
0
32
174
0
41
142
0
32
107
0
20
97
0
16
76
0
7
76
0
7
56
0
11
0
0
0
32
32
32
132
0
29
132
0
29
107
0
20
107
0
20
0
0
0
32
32
32
142
0
32
163
0
38
163
0
38
163
0
38
163
0
38
163
0
38
153
0
35
142
0
32
153
0
35
163
0
38
142
0
32
142
0
32
142
0
32
163
0
38
0
0
0
32
32
32
142
0
32
142
0
32
132
0
29
76
0
7
86
0
11
86
0
11
0
0
0
32
32
32
153
0
35
163
0
38
163
0
38
163
0
38
163
0
38
184
0
44
184
0
44
153
0
35
153
0
35
153
0
35
107
0
20
107
0
20
107
0
20
107
0
20
107
0
20
107
0
20
132
0
29
107
0
20
107
0
20
97
0
16
132
0
29
86
0
11
0
0
0
32
32
32
142
0
32
153
0
35
118
0
24
97
0
16
86
0
11
76
0
7
97
0
16
56
0
11
0
0
0
32
32
32
132
0
29
107
0
20
97
0
16
97
0
16
0
0
0
32
32
32
142
0
32
163
0
38
153
0
35
153
0
35
184
0
44
184
0
44
153
0
35
163
0
38
163
0
38
163
0
38
132
0
29
142
0
32
163
0
38
163
0
38
0
0
0
32
32
32
142
0
32
132
0
29
118
0
24
76
0
7
76
0
7
76
0
7
0
0
0
32
32
32
153
0
35
163
0
38
163
0
38
153
0
35
163
0
38
184
0
44
184
0
44
184
0
44
107
0
20
142
0
32
132
0
29
107
0
20
107
0
20
97
0
16
97
0
16
97
0
16
118
0
24
107
0
20
107
0
20
107
0
20
107
0
20
86
0
11
0
0
0
32
32
32
142
0
32
142
0
32
97
0
16
86
0
11
97
0
16
76
0
7
76
0
7
56
0
11
0
0
0
32
32
32
132
0
29
97
0
16
107
0
20
76
0
7
0
0
0
32
32
32
163
0
38
163
0
38
163
0
38
153
0
35
184
0
44
184
0
44
163
0
38
132
0
29
132
0
29
142
0
32
163
0
38
163
0
38
132
0
29
153
0
35
0
0
0
32
32
32
0
0
0
0
0
0
0
0
0
0
0
0
0
0
0
0
0
0
0
0
0
32
32
32
142
0
32
153
0
35
163
0
38
153
0
35
163
0
38
163
0
38
184
0
44
184
0
44
163
0
38
142
0
32
142
0
32
132
0
29
107
0
20
97
0
16
97
0
16
86
0
11
86
0
11
76
0
7
107
0
20
107
0
20
107
0
20
86
0
11
0
0
0
32
32
32
118
0
24
107
0
20
107
0
20
76
0
7
76
0
7
76
0
7
86
0
11
56
0
11
0
0
0
32
32
32
118
0
24
107
0
20
97
0
16
76
0
7
0
0
0
32
32
32
163
0
38
142
0
32
153
0
35
142
0
32
153
0
35
153
0
35
153
0
35
132
0
29
132
0
29
132
0
29
163
0
38
142
0
32
118
0
24
118
0
24
0
0
0
32
32
32
32
32
32
32
32
32
32
32
32
32
32
32
32
32
32
32
32
32
32
32
32
32
32
32
142
0
32
142
0
32
153
0
35
174
0
41
132
0
29
132
0
29
163
0
38
142
0
32
163
0
38
142
0
32
142
0
32
142
0
32
142
0
32
107
0
20
107
0
20
86
0
11
86
0
11
107
0
20
86
0
11
76
0
7
66
0
8
66
0
8
0
0
0
32
32
32
0
0
0
0
0
0
0
0
0
0
0
0
0
0
0
0
0
0
0
0
0
0
0
0
0
0
0
32
32
32
118
0
24
97
0
16
76
0
7
86
0
11
0
0
0
32
32
32
163
0
38
163
0
38
153
0
35
132
0
29
118
0
24
153
0
35
153
0
35
142
0
32
132
0
29
132
0
29
142
0
32
163
0
38
163
0
38
142
0
32
0
0
0
32
32
32
163
0
38
163
0
38
153
0
35
142
0
32
142
0
32
132
0
29
32
32
32
32
32
32
142
0
32
142
0
32
174
0
41
174
0
41
132
0
29
132
0
29
132
0
29
153
0
35
142
0
32
142
0
32
142
0
32
107
0
20
107
0
20
132
0
29
118
0
24
97
0
16
86
0
11
86
0
11
76
0
7
76
0
7
56
0
11
56
0
11
0
0
0
32
32
32
32
32
32
32
32
32
32
32
32
32
32
32
32
32
32
32
32
32
32
32
32
32
32
32
32
32
32
32
32
32
32
32
32
32
32
32
32
32
32
32
32
32
0
0
0
32
32
32
163
0
38
163
0
38
132
0
29
142
0
32
163
0
38
153
0
35
118
0
24
142
0
32
153
0
35
153
0
35
153
0
35
107
0
20
142
0
32
142
0
32
0
0
0
32
32
32
163
0
38
107
0
20
163
0
38
118
0
24
132
0
29
118
0
24
0
0
0
32
32
32
142
0
32
163
0
38
163
0
38
163
0
38
153
0
35
132
0
29
132
0
29
163
0
38
163
0
38
163
0
38
142
0
32
107
0
20
107
0
20
107
0
20
107
0
20
86
0
11
86
0
11
86
0
11
76
0
7
76
0
7
56
0
11
56
0
11
0
0
0
32
32
32
153
0
35
153
0
35
153
0
35
153
0
35
163
0
38
163
0
38
163
0
38
163
0
38
163
0
38
163
0
38
163
0
38
163
0
38
163
0
38
163
0
38
0
0
0
32
32
32
163
0
38
163
0
38
163
0
38
163
0
38
142
0
32
118
0
24
163
0
38
118
0
24
153
0
35
107
0
20
107
0
20
142
0
32
118
0
24
142
0
32
0
0
0
32
32
32
163
0
38
142
0
32
153
0
35
153
0
35
132
0
29
107
0
20
0
0
0
32
32
32
142
0
32
153
0
35
142
0
32
142
0
32
153
0
35
153
0
35
153
0
35
163
0
38
163
0
38
163
0
38
163
0
38
142
0
32
107
0
20
118
0
24
97
0
16
76
0
7
86
0
11
86
0
11
86
0
11
97
0
16
76
0
7
66
0
8
0
0
0
32
32
32
153
0
35
153
0
35
142
0
32
142
0
32
153
0
35
153
0
35
153
0
35
153
0
35
142
0
32
118
0
24
163
0
38
142
0
32
142
0
32
107
0
20
0
0
0
32
32
32
163
0
38
142
0
32
163
0
38
132
0
29
142
0
32
142
0
32
163
0
38
153
0
35
132
0
29
107
0
20
66
0
8
107
0
20
142
0
32
142
0
32
0
0
0
32
32
32
163
0
38
163
0
38
107
0
20
142
0
32
107
0
20
97
0
16
0
0
0
32
32
32
142
0
32
163
0
38
142
0
32
142
0
32
142
0
32
132
0
29
142
0
32
163
0
38
163
0
38
163
0
38
163
0
38
142
0
32
142
0
32
142
0
32
76
0
7
76
0
7
76
0
7
76
0
7
86
0
11
97
0
16
97
0
16
86
0
11
0
0
0
32
32
32
153
0
35
142
0
32
153
0
35
184
0
44
184
0
44
153
0
35
153
0
35
153
0
35
132
0
29
142
0
32
142
0
32
142
0
32
132
0
29
107
0
20
0
0
0
32
32
32
163
0
38
153
0
35
132
0
29
132
0
29
163
0
38
195
0
47
163
0
38
142
0
32
118
0
24
142
0
32
107
0
20
107
0
20
142
0
32
142
0
32
0
0
0
32
32
32
163
0
38
153
0
35
142
0
32
142
0
32
107
0
20
142
0
32
0
0
0
32
32
32
142
0
32
163
0
38
163
0
38
142
0
32
142
0
32
163
0
38
118
0
24
118
0
24
163
0
38
163
0
38
163
0
38
142
0
32
142
0
32
142
0
32
97
0
16
76
0
7
76
0
7
86
0
11
76
0
7
66
0
8
66
0
8
66
0
8
0
0
0
32
32
32
153
0
35
163
0
38
163
0
38
184
0
44
174
0
41
174
0
41
153
0
35
153
0
35
118
0
24
118
0
24
142
0
32
132
0
29
107
0
20
86
0
11
0
0
0
32
32
32
163
0
38
142
0
32
163
0
38
142
0
32
195
0
47
228
0
88
195
0
47
132
0
29
132
0
29
142
0
32
132
0
29
118
0
24
107
0
20
118
0
24
0
0
0
32
32
32
163
0
38
153
0
35
142
0
32
107
0
20
142
0
32
97
0
16
0
0
0
32
32
32
142
0
32
142
0
32
163
0
38
132
0
29
132
0
29
107
0
20
107
0
20
107
0
20
118
0
24
142
0
32
142
0
32
142
0
32
107
0
20
107
0
20
107
0
20
86
0
11
86
0
11
76
0
7
76
0
7
76
0
7
56
0
11
56
0
11
0
0
0
32
32
32
153
0
35
132
0
29
163
0
38
132
0
29
174
0
41
174
0
41
153
0
35
153
0
35
142
0
32
142
0
32
107
0
20
107
0
20
107
0
20
76
0
7
0
0
0
32
32
32
163
0
38
153
0
35
163
0
38
153
0
35
163
0
38
195
0
47
163
0
38
142
0
32
107
0
20
142
0
32
142
0
32
66
0
8
66
0
8
86
0
11
0
0
0
32
32
32
163
0
38
142
0
32
153
0
35
153
0
35
107
0
20
86
0
11
0
0
0
32
32
32
142
0
32
142
0
32
163
0
38
142
0
32
118
0
24
118
0
24
107
0
20
107
0
20
107
0
20
118
0
24
107
0
20
118
0
24
76
0
7
76
0
7
132
0
29
132
0
29
97
0
16
97
0
16
76
0
7
66
0
8
56
0
11
56
0
11
0
0
0
32
32
32
153
0
35
163
0
38
153
0
35
132
0
29
132
0
29
132
0
29
142
0
32
142
0
32
107
0
20
107
0
20
107
0
20
107
0
20
76
0
7
86
0
11
0
0
0
32
32
32
163
0
38
142
0
32
163
0
38
153
0
35
153
0
35
153
0
35
118
0
24
118
0
24
118
0
24
107
0
20
97
0
16
66
0
8
66
0
8
86
0
11
0
0
0
32
32
32
163
0
38
163
0
38
153
0
35
132
0
29
118
0
24
86
0
11
0
0
0
32
32
32
142
0
32
132
0
29
163
0
38
163
0
38
132
0
29
163
0
38
107
0
20
107
0
20
118
0
24
107
0
20
107
0
20
118
0
24
107
0
20
76
0
7
132
0
29
132
0
29
118
0
24
97
0
16
97
0
16
86
0
11
76
0
7
86
0
11
0
0
0
32
32
32
153
0
35
153
0
35
142
0
32
132
0
29
132
0
29
132
0
29
142
0
32
107
0
20
97
0
16
86
0
11
107
0
20
76
0
7
76
0
7
86
0
11
0
0
0
32
32
32
142
0
32
163
0
38
153
0
35
153
0
35
142
0
32
107
0
20
107
0
20
132
0
29
142
0
32
132
0
29
132
0
29
107
0
20
86
0
11
86
0
11
0
0
0
32
32
32
163
0
38
153
0
35
142
0
32
118
0
24
118
0
24
107
0
20
0
0
0
32
32
32
142
0
32
163
0
38
132
0
29
142
0
32
163
0
38
142
0
32
118
0
24
107
0
20
97
0
16
97
0
16
118
0
24
118
0
24
76
0
7
76
0
7
107
0
20
132
0
29
132
0
29
107
0
20
97
0
16
76
0
7
76
0
7
56
0
11
0
0
0
32
32
32
153
0
35
153
0
35
132
0
29
142
0
32
132
0
29
132
0
29
142
0
32
107
0
20
97
0
16
86
0
11
97
0
16
107
0
20
76
0
7
76
0
7
0
0
0
32
32
32
163
0
38
142
0
32
163
0
38
153
0
35
118
0
24
118
0
24
153
0
35
107
0
20
142
0
32
142
0
32
132
0
29
97
0
16
107
0
20
76
0
7
0
0
0
32
32
32
163
0
38
142
0
32
163
0
38
107
0
20
107
0
20
107
0
20
0
0
0
32
32
32
142
0
32
163
0
38
142
0
32
142
0
32
142
0
32
132
0
29
118
0
24
142
0
32
142
0
32
97
0
16
97
0
16
76
0
7
97
0
16
76
0
7
76
0
7
107
0
20
107
0
20
107
0
20
86
0
11
76
0
7
76
0
7
56
0
11
0
0
0
32
32
32
153
0
35
153
0
35
163
0
38
153
0
35
118
0
24
153
0
35
153
0
35
132
0
29
107
0
20
86
0
11
132
0
29
132
0
29
76
0
7
56
0
11
0
0
0
32
32
32
163
0
38
142
0
32
163
0
38
142
0
32
132
0
29
118
0
24
107
0
20
86
0
11
118
0
24
142
0
32
142
0
32
132
0
29
97
0
16
86
0
11
0
0
0
32
32
32
163
0
38
163
0
38
142
0
32
86
0
11
86
0
11
86
0
11
0
0
0
32
32
32
142
0
32
142
0
32
142
0
32
132
0
29
132
0
29
107
0
20
118
0
24
142
0
32
142
0
32
142
0
32
97
0
16
86
0
11
97
0
16
97
0
16
76
0
7
66
0
8
66
0
8
66
0
8
86
0
11
56
0
11
56
0
11
56
0
11
0
0
0
32
32
32
163
0
38
163
0
38
153
0
35
118
0
24
142
0
32
153
0
35
153
0
35
153
0
35
132
0
29
107
0
20
132
0
29
132
0
29
107
0
20
56
0
11
0
0
0
32
32
32
153
0
35
142
0
32
118
0
24
118
0
24
118
0
24
142
0
32
86
0
11
66
0
8
86
0
11
118
0
24
132
0
29
132
0
29
97
0
16
97
0
16
0
0
0
32
32
32
163
0
38
153
0
35
142
0
32
107
0
20
97
0
16
76
0
7
0
0
0
32
32
32
142
0
32
153
0
35
142
0
32
132
0
29
132
0
29
163
0
38
142
0
32
107
0
20
142
0
32
142
0
32
76
0
7
76
0
7
97
0
16
97
0
16
86
0
11
76
0
7
56
0
11
56
0
11
76
0
7
56
0
11
56
0
11
56
0
11
0
0
0
32
32
32
163
0
38
153
0
35
142
0
32
118
0
24
142
0
32
142
0
32
153
0
35
153
0
35
132
0
29
107
0
20
107
0
20
107
0
20
107
0
20
56
0
11
0
0
0
32
32
32
153
0
35
142
0
32
97
0
16
86
0
11
118
0
24
86
0
11
142
0
32
107
0
20
107
0
20
132
0
29
76
0
7
86
0
11
76
0
7
76
0
7
0
0
0
32
32
32
153
0
35
142
0
32
86
0
11
86
0
11
86
0
11
76
0
7
0
0
0
32
32
32
142
0
32
153
0
35
163
0
38
107
0
20
163
0
38
163
0
38
142
0
32
76
0
7
86
0
11
86
0
11
86
0
11
76
0
7
76
0
7
66
0
8
66
0
8
66
0
8
56
0
11
56
0
11
66
0
8
76
0
7
56
0
11
56
0
11
0
0
0
32
32
32
163
0
38
153
0
35
142
0
32
163
0
38
142
0
32
142
0
32
107
0
20
118
0
24
97
0
16
97
0
16
107
0
20
107
0
20
76
0
7
56
0
11
0
0
0
32
32
32
142
0
32
142
0
32
118
0
24
118
0
24
86
0
11
118
0
24
76
0
7
86
0
11
76
0
7
86
0
11
97
0
16
86
0
11
97
0
16
86
0
11
0
0
0
32
32
32
153
0
35
142
0
32
118
0
24
97
0
16
86
0
11
86
0
11
0
0
0
32
32
32
142
0
32
142
0
32
153
0
35
163
0
38
142
0
32
107
0
20
132
0
29
76
0
7
86
0
11
86
0
11
86
0
11
76
0
7
76
0
7
56
0
11
56
0
11
97
0
16
97
0
16
86
0
11
56
0
11
66
0
8
56
0
11
76
0
7
0
0
0
32
32
32
163
0
38
163
0
38
163
0
38
132
0
29
142
0
32
107
0
20
107
0
20
97
0
16
107
0
20
107
0
20
97
0
16
86
0
11
56
0
11
86
0
11
0
0
0
32
32
32
142
0
32
132
0
29
107
0
20
107
0
20
107
0
20
107
0
20
107
0
20
97
0
16
97
0
16
97
0
16
97
0
16
107
0
20
107
0
20
107
0
20
32
32
32
32
32
32
142
0
32
118
0
24
107
0
20
107
0
20
107
0
20
107
0
20
32
32
32
32
32
32
142
0
32
142
0
32
132
0
29
142
0
32
132
0
29
107
0
20
107
0
20
107
0
20
107
0
20
107
0
20
107
0
20
97
0
16
86
0
11
76
0
7
76
0
7
107
0
20
107
0
20
107
0
20
107
0
20
76
0
7
76
0
7
97
0
16
32
32
32
32
32
32
163
0
38
142
0
32
142
0
32
107
0
20
132
0
29
142
0
32
107
0
20
107
0
20
107
0
20
107
0
20
107
0
20
97
0
16
97
0
16
107
0
20
0
0
0
56
56
56
118
0
24
118
0
24
118
0
24
107
0
20
107
0
20
107
0
20
107
0
20
107
0
20
107
0
20
107
0
20
107
0
20
107
0
20
107
0
20
107
0
20
56
56
56
56
56
56
118
0
24
118
0
24
107
0
20
107
0
20
107
0
20
107
0
20
56
56
56
56
56
56
142
0
32
174
0
41
118
0
24
118
0
24
118
0
24
118
0
24
118
0
24
107
0
20
107
0
20
107
0
20
107
0
20
107
0
20
107
0
20
107
0
20
107
0
20
107
0
20
107
0
20
107
0
20
107
0
20
107
0
20
107
0
20
107
0
20
56
56
56
56
56
56
163
0
38
118
0
24
118
0
24
107
0
20
107
0
20
107
0
20
107
0
20
107
0
20
107
0
20
107
0
20
107
0
20
107
0
20
107
0
20
107
0
20
32
32
32
84
84
84
84
84
84
84
84
84
84
84
84
84
84
84
84
84
84
84
84
84
84
84
84
84
84
84
84
84
84
84
84
84
84
84
84
84
84
84
84
84
84
84
84
84
84
84
84
84
84
84
84
84
84
84
84
84
84
84
84
84
84
84
84
84
84
84
84
84
84
84
84
84
84
84
84
84
84
84
84
84
84
84
84
84
84
84
84
84
84
84
84
84
84
84
84
84
84
84
84
84
84
84
84
84
84
84
84
84
84
84
84
84
84
84
84
84
84
84
84
84
84
84
84
84
84
84
84
84
84
84
84
84
84
84
84
84
84
84
84
84
84
84
84
84
84
84
84
84
84
84
84
84
84
84
84
84
84
84
84
84
84
84
84
84
84
84
84
84
84
84
84
84
84
84
84
84
84
84
84
84
84
84
84
84
84
84
84
84
56
56
56
