P3
64 64
255
0 0 0 0 0 0 0 0 0 0 0 0 0 0 0 0 0 0 0 0 0 0 0 0 0 0 0 0 0 0 0 0 0 0 0 0 0 0 0 0 0 0 0 0 0 0 0 0 0 0 0 0 0 0 0 0 0 0 0 0 0 0 0 0 0 0 0 0 0 0 0 0 0 0 0 0 0 0 0 0 0 0 0 0 0 0 0 0 0 0 0 0 0 0 0 0 0 0 0 0 0 0 0 0 0 0 0 0 0 0 0 0 0 0 0 0 0 0 0 0 0 0 0 0 0 0 0 0 0 0 0 0 0 0 0 0 0 0 0 0 0 0 0 0 0 0 0 0 0 0 0 0 0 0 0 0 0 0 0 0 0 0 0 0 0 0 0 0 0 0 0 0 0 0 0 0 0 0 0 0 0 0 0 0 0 0 0 0 0 0 0 0 
0 0 0 0 0 0 0 0 0 0 0 0 0 0 0 0 0 0 0 0 0 0 0 0 0 0 0 0 0 0 0 0 0 0 0 0 0 0 0 0 0 0 0 0 0 0 0 0 0 0 0 0 0 0 0 0 0 0 0 0 0 0 0 0 0 0 0 0 0 0 0 0 0 0 0 0 0 0 0 0 0 0 0 0 0 0 0 0 0 0 0 0 0 0 0 0 0 0 0 0 0 0 0 0 0 0 0 0 0 0 0 0 0 0 0 0 0 0 0 0 0 0 0 0 0 0 0 0 0 0 0 0 0 0 0 0 0 0 0 0 0 0 0 0 0 0 0 0 0 0 0 0 0 0 0 0 0 0 0 0 0 0 0 0 0 0 0 0 0 0 0 0 0 0 0 0 0 0 0 0 0 0 0 0 0 0 0 0 0 0 0 0 
0 0 0 0 0 0 0 0 0 0 0 0 0 0 0 0 0 0 0 0 0 0 0 0 0 0 0 0 0 0 0 0 0 0 0 0 0 0 0 0 0 0 0 0 0 0 0 0 0 0 0 0 0 0 0 0 0 0 0 0 0 0 0 0 0 0 0 0 0 0 0 0 0 0 0 0 0 0 0 0 0 0 0 0 0 0 0 0 0 0 0 0 0 0 0 0 0 0 0 0 0 0 0 0 0 0 0 0 0 0 0 0 0 0 0 0 0 0 0 0 0 0 0 0 0 0 0 0 0 0 0 0 0 0 0 0 0 0 0 0 0 0 0 0 0 0 0 0 0 0 0 0 0 0 0 0 0 0 0 0 0 0 0 0 0 0 0 0 0 0 0 0 0 0 0 0 0 0 0 0 0 0 0 0 0 0 0 0 0 0 0 0 
0 0 0 0 0 0 0 0 0 0 0 0 0 0 0 0 0 0 0 0 0 0 0 0 0 0 0 0 0 0 0 0 0 0 0 0 0 0 0 0 0 0 0 0 0 0 0 0 0 0 0 0 0 0 0 0 0 0 0 0 0 0 0 0 0 0 0 0 0 0 0 0 0 0 0 0 0 0 0 0 0 0 0 0 0 0 0 0 0 0 0 0 0 0 0 0 0 0 0 0 0 0 0 0 0 0 0 0 0 0 0 0 0 0 0 0 0 0 0 0 0 0 0 0 0 0 0 0 0 0 0 0 0 0 0 0 0 0 0 0 0 0 0 0 0 0 0 0 0 0 0 0 0 0 0 0 0 0 0 0 0 0 0 0 0 0 0 0 0 0 0 0 0 0 0 0 0 0 0 0 0 0 0 0 0 0 0 0 0 0 0 0 
0 0 0 0 0 0 0 0 0 0 0 0 0 0 0 0 0 0 0 0 0 0 0 0 0 0 0 0 0 0 0 0 0 0 0 0 0 0 0 0 0 0 0 0 0 0 0 0 0 0 0 0 0 0 0 0 0 0 0 0 0 0 0 0 0 0 0 0 0 0 0 0 0 0 0 0 0 0 0 0 0 0 0 0 0 0 0 0 0 0 0 0 0 0 0 0 0 0 0 0 0 0 0 0 0 0 0 0 0 0 0 0 0 0 0 0 0 0 0 0 0 0 0 0 0 0 0 0 0 0 0 0 0 0 0 0 0 0 0 0 0 0 0 0 0 0 0 0 0 0 0 0 0 0 0 0 0 0 0 0 0 0 0 0 0 0 0 0 0 0 0 0 0 0 0 0 0 0 0 0 0 0 0 0 0 0 0 0 0 0 0 0 
0 0 0 0 0 0 0 0 0 0 0 0 0 0 0 0 0 0 0 0 0 0 0 0 0 0 0 0 0 0 0 0 0 0 0 0 0 0 0 0 0 0 0 0 0 0 0 0 0 0 0 0 0 0 0 0 0 0 0 0 0 0 0 0 0 0 0 0 0 0 0 0 0 0 0 0 0 0 0 0 0 0 0 0 0 0 0 0 0 0 0 0 0 0 0 0 0 0 0 0 0 0 0 0 0 0 0 0 0 0 0 0 0 0 0 0 0 0 0 0 0 0 0 0 0 0 0 0 0 0 0 0 0 0 0 0 0 0 0 0 0 0 0 0 0 0 0 0 0 0 0 0 0 0 0 0 0 0 0 0 0 0 0 0 0 0 0 0 0 0 0 0 0 0 0 0 0 0 0 0 0 0 0 0 0 0 0 0 0 0 0 0 
0 0 0 0 0 0 0 0 0 0 0 0 0 0 0 0 0 0 0 0 0 0 0 0 0 0 0 0 0 0 0 0 0 0 0 0 0 0 0 0 0 0 0 0 0 0 0 0 0 0 0 0 0 0 0 0 0 0 0 0 0 0 0 0 0 0 0 0 0 0 0 0 0 0 0 0 0 0 0 0 0 0 0 0 0 0 0 0 0 0 0 0 0 0 0 0 0 0 0 0 0 0 0 0 0 0 0 0 0 0 0 0 0 0 0 0 0 0 0 0 0 0 0 0 0 0 0 0 0 0 0 0 0 0 0 0 0 0 0 0 0 0 0 0 0 0 0 0 0 0 0 0 0 0 0 0 0 0 0 0 0 0 0 0 0 0 0 0 0 0 0 0 0 0 0 0 0 0 0 0 0 0 0 0 0 0 0 0 0 0 0 0 
0 0 0 0 0 0 0 0 0 0 0 0 0 0 0 0 0 0 0 0 0 0 0 0 0 0 0 0 0 0 0 0 0 0 0 0 0 0 0 0 0 0 0 0 0 0 0 0 0 0 0 0 0 0 0 0 0 0 0 0 0 0 0 0 0 0 0 0 0 0 0 0 0 0 0 0 0 0 0 0 0 0 0 0 0 0 0 0 0 0 0 0 0 0 0 0 0 0 0 0 0 0 0 0 0 0 0 0 0 0 0 0 0 0 0 0 0 0 0 0 0 0 0 0 0 0 0 0 0 0 0 0 0 0 0 0 0 0 0 0 0 0 0 0 0 0 0 0 0 0 0 0 0 0 0 0 0 0 0 0 0 0 0 0 0 0 0 0 0 0 0 0 0 0 0 0 0 0 0 0 0 0 0 0 0 0 0 0 0 0 0 0 
0 0 0 0 0 0 0 0 0 0 0 0 0 0 0 0 0 0 0 0 0 0 0 0 0 0 0 0 0 0 0 0 0 0 0 0 0 0 0 0 0 0 0 0 0 0 0 0 0 0 0 0 0 0 0 0 0 0 0 0 0 0 0 0 0 0 0 0 0 0 0 0 0 0 0 0 0 0 0 0 0 0 0 0 0 0 0 0 0 0 0 0 0 0 0 0 0 0 0 0 0 0 0 0 0 0 0 0 0 0 0 0 0 0 0 0 0 0 0 0 0 0 0 0 0 0 0 0 0 0 0 0 0 0 0 0 0 0 0 0 0 0 0 0 0 0 0 0 0 0 0 0 0 0 0 0 0 0 0 0 0 0 0 0 0 0 0 0 0 0 0 0 0 0 0 0 0 0 0 0 0 0 0 0 0 0 0 0 0 0 0 0 
0 0 0 0 0 0 0 0 0 0 0 0 0 0 0 0 0 0 0 0 0 0 0 0 0 0 0 0 0 0 0 0 0 0 0 0 0 0 0 0 0 0 0 0 0 0 0 0 0 0 0 0 0 0 0 0 0 0 0 0 0 0 0 0 0 0 0 0 0 0 0 0 0 0 0 0 0 0 0 0 0 0 0 0 0 0 0 0 0 0 0 0 0 0 0 0 0 0 0 0 0 0 0 0 0 0 0 0 0 0 0 0 0 0 0 0 0 0 0 0 0 0 0 0 0 0 0 0 0 0 0 0 0 0 0 0 0 0 0 0 0 0 0 0 0 0 0 0 0 0 0 0 0 0 0 0 0 0 0 0 0 0 0 0 0 0 0 0 0 0 0 0 0 0 0 0 0 0 0 0 0 0 0 0 0 0 0 0 0 0 0 0 
0 0 0 0 0 0 0 0 0 0 0 0 0 0 0 0 0 0 0 0 0 0 0 0 0 0 0 0 0 0 0 0 0 0 0 0 0 0 0 0 0 0 0 0 0 0 0 0 0 0 0 0 0 0 0 0 0 0 0 0 0 0 0 0 0 0 0 0 0 0 0 0 0 0 0 0 0 0 0 0 0 0 0 0 0 0 0 0 0 0 0 0 0 0 0 0 0 0 0 0 0 0 0 0 0 0 0 0 0 0 0 0 0 0 0 0 0 0 0 0 0 0 0 0 0 0 0 0 0 0 0 0 0 0 0 0 0 0 0 0 0 0 0 0 0 0 0 0 0 0 0 0 0 0 0 0 0 0 0 0 0 0 0 0 0 0 0 0 0 0 0 0 0 0 0 0 0 0 0 0 0 0 0 0 0 0 0 0 0 0 0 0 
0 0 0 0 0 0 0 0 0 0 0 0 0 0 0 0 0 0 0 0 0 0 0 0 0 0 0 0 0 0 0 0 0 0 0 0 0 0 0 0 0 0 0 0 0 0 0 0 0 0 0 0 0 0 0 0 0 0 0 0 0 0 0 0 0 0 0 0 0 0 0 0 0 0 0 0 0 0 0 0 0 0 0 0 0 0 0 0 0 0 0 0 0 0 0 0 0 0 0 0 0 0 0 0 0 0 0 0 0 0 0 0 0 0 0 0 0 0 0 0 0 0 0 0 0 0 0 0 0 0 0 0 0 0 0 0 0 0 0 0 0 0 0 0 0 0 0 0 0 0 0 0 0 0 0 0 0 0 0 0 0 0 0 0 0 0 0 0 0 0 0 0 0 0 0 0 0 0 0 0 0 0 0 0 0 0 0 0 0 0 0 0 
0 0 0 0 0 0 0 0 0 0 0 0 0 0 0 0 0 0 0 0 0 0 0 0 0 0 0 0 0 0 0 0 0 0 0 0 0 0 0 0 0 0 0 0 0 0 0 0 0 0 0 0 0 0 0 0 0 0 0 0 0 0 0 0 0 0 0 0 0 0 0 0 0 0 0 0 0 0 0 0 0 0 0 0 0 0 0 0 0 0 0 0 0 0 0 0 0 0 0 0 0 0 0 0 0 0 0 0 0 0 0 0 0 0 0 0 0 0 0 0 0 0 0 0 0 0 0 0 0 0 0 0 0 0 0 0 0 0 0 0 0 0 0 0 0 0 0 0 0 0 0 0 0 0 0 0 0 0 0 0 0 0 0 0 0 0 0 0 0 0 0 0 0 0 0 0 0 0 0 0 0 0 0 0 0 0 0 0 0 0 0 0 
0 0 0 0 0 0 0 0 0 0 0 0 0 0 0 0 0 0 0 0 0 0 0 0 0 0 0 0 0 0 0 0 0 0 0 0 0 0 0 0 0 0 0 0 0 0 0 0 0 0 0 0 0 0 0 0 0 0 0 0 0 0 0 0 0 0 0 0 0 0 0 0 0 0 0 0 0 0 0 0 0 0 0 0 0 0 0 0 0 0 0 0 0 0 0 0 0 0 0 0 0 0 0 0 0 0 0 0 0 0 0 0 0 0 0 0 0 0 0 0 0 0 0 0 0 0 0 0 0 0 0 0 0 0 0 0 0 0 0 0 0 0 0 0 0 0 0 0 0 0 0 0 0 0 0 0 0 0 0 0 0 0 0 0 0 0 0 0 0 0 0 0 0 0 0 0 0 0 0 0 0 0 0 0 0 0 0 0 0 0 0 0 
0 0 0 0 0 0 0 0 0 0 0 0 0 0 0 0 0 0 0 0 0 0 0 0 0 0 0 0 0 0 0 0 0 0 0 0 0 0 0 0 0 0 0 0 0 0 0 0 0 0 0 0 0 0 0 0 0 0 0 0 0 0 0 0 0 0 0 0 0 0 0 0 0 0 0 0 0 0 0 0 0 0 0 0 0 0 0 0 0 0 0 0 0 0 0 0 0 0 0 0 0 0 0 0 0 0 0 0 0 0 0 0 0 0 0 0 0 0 0 0 0 0 0 0 0 0 0 0 0 0 0 0 0 0 0 0 0 0 0 0 0 0 0 0 0 0 0 0 0 0 0 0 0 0 0 0 0 0 0 0 0 0 0 0 0 0 0 0 0 0 0 0 0 0 0 0 0 0 0 0 0 0 0 0 0 0 0 0 0 0 0 0 
0 0 0 0 0 0 0 0 0 0 0 0 0 0 0 0 0 0 0 0 0 0 0 0 0 0 0 0 0 0 0 0 0 0 0 0 0 0 0 0 0 0 0 0 0 0 0 0 0 0 0 0 0 0 0 0 0 0 0 0 0 0 0 0 0 0 0 0 0 0 0 0 0 0 0 0 0 0 0 0 0 0 0 0 0 0 0 0 0 0 0 0 0 0 0 0 0 0 0 0 0 0 0 0 0 0 0 0 0 0 0 0 0 0 0 0 0 0 0 0 0 0 0 0 0 0 0 0 0 0 0 0 0 0 0 0 0 0 0 0 0 0 0 0 0 0 0 0 0 0 0 0 0 0 0 0 0 0 0 0 0 0 0 0 0 0 0 0 0 0 0 0 0 0 0 0 0 0 0 0 0 0 0 0 0 0 0 0 0 0 0 0 
0 0 0 0 0 0 0 0 0 0 0 0 0 0 0 0 0 0 0 0 0 0 0 0 0 0 0 0 0 0 0 0 0 0 0 0 0 0 0 0 0 0 0 0 0 0 0 0 0 0 0 0 0 0 0 0 0 0 0 0 0 0 0 0 0 0 0 0 0 0 0 0 0 0 0 0 0 0 0 0 0 0 0 0 0 0 0 0 0 0 0 0 0 0 0 0 0 0 0 0 0 0 0 0 0 0 0 0 0 0 0 0 0 0 0 0 0 0 0 0 0 0 0 0 0 0 0 0 0 0 0 0 0 0 0 0 0 0 0 0 0 0 0 0 0 0 0 0 0 0 0 0 0 0 0 0 0 0 0 0 0 0 0 0 0 0 0 0 0 0 0 0 0 0 0 0 0 0 0 0 0 0 0 0 0 0 0 0 0 0 0 0 
0 0 0 0 0 0 0 0 0 0 0 0 0 0 0 0 0 0 0 0 0 0 0 0 0 0 0 0 0 0 0 0 0 0 0 0 0 0 0 0 0 0 0 0 0 0 0 0 0 0 0 0 0 0 0 0 0 0 0 0 0 0 0 0 0 0 0 0 0 0 0 0 0 0 0 0 0 0 0 0 0 0 0 0 0 0 0 0 0 0 0 0 0 0 0 0 0 0 0 0 0 0 0 0 0 0 0 0 0 0 0 0 0 0 0 0 0 0 0 0 0 0 0 0 0 0 0 0 0 0 0 0 0 0 0 0 0 0 0 0 0 0 0 0 0 0 0 0 0 0 0 0 0 0 0 0 0 0 0 0 0 0 0 0 0 0 0 0 0 0 0 0 0 0 0 0 0 0 0 0 0 0 0 0 0 0 0 0 0 0 0 0 
0 0 0 0 0 0 0 0 0 0 0 0 0 0 0 0 0 0 0 0 0 0 0 0 0 0 0 0 0 0 0 0 0 0 0 0 0 0 0 0 0 0 0 0 0 0 0 0 0 0 0 0 0 0 0 0 0 0 0 0 0 0 0 0 0 0 0 0 0 0 0 0 0 0 0 0 0 0 0 0 0 0 0 0 0 0 0 0 0 0 0 0 0 0 0 0 0 0 0 0 0 0 0 0 0 0 0 0 0 0 0 0 0 0 0 0 0 0 0 0 0 0 0 0 0 0 0 0 0 0 0 0 0 0 0 0 0 0 0 0 0 0 0 0 0 0 0 0 0 0 0 0 0 0 0 0 0 0 0 0 0 0 0 0 0 0 0 0 0 0 0 0 0 0 0 0 0 0 0 0 0 0 0 0 0 0 0 0 0 0 0 0 
0 0 0 0 0 0 0 0 0 0 0 0 0 0 0 0 0 0 0 0 0 0 0 0 0 0 0 0 0 0 0 0 0 0 0 0 0 0 0 0 0 0 0 0 0 0 0 0 0 0 0 0 0 0 0 0 0 0 0 0 0 0 0 0 0 0 0 0 0 0 0 0 0 0 0 0 0 0 0 0 0 0 0 0 0 0 0 0 0 0 0 0 0 0 0 0 0 0 0 0 0 0 0 0 0 0 0 0 0 0 0 0 0 0 0 0 0 0 0 0 0 0 0 0 0 0 0 0 0 0 0 0 0 0 0 0 0 0 0 0 0 0 0 0 0 0 0 0 0 0 0 0 0 0 0 0 0 0 0 0 0 0 0 0 0 0 0 0 0 0 0 0 0 0 0 0 0 0 0 0 0 0 0 0 0 0 0 0 0 0 0 0 
0 0 0 0 0 0 0 0 0 0 0 0 0 0 0 0 0 0 0 0 0 0 0 0 0 0 0 0 0 0 0 0 0 0 0 0 0 0 0 0 0 0 0 0 0 0 0 0 0 0 0 0 0 0 0 0 0 0 0 0 0 0 0 0 0 0 0 0 0 0 0 0 0 0 0 0 0 0 0 0 0 0 0 0 0 0 0 0 0 0 0 0 0 0 0 0 0 0 0 0 0 0 0 0 0 0 0 0 0 0 0 0 0 0 0 0 0 0 0 0 0 0 0 0 0 0 0 0 0 0 0 0 0 0 0 0 0 0 0 0 0 0 0 0 0 0 0 0 0 0 0 0 0 0 0 0 0 0 0 0 0 0 0 0 0 0 0 0 0 0 0 0 0 0 0 0 0 0 0 0 0 0 0 0 0 0 0 0 0 0 0 0 
0 0 0 0 0 0 0 0 0 0 0 0 0 0 0 0 0 0 0 0 0 0 0 0 0 0 0 0 0 0 0 0 0 0 0 0 0 0 0 0 0 0 0 0 0 0 0 0 0 0 0 0 0 0 0 0 0 0 0 0 0 0 0 0 0 0 0 0 0 0 0 0 0 0 0 0 0 0 0 0 0 0 0 0 0 0 0 0 0 0 0 0 0 0 0 0 0 0 0 0 0 0 0 0 0 0 0 0 0 0 0 0 0 0 0 0 0 0 0 0 0 0 0 0 0 0 0 0 0 0 0 0 0 0 0 0 0 0 0 0 0 0 0 0 0 0 0 0 0 0 0 0 0 0 0 0 0 0 0 0 0 0 0 0 0 0 0 0 0 0 0 0 0 0 0 0 0 0 0 0 0 0 0 0 0 0 0 0 0 0 0 0 
0 0 0 0 0 0 0 0 0 0 0 0 0 0 0 0 0 0 0 0 0 0 0 0 0 0 0 0 0 0 0 0 0 0 0 0 0 0 0 0 0 0 0 0 0 0 0 0 0 0 0 0 0 0 0 0 0 0 0 0 0 0 0 0 0 0 0 0 0 0 0 0 0 0 0 0 0 0 0 0 0 0 0 0 0 0 0 0 0 0 0 0 0 0 0 0 0 0 0 0 0 0 0 0 0 0 0 0 0 0 0 0 0 0 0 0 0 0 0 0 0 0 0 0 0 0 0 0 0 0 0 0 0 0 0 0 0 0 0 0 0 0 0 0 0 0 0 0 0 0 0 0 0 0 0 0 0 0 0 0 0 0 0 0 0 0 0 0 0 0 0 0 0 0 0 0 0 0 0 0 0 0 0 0 0 0 0 0 0 0 0 0 
0 0 0 0 0 0 0 0 0 0 0 0 0 0 0 0 0 0 0 0 0 0 0 0 0 0 0 0 0 0 0 0 0 0 0 0 0 0 0 0 0 0 0 0 0 0 0 0 0 0 0 0 0 0 0 0 0 0 0 0 0 0 0 0 0 0 0 0 0 0 0 0 0 0 0 0 0 0 0 0 0 0 0 0 0 0 0 0 0 0 0 0 0 0 0 0 0 0 0 0 0 0 0 0 0 0 0 0 0 0 0 0 0 0 0 0 0 0 0 0 0 0 0 0 0 0 0 0 0 0 0 0 0 0 0 0 0 0 0 0 0 0 0 0 0 0 0 0 0 0 0 0 0 0 0 0 0 0 0 0 0 0 0 0 0 0 0 0 0 0 0 0 0 0 0 0 0 0 0 0 0 0 0 0 0 0 0 0 0 0 0 0 
0 0 0 0 0 0 0 0 0 0 0 0 0 0 0 0 0 0 0 0 0 0 0 0 0 0 0 0 0 0 0 0 0 0 0 0 0 0 0 0 0 0 0 0 0 0 0 0 0 0 0 0 0 0 0 0 0 0 0 0 0 0 0 0 0 0 0 0 0 0 0 0 0 0 0 0 0 0 0 0 0 0 0 0 0 0 0 0 0 0 0 0 0 0 0 0 0 0 0 0 0 0 0 0 0 0 0 0 0 0 0 0 0 0 0 0 0 0 0 0 0 0 0 0 0 0 0 0 0 0 0 0 0 0 0 0 0 0 0 0 0 0 0 0 0 0 0 0 0 0 0 0 0 0 0 0 0 0 0 0 0 0 0 0 0 0 0 0 0 0 0 0 0 0 0 0 0 0 0 0 0 0 0 0 0 0 0 0 0 0 0 0 
0 0 0 0 0 0 0 0 0 0 0 0 0 0 0 0 0 0 0 0 0 0 0 0 0 0 0 0 0 0 0 0 0 0 0 0 0 0 0 0 0 0 0 0 0 0 0 0 0 0 0 0 0 0 0 0 0 0 0 0 0 0 0 0 0 0 0 0 0 0 0 0 0 0 0 0 0 0 0 0 0 0 0 0 0 0 0 0 0 0 0 0 0 0 0 0 0 0 0 0 0 0 0 0 0 0 0 0 0 0 0 0 0 0 0 0 0 0 0 0 0 0 0 0 0 0 0 0 0 0 0 0 0 0 0 0 0 0 0 0 0 0 0 0 0 0 0 0 0 0 0 0 0 0 0 0 0 0 0 0 0 0 0 0 0 0 0 0 0 0 0 0 0 0 0 0 0 0 0 0 0 0 0 0 0 0 0 0 0 0 0 0 
0 0 0 0 0 0 0 0 0 0 0 0 0 0 0 0 0 0 0 0 0 0 0 0 0 0 0 0 0 0 0 0 0 0 0 0 0 0 0 0 0 0 0 0 0 0 0 0 0 0 0 0 0 0 0 0 0 0 0 0 0 0 0 0 0 0 0 0 0 0 0 0 0 0 0 0 0 0 0 0 0 0 0 0 0 0 0 0 0 0 0 0 0 0 0 0 0 0 0 0 0 0 0 0 0 0 0 0 0 0 0 0 0 0 0 0 0 0 0 0 0 0 0 0 0 0 0 0 0 0 0 0 0 0 0 0 0 0 0 0 0 0 0 0 0 0 0 0 0 0 0 0 0 0 0 0 0 0 0 0 0 0 0 0 0 0 0 0 0 0 0 0 0 0 0 0 0 0 0 0 0 0 0 0 0 0 0 0 0 0 0 0 
0 0 0 0 0 0 0 0 0 0 0 0 0 0 0 0 0 0 0 0 0 0 0 0 0 0 0 0 0 0 0 0 0 0 0 0 0 0 0 0 0 0 0 0 0 0 0 0 0 0 0 0 0 0 0 0 0 0 0 0 0 0 0 0 0 0 0 0 0 0 0 0 0 0 0 0 0 0 0 0 0 0 0 0 0 0 0 0 0 0 0 0 0 0 0 0 0 0 0 0 0 0 0 0 0 0 0 0 0 0 0 0 0 0 0 0 0 0 0 0 0 0 0 0 0 0 0 0 0 0 0 0 0 0 0 0 0 0 0 0 0 0 0 0 0 0 0 0 0 0 0 0 0 0 0 0 0 0 0 0 0 0 0 0 0 0 0 0 0 0 0 0 0 0 0 0 0 0 0 0 0 0 0 0 0 0 0 0 0 0 0 0 
0 0 0 0 0 0 0 0 0 0 0 0 0 0 0 0 0 0 0 0 0 0 0 0 0 0 0 0 0 0 0 0 0 0 0 0 0 0 0 0 0 0 0 0 0 0 0 0 0 0 0 0 0 0 0 0 0 0 0 0 0 0 0 0 0 0 0 0 0 0 0 0 0 0 0 0 0 0 0 0 0 0 0 0 0 0 0 0 0 0 0 0 0 0 0 0 0 0 0 0 0 0 0 0 0 0 0 0 0 0 0 0 0 0 0 0 0 0 0 0 0 0 0 0 0 0 0 0 0 0 0 0 0 0 0 0 0 0 0 0 0 0 0 0 0 0 0 0 0 0 0 0 0 0 0 0 0 0 0 0 0 0 0 0 0 0 0 0 0 0 0 0 0 0 0 0 0 0 0 0 0 0 0 0 0 0 0 0 0 0 0 0 
0 0 0 0 0 0 0 0 0 0 0 0 0 0 0 0 0 0 0 0 0 0 0 0 0 0 0 0 0 0 0 0 0 0 0 0 0 0 0 0 0 0 0 0 0 0 0 0 0 0 0 0 0 0 0 0 0 0 0 0 0 0 0 0 0 0 0 0 0 0 0 0 0 0 0 0 0 0 0 0 0 0 0 0 0 0 0 0 0 0 0 0 0 0 0 0 0 0 0 0 0 0 0 0 0 0 0 0 0 0 0 0 0 0 0 0 0 0 0 0 0 0 0 0 0 0 0 0 0 0 0 0 0 0 0 0 0 0 0 0 0 0 0 0 0 0 0 0 0 0 0 0 0 0 0 0 0 0 0 0 0 0 0 0 0 0 0 0 0 0 0 0 0 0 0 0 0 0 0 0 0 0 0 0 0 0 0 0 0 0 0 0 
0 0 0 0 0 0 0 0 0 0 0 0 0 0 0 0 0 0 0 0 0 0 0 0 0 0 0 0 0 0 0 0 0 0 0 0 0 0 0 0 0 0 0 0 0 0 0 0 0 0 0 0 0 0 0 0 0 0 0 0 0 0 0 0 0 0 0 0 0 0 0 0 0 0 0 0 0 0 0 0 0 0 0 0 0 0 0 0 0 0 0 0 0 0 0 0 0 0 0 0 0 0 0 0 0 0 0 0 0 0 0 0 0 0 0 0 0 0 0 0 0 0 0 0 0 0 0 0 0 0 0 0 0 0 0 0 0 0 0 0 0 0 0 0 0 0 0 0 0 0 0 0 0 0 0 0 0 0 0 0 0 0 0 0 0 0 0 0 0 0 0 0 0 0 0 0 0 0 0 0 0 0 0 0 0 0 0 0 0 0 0 0 
0 0 0 0 0 0 0 0 0 0 0 0 0 0 0 0 0 0 0 0 0 0 0 0 0 0 0 0 0 0 0 0 0 0 0 0 0 0 0 0 0 0 0 0 0 0 0 0 0 0 0 0 0 0 0 0 0 0 0 0 0 0 0 0 0 0 0 0 0 0 0 0 0 0 0 0 0 0 0 0 0 0 0 0 0 0 0 0 0 0 0 0 0 0 0 0 0 0 0 0 0 0 0 0 0 0 0 0 0 0 0 0 0 0 0 0 0 0 0 0 0 0 0 0 0 0 0 0 0 0 0 0 0 0 0 0 0 0 0 0 0 0 0 0 0 0 0 0 0 0 0 0 0 0 0 0 0 0 0 0 0 0 0 0 0 0 0 0 0 0 0 0 0 0 0 0 0 0 0 0 0 0 0 0 0 0 0 0 0 0 0 0 
0 0 0 0 0 0 0 0 0 0 0 0 0 0 0 0 0 0 0 0 0 0 0 0 0 0 0 0 0 0 0 0 0 0 0 0 0 0 0 0 0 0 0 0 0 0 0 0 0 0 0 0 0 0 0 0 0 0 0 0 0 0 0 255 228 105 0 0 0 0 0 0 254 255 105 0 0 0 0 0 0 0 0 0 0 0 0 0 0 0 254 255 105 0 0 0 0 0 0 0 0 0 0 0 0 0 0 0 254 255 105 0 0 0 0 0 0 0 0 0 0 0 0 0 0 0 255 228 105 0 0 0 0 0 0 0 0 0 0 0 0 0 0 0 0 0 0 0 0 0 0 0 0 0 0 0 0 0 0 0 0 0 0 0 0 0 0 0 0 0 0 0 0 0 0 0 0 0 0 0 0 0 0 0 0 0 0 0 0 0 0 0 
0 0 0 0 0 0 0 0 0 0 0 0 0 0 0 0 0 0 0 0 0 0 0 0 0 0 0 0 0 0 0 0 0 0 0 0 0 0 0 0 0 0 0 0 0 0 0 0 0 0 0 0 0 0 0 0 0 0 0 0 255 209 0 255 255 18 0 0 0 254 255 105 255 245 0 255 221 0 0 0 0 0 0 0 0 0 0 254 255 105 255 245 0 255 221 0 0 0 0 0 0 0 0 0 0 254 255 105 255 245 0 255 221 0 0 0 0 0 0 0 0 0 0 254 255 105 255 245 0 255 221 0 0 0 0 0 0 0 0 0 0 0 0 0 0 0 0 0 0 0 0 0 0 0 0 0 0 0 0 0 0 0 0 0 0 0 0 0 0 0 0 0 0 0 0 0 0 0 0 0 0 0 0 0 0 0 0 0 0 0 0 0 
0 0 0 0 0 0 0 0 0 0 0 0 0 0 0 0 0 0 0 0 0 0 0 0 0 0 0 0 0 0 0 0 0 0 0 0 0 0 0 0 0 0 0 0 0 0 0 0 0 0 0 0 0 0 0 0 0 0 0 0 255 209 0 255 255 18 0 0 0 254 255 105 255 245 0 255 221 0 0 0 0 0 0 0 0 0 0 254 255 105 255 245 0 255 221 0 0 0 0 0 0 0 0 0 0 254 255 105 255 245 0 255 221 0 0 0 0 0 0 0 0 0 0 254 255 105 255 245 0 255 221 0 0 0 0 0 0 0 0 0 0 0 0 0 0 0 0 0 0 0 0 0 0 0 0 0 0 0 0 0 0 0 0 0 0 0 0 0 0 0 0 0 0 0 0 0 0 0 0 0 0 0 0 0 0 0 0 0 0 0 0 0 
0 0 0 0 0 0 0 0 0 0 0 0 0 0 0 0 0 0 0 0 0 0 0 0 0 0 0 0 0 0 0 0 0 0 0 0 0 0 0 0 0 0 0 0 0 0 0 0 0 0 0 0 0 0 0 0 0 0 0 0 255 209 0 255 255 18 250 240 33 255 245 0 255 245 0 255 245 0 255 221 0 0 0 0 254 255 105 255 245 0 255 245 0 255 245 0 255 221 0 0 0 0 254 255 105 255 245 0 255 245 0 255 245 0 255 221 0 0 0 0 254 255 105 255 245 0 255 245 0 255 221 0 0 0 0 0 0 0 0 0 0 0 0 0 0 0 0 0 0 0 0 0 0 0 0 0 0 0 0 0 0 0 0 0 0 0 0 0 0 0 0 0 0 0 0 0 0 0 0 0 0 0 0 0 0 0 0 0 0 0 0 0 
0 0 0 0 0 0 0 0 0 0 0 0 0 0 0 0 0 0 0 0 0 0 0 0 0 0 0 0 0 0 0 0 0 0 0 0 0 0 0 0 0 0 0 0 0 0 0 0 0 0 0 0 0 0 0 0 0 0 0 0 255 209 0 255 255 18 251 241 17 255 245 0 255 245 0 255 245 0 255 245 0 255 245 0 255 245 0 255 245 0 255 245 0 255 245 0 255 245 0 255 245 0 255 245 0 255 245 0 255 245 0 255 245 0 255 245 0 255 245 0 255 245 0 255 245 0 255 245 0 255 221 0 0 0 0 0 0 0 0 0 0 0 0 0 0 0 0 0 0 0 0 0 0 0 0 0 0 0 0 0 0 0 0 0 0 0 0 0 0 0 0 0 0 0 0 0 0 0 0 0 0 0 0 0 0 0 0 0 0 0 0 0 
0 0 0 0 0 0 0 0 0 0 0 0 0 0 0 0 0 0 0 0 0 0 0 0 0 0 0 0 0 0 0 0 0 0 0 0 0 0 0 0 0 0 0 0 0 0 0 0 0 0 0 0 0 0 0 0 0 0 0 0 255 209 0 255 255 18 251 241 17 255 245 0 255 245 0 255 245 0 255 245 0 255 245 0 255 245 0 255 245 0 255 245 0 255 245 0 255 245 0 255 245 0 255 245 0 255 245 0 255 245 0 255 245 0 255 245 0 255 245 0 255 245 0 255 245 0 255 245 0 255 221 0 0 0 0 0 0 0 0 0 0 0 0 0 0 0 0 0 0 0 0 0 0 0 0 0 0 0 0 0 0 0 0 0 0 0 0 0 0 0 0 0 0 0 0 0 0 0 0 0 0 0 0 0 0 0 0 0 0 0 0 0 
0 0 0 0 0 0 0 0 0 0 0 0 0 0 0 0 0 0 0 0 0 0 0 0 0 0 0 0 0 0 0 0 0 0 0 0 0 0 0 0 0 0 0 0 0 0 0 0 0 0 0 0 0 0 0 0 0 0 0 0 255 209 0 255 255 18 248 255 0 248 255 0 248 255 0 248 255 0 248 255 0 248 255 0 248 255 0 248 255 0 248 255 0 248 255 0 248 255 0 248 255 0 248 255 0 248 255 0 248 255 0 248 255 0 248 255 0 248 255 0 248 255 0 248 255 0 255 229 20 255 229 20 0 0 0 0 0 0 0 0 0 0 0 0 0 0 0 0 0 0 0 0 0 0 0 0 0 0 0 0 0 0 0 0 0 0 0 0 0 0 0 0 0 0 0 0 0 0 0 0 0 0 0 0 0 0 0 0 0 0 0 0 
0 0 0 0 0 0 0 0 0 0 0 0 0 0 0 0 0 0 0 0 0 0 0 0 0 0 0 0 0 0 0 0 0 0 0 0 0 0 0 0 0 0 0 0 0 0 0 0 0 0 0 0 0 0 0 0 0 1 0 0 1 0 0 106 190 48 106 190 48 106 190 48 106 190 48 106 190 48 106 190 48 106 190 48 106 190 48 106 190 48 106 190 48 106 190 48 106 190 48 106 190 48 106 190 48 106 190 48 106 190 48 106 190 48 106 190 48 106 190 48 106 190 48 106 190 48 106 190 48 1 0 0 1 0 0 0 0 0 0 0 0 0 0 0 0 0 0 0 0 0 0 0 0 0 0 0 0 0 0 0 0 0 0 0 0 0 0 0 0 0 0 0 0 0 0 0 0 0 0 0 0 0 0 0 0 0 0 0 0 0 0 0 
0 0 0 0 0 0 0 0 0 0 0 0 0 0 0 0 0 0 0 0 0 0 0 0 0 0 0 0 0 0 0 0 0 0 0 0 0 0 0 0 0 0 0 0 0 0 0 0 0 0 0 1 0 0 1 0 0 106 190 48 106 190 48 106 190 48 106 190 48 106 190 48 106 190 48 106 190 48 106 190 48 106 190 48 106 190 48 106 190 48 106 190 48 106 190 48 106 190 48 106 190 48 106 190 48 106 190 48 106 190 48 106 190 48 106 190 48 106 190 48 106 190 48 106 190 48 106 190 48 106 190 48 106 190 48 1 0 0 1 0 0 0 0 0 0 0 0 0 0 0 0 0 0 0 0 0 0 0 0 0 0 0 0 0 0 0 0 0 0 0 0 0 0 0 0 0 0 0 0 0 0 0 0 0 0 0 0 0 0 0 0 0 
0 0 0 0 0 0 0 0 0 0 0 0 0 0 0 0 0 0 0 0 0 0 0 0 0 0 0 0 0 0 0 0 0 0 0 0 0 0 0 0 0 0 0 0 0 1 0 0 1 0 0 106 190 48 106 190 48 106 190 48 106 190 48 106 190 48 106 190 48 106 190 48 106 190 48 106 190 48 106 190 48 106 190 48 106 190 48 106 190 48 106 190 48 106 190 48 106 190 48 106 190 48 106 190 48 106 190 48 106 190 48 106 190 48 106 190 48 106 190 48 106 190 48 106 190 48 106 190 48 106 190 48 106 190 48 106 190 48 106 190 48 1 0 0 1 0 0 0 0 0 0 0 0 0 0 0 0 0 0 0 0 0 0 0 0 0 0 0 0 0 0 0 0 0 0 0 0 0 0 0 0 0 0 0 0 0 0 0 0 0 0 0 
0 0 0 0 0 0 0 0 0 0 0 0 0 0 0 0 0 0 0 0 0 0 0 0 0 0 0 0 0 0 0 0 0 0 0 0 0 0 0 0 0 0 1 0 0 106 190 48 106 190 48 106 190 48 106 190 48 123 241 42 123 241 42 123 241 42 123 241 42 123 241 42 106 190 48 106 190 48 106 190 48 106 190 48 106 190 48 106 190 48 106 190 48 106 190 48 106 190 48 106 190 48 106 190 48 106 190 48 106 190 48 106 190 48 106 190 48 106 190 48 106 190 48 106 190 48 106 190 48 106 190 48 106 190 48 106 190 48 106 190 48 81 162 26 81 162 26 1 0 0 0 0 0 0 0 0 0 0 0 0 0 0 0 0 0 0 0 0 0 0 0 0 0 0 0 0 0 0 0 0 0 0 0 0 0 0 0 0 0 0 0 0 
0 0 0 0 0 0 0 0 0 0 0 0 0 0 0 0 0 0 0 0 0 0 0 0 0 0 0 0 0 0 0 0 0 0 0 0 1 0 0 1 0 0 106 190 48 106 190 48 106 190 48 123 241 42 123 241 42 123 241 42 123 241 42 123 241 42 123 241 42 123 241 42 106 190 48 106 190 48 106 190 48 106 190 48 106 190 48 106 190 48 106 190 48 106 190 48 106 190 48 106 190 48 106 190 48 106 190 48 106 190 48 106 190 48 106 190 48 106 190 48 106 190 48 106 190 48 106 190 48 106 190 48 106 190 48 106 190 48 106 190 48 106 190 48 81 162 26 81 162 26 1 0 0 1 0 0 0 0 0 0 0 0 0 0 0 0 0 0 0 0 0 0 0 0 0 0 0 0 0 0 0 0 0 0 0 0 0 0 0 0 0 0 
0 0 0 0 0 0 0 0 0 0 0 0 0 0 0 0 0 0 0 0 0 0 0 0 0 0 0 0 0 0 1 0 0 1 0 0 106 190 48 106 190 48 106 190 48 106 190 48 106 190 48 123 241 42 123 241 42 123 241 42 123 241 42 123 241 42 123 241 42 123 241 42 106 190 48 106 190 48 106 190 48 106 190 48 106 190 48 106 190 48 106 190 48 106 190 48 106 190 48 106 190 48 106 190 48 106 190 48 106 190 48 106 190 48 106 190 48 106 190 48 106 190 48 106 190 48 106 190 48 106 190 48 106 190 48 106 190 48 106 190 48 106 190 48 106 190 48 81 162 26 81 162 26 81 162 26 1 0 0 1 0 0 0 0 0 0 0 0 0 0 0 0 0 0 0 0 0 0 0 0 0 0 0 0 0 0 0 0 0 0 0 0 
0 0 0 0 0 0 0 0 0 0 0 0 0 0 0 0 0 0 0 0 0 0 0 0 0 0 0 1 0 0 106 190 48 106 190 48 106 190 48 106 190 48 106 190 48 123 241 42 123 241 42 123 241 42 123 241 42 123 241 42 123 241 42 123 241 42 123 241 42 106 190 48 106 190 48 106 190 48 106 190 48 106 190 48 106 190 48 106 190 48 106 190 48 106 190 48 106 190 48 106 190 48 106 190 48 106 190 48 106 190 48 106 190 48 106 190 48 106 190 48 106 190 48 106 190 48 106 190 48 106 190 48 106 190 48 106 190 48 106 190 48 106 190 48 106 190 48 81 162 26 81 162 26 81 162 26 81 162 26 81 162 26 1 0 0 0 0 0 0 0 0 0 0 0 0 0 0 0 0 0 0 0 0 0 0 0 0 0 0 0 0 0 
0 0 0 0 0 0 0 0 0 0 0 0 0 0 0 0 0 0 0 0 0 0 0 0 1 0 0 106 190 48 106 190 48 106 190 48 106 190 48 106 190 48 123 241 42 123 241 42 123 241 42 123 241 42 123 241 42 123 241 42 123 241 42 123 241 42 106 190 48 106 190 48 106 190 48 106 190 48 106 190 48 106 190 48 106 190 48 106 190 48 106 190 48 106 190 48 106 190 48 106 190 48 106 190 48 106 190 48 106 190 48 106 190 48 106 190 48 106 190 48 106 190 48 106 190 48 106 190 48 106 190 48 106 190 48 106 190 48 106 190 48 106 190 48 106 190 48 106 190 48 81 162 26 81 162 26 81 162 26 81 162 26 81 162 26 1 0 0 0 0 0 0 0 0 0 0 0 0 0 0 0 0 0 0 0 0 0 0 0 0 0 0 
0 0 0 0 0 0 0 0 0 0 0 0 0 0 0 0 0 0 0 0 0 1 0 0 106 190 48 106 190 48 106 190 48 106 190 48 106 190 48 123 241 42 123 241 42 123 241 42 123 241 42 123 241 42 123 241 42 123 241 42 123 241 42 106 190 48 106 190 48 106 190 48 106 190 48 106 190 48 106 190 48 106 190 48 106 190 48 106 190 48 114 169 62 114 169 62 114 169 62 114 169 62 106 190 48 106 190 48 106 190 48 106 190 48 106 190 48 106 190 48 106 190 48 106 190 48 106 190 48 106 190 48 106 190 48 106 190 48 106 190 48 106 190 48 106 190 48 106 190 48 81 162 26 81 162 26 81 162 26 81 162 26 81 162 26 81 162 26 1 0 0 0 0 0 0 0 0 0 0 0 0 0 0 0 0 0 0 0 0 0 0 0 
0 0 0 0 0 0 0 0 0 0 0 0 0 0 0 0 0 0 1 0 0 106 190 48 106 190 48 106 190 48 106 190 48 123 241 42 123 241 42 123 241 42 123 241 42 123 241 42 123 241 42 123 241 42 123 241 42 123 241 42 106 190 48 106 190 48 106 190 48 106 190 48 106 190 48 106 190 48 106 190 48 106 190 48 114 169 62 114 169 62 114 169 62 114 169 62 114 169 62 114 169 62 114 169 62 114 169 62 106 190 48 106 190 48 106 190 48 106 190 48 106 190 48 106 190 48 106 190 48 106 190 48 106 190 48 106 190 48 106 190 48 106 190 48 106 190 48 106 190 48 106 190 48 81 162 26 81 162 26 81 162 26 81 162 26 81 162 26 81 162 26 1 0 0 0 0 0 0 0 0 0 0 0 0 0 0 0 0 0 0 0 0 
0 0 0 0 0 0 0 0 0 0 0 0 0 0 0 1 0 0 106 190 48 106 190 48 106 190 48 106 190 48 123 241 42 123 241 42 123 241 42 123 241 42 123 241 42 123 241 42 123 241 42 123 241 42 106 190 48 106 190 48 106 190 48 106 190 48 106 190 48 106 190 48 106 190 48 106 190 48 114 169 62 114 169 62 114 169 62 114 169 62 114 169 62 73 119 29 73 119 29 114 169 62 114 169 62 114 169 62 114 169 62 114 169 62 106 190 48 106 190 48 106 190 48 106 190 48 106 190 48 106 190 48 106 190 48 106 190 48 106 190 48 106 190 48 106 190 48 106 190 48 106 190 48 81 162 26 81 162 26 81 162 26 81 162 26 81 162 26 81 162 26 81 162 26 1 0 0 0 0 0 0 0 0 0 0 0 0 0 0 0 0 0 
0 0 0 0 0 0 0 0 0 0 0 0 1 0 0 106 190 48 106 190 48 106 190 48 123 241 42 123 241 42 123 241 42 123 241 42 123 241 42 123 241 42 123 241 42 123 241 42 123 241 42 106 190 48 106 190 48 106 190 48 106 190 48 106 190 48 106 190 48 106 190 48 106 190 48 114 169 62 114 169 62 114 169 62 73 119 29 73 119 29 73 119 29 73 119 29 73 119 29 73 119 29 73 119 29 73 119 29 114 169 62 114 169 62 114 169 62 106 190 48 106 190 48 106 190 48 106 190 48 106 190 48 106 190 48 106 190 48 106 190 48 106 190 48 106 190 48 106 190 48 106 190 48 81 162 26 81 162 26 81 162 26 81 162 26 81 162 26 81 162 26 81 162 26 81 162 26 1 0 0 0 0 0 0 0 0 0 0 0 0 0 0 
0 0 0 0 0 0 0 0 0 1 0 0 106 190 48 106 190 48 106 190 48 106 190 48 123 241 42 123 241 42 123 241 42 123 241 42 123 241 42 123 241 42 123 241 42 106 190 48 106 190 48 106 190 48 106 190 48 106 190 48 106 190 48 106 190 48 106 190 48 106 190 48 114 169 62 114 169 62 73 119 29 73 119 29 73 119 29 73 119 29 73 119 29 73 119 29 73 119 29 73 119 29 73 119 29 73 119 29 73 119 29 73 119 29 114 169 62 114 169 62 106 190 48 106 190 48 106 190 48 106 190 48 106 190 48 106 190 48 106 190 48 106 190 48 106 190 48 106 190 48 106 190 48 81 162 26 81 162 26 81 162 26 81 162 26 81 162 26 81 162 26 81 162 26 81 162 26 81 162 26 1 0 0 0 0 0 0 0 0 0 0 0 
0 0 0 0 0 0 0 0 0 1 0 0 106 190 48 106 190 48 106 190 48 106 190 48 123 241 42 123 241 42 123 241 42 123 241 42 123 241 42 106 190 48 106 190 48 106 190 48 106 190 48 106 190 48 106 190 48 106 190 48 106 190 48 106 190 48 106 190 48 106 190 48 114 169 62 114 169 62 73 119 29 73 119 29 73 119 29 73 119 29 73 119 29 73 119 29 73 119 29 73 119 29 73 119 29 73 119 29 73 119 29 73 119 29 114 169 62 114 169 62 106 190 48 106 190 48 106 190 48 106 190 48 106 190 48 106 190 48 106 190 48 106 190 48 106 190 48 106 190 48 106 190 48 81 162 26 81 162 26 81 162 26 81 162 26 81 162 26 81 162 26 81 162 26 81 162 26 81 162 26 1 0 0 0 0 0 0 0 0 0 0 0 
0 0 0 0 0 0 1 0 0 106 190 48 106 190 48 106 190 48 106 190 48 106 190 48 106 190 48 106 190 48 106 190 48 106 190 48 106 190 48 106 190 48 106 190 48 106 190 48 106 190 48 106 190 48 106 190 48 106 190 48 106 190 48 106 190 48 106 190 48 106 190 48 114 169 62 114 169 62 114 169 62 73 119 29 73 119 29 73 119 29 73 119 29 73 119 29 73 119 29 73 119 29 73 119 29 73 119 29 73 119 29 114 169 62 114 169 62 114 169 62 106 190 48 106 190 48 106 190 48 106 190 48 106 190 48 106 190 48 106 190 48 106 190 48 106 190 48 106 190 48 106 190 48 81 162 26 81 162 26 81 162 26 81 162 26 81 162 26 81 162 26 81 162 26 81 162 26 81 162 26 81 162 26 1 0 0 0 0 0 0 0 0 
0 0 0 0 0 0 1 0 0 106 190 48 106 190 48 106 190 48 106 190 48 106 190 48 106 190 48 106 190 48 106 190 48 106 190 48 106 190 48 106 190 48 106 190 48 106 190 48 106 190 48 106 190 48 106 190 48 106 190 48 106 190 48 106 190 48 106 190 48 106 190 48 106 190 48 114 169 62 114 169 62 114 169 62 114 169 62 114 169 62 114 169 62 114 169 62 114 169 62 114 169 62 114 169 62 114 169 62 114 169 62 114 169 62 114 169 62 106 190 48 106 190 48 106 190 48 106 190 48 106 190 48 106 190 48 106 190 48 106 190 48 106 190 48 106 190 48 106 190 48 81 162 26 81 162 26 81 162 26 81 162 26 81 162 26 81 162 26 81 162 26 81 162 26 81 162 26 81 162 26 81 162 26 1 0 0 0 0 0 0 0 0 
0 0 0 0 0 0 1 0 0 106 190 48 106 190 48 106 190 48 106 190 48 106 190 48 106 190 48 106 190 48 106 190 48 106 190 48 106 190 48 106 190 48 106 190 48 106 190 48 106 190 48 106 190 48 106 190 48 106 190 48 106 190 48 106 190 48 106 190 48 106 190 48 106 190 48 106 190 48 106 190 48 106 190 48 106 190 48 106 190 48 106 190 48 106 190 48 106 190 48 106 190 48 106 190 48 106 190 48 106 190 48 106 190 48 106 190 48 106 190 48 106 190 48 106 190 48 106 190 48 106 190 48 106 190 48 106 190 48 106 190 48 106 190 48 106 190 48 81 162 26 81 162 26 81 162 26 81 162 26 81 162 26 81 162 26 81 162 26 81 162 26 81 162 26 81 162 26 81 162 26 81 162 26 1 0 0 0 0 0 0 0 0 
0 0 0 0 0 0 1 0 0 106 190 48 106 190 48 106 190 48 106 190 48 106 190 48 106 190 48 106 190 48 106 190 48 106 190 48 106 190 48 106 190 48 106 190 48 106 190 48 106 190 48 106 190 48 106 190 48 106 190 48 106 190 48 106 190 48 106 190 48 106 190 48 106 190 48 106 190 48 106 190 48 106 190 48 106 190 48 106 190 48 106 190 48 106 190 48 106 190 48 106 190 48 106 190 48 106 190 48 106 190 48 106 190 48 106 190 48 106 190 48 106 190 48 106 190 48 106 190 48 106 190 48 106 190 48 106 190 48 106 190 48 106 190 48 81 162 26 81 162 26 81 162 26 81 162 26 81 162 26 81 162 26 81 162 26 81 162 26 81 162 26 81 162 26 81 162 26 81 162 26 81 162 26 1 0 0 0 0 0 0 0 0 
0 0 0 0 0 0 1 0 0 106 190 48 106 190 48 106 190 48 106 190 48 106 190 48 106 190 48 106 190 48 106 190 48 106 190 48 106 190 48 106 190 48 106 190 48 106 190 48 106 190 48 106 190 48 106 190 48 106 190 48 106 190 48 106 190 48 106 190 48 106 190 48 106 190 48 106 190 48 106 190 48 106 190 48 106 190 48 106 190 48 106 190 48 106 190 48 106 190 48 106 190 48 106 190 48 106 190 48 106 190 48 106 190 48 106 190 48 106 190 48 106 190 48 106 190 48 106 190 48 106 190 48 106 190 48 106 190 48 106 190 48 106 190 48 81 162 26 81 162 26 81 162 26 81 162 26 81 162 26 81 162 26 81 162 26 81 162 26 81 162 26 81 162 26 81 162 26 81 162 26 81 162 26 1 0 0 0 0 0 0 0 0 
0 0 0 0 0 0 1 0 0 106 190 48 106 190 48 106 190 48 106 190 48 106 190 48 106 190 48 106 190 48 106 190 48 106 190 48 106 190 48 106 190 48 106 190 48 106 190 48 106 190 48 106 190 48 106 190 48 106 190 48 106 190 48 106 190 48 106 190 48 106 190 48 106 190 48 106 190 48 106 190 48 106 190 48 106 190 48 106 190 48 106 190 48 106 190 48 106 190 48 106 190 48 106 190 48 106 190 48 106 190 48 106 190 48 106 190 48 106 190 48 106 190 48 106 190 48 106 190 48 106 190 48 106 190 48 81 162 26 81 162 26 81 162 26 81 162 26 81 162 26 81 162 26 81 162 26 81 162 26 81 162 26 81 162 26 81 162 26 81 162 26 81 162 26 81 162 26 81 162 26 81 162 26 1 0 0 0 0 0 0 0 0 
0 0 0 0 0 0 0 0 0 1 0 0 106 190 48 106 190 48 106 190 48 106 190 48 106 190 48 106 190 48 106 190 48 106 190 48 106 190 48 106 190 48 106 190 48 106 190 48 106 190 48 106 190 48 106 190 48 106 190 48 106 190 48 106 190 48 106 190 48 106 190 48 106 190 48 106 190 48 106 190 48 106 190 48 106 190 48 106 190 48 106 190 48 106 190 48 106 190 48 106 190 48 106 190 48 81 162 26 81 162 26 81 162 26 81 162 26 81 162 26 81 162 26 81 162 26 81 162 26 81 162 26 81 162 26 81 162 26 81 162 26 81 162 26 81 162 26 81 162 26 81 162 26 81 162 26 81 162 26 81 162 26 81 162 26 81 162 26 81 162 26 81 162 26 81 162 26 81 162 26 1 0 0 0 0 0 0 0 0 0 0 0 
0 0 0 0 0 0 0 0 0 0 0 0 1 0 0 106 190 48 106 190 48 106 190 48 106 190 48 106 190 48 106 190 48 106 190 48 106 190 48 106 190 48 106 190 48 106 190 48 106 190 48 106 190 48 106 190 48 106 190 48 106 190 48 106 190 48 106 190 48 106 190 48 106 190 48 106 190 48 81 162 26 81 162 26 81 162 26 81 162 26 81 162 26 81 162 26 81 162 26 81 162 26 81 162 26 81 162 26 81 162 26 81 162 26 81 162 26 81 162 26 81 162 26 81 162 26 81 162 26 81 162 26 81 162 26 81 162 26 81 162 26 81 162 26 81 162 26 81 162 26 81 162 26 81 162 26 81 162 26 81 162 26 81 162 26 81 162 26 81 162 26 81 162 26 81 162 26 1 0 0 0 0 0 0 0 0 0 0 0 0 0 0 
0 0 0 0 0 0 0 0 0 0 0 0 0 0 0 1 0 0 1 0 0 106 190 48 106 190 48 106 190 48 106 190 48 106 190 48 106 190 48 106 190 48 106 190 48 106 190 48 106 190 48 106 190 48 106 190 48 81 162 26 81 162 26 81 162 26 81 162 26 81 162 26 81 162 26 81 162 26 81 162 26 81 162 26 81 162 26 81 162 26 81 162 26 81 162 26 81 162 26 81 162 26 81 162 26 81 162 26 81 162 26 81 162 26 81 162 26 81 162 26 81 162 26 81 162 26 81 162 26 81 162 26 81 162 26 81 162 26 81 162 26 81 162 26 81 162 26 81 162 26 81 162 26 81 162 26 81 162 26 81 162 26 81 162 26 81 162 26 81 162 26 1 0 0 1 0 0 0 0 0 0 0 0 0 0 0 0 0 0 0 0 0 
0 0 0 0 0 0 0 0 0 0 0 0 0 0 0 0 0 0 0 0 0 1 0 0 1 0 0 106 190 48 106 190 48 106 190 48 106 190 48 106 190 48 106 190 48 106 190 48 106 190 48 81 162 26 81 162 26 81 162 26 81 162 26 81 162 26 81 162 26 81 162 26 81 162 26 81 162 26 81 162 26 81 162 26 81 162 26 81 162 26 81 162 26 81 162 26 81 162 26 81 162 26 81 162 26 81 162 26 81 162 26 81 162 26 81 162 26 81 162 26 81 162 26 81 162 26 81 162 26 81 162 26 81 162 26 81 162 26 81 162 26 81 162 26 81 162 26 81 162 26 81 162 26 81 162 26 81 162 26 81 162 26 81 162 26 1 0 0 1 0 0 0 0 0 0 0 0 0 0 0 0 0 0 0 0 0 0 0 0 0 0 0 
0 0 0 0 0 0 0 0 0 0 0 0 0 0 0 0 0 0 0 0 0 0 0 0 0 0 0 1 0 0 1 0 0 1 0 0 1 0 0 1 0 0 1 0 0 1 0 0 1 0 0 1 0 0 1 0 0 1 0 0 1 0 0 1 0 0 1 0 0 1 0 0 1 0 0 1 0 0 1 0 0 1 0 0 1 0 0 1 0 0 1 0 0 1 0 0 1 0 0 1 0 0 1 0 0 1 0 0 1 0 0 1 0 0 1 0 0 1 0 0 1 0 0 1 0 0 1 0 0 1 0 0 1 0 0 1 0 0 1 0 0 1 0 0 1 0 0 1 0 0 1 0 0 1 0 0 1 0 0 1 0 0 1 0 0 0 0 0 0 0 0 0 0 0 0 0 0 0 0 0 0 0 0 0 0 0 0 0 0 0 0 0 
