P3
64 64
255
207 127 69 199 120 59 199 119 59 199 120 61 197 119 59 200 121 62 196 118 57 198 119 59 201 123 61 203 125 65 206 128 67 196 119 59 201 123 63 195 117 58 208 130 68 203 125 64 209 131 68 206 129 66 203 126 63 208 131 68 201 124 60 207 130 66 205 128 65 210 134 71 209 133 70 201 125 63 201 125 61 203 127 64 200 123 62 205 129 67 201 125 61 203 127 64 204 128 64 199 123 60 204 128 65 210 134 71 203 128 64 205 130 68 213 138 75 198 123 58 209 133 71 209 134 71 202 126 68 197 121 63 209 133 72 204 129 68 208 133 72 206 131 70 211 134 72 204 129 63 210 139 69 212 138 69 209 135 67 212 137 70 211 135 70 207 130 68 203 128 63 204 129 64 213 138 73 206 131 64 210 132 70 219 139 78 211 130 70 216 136 75 
194 117 62 201 124 66 193 116 59 200 121 63 202 123 65 198 118 61 200 122 67 207 129 72 204 126 66 198 120 61 207 129 68 200 123 64 201 124 63 200 123 62 196 119 58 196 119 60 191 113 56 196 118 61 191 113 57 202 125 68 203 126 64 197 121 59 197 120 58 204 126 67 197 120 59 200 123 62 204 126 65 199 121 61 203 122 64 196 116 58 196 115 58 199 123 62 201 125 64 201 125 65 198 120 63 199 121 62 198 121 60 197 120 63 208 132 72 197 121 61 193 118 58 202 126 68 204 128 68 200 124 65 210 135 75 207 130 69 202 124 65 196 120 57 210 136 69 213 140 70 222 149 75 218 147 76 225 154 83 219 149 74 215 144 76 215 141 73 220 147 79 217 143 75 223 149 81 211 136 68 213 137 70 205 130 62 211 136 68 214 139 72 
197 121 59 203 126 66 201 125 61 204 128 66 203 128 65 209 133 71 206 130 67 212 136 74 212 137 75 204 128 66 214 138 73 211 135 71 211 136 69 211 136 70 216 141 75 216 141 76 218 145 77 211 136 73 211 137 73 215 141 74 209 137 69 217 145 77 210 137 71 221 148 82 220 148 81 219 146 78 213 140 70 219 146 78 224 150 83 217 144 76 216 143 75 219 146 78 218 145 78 222 149 81 222 149 81 207 134 69 209 136 73 216 141 78 211 135 70 210 135 70 210 132 70 209 131 71 215 138 79 193 116 57 204 128 69 212 135 74 202 125 67 213 137 75 214 138 71 213 137 73 218 142 77 211 136 71 206 131 66 222 147 82 221 148 77 215 142 73 216 138 72 213 134 69 218 140 74 207 129 65 224 145 82 215 137 73 215 135 74 210 130 69 
197 117 60 189 110 53 188 110 53 190 112 53 193 115 57 191 114 55 189 112 49 199 123 58 194 117 55 201 122 62 200 122 61 193 115 55 206 129 66 197 120 56 196 120 57 200 123 61 194 118 55 196 120 61 200 123 61 207 130 67 206 129 67 202 126 64 214 137 76 207 130 68 203 127 62 205 129 64 209 135 71 205 131 67 211 135 72 216 140 77 215 139 75 207 131 69 216 140 77 213 137 74 218 142 81 215 140 76 207 132 68 213 138 74 217 142 80 197 122 61 187 110 52 192 114 58 196 117 60 188 108 52 185 105 49 201 121 65 185 104 51 192 113 56 190 109 56 200 121 64 203 124 67 207 129 67 207 129 67 198 119 62 199 123 61 208 134 67 207 131 66 199 124 59 202 127 62 205 127 63 216 138 74 215 137 73 208 129 66 206 128 64 
194 115 60 194 116 62 196 120 66 195 120 61 189 112 54 201 125 65 207 132 69 215 141 76 206 132 67 209 135 69 214 140 75 208 135 68 213 138 74 212 138 73 202 127 62 215 140 75 214 140 74 206 132 71 212 138 76 213 139 77 205 132 70 203 129 68 208 134 72 211 137 75 206 133 71 208 134 73 212 136 73 205 129 68 205 128 68 207 131 70 203 127 68 205 130 70 204 128 68 203 127 68 210 132 73 213 136 75 212 134 73 210 133 73 206 129 69 205 128 69 205 129 69 204 127 69 193 116 58 202 125 64 197 120 59 210 135 74 219 144 83 210 135 74 208 133 68 224 151 78 232 160 86 229 156 85 231 157 89 229 155 86 223 152 83 230 159 90 220 147 75 227 155 83 219 147 73 216 144 72 221 148 79 221 148 79 217 143 72 207 132 64 
191 111 61 186 107 54 188 110 57 186 108 58 189 110 59 194 114 61 192 112 59 201 122 67 198 120 64 189 112 56 192 116 62 187 111 56 194 118 64 192 116 60 198 123 65 200 125 67 197 122 64 201 123 70 194 116 63 201 123 69 197 116 62 198 117 63 199 119 64 205 126 68 203 125 67 201 123 65 204 125 70 198 120 66 202 122 67 201 121 66 211 130 76 201 124 68 196 119 63 198 121 65 200 122 67 195 118 62 188 110 54 202 125 67 198 120 62 199 121 64 205 125 71 190 110 54 187 106 54 195 114 62 205 125 70 203 123 67 203 123 68 196 116 60 200 123 64 205 129 65 200 123 61 195 119 55 205 128 67 205 129 67 214 138 71 201 125 60 211 136 69 208 132 66 208 132 68 204 129 64 210 134 68 214 139 71 194 119 55 207 131 65 
210 129 69 211 131 71 206 126 68 209 129 71 209 129 74 206 126 71 208 127 70 205 125 66 211 131 72 210 128 72 217 135 78 194 113 59 205 125 68 200 120 63 194 119 58 206 131 70 208 132 71 213 138 75 213 138 74 218 143 79 214 138 77 210 134 73 210 134 71 194 118 59 202 126 67 204 128 68 209 133 72 208 132 69 207 133 68 206 132 67 199 125 61 204 127 64 201 125 62 202 126 62 205 127 67 201 123 63 198 121 62 192 115 57 190 112 55 197 120 61 196 118 60 196 118 62 201 122 68 197 119 62 202 124 66 206 128 68 198 120 63 209 133 68 207 130 68 210 134 68 205 129 64 210 134 69 201 125 59 197 121 55 218 139 74 215 136 74 208 130 66 204 126 64 199 120 63 198 119 60 201 122 63 192 113 56 205 127 66 206 128 67 
166 95 54 177 106 61 173 103 54 182 106 62 173 98 53 177 102 56 186 114 65 177 107 57 177 107 58 174 101 55 178 106 59 184 109 62 187 111 64 183 108 60 179 107 55 181 109 57 186 114 62 176 106 55 187 117 66 181 110 56 184 112 59 185 113 59 185 113 58 182 111 56 187 116 61 186 115 62 186 114 61 191 119 64 193 119 65 189 116 61 187 113 60 185 113 59 179 107 53 186 113 59 186 112 61 189 115 63 189 116 65 182 108 57 178 103 53 183 108 57 196 122 69 180 107 54 190 116 64 190 115 63 193 119 65 201 127 71 198 124 68 203 130 67 205 132 71 197 124 63 201 128 64 200 127 63 203 129 65 202 129 65 194 117 57 198 121 62 202 125 66 201 124 64 206 128 70 198 120 60 209 132 71 203 126 65 210 135 73 206 131 65 
211 132 72 201 122 64 205 128 65 197 120 60 206 128 67 198 120 59 202 124 64 208 132 70 207 131 71 208 132 72 196 121 58 208 133 72 206 131 69 202 127 63 206 132 67 208 133 68 207 132 67 207 134 69 207 132 66 212 137 71 209 135 71 208 134 70 206 132 68 203 129 65 207 134 70 211 138 74 209 135 70 202 128 63 206 130 64 207 131 67 205 129 65 210 134 69 207 132 67 210 135 70 213 137 74 207 132 68 215 140 76 211 136 74 200 124 65 203 127 69 205 128 68 211 134 73 202 127 65 206 131 68 204 129 66 212 136 72 208 133 69 221 146 79 222 148 76 221 148 75 227 154 83 217 142 70 223 147 80 213 137 70 215 137 73 217 138 75 212 136 69 213 137 71 220 144 78 219 143 81 211 135 73 218 142 80 216 140 78 218 143 78 
206 126 66 205 128 70 202 125 65 200 122 61 203 125 63 207 130 69 211 133 71 206 130 68 206 130 68 206 131 69 209 134 71 214 139 74 208 132 68 207 132 66 204 130 63 213 138 71 212 137 70 211 136 69 213 140 71 209 136 67 213 139 73 210 137 69 211 137 70 204 130 64 206 133 67 211 137 71 197 123 59 209 136 73 207 134 68 206 133 66 201 128 63 204 129 66 205 129 68 203 127 65 211 135 73 206 130 69 213 138 76 201 126 64 207 132 71 203 127 69 203 127 69 202 126 68 200 119 67 194 113 60 197 116 63 198 118 60 188 109 52 201 121 63 198 117 61 196 115 59 201 118 68 193 111 56 189 107 51 198 118 59 198 120 58 195 117 55 203 124 68 190 110 57 197 117 64 194 115 58 195 115 59 204 125 69 196 115 60 197 116 60 
203 123 65 195 117 58 194 117 56 192 112 53 202 123 63 199 120 59 203 125 63 189 111 51 190 112 53 200 123 62 196 117 57 194 115 56 189 111 51 198 120 60 212 135 73 196 119 58 204 127 68 198 121 60 197 120 60 207 130 70 204 127 67 203 126 65 212 135 74 208 131 70 206 129 68 192 115 55 207 130 70 196 120 60 201 124 62 203 126 65 198 120 60 199 122 63 197 120 61 200 122 64 197 117 61 194 115 57 193 114 55 195 115 58 196 116 59 198 118 61 197 116 64 192 112 59 202 121 66 201 120 66 205 125 70 209 129 72 203 123 66 208 129 71 194 113 57 196 114 61 192 111 55 190 109 54 195 115 59 198 119 63 195 114 59 198 116 61 200 119 64 204 123 68 196 114 60 197 116 61 201 120 65 198 117 62 209 130 73 208 129 72 
201 122 65 204 125 67 197 118 61 196 117 58 200 121 60 201 122 59 198 120 58 199 121 60 200 123 61 203 125 63 195 116 55 195 116 56 197 120 58 205 128 66 202 126 62 192 114 53 193 114 55 197 119 60 188 109 51 187 109 50 185 106 48 192 113 55 193 114 56 203 122 64 196 116 58 190 110 51 197 119 61 190 113 54 199 119 61 197 117 58 200 120 62 194 116 58 193 115 58 195 117 60 190 110 55 192 112 55 192 112 54 201 121 64 195 116 59 191 111 54 193 112 58 205 125 71 206 126 69 212 133 75 209 130 73 201 121 65 210 131 74 215 136 79 202 120 65 201 119 68 194 113 59 200 120 66 190 112 58 191 113 59 193 113 57 202 123 67 195 115 59 190 111 55 204 124 68 195 116 59 192 113 57 201 122 66 208 132 74 211 135 77 
213 130 77 212 130 73 196 116 56 200 121 63 195 115 59 200 121 65 204 124 64 208 126 66 204 121 62 199 121 65 206 128 72 200 122 66 200 123 64 196 122 63 197 128 66 207 135 76 188 117 60 205 128 69 196 119 61 191 114 56 191 119 60 196 117 60 198 121 63 211 139 80 214 141 78 206 134 73 209 131 75 210 131 74 209 132 70 209 132 71 198 121 61 209 129 73 213 133 78 206 126 71 196 116 58 194 115 57 196 117 59 193 109 60 199 116 64 198 115 61 200 120 69 201 120 65 193 110 54 200 117 62 202 118 63 210 129 73 201 116 61 213 131 74 197 117 61 192 113 56 189 110 54 208 123 67 199 114 59 198 113 58 203 119 57 208 124 64 199 113 54 204 118 59 201 115 56 196 110 53 199 113 56 204 118 61 208 126 70 207 125 69 
121 46 20 108 36 12 111 39 14 119 41 20 117 39 20 110 34 15 102 31 16 109 37 19 108 34 17 109 34 16 105 31 13 107 33 15 106 32 16 102 29 13 125 38 18 123 33 14 121 33 13 124 41 21 116 33 15 107 26 10 105 24 9 114 29 14 115 34 15 136 64 25 124 53 12 129 56 20 135 66 27 127 58 18 126 55 26 123 52 24 120 49 21 126 54 23 116 44 13 110 38 7 115 44 10 126 55 21 125 54 21 118 50 12 116 48 10 121 54 13 129 60 20 117 45 6 116 44 9 113 40 6 117 44 10 113 42 13 106 33 5 114 44 12 120 43 9 119 43 9 125 48 14 98 25 6 91 17 1 109 36 17 97 29 8 94 24 7 99 30 10 91 22 2 98 30 10 105 36 15 103 35 13 97 29 7 102 29 4 95 25 0 
205 133 67 205 132 72 182 108 49 188 111 55 199 122 69 197 120 66 192 118 60 197 123 64 201 128 68 201 126 67 207 131 73 210 135 77 206 129 68 207 130 69 197 120 60 202 124 68 200 122 65 203 129 69 202 128 70 208 134 77 192 117 62 218 143 87 213 142 85 212 139 78 207 132 73 187 110 57 201 122 66 205 126 68 200 121 64 202 124 67 199 121 65 192 115 56 195 118 59 182 105 45 197 119 70 201 122 73 192 114 65 193 111 59 202 120 67 197 115 63 188 111 55 200 123 69 191 115 56 203 127 69 194 118 60 195 119 56 178 103 38 193 118 53 198 116 55 201 119 59 200 118 58 210 136 68 212 138 69 215 141 72 194 113 52 192 112 53 197 119 55 182 104 40 185 107 43 189 111 49 202 124 62 200 122 60 203 124 67 192 115 59 
196 116 62 195 114 60 207 126 69 201 120 66 193 112 58 201 119 65 201 122 65 209 130 70 202 123 63 204 124 64 207 128 69 196 114 57 198 117 61 196 115 58 193 112 56 200 119 64 199 117 62 200 117 62 186 102 50 186 102 52 179 99 48 188 107 54 179 97 46 181 100 47 182 100 50 183 101 54 183 98 49 178 94 45 184 102 50 180 98 46 187 105 53 182 100 48 178 96 47 184 102 52 184 102 51 192 112 58 190 113 54 194 113 59 198 118 64 188 107 53 199 120 62 198 118 59 201 121 65 196 116 60 209 130 73 194 114 58 201 121 64 200 121 59 208 128 67 208 128 69 206 127 61 204 126 58 209 131 69 213 134 75 207 128 62 210 129 68 207 129 67 202 124 62 199 121 59 204 123 62 207 126 65 206 126 64 199 120 61 212 134 70 
198 115 60 206 123 71 192 110 57 205 126 71 206 127 71 205 125 69 194 111 59 197 114 61 191 109 54 197 115 62 195 112 60 198 115 63 193 111 55 197 115 59 190 108 53 192 111 54 198 119 62 186 108 51 187 109 51 191 113 56 192 115 56 198 121 60 188 108 49 189 109 51 198 118 59 196 116 56 192 110 53 192 110 54 188 106 51 182 101 46 197 115 61 182 100 45 192 109 60 198 116 64 199 117 65 194 114 60 202 122 64 199 119 62 200 120 63 196 116 59 181 100 48 203 122 68 200 119 65 177 96 43 190 110 56 196 116 60 202 122 65 207 129 67 202 122 63 206 127 70 209 130 67 213 135 66 214 137 67 207 130 59 195 114 52 200 120 59 197 119 57 194 116 54 198 120 58 204 129 64 203 128 63 210 135 70 212 134 70 206 129 61 
188 108 54 194 112 57 200 119 63 196 117 59 196 117 59 199 119 63 198 121 63 202 124 65 216 138 77 211 132 74 198 118 59 211 134 72 205 127 69 200 121 63 210 131 74 194 115 59 206 127 70 196 114 59 193 111 55 192 110 55 192 112 55 194 112 56 186 104 52 191 110 55 200 119 64 186 104 48 203 123 64 201 121 63 192 110 57 196 114 61 191 109 56 197 116 60 201 119 65 191 110 54 191 107 55 192 110 57 195 113 60 186 104 53 183 101 50 204 121 70 202 121 69 206 125 71 200 118 65 188 106 53 190 109 56 175 93 38 211 129 73 210 129 68 195 114 59 209 128 73 200 119 61 206 125 63 202 121 59 201 121 58 196 116 57 204 124 63 201 123 61 200 122 60 206 128 66 213 133 72 217 136 76 211 130 70 218 140 76 223 146 78 
144 99 52 144 99 52 144 99 52 144 99 52 144 99 52 144 99 52 144 99 52 144 99 52 144 99 52 144 99 52 144 99 52 144 99 52 144 99 52 144 99 52 144 99 52 144 99 52 144 99 52 144 99 52 144 99 52 144 99 52 144 99 52 144 99 52 144 99 52 144 99 52 144 99 52 144 99 52 144 99 52 185 104 48 193 113 56 192 112 55 196 115 59 196 115 58 203 121 65 193 112 57 201 119 64 191 110 56 174 91 40 194 112 60 193 110 59 198 116 65 185 104 51 185 102 52 183 101 50 190 108 55 192 110 57 192 111 57 202 121 63 207 126 65 212 131 69 201 121 60 204 124 65 213 136 68 215 137 71 201 122 61 198 118 57 202 121 61 200 122 60 196 118 56 201 123 61 200 122 58 201 122 59 200 122 58 206 128 64 208 130 66 
130 91 49 130 91 49 130 91 49 130 91 49 130 91 49 130 91 49 130 91 49 130 91 49 130 91 49 130 91 49 130 91 49 130 91 49 130 91 49 130 91 49 130 91 49 130 91 49 130 91 49 130 91 49 130 91 49 130 91 49 130 91 49 130 91 49 130 91 49 130 91 49 130 91 49 130 91 49 144 99 52 203 126 66 205 125 67 201 121 63 203 122 63 199 118 58 208 127 68 208 127 70 197 115 59 202 120 65 193 111 56 202 121 67 192 110 56 187 106 52 196 114 64 188 106 52 192 110 55 202 120 65 198 117 63 185 103 52 202 121 63 212 132 71 207 127 64 211 131 68 211 131 68 211 134 65 207 129 64 207 129 65 207 131 64 211 136 68 211 135 73 215 140 75 203 128 60 210 131 66 215 137 71 217 139 74 215 136 71 211 133 67 
130 91 49 130 91 49 130 91 49 130 91 49 130 91 49 130 91 49 130 91 49 130 91 49 130 91 49 130 91 49 130 91 49 130 91 49 130 91 49 130 91 49 130 91 49 130 91 49 130 91 49 130 91 49 130 91 49 130 91 49 130 91 49 130 91 49 130 91 49 130 91 49 130 91 49 130 91 49 144 99 52 206 126 66 207 127 68 202 122 63 209 128 69 197 115 58 198 116 60 192 110 54 186 105 49 205 124 70 193 112 58 207 125 71 201 120 66 195 113 59 196 115 54 204 123 64 194 113 60 193 112 57 204 123 67 198 116 61 199 119 61 198 116 62 222 141 83 204 123 63 203 123 63 205 129 63 204 127 66 201 125 67 205 127 65 204 125 64 214 138 71 215 139 72 206 131 64 213 138 70 214 139 71 215 140 72 212 137 70 221 146 79 
130 91 49 130 91 49 130 91 49 130 91 49 130 91 49 130 91 49 130 91 49 130 91 49 130 91 49 130 91 49 130 91 49 130 91 49 130 91 49 130 91 49 130 91 49 130 91 49 130 91 49 130 91 49 130 91 49 130 91 49 130 91 49 130 91 49 130 91 49 130 91 49 130 91 49 130 91 49 144 99 52 201 122 62 200 120 63 197 118 61 194 114 57 190 109 49 179 98 43 190 109 54 197 116 57 183 101 46 178 96 46 180 98 45 174 93 40 190 109 56 200 119 64 177 95 41 190 109 53 192 110 55 195 114 58 192 111 54 190 108 52 196 115 56 205 126 65 203 125 63 211 132 69 203 124 61 212 134 70 204 125 62 204 126 62 202 124 58 200 124 59 214 139 72 216 141 74 211 136 69 205 130 63 209 134 67 210 135 68 204 129 61 
130 91 49 130 91 49 130 91 49 130 91 49 130 91 49 130 91 49 130 91 49 130 91 49 130 91 49 130 91 49 130 91 49 130 91 49 130 91 49 130 91 49 130 91 49 130 91 49 130 91 49 130 91 49 130 91 49 130 91 49 130 91 49 130 91 49 130 91 49 130 91 49 130 91 49 130 91 49 144 99 52 201 121 61 199 120 58 199 120 58 202 123 61 197 115 58 188 107 51 200 118 62 198 116 60 196 115 56 198 118 58 185 104 47 200 119 63 185 105 49 193 112 57 198 117 62 183 101 50 195 114 60 200 119 64 202 122 63 199 118 60 193 112 51 203 124 61 202 123 58 209 130 65 205 129 62 207 133 63 216 142 70 206 131 61 218 144 73 212 133 68 199 121 56 199 121 55 207 129 65 206 128 64 206 128 65 214 135 72 216 138 72 
130 91 49 130 91 49 130 91 49 130 91 49 130 91 49 130 91 49 130 91 49 130 91 49 130 91 49 130 91 49 130 91 49 130 91 49 130 91 49 130 91 49 130 91 49 130 91 49 130 91 49 130 91 49 130 91 49 130 91 49 130 91 49 130 91 49 130 91 49 130 91 49 130 91 49 130 91 49 144 99 52 198 118 59 196 117 60 196 116 59 197 117 60 202 120 60 191 109 54 179 97 44 182 100 45 179 97 43 186 103 50 189 107 54 193 111 58 182 100 48 189 107 52 190 109 54 195 113 58 195 114 58 200 118 62 194 114 55 196 115 55 205 125 64 186 106 47 205 126 64 201 122 60 191 113 51 199 120 55 210 131 66 215 137 71 196 118 56 196 116 50 200 120 55 201 120 58 197 116 54 200 119 57 210 130 67 209 131 67 205 127 61 
130 91 49 130 91 49 130 91 49 130 91 49 130 91 49 130 91 49 130 91 49 130 91 49 130 91 49 130 91 49 130 91 49 130 91 49 130 91 49 130 91 49 130 91 49 130 91 49 130 91 49 130 91 49 130 91 49 130 91 49 130 91 49 130 91 49 130 91 49 130 91 49 130 91 49 130 91 49 144 99 52 204 125 64 203 122 62 206 125 65 203 123 64 193 113 54 196 115 58 195 114 58 191 110 54 196 115 59 186 105 49 202 121 65 199 118 63 188 108 50 187 106 51 189 108 55 201 120 66 203 122 66 196 116 57 192 111 52 209 129 65 221 144 73 215 138 67 229 151 80 223 149 75 235 159 84 220 143 69 222 145 72 216 139 72 209 131 67 203 126 56 210 133 63 219 142 72 214 137 69 219 141 75 217 139 73 216 141 75 216 141 73 
130 91 49 130 91 49 130 91 49 130 91 49 130 91 49 130 91 49 130 91 49 130 91 49 130 91 49 130 91 49 130 91 49 130 91 49 130 91 49 130 91 49 130 91 49 130 91 49 130 91 49 130 91 49 130 91 49 130 91 49 130 91 49 130 91 49 130 91 49 130 91 49 130 91 49 130 91 49 144 99 52 201 122 57 201 121 58 200 120 60 194 112 55 193 113 53 201 120 60 194 113 55 195 115 55 200 120 60 207 127 66 204 124 63 186 106 45 200 119 62 196 116 55 207 126 63 211 131 66 222 142 75 200 121 52 208 128 65 205 126 60 215 137 67 206 129 61 214 137 65 209 135 64 215 137 68 216 139 71 211 134 66 215 138 70 211 133 65 209 131 67 209 131 67 210 132 67 205 127 63 207 129 67 202 124 62 208 126 66 211 129 69 
130 91 49 130 91 49 130 91 49 130 91 49 130 91 49 130 91 49 130 91 49 130 91 49 130 91 49 130 91 49 130 91 49 130 91 49 130 91 49 130 91 49 130 91 49 130 91 49 130 91 49 130 91 49 130 91 49 130 91 49 130 91 49 130 91 49 130 91 49 130 91 49 130 91 49 130 91 49 144 99 52 195 114 55 190 112 52 197 117 58 192 111 52 197 116 56 194 114 55 197 117 57 203 122 63 201 120 61 201 121 62 194 114 55 198 117 59 201 121 61 200 120 61 199 120 60 211 131 71 199 118 57 197 117 54 198 118 57 203 123 60 218 137 74 222 146 72 220 143 75 214 137 62 217 142 72 226 151 77 207 133 61 230 157 89 227 154 81 211 137 66 211 136 66 207 131 64 205 128 60 211 134 66 210 133 65 213 134 68 213 134 68 
130 91 49 130 91 49 130 91 49 130 91 49 130 91 49 130 91 49 130 91 49 130 91 49 130 91 49 130 91 49 130 91 49 130 91 49 130 91 49 130 91 49 130 91 49 130 91 49 130 91 49 130 91 49 130 91 49 130 91 49 130 91 49 130 91 49 130 91 49 130 91 49 130 91 49 130 91 49 144 99 52 199 118 58 185 103 44 190 110 50 200 120 60 194 114 54 212 132 72 200 119 60 194 114 54 193 113 53 196 116 57 196 117 56 195 116 55 200 121 59 200 119 64 195 113 58 194 113 56 191 110 51 204 123 64 198 118 57 202 122 59 208 129 63 214 137 69 203 124 59 206 128 59 216 139 67 218 141 73 209 131 65 221 141 78 201 120 57 206 126 63 208 128 65 209 129 68 212 133 70 214 136 72 197 119 55 202 124 60 209 131 67 
130 91 49 130 91 49 130 91 49 130 91 49 130 91 49 130 91 49 130 91 49 130 91 49 130 91 49 130 91 49 130 91 49 130 91 49 130 91 49 130 91 49 130 91 49 130 91 49 130 91 49 130 91 49 130 91 49 130 91 49 130 91 49 130 91 49 130 91 49 130 91 49 130 91 49 130 91 49 144 99 52 199 117 60 208 128 68 208 128 68 190 111 51 196 115 58 185 103 47 197 116 59 203 122 65 200 119 62 197 116 60 210 129 70 211 130 71 208 127 68 205 125 63 205 125 64 197 116 60 199 118 61 195 114 58 192 111 57 187 106 51 190 109 52 199 119 57 202 122 59 213 134 68 197 120 52 202 125 57 206 128 64 192 117 52 200 124 62 200 125 58 209 134 67 208 133 68 220 147 79 207 134 66 206 133 65 208 131 63 204 127 59 
130 91 49 130 91 49 130 91 49 130 91 49 130 91 49 130 91 49 130 91 49 130 91 49 130 91 49 130 91 49 130 91 49 130 91 49 130 91 49 130 91 49 130 91 49 130 91 49 130 91 49 130 91 49 130 91 49 130 91 49 130 91 49 130 91 49 130 91 49 130 91 49 130 91 49 130 91 49 144 99 52 137 48 26 142 57 29 143 59 29 134 50 21 144 59 29 134 50 23 130 47 20 145 55 30 140 54 27 150 64 34 143 52 28 149 62 34 151 59 36 154 61 33 152 61 36 142 56 27 146 60 30 141 56 26 140 50 23 161 65 37 154 58 29 150 55 29 155 59 32 160 61 32 135 51 27 148 61 35 154 61 33 141 55 29 149 61 35 149 57 32 150 59 35 144 54 32 141 50 27 154 61 37 138 48 26 143 53 28 129 42 21 
130 91 49 130 91 49 130 91 49 130 91 49 130 91 49 130 91 49 130 91 49 130 91 49 130 91 49 130 91 49 130 91 49 130 91 49 130 91 49 130 91 49 130 91 49 130 91 49 130 91 49 130 91 49 130 91 49 130 91 49 130 91 49 130 91 49 130 91 49 130 91 49 130 91 49 130 91 49 144 99 52 207 123 60 218 136 77 211 128 69 209 125 65 206 125 62 206 123 63 206 123 66 210 123 69 204 117 63 217 130 76 202 117 62 212 128 74 212 129 78 214 128 79 211 125 74 211 129 79 208 126 76 209 127 76 219 135 75 225 142 85 211 130 74 204 122 66 201 116 59 210 126 66 213 127 70 208 122 65 204 114 54 212 124 74 211 123 75 207 119 71 197 109 63 204 117 72 195 109 60 193 107 56 202 117 62 196 114 56 204 122 64 
130 91 49 130 91 49 130 91 49 130 91 49 130 91 49 130 91 49 130 91 49 130 91 49 130 91 49 130 91 49 130 91 49 130 91 49 130 91 49 130 91 49 130 91 49 130 91 49 130 91 49 130 91 49 130 91 49 130 91 49 130 91 49 130 91 49 130 91 49 130 91 49 130 91 49 130 91 49 144 99 52 182 106 54 177 90 43 189 101 53 197 108 55 189 102 47 197 111 57 169 81 33 178 97 49 190 108 57 187 104 49 194 118 60 193 117 58 179 105 49 182 108 56 186 110 57 181 94 52 168 80 39 173 85 44 181 95 47 183 97 47 183 96 47 171 88 37 183 97 46 181 94 41 185 103 45 191 109 51 184 102 44 182 99 47 184 100 52 184 101 49 184 101 49 180 99 46 178 94 47 186 102 58 190 106 59 182 93 49 191 102 60 
130 91 49 130 91 49 130 91 49 130 91 49 130 91 49 130 91 49 130 91 49 130 91 49 130 91 49 130 91 49 130 91 49 130 91 49 130 91 49 130 91 49 130 91 49 130 91 49 130 91 49 130 91 49 130 91 49 130 91 49 130 91 49 130 91 49 130 91 49 130 91 49 130 91 49 130 91 49 144 99 52 180 98 46 184 101 48 193 110 57 203 120 64 190 108 52 194 114 55 198 116 61 187 105 54 196 115 60 192 111 54 202 122 63 196 114 57 200 118 62 190 107 54 199 116 61 190 108 57 196 112 64 187 101 54 198 116 67 184 99 52 194 108 61 197 111 62 195 110 60 183 97 46 192 107 52 193 108 52 196 111 57 188 103 49 188 103 49 192 107 53 186 100 49 178 92 43 175 89 40 190 104 53 187 101 50 165 81 35 185 101 55 
130 91 49 130 91 49 130 91 49 130 91 49 130 91 49 130 91 49 130 91 49 130 91 49 130 91 49 130 91 49 130 91 49 130 91 49 130 91 49 130 91 49 130 91 49 130 91 49 130 91 49 130 91 49 130 91 49 130 91 49 130 91 49 130 91 49 130 91 49 130 91 49 130 91 49 130 91 49 144 99 52 201 120 64 199 116 59 182 99 44 200 117 64 194 112 57 197 115 59 193 112 58 197 115 62 197 116 60 190 110 51 193 112 51 194 111 53 189 107 49 194 113 58 192 111 55 186 104 48 191 108 54 190 107 55 190 107 53 188 105 51 192 109 55 195 112 58 189 106 52 187 105 49 187 101 47 192 106 50 197 112 57 191 106 51 189 104 50 188 103 48 179 94 39 194 109 55 173 86 41 186 100 49 198 113 59 178 95 45 187 104 54 
130 91 49 130 91 49 130 91 49 130 91 49 130 91 49 130 91 49 130 91 49 130 91 49 130 91 49 130 91 49 130 91 49 130 91 49 130 91 49 130 91 49 130 91 49 130 91 49 130 91 49 130 91 49 130 91 49 130 91 49 130 91 49 130 91 49 130 91 49 130 91 49 130 91 49 130 91 49 144 99 52 185 104 49 181 98 46 183 100 48 191 107 55 190 109 55 206 125 68 189 107 54 187 105 51 192 111 53 195 115 54 190 109 51 194 112 56 181 97 43 190 103 49 187 100 46 202 117 64 195 111 59 179 97 44 196 111 57 186 104 48 187 106 50 189 108 52 195 115 56 199 118 58 194 109 52 191 107 48 194 109 52 198 113 56 200 114 61 201 115 59 201 116 59 200 115 60 194 109 55 201 116 62 192 107 53 175 91 44 187 103 56 
130 91 49 130 91 49 130 91 49 130 91 49 130 91 49 130 91 49 130 91 49 130 91 49 130 91 49 130 91 49 130 91 49 130 91 49 130 91 49 130 91 49 130 91 49 130 91 49 130 91 49 130 91 49 130 91 49 130 91 49 130 91 49 130 91 49 130 91 49 130 91 49 130 91 49 130 91 49 144 99 52 187 104 54 165 84 27 188 107 51 192 111 55 197 117 56 197 116 57 192 110 54 185 104 49 179 98 42 202 120 64 183 102 46 190 109 48 196 115 56 201 120 58 194 114 52 198 117 61 194 114 55 208 128 69 193 113 52 197 117 54 205 125 64 198 118 59 190 110 51 191 111 52 208 128 67 195 114 53 197 117 56 191 109 53 195 112 58 201 116 59 198 113 57 204 119 63 199 114 59 202 117 60 196 111 56 177 93 46 168 84 38 
130 91 49 130 91 49 101 92 82 101 92 82 101 92 82 101 92 82 101 92 82 130 91 49 130 91 49 130 91 49 130 91 49 130 91 49 130 91 49 130 91 49 130 91 49 130 91 49 130 91 49 130 91 49 130 91 49 130 91 49 130 91 49 130 91 49 130 91 49 130 91 49 130 91 49 130 91 49 144 99 52 199 117 58 194 112 56 198 117 58 196 115 56 209 128 68 199 119 58 187 106 47 196 114 58 198 116 60 204 123 64 183 101 46 199 119 58 183 103 43 188 108 49 197 117 59 191 111 52 190 109 51 180 100 40 189 108 52 194 113 58 183 101 46 189 108 48 201 121 60 199 119 58 195 114 54 202 122 61 191 110 50 203 121 63 210 128 70 204 122 64 195 113 55 193 110 53 187 104 50 206 124 66 195 113 55 181 98 44 180 97 43 
130 91 49 130 91 49 101 92 82 101 92 82 101 92 82 101 92 82 101 92 82 108 75 39 130 91 49 130 91 49 130 91 49 130 91 49 130 91 49 130 91 49 130 91 49 130 91 49 130 91 49 130 91 49 130 91 49 130 91 49 130 91 49 130 91 49 130 91 49 130 91 49 130 91 49 130 91 49 144 99 52 191 110 57 181 99 46 196 115 59 192 111 52 201 120 61 194 112 56 179 98 43 193 112 56 196 116 57 202 121 62 200 118 62 194 114 55 183 102 47 196 115 57 201 120 62 197 116 61 202 121 66 200 118 63 198 119 54 198 117 59 204 123 61 193 113 52 208 127 67 205 124 64 205 125 64 191 111 52 208 128 67 190 109 51 204 124 63 201 120 61 194 114 56 193 113 54 187 106 51 201 121 60 194 114 55 185 102 48 186 104 48 
130 91 49 130 91 49 101 92 82 101 92 82 101 92 82 101 92 82 101 92 82 108 75 39 130 91 49 130 91 49 130 91 49 130 91 49 130 91 49 130 91 49 130 91 49 130 91 49 130 91 49 130 91 49 130 91 49 130 91 49 130 91 49 130 91 49 130 91 49 130 91 49 130 91 49 130 91 49 144 99 52 192 109 53 191 109 52 189 106 50 189 108 49 189 108 48 201 120 62 190 109 50 185 103 47 207 126 68 200 120 61 200 118 63 200 120 59 200 118 62 191 109 54 195 114 58 200 118 63 203 122 62 194 114 55 211 131 71 207 127 67 201 120 58 203 122 59 199 117 57 199 117 59 184 104 43 196 116 55 199 118 62 195 115 57 204 124 65 197 117 55 206 127 62 203 123 63 196 114 52 200 119 56 208 127 62 191 110 54 199 117 57 
130 91 49 130 91 49 101 92 82 101 92 82 101 92 82 101 92 82 101 92 82 108 75 39 130 91 49 130 91 49 130 91 49 130 91 49 130 91 49 130 91 49 130 91 49 130 91 49 130 91 49 130 91 49 130 91 49 130 91 49 130 91 49 130 91 49 130 91 49 130 91 49 130 91 49 130 91 49 144 99 52 202 121 61 189 106 51 199 116 61 190 109 51 203 122 62 202 122 63 189 108 49 185 104 46 193 112 53 192 111 51 192 112 53 195 114 54 187 106 48 188 106 51 193 111 56 184 102 47 193 112 54 189 107 52 195 115 57 196 116 57 198 118 57 193 111 51 199 117 59 199 117 61 192 112 53 190 110 52 194 114 56 182 100 44 186 103 50 174 90 37 198 116 60 189 106 54 188 105 51 192 109 55 187 105 49 185 102 48 188 104 44 
130 91 49 130 91 49 101 92 82 101 92 82 101 92 82 101 92 82 101 92 82 108 75 39 130 91 49 130 91 49 130 91 49 130 91 49 130 91 49 130 91 49 130 91 49 130 91 49 130 91 49 130 91 49 130 91 49 130 91 49 130 91 49 130 91 49 130 91 49 130 91 49 130 91 49 130 91 49 144 99 52 183 101 49 182 95 48 188 102 53 190 109 55 195 116 58 183 102 51 165 84 38 183 103 49 186 105 51 185 106 46 188 109 52 183 103 49 176 96 43 184 103 48 189 109 54 190 108 59 187 107 55 182 102 48 187 107 53 183 103 45 190 110 48 201 121 59 209 130 64 203 123 63 197 116 61 193 113 54 196 116 55 192 111 55 203 122 66 185 104 49 200 119 64 197 116 61 193 112 60 191 112 53 204 125 64 191 108 56 179 96 46 
130 91 49 130 91 49 130 91 49 108 75 39 108 75 39 108 75 39 108 75 39 108 75 39 130 91 49 130 91 49 130 91 49 130 91 49 130 91 49 130 91 49 130 91 49 130 91 49 130 91 49 130 91 49 130 91 49 130 91 49 130 91 49 130 91 49 130 91 49 130 91 49 130 91 49 130 91 49 144 99 52 198 116 58 200 120 58 193 113 52 192 112 53 193 112 55 190 109 52 197 117 58 187 107 47 189 109 48 199 119 58 195 115 52 194 114 51 204 124 60 192 111 50 205 125 63 183 101 45 198 118 59 200 119 58 204 124 65 202 122 59 203 123 56 198 118 50 201 121 62 206 127 56 207 127 61 215 135 69 204 125 59 193 113 52 199 119 58 196 116 55 186 106 45 199 119 58 197 117 56 206 127 61 198 118 55 189 107 49 182 100 42 
130 91 49 130 91 49 130 91 49 130 91 49 130 91 49 130 91 49 130 91 49 130 91 49 130 91 49 130 91 49 130 91 49 130 91 49 130 91 49 130 91 49 130 91 49 130 91 49 130 91 49 130 91 49 130 91 49 130 91 49 130 91 49 130 91 49 130 91 49 130 91 49 130 91 49 130 91 49 144 99 52 194 114 54 190 111 51 187 107 48 192 110 53 195 114 55 189 109 50 187 106 47 180 100 41 191 110 53 196 115 59 180 100 41 183 102 46 200 119 63 191 110 54 197 116 59 180 100 41 203 123 63 197 117 55 206 125 66 199 118 57 196 117 50 190 110 49 198 118 55 198 118 57 205 125 66 199 119 60 189 108 52 176 96 35 196 116 55 193 112 56 198 117 61 197 116 60 184 102 52 196 115 59 198 117 61 192 109 57 186 103 49 
130 91 49 130 91 49 130 91 49 130 91 49 130 91 49 130 91 49 130 91 49 130 91 49 130 91 49 130 91 49 130 91 49 130 91 49 130 91 49 130 91 49 130 91 49 130 91 49 130 91 49 130 91 49 130 91 49 130 91 49 130 91 49 130 91 49 130 91 49 130 91 49 130 91 49 130 91 49 144 99 52 183 101 45 173 90 37 188 106 48 192 110 50 188 106 47 191 109 50 189 107 48 189 107 49 189 107 49 192 110 51 196 114 56 191 109 50 204 122 65 189 107 49 185 103 47 180 99 46 191 110 54 194 112 56 194 114 55 186 106 47 186 106 47 197 117 56 200 120 59 200 120 59 199 119 58 190 110 51 196 116 57 195 113 53 198 118 59 201 119 59 193 111 53 197 115 57 206 125 69 206 126 65 201 121 62 187 108 52 194 115 59 
130 91 49 130 91 49 130 91 49 130 91 49 130 91 49 130 91 49 130 91 49 130 91 49 130 91 49 130 91 49 130 91 49 130 91 49 130 91 49 130 91 49 130 91 49 130 91 49 130 91 49 130 91 49 130 91 49 130 91 49 130 91 49 130 91 49 130 91 49 130 91 49 130 91 49 130 91 49 144 99 52 194 116 53 187 105 49 192 111 52 198 118 56 190 110 51 195 115 55 191 111 51 194 114 54 195 115 56 195 115 55 192 110 51 182 100 42 183 101 45 193 110 54 182 99 45 180 99 46 197 116 60 199 118 63 188 107 54 190 109 53 204 124 64 189 109 50 201 121 62 203 123 64 195 115 56 191 111 52 196 116 57 191 111 50 194 114 53 199 119 56 202 122 61 189 109 48 191 110 54 197 117 58 191 111 52 176 95 40 177 96 41 
130 91 49 130 91 49 130 91 49 130 91 49 130 91 49 130 91 49 130 91 49 130 91 49 130 91 49 130 91 49 130 91 49 130 91 49 130 91 49 130 91 49 130 91 49 130 91 49 130 91 49 130 91 49 130 91 49 130 91 49 130 91 49 130 91 49 130 91 49 130 91 49 130 91 49 130 91 49 144 99 52 177 95 39 184 99 43 184 99 43 186 101 45 183 101 43 188 106 47 194 112 54 186 104 45 189 107 49 187 105 47 174 92 33 178 96 38 193 111 55 190 107 52 186 103 49 180 97 45 185 102 48 183 100 50 186 103 51 180 97 45 173 90 36 192 111 56 188 107 52 174 93 38 197 116 61 193 112 56 187 106 50 190 109 53 191 109 51 187 105 45 180 98 40 176 94 36 178 95 41 182 100 42 193 111 55 180 97 43 184 101 47 
130 91 49 130 91 49 130 91 49 130 91 49 130 91 49 130 91 49 130 91 49 130 91 49 130 91 49 130 91 49 130 91 49 130 91 49 130 91 49 130 91 49 130 91 49 130 91 49 130 91 49 130 91 49 130 91 49 130 91 49 130 91 49 130 91 49 130 91 49 130 91 49 130 91 49 130 91 49 144 99 52 93 33 21 82 26 20 80 30 20 86 28 19 94 30 15 97 35 16 97 35 16 98 37 16 95 33 14 89 28 14 99 36 17 105 42 18 97 29 14 109 38 16 110 41 17 127 63 19 124 60 18 119 52 18 125 60 31 116 49 19 124 60 31 127 68 19 129 66 18 134 72 21 127 63 25 115 51 15 109 42 15 105 33 13 108 38 19 112 46 27 105 36 16 100 28 13 111 44 28 112 39 22 104 32 17 98 26 13 109 44 26 
130 91 49 130 91 49 130 91 49 130 91 49 130 91 49 130 91 49 130 91 49 130 91 49 130 91 49 130 91 49 130 91 49 130 91 49 130 91 49 130 91 49 130 91 49 130 91 49 130 91 49 130 91 49 130 91 49 130 91 49 130 91 49 130 91 49 130 91 49 130 91 49 130 91 49 130 91 49 144 99 52 182 99 45 197 117 55 188 109 50 196 117 60 188 107 54 185 105 52 185 105 52 183 102 49 183 103 49 183 102 49 187 105 50 174 93 39 181 98 48 181 99 51 173 91 42 169 90 30 176 97 38 165 86 26 176 94 41 178 97 42 184 103 47 177 94 40 172 89 39 172 90 42 176 92 46 170 88 38 175 94 39 169 85 38 178 94 47 170 87 35 174 91 39 178 95 43 198 115 63 177 96 43 186 103 51 189 102 49 168 80 30 
130 91 49 130 91 49 130 91 49 130 91 49 130 91 49 130 91 49 130 91 49 130 91 49 130 91 49 130 91 49 130 91 49 130 91 49 130 91 49 130 91 49 130 91 49 130 91 49 130 91 49 130 91 49 130 91 49 130 91 49 130 91 49 130 91 49 130 91 49 130 91 49 130 91 49 130 91 49 144 99 52 199 119 59 193 117 54 195 119 57 197 119 56 201 119 60 206 124 65 199 117 58 193 111 53 189 107 49 191 109 51 194 111 59 184 103 48 190 111 55 185 106 50 190 111 55 178 99 43 187 108 52 188 109 53 181 103 41 203 125 61 195 118 50 193 114 58 195 118 62 187 112 55 209 130 73 207 128 71 206 127 68 202 126 64 196 120 58 187 108 51 189 110 53 182 103 46 190 107 53 168 88 37 179 96 42 197 110 56 195 109 52 
130 91 49 130 91 49 130 91 49 130 91 49 130 91 49 130 91 49 130 91 49 130 91 49 130 91 49 130 91 49 130 91 49 130 91 49 130 91 49 130 91 49 130 91 49 130 91 49 130 91 49 130 91 49 130 91 49 130 91 49 130 91 49 130 91 49 130 91 49 130 91 49 130 91 49 130 91 49 144 99 52 189 108 51 190 109 53 185 104 47 187 106 50 191 110 53 181 100 44 185 102 48 196 114 56 190 108 52 191 109 53 192 106 55 186 103 53 173 91 42 180 98 43 191 111 52 204 122 64 195 115 56 200 122 58 210 132 60 206 128 53 211 133 59 204 124 63 201 121 60 207 127 68 191 111 52 187 107 48 197 117 58 192 112 51 193 113 54 191 111 52 192 112 53 192 112 53 192 110 54 179 97 41 193 111 55 203 118 63 188 103 48 
130 91 49 130 91 49 130 91 49 130 91 49 130 91 49 130 91 49 130 91 49 130 91 49 130 91 49 130 91 49 130 91 49 130 91 49 130 91 49 130 91 49 130 91 49 130 91 49 130 91 49 130 91 49 130 91 49 130 91 49 130 91 49 130 91 49 130 91 49 130 91 49 130 91 49 130 91 49 144 99 52 194 113 57 197 116 60 177 96 41 173 91 38 180 99 43 195 112 58 188 102 51 184 98 47 185 99 50 170 84 36 175 89 42 176 90 43 183 99 52 186 102 55 181 98 48 182 99 49 192 109 55 191 110 55 200 120 57 193 114 47 203 124 57 195 113 53 199 117 57 194 112 52 190 110 49 190 110 49 188 108 47 182 102 41 183 103 44 187 107 48 182 102 43 186 106 47 191 109 51 183 101 43 201 119 61 186 101 46 202 117 62 
130 91 49 130 91 49 130 91 49 130 91 49 130 91 49 130 91 49 130 91 49 130 91 49 130 91 49 130 91 49 130 91 49 130 91 49 130 91 49 130 91 49 130 91 49 130 91 49 130 91 49 130 91 49 130 91 49 130 91 49 130 91 49 130 91 49 130 91 49 130 91 49 130 91 49 130 91 49 144 99 52 195 114 57 190 108 51 194 112 56 186 104 48 188 107 51 183 102 46 186 104 48 182 97 42 182 96 47 172 85 39 189 102 57 176 90 44 187 101 50 193 107 58 189 104 50 199 114 60 198 116 60 192 113 54 194 114 51 197 117 56 209 130 63 191 111 52 194 114 55 187 107 48 195 113 57 179 98 42 195 114 58 197 117 56 202 122 61 195 112 58 194 112 56 191 109 53 189 104 47 198 113 56 188 104 44 192 107 50 191 106 49 
130 91 49 130 91 49 130 91 49 130 91 49 130 91 49 130 91 49 130 91 49 130 91 49 130 91 49 130 91 49 130 91 49 130 91 49 130 91 49 130 91 49 130 91 49 130 91 49 130 91 49 130 91 49 130 91 49 130 91 49 130 91 49 130 91 49 130 91 49 130 91 49 130 91 49 130 91 49 144 99 52 194 112 56 200 118 61 197 115 58 195 113 57 197 116 60 199 116 60 191 109 52 190 105 51 190 105 51 188 102 51 175 89 40 177 91 42 176 91 37 181 95 46 181 95 46 189 104 47 211 129 70 204 124 63 214 134 75 191 110 55 188 107 51 202 121 58 205 123 63 195 113 53 201 117 57 185 103 43 188 108 47 192 110 52 183 101 43 198 116 56 194 112 52 202 121 58 196 111 54 199 114 57 192 108 48 187 102 47 196 111 56 
130 91 49 130 91 49 130 91 49 130 91 49 130 91 49 130 91 49 130 91 49 130 91 49 130 91 49 130 91 49 130 91 49 130 91 49 130 91 49 130 91 49 130 91 49 130 91 49 130 91 49 130 91 49 130 91 49 130 91 49 130 91 49 130 91 49 130 91 49 130 91 49 130 91 49 130 91 49 144 99 52 194 113 57 194 112 56 195 113 56 195 113 57 198 116 60 196 114 58 194 109 54 187 102 48 188 103 48 194 109 54 184 99 44 186 101 44 183 98 44 187 101 50 183 97 46 188 102 55 178 92 45 179 92 47 170 87 35 175 91 44 180 97 47 180 94 47 181 94 49 171 84 41 184 98 49 174 91 41 170 87 37 189 104 49 176 91 36 187 101 50 185 99 48 184 99 45 192 107 50 197 112 55 190 106 46 183 98 41 191 106 49 
130 91 49 130 91 49 130 91 49 130 91 49 130 91 49 130 91 49 130 91 49 130 91 49 130 91 49 130 91 49 130 91 49 130 91 49 130 91 49 130 91 49 130 91 49 130 91 49 130 91 49 130 91 49 130 91 49 130 91 49 130 91 49 130 91 49 130 91 49 130 91 49 130 91 49 130 91 49 144 99 52 190 108 50 184 102 46 190 108 52 194 112 56 189 106 52 181 98 44 190 107 53 179 96 42 181 98 44 179 96 42 192 107 52 186 101 46 189 104 49 197 115 57 185 105 46 196 114 54 189 107 51 173 90 40 169 86 42 181 98 48 200 114 60 189 104 50 195 110 53 199 114 59 195 113 57 189 107 51 187 105 49 185 103 47 203 118 61 195 110 55 192 107 50 201 117 55 197 113 53 195 111 51 190 106 46 185 103 43 189 107 47 
130 91 49 130 91 49 130 91 49 130 91 49 130 91 49 130 91 49 130 91 49 130 91 49 130 91 49 130 91 49 130 91 49 130 91 49 130 91 49 130 91 49 130 91 49 130 91 49 130 91 49 130 91 49 130 91 49 130 91 49 130 91 49 130 91 49 130 91 49 130 91 49 130 91 49 130 91 49 144 99 52 192 110 54 196 114 57 191 109 53 190 108 52 190 108 52 190 108 52 192 110 54 187 105 49 191 109 53 179 97 41 193 112 56 181 100 44 195 114 58 195 113 55 196 114 56 184 102 44 192 110 52 195 113 55 191 109 51 180 98 42 180 98 42 184 103 47 188 108 49 196 115 59 195 113 53 195 113 53 192 110 50 200 118 58 187 105 47 198 116 58 196 114 54 191 109 49 186 104 44 199 117 57 194 112 52 196 114 54 195 113 53 
130 91 49 130 91 49 130 91 49 130 91 49 130 91 49 130 91 49 130 91 49 130 91 49 130 91 49 130 91 49 130 91 49 130 91 49 130 91 49 130 91 49 130 91 49 130 91 49 130 91 49 130 91 49 130 91 49 130 91 49 130 91 49 130 91 49 130 91 49 130 91 49 130 91 49 130 91 49 144 99 52 187 102 48 190 105 51 183 98 44 183 98 44 183 98 44 186 101 47 184 99 45 181 99 41 194 112 54 191 109 51 197 115 59 192 110 54 193 111 55 180 98 42 192 107 52 193 111 55 194 111 56 191 109 54 200 115 58 202 120 62 202 122 61 194 112 54 189 107 47 177 94 40 196 114 58 200 118 62 197 115 59 205 123 63 200 120 59 205 124 61 207 125 65 200 118 58 194 113 50 196 115 52 200 119 56 197 117 54 196 116 53 
130 91 49 130 91 49 130 91 49 130 91 49 130 91 49 130 91 49 130 91 49 130 91 49 130 91 49 130 91 49 130 91 49 130 91 49 130 91 49 130 91 49 130 91 49 130 91 49 130 91 49 130 91 49 130 91 49 130 91 49 130 91 49 130 91 49 130 91 49 130 91 49 130 91 49 130 91 49 144 99 52 196 114 56 193 108 53 198 113 58 196 111 56 190 110 51 193 113 54 196 116 57 189 109 50 196 116 57 198 118 59 196 114 56 182 100 44 191 108 54 188 106 50 183 101 45 191 106 51 196 114 58 200 121 64 205 123 65 195 113 53 184 99 45 182 96 45 186 101 47 186 101 46 185 100 46 179 94 39 179 94 39 190 105 48 188 106 48 191 109 51 187 105 45 199 118 55 204 122 62 198 117 54 198 117 54 200 120 59 194 114 55 
130 91 49 130 91 49 130 91 49 130 91 49 130 91 49 130 91 49 130 91 49 130 91 49 130 91 49 130 91 49 130 91 49 130 91 49 130 91 49 130 91 49 130 91 49 130 91 49 130 91 49 130 91 49 130 91 49 130 91 49 130 91 49 130 91 49 130 91 49 130 91 49 130 91 49 130 91 49 144 99 52 201 119 63 193 111 55 185 103 47 187 105 49 192 111 55 193 112 56 186 105 49 202 122 63 201 121 62 188 108 49 189 107 49 193 111 53 196 114 58 194 112 54 197 115 57 187 105 49 181 99 43 198 117 61 195 113 55 204 122 66 194 109 54 191 106 51 198 113 58 187 102 47 186 104 48 183 101 43 197 115 57 190 108 50 191 109 49 198 116 56 206 125 62 204 123 60 198 118 55 202 122 59 201 122 56 198 119 53 189 109 46 
130 91 49 130 91 49 130 91 49 130 91 49 130 91 49 130 91 49 130 91 49 130 91 49 130 91 49 130 91 49 130 91 49 130 91 49 130 91 49 130 91 49 130 91 49 130 91 49 130 91 49 130 91 49 130 91 49 130 91 49 130 91 49 130 91 49 130 91 49 130 91 49 130 91 49 130 91 49 144 99 52 190 107 53 201 120 64 186 105 49 189 108 52 192 112 51 198 118 57 203 123 62 197 117 56 202 122 61 196 116 55 198 118 57 192 112 53 202 122 63 204 124 65 192 112 53 187 106 50 185 103 47 183 101 45 189 107 49 177 94 40 193 108 51 192 107 50 194 109 54 183 98 44 199 117 61 189 107 49 188 106 48 195 113 53 207 127 64 195 115 52 202 122 59 194 115 49 198 118 55 203 124 58 204 125 59 197 117 56 193 113 54 
130 91 49 130 91 49 130 91 49 130 91 49 130 91 49 130 91 49 130 91 49 130 91 49 130 91 49 130 91 49 130 91 49 130 91 49 130 91 49 130 91 49 130 91 49 130 91 49 130 91 49 130 91 49 130 91 49 130 91 49 130 91 49 130 91 49 130 91 49 130 91 49 130 91 49 130 91 49 144 99 52 194 114 55 183 101 45 190 108 52 194 112 54 198 118 57 196 116 55 197 117 56 198 120 58 201 123 59 198 120 56 196 116 57 194 114 55 195 112 62 205 123 67 186 101 44 185 103 47 189 107 51 194 112 56 193 110 58 203 120 66 188 106 48 185 100 46 200 115 60 181 96 39 200 118 62 200 118 62 197 116 60 194 112 52 193 111 53 201 119 59 199 117 57 203 121 61 198 118 55 195 115 54 194 114 55 199 118 55 196 114 54 
130 91 49 130 91 49 130 91 49 130 91 49 130 91 49 130 91 49 130 91 49 130 91 49 130 91 49 130 91 49 130 91 49 130 91 49 130 91 49 130 91 49 130 91 49 130 91 49 130 91 49 130 91 49 130 91 49 130 91 49 130 91 49 130 91 49 130 91 49 130 91 49 130 91 49 130 91 49 144 99 52 193 112 56 194 113 57 198 117 61 189 109 50 192 113 54 191 112 53 195 116 57 204 124 65 197 117 56 208 128 67 209 131 65 202 122 61 201 121 60 205 125 66 190 108 52 189 107 51 180 97 43 174 91 39 190 107 55 197 114 62 191 108 54 188 102 51 181 96 42 192 107 53 198 113 58 182 100 44 197 115 59 197 116 60 204 124 63 204 124 63 192 112 51 193 113 52 194 114 55 194 114 53 190 110 49 193 113 50 196 116 55 
130 91 49 130 91 49 130 91 49 130 91 49 130 91 49 130 91 49 130 91 49 130 91 49 130 91 49 130 91 49 130 91 49 130 91 49 130 91 49 130 91 49 130 91 49 130 91 49 130 91 49 130 91 49 130 91 49 130 91 49 130 91 49 130 91 49 130 91 49 130 91 49 130 91 49 130 91 49 144 99 52 208 128 67 199 119 58 201 121 60 206 126 63 205 128 60 215 138 70 213 136 68 218 143 75 208 134 63 200 126 53 201 126 61 199 120 61 201 121 58 205 125 62 208 128 69 200 118 62 191 108 54 186 103 53 204 122 66 195 113 57 190 108 52 193 108 53 195 110 53 200 115 58 200 113 59 194 109 54 203 118 63 203 118 63 198 113 56 204 122 62 184 102 42 204 122 62 199 119 56 204 125 59 213 134 67 204 123 60 205 123 63 
130 91 49 130 91 49 130 91 49 130 91 49 130 91 49 130 91 49 130 91 49 130 91 49 130 91 49 130 91 49 130 91 49 130 91 49 130 91 49 130 91 49 130 91 49 130 91 49 130 91 49 130 91 49 130 91 49 130 91 49 130 91 49 130 91 49 130 91 49 130 91 49 130 91 49 130 91 49 144 99 52 143 69 34 142 66 30 143 67 31 153 78 39 158 83 44 140 65 26 142 67 27 145 69 33 148 70 34 156 78 42 139 67 27 147 75 35 152 81 37 149 82 40 147 80 38 137 72 32 139 71 34 146 77 38 135 66 24 145 77 32 144 76 31 154 79 40 151 76 37 150 74 38 158 81 39 156 78 39 157 79 40 157 82 40 143 68 26 155 73 35 160 75 38 161 77 40 174 93 40 172 91 38 178 97 44 178 96 49 180 98 50 
