P3
#Created with GIMP
64 64
255
87 87 87 97 97 97 90 91 91 98 98 98 92 92 92 90 90 90 91 91 90 102 102 102 92 93 93 85 87 86 94 96 93 95 94 94 98 98 95 99 99 99 91 91 91 91 91 91 92 92 93 97 97 97 97 97 97 96 96 96 167 167 167 94 94 94 97 96 97 92 93 93 88 88 88 96 96 96 97 97 97 92 92 92 88 88 88 91 91 90 91 90 91 94 94 94 93 92 92 90 90 90 85 85 85 92 92 93 90 90 90 94 93 93 90 90 90 98 95 97 94 94 94 91 91 91 170 170 170 91 91 91 88 88 88 92 92 93 94 94 94 98 98 98 93 92 93 95 95 94 91 91 91 94 94 94 93 93 93 97 97 97 99 99 99 95 93 93 87 87 89 91 91 91 97 97 97 102 102 102 91 91 91 86 86 86 97 97 97 95 93 94 
87 87 88 67 67 67 55 55 55 58 58 59 58 58 58 57 57 57 59 59 59 61 61 60 53 53 51 62 62 62 63 63 62 61 59 59 63 63 63 62 62 62 65 65 65 55 55 55 56 56 56 57 57 57 62 63 63 46 46 46 175 175 175 92 92 92 61 61 61 64 64 64 57 55 56 53 53 53 66 66 66 56 56 56 61 60 60 60 60 59 53 53 53 61 61 61 59 59 59 58 58 59 67 67 67 61 61 61 62 61 62 67 67 67 65 65 65 62 62 62 62 61 62 55 55 55 161 164 166 86 86 86 55 56 55 60 60 60 66 66 67 62 62 62 68 68 68 62 62 62 65 65 65 67 67 67 57 57 57 64 65 63 58 57 57 58 59 58 66 66 66 68 68 68 60 60 60 58 59 59 58 58 58 63 63 62 54 54 54 53 53 53 
93 95 92 60 60 60 52 52 51 65 65 65 57 58 57 67 67 67 61 61 61 56 57 57 64 64 64 57 57 58 56 55 56 59 59 59 58 58 58 56 56 56 64 64 64 54 56 55 62 60 62 60 60 60 52 52 52 53 53 53 178 175 174 100 100 100 56 56 56 56 56 56 66 66 66 56 56 56 57 57 57 66 66 66 59 59 59 60 61 59 62 61 62 59 59 59 60 60 60 55 55 56 55 55 56 61 61 61 57 57 57 57 57 58 63 63 63 61 61 61 65 65 65 53 53 53 173 173 173 89 89 91 65 64 63 60 59 59 65 65 65 60 60 59 63 63 63 63 63 63 56 57 56 61 61 61 62 62 62 59 60 59 60 60 60 58 58 58 68 66 66 57 57 57 61 61 61 60 60 60 55 56 56 62 62 62 55 55 55 40 41 40 
99 99 99 56 56 56 54 54 54 55 55 55 50 51 50 52 52 52 57 57 57 52 52 52 51 50 50 46 46 46 49 49 49 51 51 51 50 50 50 59 58 58 47 47 47 42 42 42 53 53 52 52 52 52 49 50 50 46 46 46 177 177 177 96 95 98 56 56 56 47 47 47 47 47 47 55 55 55 47 47 47 51 51 51 52 51 51 57 57 57 51 51 51 51 51 51 44 44 44 51 51 51 47 47 47 50 50 50 48 49 49 54 54 54 54 54 55 55 54 54 45 45 46 54 54 54 173 173 173 90 91 91 43 43 43 49 49 49 49 49 49 51 51 51 43 44 44 55 55 55 43 42 42 49 49 49 50 50 50 55 55 54 47 47 47 52 52 52 53 53 53 50 51 49 49 49 49 43 44 43 47 47 47 52 54 53 51 51 51 53 53 53 
165 165 164 170 170 170 177 178 178 170 170 169 180 178 178 173 173 173 178 178 178 179 179 179 169 171 169 168 168 168 172 171 171 168 168 168 171 172 171 171 171 171 167 163 164 170 170 166 173 173 173 170 170 170 166 166 166 172 172 172 173 177 174 176 176 176 171 172 173 178 178 178 182 182 182 171 168 170 171 170 171 180 180 180 166 167 165 175 175 175 174 174 174 174 174 175 163 163 163 168 170 170 168 167 165 171 171 171 172 172 172 177 178 177 175 176 176 170 170 170 179 180 175 181 179 181 171 171 171 174 169 169 173 173 173 180 180 180 173 173 173 174 174 174 171 170 167 172 172 172 178 178 178 167 167 167 180 177 179 166 166 166 171 171 171 175 175 175 169 169 169 167 167 167 171 171 169 172 172 172 171 173 172 165 165 164 173 173 173 164 164 164 
89 89 89 92 92 92 91 91 91 96 96 96 93 92 93 87 87 87 90 90 90 93 94 94 92 92 92 99 97 99 94 94 94 94 94 94 91 91 91 166 165 171 94 93 94 90 91 89 93 93 93 85 85 85 90 91 92 93 92 92 86 86 85 84 84 84 98 98 98 92 92 91 93 95 95 92 92 92 93 94 95 98 98 99 92 92 92 172 172 172 96 96 96 91 91 91 93 93 93 94 95 95 93 93 93 164 164 164 87 87 87 101 101 101 89 89 89 89 90 91 97 96 97 94 95 94 97 97 97 94 94 94 99 99 99 99 99 99 89 89 89 89 89 89 95 95 95 97 97 97 91 91 91 95 95 95 173 173 173 88 88 88 91 91 91 91 91 91 85 85 85 96 97 97 95 96 96 91 90 90 91 91 91 96 96 96 92 92 92 91 93 91 
61 61 61 64 64 64 64 64 64 62 62 62 53 53 53 53 53 53 53 55 55 63 63 63 63 63 63 62 62 62 60 60 61 65 65 65 49 49 49 170 170 170 89 89 89 63 63 63 57 56 56 59 60 61 70 70 70 62 62 62 66 66 66 70 70 70 58 57 58 57 57 57 63 63 63 60 60 60 69 68 68 55 55 55 47 47 47 172 168 173 90 90 90 60 60 60 59 59 59 61 61 61 51 51 50 162 163 163 94 94 94 66 65 67 63 63 63 59 59 58 66 68 68 59 59 59 55 55 55 58 57 58 65 65 65 65 66 64 61 61 61 62 62 62 63 63 63 61 61 61 65 65 65 50 50 50 167 167 167 87 86 87 58 58 58 60 59 60 58 58 58 62 62 63 62 61 60 60 60 60 62 62 62 67 66 66 64 64 64 55 54 56 
58 58 58 55 54 54 67 67 67 64 64 63 61 61 61 60 60 60 53 53 53 64 64 64 59 59 59 62 62 62 53 53 53 70 70 70 49 49 49 180 180 180 91 91 91 57 57 57 60 61 61 62 62 62 61 61 61 65 65 64 59 58 59 57 57 57 63 63 63 62 62 63 62 62 62 61 61 61 61 62 62 61 61 61 49 49 49 171 169 170 95 95 95 61 61 61 58 58 58 64 64 62 45 45 45 169 169 171 84 84 84 59 59 59 53 53 53 53 53 53 67 67 67 67 67 67 60 60 60 64 62 61 65 65 65 65 65 65 55 55 56 58 58 58 63 63 63 61 61 61 59 59 58 50 50 50 175 175 175 96 96 96 63 63 63 58 57 58 65 66 64 63 63 63 62 62 62 61 62 60 61 61 61 56 57 57 61 61 61 62 62 61 
61 61 61 60 60 60 55 55 55 64 64 64 62 63 62 54 54 53 60 60 60 65 65 65 66 66 66 68 68 67 56 56 56 67 67 67 54 52 52 169 167 167 95 95 95 65 65 65 57 57 57 60 60 60 60 60 60 62 61 62 54 54 56 61 61 61 63 63 61 62 62 62 65 65 64 59 59 59 55 57 57 63 63 63 48 48 48 165 165 165 93 92 91 62 62 62 57 58 58 63 62 62 47 47 47 168 168 168 96 96 96 63 63 64 59 59 59 57 57 57 59 59 59 60 60 60 68 67 67 58 57 57 60 60 60 63 63 63 54 54 54 65 65 65 63 62 63 65 65 65 63 63 63 48 48 48 174 175 173 99 97 97 65 66 66 65 65 65 64 64 64 59 59 59 60 59 60 59 59 59 63 63 63 58 58 58 56 56 56 61 61 61 
42 41 42 45 45 45 49 50 50 52 52 52 57 57 57 54 54 54 51 50 50 44 44 44 45 45 44 42 42 42 56 56 56 51 51 51 47 47 47 171 171 171 90 87 90 48 49 49 52 52 52 45 45 45 48 48 48 52 52 52 57 57 57 41 41 40 43 43 43 45 45 45 46 46 46 52 52 52 49 49 49 52 52 52 57 56 56 171 175 173 100 99 99 55 55 55 42 42 42 54 54 54 53 53 53 177 177 177 91 92 91 49 49 48 47 47 47 46 45 46 55 56 56 52 52 52 54 53 53 47 47 47 53 53 53 50 50 50 49 49 49 45 45 45 48 48 48 49 49 49 52 52 52 45 45 45 178 178 178 94 94 94 47 47 47 49 49 49 50 50 50 54 54 54 54 54 54 48 48 48 52 52 52 55 54 55 50 50 50 46 46 46 
176 176 176 168 167 167 165 165 165 176 176 176 172 168 173 171 171 171 175 171 174 166 166 166 171 171 171 175 177 175 171 171 167 175 174 175 176 173 174 170 171 168 171 168 167 170 170 170 174 174 174 166 166 166 173 175 173 175 175 175 170 170 170 168 168 168 173 173 173 169 169 169 174 174 174 172 172 172 172 172 172 170 168 169 174 174 174 176 173 172 170 170 170 169 169 169 172 172 172 174 174 174 174 174 174 180 180 180 173 173 173 174 174 174 174 171 174 174 172 174 169 169 169 171 173 174 165 165 165 174 174 174 170 169 169 167 171 167 168 168 168 173 170 171 175 176 177 174 175 176 166 164 161 172 172 172 177 177 177 179 179 177 174 174 174 168 168 168 176 174 175 171 171 171 165 170 171 167 169 168 172 171 173 165 169 166 173 171 170 165 165 165 
102 101 101 100 101 98 169 169 170 94 94 94 87 87 87 90 90 90 99 99 99 89 91 88 90 90 89 94 94 94 98 99 99 90 90 90 97 97 97 92 90 93 91 89 88 92 93 92 89 89 89 90 90 90 91 91 91 86 88 88 90 90 90 97 97 97 100 100 100 94 93 95 173 171 173 88 88 88 100 100 100 85 85 85 97 95 96 98 98 97 90 91 91 96 96 96 94 94 96 94 94 94 98 98 98 99 99 99 93 93 93 93 94 93 94 93 95 98 98 98 95 94 95 93 93 94 102 99 101 87 87 87 94 94 94 167 164 163 93 93 93 87 87 86 97 97 97 91 91 91 96 96 96 92 92 92 97 100 100 96 96 96 92 92 92 89 89 89 98 98 98 91 91 91 91 91 91 92 92 92 93 93 93 83 83 83 91 90 90 88 89 88 
57 57 57 54 54 54 170 170 170 92 89 92 68 68 68 54 54 54 58 58 58 56 56 56 67 67 67 62 62 62 58 58 59 69 69 67 68 68 68 62 62 62 62 62 62 61 61 61 59 59 59 63 63 63 66 66 66 52 52 52 59 59 59 65 66 66 56 56 56 44 44 45 173 173 173 91 90 94 58 58 58 52 53 53 68 68 68 52 53 53 53 55 53 54 55 54 62 62 62 57 56 57 57 57 57 66 66 66 62 63 61 63 65 64 57 57 57 61 61 61 56 56 57 67 67 67 64 65 65 60 59 59 48 47 47 174 174 174 90 90 90 56 55 55 59 59 59 65 65 65 62 61 62 65 63 64 65 65 65 63 63 63 60 60 60 55 55 54 68 68 68 56 56 56 62 61 60 65 65 65 59 59 60 54 54 55 58 58 58 60 60 59 
60 60 60 41 40 40 175 175 175 95 95 95 60 60 60 69 69 69 63 63 63 59 61 60 61 61 61 54 54 54 55 55 55 58 60 59 54 56 55 57 57 57 68 68 68 57 57 57 63 63 63 63 63 63 60 60 59 64 64 64 66 66 66 58 57 58 68 69 68 54 54 54 168 168 168 93 93 93 67 67 68 67 67 67 61 59 60 69 69 69 59 59 58 61 61 61 63 63 63 56 56 56 63 63 63 59 59 59 54 54 53 55 55 55 55 57 55 60 60 61 58 58 58 57 57 57 60 60 60 62 61 62 48 48 47 166 162 163 92 93 93 59 59 59 63 64 63 70 70 70 60 60 60 67 68 65 60 60 60 63 63 63 62 62 62 61 61 61 63 63 63 55 55 55 59 59 59 55 55 55 63 63 63 65 65 65 63 62 62 69 70 70 
57 57 57 51 51 51 175 179 174 89 89 89 61 61 61 56 56 56 54 54 54 63 63 63 64 65 64 62 62 62 63 62 61 67 67 67 61 61 61 60 60 60 65 63 62 62 61 62 52 52 52 67 66 66 64 63 63 53 52 53 64 64 65 54 52 53 62 62 62 52 52 52 176 176 178 85 85 85 67 67 65 64 64 64 52 52 52 64 64 64 62 62 62 59 59 59 66 66 65 56 56 56 55 55 55 62 62 62 61 61 63 60 60 60 56 56 56 58 58 58 57 57 58 60 61 60 65 64 64 59 59 59 53 53 53 172 171 173 93 93 93 61 61 61 59 60 59 69 69 69 62 61 62 64 64 64 56 56 56 57 57 57 64 63 63 57 57 57 62 62 62 53 52 53 64 64 64 65 65 65 59 59 59 62 62 62 63 63 63 59 59 59 
47 47 47 50 50 50 165 165 165 92 92 92 47 48 47 43 43 43 50 50 50 50 50 49 46 46 46 52 52 52 53 55 55 54 54 54 47 48 47 52 52 52 50 50 50 47 47 47 45 45 45 42 42 42 43 43 43 54 53 53 50 50 50 50 50 50 48 48 48 52 52 52 181 178 179 86 86 86 51 51 51 50 50 50 50 50 49 50 50 50 50 50 50 56 56 56 54 54 54 55 55 55 55 54 55 46 45 45 41 42 42 57 57 57 50 50 50 44 44 44 48 48 48 46 46 46 43 44 44 43 44 43 48 48 48 173 173 173 97 97 97 50 50 50 50 50 50 53 53 53 44 43 44 50 49 48 43 43 44 56 55 56 54 54 54 45 46 46 56 56 56 52 52 52 54 54 54 45 46 45 47 47 46 56 56 56 45 45 45 45 45 45 
176 174 174 170 169 170 178 178 178 172 172 172 169 167 170 164 164 164 174 176 176 171 171 171 167 167 167 171 171 171 180 180 180 164 162 168 172 172 172 168 168 168 171 171 171 166 169 168 168 164 168 171 171 171 166 166 166 165 163 164 178 179 178 171 170 170 171 171 171 168 168 168 174 178 178 162 164 165 177 177 177 165 165 165 174 177 176 172 174 174 176 177 176 179 175 180 172 172 168 168 169 168 175 175 175 168 168 170 176 176 176 171 169 170 172 172 172 170 171 166 166 169 168 168 168 168 176 175 176 174 174 174 178 178 178 177 177 177 173 172 172 172 172 172 179 175 175 169 169 169 170 171 176 168 168 168 180 179 180 167 165 165 173 173 173 171 171 171 180 177 174 175 174 176 173 173 173 177 177 177 165 163 161 173 173 173 171 171 171 171 171 171 
91 91 91 99 99 99 92 92 92 93 93 93 86 88 87 95 95 95 100 101 101 96 96 96 93 92 92 96 94 94 93 93 93 90 92 92 90 89 92 93 93 93 93 93 93 94 94 94 166 168 165 93 93 93 97 96 99 86 86 86 95 95 95 89 89 89 91 91 92 91 90 90 95 95 95 92 91 92 88 88 88 90 90 90 91 91 91 86 86 86 95 95 95 99 99 99 97 97 97 87 86 86 95 96 96 89 89 89 101 99 100 85 84 83 175 171 169 89 88 88 96 96 96 96 96 96 90 90 90 91 91 91 93 93 93 87 88 86 85 86 83 90 90 91 85 83 85 88 90 89 164 164 162 94 98 97 85 85 85 93 95 94 88 89 89 96 98 95 89 89 89 96 96 96 92 92 92 93 93 93 91 92 90 93 93 93 92 92 92 92 91 92 
57 57 57 55 55 55 62 62 62 61 61 61 65 64 63 61 61 61 65 64 64 64 65 66 54 54 54 60 60 59 54 53 53 60 60 61 58 58 58 55 55 55 64 63 63 45 46 45 180 180 180 99 99 99 67 67 67 64 64 64 61 61 61 54 54 54 62 63 63 65 66 65 67 65 67 60 60 60 68 68 68 65 64 64 57 57 57 70 70 70 63 63 63 58 58 58 62 62 62 66 66 66 52 51 52 60 60 60 59 59 59 48 48 48 177 175 176 96 96 96 61 61 62 58 58 58 61 60 61 58 58 58 60 61 59 59 61 61 62 62 62 60 61 61 58 58 58 44 44 44 166 166 166 92 92 92 58 58 58 65 65 65 62 62 62 56 56 56 65 65 65 66 66 66 64 64 64 55 55 55 65 65 65 57 57 57 58 57 58 57 57 58 
58 57 57 64 64 64 60 60 60 61 61 61 64 64 64 56 56 56 67 67 68 58 58 58 61 61 61 65 65 66 51 51 51 60 60 59 69 69 70 62 62 62 55 55 55 53 53 53 180 180 180 94 94 94 62 62 62 63 62 63 58 58 58 60 61 61 69 69 69 63 63 63 68 68 68 59 58 60 69 69 69 60 60 60 61 61 61 66 66 66 63 63 63 59 59 59 65 66 66 57 57 57 64 64 64 58 58 58 64 64 63 47 47 47 163 168 164 91 91 91 67 69 68 55 55 55 63 63 63 68 68 68 60 59 60 56 56 56 63 63 63 63 62 62 60 60 60 51 51 51 174 174 174 92 92 92 63 63 62 57 57 57 57 57 57 62 62 61 57 57 57 56 56 56 60 60 60 66 66 66 56 56 56 62 62 62 59 60 61 56 56 56 
58 57 56 69 69 68 66 66 66 59 59 59 63 63 63 61 60 60 63 64 63 65 64 64 61 62 62 64 64 64 68 67 68 61 61 61 56 57 57 59 59 59 66 67 68 44 44 44 168 168 168 91 91 91 57 55 57 66 66 66 65 65 65 64 64 64 58 58 58 59 58 58 59 59 59 56 56 56 58 58 58 58 58 58 59 59 59 59 58 59 64 64 64 60 60 60 68 68 68 66 66 66 70 70 70 59 60 58 57 57 55 44 43 43 169 169 169 94 94 94 57 58 57 57 57 57 66 66 66 61 61 61 62 61 62 60 60 60 55 55 55 59 58 59 61 61 61 51 51 51 177 177 177 94 91 94 61 59 60 58 58 58 58 58 58 62 62 62 68 68 68 59 59 59 59 61 61 56 55 54 61 62 63 63 63 63 53 53 53 68 69 70 
46 45 44 46 45 46 52 53 53 50 50 50 48 48 48 53 53 52 52 52 52 52 52 52 46 46 46 52 52 52 54 54 55 50 50 50 55 55 55 52 52 51 44 44 44 53 51 52 177 177 175 99 98 100 51 50 49 47 47 47 46 46 46 51 51 51 51 51 51 47 47 47 45 45 45 53 53 53 49 49 49 51 51 51 53 53 53 47 46 47 45 45 45 45 44 44 44 44 44 51 51 50 44 44 44 50 50 50 50 50 50 51 51 51 173 173 173 89 89 89 48 48 48 53 53 53 47 47 47 51 50 51 47 47 47 54 56 55 49 49 48 57 57 57 57 57 57 46 45 45 168 167 166 90 90 90 47 47 47 49 49 50 49 49 49 52 52 51 50 50 50 47 47 48 46 46 46 42 42 42 52 52 52 50 50 50 47 47 47 46 46 46 
171 171 171 177 177 177 170 170 170 174 174 174 177 177 177 167 167 167 170 172 171 171 173 173 169 169 169 176 176 176 176 176 176 180 180 180 174 174 174 175 175 175 176 177 176 164 164 164 178 178 178 170 168 170 176 176 176 163 163 163 173 173 173 179 179 179 167 167 164 168 168 168 172 172 172 170 170 171 164 169 166 176 175 174 176 181 178 175 175 175 178 178 178 177 177 177 179 179 179 166 165 165 167 169 171 173 172 173 169 169 169 170 175 170 171 172 171 166 165 165 171 171 171 173 173 173 171 174 177 172 171 175 175 172 174 174 174 174 178 179 180 163 164 164 165 165 165 171 171 171 170 172 172 164 165 165 168 168 169 167 167 167 166 167 166 176 176 176 170 168 169 169 165 169 175 176 175 169 166 171 169 169 169 171 172 169 168 168 165 178 178 178 
94 94 94 90 89 90 90 90 90 94 94 94 99 99 99 83 83 83 89 88 90 85 84 84 91 91 91 92 92 92 90 90 90 93 93 93 91 91 90 93 93 93 95 95 95 98 94 94 84 84 84 94 94 94 100 100 100 94 95 94 90 90 90 94 95 94 93 92 93 94 94 94 173 173 173 89 89 89 87 87 87 86 86 86 99 99 99 86 84 85 100 102 101 91 91 91 91 91 91 88 87 90 84 84 84 100 98 98 89 91 88 100 98 98 90 90 90 97 97 97 86 86 86 95 95 94 93 92 93 94 92 93 98 97 98 100 100 100 175 170 173 93 93 92 88 88 88 97 97 97 95 97 95 88 87 89 86 86 86 94 94 94 97 97 98 95 95 95 99 97 98 86 86 86 91 93 92 89 89 89 96 96 96 89 90 89 90 90 90 176 176 176 
90 90 90 59 59 58 57 57 57 66 64 64 65 65 65 64 64 64 62 62 62 61 62 62 63 63 63 62 62 62 58 58 59 53 53 54 66 66 66 55 56 55 60 60 60 60 60 60 59 59 59 57 57 57 54 54 54 58 58 58 68 68 68 55 56 55 64 64 66 50 50 50 173 173 174 92 92 92 58 58 58 68 67 67 64 64 63 61 63 62 57 58 57 54 55 55 69 69 70 56 56 56 53 53 53 67 67 67 64 64 64 66 66 66 58 58 58 54 54 54 57 58 58 59 59 58 69 69 69 63 63 63 53 53 53 49 49 49 166 166 166 102 102 102 59 59 59 68 68 68 56 56 56 56 56 56 60 61 61 63 63 63 58 58 58 64 64 64 55 55 55 60 60 60 64 64 64 58 58 58 53 53 53 54 54 54 51 51 51 169 169 169 
90 90 90 63 63 63 56 56 56 57 57 57 50 52 52 62 62 62 63 63 63 60 60 60 57 57 57 58 58 59 65 64 65 65 64 66 66 65 65 60 60 60 58 58 58 61 60 60 60 59 59 64 64 64 67 67 67 62 62 62 60 59 59 54 53 54 51 51 51 53 53 53 173 173 172 86 86 86 57 57 57 63 63 63 54 54 53 56 56 58 67 66 67 54 55 55 63 63 63 63 63 65 62 62 62 62 62 63 62 62 62 67 67 67 63 63 63 64 64 64 54 54 54 60 62 62 58 59 58 63 63 63 65 66 65 44 44 44 169 174 171 92 92 92 59 59 59 56 57 57 63 63 62 59 59 59 66 66 66 59 59 58 60 60 60 62 62 62 69 69 69 62 62 63 58 60 58 69 69 69 64 64 64 68 68 68 45 45 45 176 176 176 
93 93 93 63 63 63 67 67 67 62 62 60 60 60 60 52 52 52 63 62 62 63 63 64 61 61 61 63 63 63 62 62 62 57 57 57 57 57 57 59 59 59 56 56 56 51 51 51 66 66 66 65 65 65 65 65 65 63 61 63 59 59 59 61 61 61 62 62 62 50 50 50 163 163 164 96 95 95 60 60 60 62 64 62 60 61 61 54 54 54 68 68 68 61 61 61 62 62 62 57 57 57 56 56 56 62 61 61 62 62 62 69 69 69 67 67 67 60 60 60 61 60 60 63 64 63 66 66 65 58 58 58 62 62 62 46 46 46 167 167 167 96 95 95 63 63 63 60 59 60 59 59 58 57 58 58 55 55 55 60 60 60 58 59 60 70 69 70 54 54 54 67 67 66 62 62 62 67 67 67 64 64 64 61 61 61 49 49 49 169 166 171 
88 88 88 50 50 50 55 55 55 51 52 51 51 51 51 46 46 46 53 52 52 54 54 54 49 49 49 50 50 50 49 49 49 49 49 49 49 49 49 52 52 52 50 50 50 52 52 52 49 50 50 45 45 45 55 55 55 55 55 55 45 45 45 47 47 47 45 45 45 53 53 53 173 173 171 91 91 91 53 53 53 52 52 52 46 47 47 44 44 44 54 54 54 49 49 49 55 55 55 46 46 46 48 48 48 55 54 54 52 51 51 52 52 52 52 51 52 54 54 54 48 48 49 51 51 51 49 49 49 52 52 52 43 43 43 56 56 56 171 171 171 92 92 92 49 49 49 55 54 55 55 55 55 48 48 48 46 46 46 53 53 53 45 45 45 54 54 54 47 47 47 51 51 51 50 50 50 50 51 51 45 45 45 49 49 49 46 47 47 176 176 176 
167 167 169 166 168 166 176 176 176 170 170 170 164 167 169 176 176 176 168 168 168 175 175 175 177 177 177 174 175 171 169 167 171 163 163 163 163 166 165 167 167 167 162 162 162 170 170 170 175 175 175 173 173 173 164 164 164 181 176 180 166 166 166 174 174 174 174 174 174 181 179 179 172 172 171 171 168 173 172 168 167 168 166 164 170 170 170 177 176 178 168 170 167 167 168 166 168 171 165 173 174 174 171 171 171 172 172 172 165 165 165 173 171 173 173 173 173 170 170 170 160 164 164 163 162 162 173 173 173 171 171 171 177 178 177 177 177 177 173 173 173 176 179 177 173 173 174 171 171 171 171 171 171 174 174 174 172 172 172 173 173 173 174 177 175 177 175 175 172 172 170 179 180 178 179 179 178 172 173 175 172 172 173 164 167 164 170 170 170 180 180 180 
85 85 85 92 91 90 92 93 93 97 97 97 93 93 93 87 87 87 94 94 94 174 175 174 93 93 93 93 95 92 95 93 95 92 94 94 92 93 92 98 98 98 89 90 91 88 88 89 86 86 84 95 95 95 93 93 94 92 92 92 90 90 90 95 95 95 95 94 96 88 88 88 94 95 93 173 172 172 100 102 103 89 89 89 93 93 93 91 91 91 96 96 96 95 95 96 95 95 95 93 93 93 94 94 92 89 90 90 86 87 86 89 89 89 97 96 97 90 90 90 94 95 94 90 90 90 87 87 87 174 174 174 101 101 101 89 89 89 88 88 88 88 89 89 98 99 99 89 87 89 97 97 97 93 93 95 96 97 97 98 98 98 92 92 92 97 97 97 91 88 90 93 93 93 95 95 95 90 90 90 91 90 92 94 94 94 92 92 92 89 89 89 
65 65 65 61 60 60 55 55 55 59 59 59 63 63 63 57 59 59 43 42 42 180 180 180 95 95 95 57 57 57 56 56 56 69 68 67 66 66 66 66 66 66 61 60 62 66 68 65 66 66 66 60 60 60 61 61 61 67 67 67 59 59 59 54 54 54 64 64 64 65 65 66 57 57 57 164 163 163 100 100 100 66 68 68 59 58 59 64 63 62 64 64 64 60 60 60 60 59 58 61 61 61 54 54 54 59 59 59 63 63 63 55 54 54 66 66 66 59 59 59 62 62 62 60 59 59 58 58 58 173 173 173 87 87 86 59 59 59 67 68 67 63 62 63 61 61 61 64 64 64 68 68 68 64 64 64 62 62 62 58 58 58 57 57 57 63 63 63 63 63 63 63 64 64 55 55 55 63 63 63 62 62 62 59 58 59 61 61 62 65 65 65 
55 55 55 58 58 58 59 58 58 66 66 66 64 64 64 59 59 59 49 49 49 165 166 166 91 91 91 53 53 53 59 59 59 57 57 57 60 61 61 67 67 67 61 62 61 58 59 59 59 60 60 57 57 56 61 60 60 59 59 59 66 66 66 60 60 60 54 54 54 59 59 59 48 48 48 172 171 170 95 95 95 56 56 56 59 61 60 58 58 58 55 54 54 59 60 59 63 63 63 60 61 61 61 61 61 59 58 60 67 67 67 65 65 65 60 60 60 59 59 59 63 62 64 59 59 59 54 54 55 171 171 171 100 100 100 68 68 69 60 62 61 63 63 63 57 59 57 61 61 61 63 63 63 60 60 60 64 64 64 54 54 54 66 65 65 52 53 53 60 60 60 57 57 57 67 67 67 62 61 62 56 57 57 63 63 63 56 56 56 60 60 60 
56 56 56 61 61 61 55 54 54 53 53 53 63 64 64 58 58 58 57 57 57 174 179 175 92 92 92 59 59 59 63 63 63 57 57 57 56 56 56 62 62 62 55 56 56 56 57 55 63 63 63 61 60 61 59 59 60 62 62 62 60 60 60 56 56 56 57 57 57 56 57 56 53 53 53 174 173 176 83 85 83 62 62 62 60 60 60 53 53 53 66 66 66 61 61 61 57 57 57 63 62 62 53 53 53 57 57 57 61 60 61 69 69 69 60 60 60 62 62 64 57 58 57 57 58 58 49 49 49 173 173 173 89 89 89 62 62 62 62 62 62 57 57 57 63 61 62 64 64 64 60 59 59 62 63 62 54 53 54 59 59 59 66 66 66 64 63 62 65 66 63 61 61 60 63 62 62 64 64 64 64 65 66 59 59 59 66 66 66 55 55 55 
46 46 46 54 54 54 52 52 52 51 51 51 49 49 49 49 49 49 55 54 55 171 172 172 94 95 94 44 44 44 49 49 49 49 48 48 42 42 42 47 47 47 50 50 49 49 49 49 50 50 50 51 51 51 56 55 55 53 54 53 51 51 50 42 42 42 51 50 50 52 52 52 41 41 41 171 172 172 90 92 91 44 44 44 53 53 53 47 47 47 47 47 47 52 52 52 51 51 50 58 58 58 45 45 45 49 49 50 46 47 47 59 59 59 52 52 52 48 48 48 42 41 41 49 49 49 56 56 56 163 163 165 98 98 98 49 49 49 53 53 53 51 51 51 49 50 50 43 43 44 45 45 45 52 52 52 48 48 48 46 46 46 50 49 49 49 49 48 50 50 50 45 44 44 44 44 44 45 45 45 57 57 57 51 50 50 48 48 49 53 53 53 
164 166 166 174 172 171 167 169 168 171 170 172 172 172 172 168 168 169 170 170 170 166 166 165 165 165 165 171 172 171 168 169 166 167 167 167 172 172 172 170 170 170 167 167 167 178 176 177 171 171 171 172 173 174 170 170 170 175 176 175 172 172 173 168 168 168 175 175 175 166 167 164 173 175 175 167 167 167 172 172 172 169 169 169 180 180 180 172 172 172 171 169 169 172 172 172 167 167 167 170 170 170 173 173 173 175 173 173 166 162 168 167 167 167 173 168 174 181 181 181 176 175 176 173 175 174 169 169 169 166 167 166 172 172 172 172 172 171 166 166 166 168 168 168 176 176 176 171 171 171 164 164 164 180 181 179 179 179 179 171 171 172 173 173 173 178 178 178 167 167 170 173 173 173 165 165 165 163 163 163 166 165 165 169 170 169 178 178 178 169 170 174 
99 99 100 99 99 99 102 102 102 97 97 97 95 95 95 95 95 95 92 92 93 89 89 89 100 99 99 91 91 91 94 94 94 85 84 85 85 84 84 164 164 164 95 95 95 85 86 85 87 87 87 93 93 93 90 88 88 87 87 88 86 86 86 93 93 93 100 101 99 91 93 92 85 85 85 94 94 94 93 93 92 90 89 88 96 96 97 176 176 176 90 90 90 93 94 92 90 91 90 91 91 91 86 85 86 168 169 169 89 90 90 100 99 99 102 102 102 87 87 86 87 87 87 97 97 97 93 94 95 87 84 84 95 95 96 93 93 93 90 90 90 86 86 86 93 93 93 92 92 92 92 92 92 84 84 84 169 169 169 89 87 89 92 92 92 98 98 98 88 90 89 89 88 89 89 89 89 89 89 89 92 92 92 97 97 97 99 98 97 87 88 88 
64 64 64 60 60 60 64 64 64 58 56 57 66 66 66 58 58 57 64 64 64 54 54 54 58 58 58 70 70 70 58 58 58 56 56 56 49 49 49 172 172 172 93 93 93 54 54 54 61 61 61 65 67 65 58 59 59 67 67 67 60 60 60 68 68 67 58 59 60 61 61 62 66 66 66 54 54 54 61 63 61 64 64 64 41 41 41 177 177 177 92 92 92 63 63 63 56 56 56 65 65 65 48 48 48 173 173 173 87 88 86 64 64 64 56 56 56 66 66 66 66 66 66 55 56 55 55 54 55 57 57 57 59 59 59 67 67 66 61 61 61 56 56 56 58 58 58 63 63 63 66 66 66 52 52 52 177 172 177 85 87 88 67 67 67 62 61 62 55 56 55 57 57 57 70 70 69 58 58 58 67 67 68 59 59 59 60 60 60 66 66 66 
54 55 53 60 60 60 67 67 69 62 62 62 56 56 56 60 60 60 61 61 61 58 58 58 59 59 59 56 56 56 67 68 67 60 60 60 44 44 44 170 170 171 85 85 85 53 53 53 63 63 63 54 54 54 59 57 57 59 59 59 57 57 57 65 65 65 59 60 61 66 66 66 68 69 68 54 54 54 56 56 56 64 64 64 53 53 53 181 181 181 91 91 90 54 54 54 65 65 65 61 60 60 55 55 55 178 178 178 96 97 96 64 61 61 66 67 67 63 63 63 60 60 60 67 67 67 68 68 67 58 59 57 63 63 63 65 65 64 61 61 61 65 65 65 62 62 62 63 63 63 56 57 57 49 49 49 163 163 163 95 93 94 59 58 58 60 60 61 60 60 60 59 59 59 67 67 67 57 57 57 53 54 53 68 69 68 59 59 59 53 51 52 
66 66 66 65 65 65 57 56 56 63 64 63 55 55 55 61 61 61 57 57 57 65 65 65 59 59 59 62 62 62 60 60 60 56 56 56 48 48 48 166 166 167 87 88 87 61 60 61 65 65 65 68 68 69 65 65 65 60 60 60 65 65 65 55 56 55 61 61 61 55 54 55 60 59 59 63 63 63 60 60 60 62 62 62 52 51 52 167 167 167 92 92 92 59 59 59 59 59 59 59 59 59 54 54 54 171 171 171 86 86 86 62 62 62 61 61 61 59 59 59 65 65 65 66 69 67 69 68 69 57 57 57 65 65 65 62 62 62 61 61 61 69 70 70 65 65 65 66 66 66 61 61 61 51 51 51 175 175 175 86 86 86 57 57 57 63 63 62 62 62 60 69 69 69 55 55 54 66 66 66 56 56 56 62 62 62 56 56 55 56 56 56 
50 49 50 47 47 47 49 49 49 41 41 41 47 47 48 51 51 51 47 48 48 50 50 50 54 55 56 54 54 54 44 45 45 48 49 50 40 40 40 172 172 172 89 89 90 46 46 47 50 50 50 51 51 51 54 54 54 46 46 46 50 50 50 54 54 54 49 49 49 53 53 53 50 50 49 44 45 45 54 53 53 46 46 46 57 57 57 177 177 177 94 92 92 52 51 51 46 46 46 47 47 47 47 47 47 164 164 164 101 101 101 42 43 44 42 42 42 54 55 54 43 43 43 58 58 59 49 49 49 45 45 45 55 55 55 55 55 55 45 45 45 52 52 53 52 52 53 56 56 56 56 57 56 49 49 49 161 164 164 97 97 97 51 51 51 53 52 53 41 41 41 54 54 54 57 57 57 51 51 52 49 49 51 47 46 47 51 52 52 52 52 52 
165 165 171 174 171 170 173 171 173 172 175 175 171 171 171 176 176 176 163 162 165 171 171 171 171 171 171 176 176 176 178 178 178 173 173 173 169 169 169 175 175 175 170 173 173 174 174 174 170 170 170 169 169 170 180 180 180 175 175 175 170 170 170 176 173 174 171 170 170 174 176 178 173 173 173 168 168 169 171 171 170 172 172 172 169 169 169 173 173 173 172 172 172 171 171 171 169 169 165 172 172 172 169 166 171 176 175 174 170 170 170 176 176 176 174 174 174 165 165 165 167 168 166 170 171 171 173 173 173 177 177 177 176 176 176 177 176 176 180 180 180 169 169 169 173 173 173 167 163 167 174 174 174 178 178 178 171 171 171 178 179 179 176 176 176 181 181 181 168 168 168 179 179 179 169 169 169 179 179 179 174 174 174 172 169 169 172 172 172 177 178 174 
95 95 95 101 99 99 169 169 169 91 92 91 86 86 86 94 94 94 94 93 92 90 90 90 89 89 89 94 94 94 99 98 99 95 95 95 102 102 101 96 96 96 94 94 94 88 88 88 93 92 91 85 85 85 87 86 87 95 95 95 98 98 98 87 86 89 85 85 85 95 95 93 170 170 170 92 92 92 97 97 97 92 91 90 88 88 88 83 83 83 90 90 90 93 93 93 97 99 98 92 91 93 86 86 86 91 91 91 98 98 98 94 96 95 98 98 98 89 88 89 87 87 87 97 97 96 89 89 89 97 97 98 100 100 100 170 170 169 87 88 87 98 98 98 93 93 93 89 89 89 93 93 93 95 95 95 91 91 91 101 101 101 91 91 91 95 95 95 90 90 90 95 97 95 89 92 90 99 98 99 93 93 93 100 100 100 96 96 96 94 97 96 
67 67 67 56 56 56 172 169 169 98 98 98 61 61 61 57 57 57 64 64 64 56 56 56 62 62 62 64 63 63 62 62 62 57 58 56 55 56 55 53 53 53 63 62 62 67 67 67 65 65 65 56 56 56 55 55 55 64 64 64 54 54 54 61 61 61 61 61 61 57 59 58 171 171 171 97 97 97 58 59 58 66 65 66 51 50 50 56 56 56 56 56 56 63 63 63 64 64 64 69 68 69 60 61 60 56 56 56 61 61 61 68 68 68 61 62 62 63 62 62 58 58 58 58 58 58 57 57 57 56 56 57 49 49 49 168 167 167 94 95 95 60 60 60 62 62 62 59 59 59 57 57 57 63 63 63 60 60 60 57 57 57 52 51 52 65 65 65 55 55 57 59 59 59 57 58 58 65 65 65 59 59 59 59 59 59 67 67 67 56 57 55 
60 59 60 57 57 57 164 164 164 95 95 95 60 62 60 62 62 62 62 62 62 68 67 68 59 59 58 56 57 57 52 51 52 61 61 61 68 68 68 67 69 67 61 61 61 67 67 67 64 64 64 56 56 56 65 65 65 53 54 54 58 57 57 57 57 58 61 61 61 57 57 57 163 164 163 93 93 93 64 63 65 63 63 63 56 56 56 62 62 62 54 52 52 63 62 63 59 59 59 65 65 65 56 57 58 59 58 58 57 57 57 61 60 61 57 59 57 65 65 65 54 54 54 70 70 70 56 54 54 57 57 57 48 49 48 164 162 163 83 84 83 60 60 61 68 68 70 63 63 63 63 63 63 59 59 59 52 52 52 58 58 58 69 69 69 62 60 62 56 57 57 55 55 55 62 62 62 63 63 63 66 66 66 54 54 53 57 57 58 66 65 65 
65 64 64 47 47 47 170 170 170 97 97 97 56 56 56 53 53 53 62 62 62 68 68 68 66 66 66 55 55 55 69 69 69 60 60 60 55 55 55 61 60 61 67 67 67 62 62 62 56 56 56 63 63 63 60 60 60 69 69 69 64 64 64 53 53 53 61 61 61 53 53 53 166 164 168 99 100 99 57 57 57 62 64 62 60 60 60 57 58 57 62 62 62 62 62 62 70 70 70 62 64 62 62 61 62 60 60 60 56 56 56 57 57 57 64 64 64 58 59 59 61 61 61 62 62 62 56 56 56 55 55 55 51 51 51 168 168 168 92 92 92 59 59 59 69 69 69 55 55 54 66 66 66 63 63 63 55 55 55 64 63 63 55 55 55 65 65 65 56 56 56 62 63 62 55 54 54 62 62 62 66 66 66 60 60 60 63 63 63 62 62 62 
47 47 47 49 50 49 173 173 173 92 92 92 50 50 50 53 52 53 49 49 49 46 46 46 50 50 50 51 51 51 56 56 56 54 54 54 52 52 52 52 52 52 47 48 47 49 49 49 46 45 45 51 50 52 49 49 49 51 51 51 49 49 50 45 45 45 55 56 56 46 45 47 172 169 171 96 96 96 47 47 47 48 48 48 55 55 55 56 56 56 41 41 41 50 50 50 46 46 46 46 46 46 48 48 48 51 52 52 42 43 43 50 50 50 57 57 57 48 48 48 47 47 47 50 51 51 50 50 50 54 54 54 53 54 55 176 176 176 94 94 94 48 48 48 44 44 44 44 44 44 50 50 50 48 48 48 52 52 52 48 48 48 50 50 50 43 43 43 56 56 56 47 48 47 47 47 47 47 47 47 56 57 57 54 54 54 49 49 49 50 50 50 
167 167 167 168 172 171 170 170 170 176 176 176 169 169 170 170 170 170 178 178 178 169 174 168 173 173 173 175 175 175 170 170 170 173 172 171 172 173 172 174 174 174 179 179 179 172 172 172 166 166 166 172 169 171 166 166 166 175 175 175 160 163 159 168 168 168 180 180 180 171 178 176 175 175 175 178 176 176 175 177 177 171 171 171 178 178 178 170 170 170 171 171 171 175 170 174 174 174 174 173 173 173 167 167 167 169 168 172 175 175 175 173 169 172 170 167 168 172 172 172 163 163 163 174 174 174 166 166 167 166 167 166 170 173 172 167 167 167 174 177 176 171 168 168 166 166 166 172 172 172 173 173 173 170 173 168 171 167 166 173 173 173 169 169 169 174 174 170 166 167 166 170 169 167 168 168 168 176 176 176 170 170 168 161 162 167 165 165 165 173 178 177 
90 90 90 85 85 85 97 98 97 97 97 96 95 95 95 166 168 165 89 89 89 89 88 88 85 85 86 94 94 94 97 98 97 87 87 87 85 85 85 100 101 101 85 85 85 94 94 94 98 94 96 98 101 99 91 91 91 95 95 96 95 95 95 86 86 86 95 95 95 92 92 92 89 89 89 93 93 93 95 95 95 96 95 96 96 96 96 91 90 92 175 175 175 95 95 95 89 90 89 91 90 92 98 98 98 94 94 94 90 90 90 93 93 92 172 173 173 94 91 92 91 93 92 93 93 93 93 93 93 88 88 88 90 91 89 93 96 93 88 88 88 91 92 92 92 92 93 92 92 92 180 180 180 92 92 92 89 89 90 91 91 92 87 90 90 86 86 86 92 93 90 95 94 96 92 89 91 94 93 93 102 102 102 85 85 85 90 90 90 91 91 91 
58 58 58 60 60 60 61 60 61 58 58 57 47 47 47 176 169 176 96 95 93 68 68 68 59 59 59 58 58 58 62 62 62 56 57 56 65 65 64 58 58 58 55 55 55 66 66 66 65 65 65 63 64 63 57 57 57 61 61 60 66 66 66 67 67 67 62 62 62 57 57 57 62 62 62 60 60 60 71 71 70 65 66 66 62 60 62 55 55 55 173 173 173 92 92 92 59 59 59 55 55 55 58 58 57 58 57 57 63 62 64 56 58 56 167 167 167 91 91 91 66 66 66 60 60 60 52 52 52 58 58 58 68 68 69 61 61 62 61 61 61 60 61 60 66 66 66 53 53 53 164 167 165 88 88 88 64 64 64 60 61 60 68 68 68 62 62 62 57 56 56 64 64 64 65 65 65 63 63 63 57 57 57 60 60 60 55 56 54 68 68 68 
52 53 53 56 56 56 67 67 67 59 59 59 42 42 42 172 172 172 84 86 84 64 65 63 66 64 65 59 60 60 63 63 63 57 56 56 64 64 64 68 69 68 63 63 63 69 69 69 67 67 67 55 55 55 55 55 55 60 61 60 56 56 56 62 64 62 62 62 63 59 59 59 56 56 56 62 63 64 59 60 60 59 59 59 60 60 61 48 46 47 176 176 176 92 93 92 57 56 56 61 61 61 60 60 60 55 55 55 62 63 63 52 52 52 169 170 167 88 88 88 55 55 55 62 62 62 60 60 60 63 63 63 61 60 60 63 63 63 56 56 56 66 66 66 61 61 61 50 50 50 179 178 179 98 98 97 57 57 57 63 63 63 51 52 53 53 53 53 57 57 57 65 65 65 62 62 62 59 58 59 69 69 69 64 64 64 61 62 60 57 57 57 
66 66 68 58 58 59 60 60 60 54 54 53 52 52 52 168 169 169 94 93 94 66 66 66 61 61 61 68 68 68 56 56 56 56 56 56 64 64 64 62 62 62 63 63 63 57 56 58 69 69 69 54 54 54 61 62 61 55 55 55 62 62 62 67 67 67 66 67 66 62 62 62 62 62 62 66 66 66 67 67 67 61 61 61 57 57 58 43 43 43 175 175 175 85 85 85 66 66 66 57 57 57 57 56 57 64 63 65 67 67 67 49 49 49 173 173 173 92 91 91 62 62 62 57 56 58 58 58 58 57 56 56 61 61 61 61 61 61 56 56 56 64 64 64 61 60 60 57 57 57 174 174 174 97 97 97 67 66 65 60 59 59 66 66 66 55 55 55 52 52 53 65 65 65 53 53 53 59 59 59 63 61 62 51 51 50 67 67 67 62 62 62 
47 47 47 43 43 44 51 51 51 46 46 46 51 50 50 172 177 175 94 94 94 51 51 51 52 52 52 41 40 40 55 54 53 57 57 57 48 48 48 59 59 59 44 44 44 53 53 53 47 47 47 47 47 47 50 50 49 51 51 51 51 51 51 47 47 47 48 48 48 57 57 57 51 51 51 54 54 54 59 59 59 47 49 49 50 50 50 49 50 51 177 177 177 86 88 88 59 59 59 42 44 44 50 50 50 50 49 50 46 46 46 54 54 54 171 171 171 98 98 98 53 54 53 45 46 45 52 51 52 52 52 52 54 54 54 49 49 49 41 42 41 55 55 55 58 59 58 58 58 58 168 168 168 85 85 85 51 51 51 50 50 50 42 42 42 56 55 55 42 42 42 46 46 46 43 43 43 56 56 56 41 41 41 52 53 52 50 50 50 47 47 47 
171 171 171 173 173 173 171 171 171 166 166 166 170 170 170 165 164 165 176 176 176 176 176 176 174 174 174 174 174 174 178 176 176 170 169 169 172 172 172 165 167 166 170 170 170 172 172 172 178 178 178 168 173 170 174 174 174 169 169 169 174 174 174 175 174 173 168 170 173 172 171 170 170 172 171 180 180 180 173 170 174 175 176 177 166 166 166 176 175 175 172 171 171 174 174 174 170 170 170 173 173 173 178 178 178 168 170 170 171 175 172 177 177 177 169 169 169 174 174 174 176 176 176 171 170 168 176 176 176 179 179 181 178 178 178 174 174 174 179 179 179 174 174 174 174 174 174 174 174 174 169 169 169 175 175 175 178 177 176 169 166 166 167 169 164 177 177 177 171 171 171 178 178 178 163 163 163 165 165 165 171 171 171 173 173 175 170 173 168 171 171 171 
90 89 88 99 99 99 180 180 180 94 94 94 93 92 91 84 86 84 90 90 90 98 98 98 88 88 88 91 90 91 95 93 92 94 95 96 88 88 88 90 90 90 86 85 86 89 89 89 91 91 91 92 92 92 102 102 102 83 84 84 95 95 95 98 98 98 88 88 88 97 95 97 170 170 170 89 89 89 92 92 93 94 94 94 90 90 90 89 89 89 95 98 97 93 93 94 97 97 96 86 85 84 93 93 93 89 91 92 91 90 90 93 93 93 95 96 94 93 93 93 98 98 98 95 95 95 89 88 90 97 97 97 98 98 98 93 93 93 172 172 172 95 97 95 95 95 95 90 90 90 88 88 88 86 86 86 93 93 93 90 90 91 94 94 94 93 92 92 95 95 95 99 100 99 88 87 88 99 99 99 94 96 93 90 90 90 89 89 90 85 85 84 
60 60 60 55 55 55 174 174 174 87 87 87 60 60 60 55 55 55 54 54 54 56 56 56 64 64 64 56 56 56 65 65 65 62 62 62 52 52 52 59 59 59 57 57 57 66 66 66 63 63 63 61 61 61 61 61 61 61 61 61 68 68 68 63 63 63 65 65 65 54 54 54 174 174 173 99 99 99 64 64 64 54 54 54 64 64 64 62 63 63 61 60 59 67 67 67 65 65 65 54 57 57 58 58 58 63 63 63 59 61 60 65 65 65 70 70 70 61 61 61 64 62 63 63 63 63 63 63 63 55 54 55 60 60 60 41 41 41 164 164 164 87 87 87 67 67 67 58 58 58 55 55 55 61 62 60 56 56 56 55 55 55 69 69 69 65 66 66 67 67 65 66 66 66 58 58 58 62 62 62 56 56 56 53 53 53 58 58 58 61 61 61 
60 59 60 54 54 54 168 168 168 93 93 93 58 58 58 58 58 60 70 70 71 60 61 60 56 56 56 58 58 59 60 60 60 63 63 63 53 53 53 69 68 68 64 64 64 55 55 55 67 67 67 57 57 57 60 60 60 63 63 63 52 52 52 64 65 65 61 61 61 59 59 59 173 173 173 87 87 87 58 58 58 63 62 65 56 56 56 67 68 68 65 65 65 64 64 64 65 65 65 66 66 66 62 62 62 66 66 66 58 57 58 58 58 58 61 61 61 64 65 64 62 61 60 70 70 70 60 61 61 58 58 58 61 61 61 53 51 52 173 173 173 91 92 91 62 62 62 56 56 56 58 58 58 63 63 63 67 67 67 65 65 65 55 55 55 63 63 63 55 55 55 59 58 58 67 67 67 66 65 67 53 53 53 55 55 55 67 66 67 61 61 61 
63 63 64 55 55 55 175 175 175 86 87 86 57 57 57 56 56 56 60 60 62 53 54 53 66 65 66 59 59 59 55 55 55 66 66 66 62 62 62 68 68 68 56 56 56 63 63 63 64 64 64 64 64 64 61 61 62 59 59 59 59 59 59 60 61 61 60 60 61 47 47 47 169 169 169 96 99 99 59 61 59 55 54 54 54 54 54 59 59 59 66 66 66 63 63 63 63 63 64 60 60 60 53 53 53 64 64 64 58 58 58 60 60 60 58 58 58 62 62 62 61 61 63 56 56 56 64 64 64 55 54 54 69 69 69 51 51 51 167 167 169 100 100 100 55 55 55 57 57 56 62 62 62 58 58 58 66 66 66 62 62 62 65 65 65 63 63 63 61 61 61 60 60 61 55 55 55 56 55 55 58 58 58 68 66 66 58 58 58 57 57 57 
51 51 51 46 46 46 172 172 172 98 98 98 55 55 55 54 54 54 52 52 52 50 50 50 50 50 50 52 51 52 52 52 52 48 48 48 52 52 52 47 47 47 50 51 50 47 47 47 45 45 45 54 54 54 52 52 52 54 53 53 53 53 53 45 45 45 46 46 46 50 50 50 163 163 163 93 92 91 52 52 52 55 55 55 43 43 43 50 50 50 46 46 46 49 49 49 54 53 53 43 44 43 47 47 47 49 50 49 50 50 50 48 48 50 52 52 52 56 57 56 44 44 44 44 44 44 57 58 58 49 49 49 54 54 54 44 44 44 175 176 177 94 94 94 43 43 43 44 44 44 46 46 46 45 45 45 50 51 49 55 55 54 50 50 50 49 49 49 50 50 50 53 53 53 50 50 50 43 43 43 51 51 51 50 49 50 53 53 53 48 48 48 
170 170 170 165 164 165 176 175 175 176 176 176 167 167 166 163 166 162 173 173 173 174 174 174 171 168 171 169 169 169 175 175 175 169 169 169 172 172 172 176 176 176 163 163 163 171 171 171 163 163 162 169 169 169 166 166 166 175 170 176 176 176 176 171 168 168 174 174 174 164 164 164 175 175 175 172 172 172 172 172 172 169 170 169 167 169 165 170 170 170 167 170 167 180 180 179 168 171 168 171 171 171 171 171 171 178 178 178 165 165 165 173 177 173 169 169 168 170 171 171 173 173 173 165 165 165 172 172 172 179 178 180 175 174 172 171 171 171 181 181 181 173 172 171 172 175 174 166 166 166 169 171 171 169 169 169 177 177 177 169 169 169 173 171 173 172 173 173 167 167 167 165 165 165 167 166 166 165 165 165 175 175 175 166 162 167 168 168 168 172 176 174 
89 89 89 96 95 95 94 94 94 89 87 88 98 99 96 94 94 94 87 90 88 169 169 169 89 89 89 93 94 93 95 95 95 86 86 85 96 95 95 88 89 88 102 102 102 97 97 97 85 85 85 91 92 92 92 92 92 99 99 99 89 89 89 98 98 98 89 89 89 94 95 93 89 89 89 170 170 170 93 92 91 95 95 95 100 100 100 97 98 97 93 93 93 96 96 96 92 93 92 92 92 92 87 88 88 94 94 94 90 90 90 92 92 92 88 88 88 91 91 91 94 93 93 101 101 101 90 89 89 178 178 178 93 93 93 101 101 101 97 97 97 90 90 90 93 93 93 88 89 88 92 92 92 178 178 177 92 92 92 100 100 100 94 94 94 92 91 92 95 95 95 97 97 97 90 90 90 94 94 94 93 94 93 90 90 90 91 92 92 93 92 93 
57 58 57 54 53 53 66 66 66 52 52 52 57 57 57 61 61 61 53 53 53 174 170 174 94 94 94 52 52 52 61 61 61 60 60 60 61 61 61 66 66 66 60 60 60 64 64 64 59 59 59 61 61 61 54 54 54 61 60 61 65 65 65 61 61 61 56 56 56 59 59 59 44 44 44 173 172 169 94 94 94 61 60 60 61 61 61 61 61 61 59 59 59 62 64 63 63 63 63 56 56 56 66 66 66 58 58 58 66 65 65 61 61 61 56 56 56 52 51 52 63 64 63 60 61 61 56 56 56 174 174 174 85 86 86 61 61 61 63 62 62 57 57 57 62 63 63 64 64 64 46 46 46 167 166 167 90 90 90 55 55 55 61 61 61 65 65 65 65 65 65 61 61 60 60 60 60 61 61 61 63 61 63 62 64 63 61 61 61 58 58 58 
57 57 57 54 53 54 60 61 61 54 55 54 62 62 64 59 58 59 44 45 45 169 169 169 94 95 95 58 58 58 60 60 60 54 54 54 63 63 63 63 63 63 56 56 57 60 60 60 55 56 57 62 62 62 63 63 63 64 64 64 61 61 62 59 60 60 61 61 61 52 52 52 53 53 53 172 172 172 95 95 97 61 61 61 56 56 57 55 56 56 62 63 64 61 61 61 57 58 57 65 65 65 69 69 69 56 56 56 63 63 63 63 64 63 55 55 55 58 58 57 59 61 60 60 60 60 46 46 46 175 175 175 95 95 95 65 65 65 62 61 61 66 66 66 63 63 63 63 61 61 46 46 46 178 177 177 91 92 91 58 58 58 58 58 58 63 63 63 60 60 60 59 59 58 60 60 60 54 54 54 55 55 55 56 56 56 70 70 70 59 60 60 
64 65 65 60 61 59 63 63 63 56 56 56 62 62 62 58 58 58 52 52 52 163 162 161 94 94 94 62 62 62 53 53 53 59 58 59 60 60 60 60 60 60 61 61 61 56 56 56 61 62 61 63 64 65 54 54 54 58 58 60 62 64 63 68 68 68 63 62 64 65 63 65 50 50 50 169 169 169 89 90 90 66 66 66 54 53 54 62 62 62 60 60 60 62 60 62 64 64 64 61 61 61 65 65 65 60 59 59 56 56 56 60 60 60 59 58 59 54 54 54 59 59 59 66 66 67 52 52 52 172 172 172 91 92 91 62 64 64 69 68 69 63 63 63 60 60 60 57 57 57 46 46 46 168 167 167 92 93 93 56 56 56 60 60 60 62 62 62 61 61 61 62 62 62 61 61 61 64 64 64 62 62 62 67 67 67 55 55 55 64 64 65 
54 54 54 50 50 50 44 44 44 44 44 44 45 45 45 48 48 48 47 47 47 175 175 175 87 87 87 46 46 46 50 50 50 55 55 55 49 49 49 47 48 47 49 49 49 46 46 46 51 52 52 52 52 52 50 50 50 45 45 45 54 54 54 53 53 53 42 42 42 57 56 57 50 50 50 165 165 165 97 97 97 45 45 45 54 54 54 50 50 50 51 51 50 49 49 49 53 53 53 53 53 53 56 56 56 55 55 55 41 41 41 42 42 42 52 52 52 52 52 52 46 46 46 58 58 58 49 49 49 165 165 165 94 94 94 44 44 44 56 56 56 56 56 56 54 54 54 56 56 56 46 46 46 174 174 174 97 97 97 45 45 44 57 57 57 54 54 54 51 51 51 46 46 46 41 41 41 50 51 50 51 51 51 46 46 46 47 47 48 53 53 54 
