P3
#Created with GIMP
64 64
255
174 61 48 194 68 53 180 64 50 196 69 54 184 65 51 180 64 49 182 64 49 204 72 56 184 66 51 170 61 47 188 68 51 190 66 52 196 69 52 198 70 54 182 64 50 182 64 50 184 65 51 194 68 53 194 68 53 192 68 53 167 167 167 188 66 52 194 68 53 184 66 51 176 62 48 192 68 53 194 68 53 184 65 51 176 62 48 182 64 49 182 64 50 188 66 52 186 65 51 180 64 49 170 60 47 184 65 51 180 64 49 188 66 51 180 64 49 196 67 53 188 66 52 182 64 50 170 170 170 182 64 50 176 62 48 184 65 51 188 66 52 196 69 54 186 65 51 190 67 52 182 64 50 188 66 52 186 66 51 194 68 53 198 70 54 190 66 51 174 61 49 182 64 50 194 68 53 204 72 56 182 64 50 172 61 47 194 68 53 190 66 52 
174 61 48 134 47 37 110 39 30 116 41 32 116 41 32 114 40 31 118 42 32 122 43 33 106 37 28 124 44 34 126 44 34 122 42 32 126 44 35 124 44 34 130 46 36 110 39 30 112 40 31 114 40 31 124 44 35 92 32 25 175 175 175 184 65 51 122 43 33 128 45 35 114 39 31 106 37 29 132 47 36 112 40 31 122 42 33 120 42 32 106 37 29 122 43 33 118 42 32 116 41 32 134 47 37 122 43 33 124 43 34 134 47 37 130 46 36 124 44 34 124 43 34 110 39 30 161 164 166 172 61 47 110 40 30 120 42 33 132 47 37 124 44 34 136 48 37 124 44 34 130 46 36 134 47 37 114 40 31 128 46 35 116 40 31 116 42 32 132 47 36 136 48 37 120 42 33 116 42 32 116 41 32 126 44 34 108 38 30 106 37 29 
186 67 51 120 42 33 104 37 28 130 46 36 114 41 31 134 47 37 122 43 33 112 40 31 128 45 35 114 40 32 112 39 31 118 42 32 116 41 32 112 40 31 128 45 35 108 40 30 124 42 34 120 42 33 104 37 29 106 37 29 178 175 174 200 71 55 112 40 31 112 40 31 132 47 36 112 40 31 114 40 31 132 47 36 118 42 32 120 43 32 124 43 34 118 42 32 120 42 33 110 39 31 110 39 31 122 43 33 114 40 31 114 40 32 126 44 35 122 43 33 130 46 36 106 37 29 173 173 173 178 63 50 130 45 35 120 42 32 130 46 36 120 42 32 126 44 35 126 44 35 112 40 31 122 43 33 124 44 34 118 42 32 120 42 33 116 41 32 136 47 36 114 40 31 122 43 33 120 42 33 110 40 31 124 44 34 110 39 30 80 29 22 
198 70 54 112 40 31 108 38 30 110 39 30 100 36 27 104 37 29 114 40 31 104 37 29 102 35 27 92 32 25 98 35 27 102 36 28 100 35 27 118 41 32 94 33 26 84 30 23 106 37 29 104 37 29 98 35 27 92 32 25 177 177 177 192 67 54 112 40 31 94 33 26 94 33 26 110 39 30 94 33 26 102 36 28 104 36 28 114 40 31 102 36 28 102 36 28 88 31 24 102 36 28 94 33 26 100 35 27 96 35 27 108 38 30 108 38 30 110 38 30 90 32 25 108 38 30 173 173 173 180 64 50 86 30 24 98 35 27 98 35 27 102 36 28 86 31 24 110 39 30 86 30 23 98 35 27 100 35 27 110 39 30 94 33 26 104 37 29 106 37 29 100 36 27 98 35 27 86 31 24 94 33 26 104 38 29 102 36 28 106 37 29 
165 165 164 170 170 170 177 178 178 170 170 169 180 178 178 173 173 173 178 178 178 179 179 179 169 171 169 168 168 168 172 171 171 168 168 168 171 172 171 171 171 171 167 163 164 170 170 166 173 173 173 170 170 170 166 166 166 172 172 172 173 177 174 176 176 176 171 172 173 178 178 178 182 182 182 171 168 170 171 170 171 180 180 180 166 167 165 175 175 175 174 174 174 174 174 175 163 163 163 168 170 170 168 167 165 171 171 171 172 172 172 177 178 177 175 176 176 170 170 170 179 180 175 181 179 181 171 171 171 174 169 169 173 173 173 180 180 180 173 173 173 174 174 174 171 170 167 172 172 172 178 178 178 167 167 167 180 177 179 166 166 166 171 171 171 175 175 175 169 169 169 167 167 167 171 171 169 172 172 172 171 173 172 165 165 164 173 173 173 164 164 164 
178 63 49 184 65 51 182 64 50 192 68 53 186 65 51 174 61 48 180 64 49 186 66 52 184 65 51 198 68 54 188 66 52 188 66 52 182 64 50 166 165 171 188 66 52 180 64 49 186 66 51 170 60 47 180 64 51 186 65 51 172 61 47 168 59 46 196 69 54 184 65 50 186 67 52 184 65 51 186 66 52 196 69 54 184 65 51 172 172 172 192 68 53 182 64 50 186 66 51 188 67 52 186 66 51 164 164 164 174 61 48 202 71 55 178 63 49 178 64 50 194 68 53 188 67 52 194 68 53 188 66 52 198 70 54 198 70 54 178 63 49 178 63 49 190 67 52 194 68 53 182 64 50 190 67 52 173 173 173 176 62 48 182 64 50 182 64 50 170 60 47 192 68 53 190 68 53 182 64 49 182 64 50 192 68 53 184 65 51 182 66 50 
122 43 33 128 45 35 128 45 35 124 44 34 106 37 29 106 37 29 106 39 30 126 44 35 126 44 35 124 44 34 120 42 33 130 46 36 98 35 27 170 170 170 178 63 49 126 44 35 114 40 31 118 42 33 140 49 38 124 44 34 132 47 36 140 49 38 116 40 32 114 40 31 126 44 35 120 42 33 138 48 37 110 39 30 94 33 26 172 168 173 180 64 49 120 42 33 118 42 32 122 43 33 102 36 27 162 163 163 188 66 52 132 46 37 126 44 35 118 42 32 132 48 37 118 42 32 110 39 30 116 40 32 130 46 36 130 47 35 122 43 33 124 44 34 126 44 35 122 43 33 130 46 36 100 35 27 167 167 167 174 61 48 116 41 32 120 42 33 116 41 32 124 44 35 124 43 33 120 42 33 124 44 34 134 47 36 128 45 35 110 38 31 
116 41 32 110 38 30 134 47 37 128 45 35 122 43 33 120 42 33 106 37 29 128 45 35 118 42 32 124 44 34 106 37 29 140 49 38 98 35 27 180 180 180 182 64 50 114 40 31 120 43 33 124 44 34 122 43 33 130 46 35 118 41 32 114 40 31 126 44 35 124 44 35 124 44 34 122 43 33 122 44 34 122 43 33 98 35 27 171 169 170 190 67 52 122 43 33 116 41 32 128 45 34 90 32 25 169 169 171 168 59 46 118 42 32 106 37 29 106 37 29 134 47 37 134 47 37 120 42 33 128 44 33 130 46 36 130 46 36 110 39 31 116 41 32 126 44 35 122 43 33 118 42 32 100 35 27 175 175 175 192 68 53 126 44 35 116 40 32 130 47 35 126 44 35 124 44 34 122 44 33 122 43 33 112 40 31 122 43 33 124 44 33 
122 43 33 120 42 33 110 39 30 128 45 35 124 44 34 108 38 29 120 42 33 130 46 36 132 47 36 136 48 37 112 40 31 134 47 37 108 37 29 169 167 167 190 67 52 130 46 36 114 40 31 120 42 33 120 42 33 124 43 34 108 38 31 122 43 33 126 44 33 124 44 34 130 46 35 118 42 32 110 40 31 126 44 35 96 34 26 165 165 165 186 65 50 124 44 34 114 41 32 126 44 34 94 33 26 168 168 168 192 68 53 126 44 35 118 42 32 114 40 31 118 42 32 120 42 33 136 47 37 116 40 31 120 42 33 126 44 35 108 38 30 130 46 36 126 44 35 130 46 36 126 44 35 96 34 26 174 175 173 198 68 53 130 47 36 130 46 36 128 45 35 118 42 32 120 42 33 118 42 32 126 44 35 116 41 32 112 40 31 122 43 33 
84 29 23 90 32 25 98 35 27 104 37 29 114 40 31 108 38 30 102 35 27 88 31 24 90 32 24 84 30 23 112 40 31 102 36 28 94 33 26 171 171 171 180 61 49 96 35 27 104 37 29 90 32 25 96 34 26 104 37 29 114 40 31 82 29 22 86 30 24 90 32 25 92 32 25 104 37 29 98 35 27 104 37 29 114 40 31 171 175 173 200 70 54 110 39 30 84 30 23 108 38 30 106 37 29 177 177 177 182 65 50 98 35 26 94 33 26 92 32 25 110 40 31 104 37 29 108 37 29 94 33 26 106 37 29 100 35 27 98 35 27 90 32 25 96 34 26 98 35 27 104 37 29 90 32 25 178 178 178 188 66 52 94 33 26 98 35 27 100 35 27 108 38 30 108 38 30 96 34 26 104 37 29 110 38 30 100 35 27 92 32 25 
176 176 176 168 167 167 165 165 165 176 176 176 172 168 173 171 171 171 175 171 174 166 166 166 171 171 171 175 177 175 171 171 167 175 174 175 176 173 174 170 171 168 171 168 167 170 170 170 174 174 174 166 166 166 173 175 173 175 175 175 170 170 170 168 168 168 173 173 173 169 169 169 174 174 174 172 172 172 172 172 172 170 168 169 174 174 174 176 173 172 170 170 170 169 169 169 172 172 172 174 174 174 174 174 174 180 180 180 173 173 173 174 174 174 174 171 174 174 172 174 169 169 169 171 173 174 165 165 165 174 174 174 170 169 169 167 171 167 168 168 168 173 170 171 175 176 177 174 175 176 166 164 161 172 172 172 177 177 177 179 179 177 174 174 174 168 168 168 176 174 175 171 171 171 165 170 171 167 169 168 172 171 173 165 169 166 173 171 170 165 165 165 
204 71 55 200 71 54 169 169 170 188 66 52 174 61 48 180 64 49 198 70 54 178 64 48 180 64 49 188 66 52 196 70 54 180 64 49 194 68 53 184 64 51 182 63 48 184 66 51 178 63 49 180 64 49 182 64 50 172 62 48 180 64 49 194 68 53 200 71 55 188 66 52 173 171 173 176 62 48 200 71 55 170 60 47 194 67 53 196 69 53 180 64 50 192 68 53 188 66 53 188 66 52 196 69 54 198 70 54 186 66 51 186 66 51 188 66 52 196 69 54 190 66 52 186 66 52 204 70 55 174 61 48 188 66 52 167 164 163 186 66 51 174 61 47 194 68 53 182 64 50 192 68 53 184 65 51 194 71 55 192 68 53 184 65 51 178 63 49 196 69 54 182 64 50 182 64 50 184 65 51 186 66 51 166 59 46 182 64 49 176 63 48 
114 40 31 108 38 30 170 170 170 184 63 51 136 48 37 108 38 30 116 41 32 112 40 31 134 47 37 124 44 34 116 41 32 138 49 37 136 48 37 124 44 34 124 44 34 122 43 33 118 42 32 126 44 35 132 47 36 104 37 29 118 42 32 130 47 36 112 40 31 88 31 25 173 173 173 182 64 52 116 41 32 104 37 29 136 48 37 104 37 29 106 39 29 108 39 30 124 44 34 114 40 31 114 40 31 132 47 36 124 44 33 126 46 35 114 40 31 122 43 33 112 40 31 134 47 37 128 46 36 120 42 32 96 33 26 174 174 174 180 64 49 112 39 30 118 42 32 130 46 36 124 43 34 130 44 35 130 46 36 126 44 35 120 42 33 110 39 30 136 48 37 112 40 31 124 43 33 130 46 36 118 42 33 108 38 30 116 41 32 120 42 32 
120 42 33 82 28 22 175 175 175 190 67 52 120 42 33 138 49 38 126 44 35 118 43 33 122 43 33 108 38 30 110 39 30 116 42 32 108 40 30 114 40 31 136 48 37 114 40 31 126 44 35 126 44 35 120 42 32 128 45 35 132 47 36 116 40 32 136 49 37 108 38 30 168 168 168 186 66 51 134 47 37 134 47 37 122 42 33 138 49 38 118 42 32 122 43 33 126 44 35 112 40 31 126 44 35 118 42 32 108 38 29 110 39 30 110 40 30 120 42 33 116 41 32 114 40 31 120 42 33 124 43 34 96 34 26 166 162 163 184 66 51 118 42 32 126 45 35 140 49 38 120 42 33 134 48 36 120 42 33 126 44 35 124 44 34 122 43 33 126 44 35 110 39 30 118 42 32 110 39 30 126 44 35 130 46 36 126 44 34 138 49 38 
114 40 31 102 36 28 175 179 174 178 63 49 122 43 33 112 40 31 108 38 30 126 44 35 128 46 35 124 44 34 126 44 33 134 47 37 122 43 33 120 42 33 130 44 34 124 43 34 104 37 29 134 47 36 128 44 35 106 37 29 128 45 36 108 37 29 124 44 34 104 37 29 176 176 178 170 60 47 134 47 36 128 45 35 104 37 29 128 45 35 124 44 34 118 42 32 132 47 36 112 40 31 110 39 30 124 44 34 122 43 35 120 42 33 112 40 31 116 41 32 114 40 32 120 43 33 130 45 35 118 42 32 106 37 29 172 171 173 186 66 51 122 43 33 118 42 32 138 49 38 124 43 34 128 45 35 112 40 31 114 40 31 128 44 35 114 40 31 124 44 34 106 37 29 128 45 35 130 46 36 118 42 32 124 44 34 126 44 35 118 42 32 
94 33 26 100 35 27 165 165 165 184 65 51 94 34 26 86 30 24 100 35 27 100 35 27 92 32 25 104 37 29 106 39 30 108 38 30 94 34 26 104 37 29 100 35 27 94 33 26 90 32 25 84 30 23 86 30 24 108 37 29 100 35 27 100 35 27 96 34 26 104 37 29 181 178 179 172 61 47 102 36 28 100 35 27 100 35 27 100 35 27 100 35 27 112 40 31 108 38 30 110 39 30 110 38 30 92 32 25 82 30 23 114 40 31 100 35 27 88 31 24 96 34 26 92 32 25 86 31 24 86 31 24 96 34 26 173 173 173 194 68 53 100 35 27 100 35 27 106 37 29 88 30 24 100 35 26 86 30 24 112 39 31 108 38 30 90 32 25 112 40 31 104 37 29 108 38 30 90 32 25 94 33 25 112 40 31 90 32 25 90 32 25 
176 174 174 170 169 170 178 178 178 172 172 172 169 167 170 164 164 164 174 176 176 171 171 171 167 167 167 171 171 171 180 180 180 164 162 168 172 172 172 168 168 168 171 171 171 166 169 168 168 164 168 171 171 171 166 166 166 165 163 164 178 179 178 171 170 170 171 171 171 168 168 168 174 178 178 162 164 165 177 177 177 165 165 165 174 177 176 172 174 174 176 177 176 179 175 180 172 172 168 168 169 168 175 175 175 168 168 170 176 176 176 171 169 170 172 172 172 170 171 166 166 169 168 168 168 168 176 175 176 174 174 174 178 178 178 177 177 177 173 172 172 172 172 172 179 175 175 169 169 169 170 171 176 168 168 168 180 179 180 167 165 165 173 173 173 171 171 171 180 177 174 175 174 176 173 173 173 177 177 177 165 163 161 173 173 173 171 171 171 171 171 171 
182 64 50 198 70 54 184 65 51 186 66 51 172 62 48 190 67 52 200 71 55 192 68 53 186 65 51 192 66 52 186 66 51 180 65 51 180 63 51 186 66 51 186 66 51 188 66 52 166 168 165 186 66 51 194 68 54 172 61 47 190 67 52 178 63 49 182 64 51 182 64 49 190 67 52 184 64 51 176 62 48 180 64 49 182 64 50 172 61 47 190 67 52 198 70 54 194 68 53 174 61 47 190 68 53 178 63 49 202 70 55 170 59 46 175 171 169 178 62 48 192 68 53 192 68 53 180 64 49 182 64 50 186 66 51 174 62 47 170 61 46 180 64 50 170 59 47 176 64 49 164 164 162 188 69 53 170 60 47 186 67 52 176 63 49 192 69 52 178 63 49 192 68 53 184 65 51 186 66 51 182 65 49 186 66 51 184 65 51 184 64 51 
114 40 31 110 39 30 124 44 34 122 43 33 130 45 35 122 43 33 130 45 35 128 46 36 108 38 30 120 42 32 108 37 29 120 42 33 116 41 32 110 39 30 128 44 35 90 32 25 180 180 180 198 70 54 134 47 37 128 45 35 122 43 33 108 38 30 124 44 35 130 47 36 134 46 37 120 42 33 136 48 37 130 45 35 114 40 31 140 49 38 126 44 35 116 41 32 124 44 34 132 47 36 104 36 29 120 42 33 118 42 32 96 34 26 177 175 176 192 68 53 122 43 34 116 41 32 122 42 33 116 41 32 120 43 32 118 43 33 124 44 34 120 43 33 116 41 32 88 31 24 166 166 166 184 65 51 116 41 32 130 46 36 124 44 34 112 40 31 130 46 36 132 47 36 128 45 35 110 39 30 130 46 36 114 40 31 116 40 32 114 40 32 
116 40 31 128 45 35 120 42 33 122 43 33 128 45 35 112 40 31 134 47 37 116 41 32 122 43 33 130 46 36 102 36 28 120 42 32 138 49 38 124 44 34 110 39 30 106 37 29 180 180 180 188 66 52 124 44 34 126 44 35 116 41 32 120 43 33 138 49 38 126 44 35 136 48 37 118 41 33 138 49 38 120 42 33 122 43 33 132 47 36 126 44 35 118 42 32 130 47 36 114 40 31 128 45 35 116 41 32 128 45 35 94 33 26 163 168 164 182 64 50 134 49 37 110 39 30 126 44 35 136 48 37 120 42 33 112 40 31 126 44 35 126 44 34 120 42 33 102 36 28 174 174 174 184 65 51 126 44 34 114 40 31 114 40 31 124 44 33 114 40 31 112 40 31 120 42 33 132 47 36 112 40 31 124 44 34 118 42 33 112 40 31 
116 40 31 138 49 37 132 47 36 118 42 32 126 44 35 122 42 33 126 45 35 130 45 35 122 44 34 128 45 35 136 47 37 122 43 33 112 40 31 118 42 32 132 47 37 88 31 24 168 168 168 182 64 50 114 39 31 132 47 36 130 46 36 128 45 35 116 41 32 118 41 32 118 42 32 112 40 31 116 41 32 116 41 32 118 42 32 118 41 32 128 45 35 120 42 33 136 48 37 132 47 36 140 49 38 118 42 32 114 40 30 88 30 24 169 169 169 188 66 52 114 41 31 114 40 31 132 47 36 122 43 33 124 43 34 120 42 33 110 39 30 118 41 32 122 43 33 102 36 28 177 177 177 188 64 52 122 42 33 116 41 32 116 41 32 124 44 34 136 48 37 118 42 32 118 43 33 112 39 30 122 44 35 126 44 35 106 37 29 136 49 38 
92 32 24 92 32 25 104 37 29 100 35 27 96 34 26 106 37 29 104 37 29 104 37 29 92 32 25 104 37 29 108 38 30 100 35 27 110 39 30 104 37 28 88 31 24 106 36 29 177 177 175 198 69 55 102 35 27 94 33 26 92 32 25 102 36 28 102 36 28 94 33 26 90 32 25 106 37 29 98 35 27 102 36 28 106 37 29 94 32 26 90 32 25 90 31 24 88 31 24 102 36 27 88 31 24 100 35 27 100 35 27 102 36 28 173 173 173 178 63 49 96 34 26 106 37 29 94 33 26 102 35 28 94 33 26 108 40 30 98 35 26 114 40 31 114 40 31 92 32 25 168 167 166 180 64 49 94 33 26 98 35 27 98 35 27 104 37 28 100 35 27 94 33 26 92 32 25 84 30 23 104 37 29 100 35 27 94 33 26 92 32 25 
171 171 171 177 177 177 170 170 170 174 174 174 177 177 177 167 167 167 170 172 171 171 173 173 169 169 169 176 176 176 176 176 176 180 180 180 174 174 174 175 175 175 176 177 176 164 164 164 178 178 178 170 168 170 176 176 176 163 163 163 173 173 173 179 179 179 167 167 164 168 168 168 172 172 172 170 170 171 164 169 166 176 175 174 176 181 178 175 175 175 178 178 178 177 177 177 179 179 179 166 165 165 167 169 171 173 172 173 169 169 169 170 175 170 171 172 171 166 165 165 171 171 171 173 173 173 171 174 177 172 171 175 175 172 174 174 174 174 178 179 180 163 164 164 165 165 165 171 171 171 170 172 172 164 165 165 168 168 169 167 167 167 166 167 166 176 176 176 170 168 169 169 165 169 175 176 175 169 166 171 169 169 169 171 172 169 168 168 165 178 178 178 
188 66 52 180 63 49 180 64 49 188 66 52 198 70 54 166 59 46 178 62 49 170 59 46 182 64 50 184 65 51 180 64 49 186 66 51 182 64 49 186 66 51 190 67 52 196 66 52 168 59 46 188 66 52 200 71 55 188 67 52 180 64 49 188 67 52 186 65 51 188 66 52 173 173 173 178 63 49 174 61 48 172 61 47 198 70 54 172 59 47 200 72 55 182 64 50 182 64 50 176 61 49 168 59 46 200 69 54 178 64 48 200 69 54 180 64 49 194 68 53 172 61 47 190 67 52 186 65 51 188 65 51 196 68 54 200 71 55 175 170 173 186 66 51 176 62 48 194 68 53 190 68 52 176 61 49 172 61 47 188 66 52 194 68 54 190 67 52 198 68 54 172 61 47 182 66 51 178 63 49 192 68 53 178 64 49 180 64 49 176 176 176 
180 64 49 118 42 32 114 40 31 132 45 35 130 46 36 128 45 35 124 44 34 122 44 34 126 44 35 124 44 34 116 41 32 106 37 30 132 47 36 110 40 30 120 42 33 120 42 33 118 42 32 114 40 31 108 38 30 116 41 32 136 48 37 110 40 30 128 45 36 100 35 27 173 173 174 184 65 51 116 41 32 136 47 37 128 45 35 122 44 34 114 41 31 108 39 30 138 49 38 112 40 31 106 37 29 134 47 37 128 45 35 132 47 36 116 41 32 108 38 30 114 41 32 118 42 32 138 49 38 126 44 35 106 37 29 98 35 27 166 166 166 204 72 56 118 42 32 136 48 37 112 40 31 112 40 31 120 43 33 126 44 35 116 41 32 128 45 35 110 39 30 120 42 33 128 45 35 116 41 32 106 37 29 108 38 30 102 36 28 169 169 169 
180 64 49 126 44 35 112 40 31 114 40 31 100 37 29 124 44 34 126 44 35 120 42 33 114 40 31 116 41 32 130 45 36 130 45 36 132 46 36 120 42 33 116 41 32 122 42 33 120 42 32 128 45 35 134 47 37 124 44 34 120 42 32 108 37 30 102 36 28 106 37 29 173 173 172 172 61 47 114 40 31 126 44 35 108 38 29 112 40 32 134 47 37 108 39 30 126 44 35 126 44 36 124 44 34 124 44 35 124 44 34 134 47 37 126 44 35 128 45 35 108 38 30 120 44 34 116 42 32 126 44 35 130 47 36 88 31 24 169 174 171 184 65 51 118 42 32 112 40 31 126 44 34 118 42 32 132 47 36 118 42 32 120 42 33 124 44 34 138 49 38 124 44 35 116 42 32 138 49 38 128 45 35 136 48 37 90 32 25 176 176 176 
186 66 51 126 44 35 134 47 37 124 44 33 120 42 33 104 37 29 126 44 34 126 44 35 122 43 33 126 44 35 124 44 34 114 40 31 114 40 31 118 42 32 112 40 31 102 36 28 132 47 36 130 46 36 130 46 36 126 43 35 118 42 32 122 43 33 124 44 34 100 35 27 163 163 164 192 67 52 120 42 33 124 45 34 120 43 33 108 38 30 136 48 37 122 43 33 124 44 34 114 40 31 112 40 31 124 43 33 124 44 34 138 49 38 134 47 37 120 42 33 122 42 33 126 45 35 132 47 36 116 41 32 124 44 34 92 32 25 167 167 167 192 67 52 126 44 35 120 42 33 118 42 32 114 41 32 110 39 30 120 42 33 116 42 33 140 49 38 108 38 30 134 47 36 124 44 34 134 47 37 128 45 35 122 43 33 98 35 27 169 166 171 
176 62 48 100 35 27 110 39 30 102 37 28 102 36 28 92 32 25 106 37 29 108 38 30 98 35 27 100 35 27 98 35 27 98 35 27 98 35 27 104 37 29 100 35 27 104 37 29 98 35 27 90 32 25 110 39 30 110 39 30 90 32 25 94 33 26 90 32 25 106 37 29 173 173 171 182 64 50 106 37 29 104 37 29 92 33 26 88 31 24 108 38 30 98 35 27 110 39 30 92 32 25 96 34 26 110 38 30 104 36 28 104 37 29 104 36 29 108 38 30 96 34 27 102 36 28 98 35 27 104 37 29 86 30 24 112 40 31 171 171 171 184 65 51 98 35 27 110 38 30 110 39 30 96 34 26 92 32 25 106 37 29 90 32 25 108 38 30 94 33 26 102 36 28 100 35 27 100 36 28 90 32 25 98 35 27 92 33 26 176 176 176 
167 167 169 166 168 166 176 176 176 170 170 170 164 167 169 176 176 176 168 168 168 175 175 175 177 177 177 174 175 171 169 167 171 163 163 163 163 166 165 167 167 167 162 162 162 170 170 170 175 175 175 173 173 173 164 164 164 181 176 180 166 166 166 174 174 174 174 174 174 181 179 179 172 172 171 171 168 173 172 168 167 168 166 164 170 170 170 177 176 178 168 170 167 167 168 166 168 171 165 173 174 174 171 171 171 172 172 172 165 165 165 173 171 173 173 173 173 170 170 170 160 164 164 163 162 162 173 173 173 171 171 171 177 178 177 177 177 177 173 173 173 176 179 177 173 173 174 171 171 171 171 171 171 174 174 174 172 172 172 173 173 173 174 177 175 177 175 175 172 172 170 179 180 178 179 179 178 172 173 175 172 172 173 164 167 164 170 170 170 180 180 180 
170 60 47 184 64 49 184 66 51 194 68 53 186 66 51 174 61 48 188 66 52 174 175 174 186 66 51 186 67 51 190 66 52 184 66 52 184 66 51 196 69 54 178 64 50 176 62 49 172 61 46 190 67 52 186 66 52 184 65 51 180 64 49 190 67 52 190 66 53 176 62 48 188 67 51 173 172 172 200 72 57 178 63 49 186 66 51 182 64 50 192 68 53 190 67 53 190 67 52 186 66 51 188 66 51 178 64 49 172 61 47 178 63 49 194 68 53 180 64 49 188 67 52 180 64 49 174 61 48 174 174 174 202 71 55 178 63 49 176 62 48 176 63 49 196 70 54 178 61 49 194 68 53 186 66 52 192 68 53 196 69 54 184 65 51 194 68 53 182 62 49 186 66 51 190 67 52 180 64 49 182 64 51 188 66 52 184 65 51 178 63 49 
130 46 36 122 42 33 110 39 30 118 42 32 126 44 35 114 42 32 86 30 23 180 180 180 190 67 52 114 40 31 112 40 31 138 48 37 132 47 36 132 47 36 122 42 34 132 48 36 132 47 36 120 42 33 122 43 33 134 47 37 118 42 32 108 38 30 128 45 35 130 46 36 114 40 31 164 163 163 200 71 55 132 48 37 118 41 32 128 44 34 128 45 35 120 42 33 120 42 32 122 43 33 108 38 30 118 42 32 126 44 35 110 38 30 132 47 36 118 42 32 124 44 34 120 42 32 116 41 32 173 173 173 174 61 47 118 42 32 134 48 37 126 44 35 122 43 33 128 45 35 136 48 37 128 45 35 124 44 34 116 41 32 114 40 31 126 44 35 126 44 35 126 45 35 110 39 30 126 44 35 124 44 34 118 41 32 122 43 34 130 46 36 
110 39 30 116 41 32 118 41 32 132 47 36 128 45 35 118 42 32 98 35 27 165 166 166 182 64 50 106 37 29 118 42 32 114 40 31 120 43 33 134 47 37 122 44 33 116 42 32 118 42 33 114 40 31 122 42 33 118 42 32 132 47 36 120 42 33 108 38 30 118 42 32 96 34 26 172 171 170 190 67 52 112 40 31 118 43 33 116 41 32 110 38 30 118 42 32 126 44 35 120 43 33 122 43 33 118 41 33 134 47 37 130 46 36 120 42 33 118 42 32 126 44 35 118 42 32 108 38 30 171 171 171 200 71 55 136 48 38 120 44 33 126 44 35 114 42 31 122 43 33 126 44 35 120 42 33 128 45 35 108 38 30 132 46 36 104 37 29 120 42 33 114 40 31 134 47 37 124 43 34 112 40 31 126 44 35 112 40 31 120 42 33 
112 40 31 122 43 33 110 38 30 106 37 29 126 45 35 116 41 32 114 40 31 174 179 175 184 65 51 118 42 32 126 44 35 114 40 31 112 40 31 124 44 34 110 40 31 112 40 30 126 44 35 122 42 33 118 42 33 124 44 34 120 42 33 112 40 31 114 40 31 112 40 31 106 37 29 174 173 176 166 60 46 124 44 34 120 42 33 106 37 29 132 47 36 122 43 33 114 40 31 126 44 34 106 37 29 114 40 31 122 42 33 138 49 38 120 42 33 124 44 35 114 41 31 114 41 32 98 35 27 173 173 173 178 63 49 124 44 34 124 44 34 114 40 31 126 43 34 128 45 35 120 42 32 124 44 34 108 37 30 118 42 32 132 47 36 128 44 34 130 47 35 122 43 33 126 44 34 128 45 35 128 46 36 118 42 32 132 47 36 110 39 30 
92 32 25 108 38 30 104 37 29 102 36 28 98 35 27 98 35 27 110 38 30 171 172 172 188 67 52 88 31 24 98 35 27 98 34 26 84 30 23 94 33 26 100 35 27 98 35 27 100 35 27 102 36 28 112 39 30 106 38 29 102 36 27 84 30 23 102 35 27 104 37 29 82 29 23 171 172 172 180 65 50 88 31 24 106 37 29 94 33 26 94 33 26 104 37 29 102 36 27 116 41 32 90 32 25 98 35 27 92 33 26 118 42 32 104 37 29 96 34 26 84 29 23 98 35 27 112 40 31 163 163 165 196 69 54 98 35 27 106 37 29 102 36 28 98 35 27 86 30 24 90 32 25 104 37 29 96 34 26 92 32 25 100 35 27 98 35 26 100 35 27 90 31 24 88 31 24 90 32 25 114 40 31 102 35 27 96 34 27 106 37 29 
164 166 166 174 172 171 167 169 168 171 170 172 172 172 172 168 168 169 170 170 170 166 166 165 165 165 165 171 172 171 168 169 166 167 167 167 172 172 172 170 170 170 167 167 167 178 176 177 171 171 171 172 173 174 170 170 170 175 176 175 172 172 173 168 168 168 175 175 175 166 167 164 173 175 175 167 167 167 172 172 172 169 169 169 180 180 180 172 172 172 171 169 169 172 172 172 167 167 167 170 170 170 173 173 173 175 173 173 166 162 168 167 167 167 173 168 174 181 181 181 176 175 176 173 175 174 169 169 169 166 167 166 172 172 172 172 172 171 166 166 166 168 168 168 176 176 176 171 171 171 164 164 164 180 181 179 179 179 179 171 171 172 173 173 173 178 178 178 167 167 170 173 173 173 165 165 165 163 163 163 166 165 165 169 170 169 178 178 178 169 170 174 
198 70 55 198 70 54 204 72 56 194 68 53 190 67 52 190 67 52 184 65 51 178 63 49 200 70 54 182 64 50 188 66 52 170 59 47 170 59 46 164 164 164 190 67 52 170 61 47 174 61 48 186 66 51 180 62 48 174 61 48 172 61 47 186 66 51 200 71 54 182 66 51 170 60 47 188 66 52 186 66 51 180 63 48 192 68 53 176 176 176 180 64 49 186 66 51 180 64 49 182 64 50 172 60 47 168 169 169 178 64 49 200 70 54 204 72 56 174 61 47 174 61 48 194 68 53 186 66 52 174 59 46 190 67 53 186 66 51 180 64 49 172 61 47 186 66 51 184 65 51 184 65 51 168 59 46 169 169 169 178 61 49 184 65 51 196 69 54 176 64 49 178 62 49 178 63 49 178 63 49 184 65 51 194 68 53 198 69 53 174 62 48 
128 45 35 120 42 33 128 45 35 116 40 31 132 47 36 116 41 31 128 45 35 108 38 30 116 41 32 140 49 38 116 41 32 112 40 31 98 35 27 172 172 172 186 66 51 108 38 30 122 43 33 130 47 36 116 42 32 134 47 37 120 42 33 136 48 37 116 42 33 122 43 34 132 47 36 108 38 30 122 44 33 128 45 35 82 29 23 177 177 177 184 65 51 126 44 35 112 40 31 130 46 36 96 34 26 173 173 173 174 62 47 128 45 35 112 40 31 132 47 36 132 47 36 110 40 30 110 38 30 114 40 31 118 42 32 134 47 36 122 43 33 112 40 31 116 41 32 126 44 35 132 47 36 104 37 29 177 172 177 170 61 48 134 47 37 124 43 34 110 40 30 114 40 31 140 49 38 116 41 32 134 47 37 118 42 32 120 42 33 132 47 36 
108 39 29 120 42 33 134 47 38 124 44 34 112 40 31 120 42 33 122 43 33 116 41 32 118 42 32 112 40 31 134 48 37 120 42 33 88 31 24 170 170 171 170 60 47 106 37 29 126 44 35 108 38 30 118 40 31 118 42 32 114 40 31 130 46 36 118 42 33 132 47 36 136 49 37 108 38 30 112 40 31 128 45 35 106 37 29 181 181 181 182 64 49 108 38 30 130 46 36 122 42 33 110 39 30 178 178 178 192 68 53 128 43 33 132 47 37 126 44 35 120 42 33 134 47 37 136 48 37 116 42 31 126 44 35 130 46 35 122 43 33 130 46 36 124 44 34 126 44 35 112 40 31 98 35 27 163 163 163 190 66 52 118 41 32 120 42 33 120 42 33 118 42 32 134 47 37 114 40 31 106 38 29 136 49 37 118 42 32 106 36 29 
132 47 36 130 46 36 114 40 31 126 45 35 110 39 30 122 43 33 114 40 31 130 46 36 118 42 32 124 44 34 120 42 33 112 40 31 96 34 26 166 166 167 174 62 48 122 42 33 130 46 36 136 48 38 130 46 36 120 42 33 130 46 36 110 40 30 122 43 33 110 38 30 120 42 32 126 44 35 120 42 33 124 44 34 104 36 29 167 167 167 184 65 51 118 42 32 118 42 32 118 42 32 108 38 30 171 171 171 172 61 47 124 44 34 122 43 33 118 42 32 130 46 36 132 49 37 138 48 38 114 40 31 130 46 36 124 44 34 122 43 33 138 49 38 130 46 36 132 47 36 122 43 33 102 36 28 175 175 175 172 61 47 114 40 31 126 44 34 124 44 33 138 49 38 110 39 30 132 47 36 112 40 31 124 44 34 112 40 30 112 40 31 
100 35 27 94 33 26 98 35 27 82 29 23 94 33 26 102 36 28 94 34 26 100 35 27 108 39 31 108 38 30 88 32 25 96 35 27 80 28 22 172 172 172 178 63 49 92 32 26 100 35 27 102 36 28 108 38 30 92 32 25 100 35 27 108 38 30 98 35 27 106 37 29 100 35 27 88 32 25 108 37 29 92 32 25 114 40 31 177 177 177 188 65 51 104 36 28 92 32 25 94 33 26 94 33 26 164 164 164 202 71 55 84 30 24 84 30 23 108 39 30 86 30 24 116 41 32 98 35 27 90 32 25 110 39 30 110 39 30 90 32 25 104 37 29 104 37 29 112 40 31 112 40 31 98 35 27 161 164 164 194 68 53 102 36 28 106 37 29 82 29 23 108 38 30 114 40 31 102 36 29 98 35 28 94 32 26 102 37 29 104 37 29 
165 165 171 174 171 170 173 171 173 172 175 175 171 171 171 176 176 176 163 162 165 171 171 171 171 171 171 176 176 176 178 178 178 173 173 173 169 169 169 175 175 175 170 173 173 174 174 174 170 170 170 169 169 170 180 180 180 175 175 175 170 170 170 176 173 174 171 170 170 174 176 178 173 173 173 168 168 169 171 171 170 172 172 172 169 169 169 173 173 173 172 172 172 171 171 171 169 169 165 172 172 172 169 166 171 176 175 174 170 170 170 176 176 176 174 174 174 165 165 165 167 168 166 170 171 171 173 173 173 177 177 177 176 176 176 177 176 176 180 180 180 169 169 169 173 173 173 167 163 167 174 174 174 178 178 178 171 171 171 178 179 179 176 176 176 181 181 181 168 168 168 179 179 179 169 169 169 179 179 179 174 174 174 172 169 169 172 172 172 177 178 174 
190 67 52 202 70 54 169 169 169 182 65 50 172 61 47 188 66 52 188 66 51 180 64 49 178 63 49 188 66 52 198 69 54 190 67 52 204 72 55 192 68 53 188 66 52 176 62 48 186 65 50 170 60 47 174 61 48 190 67 52 196 69 54 174 61 49 170 60 47 190 67 51 170 170 170 184 65 51 194 68 53 184 64 49 176 62 48 166 59 46 180 64 49 186 66 51 194 70 54 184 64 51 172 61 47 182 64 50 196 69 54 188 68 52 196 69 54 178 62 49 174 61 48 194 68 53 178 63 49 194 68 54 200 71 55 170 170 169 174 62 48 196 69 54 186 66 51 178 63 49 186 66 51 190 67 52 182 64 50 202 71 55 182 64 50 190 67 52 180 64 49 190 68 52 178 65 49 198 69 54 186 66 51 200 71 55 192 68 53 188 68 53 
134 47 37 112 40 31 172 169 169 196 69 54 122 43 33 114 40 31 128 45 35 112 40 31 124 44 34 128 44 35 124 44 34 114 41 31 110 40 30 106 37 29 126 44 34 134 47 37 130 46 36 112 40 31 110 39 30 128 45 35 108 38 30 122 43 33 122 43 33 114 42 32 171 171 171 194 68 53 116 42 32 132 46 36 102 35 27 112 40 31 112 40 31 126 44 35 128 45 35 138 48 38 120 43 33 112 40 31 122 43 33 136 48 37 122 44 34 126 44 34 116 41 32 116 41 32 114 40 31 112 40 31 98 35 27 168 167 167 188 67 52 120 42 33 124 44 34 118 42 32 114 40 31 126 44 35 120 42 33 114 40 31 104 36 29 130 46 36 110 39 31 118 42 32 114 41 32 130 46 36 118 42 32 118 42 32 134 47 37 112 40 30 
120 42 33 114 40 31 164 164 164 190 67 52 120 44 33 124 44 34 124 44 34 136 47 37 118 42 32 112 40 31 104 36 29 122 43 33 136 48 37 134 49 37 122 43 33 134 47 37 128 45 35 112 40 31 130 46 36 106 38 30 116 40 31 114 40 32 122 43 33 114 40 31 163 164 163 186 66 51 128 44 36 126 44 35 112 40 31 124 44 34 108 37 29 126 44 35 118 42 32 130 46 36 112 40 32 118 41 32 114 40 31 122 42 33 114 42 31 130 46 36 108 38 30 140 49 38 112 38 30 114 40 31 96 35 26 164 162 163 166 59 46 120 42 33 136 48 38 126 44 35 126 44 35 118 42 32 104 37 29 116 41 32 138 49 38 124 42 34 112 40 31 110 39 30 124 44 34 126 44 35 132 47 36 108 38 29 114 40 32 132 46 36 
130 45 35 94 33 26 170 170 170 194 68 53 112 40 31 106 37 29 124 44 34 136 48 37 132 47 36 110 39 30 138 49 38 120 42 33 110 39 30 122 42 33 134 47 37 124 44 34 112 40 31 126 44 35 120 42 33 138 49 38 128 45 35 106 37 29 122 43 33 106 37 29 166 164 168 198 71 54 114 40 31 124 45 34 120 42 33 114 41 31 124 44 34 124 44 34 140 49 38 124 45 34 124 43 34 120 42 33 112 40 31 114 40 31 128 45 35 116 42 32 122 43 33 124 44 34 112 40 31 110 39 30 102 36 28 168 168 168 184 65 51 118 42 32 138 49 38 110 39 30 132 47 36 126 44 35 110 39 30 128 44 35 110 39 30 130 46 36 112 40 31 124 44 34 110 38 30 124 44 34 132 47 36 120 42 33 126 44 35 124 44 34 
94 33 26 98 35 27 173 173 173 184 65 51 100 35 27 106 37 29 98 35 27 92 32 25 100 35 27 102 36 28 112 40 31 108 38 30 104 37 29 104 37 29 94 34 26 98 35 27 92 32 25 102 35 29 98 35 27 102 36 28 98 35 27 90 32 25 110 40 31 92 32 26 172 169 171 192 68 53 94 33 26 96 34 26 110 39 30 112 40 31 82 29 23 100 35 27 92 32 25 92 32 25 96 34 26 102 37 29 84 30 24 100 35 27 114 40 31 96 34 26 94 33 26 100 36 28 100 35 27 108 38 30 106 38 30 176 176 176 188 66 52 96 34 26 88 31 24 88 31 24 100 35 27 96 34 26 104 37 29 96 34 26 100 35 27 86 30 24 112 40 31 94 34 26 94 33 26 94 33 26 112 40 31 108 38 30 98 35 27 100 35 27 
167 167 167 168 172 171 170 170 170 176 176 176 169 169 170 170 170 170 178 178 178 169 174 168 173 173 173 175 175 175 170 170 170 173 172 171 172 173 172 174 174 174 179 179 179 172 172 172 166 166 166 172 169 171 166 166 166 175 175 175 160 163 159 168 168 168 180 180 180 171 178 176 175 175 175 178 176 176 175 177 177 171 171 171 178 178 178 170 170 170 171 171 171 175 170 174 174 174 174 173 173 173 167 167 167 169 168 172 175 175 175 173 169 172 170 167 168 172 172 172 163 163 163 174 174 174 166 166 167 166 167 166 170 173 172 167 167 167 174 177 176 171 168 168 166 166 166 172 172 172 173 173 173 170 173 168 171 167 166 173 173 173 169 169 169 174 174 170 166 167 166 170 169 167 168 168 168 176 176 176 170 170 168 161 162 167 165 165 165 173 178 177 
180 64 49 170 60 47 194 69 53 194 68 53 190 67 52 166 168 165 178 63 49 178 62 48 170 60 47 188 66 52 194 69 53 174 61 48 170 60 47 200 71 55 170 60 47 188 66 52 196 66 53 196 71 54 182 64 50 190 67 53 190 67 52 172 61 47 190 67 52 184 65 51 178 63 49 186 66 51 190 67 52 192 67 53 192 68 53 182 64 51 175 175 175 190 67 52 178 64 49 182 64 51 196 69 54 188 66 52 180 64 49 186 66 51 172 173 173 188 64 51 182 66 51 186 66 51 186 66 51 176 62 48 180 64 49 186 68 51 176 62 48 182 65 51 184 65 51 184 65 51 180 180 180 184 65 51 178 63 49 182 64 51 174 64 49 172 61 47 184 66 49 190 66 53 184 63 50 188 66 51 204 72 56 170 60 47 180 64 49 182 64 50 
116 41 32 120 42 33 122 42 33 116 41 31 94 33 26 176 169 176 192 67 51 136 48 37 118 42 32 116 41 32 124 44 34 112 40 31 130 46 35 116 41 32 110 39 30 132 47 36 130 46 36 126 45 35 114 40 31 122 43 33 132 47 36 134 47 37 124 44 34 114 40 31 124 44 34 120 42 33 142 50 38 130 47 36 124 42 34 110 39 30 173 173 173 184 65 51 118 42 32 110 39 30 116 41 31 116 40 31 126 44 35 112 41 31 167 167 167 182 64 50 132 47 36 120 42 33 104 37 29 116 41 32 136 48 38 122 43 34 122 43 33 120 43 33 132 47 36 106 37 29 164 167 165 176 62 48 128 45 35 120 43 33 136 48 37 124 44 34 114 40 31 128 45 35 130 46 36 126 44 35 114 40 31 120 42 33 110 40 30 136 48 37 
104 37 29 112 40 31 134 47 37 118 42 32 84 30 23 172 172 172 168 61 46 128 46 35 132 45 36 118 42 33 126 44 35 114 40 31 128 45 35 136 49 37 126 44 35 138 49 38 134 47 37 110 39 30 110 39 30 120 43 33 112 40 31 124 45 34 124 44 35 118 42 32 112 40 31 124 44 35 118 42 33 118 42 32 120 42 33 96 32 26 176 176 176 184 66 51 114 40 31 122 43 33 120 42 33 110 39 30 124 44 35 104 37 29 169 170 167 176 62 48 110 39 30 124 44 34 120 42 33 126 44 35 122 42 33 126 44 35 112 40 31 132 47 36 122 43 33 100 35 27 179 178 179 196 69 53 114 40 31 126 44 35 102 37 29 106 37 29 114 40 31 130 46 36 124 44 34 118 41 32 138 49 38 128 45 35 122 44 33 114 40 31 
132 47 37 116 41 32 120 42 33 108 38 29 104 37 29 168 169 169 188 66 52 132 47 36 122 43 33 136 48 37 112 40 31 112 40 31 128 45 35 124 44 34 126 44 35 114 40 32 138 49 38 108 38 30 122 44 33 110 39 30 124 44 34 134 47 37 132 47 36 124 44 34 124 44 34 132 47 36 134 47 37 122 43 33 114 40 32 86 30 24 175 175 175 170 60 47 132 47 36 114 40 31 114 40 31 128 44 36 134 47 37 98 35 27 173 173 173 184 64 50 124 44 34 114 40 32 116 41 32 114 40 31 122 43 33 122 43 33 112 40 31 128 45 35 122 42 33 114 40 31 174 174 174 194 68 53 134 47 36 120 42 32 132 47 36 110 39 30 104 37 29 130 46 36 106 37 29 118 42 32 126 43 34 102 36 27 134 47 37 124 44 34 
94 33 26 86 30 24 102 36 28 92 32 25 102 35 27 172 177 175 188 66 52 102 36 28 104 37 29 82 28 22 110 38 29 114 40 31 96 34 26 118 42 32 88 31 24 106 37 29 94 33 26 94 33 26 100 35 27 102 36 28 102 36 28 94 33 26 96 34 26 114 40 31 102 36 28 108 38 30 118 42 32 94 35 27 100 35 27 98 35 28 177 177 177 172 62 48 118 42 32 84 31 24 100 35 27 100 35 27 92 32 25 108 38 30 171 171 171 196 69 54 106 38 29 90 32 25 104 36 29 104 37 29 108 38 30 98 35 27 82 30 23 110 39 30 116 42 32 116 41 32 168 168 168 170 60 47 102 36 28 100 35 27 84 30 23 112 39 30 84 30 23 92 32 25 86 30 24 112 40 31 82 29 23 104 37 29 100 35 27 94 33 26 
171 171 171 173 173 173 171 171 171 166 166 166 170 170 170 165 164 165 176 176 176 176 176 176 174 174 174 174 174 174 178 176 176 170 169 169 172 172 172 165 167 166 170 170 170 172 172 172 178 178 178 168 173 170 174 174 174 169 169 169 174 174 174 175 174 173 168 170 173 172 171 170 170 172 171 180 180 180 173 170 174 175 176 177 166 166 166 176 175 175 172 171 171 174 174 174 170 170 170 173 173 173 178 178 178 168 170 170 171 175 172 177 177 177 169 169 169 174 174 174 176 176 176 171 170 168 176 176 176 179 179 181 178 178 178 174 174 174 179 179 179 174 174 174 174 174 174 174 174 174 169 169 169 175 175 175 178 177 176 169 166 166 167 169 164 177 177 177 171 171 171 178 178 178 163 163 163 165 165 165 171 171 171 173 173 175 170 173 168 171 171 171 
180 63 48 198 70 54 180 180 180 188 66 52 186 65 50 168 61 46 180 64 49 196 69 54 176 62 48 182 64 50 190 66 51 188 67 53 176 62 48 180 64 49 172 60 47 178 63 49 182 64 50 184 65 51 204 72 56 166 59 46 190 67 52 196 69 54 176 62 48 194 67 53 170 170 170 178 63 49 184 65 51 188 66 52 180 64 49 178 63 49 190 69 53 186 66 52 194 68 53 172 60 46 186 66 51 178 64 51 182 64 49 186 66 51 190 68 52 186 66 51 196 69 54 190 67 52 178 62 49 194 68 53 196 69 54 186 66 51 172 172 172 190 68 52 190 67 52 180 64 49 176 62 48 172 61 47 186 66 51 180 64 50 188 66 52 186 65 51 190 67 52 198 71 54 176 61 48 198 70 54 188 68 51 180 64 49 178 63 49 170 60 46 
120 42 33 110 39 30 174 174 174 174 61 48 120 42 33 110 39 30 108 38 30 112 40 31 128 45 35 112 40 31 130 46 36 124 44 34 104 37 29 118 42 32 114 40 31 132 47 36 126 44 35 122 43 33 122 43 33 122 43 33 136 48 37 126 44 35 130 46 36 108 38 30 174 174 173 198 70 54 128 45 35 108 38 30 128 45 35 124 44 35 122 42 32 134 47 37 130 46 36 108 40 31 116 41 32 126 44 35 118 43 33 130 46 36 140 49 38 122 43 33 128 44 35 126 44 35 126 44 35 110 38 30 120 42 33 82 29 23 164 164 164 174 61 48 134 47 37 116 41 32 110 39 30 122 44 33 112 40 31 110 39 30 138 49 38 130 47 36 134 47 36 132 47 36 116 41 32 124 44 34 112 40 31 106 37 29 116 41 32 122 43 33 
120 42 33 108 38 30 168 168 168 186 66 51 116 41 32 116 41 33 140 49 39 120 43 33 112 40 31 116 41 32 120 42 33 126 44 35 106 37 29 138 48 37 128 45 35 110 39 30 134 47 37 114 40 31 120 42 33 126 44 35 104 37 29 128 46 36 122 43 33 118 42 32 173 173 173 174 61 48 116 41 32 126 44 36 112 40 31 134 48 37 130 46 36 128 45 35 130 46 36 132 47 36 124 44 34 132 47 36 116 40 32 116 41 32 122 43 33 128 46 35 124 43 33 140 49 38 120 43 33 116 41 32 122 43 33 106 36 29 173 173 173 182 65 50 124 44 34 112 40 31 116 41 32 126 44 35 134 47 37 130 46 36 110 39 30 126 44 35 110 39 30 118 41 32 134 47 37 132 46 37 106 37 29 110 39 30 134 47 37 122 43 33 
126 44 35 110 39 30 175 175 175 172 61 47 114 40 31 112 40 31 120 42 34 106 38 29 132 46 36 118 42 32 110 39 30 132 47 36 124 44 34 136 48 37 112 40 31 126 44 35 128 45 35 128 45 35 122 43 34 118 42 32 118 42 32 120 43 33 120 42 33 94 33 26 169 169 169 192 70 54 118 43 32 110 38 30 108 38 30 118 42 32 132 47 36 126 44 35 126 44 35 120 42 33 106 37 29 128 45 35 116 41 32 120 42 33 116 41 32 124 44 34 122 43 35 112 40 31 128 45 35 110 38 30 138 49 38 102 36 28 167 167 169 200 71 55 110 39 30 114 40 31 124 44 34 116 41 32 132 47 36 124 44 34 130 46 36 126 44 35 122 43 33 120 42 33 110 39 30 112 39 30 116 41 32 136 47 36 116 41 32 114 40 31 
102 36 28 92 32 25 172 172 172 196 69 54 110 39 30 108 38 30 104 37 29 100 35 27 100 35 27 104 36 29 104 37 29 96 34 26 104 37 29 94 33 26 100 36 27 94 33 26 90 32 25 108 38 30 104 37 29 108 37 29 106 37 29 90 32 25 92 32 25 100 35 27 163 163 163 186 65 50 104 37 29 110 39 30 86 30 24 100 35 27 92 32 25 98 35 27 108 37 29 86 31 24 94 33 26 98 35 27 100 35 27 96 34 27 104 37 29 112 40 31 88 31 24 88 31 24 114 41 32 98 35 27 108 38 30 88 31 24 175 176 177 188 66 52 86 30 24 88 31 24 92 32 25 90 32 25 100 36 27 110 39 30 100 35 27 98 35 27 100 35 27 106 37 29 100 35 27 86 30 24 102 36 28 100 35 27 106 37 29 96 34 26 
170 170 170 165 164 165 176 175 175 176 176 176 167 167 166 163 166 162 173 173 173 174 174 174 171 168 171 169 169 169 175 175 175 169 169 169 172 172 172 176 176 176 163 163 163 171 171 171 163 163 162 169 169 169 166 166 166 175 170 176 176 176 176 171 168 168 174 174 174 164 164 164 175 175 175 172 172 172 172 172 172 169 170 169 167 169 165 170 170 170 167 170 167 180 180 179 168 171 168 171 171 171 171 171 171 178 178 178 165 165 165 173 177 173 169 169 168 170 171 171 173 173 173 165 165 165 172 172 172 179 178 180 175 174 172 171 171 171 181 181 181 173 172 171 172 175 174 166 166 166 169 171 171 169 169 169 177 177 177 169 169 169 173 171 173 172 173 173 167 167 167 165 165 165 167 166 166 165 165 165 175 175 175 166 162 167 168 168 168 172 176 174 
178 63 49 192 67 52 188 66 52 178 61 48 196 70 53 188 66 52 174 64 48 169 169 169 178 63 49 186 66 51 190 67 52 172 61 47 192 67 52 176 63 48 204 72 56 194 68 53 170 60 47 182 65 51 184 65 51 198 70 54 178 63 49 196 69 54 178 63 49 188 67 51 178 63 49 170 170 170 186 65 50 190 67 52 200 71 55 194 69 53 186 66 51 192 68 53 184 66 51 184 65 51 174 62 48 188 66 52 180 64 49 184 65 51 176 62 48 182 64 50 188 66 51 202 71 55 180 63 49 178 178 178 186 66 51 202 71 55 194 68 53 180 64 49 186 66 51 176 63 48 184 65 51 178 178 177 184 65 51 200 71 55 188 66 52 184 64 51 190 67 52 194 68 53 180 64 49 188 66 52 186 66 51 180 64 49 182 65 51 186 65 51 
114 41 31 108 37 29 132 47 36 104 37 29 114 40 31 122 43 33 106 37 29 174 170 174 188 66 52 104 37 29 122 43 33 120 42 33 122 43 33 132 47 36 120 42 33 128 45 35 118 42 32 122 43 33 108 38 30 122 42 33 130 46 36 122 43 33 112 40 31 118 42 32 88 31 24 173 172 169 188 66 52 122 42 33 122 43 33 122 43 33 118 42 32 124 45 35 126 44 35 112 40 31 132 47 36 116 41 32 132 46 36 122 43 33 112 40 31 104 36 29 126 45 35 120 43 33 112 40 31 174 174 174 170 61 47 122 43 33 126 44 34 114 40 31 124 44 35 128 45 35 92 32 25 167 166 167 180 64 49 110 39 30 122 43 33 130 46 36 130 46 36 122 43 33 120 42 33 122 43 33 126 43 35 124 45 35 122 43 33 116 41 32 
114 40 31 108 37 30 120 43 33 108 39 30 124 44 35 118 41 32 88 32 25 169 169 169 188 67 52 116 41 32 120 42 33 108 38 30 126 44 35 126 44 35 112 40 31 120 42 33 110 40 31 124 44 34 126 44 35 128 45 35 122 43 34 118 42 33 122 43 33 104 37 29 106 37 29 172 172 172 190 67 53 122 43 33 112 40 31 110 40 31 124 44 35 122 43 33 114 41 31 130 46 36 138 49 38 112 40 31 126 44 35 126 45 35 110 39 30 116 41 31 118 43 33 120 42 33 92 32 25 175 175 175 190 67 52 130 46 36 124 43 33 132 47 36 126 44 35 126 43 33 92 32 25 178 177 177 182 65 50 116 41 32 116 41 32 126 44 35 120 42 33 118 42 32 120 42 33 108 38 30 110 39 30 112 40 31 140 49 38 118 42 33 
128 46 36 120 43 32 126 44 35 112 40 31 124 44 34 116 41 32 104 37 29 163 162 161 188 66 52 124 44 34 106 37 29 118 41 32 120 42 33 120 42 33 122 43 33 112 40 31 122 44 33 126 45 36 108 38 30 116 41 33 124 45 35 136 48 37 126 44 35 130 44 36 100 35 27 169 169 169 178 64 49 132 47 36 108 37 30 124 44 34 120 42 33 124 42 34 128 45 35 122 43 33 130 46 36 120 42 32 112 40 31 120 42 33 118 41 32 108 38 30 118 42 32 132 47 37 104 37 29 172 172 172 182 65 50 124 45 35 138 48 38 126 44 35 120 42 33 114 40 31 92 32 25 168 167 167 184 66 51 112 40 31 120 42 33 124 44 34 122 43 33 124 44 34 122 43 33 128 45 35 124 44 34 134 47 37 110 39 30 128 45 36 
108 38 30 100 35 27 88 31 24 88 31 24 90 32 25 96 34 26 94 33 26 175 175 175 174 61 48 92 32 25 100 35 27 110 39 30 98 35 27 94 34 26 98 35 27 92 32 25 102 37 29 104 37 29 100 35 27 90 32 25 108 38 30 106 37 29 84 30 23 114 40 31 100 35 27 165 165 165 194 68 53 90 32 25 108 38 30 100 35 27 102 36 27 98 35 27 106 37 29 106 37 29 112 40 31 110 39 30 82 29 23 84 30 23 104 37 29 104 37 29 92 32 25 116 41 32 98 35 27 165 165 165 188 66 52 88 31 24 112 40 31 112 40 31 108 38 30 112 40 31 92 32 25 174 174 174 194 68 53 90 32 24 114 40 31 108 38 30 102 36 28 92 32 25 82 29 23 100 36 27 102 36 28 92 32 25 94 33 26 106 37 30 
