P3
64 64
255
0 0 0 0 0 0 0 0 0 0 0 0 0 0 0 0 0 0 0 0 0 0 0 0 0 0 0 0 0 0 0 0 0 0 0 0 0 0 0 0 0 0 0 0 0 0 0 0 0 0 0 0 0 0 0 0 0 0 0 0 0 0 0 0 0 0 0 0 0 0 0 0 0 0 0 0 0 0 0 0 0 0 0 0 0 0 0 0 0 0 0 0 0 0 0 0 0 0 0 0 0 0 0 0 0 0 0 0 0 0 0 0 0 0 0 0 0 0 0 0 0 0 0 0 0 0 0 0 0 0 0 0 0 0 0 0 0 0 0 0 0 0 0 0 0 0 0 0 0 0 0 0 0 0 0 0 0 0 0 0 0 0 0 0 0 0 0 0 0 0 0 0 0 0 0 0 0 0 0 0 0 0 0 0 0 0 0 0 0 0 0 0 
0 0 0 111 111 111 111 111 111 111 111 111 111 111 111 111 111 111 111 111 111 111 111 111 111 111 111 111 111 111 111 111 111 111 111 111 111 111 111 0 0 0 145 145 145 145 145 145 145 145 145 145 145 145 145 145 145 145 145 145 145 145 145 0 0 0 241 241 241 241 241 241 241 241 241 241 241 241 241 241 241 241 241 241 241 241 241 241 241 241 228 228 228 228 228 228 218 218 218 218 218 218 0 0 0 115 115 115 115 115 115 115 115 115 115 115 115 0 0 0 143 143 143 143 143 143 143 143 143 143 143 143 143 143 143 143 143 143 143 143 143 143 143 143 143 143 143 0 0 0 153 153 153 153 153 153 153 153 153 153 153 153 153 153 153 153 153 153 153 153 153 153 153 153 0 0 0 237 237 237 237 237 237 237 237 237 237 237 237 0 0 0 
0 0 0 111 111 111 111 111 111 111 111 111 104 104 104 104 104 104 104 104 104 104 104 104 104 104 104 104 104 104 111 111 111 111 111 111 111 111 111 0 0 0 145 145 145 145 145 145 145 145 145 135 135 135 135 135 135 145 145 145 145 145 145 145 145 145 0 0 0 241 241 241 241 241 241 228 228 228 228 228 228 228 228 228 228 228 228 218 218 218 218 218 218 218 218 218 0 0 0 0 0 0 115 115 115 115 115 115 115 115 115 115 115 115 0 0 0 143 143 143 143 143 143 143 143 143 118 118 118 118 118 118 118 118 118 118 118 118 118 118 118 118 118 118 118 118 118 0 0 0 153 153 153 153 153 153 153 153 153 153 153 153 153 153 153 153 153 153 153 153 153 153 153 153 153 153 153 0 0 0 0 0 0 237 237 237 237 237 237 0 0 0 
0 0 0 111 111 111 111 111 111 104 104 104 104 104 104 104 104 104 104 104 104 104 104 104 104 104 104 104 104 104 104 104 104 104 104 104 0 0 0 145 145 145 145 145 145 145 145 145 135 135 135 135 135 135 135 135 135 135 135 135 135 135 135 145 145 145 145 145 145 0 0 0 228 228 228 228 228 228 228 228 228 228 228 228 218 218 218 218 218 218 0 0 0 0 0 0 115 115 115 115 115 115 115 115 115 93 93 93 93 93 93 93 93 93 0 0 0 143 143 143 143 143 143 118 118 118 118 118 118 118 118 118 118 118 118 118 118 118 118 118 118 118 118 118 118 118 118 0 0 0 153 153 153 153 153 153 132 132 132 132 132 132 132 132 132 153 153 153 153 153 153 153 153 153 153 153 153 153 153 153 132 132 132 0 0 0 237 237 237 0 0 0 
0 0 0 111 111 111 111 111 111 104 104 104 104 104 104 104 104 104 104 104 104 104 104 104 104 104 104 104 104 104 104 104 104 104 104 104 0 0 0 145 145 145 145 145 145 135 135 135 135 135 135 135 135 135 135 135 135 135 135 135 135 135 135 135 135 135 135 135 135 0 0 0 218 218 218 218 218 218 218 218 218 218 218 218 218 218 218 0 0 0 115 115 115 115 115 115 115 115 115 115 115 115 93 93 93 93 93 93 93 93 93 93 93 93 0 0 0 143 143 143 118 118 118 118 118 118 118 118 118 118 118 118 118 118 118 118 118 118 118 118 118 118 118 118 118 118 118 0 0 0 153 153 153 153 153 153 132 132 132 132 132 132 132 132 132 132 132 132 132 132 132 132 132 132 132 132 132 132 132 132 132 132 132 132 132 132 0 0 0 0 0 0 
0 0 0 111 111 111 104 104 104 104 104 104 104 104 104 104 104 104 104 104 104 104 104 104 104 104 104 104 104 104 104 104 104 104 104 104 0 0 0 145 145 145 135 135 135 135 135 135 135 135 135 135 135 135 135 135 135 135 135 135 135 135 135 135 135 135 135 135 135 135 135 135 0 0 0 218 218 218 0 0 0 0 0 0 0 0 0 115 115 115 115 115 115 115 115 115 93 93 93 93 93 93 93 93 93 93 93 93 93 93 93 0 0 0 118 118 118 118 118 118 118 118 118 118 118 118 118 118 118 118 118 118 118 118 118 118 118 118 118 118 118 118 118 118 0 0 0 153 153 153 153 153 153 132 132 132 132 132 132 132 132 132 132 132 132 132 132 132 132 132 132 132 132 132 132 132 132 132 132 132 132 132 132 132 132 132 132 132 132 0 0 0 
0 0 0 111 111 111 104 104 104 104 104 104 104 104 104 104 104 104 104 104 104 104 104 104 104 104 104 104 104 104 104 104 104 0 0 0 145 145 145 145 145 145 135 135 135 135 135 135 135 135 135 135 135 135 135 135 135 135 135 135 135 135 135 135 135 135 135 135 135 135 135 135 124 124 124 0 0 0 115 115 115 115 115 115 115 115 115 115 115 115 115 115 115 93 93 93 93 93 93 93 93 93 93 93 93 93 93 93 84 84 84 0 0 0 118 118 118 118 118 118 118 118 118 118 118 118 118 118 118 118 118 118 118 118 118 103 103 103 103 103 103 103 103 103 0 0 0 132 132 132 132 132 132 132 132 132 132 132 132 132 132 132 132 132 132 132 132 132 132 132 132 132 132 132 132 132 132 132 132 132 132 132 132 132 132 132 132 132 132 0 0 0 
0 0 0 111 111 111 104 104 104 104 104 104 104 104 104 104 104 104 104 104 104 104 104 104 104 104 104 104 104 104 97 97 97 0 0 0 145 145 145 145 145 145 135 135 135 135 135 135 135 135 135 135 135 135 135 135 135 135 135 135 135 135 135 135 135 135 135 135 135 124 124 124 124 124 124 124 124 124 0 0 0 115 115 115 93 93 93 93 93 93 93 93 93 93 93 93 93 93 93 93 93 93 93 93 93 84 84 84 84 84 84 0 0 0 118 118 118 118 118 118 118 118 118 118 118 118 118 118 118 103 103 103 103 103 103 103 103 103 103 103 103 103 103 103 0 0 0 132 132 132 132 132 132 132 132 132 132 132 132 132 132 132 132 132 132 132 132 132 132 132 132 132 132 132 132 132 132 132 132 132 132 132 132 132 132 132 132 132 132 0 0 0 
0 0 0 111 111 111 111 111 111 104 104 104 104 104 104 104 104 104 104 104 104 104 104 104 104 104 104 104 104 104 97 97 97 0 0 0 145 145 145 135 135 135 135 135 135 135 135 135 135 135 135 135 135 135 135 135 135 135 135 135 135 135 135 135 135 135 124 124 124 124 124 124 124 124 124 0 0 0 115 115 115 115 115 115 93 93 93 93 93 93 93 93 93 93 93 93 93 93 93 93 93 93 93 93 93 84 84 84 0 0 0 118 118 118 118 118 118 118 118 118 118 118 118 103 103 103 103 103 103 103 103 103 103 103 103 103 103 103 103 103 103 0 0 0 200 200 200 0 0 0 132 132 132 132 132 132 132 132 132 132 132 132 132 132 132 132 132 132 132 132 132 132 132 132 132 132 132 132 132 132 132 132 132 132 132 132 132 132 132 0 0 0 
0 0 0 111 111 111 111 111 111 104 104 104 104 104 104 104 104 104 104 104 104 104 104 104 104 104 104 97 97 97 97 97 97 0 0 0 135 135 135 135 135 135 135 135 135 135 135 135 135 135 135 135 135 135 135 135 135 124 124 124 124 124 124 124 124 124 124 124 124 0 0 0 0 0 0 192 192 192 0 0 0 93 93 93 93 93 93 93 93 93 93 93 93 93 93 93 93 93 93 93 93 93 93 93 93 84 84 84 0 0 0 103 103 103 103 103 103 103 103 103 103 103 103 103 103 103 103 103 103 103 103 103 0 0 0 0 0 0 0 0 0 200 200 200 200 200 200 200 200 200 0 0 0 132 132 132 132 132 132 132 132 132 132 132 132 132 132 132 132 132 132 132 132 132 132 132 132 132 132 132 132 132 132 132 132 132 132 132 132 0 0 0 
0 0 0 111 111 111 111 111 111 104 104 104 104 104 104 104 104 104 104 104 104 104 104 104 104 104 104 97 97 97 0 0 0 135 135 135 135 135 135 135 135 135 135 135 135 135 135 135 135 135 135 135 135 135 124 124 124 124 124 124 124 124 124 0 0 0 0 0 0 192 192 192 192 192 192 192 192 192 192 192 192 0 0 0 84 84 84 84 84 84 93 93 93 93 93 93 93 93 93 93 93 93 84 84 84 84 84 84 0 0 0 103 103 103 103 103 103 103 103 103 103 103 103 103 103 103 0 0 0 0 0 0 200 200 200 200 200 200 200 200 200 200 200 200 200 200 200 200 200 200 0 0 0 118 118 118 118 118 118 132 132 132 132 132 132 132 132 132 132 132 132 132 132 132 132 132 132 132 132 132 132 132 132 132 132 132 132 132 132 0 0 0 
0 0 0 0 0 0 111 111 111 104 104 104 104 104 104 104 104 104 104 104 104 104 104 104 104 104 104 97 97 97 0 0 0 135 135 135 135 135 135 135 135 135 135 135 135 135 135 135 124 124 124 124 124 124 124 124 124 124 124 124 0 0 0 192 192 192 192 192 192 192 192 192 192 192 192 192 192 192 192 192 192 192 192 192 0 0 0 84 84 84 84 84 84 93 93 93 93 93 93 93 93 93 84 84 84 0 0 0 103 103 103 103 103 103 103 103 103 0 0 0 0 0 0 0 0 0 200 200 200 200 200 200 200 200 200 200 200 200 200 200 200 200 200 200 200 200 200 200 200 200 181 181 181 0 0 0 118 118 118 118 118 118 132 132 132 132 132 132 132 132 132 132 132 132 132 132 132 132 132 132 132 132 132 118 118 118 118 118 118 0 0 0 
0 0 0 215 215 215 0 0 0 0 0 0 97 97 97 97 97 97 104 104 104 104 104 104 104 104 104 97 97 97 0 0 0 135 135 135 135 135 135 135 135 135 124 124 124 124 124 124 124 124 124 124 124 124 0 0 0 0 0 0 192 192 192 192 192 192 192 192 192 192 192 192 192 192 192 192 192 192 192 192 192 192 192 192 192 192 192 0 0 0 84 84 84 93 93 93 93 93 93 84 84 84 84 84 84 0 0 0 103 103 103 0 0 0 0 0 0 200 200 200 200 200 200 200 200 200 200 200 200 200 200 200 200 200 200 200 200 200 181 181 181 181 181 181 181 181 181 181 181 181 181 181 181 0 0 0 118 118 118 118 118 118 118 118 118 118 118 118 118 118 118 118 118 118 118 118 118 118 118 118 118 118 118 118 118 118 118 118 118 0 0 0 
0 0 0 215 215 215 215 215 215 215 215 215 0 0 0 0 0 0 97 97 97 97 97 97 97 97 97 0 0 0 124 124 124 124 124 124 124 124 124 124 124 124 124 124 124 124 124 124 0 0 0 0 0 0 192 192 192 192 192 192 192 192 192 192 192 192 192 192 192 192 192 192 180 180 180 180 180 180 180 180 180 192 192 192 192 192 192 0 0 0 84 84 84 84 84 84 84 84 84 84 84 84 84 84 84 0 0 0 0 0 0 200 200 200 200 200 200 200 200 200 200 200 200 200 200 200 200 200 200 181 181 181 181 181 181 181 181 181 181 181 181 181 181 181 181 181 181 181 181 181 181 181 181 181 181 181 0 0 0 118 118 118 118 118 118 118 118 118 118 118 118 118 118 118 118 118 118 118 118 118 0 0 0 0 0 0 0 0 0 0 0 0 
0 0 0 215 215 215 215 215 215 215 215 215 215 215 215 215 215 215 0 0 0 0 0 0 97 97 97 0 0 0 124 124 124 124 124 124 124 124 124 124 124 124 0 0 0 0 0 0 192 192 192 192 192 192 192 192 192 192 192 192 192 192 192 180 180 180 180 180 180 180 180 180 180 180 180 180 180 180 180 180 180 180 180 180 180 180 180 180 180 180 0 0 0 84 84 84 84 84 84 84 84 84 0 0 0 200 200 200 200 200 200 200 200 200 200 200 200 200 200 200 181 181 181 181 181 181 181 181 181 181 181 181 181 181 181 181 181 181 181 181 181 181 181 181 181 181 181 181 181 181 181 181 181 181 181 181 181 181 181 0 0 0 118 118 118 118 118 118 118 118 118 0 0 0 0 0 0 0 0 0 221 221 221 221 221 221 221 221 221 0 0 0 
0 0 0 215 215 215 215 215 215 197 197 197 215 215 215 215 215 215 215 215 215 215 215 215 0 0 0 124 124 124 124 124 124 124 124 124 124 124 124 0 0 0 192 192 192 192 192 192 192 192 192 192 192 192 192 192 192 192 192 192 180 180 180 180 180 180 180 180 180 180 180 180 180 180 180 180 180 180 180 180 180 180 180 180 180 180 180 180 180 180 180 180 180 0 0 0 84 84 84 0 0 0 200 200 200 200 200 200 200 200 200 200 200 200 181 181 181 181 181 181 181 181 181 181 181 181 181 181 181 181 181 181 181 181 181 181 181 181 181 181 181 181 181 181 181 181 181 181 181 181 181 181 181 181 181 181 181 181 181 0 0 0 118 118 118 0 0 0 0 0 0 221 221 221 221 221 221 221 221 221 221 221 221 221 221 221 221 221 221 0 0 0 
0 0 0 215 215 215 197 197 197 197 197 197 197 197 197 197 197 197 197 197 197 215 215 215 215 215 215 0 0 0 124 124 124 0 0 0 0 0 0 192 192 192 192 192 192 192 192 192 192 192 192 192 192 192 180 180 180 180 180 180 180 180 180 180 180 180 180 180 180 180 180 180 180 180 180 180 180 180 180 180 180 180 180 180 180 180 180 180 180 180 180 180 180 158 158 158 0 0 0 200 200 200 200 200 200 200 200 200 200 200 200 181 181 181 181 181 181 181 181 181 181 181 181 181 181 181 181 181 181 181 181 181 181 181 181 181 181 181 181 181 181 181 181 181 181 181 181 181 181 181 181 181 181 181 181 181 157 157 157 157 157 157 0 0 0 221 221 221 221 221 221 221 221 221 221 221 221 221 221 221 209 209 209 209 209 209 221 221 221 0 0 0 
0 0 0 215 215 215 197 197 197 197 197 197 197 197 197 197 197 197 197 197 197 215 215 215 215 215 215 0 0 0 0 0 0 192 192 192 192 192 192 192 192 192 192 192 192 192 192 192 192 192 192 180 180 180 180 180 180 180 180 180 180 180 180 180 180 180 180 180 180 180 180 180 180 180 180 180 180 180 180 180 180 180 180 180 180 180 180 180 180 180 158 158 158 158 158 158 0 0 0 200 200 200 200 200 200 181 181 181 181 181 181 181 181 181 181 181 181 181 181 181 181 181 181 181 181 181 181 181 181 181 181 181 181 181 181 181 181 181 181 181 181 181 181 181 181 181 181 181 181 181 181 181 181 157 157 157 157 157 157 0 0 0 221 221 221 221 221 221 221 221 221 221 221 221 209 209 209 209 209 209 209 209 209 209 209 209 209 209 209 0 0 0 
0 0 0 197 197 197 197 197 197 197 197 197 197 197 197 197 197 197 197 197 197 197 197 197 197 197 197 0 0 0 192 192 192 192 192 192 192 192 192 192 192 192 192 192 192 180 180 180 180 180 180 180 180 180 144 99 52 144 99 52 144 99 52 144 99 52 144 99 52 144 99 52 144 99 52 144 99 52 144 99 52 144 99 52 144 99 52 144 99 52 144 99 52 144 99 52 144 99 52 144 99 52 144 99 52 144 99 52 144 99 52 144 99 52 144 99 52 144 99 52 144 99 52 144 99 52 144 99 52 144 99 52 144 99 52 144 99 52 181 181 181 181 181 181 181 181 181 181 181 181 157 157 157 157 157 157 0 0 0 221 221 221 221 221 221 221 221 221 209 209 209 209 209 209 209 209 209 209 209 209 209 209 209 209 209 209 209 209 209 0 0 0 
0 0 0 197 197 197 197 197 197 197 197 197 197 197 197 197 197 197 197 197 197 197 197 197 197 197 197 197 197 197 0 0 0 192 192 192 192 192 192 192 192 192 180 180 180 180 180 180 180 180 180 180 180 180 144 99 52 130 91 49 130 91 49 130 91 49 130 91 49 130 91 49 130 91 49 130 91 49 130 91 49 130 91 49 130 91 49 130 91 49 130 91 49 130 91 49 130 91 49 130 91 49 130 91 49 130 91 49 130 91 49 130 91 49 130 91 49 130 91 49 130 91 49 130 91 49 130 91 49 130 91 49 130 91 49 144 99 52 181 181 181 181 181 181 181 181 181 157 157 157 157 157 157 157 157 157 0 0 0 209 209 209 209 209 209 209 209 209 209 209 209 209 209 209 209 209 209 209 209 209 209 209 209 209 209 209 209 209 209 0 0 0 
0 0 0 197 197 197 197 197 197 197 197 197 197 197 197 197 197 197 197 197 197 197 197 197 197 197 197 197 197 197 0 0 0 180 180 180 180 180 180 180 180 180 180 180 180 180 180 180 180 180 180 180 180 180 144 99 52 130 91 49 130 91 49 130 91 49 130 91 49 130 91 49 130 91 49 130 91 49 130 91 49 130 91 49 130 91 49 130 91 49 130 91 49 130 91 49 130 91 49 130 91 49 130 91 49 130 91 49 130 91 49 130 91 49 130 91 49 130 91 49 130 91 49 130 91 49 130 91 49 130 91 49 130 91 49 144 99 52 181 181 181 181 181 181 157 157 157 157 157 157 157 157 157 157 157 157 0 0 0 209 209 209 209 209 209 209 209 209 209 209 209 209 209 209 209 209 209 209 209 209 209 209 209 209 209 209 209 209 209 0 0 0 
0 0 0 182 182 182 182 182 182 197 197 197 197 197 197 197 197 197 197 197 197 197 197 197 197 197 197 197 197 197 0 0 0 180 180 180 180 180 180 180 180 180 180 180 180 180 180 180 180 180 180 180 180 180 144 99 52 130 91 49 130 91 49 130 91 49 130 91 49 130 91 49 130 91 49 130 91 49 130 91 49 130 91 49 130 91 49 130 91 49 130 91 49 130 91 49 130 91 49 130 91 49 130 91 49 130 91 49 130 91 49 130 91 49 130 91 49 130 91 49 130 91 49 130 91 49 130 91 49 130 91 49 130 91 49 144 99 52 181 181 181 181 181 181 157 157 157 157 157 157 157 157 157 0 0 0 209 209 209 209 209 209 209 209 209 209 209 209 209 209 209 209 209 209 209 209 209 209 209 209 209 209 209 209 209 209 209 209 209 0 0 0 
0 0 0 182 182 182 182 182 182 182 182 182 197 197 197 197 197 197 197 197 197 197 197 197 197 197 197 182 182 182 0 0 0 180 180 180 180 180 180 180 180 180 180 180 180 180 180 180 180 180 180 180 180 180 144 99 52 130 91 49 130 91 49 130 91 49 130 91 49 130 91 49 130 91 49 130 91 49 130 91 49 130 91 49 130 91 49 130 91 49 130 91 49 130 91 49 130 91 49 130 91 49 130 91 49 130 91 49 130 91 49 130 91 49 130 91 49 130 91 49 130 91 49 130 91 49 130 91 49 130 91 49 130 91 49 144 99 52 157 157 157 157 157 157 157 157 157 157 157 157 157 157 157 0 0 0 209 209 209 209 209 209 209 209 209 209 209 209 209 209 209 209 209 209 209 209 209 209 209 209 209 209 209 209 209 209 209 209 209 0 0 0 
0 0 0 182 182 182 182 182 182 182 182 182 182 182 182 182 182 182 197 197 197 197 197 197 182 182 182 182 182 182 0 0 0 180 180 180 180 180 180 180 180 180 180 180 180 180 180 180 180 180 180 180 180 180 144 99 52 130 91 49 130 91 49 130 91 49 130 91 49 130 91 49 130 91 49 130 91 49 130 91 49 130 91 49 130 91 49 130 91 49 130 91 49 130 91 49 130 91 49 130 91 49 130 91 49 130 91 49 130 91 49 130 91 49 130 91 49 130 91 49 130 91 49 130 91 49 130 91 49 130 91 49 130 91 49 144 99 52 157 157 157 157 157 157 157 157 157 157 157 157 157 157 157 0 0 0 209 209 209 209 209 209 209 209 209 209 209 209 209 209 209 209 209 209 209 209 209 209 209 209 209 209 209 209 209 209 209 209 209 0 0 0 
0 0 0 0 0 0 0 0 0 182 182 182 182 182 182 182 182 182 182 182 182 182 182 182 182 182 182 182 182 182 0 0 0 180 180 180 180 180 180 180 180 180 180 180 180 180 180 180 180 180 180 180 180 180 144 99 52 130 91 49 130 91 49 130 91 49 130 91 49 130 91 49 130 91 49 130 91 49 130 91 49 130 91 49 130 91 49 130 91 49 130 91 49 130 91 49 130 91 49 130 91 49 130 91 49 130 91 49 130 91 49 130 91 49 130 91 49 130 91 49 130 91 49 130 91 49 130 91 49 130 91 49 130 91 49 144 99 52 157 157 157 157 157 157 157 157 157 157 157 157 0 0 0 184 184 184 184 184 184 184 184 184 209 209 209 209 209 209 209 209 209 209 209 209 209 209 209 209 209 209 209 209 209 209 209 209 209 209 209 0 0 0 
0 0 0 253 253 253 253 253 253 0 0 0 0 0 0 0 0 0 182 182 182 182 182 182 182 182 182 0 0 0 158 158 158 158 158 158 180 180 180 180 180 180 180 180 180 180 180 180 180 180 180 180 180 180 144 99 52 130 91 49 130 91 49 130 91 49 130 91 49 130 91 49 130 91 49 130 91 49 130 91 49 130 91 49 130 91 49 130 91 49 130 91 49 130 91 49 130 91 49 130 91 49 130 91 49 130 91 49 130 91 49 130 91 49 130 91 49 130 91 49 130 91 49 130 91 49 130 91 49 130 91 49 130 91 49 144 99 52 157 157 157 157 157 157 157 157 157 157 157 157 0 0 0 184 184 184 184 184 184 184 184 184 184 184 184 209 209 209 209 209 209 209 209 209 209 209 209 209 209 209 209 209 209 209 209 209 209 209 209 0 0 0 
0 0 0 253 253 253 253 253 253 253 253 253 253 253 253 253 253 253 0 0 0 0 0 0 0 0 0 0 0 0 158 158 158 158 158 158 158 158 158 158 158 158 180 180 180 180 180 180 180 180 180 180 180 180 144 99 52 130 91 49 130 91 49 130 91 49 130 91 49 130 91 49 130 91 49 130 91 49 130 91 49 130 91 49 130 91 49 130 91 49 130 91 49 130 91 49 130 91 49 130 91 49 130 91 49 130 91 49 130 91 49 130 91 49 130 91 49 130 91 49 130 91 49 130 91 49 130 91 49 130 91 49 130 91 49 144 99 52 157 157 157 157 157 157 157 157 157 0 0 0 0 0 0 184 184 184 184 184 184 184 184 184 184 184 184 184 184 184 184 184 184 184 184 184 184 184 184 209 209 209 209 209 209 209 209 209 209 209 209 0 0 0 
0 0 0 253 253 253 253 253 253 253 253 253 253 253 253 253 253 253 253 253 253 253 253 253 253 253 253 253 253 253 0 0 0 0 0 0 158 158 158 158 158 158 158 158 158 158 158 158 158 158 158 158 158 158 144 99 52 130 91 49 130 91 49 130 91 49 130 91 49 130 91 49 130 91 49 130 91 49 130 91 49 130 91 49 130 91 49 130 91 49 130 91 49 130 91 49 130 91 49 130 91 49 130 91 49 130 91 49 130 91 49 130 91 49 130 91 49 130 91 49 130 91 49 130 91 49 130 91 49 130 91 49 130 91 49 144 99 52 0 0 0 0 0 0 0 0 0 146 146 146 146 146 146 0 0 0 0 0 0 0 0 0 184 184 184 184 184 184 184 184 184 184 184 184 184 184 184 184 184 184 184 184 184 184 184 184 184 184 184 0 0 0 
0 0 0 241 241 241 241 241 241 241 241 241 241 241 241 241 241 241 253 253 253 253 253 253 253 253 253 253 253 253 253 253 253 253 253 253 0 0 0 0 0 0 0 0 0 158 158 158 158 158 158 158 158 158 144 99 52 130 91 49 130 91 49 130 91 49 130 91 49 130 91 49 130 91 49 130 91 49 130 91 49 130 91 49 130 91 49 130 91 49 130 91 49 130 91 49 130 91 49 130 91 49 130 91 49 130 91 49 130 91 49 130 91 49 130 91 49 130 91 49 130 91 49 130 91 49 130 91 49 130 91 49 130 91 49 144 99 52 0 0 0 146 146 146 146 146 146 146 146 146 146 146 146 146 146 146 146 146 146 146 146 146 0 0 0 0 0 0 184 184 184 184 184 184 184 184 184 184 184 184 184 184 184 184 184 184 184 184 184 0 0 0 
0 0 0 241 241 241 241 241 241 241 241 241 241 241 241 241 241 241 241 241 241 241 241 241 241 241 241 241 241 241 241 241 241 0 0 0 171 171 171 171 171 171 171 171 171 0 0 0 0 0 0 0 0 0 144 99 52 130 91 49 130 91 49 130 91 49 130 91 49 130 91 49 130 91 49 130 91 49 130 91 49 130 91 49 130 91 49 130 91 49 130 91 49 130 91 49 130 91 49 130 91 49 130 91 49 130 91 49 130 91 49 130 91 49 130 91 49 130 91 49 130 91 49 130 91 49 130 91 49 130 91 49 130 91 49 144 99 52 0 0 0 146 146 146 146 146 146 146 146 146 146 146 146 146 146 146 146 146 146 146 146 146 146 146 146 146 146 146 0 0 0 0 0 0 184 184 184 184 184 184 184 184 184 184 184 184 184 184 184 0 0 0 
0 0 0 203 203 203 241 241 241 241 241 241 241 241 241 241 241 241 241 241 241 241 241 241 203 203 203 203 203 203 0 0 0 171 171 171 171 171 171 171 171 171 171 171 171 171 171 171 171 171 171 171 171 171 144 99 52 130 91 49 130 91 49 130 91 49 130 91 49 130 91 49 130 91 49 130 91 49 130 91 49 130 91 49 130 91 49 130 91 49 130 91 49 130 91 49 130 91 49 130 91 49 130 91 49 130 91 49 130 91 49 130 91 49 130 91 49 130 91 49 130 91 49 130 91 49 130 91 49 130 91 49 130 91 49 144 99 52 0 0 0 146 146 146 146 146 146 146 146 146 146 146 146 146 146 146 146 146 146 120 120 120 146 146 146 146 146 146 0 0 0 150 150 150 0 0 0 0 0 0 0 0 0 0 0 0 0 0 0 0 0 0 
0 0 0 203 203 203 241 241 241 241 241 241 241 241 241 203 203 203 203 203 203 203 203 203 203 203 203 0 0 0 171 171 171 171 171 171 171 171 171 171 171 171 171 171 171 171 171 171 171 171 171 171 171 171 144 99 52 130 91 49 130 91 49 130 91 49 130 91 49 130 91 49 130 91 49 130 91 49 130 91 49 130 91 49 130 91 49 130 91 49 130 91 49 130 91 49 130 91 49 130 91 49 130 91 49 130 91 49 130 91 49 130 91 49 130 91 49 130 91 49 130 91 49 130 91 49 130 91 49 130 91 49 130 91 49 144 99 52 0 0 0 146 146 146 146 146 146 146 146 146 146 146 146 120 120 120 120 120 120 120 120 120 120 120 120 146 146 146 0 0 0 150 150 150 150 150 150 150 150 150 150 150 150 150 150 150 150 150 150 0 0 0 
0 0 0 203 203 203 203 203 203 203 203 203 203 203 203 203 203 203 203 203 203 203 203 203 0 0 0 171 171 171 171 171 171 171 171 171 171 171 171 156 156 156 156 156 156 156 156 156 156 156 156 156 156 156 144 99 52 130 91 49 130 91 49 130 91 49 130 91 49 130 91 49 130 91 49 130 91 49 130 91 49 130 91 49 130 91 49 130 91 49 130 91 49 130 91 49 130 91 49 130 91 49 130 91 49 130 91 49 130 91 49 130 91 49 130 91 49 130 91 49 130 91 49 130 91 49 130 91 49 130 91 49 130 91 49 144 99 52 0 0 0 146 146 146 146 146 146 146 146 146 120 120 120 120 120 120 120 120 120 120 120 120 120 120 120 120 120 120 0 0 0 150 150 150 150 150 150 150 150 150 150 150 150 150 150 150 150 150 150 0 0 0 
0 0 0 203 203 203 203 203 203 203 203 203 203 203 203 203 203 203 0 0 0 0 0 0 0 0 0 171 171 171 171 171 171 171 171 171 156 156 156 156 156 156 156 156 156 156 156 156 156 156 156 156 156 156 144 99 52 130 91 49 130 91 49 130 91 49 130 91 49 130 91 49 130 91 49 130 91 49 130 91 49 130 91 49 130 91 49 130 91 49 130 91 49 130 91 49 130 91 49 130 91 49 130 91 49 130 91 49 130 91 49 130 91 49 130 91 49 130 91 49 130 91 49 130 91 49 130 91 49 130 91 49 130 91 49 144 99 52 129 129 129 0 0 0 146 146 146 146 146 146 120 120 120 120 120 120 120 120 120 120 120 120 120 120 120 120 120 120 0 0 0 150 150 150 150 150 150 150 150 150 150 150 150 150 150 150 150 150 150 0 0 0 
0 0 0 0 0 0 0 0 0 0 0 0 0 0 0 0 0 0 174 174 174 174 174 174 0 0 0 171 171 171 171 171 171 156 156 156 156 156 156 156 156 156 156 156 156 156 156 156 156 156 156 156 156 156 144 99 52 130 91 49 130 91 49 130 91 49 130 91 49 130 91 49 130 91 49 130 91 49 130 91 49 130 91 49 130 91 49 130 91 49 130 91 49 130 91 49 130 91 49 130 91 49 130 91 49 130 91 49 130 91 49 130 91 49 130 91 49 130 91 49 130 91 49 130 91 49 130 91 49 130 91 49 130 91 49 144 99 52 129 129 129 0 0 0 146 146 146 120 120 120 120 120 120 120 120 120 120 120 120 120 120 120 120 120 120 107 107 107 0 0 0 150 150 150 150 150 150 150 150 150 126 126 126 150 150 150 150 150 150 0 0 0 
0 0 0 157 157 157 157 157 157 157 157 157 157 157 157 0 0 0 174 174 174 174 174 174 0 0 0 171 171 171 171 171 171 156 156 156 156 156 156 156 156 156 156 156 156 156 156 156 156 156 156 156 156 156 144 99 52 130 91 49 130 91 49 130 91 49 130 91 49 130 91 49 130 91 49 130 91 49 130 91 49 130 91 49 130 91 49 130 91 49 130 91 49 130 91 49 130 91 49 130 91 49 130 91 49 130 91 49 130 91 49 130 91 49 130 91 49 130 91 49 130 91 49 130 91 49 130 91 49 130 91 49 130 91 49 144 99 52 129 129 129 0 0 0 120 120 120 120 120 120 120 120 120 120 120 120 120 120 120 120 120 120 120 120 120 107 107 107 0 0 0 150 150 150 150 150 150 126 126 126 126 126 126 126 126 126 150 150 150 0 0 0 
0 0 0 157 157 157 128 128 128 128 128 128 0 0 0 174 174 174 174 174 174 174 174 174 0 0 0 171 171 171 156 156 156 156 156 156 156 156 156 156 156 156 156 156 156 156 156 156 156 156 156 156 156 156 144 99 52 130 91 49 130 91 49 130 91 49 130 91 49 130 91 49 130 91 49 130 91 49 130 91 49 130 91 49 130 91 49 130 91 49 130 91 49 130 91 49 130 91 49 130 91 49 130 91 49 130 91 49 130 91 49 130 91 49 101 92 82 101 92 82 101 92 82 101 92 82 101 92 82 130 91 49 130 91 49 144 99 52 114 114 114 0 0 0 120 120 120 120 120 120 120 120 120 120 120 120 120 120 120 120 120 120 107 107 107 107 107 107 0 0 0 150 150 150 150 150 150 126 126 126 126 126 126 126 126 126 126 126 126 0 0 0 
0 0 0 128 128 128 128 128 128 115 115 115 0 0 0 174 174 174 174 174 174 174 174 174 0 0 0 156 156 156 156 156 156 156 156 156 156 156 156 156 156 156 156 156 156 156 156 156 156 156 156 156 156 156 144 99 52 130 91 49 130 91 49 130 91 49 130 91 49 130 91 49 130 91 49 130 91 49 130 91 49 130 91 49 130 91 49 130 91 49 130 91 49 130 91 49 130 91 49 130 91 49 130 91 49 130 91 49 130 91 49 130 91 49 101 92 82 101 92 82 101 92 82 101 92 82 101 92 82 108 75 39 130 91 49 144 99 52 114 114 114 0 0 0 107 107 107 120 120 120 120 120 120 120 120 120 120 120 120 120 120 120 107 107 107 0 0 0 150 150 150 150 150 150 126 126 126 126 126 126 126 126 126 126 126 126 126 126 126 0 0 0 
0 0 0 115 115 115 128 128 128 0 0 0 174 174 174 174 174 174 174 174 174 174 174 174 0 0 0 156 156 156 156 156 156 156 156 156 156 156 156 156 156 156 156 156 156 156 156 156 156 156 156 156 156 156 144 99 52 130 91 49 130 91 49 130 91 49 130 91 49 130 91 49 130 91 49 130 91 49 130 91 49 130 91 49 130 91 49 130 91 49 130 91 49 130 91 49 130 91 49 130 91 49 130 91 49 130 91 49 130 91 49 130 91 49 101 92 82 101 92 82 101 92 82 101 92 82 101 92 82 108 75 39 130 91 49 144 99 52 114 114 114 0 0 0 107 107 107 120 120 120 120 120 120 120 120 120 120 120 120 107 107 107 107 107 107 0 0 0 150 150 150 150 150 150 126 126 126 126 126 126 126 126 126 126 126 126 126 126 126 0 0 0 
0 0 0 115 115 115 115 115 115 0 0 0 174 174 174 174 174 174 153 153 153 174 174 174 0 0 0 156 156 156 156 156 156 156 156 156 156 156 156 156 156 156 156 156 156 156 156 156 156 156 156 142 142 142 144 99 52 130 91 49 130 91 49 130 91 49 130 91 49 130 91 49 130 91 49 130 91 49 130 91 49 130 91 49 130 91 49 130 91 49 130 91 49 130 91 49 130 91 49 130 91 49 130 91 49 130 91 49 130 91 49 130 91 49 101 92 82 101 92 82 101 92 82 101 92 82 101 92 82 108 75 39 130 91 49 144 99 52 114 114 114 0 0 0 107 107 107 107 107 107 120 120 120 120 120 120 120 120 120 107 107 107 107 107 107 0 0 0 150 150 150 126 126 126 126 126 126 126 126 126 126 126 126 126 126 126 126 126 126 0 0 0 
0 0 0 115 115 115 0 0 0 174 174 174 174 174 174 153 153 153 153 153 153 174 174 174 0 0 0 156 156 156 156 156 156 156 156 156 156 156 156 156 156 156 156 156 156 156 156 156 142 142 142 142 142 142 144 99 52 130 91 49 130 91 49 130 91 49 130 91 49 130 91 49 130 91 49 130 91 49 130 91 49 130 91 49 130 91 49 130 91 49 130 91 49 130 91 49 130 91 49 130 91 49 130 91 49 130 91 49 130 91 49 130 91 49 101 92 82 101 92 82 101 92 82 101 92 82 101 92 82 108 75 39 130 91 49 144 99 52 114 114 114 0 0 0 107 107 107 107 107 107 120 120 120 120 120 120 120 120 120 107 107 107 107 107 107 0 0 0 126 126 126 126 126 126 126 126 126 126 126 126 126 126 126 126 126 126 126 126 126 0 0 0 
0 0 0 115 115 115 0 0 0 174 174 174 174 174 174 153 153 153 153 153 153 153 153 153 0 0 0 142 142 142 156 156 156 156 156 156 156 156 156 156 156 156 156 156 156 142 142 142 142 142 142 142 142 142 144 99 52 130 91 49 130 91 49 130 91 49 130 91 49 130 91 49 130 91 49 130 91 49 130 91 49 130 91 49 130 91 49 130 91 49 130 91 49 130 91 49 130 91 49 130 91 49 130 91 49 130 91 49 130 91 49 130 91 49 130 91 49 108 75 39 108 75 39 108 75 39 108 75 39 108 75 39 130 91 49 144 99 52 114 114 114 0 0 0 107 107 107 107 107 107 120 120 120 120 120 120 120 120 120 107 107 107 107 107 107 0 0 0 126 126 126 126 126 126 126 126 126 126 126 126 126 126 126 126 126 126 126 126 126 0 0 0 
0 0 0 0 0 0 174 174 174 174 174 174 153 153 153 153 153 153 153 153 153 153 153 153 0 0 0 142 142 142 156 156 156 156 156 156 156 156 156 156 156 156 156 156 156 142 142 142 142 142 142 0 0 0 144 99 52 130 91 49 130 91 49 130 91 49 130 91 49 130 91 49 130 91 49 130 91 49 130 91 49 130 91 49 130 91 49 130 91 49 130 91 49 130 91 49 130 91 49 130 91 49 130 91 49 130 91 49 130 91 49 130 91 49 130 91 49 130 91 49 130 91 49 130 91 49 130 91 49 130 91 49 130 91 49 144 99 52 114 114 114 114 114 114 0 0 0 107 107 107 107 107 107 120 120 120 107 107 107 107 107 107 107 107 107 0 0 0 126 126 126 126 126 126 126 126 126 126 126 126 126 126 126 126 126 126 126 126 126 0 0 0 
0 0 0 174 174 174 174 174 174 174 174 174 153 153 153 153 153 153 153 153 153 153 153 153 0 0 0 142 142 142 142 142 142 156 156 156 156 156 156 156 156 156 142 142 142 142 142 142 142 142 142 0 0 0 144 99 52 130 91 49 130 91 49 130 91 49 130 91 49 130 91 49 130 91 49 130 91 49 130 91 49 130 91 49 130 91 49 130 91 49 130 91 49 130 91 49 130 91 49 130 91 49 130 91 49 130 91 49 130 91 49 130 91 49 130 91 49 130 91 49 130 91 49 130 91 49 130 91 49 130 91 49 130 91 49 144 99 52 105 105 105 105 105 105 0 0 0 107 107 107 107 107 107 107 107 107 107 107 107 107 107 107 107 107 107 0 0 0 102 102 102 126 126 126 126 126 126 126 126 126 126 126 126 126 126 126 126 126 126 0 0 0 
0 0 0 174 174 174 153 153 153 153 153 153 153 153 153 153 153 153 153 153 153 153 153 153 0 0 0 142 142 142 142 142 142 156 156 156 156 156 156 142 142 142 142 142 142 142 142 142 142 142 142 0 0 0 144 99 52 130 91 49 130 91 49 130 91 49 130 91 49 130 91 49 130 91 49 130 91 49 130 91 49 130 91 49 130 91 49 130 91 49 130 91 49 130 91 49 130 91 49 130 91 49 130 91 49 130 91 49 130 91 49 130 91 49 130 91 49 130 91 49 130 91 49 130 91 49 130 91 49 130 91 49 130 91 49 144 99 52 105 105 105 0 0 0 206 206 206 0 0 0 0 0 0 0 0 0 0 0 0 0 0 0 107 107 107 0 0 0 102 102 102 102 102 102 126 126 126 126 126 126 126 126 126 102 102 102 102 102 102 0 0 0 
0 0 0 0 0 0 129 129 129 129 129 129 129 129 129 153 153 153 153 153 153 129 129 129 0 0 0 142 142 142 142 142 142 142 142 142 142 142 142 142 142 142 142 142 142 142 142 142 0 0 0 202 202 202 144 99 52 130 91 49 130 91 49 130 91 49 130 91 49 130 91 49 130 91 49 130 91 49 130 91 49 130 91 49 130 91 49 130 91 49 130 91 49 130 91 49 130 91 49 130 91 49 130 91 49 130 91 49 130 91 49 130 91 49 130 91 49 130 91 49 130 91 49 130 91 49 130 91 49 130 91 49 130 91 49 144 99 52 0 0 0 206 206 206 206 206 206 206 206 206 206 206 206 206 206 206 206 206 206 206 206 206 0 0 0 0 0 0 102 102 102 102 102 102 102 102 102 102 102 102 102 102 102 102 102 102 102 102 102 0 0 0 
0 0 0 197 197 197 0 0 0 0 0 0 129 129 129 129 129 129 129 129 129 129 129 129 0 0 0 142 142 142 142 142 142 142 142 142 142 142 142 142 142 142 142 142 142 142 142 142 0 0 0 202 202 202 144 99 52 130 91 49 130 91 49 130 91 49 130 91 49 130 91 49 130 91 49 130 91 49 130 91 49 130 91 49 130 91 49 130 91 49 130 91 49 130 91 49 130 91 49 130 91 49 130 91 49 130 91 49 130 91 49 130 91 49 130 91 49 130 91 49 130 91 49 130 91 49 130 91 49 130 91 49 130 91 49 144 99 52 0 0 0 206 206 206 206 206 206 206 206 206 206 206 206 206 206 206 206 206 206 206 206 206 206 206 206 206 206 206 0 0 0 102 102 102 102 102 102 102 102 102 102 102 102 102 102 102 102 102 102 0 0 0 
0 0 0 197 197 197 197 197 197 197 197 197 0 0 0 0 0 0 129 129 129 129 129 129 0 0 0 142 142 142 142 142 142 142 142 142 142 142 142 142 142 142 142 142 142 0 0 0 202 202 202 182 182 182 144 99 52 130 91 49 130 91 49 130 91 49 130 91 49 130 91 49 130 91 49 130 91 49 130 91 49 130 91 49 130 91 49 130 91 49 130 91 49 130 91 49 130 91 49 130 91 49 130 91 49 130 91 49 130 91 49 130 91 49 130 91 49 130 91 49 130 91 49 130 91 49 130 91 49 130 91 49 130 91 49 144 99 52 206 206 206 206 206 206 206 206 206 206 206 206 206 206 206 206 206 206 206 206 206 206 206 206 206 206 206 206 206 206 206 206 206 0 0 0 0 0 0 102 102 102 102 102 102 102 102 102 102 102 102 0 0 0 
0 0 0 197 197 197 197 197 197 197 197 197 197 197 197 197 197 197 0 0 0 0 0 0 142 142 142 142 142 142 142 142 142 142 142 142 142 142 142 0 0 0 0 0 0 0 0 0 182 182 182 182 182 182 144 99 52 130 91 49 130 91 49 130 91 49 130 91 49 130 91 49 130 91 49 130 91 49 130 91 49 130 91 49 130 91 49 130 91 49 130 91 49 130 91 49 130 91 49 130 91 49 130 91 49 130 91 49 130 91 49 130 91 49 130 91 49 130 91 49 130 91 49 130 91 49 130 91 49 130 91 49 130 91 49 144 99 52 206 206 206 206 206 206 206 206 206 191 191 191 191 191 191 191 191 191 191 191 191 191 191 191 191 191 191 191 191 191 206 206 206 206 206 206 206 206 206 0 0 0 102 102 102 102 102 102 102 102 102 0 0 0 
0 0 0 197 197 197 197 197 197 178 178 178 178 178 178 197 197 197 197 197 197 197 197 197 0 0 0 0 0 0 0 0 0 0 0 0 0 0 0 219 219 219 219 219 219 219 219 219 0 0 0 182 182 182 144 99 52 130 91 49 130 91 49 130 91 49 130 91 49 130 91 49 130 91 49 130 91 49 130 91 49 130 91 49 130 91 49 130 91 49 130 91 49 130 91 49 130 91 49 130 91 49 130 91 49 130 91 49 130 91 49 130 91 49 130 91 49 130 91 49 130 91 49 130 91 49 130 91 49 130 91 49 130 91 49 144 99 52 206 206 206 206 206 206 191 191 191 191 191 191 191 191 191 191 191 191 191 191 191 191 191 191 191 191 191 191 191 191 191 191 191 191 191 191 206 206 206 206 206 206 0 0 0 102 102 102 102 102 102 0 0 0 
0 0 0 197 197 197 178 178 178 178 178 178 178 178 178 178 178 178 197 197 197 0 0 0 219 219 219 219 219 219 219 219 219 219 219 219 219 219 219 219 219 219 219 219 219 219 219 219 0 0 0 182 182 182 144 99 52 130 91 49 130 91 49 130 91 49 130 91 49 130 91 49 130 91 49 130 91 49 130 91 49 130 91 49 130 91 49 130 91 49 130 91 49 130 91 49 130 91 49 130 91 49 130 91 49 130 91 49 130 91 49 130 91 49 130 91 49 130 91 49 130 91 49 130 91 49 130 91 49 130 91 49 130 91 49 144 99 52 206 206 206 191 191 191 191 191 191 191 191 191 191 191 191 191 191 191 191 191 191 191 191 191 191 191 191 191 191 191 191 191 191 191 191 191 191 191 191 160 160 160 160 160 160 0 0 0 0 0 0 0 0 0 
0 0 0 178 178 178 178 178 178 178 178 178 178 178 178 178 178 178 0 0 0 219 219 219 219 219 219 219 219 219 219 219 219 219 219 219 219 219 219 219 219 219 219 219 219 219 219 219 219 219 219 0 0 0 144 99 52 130 91 49 130 91 49 130 91 49 130 91 49 130 91 49 130 91 49 130 91 49 130 91 49 130 91 49 130 91 49 130 91 49 130 91 49 130 91 49 130 91 49 130 91 49 130 91 49 130 91 49 130 91 49 130 91 49 130 91 49 130 91 49 130 91 49 130 91 49 130 91 49 130 91 49 130 91 49 144 99 52 206 206 206 191 191 191 191 191 191 191 191 191 191 191 191 191 191 191 191 191 191 191 191 191 191 191 191 191 191 191 191 191 191 191 191 191 160 160 160 160 160 160 0 0 0 250 250 250 250 250 250 0 0 0 
0 0 0 178 178 178 178 178 178 178 178 178 162 162 162 162 162 162 0 0 0 219 219 219 219 219 219 219 219 219 219 219 219 203 203 203 203 203 203 203 203 203 203 203 203 219 219 219 219 219 219 0 0 0 144 99 52 130 91 49 130 91 49 130 91 49 130 91 49 130 91 49 130 91 49 130 91 49 130 91 49 130 91 49 130 91 49 130 91 49 130 91 49 130 91 49 130 91 49 130 91 49 130 91 49 130 91 49 130 91 49 130 91 49 130 91 49 130 91 49 130 91 49 130 91 49 130 91 49 130 91 49 130 91 49 144 99 52 160 160 160 191 191 191 191 191 191 191 191 191 191 191 191 191 191 191 191 191 191 191 191 191 191 191 191 191 191 191 160 160 160 160 160 160 160 160 160 0 0 0 250 250 250 250 250 250 250 250 250 0 0 0 
0 0 0 162 162 162 178 178 178 162 162 162 162 162 162 0 0 0 219 219 219 219 219 219 219 219 219 203 203 203 203 203 203 203 203 203 203 203 203 203 203 203 203 203 203 203 203 203 203 203 203 176 176 176 144 99 52 130 91 49 130 91 49 130 91 49 130 91 49 130 91 49 130 91 49 130 91 49 130 91 49 130 91 49 130 91 49 130 91 49 130 91 49 130 91 49 130 91 49 130 91 49 130 91 49 130 91 49 130 91 49 130 91 49 130 91 49 130 91 49 130 91 49 130 91 49 130 91 49 130 91 49 130 91 49 144 99 52 160 160 160 160 160 160 191 191 191 191 191 191 191 191 191 191 191 191 191 191 191 160 160 160 160 160 160 160 160 160 160 160 160 160 160 160 0 0 0 250 250 250 250 250 250 250 250 250 250 250 250 0 0 0 
0 0 0 162 162 162 162 162 162 162 162 162 162 162 162 0 0 0 0 0 0 0 0 0 0 0 0 203 203 203 203 203 203 203 203 203 203 203 203 203 203 203 203 203 203 203 203 203 203 203 203 176 176 176 144 99 52 130 91 49 130 91 49 130 91 49 130 91 49 130 91 49 130 91 49 130 91 49 130 91 49 130 91 49 130 91 49 130 91 49 130 91 49 130 91 49 130 91 49 130 91 49 130 91 49 130 91 49 130 91 49 130 91 49 130 91 49 130 91 49 130 91 49 130 91 49 130 91 49 130 91 49 130 91 49 144 99 52 160 160 160 160 160 160 160 160 160 160 160 160 160 160 160 160 160 160 160 160 160 160 160 160 160 160 160 160 160 160 160 160 160 0 0 0 250 250 250 250 250 250 250 250 250 250 250 250 250 250 250 0 0 0 
0 0 0 162 162 162 162 162 162 162 162 162 0 0 0 248 248 248 248 248 248 248 248 248 248 248 248 0 0 0 0 0 0 0 0 0 176 176 176 176 176 176 176 176 176 176 176 176 176 176 176 176 176 176 144 99 52 130 91 49 130 91 49 130 91 49 130 91 49 130 91 49 130 91 49 130 91 49 130 91 49 130 91 49 130 91 49 130 91 49 130 91 49 130 91 49 130 91 49 130 91 49 130 91 49 130 91 49 130 91 49 130 91 49 130 91 49 130 91 49 130 91 49 130 91 49 130 91 49 130 91 49 130 91 49 144 99 52 160 160 160 160 160 160 160 160 160 160 160 160 160 160 160 160 160 160 160 160 160 160 160 160 160 160 160 0 0 0 0 0 0 250 250 250 250 250 250 250 250 250 236 236 236 236 236 236 250 250 250 0 0 0 
0 0 0 0 0 0 0 0 0 0 0 0 255 255 255 0 0 0 248 248 248 248 248 248 248 248 248 248 248 248 248 248 248 248 248 248 0 0 0 0 0 0 0 0 0 176 176 176 176 176 176 176 176 176 144 99 52 130 91 49 130 91 49 130 91 49 130 91 49 130 91 49 130 91 49 130 91 49 130 91 49 130 91 49 130 91 49 130 91 49 130 91 49 130 91 49 130 91 49 130 91 49 130 91 49 130 91 49 130 91 49 130 91 49 130 91 49 130 91 49 130 91 49 130 91 49 130 91 49 130 91 49 130 91 49 144 99 52 0 0 0 0 0 0 160 160 160 160 160 160 160 160 160 160 160 160 160 160 160 0 0 0 0 0 0 255 255 255 255 255 255 0 0 0 250 250 250 250 250 250 236 236 236 236 236 236 236 236 236 0 0 0 
0 0 0 255 255 255 255 255 255 255 255 255 255 255 255 0 0 0 248 248 248 248 248 248 248 248 248 248 248 248 248 248 248 248 248 248 248 248 248 248 248 248 248 248 248 0 0 0 0 0 0 0 0 0 144 99 52 130 91 49 130 91 49 130 91 49 130 91 49 130 91 49 130 91 49 130 91 49 130 91 49 130 91 49 130 91 49 130 91 49 130 91 49 130 91 49 130 91 49 130 91 49 130 91 49 130 91 49 130 91 49 130 91 49 130 91 49 130 91 49 130 91 49 130 91 49 130 91 49 130 91 49 130 91 49 144 99 52 255 255 255 255 255 255 0 0 0 0 0 0 160 160 160 0 0 0 0 0 0 255 255 255 255 255 255 255 255 255 255 255 255 0 0 0 250 250 250 236 236 236 236 236 236 236 236 236 236 236 236 0 0 0 
0 0 0 255 255 255 255 255 255 255 255 255 255 255 255 255 255 255 0 0 0 248 248 248 248 248 248 226 226 226 226 226 226 226 226 226 226 226 226 248 248 248 248 248 248 248 248 248 248 248 248 248 248 248 144 99 52 130 91 49 130 91 49 130 91 49 130 91 49 130 91 49 130 91 49 130 91 49 130 91 49 130 91 49 130 91 49 130 91 49 130 91 49 130 91 49 130 91 49 130 91 49 130 91 49 130 91 49 130 91 49 130 91 49 130 91 49 130 91 49 130 91 49 130 91 49 130 91 49 130 91 49 130 91 49 144 99 52 255 255 255 255 255 255 255 255 255 255 255 255 0 0 0 255 255 255 255 255 255 255 255 255 255 255 255 255 255 255 255 255 255 255 255 255 0 0 0 208 208 208 236 236 236 236 236 236 208 208 208 0 0 0 
0 0 0 255 255 255 243 243 243 243 243 243 243 243 243 255 255 255 0 0 0 248 248 248 226 226 226 226 226 226 226 226 226 226 226 226 226 226 226 226 226 226 226 226 226 226 226 226 226 226 226 226 226 226 144 99 52 130 91 49 130 91 49 130 91 49 130 91 49 130 91 49 130 91 49 130 91 49 130 91 49 130 91 49 130 91 49 130 91 49 130 91 49 130 91 49 130 91 49 130 91 49 130 91 49 130 91 49 130 91 49 130 91 49 130 91 49 130 91 49 130 91 49 130 91 49 130 91 49 130 91 49 130 91 49 144 99 52 255 255 255 255 255 255 255 255 255 255 255 255 255 255 255 255 255 255 255 255 255 239 239 239 239 239 239 255 255 255 255 255 255 255 255 255 0 0 0 208 208 208 236 236 236 236 236 236 208 208 208 0 0 0 
0 0 0 199 199 199 243 243 243 243 243 243 243 243 243 243 243 243 199 199 199 0 0 0 199 199 199 226 226 226 226 226 226 226 226 226 226 226 226 226 226 226 226 226 226 226 226 226 226 226 226 226 226 226 144 99 52 130 91 49 130 91 49 130 91 49 130 91 49 130 91 49 130 91 49 130 91 49 130 91 49 130 91 49 130 91 49 130 91 49 130 91 49 130 91 49 130 91 49 130 91 49 130 91 49 130 91 49 130 91 49 130 91 49 130 91 49 130 91 49 130 91 49 130 91 49 130 91 49 130 91 49 130 91 49 144 99 52 239 239 239 239 239 239 239 239 239 239 239 239 239 239 239 239 239 239 239 239 239 239 239 239 239 239 239 239 239 239 223 223 223 223 223 223 0 0 0 208 208 208 236 236 236 208 208 208 208 208 208 0 0 0 
0 0 0 199 199 199 199 199 199 243 243 243 243 243 243 199 199 199 199 199 199 0 0 0 199 199 199 199 199 199 199 199 199 199 199 199 199 199 199 199 199 199 199 199 199 199 199 199 199 199 199 199 199 199 144 99 52 130 91 49 130 91 49 130 91 49 130 91 49 130 91 49 130 91 49 130 91 49 130 91 49 130 91 49 130 91 49 130 91 49 130 91 49 130 91 49 130 91 49 130 91 49 130 91 49 130 91 49 130 91 49 130 91 49 130 91 49 130 91 49 130 91 49 130 91 49 130 91 49 130 91 49 130 91 49 144 99 52 223 223 223 223 223 223 223 223 223 239 239 239 239 239 239 239 239 239 223 223 223 223 223 223 223 223 223 223 223 223 223 223 223 223 223 223 0 0 0 208 208 208 208 208 208 208 208 208 208 208 208 0 0 0 
0 0 0 199 199 199 199 199 199 199 199 199 199 199 199 199 199 199 199 199 199 199 199 199 0 0 0 199 199 199 199 199 199 199 199 199 199 199 199 199 199 199 199 199 199 199 199 199 199 199 199 199 199 199 144 99 52 130 91 49 130 91 49 130 91 49 130 91 49 130 91 49 130 91 49 130 91 49 130 91 49 130 91 49 130 91 49 130 91 49 130 91 49 130 91 49 130 91 49 130 91 49 130 91 49 130 91 49 130 91 49 130 91 49 130 91 49 130 91 49 130 91 49 130 91 49 130 91 49 130 91 49 130 91 49 144 99 52 223 223 223 223 223 223 223 223 223 223 223 223 223 223 223 223 223 223 223 223 223 223 223 223 223 223 223 223 223 223 223 223 223 223 223 223 0 0 0 208 208 208 208 208 208 208 208 208 208 208 208 0 0 0 
0 0 0 0 0 0 0 0 0 0 0 0 0 0 0 0 0 0 0 0 0 0 0 0 0 0 0 0 0 0 0 0 0 0 0 0 0 0 0 0 0 0 0 0 0 0 0 0 0 0 0 0 0 0 144 99 52 130 91 49 130 91 49 130 91 49 130 91 49 130 91 49 130 91 49 130 91 49 130 91 49 130 91 49 130 91 49 130 91 49 130 91 49 130 91 49 130 91 49 130 91 49 130 91 49 130 91 49 130 91 49 130 91 49 130 91 49 130 91 49 130 91 49 130 91 49 130 91 49 130 91 49 130 91 49 144 99 52 0 0 0 0 0 0 0 0 0 0 0 0 0 0 0 0 0 0 0 0 0 0 0 0 0 0 0 0 0 0 0 0 0 0 0 0 0 0 0 0 0 0 0 0 0 0 0 0 0 0 0 0 0 0 
