P3
32 128
255
0 0 0 0 0 0 0 0 0 0 0 0 0 0 0 0 0 0 0 0 0 0 0 0 0 0 0 0 0 0 0 0 0 0 0 0 0 0 0 0 0 0 0 0 0 0 0 0 0 0 0 0 0 0 0 0 0 0 0 0 0 0 0 0 0 0 0 0 0 0 0 0 0 0 0 0 0 0 0 0 0 0 0 0 0 0 0 0 0 0 0 0 0 0 0 0 
0 0 0 0 0 0 0 0 0 0 0 0 0 0 0 0 0 0 0 0 0 0 0 0 0 0 0 0 0 0 0 0 0 0 0 0 0 0 0 0 0 0 0 0 0 0 0 0 0 0 0 0 0 0 0 0 0 0 0 0 0 0 0 0 0 0 0 0 0 0 0 0 0 0 0 0 0 0 0 0 0 0 0 0 0 0 0 0 0 0 0 0 0 0 0 0 
0 0 0 0 0 0 0 0 0 0 0 0 0 0 0 0 0 0 0 0 0 0 0 0 0 0 0 0 0 0 0 0 0 0 0 0 0 0 0 0 0 0 0 0 0 0 0 0 0 0 0 0 0 0 0 0 0 0 0 0 0 0 0 0 0 0 0 0 0 0 0 0 0 0 0 0 0 0 0 0 0 0 0 0 0 0 0 0 0 0 0 0 0 0 0 0 
0 0 0 0 0 0 0 0 0 0 0 0 0 0 0 0 0 0 0 0 0 0 0 0 0 0 0 0 0 0 0 0 0 0 0 0 0 0 0 0 0 0 0 0 0 0 0 0 0 0 0 0 0 0 0 0 0 0 0 0 0 0 0 0 0 0 0 0 0 0 0 0 0 0 0 0 0 0 0 0 0 0 0 0 0 0 0 0 0 0 0 0 0 0 0 0 
0 0 0 0 0 0 0 0 0 0 0 0 0 0 0 0 0 0 0 0 0 0 0 0 0 0 0 0 0 0 0 0 0 0 0 0 0 0 0 0 0 0 0 0 0 0 0 0 0 0 0 0 0 0 0 0 0 0 0 0 0 0 0 0 0 0 0 0 0 0 0 0 0 0 0 0 0 0 0 0 0 0 0 0 0 0 0 0 0 0 0 0 0 0 0 0 
0 0 0 0 0 0 0 0 0 0 0 0 0 0 0 0 0 0 0 0 0 0 0 0 0 0 0 0 0 0 0 0 0 0 0 0 0 0 0 0 0 0 0 0 0 0 0 0 0 0 0 0 0 0 0 0 0 0 0 0 0 0 0 0 0 0 0 0 0 0 0 0 0 0 0 0 0 0 0 0 0 0 0 0 0 0 0 0 0 0 0 0 0 0 0 0 
0 0 0 0 0 0 0 0 0 0 0 0 0 0 0 0 0 0 0 0 0 0 0 0 0 0 0 0 0 0 0 0 0 0 0 0 0 0 0 0 0 0 0 0 0 0 0 0 0 0 0 0 0 0 0 0 0 0 0 0 131 126 135 131 126 135 0 0 0 0 0 0 0 0 0 0 0 0 0 0 0 0 0 0 0 0 0 0 0 0 0 0 0 0 0 0 
0 0 0 0 0 0 0 0 0 0 0 0 0 0 0 0 0 0 0 0 0 0 0 0 0 0 0 0 0 0 0 0 0 131 126 135 131 126 135 131 126 135 131 126 135 131 126 135 131 126 135 131 126 135 131 126 135 131 126 135 131 126 135 131 126 135 0 0 0 0 0 0 0 0 0 0 0 0 0 0 0 0 0 0 0 0 0 0 0 0 0 0 0 0 0 0 
0 0 0 0 0 0 0 0 0 0 0 0 0 0 0 0 0 0 0 0 0 0 0 0 131 126 135 131 126 135 131 126 135 131 126 135 131 126 135 131 126 135 131 126 135 131 126 135 131 126 135 131 126 135 131 126 135 131 126 135 131 126 135 131 126 135 0 0 0 0 0 0 0 0 0 0 0 0 0 0 0 0 0 0 0 0 0 0 0 0 0 0 0 0 0 0 
0 0 0 0 0 0 0 0 0 0 0 0 0 0 0 0 0 0 0 0 0 0 0 0 131 126 135 131 126 135 131 126 135 131 126 135 131 126 135 131 126 135 131 126 135 131 126 135 131 126 135 131 126 135 131 126 135 131 126 135 131 126 135 131 126 135 0 0 0 0 0 0 0 0 0 0 0 0 0 0 0 0 0 0 0 0 0 0 0 0 0 0 0 0 0 0 
0 0 0 0 0 0 0 0 0 0 0 0 0 0 0 0 0 0 0 0 0 0 0 0 131 126 135 131 126 135 131 126 135 131 126 135 131 126 135 131 126 135 131 126 135 131 126 135 131 126 135 131 126 135 131 126 135 131 126 135 131 126 135 131 126 135 0 0 0 0 0 0 0 0 0 0 0 0 0 0 0 0 0 0 0 0 0 0 0 0 0 0 0 0 0 0 
0 0 0 0 0 0 0 0 0 0 0 0 0 0 0 0 0 0 0 0 0 0 0 0 131 126 135 131 126 135 131 126 135 131 126 135 131 126 135 131 126 135 131 126 135 131 126 135 131 126 135 131 126 135 131 126 135 131 126 135 131 126 135 131 126 135 0 0 0 0 0 0 0 0 0 0 0 0 0 0 0 0 0 0 0 0 0 0 0 0 0 0 0 0 0 0 
0 0 0 0 0 0 0 0 0 0 0 0 0 0 0 0 0 0 0 0 0 0 0 0 131 126 135 131 126 135 131 126 135 131 126 135 131 126 135 131 126 135 131 126 135 131 126 135 131 126 135 131 126 135 131 126 135 131 126 135 131 126 135 131 126 135 0 0 0 0 0 0 0 0 0 0 0 0 0 0 0 0 0 0 0 0 0 0 0 0 0 0 0 0 0 0 
0 0 0 0 0 0 0 0 0 0 0 0 0 0 0 0 0 0 0 0 0 0 0 0 131 126 135 131 126 135 131 126 135 131 126 135 131 126 135 131 126 135 131 126 135 131 126 135 131 126 135 131 126 135 131 126 135 131 126 135 131 126 135 131 126 135 0 0 0 0 0 0 0 0 0 0 0 0 0 0 0 0 0 0 0 0 0 0 0 0 0 0 0 0 0 0 
131 126 135 131 126 135 131 126 135 131 126 135 131 126 135 131 126 135 131 126 135 131 126 135 0 0 0 131 126 135 131 126 135 131 126 135 131 126 135 131 126 135 131 126 135 131 126 135 131 126 135 131 126 135 131 126 135 131 126 135 131 126 135 131 126 135 0 0 0 0 0 0 131 126 135 131 126 135 131 126 135 131 126 135 131 126 135 131 126 135 131 126 135 131 126 135 
131 126 135 131 126 135 131 126 135 131 126 135 131 126 135 131 126 135 131 126 135 131 126 135 131 126 135 131 126 135 131 126 135 131 126 135 131 126 135 131 126 135 131 126 135 131 126 135 131 126 135 131 126 135 131 126 135 131 126 135 131 126 135 131 126 135 131 126 135 131 126 135 131 126 135 131 126 135 131 126 135 131 126 135 131 126 135 131 126 135 131 126 135 131 126 135 
131 126 135 131 126 135 131 126 135 131 126 135 131 126 135 131 126 135 131 126 135 131 126 135 131 126 135 131 126 135 131 126 135 131 126 135 131 126 135 131 126 135 131 126 135 131 126 135 131 126 135 131 126 135 131 126 135 131 126 135 131 126 135 131 126 135 131 126 135 131 126 135 131 126 135 131 126 135 131 126 135 131 126 135 131 126 135 131 126 135 131 126 135 131 126 135 
131 126 135 131 126 135 131 126 135 131 126 135 131 126 135 131 126 135 131 126 135 131 126 135 131 126 135 131 126 135 131 126 135 131 126 135 131 126 135 131 126 135 131 126 135 131 126 135 131 126 135 131 126 135 131 126 135 131 126 135 131 126 135 131 126 135 131 126 135 131 126 135 131 126 135 131 126 135 131 126 135 131 126 135 131 126 135 131 126 135 131 126 135 131 126 135 
131 126 135 131 126 135 131 126 135 131 126 135 131 126 135 131 126 135 131 126 135 131 126 135 131 126 135 131 126 135 131 126 135 131 126 135 131 126 135 131 126 135 131 126 135 131 126 135 131 126 135 131 126 135 131 126 135 131 126 135 131 126 135 131 126 135 131 126 135 131 126 135 131 126 135 131 126 135 131 126 135 131 126 135 131 126 135 131 126 135 131 126 135 131 126 135 
131 126 135 131 126 135 131 126 135 131 126 135 131 126 135 131 126 135 131 126 135 131 126 135 131 126 135 131 126 135 131 126 135 131 126 135 131 126 135 131 126 135 131 126 135 131 126 135 131 126 135 131 126 135 131 126 135 131 126 135 131 126 135 131 126 135 131 126 135 131 126 135 131 126 135 131 126 135 131 126 135 131 126 135 131 126 135 131 126 135 131 126 135 131 126 135 
131 126 135 131 126 135 131 126 135 131 126 135 131 126 135 131 126 135 131 126 135 131 126 135 131 126 135 131 126 135 131 126 135 131 126 135 131 126 135 131 126 135 131 126 135 131 126 135 131 126 135 131 126 135 131 126 135 131 126 135 131 126 135 131 126 135 131 126 135 131 126 135 131 126 135 131 126 135 131 126 135 131 126 135 131 126 135 131 126 135 131 126 135 131 126 135 
131 126 135 131 126 135 131 126 135 131 126 135 131 126 135 131 126 135 131 126 135 131 126 135 131 126 135 131 126 135 131 126 135 131 126 135 131 126 135 131 126 135 131 126 135 131 126 135 131 126 135 131 126 135 131 126 135 131 126 135 131 126 135 131 126 135 131 126 135 131 126 135 131 126 135 131 126 135 131 126 135 131 126 135 131 126 135 131 126 135 131 126 135 131 126 135 
131 126 135 131 126 135 131 126 135 131 126 135 131 126 135 131 126 135 131 126 135 131 126 135 131 126 135 131 126 135 131 126 135 131 126 135 131 126 135 131 126 135 131 126 135 131 126 135 131 126 135 131 126 135 131 126 135 131 126 135 131 126 135 131 126 135 131 126 135 131 126 135 131 126 135 131 126 135 131 126 135 131 126 135 131 126 135 131 126 135 131 126 135 131 126 135 
131 126 135 131 126 135 131 126 135 131 126 135 131 126 135 131 126 135 131 126 135 131 126 135 131 126 135 131 126 135 131 126 135 131 126 135 131 126 135 131 126 135 131 126 135 131 126 135 131 126 135 131 126 135 131 126 135 131 126 135 131 126 135 131 126 135 131 126 135 131 126 135 131 126 135 131 126 135 131 126 135 131 126 135 131 126 135 131 126 135 131 126 135 131 126 135 
131 126 135 131 126 135 131 126 135 131 126 135 131 126 135 131 126 135 131 126 135 131 126 135 131 126 135 131 126 135 131 126 135 131 126 135 131 126 135 131 126 135 131 126 135 131 126 135 131 126 135 131 126 135 131 126 135 131 126 135 131 126 135 131 126 135 131 126 135 131 126 135 131 126 135 131 126 135 131 126 135 131 126 135 131 126 135 131 126 135 131 126 135 131 126 135 
131 126 135 131 126 135 131 126 135 131 126 135 131 126 135 131 126 135 131 126 135 131 126 135 131 126 135 131 126 135 131 126 135 131 126 135 131 126 135 131 126 135 131 126 135 131 126 135 131 126 135 131 126 135 131 126 135 131 126 135 131 126 135 131 126 135 131 126 135 131 126 135 131 126 135 131 126 135 131 126 135 131 126 135 131 126 135 131 126 135 131 126 135 131 126 135 
131 126 135 131 126 135 131 126 135 131 126 135 131 126 135 131 126 135 131 126 135 131 126 135 131 126 135 131 126 135 131 126 135 131 126 135 131 126 135 131 126 135 131 126 135 131 126 135 131 126 135 131 126 135 131 126 135 131 126 135 131 126 135 131 126 135 131 126 135 131 126 135 131 126 135 131 126 135 131 126 135 131 126 135 131 126 135 131 126 135 131 126 135 131 126 135 
131 126 135 131 126 135 131 126 135 131 126 135 131 126 135 131 126 135 131 126 135 131 126 135 131 126 135 131 126 135 131 126 135 131 126 135 131 126 135 131 126 135 131 126 135 131 126 135 131 126 135 131 126 135 131 126 135 131 126 135 131 126 135 131 126 135 131 126 135 131 126 135 131 126 135 131 126 135 131 126 135 131 126 135 131 126 135 131 126 135 131 126 135 131 126 135 
131 126 135 131 126 135 131 126 135 131 126 135 131 126 135 131 126 135 131 126 135 131 126 135 131 126 135 131 126 135 131 126 135 131 126 135 131 126 135 131 126 135 131 126 135 131 126 135 131 126 135 131 126 135 131 126 135 131 126 135 131 126 135 131 126 135 131 126 135 131 126 135 131 126 135 131 126 135 131 126 135 131 126 135 131 126 135 131 126 135 131 126 135 131 126 135 
131 126 135 131 126 135 131 126 135 131 126 135 131 126 135 131 126 135 131 126 135 131 126 135 131 126 135 131 126 135 131 126 135 131 126 135 131 126 135 131 126 135 131 126 135 131 126 135 131 126 135 131 126 135 131 126 135 131 126 135 131 126 135 131 126 135 131 126 135 131 126 135 131 126 135 131 126 135 131 126 135 131 126 135 131 126 135 131 126 135 131 126 135 131 126 135 
131 126 135 131 126 135 131 126 135 131 126 135 131 126 135 131 126 135 131 126 135 131 126 135 131 126 135 131 126 135 131 126 135 131 126 135 131 126 135 131 126 135 131 126 135 131 126 135 131 126 135 131 126 135 131 126 135 131 126 135 131 126 135 131 126 135 131 126 135 131 126 135 131 126 135 131 126 135 131 126 135 131 126 135 131 126 135 131 126 135 131 126 135 131 126 135 
131 126 135 131 126 135 131 126 135 131 126 135 131 126 135 131 126 135 131 126 135 131 126 135 131 126 135 131 126 135 131 126 135 131 126 135 131 126 135 131 126 135 131 126 135 131 126 135 131 126 135 131 126 135 131 126 135 131 126 135 131 126 135 131 126 135 131 126 135 131 126 135 131 126 135 131 126 135 131 126 135 131 126 135 131 126 135 131 126 135 131 126 135 131 126 135 
131 126 135 131 126 135 131 126 135 131 126 135 131 126 135 131 126 135 131 126 135 131 126 135 131 126 135 131 126 135 131 126 135 131 126 135 131 126 135 131 126 135 131 126 135 131 126 135 131 126 135 131 126 135 131 126 135 131 126 135 131 126 135 131 126 135 131 126 135 131 126 135 131 126 135 131 126 135 131 126 135 131 126 135 131 126 135 131 126 135 131 126 135 131 126 135 
131 126 135 131 126 135 131 126 135 131 126 135 131 126 135 131 126 135 131 126 135 131 126 135 131 126 135 131 126 135 131 126 135 131 126 135 131 126 135 131 126 135 131 126 135 131 126 135 131 126 135 131 126 135 131 126 135 131 126 135 131 126 135 131 126 135 131 126 135 131 126 135 131 126 135 131 126 135 131 126 135 131 126 135 131 126 135 131 126 135 131 126 135 131 126 135 
131 126 135 131 126 135 131 126 135 131 126 135 131 126 135 131 126 135 131 126 135 131 126 135 131 126 135 131 126 135 131 126 135 131 126 135 131 126 135 131 126 135 131 126 135 131 126 135 131 126 135 131 126 135 131 126 135 131 126 135 131 126 135 131 126 135 131 126 135 131 126 135 131 126 135 131 126 135 131 126 135 131 126 135 131 126 135 131 126 135 131 126 135 131 126 135 
131 126 135 131 126 135 131 126 135 131 126 135 131 126 135 131 126 135 131 126 135 131 126 135 131 126 135 131 126 135 131 126 135 131 126 135 131 126 135 131 126 135 131 126 135 131 126 135 131 126 135 131 126 135 131 126 135 131 126 135 131 126 135 131 126 135 131 126 135 131 126 135 131 126 135 131 126 135 131 126 135 131 126 135 131 126 135 131 126 135 131 126 135 131 126 135 
131 126 135 131 126 135 131 126 135 131 126 135 131 126 135 131 126 135 131 126 135 131 126 135 131 126 135 131 126 135 131 126 135 131 126 135 131 126 135 131 126 135 131 126 135 131 126 135 131 126 135 131 126 135 131 126 135 131 126 135 131 126 135 131 126 135 131 126 135 131 126 135 131 126 135 131 126 135 131 126 135 131 126 135 131 126 135 131 126 135 131 126 135 131 126 135 
131 126 135 131 126 135 131 126 135 131 126 135 131 126 135 131 126 135 131 126 135 131 126 135 131 126 135 131 126 135 131 126 135 131 126 135 131 126 135 131 126 135 131 126 135 131 126 135 131 126 135 131 126 135 131 126 135 131 126 135 131 126 135 131 126 135 131 126 135 131 126 135 131 126 135 131 126 135 131 126 135 131 126 135 131 126 135 131 126 135 131 126 135 131 126 135 
131 126 135 131 126 135 131 126 135 131 126 135 131 126 135 131 126 135 131 126 135 131 126 135 131 126 135 131 126 135 131 126 135 131 126 135 131 126 135 131 126 135 131 126 135 131 126 135 131 126 135 131 126 135 131 126 135 131 126 135 131 126 135 131 126 135 131 126 135 131 126 135 131 126 135 131 126 135 131 126 135 131 126 135 131 126 135 131 126 135 131 126 135 131 126 135 
131 126 135 131 126 135 131 126 135 131 126 135 131 126 135 131 126 135 131 126 135 131 126 135 131 126 135 131 126 135 131 126 135 131 126 135 131 126 135 131 126 135 131 126 135 131 126 135 131 126 135 131 126 135 131 126 135 131 126 135 131 126 135 131 126 135 131 126 135 131 126 135 131 126 135 131 126 135 131 126 135 131 126 135 131 126 135 131 126 135 131 126 135 131 126 135 
131 126 135 131 126 135 131 126 135 131 126 135 131 126 135 131 126 135 131 126 135 131 126 135 131 126 135 131 126 135 131 126 135 131 126 135 131 126 135 131 126 135 131 126 135 131 126 135 131 126 135 131 126 135 131 126 135 131 126 135 131 126 135 131 126 135 131 126 135 131 126 135 131 126 135 131 126 135 131 126 135 131 126 135 131 126 135 131 126 135 131 126 135 131 126 135 
131 126 135 131 126 135 131 126 135 131 126 135 131 126 135 131 126 135 131 126 135 131 126 135 131 126 135 131 126 135 131 126 135 131 126 135 131 126 135 131 126 135 131 126 135 131 126 135 131 126 135 131 126 135 131 126 135 131 126 135 131 126 135 131 126 135 131 126 135 131 126 135 131 126 135 131 126 135 131 126 135 131 126 135 131 126 135 131 126 135 131 126 135 131 126 135 
131 126 135 131 126 135 131 126 135 131 126 135 131 126 135 131 126 135 131 126 135 131 126 135 131 126 135 131 126 135 131 126 135 131 126 135 131 126 135 131 126 135 131 126 135 131 126 135 131 126 135 131 126 135 131 126 135 131 126 135 131 126 135 131 126 135 131 126 135 131 126 135 131 126 135 131 126 135 131 126 135 131 126 135 131 126 135 131 126 135 131 126 135 131 126 135 
131 126 135 131 126 135 131 126 135 131 126 135 131 126 135 131 126 135 131 126 135 131 126 135 131 126 135 131 126 135 131 126 135 131 126 135 131 126 135 131 126 135 131 126 135 131 126 135 131 126 135 131 126 135 131 126 135 131 126 135 131 126 135 131 126 135 131 126 135 131 126 135 131 126 135 131 126 135 131 126 135 131 126 135 131 126 135 131 126 135 131 126 135 131 126 135 
131 126 135 131 126 135 131 126 135 131 126 135 131 126 135 131 126 135 131 126 135 131 126 135 131 126 135 131 126 135 131 126 135 131 126 135 131 126 135 131 126 135 131 126 135 131 126 135 131 126 135 131 126 135 131 126 135 131 126 135 131 126 135 131 126 135 131 126 135 131 126 135 131 126 135 131 126 135 131 126 135 131 126 135 131 126 135 131 126 135 131 126 135 131 126 135 
131 126 135 131 126 135 131 126 135 131 126 135 131 126 135 131 126 135 131 126 135 131 126 135 131 126 135 131 126 135 131 126 135 131 126 135 131 126 135 131 126 135 131 126 135 131 126 135 131 126 135 131 126 135 131 126 135 131 126 135 131 126 135 131 126 135 131 126 135 131 126 135 131 126 135 131 126 135 131 126 135 131 126 135 131 126 135 131 126 135 131 126 135 131 126 135 
131 126 135 131 126 135 131 126 135 131 126 135 131 126 135 131 126 135 131 126 135 131 126 135 131 126 135 131 126 135 131 126 135 131 126 135 131 126 135 131 126 135 131 126 135 131 126 135 131 126 135 131 126 135 131 126 135 131 126 135 131 126 135 131 126 135 131 126 135 131 126 135 131 126 135 131 126 135 131 126 135 131 126 135 131 126 135 131 126 135 131 126 135 131 126 135 
131 126 135 131 126 135 131 126 135 131 126 135 131 126 135 131 126 135 131 126 135 131 126 135 131 126 135 131 126 135 131 126 135 131 126 135 131 126 135 131 126 135 131 126 135 131 126 135 131 126 135 131 126 135 131 126 135 131 126 135 131 126 135 131 126 135 131 126 135 131 126 135 131 126 135 131 126 135 131 126 135 131 126 135 131 126 135 131 126 135 131 126 135 131 126 135 
131 126 135 131 126 135 131 126 135 131 126 135 131 126 135 131 126 135 131 126 135 131 126 135 131 126 135 131 126 135 131 126 135 131 126 135 131 126 135 131 126 135 131 126 135 131 126 135 131 126 135 131 126 135 131 126 135 131 126 135 131 126 135 131 126 135 131 126 135 131 126 135 131 126 135 131 126 135 131 126 135 131 126 135 131 126 135 131 126 135 131 126 135 131 126 135 
131 126 135 131 126 135 131 126 135 131 126 135 131 126 135 131 126 135 131 126 135 131 126 135 131 126 135 131 126 135 131 126 135 131 126 135 131 126 135 131 126 135 131 126 135 131 126 135 131 126 135 131 126 135 131 126 135 131 126 135 131 126 135 131 126 135 131 126 135 131 126 135 131 126 135 131 126 135 131 126 135 131 126 135 131 126 135 131 126 135 131 126 135 131 126 135 
131 126 135 131 126 135 131 126 135 131 126 135 131 126 135 131 126 135 131 126 135 131 126 135 131 126 135 131 126 135 131 126 135 131 126 135 131 126 135 131 126 135 131 126 135 131 126 135 131 126 135 131 126 135 131 126 135 131 126 135 131 126 135 131 126 135 131 126 135 131 126 135 131 126 135 131 126 135 131 126 135 131 126 135 131 126 135 131 126 135 131 126 135 131 126 135 
131 126 135 131 126 135 131 126 135 131 126 135 131 126 135 131 126 135 131 126 135 131 126 135 131 126 135 131 126 135 131 126 135 131 126 135 131 126 135 131 126 135 131 126 135 131 126 135 131 126 135 131 126 135 131 126 135 131 126 135 131 126 135 131 126 135 131 126 135 131 126 135 131 126 135 131 126 135 131 126 135 131 126 135 131 126 135 131 126 135 131 126 135 131 126 135 
131 126 135 131 126 135 131 126 135 131 126 135 131 126 135 131 126 135 131 126 135 131 126 135 131 126 135 131 126 135 131 126 135 131 126 135 131 126 135 131 126 135 131 126 135 131 126 135 131 126 135 131 126 135 131 126 135 131 126 135 131 126 135 131 126 135 131 126 135 131 126 135 131 126 135 131 126 135 131 126 135 131 126 135 131 126 135 131 126 135 131 126 135 131 126 135 
131 126 135 131 126 135 131 126 135 131 126 135 131 126 135 131 126 135 131 126 135 131 126 135 131 126 135 131 126 135 131 126 135 131 126 135 131 126 135 131 126 135 131 126 135 131 126 135 131 126 135 131 126 135 131 126 135 131 126 135 131 126 135 131 126 135 131 126 135 131 126 135 131 126 135 131 126 135 131 126 135 131 126 135 131 126 135 131 126 135 131 126 135 131 126 135 
131 126 135 131 126 135 131 126 135 131 126 135 131 126 135 131 126 135 131 126 135 131 126 135 131 126 135 131 126 135 131 126 135 131 126 135 131 126 135 131 126 135 131 126 135 131 126 135 131 126 135 131 126 135 131 126 135 131 126 135 131 126 135 131 126 135 131 126 135 131 126 135 131 126 135 131 126 135 131 126 135 131 126 135 131 126 135 131 126 135 131 126 135 131 126 135 
131 126 135 131 126 135 131 126 135 131 126 135 131 126 135 131 126 135 131 126 135 131 126 135 131 126 135 131 126 135 131 126 135 131 126 135 131 126 135 131 126 135 131 126 135 131 126 135 131 126 135 131 126 135 131 126 135 131 126 135 131 126 135 131 126 135 131 126 135 131 126 135 131 126 135 131 126 135 131 126 135 131 126 135 131 126 135 131 126 135 131 126 135 131 126 135 
131 126 135 131 126 135 131 126 135 131 126 135 131 126 135 131 126 135 131 126 135 131 126 135 131 126 135 131 126 135 131 126 135 131 126 135 131 126 135 131 126 135 131 126 135 131 126 135 131 126 135 131 126 135 131 126 135 131 126 135 131 126 135 131 126 135 131 126 135 131 126 135 131 126 135 131 126 135 131 126 135 131 126 135 131 126 135 131 126 135 131 126 135 131 126 135 
131 126 135 131 126 135 131 126 135 131 126 135 131 126 135 131 126 135 131 126 135 131 126 135 131 126 135 131 126 135 131 126 135 131 126 135 131 126 135 131 126 135 131 126 135 131 126 135 131 126 135 131 126 135 131 126 135 131 126 135 131 126 135 131 126 135 131 126 135 131 126 135 131 126 135 131 126 135 131 126 135 131 126 135 131 126 135 131 126 135 131 126 135 131 126 135 
131 126 135 131 126 135 131 126 135 131 126 135 131 126 135 131 126 135 131 126 135 131 126 135 131 126 135 131 126 135 131 126 135 131 126 135 131 126 135 131 126 135 131 126 135 131 126 135 131 126 135 131 126 135 131 126 135 131 126 135 131 126 135 131 126 135 131 126 135 131 126 135 131 126 135 131 126 135 131 126 135 131 126 135 131 126 135 131 126 135 131 126 135 131 126 135 
131 126 135 131 126 135 131 126 135 131 126 135 131 126 135 131 126 135 131 126 135 131 126 135 131 126 135 131 126 135 131 126 135 131 126 135 131 126 135 131 126 135 131 126 135 131 126 135 131 126 135 131 126 135 131 126 135 131 126 135 131 126 135 131 126 135 131 126 135 131 126 135 131 126 135 131 126 135 131 126 135 131 126 135 131 126 135 131 126 135 131 126 135 131 126 135 
131 126 135 131 126 135 131 126 135 131 126 135 131 126 135 131 126 135 131 126 135 131 126 135 131 126 135 131 126 135 131 126 135 131 126 135 131 126 135 131 126 135 131 126 135 131 126 135 131 126 135 131 126 135 131 126 135 131 126 135 131 126 135 131 126 135 131 126 135 131 126 135 131 126 135 131 126 135 131 126 135 131 126 135 131 126 135 131 126 135 131 126 135 131 126 135 
131 126 135 131 126 135 131 126 135 131 126 135 131 126 135 131 126 135 131 126 135 131 126 135 131 126 135 131 126 135 131 126 135 131 126 135 131 126 135 131 126 135 131 126 135 131 126 135 131 126 135 131 126 135 131 126 135 131 126 135 131 126 135 131 126 135 131 126 135 131 126 135 131 126 135 131 126 135 131 126 135 131 126 135 131 126 135 131 126 135 131 126 135 131 126 135 
131 126 135 131 126 135 131 126 135 131 126 135 131 126 135 131 126 135 131 126 135 131 126 135 131 126 135 131 126 135 131 126 135 131 126 135 131 126 135 131 126 135 131 126 135 131 126 135 131 126 135 131 126 135 131 126 135 131 126 135 131 126 135 131 126 135 131 126 135 131 126 135 131 126 135 131 126 135 131 126 135 131 126 135 131 126 135 131 126 135 131 126 135 131 126 135 
131 126 135 131 126 135 131 126 135 131 126 135 131 126 135 131 126 135 131 126 135 131 126 135 131 126 135 131 126 135 131 126 135 131 126 135 131 126 135 131 126 135 131 126 135 131 126 135 131 126 135 131 126 135 131 126 135 131 126 135 131 126 135 131 126 135 131 126 135 131 126 135 131 126 135 131 126 135 131 126 135 131 126 135 131 126 135 131 126 135 131 126 135 131 126 135 
131 126 135 131 126 135 131 126 135 131 126 135 131 126 135 131 126 135 131 126 135 131 126 135 131 126 135 131 126 135 131 126 135 131 126 135 131 126 135 131 126 135 131 126 135 131 126 135 131 126 135 131 126 135 131 126 135 131 126 135 131 126 135 131 126 135 131 126 135 131 126 135 131 126 135 131 126 135 131 126 135 131 126 135 131 126 135 131 126 135 131 126 135 131 126 135 
131 126 135 131 126 135 131 126 135 131 126 135 131 126 135 131 126 135 131 126 135 131 126 135 131 126 135 131 126 135 131 126 135 131 126 135 131 126 135 131 126 135 131 126 135 131 126 135 131 126 135 131 126 135 131 126 135 131 126 135 131 126 135 131 126 135 131 126 135 131 126 135 131 126 135 131 126 135 131 126 135 131 126 135 131 126 135 131 126 135 131 126 135 131 126 135 
131 126 135 131 126 135 131 126 135 131 126 135 131 126 135 131 126 135 131 126 135 131 126 135 131 126 135 131 126 135 131 126 135 131 126 135 131 126 135 131 126 135 131 126 135 131 126 135 131 126 135 131 126 135 131 126 135 131 126 135 131 126 135 131 126 135 131 126 135 131 126 135 131 126 135 131 126 135 131 126 135 131 126 135 131 126 135 131 126 135 131 126 135 131 126 135 
131 126 135 131 126 135 131 126 135 131 126 135 131 126 135 131 126 135 131 126 135 131 126 135 131 126 135 131 126 135 131 126 135 131 126 135 131 126 135 131 126 135 131 126 135 131 126 135 131 126 135 131 126 135 131 126 135 131 126 135 131 126 135 131 126 135 131 126 135 131 126 135 131 126 135 131 126 135 131 126 135 131 126 135 131 126 135 131 126 135 131 126 135 131 126 135 
131 126 135 131 126 135 131 126 135 131 126 135 131 126 135 131 126 135 131 126 135 131 126 135 131 126 135 131 126 135 131 126 135 131 126 135 131 126 135 131 126 135 131 126 135 131 126 135 131 126 135 131 126 135 131 126 135 131 126 135 131 126 135 131 126 135 131 126 135 131 126 135 131 126 135 131 126 135 131 126 135 131 126 135 131 126 135 131 126 135 131 126 135 131 126 135 
131 126 135 131 126 135 131 126 135 131 126 135 131 126 135 131 126 135 131 126 135 131 126 135 131 126 135 131 126 135 131 126 135 131 126 135 131 126 135 131 126 135 131 126 135 131 126 135 131 126 135 131 126 135 131 126 135 131 126 135 131 126 135 131 126 135 131 126 135 131 126 135 131 126 135 131 126 135 131 126 135 131 126 135 131 126 135 131 126 135 131 126 135 131 126 135 
131 126 135 131 126 135 131 126 135 131 126 135 131 126 135 131 126 135 131 126 135 131 126 135 131 126 135 131 126 135 131 126 135 131 126 135 131 126 135 131 126 135 131 126 135 131 126 135 131 126 135 131 126 135 131 126 135 131 126 135 131 126 135 131 126 135 131 126 135 131 126 135 131 126 135 131 126 135 131 126 135 131 126 135 131 126 135 131 126 135 131 126 135 131 126 135 
131 126 135 131 126 135 131 126 135 131 126 135 131 126 135 131 126 135 131 126 135 131 126 135 131 126 135 131 126 135 131 126 135 131 126 135 131 126 135 131 126 135 131 126 135 131 126 135 131 126 135 131 126 135 131 126 135 131 126 135 131 126 135 131 126 135 131 126 135 131 126 135 131 126 135 131 126 135 131 126 135 131 126 135 131 126 135 131 126 135 131 126 135 131 126 135 
131 126 135 131 126 135 131 126 135 131 126 135 131 126 135 131 126 135 131 126 135 131 126 135 131 126 135 131 126 135 131 126 135 131 126 135 131 126 135 131 126 135 131 126 135 131 126 135 131 126 135 131 126 135 131 126 135 131 126 135 131 126 135 131 126 135 131 126 135 131 126 135 131 126 135 131 126 135 131 126 135 131 126 135 131 126 135 131 126 135 131 126 135 131 126 135 
131 126 135 131 126 135 131 126 135 131 126 135 131 126 135 131 126 135 131 126 135 131 126 135 131 126 135 131 126 135 131 126 135 131 126 135 131 126 135 131 126 135 131 126 135 131 126 135 131 126 135 131 126 135 131 126 135 131 126 135 131 126 135 131 126 135 131 126 135 131 126 135 131 126 135 131 126 135 131 126 135 131 126 135 131 126 135 131 126 135 131 126 135 131 126 135 
131 126 135 131 126 135 131 126 135 131 126 135 131 126 135 131 126 135 131 126 135 131 126 135 131 126 135 131 126 135 131 126 135 131 126 135 131 126 135 131 126 135 131 126 135 131 126 135 131 126 135 131 126 135 131 126 135 131 126 135 131 126 135 131 126 135 131 126 135 131 126 135 131 126 135 131 126 135 131 126 135 131 126 135 131 126 135 131 126 135 131 126 135 131 126 135 
131 126 135 131 126 135 131 126 135 131 126 135 131 126 135 131 126 135 131 126 135 131 126 135 131 126 135 131 126 135 131 126 135 131 126 135 131 126 135 131 126 135 131 126 135 131 126 135 131 126 135 131 126 135 131 126 135 131 126 135 131 126 135 131 126 135 131 126 135 131 126 135 131 126 135 131 126 135 131 126 135 131 126 135 131 126 135 131 126 135 131 126 135 131 126 135 
131 126 135 131 126 135 131 126 135 131 126 135 131 126 135 131 126 135 131 126 135 131 126 135 131 126 135 131 126 135 131 126 135 131 126 135 131 126 135 131 126 135 131 126 135 131 126 135 131 126 135 131 126 135 131 126 135 131 126 135 131 126 135 131 126 135 131 126 135 131 126 135 131 126 135 131 126 135 131 126 135 131 126 135 131 126 135 131 126 135 131 126 135 131 126 135 
131 126 135 131 126 135 131 126 135 131 126 135 131 126 135 131 126 135 131 126 135 131 126 135 131 126 135 131 126 135 131 126 135 131 126 135 131 126 135 131 126 135 131 126 135 131 126 135 131 126 135 131 126 135 131 126 135 131 126 135 131 126 135 131 126 135 131 126 135 131 126 135 131 126 135 131 126 135 131 126 135 131 126 135 131 126 135 131 126 135 131 126 135 131 126 135 
131 126 135 131 126 135 131 126 135 131 126 135 131 126 135 131 126 135 131 126 135 131 126 135 131 126 135 131 126 135 131 126 135 131 126 135 131 126 135 131 126 135 131 126 135 131 126 135 131 126 135 131 126 135 131 126 135 131 126 135 131 126 135 131 126 135 131 126 135 131 126 135 131 126 135 131 126 135 131 126 135 131 126 135 131 126 135 131 126 135 131 126 135 131 126 135 
131 126 135 131 126 135 131 126 135 131 126 135 131 126 135 131 126 135 131 126 135 131 126 135 131 126 135 131 126 135 131 126 135 131 126 135 131 126 135 131 126 135 131 126 135 131 126 135 131 126 135 131 126 135 131 126 135 131 126 135 131 126 135 131 126 135 131 126 135 131 126 135 131 126 135 131 126 135 131 126 135 131 126 135 131 126 135 131 126 135 131 126 135 131 126 135 
131 126 135 131 126 135 131 126 135 131 126 135 131 126 135 131 126 135 131 126 135 131 126 135 131 126 135 131 126 135 131 126 135 131 126 135 131 126 135 131 126 135 131 126 135 131 126 135 131 126 135 131 126 135 131 126 135 131 126 135 131 126 135 131 126 135 131 126 135 131 126 135 131 126 135 131 126 135 131 126 135 131 126 135 131 126 135 131 126 135 131 126 135 131 126 135 
131 126 135 131 126 135 131 126 135 131 126 135 131 126 135 131 126 135 131 126 135 131 126 135 131 126 135 131 126 135 131 126 135 131 126 135 131 126 135 131 126 135 131 126 135 131 126 135 131 126 135 131 126 135 131 126 135 131 126 135 131 126 135 131 126 135 131 126 135 131 126 135 131 126 135 131 126 135 131 126 135 131 126 135 131 126 135 131 126 135 131 126 135 131 126 135 
131 126 135 131 126 135 131 126 135 131 126 135 131 126 135 131 126 135 131 126 135 131 126 135 131 126 135 131 126 135 131 126 135 131 126 135 131 126 135 131 126 135 131 126 135 131 126 135 131 126 135 131 126 135 131 126 135 131 126 135 131 126 135 131 126 135 131 126 135 131 126 135 131 126 135 131 126 135 131 126 135 131 126 135 131 126 135 131 126 135 131 126 135 131 126 135 
131 126 135 131 126 135 131 126 135 131 126 135 131 126 135 131 126 135 131 126 135 131 126 135 131 126 135 131 126 135 131 126 135 131 126 135 131 126 135 131 126 135 131 126 135 131 126 135 131 126 135 131 126 135 131 126 135 131 126 135 131 126 135 131 126 135 131 126 135 131 126 135 131 126 135 131 126 135 131 126 135 131 126 135 131 126 135 131 126 135 131 126 135 131 126 135 
131 126 135 131 126 135 131 126 135 131 126 135 131 126 135 131 126 135 131 126 135 131 126 135 131 126 135 131 126 135 131 126 135 131 126 135 131 126 135 131 126 135 131 126 135 131 126 135 131 126 135 131 126 135 131 126 135 131 126 135 131 126 135 131 126 135 131 126 135 131 126 135 131 126 135 131 126 135 131 126 135 131 126 135 131 126 135 131 126 135 131 126 135 131 126 135 
131 126 135 131 126 135 131 126 135 131 126 135 131 126 135 131 126 135 131 126 135 131 126 135 131 126 135 131 126 135 131 126 135 131 126 135 131 126 135 131 126 135 131 126 135 131 126 135 131 126 135 131 126 135 131 126 135 131 126 135 131 126 135 131 126 135 131 126 135 131 126 135 131 126 135 131 126 135 131 126 135 131 126 135 131 126 135 131 126 135 131 126 135 131 126 135 
131 126 135 131 126 135 131 126 135 131 126 135 131 126 135 131 126 135 131 126 135 131 126 135 131 126 135 131 126 135 131 126 135 131 126 135 131 126 135 131 126 135 131 126 135 131 126 135 131 126 135 131 126 135 131 126 135 131 126 135 131 126 135 131 126 135 131 126 135 131 126 135 131 126 135 131 126 135 131 126 135 131 126 135 131 126 135 131 126 135 131 126 135 131 126 135 
131 126 135 131 126 135 131 126 135 131 126 135 131 126 135 131 126 135 131 126 135 131 126 135 131 126 135 131 126 135 131 126 135 131 126 135 131 126 135 131 126 135 131 126 135 131 126 135 131 126 135 131 126 135 131 126 135 131 126 135 131 126 135 131 126 135 131 126 135 131 126 135 131 126 135 131 126 135 131 126 135 131 126 135 131 126 135 131 126 135 131 126 135 131 126 135 
131 126 135 131 126 135 131 126 135 131 126 135 131 126 135 131 126 135 131 126 135 131 126 135 131 126 135 131 126 135 131 126 135 131 126 135 131 126 135 131 126 135 131 126 135 131 126 135 131 126 135 131 126 135 131 126 135 131 126 135 131 126 135 131 126 135 131 126 135 131 126 135 131 126 135 131 126 135 131 126 135 131 126 135 131 126 135 131 126 135 131 126 135 131 126 135 
131 126 135 131 126 135 131 126 135 131 126 135 131 126 135 131 126 135 131 126 135 131 126 135 131 126 135 131 126 135 131 126 135 131 126 135 131 126 135 131 126 135 131 126 135 131 126 135 131 126 135 131 126 135 131 126 135 131 126 135 131 126 135 131 126 135 131 126 135 131 126 135 131 126 135 131 126 135 131 126 135 131 126 135 131 126 135 131 126 135 131 126 135 131 126 135 
131 126 135 131 126 135 131 126 135 131 126 135 131 126 135 131 126 135 131 126 135 131 126 135 131 126 135 131 126 135 131 126 135 131 126 135 131 126 135 131 126 135 131 126 135 131 126 135 131 126 135 131 126 135 131 126 135 131 126 135 131 126 135 131 126 135 131 126 135 131 126 135 131 126 135 131 126 135 131 126 135 131 126 135 131 126 135 131 126 135 131 126 135 131 126 135 
131 126 135 131 126 135 131 126 135 131 126 135 131 126 135 131 126 135 131 126 135 131 126 135 131 126 135 131 126 135 131 126 135 131 126 135 131 126 135 131 126 135 131 126 135 131 126 135 131 126 135 131 126 135 131 126 135 131 126 135 131 126 135 131 126 135 131 126 135 131 126 135 131 126 135 131 126 135 131 126 135 131 126 135 131 126 135 131 126 135 131 126 135 131 126 135 
131 126 135 131 126 135 131 126 135 131 126 135 131 126 135 131 126 135 131 126 135 131 126 135 131 126 135 131 126 135 131 126 135 131 126 135 131 126 135 131 126 135 131 126 135 131 126 135 131 126 135 131 126 135 131 126 135 131 126 135 131 126 135 131 126 135 131 126 135 131 126 135 131 126 135 131 126 135 131 126 135 131 126 135 131 126 135 131 126 135 131 126 135 131 126 135 
131 126 135 131 126 135 131 126 135 131 126 135 131 126 135 131 126 135 131 126 135 131 126 135 131 126 135 131 126 135 131 126 135 131 126 135 131 126 135 131 126 135 131 126 135 131 126 135 131 126 135 131 126 135 131 126 135 131 126 135 131 126 135 131 126 135 131 126 135 131 126 135 131 126 135 131 126 135 131 126 135 131 126 135 131 126 135 131 126 135 131 126 135 131 126 135 
131 126 135 131 126 135 131 126 135 131 126 135 131 126 135 131 126 135 131 126 135 131 126 135 131 126 135 131 126 135 131 126 135 131 126 135 131 126 135 131 126 135 131 126 135 131 126 135 131 126 135 131 126 135 131 126 135 131 126 135 131 126 135 131 126 135 131 126 135 131 126 135 131 126 135 131 126 135 131 126 135 131 126 135 131 126 135 131 126 135 131 126 135 131 126 135 
131 126 135 131 126 135 131 126 135 131 126 135 131 126 135 131 126 135 131 126 135 131 126 135 131 126 135 131 126 135 131 126 135 131 126 135 131 126 135 131 126 135 131 126 135 131 126 135 131 126 135 131 126 135 131 126 135 131 126 135 131 126 135 131 126 135 131 126 135 131 126 135 131 126 135 131 126 135 131 126 135 131 126 135 131 126 135 131 126 135 131 126 135 131 126 135 
131 126 135 131 126 135 131 126 135 131 126 135 131 126 135 131 126 135 131 126 135 131 126 135 131 126 135 131 126 135 131 126 135 131 126 135 131 126 135 131 126 135 131 126 135 131 126 135 131 126 135 131 126 135 131 126 135 131 126 135 131 126 135 131 126 135 131 126 135 131 126 135 131 126 135 131 126 135 131 126 135 131 126 135 131 126 135 131 126 135 131 126 135 131 126 135 
131 126 135 131 126 135 131 126 135 131 126 135 131 126 135 131 126 135 131 126 135 131 126 135 131 126 135 131 126 135 131 126 135 131 126 135 131 126 135 131 126 135 131 126 135 131 126 135 131 126 135 131 126 135 131 126 135 131 126 135 131 126 135 131 126 135 131 126 135 131 126 135 131 126 135 131 126 135 131 126 135 131 126 135 131 126 135 131 126 135 131 126 135 131 126 135 
131 126 135 131 126 135 131 126 135 131 126 135 131 126 135 131 126 135 131 126 135 131 126 135 131 126 135 131 126 135 131 126 135 131 126 135 131 126 135 131 126 135 131 126 135 131 126 135 131 126 135 131 126 135 131 126 135 131 126 135 131 126 135 131 126 135 131 126 135 131 126 135 131 126 135 131 126 135 131 126 135 131 126 135 131 126 135 131 126 135 131 126 135 131 126 135 
131 126 135 131 126 135 131 126 135 131 126 135 131 126 135 131 126 135 131 126 135 131 126 135 131 126 135 131 126 135 131 126 135 131 126 135 131 126 135 131 126 135 131 126 135 131 126 135 131 126 135 131 126 135 131 126 135 131 126 135 131 126 135 131 126 135 131 126 135 131 126 135 131 126 135 131 126 135 131 126 135 131 126 135 131 126 135 131 126 135 131 126 135 131 126 135 
131 126 135 131 126 135 131 126 135 131 126 135 131 126 135 131 126 135 131 126 135 131 126 135 131 126 135 131 126 135 131 126 135 131 126 135 131 126 135 131 126 135 131 126 135 131 126 135 131 126 135 131 126 135 131 126 135 131 126 135 131 126 135 131 126 135 131 126 135 131 126 135 131 126 135 131 126 135 131 126 135 131 126 135 131 126 135 131 126 135 131 126 135 131 126 135 
131 126 135 131 126 135 131 126 135 131 126 135 131 126 135 131 126 135 131 126 135 131 126 135 131 126 135 131 126 135 131 126 135 131 126 135 131 126 135 131 126 135 131 126 135 131 126 135 131 126 135 131 126 135 131 126 135 131 126 135 131 126 135 131 126 135 131 126 135 131 126 135 131 126 135 131 126 135 131 126 135 131 126 135 131 126 135 131 126 135 131 126 135 131 126 135 
131 126 135 131 126 135 131 126 135 131 126 135 131 126 135 131 126 135 131 126 135 131 126 135 131 126 135 131 126 135 131 126 135 131 126 135 131 126 135 131 126 135 131 126 135 131 126 135 131 126 135 131 126 135 131 126 135 131 126 135 131 126 135 131 126 135 131 126 135 131 126 135 131 126 135 131 126 135 131 126 135 131 126 135 131 126 135 131 126 135 131 126 135 131 126 135 
131 126 135 131 126 135 131 126 135 131 126 135 131 126 135 131 126 135 131 126 135 131 126 135 131 126 135 131 126 135 131 126 135 131 126 135 131 126 135 131 126 135 131 126 135 131 126 135 131 126 135 131 126 135 131 126 135 131 126 135 131 126 135 131 126 135 131 126 135 131 126 135 131 126 135 131 126 135 131 126 135 131 126 135 131 126 135 131 126 135 131 126 135 131 126 135 
131 126 135 131 126 135 131 126 135 131 126 135 131 126 135 131 126 135 131 126 135 131 126 135 131 126 135 131 126 135 131 126 135 131 126 135 131 126 135 131 126 135 131 126 135 131 126 135 131 126 135 131 126 135 131 126 135 131 126 135 131 126 135 131 126 135 131 126 135 131 126 135 131 126 135 131 126 135 131 126 135 131 126 135 131 126 135 131 126 135 131 126 135 131 126 135 
131 126 135 131 126 135 131 126 135 131 126 135 131 126 135 131 126 135 131 126 135 131 126 135 131 126 135 131 126 135 131 126 135 131 126 135 131 126 135 131 126 135 131 126 135 131 126 135 131 126 135 131 126 135 131 126 135 131 126 135 131 126 135 131 126 135 131 126 135 131 126 135 131 126 135 131 126 135 131 126 135 131 126 135 131 126 135 131 126 135 131 126 135 131 126 135 
131 126 135 131 126 135 131 126 135 131 126 135 131 126 135 131 126 135 131 126 135 131 126 135 131 126 135 131 126 135 131 126 135 131 126 135 131 126 135 131 126 135 131 126 135 131 126 135 131 126 135 131 126 135 131 126 135 131 126 135 131 126 135 131 126 135 131 126 135 131 126 135 131 126 135 131 126 135 131 126 135 131 126 135 131 126 135 131 126 135 131 126 135 131 126 135 
131 126 135 131 126 135 131 126 135 131 126 135 131 126 135 131 126 135 131 126 135 131 126 135 131 126 135 131 126 135 131 126 135 131 126 135 131 126 135 131 126 135 131 126 135 131 126 135 131 126 135 131 126 135 131 126 135 131 126 135 131 126 135 131 126 135 131 126 135 131 126 135 131 126 135 131 126 135 131 126 135 131 126 135 131 126 135 131 126 135 131 126 135 131 126 135 
131 126 135 131 126 135 131 126 135 131 126 135 131 126 135 131 126 135 131 126 135 131 126 135 131 126 135 131 126 135 131 126 135 131 126 135 131 126 135 131 126 135 131 126 135 131 126 135 131 126 135 131 126 135 131 126 135 131 126 135 131 126 135 131 126 135 131 126 135 131 126 135 131 126 135 131 126 135 131 126 135 131 126 135 131 126 135 131 126 135 131 126 135 131 126 135 
131 126 135 131 126 135 131 126 135 131 126 135 131 126 135 131 126 135 131 126 135 131 126 135 131 126 135 131 126 135 131 126 135 131 126 135 131 126 135 131 126 135 131 126 135 131 126 135 131 126 135 131 126 135 131 126 135 131 126 135 131 126 135 131 126 135 131 126 135 131 126 135 131 126 135 131 126 135 131 126 135 131 126 135 131 126 135 131 126 135 131 126 135 131 126 135 
131 126 135 131 126 135 131 126 135 131 126 135 131 126 135 131 126 135 131 126 135 131 126 135 131 126 135 131 126 135 131 126 135 131 126 135 131 126 135 131 126 135 131 126 135 131 126 135 131 126 135 131 126 135 131 126 135 131 126 135 131 126 135 131 126 135 131 126 135 131 126 135 131 126 135 131 126 135 131 126 135 131 126 135 131 126 135 131 126 135 131 126 135 131 126 135 
131 126 135 131 126 135 131 126 135 131 126 135 131 126 135 131 126 135 131 126 135 131 126 135 131 126 135 131 126 135 131 126 135 131 126 135 131 126 135 131 126 135 131 126 135 131 126 135 131 126 135 131 126 135 131 126 135 131 126 135 131 126 135 131 126 135 131 126 135 131 126 135 131 126 135 131 126 135 131 126 135 131 126 135 131 126 135 131 126 135 131 126 135 131 126 135 
131 126 135 131 126 135 131 126 135 131 126 135 131 126 135 131 126 135 131 126 135 131 126 135 131 126 135 131 126 135 131 126 135 131 126 135 131 126 135 131 126 135 131 126 135 131 126 135 131 126 135 131 126 135 131 126 135 131 126 135 131 126 135 131 126 135 131 126 135 131 126 135 131 126 135 131 126 135 131 126 135 131 126 135 131 126 135 131 126 135 131 126 135 131 126 135 
131 126 135 131 126 135 131 126 135 131 126 135 131 126 135 131 126 135 131 126 135 131 126 135 131 126 135 131 126 135 131 126 135 131 126 135 131 126 135 131 126 135 131 126 135 131 126 135 131 126 135 131 126 135 131 126 135 131 126 135 131 126 135 131 126 135 131 126 135 131 126 135 131 126 135 131 126 135 131 126 135 131 126 135 131 126 135 131 126 135 131 126 135 131 126 135 
131 126 135 131 126 135 131 126 135 131 126 135 131 126 135 131 126 135 131 126 135 131 126 135 131 126 135 131 126 135 131 126 135 131 126 135 131 126 135 131 126 135 131 126 135 131 126 135 131 126 135 131 126 135 131 126 135 131 126 135 131 126 135 131 126 135 131 126 135 131 126 135 131 126 135 131 126 135 131 126 135 131 126 135 131 126 135 131 126 135 131 126 135 131 126 135 
131 126 135 131 126 135 131 126 135 131 126 135 131 126 135 131 126 135 131 126 135 131 126 135 131 126 135 131 126 135 131 126 135 131 126 135 131 126 135 131 126 135 131 126 135 131 126 135 131 126 135 131 126 135 131 126 135 131 126 135 131 126 135 131 126 135 131 126 135 131 126 135 131 126 135 131 126 135 131 126 135 131 126 135 131 126 135 131 126 135 131 126 135 131 126 135 
131 126 135 131 126 135 131 126 135 131 126 135 131 126 135 131 126 135 131 126 135 131 126 135 131 126 135 131 126 135 131 126 135 131 126 135 131 126 135 131 126 135 131 126 135 131 126 135 131 126 135 131 126 135 131 126 135 131 126 135 131 126 135 131 126 135 131 126 135 131 126 135 131 126 135 131 126 135 131 126 135 131 126 135 131 126 135 131 126 135 131 126 135 131 126 135 
131 126 135 131 126 135 131 126 135 131 126 135 131 126 135 131 126 135 131 126 135 131 126 135 131 126 135 131 126 135 131 126 135 131 126 135 131 126 135 131 126 135 131 126 135 131 126 135 131 126 135 131 126 135 131 126 135 131 126 135 131 126 135 131 126 135 131 126 135 131 126 135 131 126 135 131 126 135 131 126 135 131 126 135 131 126 135 131 126 135 131 126 135 131 126 135 
131 126 135 131 126 135 131 126 135 131 126 135 131 126 135 131 126 135 131 126 135 131 126 135 131 126 135 131 126 135 131 126 135 131 126 135 131 126 135 131 126 135 131 126 135 131 126 135 131 126 135 131 126 135 131 126 135 131 126 135 131 126 135 131 126 135 131 126 135 131 126 135 131 126 135 131 126 135 131 126 135 131 126 135 131 126 135 131 126 135 131 126 135 131 126 135 
131 126 135 131 126 135 131 126 135 131 126 135 131 126 135 131 126 135 131 126 135 131 126 135 131 126 135 131 126 135 131 126 135 131 126 135 131 126 135 131 126 135 131 126 135 131 126 135 131 126 135 131 126 135 131 126 135 131 126 135 131 126 135 131 126 135 131 126 135 131 126 135 131 126 135 131 126 135 131 126 135 131 126 135 131 126 135 131 126 135 131 126 135 131 126 135 
131 126 135 131 126 135 131 126 135 131 126 135 131 126 135 131 126 135 131 126 135 131 126 135 131 126 135 131 126 135 131 126 135 131 126 135 131 126 135 131 126 135 131 126 135 131 126 135 131 126 135 131 126 135 131 126 135 131 126 135 131 126 135 131 126 135 131 126 135 131 126 135 131 126 135 131 126 135 131 126 135 131 126 135 131 126 135 131 126 135 131 126 135 131 126 135 
131 126 135 131 126 135 131 126 135 131 126 135 131 126 135 131 126 135 131 126 135 131 126 135 131 126 135 131 126 135 131 126 135 131 126 135 131 126 135 131 126 135 131 126 135 131 126 135 131 126 135 131 126 135 131 126 135 131 126 135 131 126 135 131 126 135 131 126 135 131 126 135 131 126 135 131 126 135 131 126 135 131 126 135 131 126 135 131 126 135 131 126 135 131 126 135 
131 126 135 131 126 135 131 126 135 131 126 135 131 126 135 131 126 135 131 126 135 131 126 135 131 126 135 131 126 135 131 126 135 131 126 135 131 126 135 131 126 135 131 126 135 131 126 135 131 126 135 131 126 135 131 126 135 131 126 135 131 126 135 131 126 135 131 126 135 131 126 135 131 126 135 131 126 135 131 126 135 131 126 135 131 126 135 131 126 135 131 126 135 131 126 135 
131 126 135 131 126 135 131 126 135 131 126 135 131 126 135 131 126 135 131 126 135 131 126 135 131 126 135 131 126 135 131 126 135 131 126 135 131 126 135 131 126 135 131 126 135 131 126 135 131 126 135 131 126 135 131 126 135 131 126 135 131 126 135 131 126 135 131 126 135 131 126 135 131 126 135 131 126 135 131 126 135 131 126 135 131 126 135 131 126 135 131 126 135 131 126 135 
131 126 135 131 126 135 131 126 135 131 126 135 131 126 135 131 126 135 131 126 135 131 126 135 131 126 135 131 126 135 131 126 135 131 126 135 131 126 135 131 126 135 131 126 135 131 126 135 131 126 135 131 126 135 131 126 135 131 126 135 131 126 135 131 126 135 131 126 135 131 126 135 131 126 135 131 126 135 131 126 135 131 126 135 131 126 135 131 126 135 131 126 135 131 126 135 
131 126 135 131 126 135 131 126 135 131 126 135 131 126 135 131 126 135 131 126 135 131 126 135 131 126 135 131 126 135 131 126 135 131 126 135 131 126 135 131 126 135 131 126 135 131 126 135 131 126 135 131 126 135 131 126 135 131 126 135 131 126 135 131 126 135 131 126 135 131 126 135 131 126 135 131 126 135 131 126 135 131 126 135 131 126 135 131 126 135 131 126 135 131 126 135 
131 126 135 131 126 135 131 126 135 131 126 135 131 126 135 131 126 135 131 126 135 131 126 135 131 126 135 131 126 135 131 126 135 131 126 135 131 126 135 131 126 135 131 126 135 131 126 135 131 126 135 131 126 135 131 126 135 131 126 135 131 126 135 131 126 135 131 126 135 131 126 135 131 126 135 131 126 135 131 126 135 131 126 135 131 126 135 131 126 135 131 126 135 131 126 135 
131 126 135 131 126 135 131 126 135 131 126 135 131 126 135 131 126 135 131 126 135 131 126 135 131 126 135 131 126 135 131 126 135 131 126 135 131 126 135 131 126 135 131 126 135 131 126 135 131 126 135 131 126 135 131 126 135 131 126 135 131 126 135 131 126 135 131 126 135 131 126 135 131 126 135 131 126 135 131 126 135 131 126 135 131 126 135 131 126 135 131 126 135 131 126 135 
