P3
# Created by GIMP version 2.10.30 PNM plug-in
21 13
255
198
132
68
198
132
68
198
132
68
198
132
68
198
132
68
198
132
68
198
132
68
198
132
68
198
132
68
198
132
68
0
0
0
198
132
68
198
132
68
198
132
68
198
132
68
198
132
68
198
132
68
198
132
68
198
132
68
198
132
68
198
132
68
198
132
68
198
132
68
198
132
68
198
132
68
198
132
68
198
132
68
198
132
68
198
132
68
198
132
68
198
132
68
198
132
68
198
132
68
198
132
68
198
132
68
198
132
68
198
132
68
198
132
68
198
132
68
198
132
68
198
132
68
198
132
68
198
132
68
198
132
68
198
132
68
198
132
68
198
132
68
198
132
68
0
0
0
198
132
68
198
132
68
198
132
68
0
0
0
198
132
68
198
132
68
198
132
68
0
0
0
198
132
68
198
132
68
198
132
68
198
132
68
198
132
68
198
132
68
198
132
68
198
132
68
198
132
68
198
132
68
198
132
68
198
132
68
198
132
68
198
132
68
198
132
68
198
132
68
198
132
68
198
132
68
198
132
68
198
132
68
198
132
68
198
132
68
198
132
68
198
132
68
198
132
68
198
132
68
198
132
68
0
0
0
198
132
68
198
132
68
198
132
68
198
132
68
198
132
68
198
132
68
198
132
68
198
132
68
198
132
68
0
0
0
198
132
68
198
132
68
198
132
68
198
132
68
198
132
68
198
132
68
198
132
68
198
132
68
198
132
68
0
0
0
198
132
68
198
132
68
198
132
68
198
132
68
198
132
68
198
132
68
198
132
68
198
132
68
198
132
68
198
132
68
198
132
68
198
132
68
198
132
68
198
132
68
198
132
68
198
132
68
198
132
68
198
132
68
198
132
68
198
132
68
198
132
68
0
0
0
198
132
68
0
0
0
198
132
68
0
0
0
198
132
68
0
0
0
198
132
68
0
0
0
198
132
68
0
0
0
198
132
68
0
0
0
198
132
68
0
0
0
198
132
68
0
0
0
198
132
68
0
0
0
198
132
68
0
0
0
198
132
68
198
132
68
198
132
68
198
132
68
198
132
68
198
132
68
198
132
68
198
132
68
198
132
68
198
132
68
198
132
68
198
132
68
198
132
68
198
132
68
198
132
68
198
132
68
198
132
68
198
132
68
198
132
68
198
132
68
198
132
68
0
0
0
198
132
68
198
132
68
198
132
68
198
132
68
198
132
68
198
132
68
198
132
68
198
132
68
198
132
68
0
0
0
198
132
68
198
132
68
198
132
68
198
132
68
198
132
68
198
132
68
198
132
68
198
132
68
198
132
68
0
0
0
198
132
68
198
132
68
198
132
68
198
132
68
198
132
68
198
132
68
0
0
0
198
132
68
198
132
68
198
132
68
198
132
68
198
132
68
198
132
68
198
132
68
0
0
0
198
132
68
198
132
68
198
132
68
198
132
68
198
132
68
198
132
68
198
132
68
198
132
68
198
132
68
198
132
68
198
132
68
198
132
68
198
132
68
198
132
68
198
132
68
198
132
68
0
0
0
198
132
68
198
132
68
198
132
68
198
132
68
198
132
68
198
132
68
198
132
68
198
132
68
198
132
68
198
132
68
198
132
68
198
132
68
198
132
68
198
132
68
198
132
68
198
132
68
198
132
68
198
132
68
198
132
68
198
132
68
198
132
68
198
132
68
198
132
68
198
132
68
198
132
68
198
132
68
198
132
68
198
132
68
198
132
68
198
132
68
198
132
68
198
132
68
198
132
68
198
132
68
198
132
68
198
132
68
198
132
68
198
132
68
198
132
68
198
132
68
198
132
68
0
0
0
198
132
68
198
132
68
198
132
68
198
132
68
198
132
68
198
132
68
198
132
68
198
132
68
198
132
68
198
132
68
