P3
9 9
255
0 0 0 0 0 0 0 0 0 0 0 0 0 0 0 0 0 0 0 0 0 0 0 0 0 0 0 
0 0 0 0 0 0 0 0 0 141 230 39 141 230 39 141 216 54 0 0 0 0 0 0 0 0 0 
0 0 0 0 0 0 0 0 0 141 230 39 141 216 54 141 216 54 0 0 0 0 0 0 0 0 0 
0 0 0 141 230 39 141 230 39 141 216 54 141 216 54 141 216 54 141 216 54 141 216 54 0 0 0 
0 0 0 141 230 39 141 216 54 141 216 54 141 216 54 141 216 54 141 216 54 141 216 54 0 0 0 
0 0 0 141 216 54 141 216 54 141 216 54 141 216 54 141 216 54 132 211 39 132 211 39 0 0 0 
0 0 0 0 0 0 0 0 0 141 216 54 141 216 54 132 211 39 0 0 0 0 0 0 0 0 0 
0 0 0 0 0 0 0 0 0 141 216 54 132 211 39 132 211 39 0 0 0 0 0 0 0 0 0 
0 0 0 0 0 0 0 0 0 0 0 0 0 0 0 0 0 0 0 0 0 0 0 0 0 0 0 
