P3
9 9
255
0 0 0 0 0 0 91 110 225 0 0 0 0 0 0 0 0 0 91 110 225 0 0 0 0 0 0 
0 0 0 91 110 225 91 110 225 91 110 225 0 0 0 91 110 225 91 110 225 91 110 225 0 0 0 
0 0 0 0 0 0 91 110 225 0 0 0 0 0 0 0 0 0 91 110 225 0 0 0 0 0 0 
0 0 0 0 0 0 0 0 0 0 0 0 91 110 225 0 0 0 0 0 0 0 0 0 0 0 0 
0 0 0 0 0 0 0 0 0 91 110 225 91 110 225 91 110 225 0 0 0 0 0 0 0 0 0 
0 0 0 91 110 225 0 0 0 0 0 0 91 110 225 0 0 0 0 0 0 0 0 0 0 0 0 
91 110 225 91 110 225 91 110 225 0 0 0 0 0 0 0 0 0 91 110 225 0 0 0 0 0 0 
0 0 0 91 110 225 0 0 0 0 0 0 0 0 0 91 110 225 91 110 225 91 110 225 0 0 0 
0 0 0 0 0 0 0 0 0 0 0 0 0 0 0 0 0 0 91 110 225 0 0 0 0 0 0 
